<?xml version="1.0" encoding="UTF-8" standalone="no"?>
<!DOCTYPE svg PUBLIC "-//W3C//DTD SVG 1.1//EN"
 "http://www.w3.org/Graphics/SVG/1.1/DTD/svg11.dtd">
<!-- Generated by graphviz version 12.2.0 (20241103.1931)
 -->
<!-- Pages: 1 -->
<svg width="802pt" height="716pt"
 viewBox="0.00 0.00 802.00 715.50" xmlns="http://www.w3.org/2000/svg" xmlns:xlink="http://www.w3.org/1999/xlink">
<g id="graph0" class="graph" transform="scale(1 1) rotate(0) translate(4 711.5)">
<polygon fill="#dcdcdc" stroke="none" points="-4,4 -4,-711.5 798,-711.5 798,4 -4,4"/>
<!-- node0x103601de0 -->
<g id="node1" class="node">
<title>node0x103601de0</title>
<path fill="#fbee21" stroke="#d3c70d" d="M117.62,-608.5C117.62,-608.5 344.88,-608.5 344.88,-608.5 350.88,-608.5 356.88,-614.5 356.88,-620.5 356.88,-620.5 356.88,-695 356.88,-695 356.88,-701 350.88,-707 344.88,-707 344.88,-707 117.63,-707 117.63,-707 111.62,-707 105.62,-701 105.62,-695 105.62,-695 105.62,-620.5 105.62,-620.5 105.62,-614.5 111.62,-608.5 117.62,-608.5"/>
<text text-anchor="middle" x="231.25" y="-689.7" font-family="Times,serif" font-size="14.00" fill="#000000">Animal</text>
<text text-anchor="middle" x="231.25" y="-673.2" font-family="Times,serif" font-size="14.00" fill="#000000">0x103601de0</text>
<polyline fill="none" stroke="#d3c70d" points="105.62,-666 356.88,-666"/>
<text text-anchor="middle" x="150.75" y="-648.7" font-family="Times,serif" font-size="14.00" fill="#000000">Left</text>
<text text-anchor="middle" x="150.75" y="-632.2" font-family="Times,serif" font-size="14.00" fill="#000000">Poltorashka</text>
<text text-anchor="middle" x="150.75" y="-615.7" font-family="Times,serif" font-size="14.00" fill="#000000">0x103601db0</text>
<polyline fill="none" stroke="#d3c70d" points="195.88,-608.5 195.88,-666"/>
<text text-anchor="middle" x="222.62" y="-648.7" font-family="Times,serif" font-size="14.00" fill="#000000">Parent</text>
<text text-anchor="middle" x="222.62" y="-632.2" font-family="Times,serif" font-size="14.00" fill="#000000">NONE</text>
<text text-anchor="middle" x="222.62" y="-615.7" font-family="Times,serif" font-size="14.00" fill="#000000">0x0</text>
<polyline fill="none" stroke="#d3c70d" points="249.38,-608.5 249.38,-666"/>
<text text-anchor="middle" x="303.12" y="-648.7" font-family="Times,serif" font-size="14.00" fill="#000000">Right</text>
<text text-anchor="middle" x="303.12" y="-632.2" font-family="Times,serif" font-size="14.00" fill="#000000">Teaches analisys</text>
<text text-anchor="middle" x="303.12" y="-615.7" font-family="Times,serif" font-size="14.00" fill="#000000">0x103601d80</text>
</g>
<!-- node0x103601db0 -->
<g id="node2" class="node">
<title>node0x103601db0</title>
<path fill="#d5cfe1" stroke="#8797b2" d="M12,-456.5C12,-456.5 184.5,-456.5 184.5,-456.5 190.5,-456.5 196.5,-462.5 196.5,-468.5 196.5,-468.5 196.5,-543 196.5,-543 196.5,-549 190.5,-555 184.5,-555 184.5,-555 12,-555 12,-555 6,-555 0,-549 0,-543 0,-543 0,-468.5 0,-468.5 0,-462.5 6,-456.5 12,-456.5"/>
<text text-anchor="middle" x="98.25" y="-537.7" font-family="Times,serif" font-size="14.00" fill="#000000">Poltorashka</text>
<text text-anchor="middle" x="98.25" y="-521.2" font-family="Times,serif" font-size="14.00" fill="#000000">0x103601db0</text>
<polyline fill="none" stroke="#8797b2" points="0,-514 196.5,-514"/>
<text text-anchor="middle" x="26.75" y="-496.7" font-family="Times,serif" font-size="14.00" fill="#000000">Left</text>
<text text-anchor="middle" x="26.75" y="-480.2" font-family="Times,serif" font-size="14.00" fill="#000000">NONE</text>
<text text-anchor="middle" x="26.75" y="-463.7" font-family="Times,serif" font-size="14.00" fill="#000000">0x0</text>
<polyline fill="none" stroke="#8797b2" points="53.5,-456.5 53.5,-514"/>
<text text-anchor="middle" x="98.25" y="-496.7" font-family="Times,serif" font-size="14.00" fill="#000000">Parent</text>
<text text-anchor="middle" x="98.25" y="-480.2" font-family="Times,serif" font-size="14.00" fill="#000000">Animal</text>
<text text-anchor="middle" x="98.25" y="-463.7" font-family="Times,serif" font-size="14.00" fill="#000000">0x103601de0</text>
<polyline fill="none" stroke="#8797b2" points="143,-456.5 143,-514"/>
<text text-anchor="middle" x="169.75" y="-496.7" font-family="Times,serif" font-size="14.00" fill="#000000">Right</text>
<text text-anchor="middle" x="169.75" y="-480.2" font-family="Times,serif" font-size="14.00" fill="#000000">NONE</text>
<text text-anchor="middle" x="169.75" y="-463.7" font-family="Times,serif" font-size="14.00" fill="#000000">0x0</text>
</g>
<!-- node0x103601de0&#45;&gt;node0x103601db0 -->
<g id="edge1" class="edge">
<title>node0x103601de0:left&#45;&gt;node0x103601db0</title>
<path fill="none" stroke="#187ae8" stroke-width="2" d="M104.62,-637.25C73.92,-637.25 73.9,-600.77 80.71,-566.38"/>
<polygon fill="#187ae8" stroke="#187ae8" stroke-width="2" points="83.76,-568.82 82.48,-558.3 76.92,-567.32 83.76,-568.82"/>
<text text-anchor="middle" x="86.89" y="-576.7" font-family="Times,serif" font-size="14.00">Да</text>
</g>
<!-- node0x103601d80 -->
<g id="node4" class="node">
<title>node0x103601d80</title>
<path fill="#bdef9e" stroke="#99c2a2" d="M226.12,-456.5C226.12,-456.5 486.38,-456.5 486.38,-456.5 492.38,-456.5 498.38,-462.5 498.38,-468.5 498.38,-468.5 498.38,-543 498.38,-543 498.38,-549 492.38,-555 486.38,-555 486.38,-555 226.12,-555 226.12,-555 220.12,-555 214.12,-549 214.12,-543 214.12,-543 214.12,-468.5 214.12,-468.5 214.12,-462.5 220.12,-456.5 226.12,-456.5"/>
<text text-anchor="middle" x="356.25" y="-537.7" font-family="Times,serif" font-size="14.00" fill="#000000">Teaches analisys</text>
<text text-anchor="middle" x="356.25" y="-521.2" font-family="Times,serif" font-size="14.00" fill="#000000">0x103601d80</text>
<polyline fill="none" stroke="#99c2a2" points="214.12,-514 498.38,-514"/>
<text text-anchor="middle" x="259.25" y="-496.7" font-family="Times,serif" font-size="14.00" fill="#000000">Left</text>
<text text-anchor="middle" x="259.25" y="-480.2" font-family="Times,serif" font-size="14.00" fill="#000000">Burtsev</text>
<text text-anchor="middle" x="259.25" y="-463.7" font-family="Times,serif" font-size="14.00" fill="#000000">0x103601d20</text>
<polyline fill="none" stroke="#99c2a2" points="304.38,-456.5 304.38,-514"/>
<text text-anchor="middle" x="349.12" y="-496.7" font-family="Times,serif" font-size="14.00" fill="#000000">Parent</text>
<text text-anchor="middle" x="349.12" y="-480.2" font-family="Times,serif" font-size="14.00" fill="#000000">Animal</text>
<text text-anchor="middle" x="349.12" y="-463.7" font-family="Times,serif" font-size="14.00" fill="#000000">0x103601de0</text>
<polyline fill="none" stroke="#99c2a2" points="393.88,-456.5 393.88,-514"/>
<text text-anchor="middle" x="446.12" y="-496.7" font-family="Times,serif" font-size="14.00" fill="#000000">Right</text>
<text text-anchor="middle" x="446.12" y="-480.2" font-family="Times,serif" font-size="14.00" fill="#000000">Teaches physics</text>
<text text-anchor="middle" x="446.12" y="-463.7" font-family="Times,serif" font-size="14.00" fill="#000000">0x103601cf0</text>
</g>
<!-- node0x103601de0&#45;&gt;node0x103601d80 -->
<g id="edge9" class="edge">
<title>node0x103601de0:right&#45;&gt;node0x103601d80</title>
<path fill="none" stroke="#48e818" stroke-width="2" d="M303.12,-608C303.12,-593.37 307.53,-578.77 313.8,-565.39"/>
<polygon fill="#48e818" stroke="#48e818" stroke-width="2" points="316.08,-568.61 317.54,-558.12 309.86,-565.42 316.08,-568.61"/>
<text text-anchor="middle" x="320.58" y="-576.7" font-family="Times,serif" font-size="14.00">Нет</text>
</g>
<!-- node0x103601c30 -->
<g id="node3" class="node">
<title>node0x103601c30</title>
<path fill="#f18805" stroke="#af3800" d="M558.5,-152.5C558.5,-152.5 782,-152.5 782,-152.5 788,-152.5 794,-158.5 794,-164.5 794,-164.5 794,-239 794,-239 794,-245 788,-251 782,-251 782,-251 558.5,-251 558.5,-251 552.5,-251 546.5,-245 546.5,-239 546.5,-239 546.5,-164.5 546.5,-164.5 546.5,-158.5 552.5,-152.5 558.5,-152.5"/>
<text text-anchor="middle" x="670.25" y="-233.7" font-family="Times,serif" font-size="14.00" fill="#000000">Teaches angem</text>
<text text-anchor="middle" x="670.25" y="-217.2" font-family="Times,serif" font-size="14.00" fill="#000000">0x103601c30</text>
<polyline fill="none" stroke="#af3800" points="546.5,-210 794,-210"/>
<text text-anchor="middle" x="591.25" y="-192.7" font-family="Times,serif" font-size="14.00" fill="#000000">Left</text>
<text text-anchor="middle" x="591.25" y="-176.2" font-family="Times,serif" font-size="14.00" fill="#000000">Chubarik</text>
<text text-anchor="middle" x="591.25" y="-159.7" font-family="Times,serif" font-size="14.00" fill="#000000">0x103601c00</text>
<polyline fill="none" stroke="#af3800" points="636,-152.5 636,-210"/>
<text text-anchor="middle" x="688.25" y="-192.7" font-family="Times,serif" font-size="14.00" fill="#000000">Parent</text>
<text text-anchor="middle" x="688.25" y="-176.2" font-family="Times,serif" font-size="14.00" fill="#000000">Teaches physics</text>
<text text-anchor="middle" x="688.25" y="-159.7" font-family="Times,serif" font-size="14.00" fill="#000000">0x103601cf0</text>
<polyline fill="none" stroke="#af3800" points="740.5,-152.5 740.5,-210"/>
<text text-anchor="middle" x="767.25" y="-192.7" font-family="Times,serif" font-size="14.00" fill="#000000">Right</text>
<text text-anchor="middle" x="767.25" y="-176.2" font-family="Times,serif" font-size="14.00" fill="#000000">NONE</text>
<text text-anchor="middle" x="767.25" y="-159.7" font-family="Times,serif" font-size="14.00" fill="#000000">0x0</text>
</g>
<!-- node0x103601c00 -->
<g id="node10" class="node">
<title>node0x103601c00</title>
<path fill="#d5cfe1" stroke="#8797b2" d="M523.38,-0.5C523.38,-0.5 707.12,-0.5 707.12,-0.5 713.12,-0.5 719.12,-6.5 719.12,-12.5 719.12,-12.5 719.12,-87 719.12,-87 719.12,-93 713.12,-99 707.12,-99 707.12,-99 523.38,-99 523.38,-99 517.38,-99 511.38,-93 511.38,-87 511.38,-87 511.38,-12.5 511.38,-12.5 511.38,-6.5 517.38,-0.5 523.38,-0.5"/>
<text text-anchor="middle" x="615.25" y="-81.7" font-family="Times,serif" font-size="14.00" fill="#000000">Chubarik</text>
<text text-anchor="middle" x="615.25" y="-65.2" font-family="Times,serif" font-size="14.00" fill="#000000">0x103601c00</text>
<polyline fill="none" stroke="#8797b2" points="511.38,-58 719.12,-58"/>
<text text-anchor="middle" x="538.12" y="-40.7" font-family="Times,serif" font-size="14.00" fill="#000000">Left</text>
<text text-anchor="middle" x="538.12" y="-24.2" font-family="Times,serif" font-size="14.00" fill="#000000">NONE</text>
<text text-anchor="middle" x="538.12" y="-7.7" font-family="Times,serif" font-size="14.00" fill="#000000">0x0</text>
<polyline fill="none" stroke="#8797b2" points="564.88,-0.5 564.88,-58"/>
<text text-anchor="middle" x="615.25" y="-40.7" font-family="Times,serif" font-size="14.00" fill="#000000">Parent</text>
<text text-anchor="middle" x="615.25" y="-24.2" font-family="Times,serif" font-size="14.00" fill="#000000">Teaches angem</text>
<text text-anchor="middle" x="615.25" y="-7.7" font-family="Times,serif" font-size="14.00" fill="#000000">0x103601c30</text>
<polyline fill="none" stroke="#8797b2" points="665.62,-0.5 665.62,-58"/>
<text text-anchor="middle" x="692.38" y="-40.7" font-family="Times,serif" font-size="14.00" fill="#000000">Right</text>
<text text-anchor="middle" x="692.38" y="-24.2" font-family="Times,serif" font-size="14.00" fill="#000000">NONE</text>
<text text-anchor="middle" x="692.38" y="-7.7" font-family="Times,serif" font-size="14.00" fill="#000000">0x0</text>
</g>
<!-- node0x103601c30&#45;&gt;node0x103601c00 -->
<g id="edge6" class="edge">
<title>node0x103601c30:left&#45;&gt;node0x103601c00</title>
<path fill="none" stroke="#187ae8" stroke-width="2" d="M591.25,-152C591.25,-138.38 593.33,-124 596.27,-110.49"/>
<polygon fill="#187ae8" stroke="#187ae8" stroke-width="2" points="599.3,-112.87 598.21,-102.33 592.49,-111.25 599.3,-112.87"/>
<text text-anchor="middle" x="602.61" y="-120.7" font-family="Times,serif" font-size="14.00">Да</text>
</g>
<!-- node0x103601d20 -->
<g id="node5" class="node">
<title>node0x103601d20</title>
<path fill="#d5cfe1" stroke="#8797b2" d="M142,-304.5C142,-304.5 332.5,-304.5 332.5,-304.5 338.5,-304.5 344.5,-310.5 344.5,-316.5 344.5,-316.5 344.5,-391 344.5,-391 344.5,-397 338.5,-403 332.5,-403 332.5,-403 142,-403 142,-403 136,-403 130,-397 130,-391 130,-391 130,-316.5 130,-316.5 130,-310.5 136,-304.5 142,-304.5"/>
<text text-anchor="middle" x="237.25" y="-385.7" font-family="Times,serif" font-size="14.00" fill="#000000">Burtsev</text>
<text text-anchor="middle" x="237.25" y="-369.2" font-family="Times,serif" font-size="14.00" fill="#000000">0x103601d20</text>
<polyline fill="none" stroke="#8797b2" points="130,-362 344.5,-362"/>
<text text-anchor="middle" x="156.75" y="-344.7" font-family="Times,serif" font-size="14.00" fill="#000000">Left</text>
<text text-anchor="middle" x="156.75" y="-328.2" font-family="Times,serif" font-size="14.00" fill="#000000">NONE</text>
<text text-anchor="middle" x="156.75" y="-311.7" font-family="Times,serif" font-size="14.00" fill="#000000">0x0</text>
<polyline fill="none" stroke="#8797b2" points="183.5,-304.5 183.5,-362"/>
<text text-anchor="middle" x="237.25" y="-344.7" font-family="Times,serif" font-size="14.00" fill="#000000">Parent</text>
<text text-anchor="middle" x="237.25" y="-328.2" font-family="Times,serif" font-size="14.00" fill="#000000">Teaches analisys</text>
<text text-anchor="middle" x="237.25" y="-311.7" font-family="Times,serif" font-size="14.00" fill="#000000">0x103601d80</text>
<polyline fill="none" stroke="#8797b2" points="291,-304.5 291,-362"/>
<text text-anchor="middle" x="317.75" y="-344.7" font-family="Times,serif" font-size="14.00" fill="#000000">Right</text>
<text text-anchor="middle" x="317.75" y="-328.2" font-family="Times,serif" font-size="14.00" fill="#000000">NONE</text>
<text text-anchor="middle" x="317.75" y="-311.7" font-family="Times,serif" font-size="14.00" fill="#000000">0x0</text>
</g>
<!-- node0x103601d80&#45;&gt;node0x103601d20 -->
<g id="edge2" class="edge">
<title>node0x103601d80:left&#45;&gt;node0x103601d20</title>
<path fill="none" stroke="#187ae8" stroke-width="2" d="M259.25,-456C259.25,-442.44 257.34,-428.08 254.65,-414.58"/>
<polygon fill="#187ae8" stroke="#187ae8" stroke-width="2" points="258.42,-415.45 252.87,-406.43 251.58,-416.94 258.42,-415.45"/>
<text text-anchor="middle" x="265.95" y="-424.7" font-family="Times,serif" font-size="14.00">Да</text>
</g>
<!-- node0x103601cf0 -->
<g id="node6" class="node">
<title>node0x103601cf0</title>
<path fill="#bdef9e" stroke="#99c2a2" d="M374.75,-304.5C374.75,-304.5 647.75,-304.5 647.75,-304.5 653.75,-304.5 659.75,-310.5 659.75,-316.5 659.75,-316.5 659.75,-391 659.75,-391 659.75,-397 653.75,-403 647.75,-403 647.75,-403 374.75,-403 374.75,-403 368.75,-403 362.75,-397 362.75,-391 362.75,-391 362.75,-316.5 362.75,-316.5 362.75,-310.5 368.75,-304.5 374.75,-304.5"/>
<text text-anchor="middle" x="511.25" y="-385.7" font-family="Times,serif" font-size="14.00" fill="#000000">Teaches physics</text>
<text text-anchor="middle" x="511.25" y="-369.2" font-family="Times,serif" font-size="14.00" fill="#000000">0x103601cf0</text>
<polyline fill="none" stroke="#99c2a2" points="362.75,-362 659.75,-362"/>
<text text-anchor="middle" x="407.12" y="-344.7" font-family="Times,serif" font-size="14.00" fill="#000000">Left</text>
<text text-anchor="middle" x="407.12" y="-328.2" font-family="Times,serif" font-size="14.00" fill="#000000">Nefor</text>
<text text-anchor="middle" x="407.12" y="-311.7" font-family="Times,serif" font-size="14.00" fill="#000000">0x103601cc0</text>
<polyline fill="none" stroke="#99c2a2" points="451.5,-304.5 451.5,-362"/>
<text text-anchor="middle" x="505.25" y="-344.7" font-family="Times,serif" font-size="14.00" fill="#000000">Parent</text>
<text text-anchor="middle" x="505.25" y="-328.2" font-family="Times,serif" font-size="14.00" fill="#000000">Teaches analisys</text>
<text text-anchor="middle" x="505.25" y="-311.7" font-family="Times,serif" font-size="14.00" fill="#000000">0x103601d80</text>
<polyline fill="none" stroke="#99c2a2" points="559,-304.5 559,-362"/>
<text text-anchor="middle" x="609.38" y="-344.7" font-family="Times,serif" font-size="14.00" fill="#000000">Right</text>
<text text-anchor="middle" x="609.38" y="-328.2" font-family="Times,serif" font-size="14.00" fill="#000000">Teaches angem</text>
<text text-anchor="middle" x="609.38" y="-311.7" font-family="Times,serif" font-size="14.00" fill="#000000">0x103601c30</text>
</g>
<!-- node0x103601d80&#45;&gt;node0x103601cf0 -->
<g id="edge8" class="edge">
<title>node0x103601d80:right&#45;&gt;node0x103601cf0</title>
<path fill="none" stroke="#48e818" stroke-width="2" d="M446.12,-456C446.12,-440.78 451.4,-426.03 458.94,-412.7"/>
<polygon fill="#48e818" stroke="#48e818" stroke-width="2" points="460.9,-416.19 463.19,-405.84 454.95,-412.5 460.9,-416.19"/>
<text text-anchor="middle" x="465.07" y="-424.7" font-family="Times,serif" font-size="14.00">Нет</text>
</g>
<!-- node0x103601cf0&#45;&gt;node0x103601c30 -->
<g id="edge7" class="edge">
<title>node0x103601cf0:right&#45;&gt;node0x103601c30</title>
<path fill="none" stroke="#48e818" stroke-width="2" d="M609.38,-304C609.38,-289.13 614.26,-274.56 621.26,-261.31"/>
<polygon fill="#48e818" stroke="#48e818" stroke-width="2" points="623.47,-264.48 625.46,-254.07 617.42,-260.96 623.47,-264.48"/>
<text text-anchor="middle" x="627.79" y="-272.7" font-family="Times,serif" font-size="14.00">Нет</text>
</g>
<!-- node0x103601cc0 -->
<g id="node7" class="node">
<title>node0x103601cc0</title>
<path fill="#d5cfe1" stroke="#8797b2" d="M168.5,-152.5C168.5,-152.5 428,-152.5 428,-152.5 434,-152.5 440,-158.5 440,-164.5 440,-164.5 440,-239 440,-239 440,-245 434,-251 428,-251 428,-251 168.5,-251 168.5,-251 162.5,-251 156.5,-245 156.5,-239 156.5,-239 156.5,-164.5 156.5,-164.5 156.5,-158.5 162.5,-152.5 168.5,-152.5"/>
<text text-anchor="middle" x="298.25" y="-233.7" font-family="Times,serif" font-size="14.00" fill="#000000">Nefor</text>
<text text-anchor="middle" x="298.25" y="-217.2" font-family="Times,serif" font-size="14.00" fill="#000000">0x103601cc0</text>
<polyline fill="none" stroke="#8797b2" points="156.5,-210 440,-210"/>
<text text-anchor="middle" x="201.25" y="-192.7" font-family="Times,serif" font-size="14.00" fill="#000000">Left</text>
<text text-anchor="middle" x="201.25" y="-176.2" font-family="Times,serif" font-size="14.00" fill="#000000">Magic</text>
<text text-anchor="middle" x="201.25" y="-159.7" font-family="Times,serif" font-size="14.00" fill="#000000">0x103601c90</text>
<polyline fill="none" stroke="#8797b2" points="246,-152.5 246,-210"/>
<text text-anchor="middle" x="298.25" y="-192.7" font-family="Times,serif" font-size="14.00" fill="#000000">Parent</text>
<text text-anchor="middle" x="298.25" y="-176.2" font-family="Times,serif" font-size="14.00" fill="#000000">Teaches physics</text>
<text text-anchor="middle" x="298.25" y="-159.7" font-family="Times,serif" font-size="14.00" fill="#000000">0x103601cf0</text>
<polyline fill="none" stroke="#8797b2" points="350.5,-152.5 350.5,-210"/>
<text text-anchor="middle" x="395.25" y="-192.7" font-family="Times,serif" font-size="14.00" fill="#000000">Right</text>
<text text-anchor="middle" x="395.25" y="-176.2" font-family="Times,serif" font-size="14.00" fill="#000000">Ovchos</text>
<text text-anchor="middle" x="395.25" y="-159.7" font-family="Times,serif" font-size="14.00" fill="#000000">0x103601c60</text>
</g>
<!-- node0x103601cf0&#45;&gt;node0x103601cc0 -->
<g id="edge3" class="edge">
<title>node0x103601cf0:left&#45;&gt;node0x103601cc0</title>
<path fill="none" stroke="#187ae8" stroke-width="2" d="M407.12,-304C407.12,-287.22 400.11,-272.44 389.63,-259.71"/>
<polygon fill="#187ae8" stroke="#187ae8" stroke-width="2" points="393.25,-258.48 383.92,-253.47 388.09,-263.21 393.25,-258.48"/>
<text text-anchor="middle" x="411.95" y="-272.7" font-family="Times,serif" font-size="14.00">Да</text>
</g>
<!-- node0x103601c90 -->
<g id="node8" class="node">
<title>node0x103601c90</title>
<path fill="#d5cfe1" stroke="#8797b2" d="M95.38,-0.5C95.38,-0.5 267.12,-0.5 267.12,-0.5 273.12,-0.5 279.12,-6.5 279.12,-12.5 279.12,-12.5 279.12,-87 279.12,-87 279.12,-93 273.12,-99 267.12,-99 267.12,-99 95.37,-99 95.37,-99 89.38,-99 83.38,-93 83.38,-87 83.38,-87 83.38,-12.5 83.38,-12.5 83.38,-6.5 89.38,-0.5 95.38,-0.5"/>
<text text-anchor="middle" x="181.25" y="-81.7" font-family="Times,serif" font-size="14.00" fill="#000000">Magic</text>
<text text-anchor="middle" x="181.25" y="-65.2" font-family="Times,serif" font-size="14.00" fill="#000000">0x103601c90</text>
<polyline fill="none" stroke="#8797b2" points="83.38,-58 279.12,-58"/>
<text text-anchor="middle" x="110.12" y="-40.7" font-family="Times,serif" font-size="14.00" fill="#000000">Left</text>
<text text-anchor="middle" x="110.12" y="-24.2" font-family="Times,serif" font-size="14.00" fill="#000000">NONE</text>
<text text-anchor="middle" x="110.12" y="-7.7" font-family="Times,serif" font-size="14.00" fill="#000000">0x0</text>
<polyline fill="none" stroke="#8797b2" points="136.88,-0.5 136.88,-58"/>
<text text-anchor="middle" x="181.25" y="-40.7" font-family="Times,serif" font-size="14.00" fill="#000000">Parent</text>
<text text-anchor="middle" x="181.25" y="-24.2" font-family="Times,serif" font-size="14.00" fill="#000000">Nefor</text>
<text text-anchor="middle" x="181.25" y="-7.7" font-family="Times,serif" font-size="14.00" fill="#000000">0x103601cc0</text>
<polyline fill="none" stroke="#8797b2" points="225.62,-0.5 225.62,-58"/>
<text text-anchor="middle" x="252.38" y="-40.7" font-family="Times,serif" font-size="14.00" fill="#000000">Right</text>
<text text-anchor="middle" x="252.38" y="-24.2" font-family="Times,serif" font-size="14.00" fill="#000000">NONE</text>
<text text-anchor="middle" x="252.38" y="-7.7" font-family="Times,serif" font-size="14.00" fill="#000000">0x0</text>
</g>
<!-- node0x103601cc0&#45;&gt;node0x103601c90 -->
<g id="edge4" class="edge">
<title>node0x103601cc0:left&#45;&gt;node0x103601c90</title>
<path fill="none" stroke="#187ae8" stroke-width="2" d="M201.25,-152C201.25,-138.42 199.5,-124.01 197.03,-110.45"/>
<polygon fill="#187ae8" stroke="#187ae8" stroke-width="2" points="200.79,-111.39 195.4,-102.26 193.92,-112.75 200.79,-111.39"/>
<text text-anchor="middle" x="208.06" y="-120.7" font-family="Times,serif" font-size="14.00">Да</text>
</g>
<!-- node0x103601c60 -->
<g id="node9" class="node">
<title>node0x103601c60</title>
<path fill="#bdef9e" stroke="#99c2a2" d="M309.38,-0.5C309.38,-0.5 481.12,-0.5 481.12,-0.5 487.12,-0.5 493.12,-6.5 493.12,-12.5 493.12,-12.5 493.12,-87 493.12,-87 493.12,-93 487.12,-99 481.12,-99 481.12,-99 309.38,-99 309.38,-99 303.38,-99 297.38,-93 297.38,-87 297.38,-87 297.38,-12.5 297.38,-12.5 297.38,-6.5 303.38,-0.5 309.38,-0.5"/>
<text text-anchor="middle" x="395.25" y="-81.7" font-family="Times,serif" font-size="14.00" fill="#000000">Ovchos</text>
<text text-anchor="middle" x="395.25" y="-65.2" font-family="Times,serif" font-size="14.00" fill="#000000">0x103601c60</text>
<polyline fill="none" stroke="#99c2a2" points="297.38,-58 493.12,-58"/>
<text text-anchor="middle" x="324.12" y="-40.7" font-family="Times,serif" font-size="14.00" fill="#000000">Left</text>
<text text-anchor="middle" x="324.12" y="-24.2" font-family="Times,serif" font-size="14.00" fill="#000000">NONE</text>
<text text-anchor="middle" x="324.12" y="-7.7" font-family="Times,serif" font-size="14.00" fill="#000000">0x0</text>
<polyline fill="none" stroke="#99c2a2" points="350.88,-0.5 350.88,-58"/>
<text text-anchor="middle" x="395.25" y="-40.7" font-family="Times,serif" font-size="14.00" fill="#000000">Parent</text>
<text text-anchor="middle" x="395.25" y="-24.2" font-family="Times,serif" font-size="14.00" fill="#000000">Nefor</text>
<text text-anchor="middle" x="395.25" y="-7.7" font-family="Times,serif" font-size="14.00" fill="#000000">0x103601cc0</text>
<polyline fill="none" stroke="#99c2a2" points="439.62,-0.5 439.62,-58"/>
<text text-anchor="middle" x="466.38" y="-40.7" font-family="Times,serif" font-size="14.00" fill="#000000">Right</text>
<text text-anchor="middle" x="466.38" y="-24.2" font-family="Times,serif" font-size="14.00" fill="#000000">NONE</text>
<text text-anchor="middle" x="466.38" y="-7.7" font-family="Times,serif" font-size="14.00" fill="#000000">0x0</text>
</g>
<!-- node0x103601cc0&#45;&gt;node0x103601c60 -->
<g id="edge5" class="edge">
<title>node0x103601cc0:right&#45;&gt;node0x103601c60</title>
<path fill="none" stroke="#48e818" stroke-width="2" d="M395.25,-152C395.25,-138.61 395.25,-124.22 395.25,-110.62"/>
<polygon fill="#48e818" stroke="#48e818" stroke-width="2" points="398.75,-112.44 395.25,-102.44 391.75,-112.44 398.75,-112.44"/>
<text text-anchor="middle" x="406.12" y="-120.7" font-family="Times,serif" font-size="14.00">Нет</text>
</g>
</g>
</svg>
