<?xml version="1.0" encoding="UTF-8" standalone="no"?>
<!DOCTYPE svg PUBLIC "-//W3C//DTD SVG 1.1//EN"
 "http://www.w3.org/Graphics/SVG/1.1/DTD/svg11.dtd">
<!-- Generated by graphviz version 12.2.0 (20241103.1931)
 -->
<!-- Pages: 1 -->
<svg width="628pt" height="564pt"
 viewBox="0.00 0.00 627.88 563.50" xmlns="http://www.w3.org/2000/svg" xmlns:xlink="http://www.w3.org/1999/xlink">
<g id="graph0" class="graph" transform="scale(1 1) rotate(0) translate(4 559.5)">
<polygon fill="#dcdcdc" stroke="none" points="-4,4 -4,-559.5 623.88,-559.5 623.88,4 -4,4"/>
<!-- node0x105301e40 -->
<g id="node1" class="node">
<title>node0x105301e40</title>
<path fill="#fbee21" stroke="#d3c70d" d="M118,-456.5C118,-456.5 344.5,-456.5 344.5,-456.5 350.5,-456.5 356.5,-462.5 356.5,-468.5 356.5,-468.5 356.5,-543 356.5,-543 356.5,-549 350.5,-555 344.5,-555 344.5,-555 118,-555 118,-555 112,-555 106,-549 106,-543 106,-543 106,-468.5 106,-468.5 106,-462.5 112,-456.5 118,-456.5"/>
<text text-anchor="middle" x="231.25" y="-537.7" font-family="Times,serif" font-size="14.00" fill="#000000">Animal</text>
<text text-anchor="middle" x="231.25" y="-521.2" font-family="Times,serif" font-size="14.00" fill="#000000">0x105301e40</text>
<polyline fill="none" stroke="#d3c70d" points="106,-514 356.5,-514"/>
<text text-anchor="middle" x="150.75" y="-496.7" font-family="Times,serif" font-size="14.00" fill="#000000">Left</text>
<text text-anchor="middle" x="150.75" y="-480.2" font-family="Times,serif" font-size="14.00" fill="#000000">Poltorashka</text>
<text text-anchor="middle" x="150.75" y="-463.7" font-family="Times,serif" font-size="14.00" fill="#000000">0x105301e10</text>
<polyline fill="none" stroke="#d3c70d" points="195.5,-456.5 195.5,-514"/>
<text text-anchor="middle" x="222.25" y="-496.7" font-family="Times,serif" font-size="14.00" fill="#000000">Parent</text>
<text text-anchor="middle" x="222.25" y="-480.2" font-family="Times,serif" font-size="14.00" fill="#000000">NONE</text>
<text text-anchor="middle" x="222.25" y="-463.7" font-family="Times,serif" font-size="14.00" fill="#000000">0x0</text>
<polyline fill="none" stroke="#d3c70d" points="249,-456.5 249,-514"/>
<text text-anchor="middle" x="302.75" y="-496.7" font-family="Times,serif" font-size="14.00" fill="#000000">Right</text>
<text text-anchor="middle" x="302.75" y="-480.2" font-family="Times,serif" font-size="14.00" fill="#000000">Teaches analisys</text>
<text text-anchor="middle" x="302.75" y="-463.7" font-family="Times,serif" font-size="14.00" fill="#000000">0x105301de0</text>
</g>
<!-- node0x105301e10 -->
<g id="node2" class="node">
<title>node0x105301e10</title>
<path fill="#d5cfe1" stroke="#8797b2" d="M12,-304.5C12,-304.5 184.5,-304.5 184.5,-304.5 190.5,-304.5 196.5,-310.5 196.5,-316.5 196.5,-316.5 196.5,-391 196.5,-391 196.5,-397 190.5,-403 184.5,-403 184.5,-403 12,-403 12,-403 6,-403 0,-397 0,-391 0,-391 0,-316.5 0,-316.5 0,-310.5 6,-304.5 12,-304.5"/>
<text text-anchor="middle" x="98.25" y="-385.7" font-family="Times,serif" font-size="14.00" fill="#000000">Poltorashka</text>
<text text-anchor="middle" x="98.25" y="-369.2" font-family="Times,serif" font-size="14.00" fill="#000000">0x105301e10</text>
<polyline fill="none" stroke="#8797b2" points="0,-362 196.5,-362"/>
<text text-anchor="middle" x="26.75" y="-344.7" font-family="Times,serif" font-size="14.00" fill="#000000">Left</text>
<text text-anchor="middle" x="26.75" y="-328.2" font-family="Times,serif" font-size="14.00" fill="#000000">NONE</text>
<text text-anchor="middle" x="26.75" y="-311.7" font-family="Times,serif" font-size="14.00" fill="#000000">0x0</text>
<polyline fill="none" stroke="#8797b2" points="53.5,-304.5 53.5,-362"/>
<text text-anchor="middle" x="98.25" y="-344.7" font-family="Times,serif" font-size="14.00" fill="#000000">Parent</text>
<text text-anchor="middle" x="98.25" y="-328.2" font-family="Times,serif" font-size="14.00" fill="#000000">Animal</text>
<text text-anchor="middle" x="98.25" y="-311.7" font-family="Times,serif" font-size="14.00" fill="#000000">0x105301e40</text>
<polyline fill="none" stroke="#8797b2" points="143,-304.5 143,-362"/>
<text text-anchor="middle" x="169.75" y="-344.7" font-family="Times,serif" font-size="14.00" fill="#000000">Right</text>
<text text-anchor="middle" x="169.75" y="-328.2" font-family="Times,serif" font-size="14.00" fill="#000000">NONE</text>
<text text-anchor="middle" x="169.75" y="-311.7" font-family="Times,serif" font-size="14.00" fill="#000000">0x0</text>
</g>
<!-- node0x105301e40&#45;&gt;node0x105301e10 -->
<g id="edge1" class="edge">
<title>node0x105301e40:left&#45;&gt;node0x105301e10</title>
<path fill="none" stroke="#187ae8" stroke-width="2" d="M105,-485.25C74.29,-485.25 74.17,-448.77 80.87,-414.38"/>
<polygon fill="#187ae8" stroke="#187ae8" stroke-width="2" points="83.93,-416.82 82.62,-406.3 77.09,-415.34 83.93,-416.82"/>
<text text-anchor="middle" x="87.09" y="-424.7" font-family="Times,serif" font-size="14.00">Да</text>
</g>
<!-- node0x105301de0 -->
<g id="node4" class="node">
<title>node0x105301de0</title>
<path fill="#bdef9e" stroke="#99c2a2" d="M226.12,-304.5C226.12,-304.5 486.38,-304.5 486.38,-304.5 492.38,-304.5 498.38,-310.5 498.38,-316.5 498.38,-316.5 498.38,-391 498.38,-391 498.38,-397 492.38,-403 486.38,-403 486.38,-403 226.12,-403 226.12,-403 220.12,-403 214.12,-397 214.12,-391 214.12,-391 214.12,-316.5 214.12,-316.5 214.12,-310.5 220.12,-304.5 226.12,-304.5"/>
<text text-anchor="middle" x="356.25" y="-385.7" font-family="Times,serif" font-size="14.00" fill="#000000">Teaches analisys</text>
<text text-anchor="middle" x="356.25" y="-369.2" font-family="Times,serif" font-size="14.00" fill="#000000">0x105301de0</text>
<polyline fill="none" stroke="#99c2a2" points="214.12,-362 498.38,-362"/>
<text text-anchor="middle" x="259.25" y="-344.7" font-family="Times,serif" font-size="14.00" fill="#000000">Left</text>
<text text-anchor="middle" x="259.25" y="-328.2" font-family="Times,serif" font-size="14.00" fill="#000000">Burtsev</text>
<text text-anchor="middle" x="259.25" y="-311.7" font-family="Times,serif" font-size="14.00" fill="#000000">0x105301d80</text>
<polyline fill="none" stroke="#99c2a2" points="304.38,-304.5 304.38,-362"/>
<text text-anchor="middle" x="349.12" y="-344.7" font-family="Times,serif" font-size="14.00" fill="#000000">Parent</text>
<text text-anchor="middle" x="349.12" y="-328.2" font-family="Times,serif" font-size="14.00" fill="#000000">Animal</text>
<text text-anchor="middle" x="349.12" y="-311.7" font-family="Times,serif" font-size="14.00" fill="#000000">0x105301e40</text>
<polyline fill="none" stroke="#99c2a2" points="393.88,-304.5 393.88,-362"/>
<text text-anchor="middle" x="446.12" y="-344.7" font-family="Times,serif" font-size="14.00" fill="#000000">Right</text>
<text text-anchor="middle" x="446.12" y="-328.2" font-family="Times,serif" font-size="14.00" fill="#000000">Teaches physics</text>
<text text-anchor="middle" x="446.12" y="-311.7" font-family="Times,serif" font-size="14.00" fill="#000000">0x105301d50</text>
</g>
<!-- node0x105301e40&#45;&gt;node0x105301de0 -->
<g id="edge5" class="edge">
<title>node0x105301e40:right&#45;&gt;node0x105301de0</title>
<path fill="none" stroke="#48e818" stroke-width="2" d="M302.75,-456C302.75,-441.35 307.19,-426.74 313.5,-413.36"/>
<polygon fill="#48e818" stroke="#48e818" stroke-width="2" points="315.78,-416.57 317.27,-406.08 309.56,-413.36 315.78,-416.57"/>
<text text-anchor="middle" x="320.25" y="-424.7" font-family="Times,serif" font-size="14.00">Нет</text>
</g>
<!-- node0x105301d20 -->
<g id="node3" class="node">
<title>node0x105301d20</title>
<path fill="#f18805" stroke="#af3800" d="M320.5,-0.5C320.5,-0.5 508,-0.5 508,-0.5 514,-0.5 520,-6.5 520,-12.5 520,-12.5 520,-87 520,-87 520,-93 514,-99 508,-99 508,-99 320.5,-99 320.5,-99 314.5,-99 308.5,-93 308.5,-87 308.5,-87 308.5,-12.5 308.5,-12.5 308.5,-6.5 314.5,-0.5 320.5,-0.5"/>
<text text-anchor="middle" x="414.25" y="-81.7" font-family="Times,serif" font-size="14.00" fill="#000000">Nefor</text>
<text text-anchor="middle" x="414.25" y="-65.2" font-family="Times,serif" font-size="14.00" fill="#000000">0x105301d20</text>
<polyline fill="none" stroke="#af3800" points="308.5,-58 520,-58"/>
<text text-anchor="middle" x="335.25" y="-40.7" font-family="Times,serif" font-size="14.00" fill="#000000">Left</text>
<text text-anchor="middle" x="335.25" y="-24.2" font-family="Times,serif" font-size="14.00" fill="#000000">NONE</text>
<text text-anchor="middle" x="335.25" y="-7.7" font-family="Times,serif" font-size="14.00" fill="#000000">0x0</text>
<polyline fill="none" stroke="#af3800" points="362,-0.5 362,-58"/>
<text text-anchor="middle" x="414.25" y="-40.7" font-family="Times,serif" font-size="14.00" fill="#000000">Parent</text>
<text text-anchor="middle" x="414.25" y="-24.2" font-family="Times,serif" font-size="14.00" fill="#000000">Teaches physics</text>
<text text-anchor="middle" x="414.25" y="-7.7" font-family="Times,serif" font-size="14.00" fill="#000000">0x105301d50</text>
<polyline fill="none" stroke="#af3800" points="466.5,-0.5 466.5,-58"/>
<text text-anchor="middle" x="493.25" y="-40.7" font-family="Times,serif" font-size="14.00" fill="#000000">Right</text>
<text text-anchor="middle" x="493.25" y="-24.2" font-family="Times,serif" font-size="14.00" fill="#000000">NONE</text>
<text text-anchor="middle" x="493.25" y="-7.7" font-family="Times,serif" font-size="14.00" fill="#000000">0x0</text>
</g>
<!-- node0x105301d80 -->
<g id="node5" class="node">
<title>node0x105301d80</title>
<path fill="#d5cfe1" stroke="#8797b2" d="M148,-152.5C148,-152.5 338.5,-152.5 338.5,-152.5 344.5,-152.5 350.5,-158.5 350.5,-164.5 350.5,-164.5 350.5,-239 350.5,-239 350.5,-245 344.5,-251 338.5,-251 338.5,-251 148,-251 148,-251 142,-251 136,-245 136,-239 136,-239 136,-164.5 136,-164.5 136,-158.5 142,-152.5 148,-152.5"/>
<text text-anchor="middle" x="243.25" y="-233.7" font-family="Times,serif" font-size="14.00" fill="#000000">Burtsev</text>
<text text-anchor="middle" x="243.25" y="-217.2" font-family="Times,serif" font-size="14.00" fill="#000000">0x105301d80</text>
<polyline fill="none" stroke="#8797b2" points="136,-210 350.5,-210"/>
<text text-anchor="middle" x="162.75" y="-192.7" font-family="Times,serif" font-size="14.00" fill="#000000">Left</text>
<text text-anchor="middle" x="162.75" y="-176.2" font-family="Times,serif" font-size="14.00" fill="#000000">NONE</text>
<text text-anchor="middle" x="162.75" y="-159.7" font-family="Times,serif" font-size="14.00" fill="#000000">0x0</text>
<polyline fill="none" stroke="#8797b2" points="189.5,-152.5 189.5,-210"/>
<text text-anchor="middle" x="243.25" y="-192.7" font-family="Times,serif" font-size="14.00" fill="#000000">Parent</text>
<text text-anchor="middle" x="243.25" y="-176.2" font-family="Times,serif" font-size="14.00" fill="#000000">Teaches analisys</text>
<text text-anchor="middle" x="243.25" y="-159.7" font-family="Times,serif" font-size="14.00" fill="#000000">0x105301de0</text>
<polyline fill="none" stroke="#8797b2" points="297,-152.5 297,-210"/>
<text text-anchor="middle" x="323.75" y="-192.7" font-family="Times,serif" font-size="14.00" fill="#000000">Right</text>
<text text-anchor="middle" x="323.75" y="-176.2" font-family="Times,serif" font-size="14.00" fill="#000000">NONE</text>
<text text-anchor="middle" x="323.75" y="-159.7" font-family="Times,serif" font-size="14.00" fill="#000000">0x0</text>
</g>
<!-- node0x105301de0&#45;&gt;node0x105301d80 -->
<g id="edge2" class="edge">
<title>node0x105301de0:left&#45;&gt;node0x105301d80</title>
<path fill="none" stroke="#187ae8" stroke-width="2" d="M259.25,-304C259.25,-290.51 257.85,-276.14 255.87,-262.58"/>
<polygon fill="#187ae8" stroke="#187ae8" stroke-width="2" points="259.6,-263.74 254.57,-254.42 252.69,-264.84 259.6,-263.74"/>
<text text-anchor="middle" x="266.27" y="-272.7" font-family="Times,serif" font-size="14.00">Да</text>
</g>
<!-- node0x105301d50 -->
<g id="node6" class="node">
<title>node0x105301d50</title>
<path fill="#bdef9e" stroke="#99c2a2" d="M380.62,-152.5C380.62,-152.5 607.88,-152.5 607.88,-152.5 613.88,-152.5 619.88,-158.5 619.88,-164.5 619.88,-164.5 619.88,-239 619.88,-239 619.88,-245 613.88,-251 607.88,-251 607.88,-251 380.62,-251 380.62,-251 374.62,-251 368.62,-245 368.62,-239 368.62,-239 368.62,-164.5 368.62,-164.5 368.62,-158.5 374.62,-152.5 380.62,-152.5"/>
<text text-anchor="middle" x="494.25" y="-233.7" font-family="Times,serif" font-size="14.00" fill="#000000">Teaches physics</text>
<text text-anchor="middle" x="494.25" y="-217.2" font-family="Times,serif" font-size="14.00" fill="#000000">0x105301d50</text>
<polyline fill="none" stroke="#99c2a2" points="368.62,-210 619.88,-210"/>
<text text-anchor="middle" x="413.75" y="-192.7" font-family="Times,serif" font-size="14.00" fill="#000000">Left</text>
<text text-anchor="middle" x="413.75" y="-176.2" font-family="Times,serif" font-size="14.00" fill="#000000">Nefor</text>
<text text-anchor="middle" x="413.75" y="-159.7" font-family="Times,serif" font-size="14.00" fill="#000000">0x105301d20</text>
<polyline fill="none" stroke="#99c2a2" points="458.88,-152.5 458.88,-210"/>
<text text-anchor="middle" x="512.62" y="-192.7" font-family="Times,serif" font-size="14.00" fill="#000000">Parent</text>
<text text-anchor="middle" x="512.62" y="-176.2" font-family="Times,serif" font-size="14.00" fill="#000000">Teaches analisys</text>
<text text-anchor="middle" x="512.62" y="-159.7" font-family="Times,serif" font-size="14.00" fill="#000000">0x105301de0</text>
<polyline fill="none" stroke="#99c2a2" points="566.38,-152.5 566.38,-210"/>
<text text-anchor="middle" x="593.12" y="-192.7" font-family="Times,serif" font-size="14.00" fill="#000000">Right</text>
<text text-anchor="middle" x="593.12" y="-176.2" font-family="Times,serif" font-size="14.00" fill="#000000">NONE</text>
<text text-anchor="middle" x="593.12" y="-159.7" font-family="Times,serif" font-size="14.00" fill="#000000">0x0</text>
</g>
<!-- node0x105301de0&#45;&gt;node0x105301d50 -->
<g id="edge4" class="edge">
<title>node0x105301de0:right&#45;&gt;node0x105301d50</title>
<path fill="none" stroke="#48e818" stroke-width="2" d="M446.12,-304C446.12,-289.5 450.2,-274.86 455.98,-261.4"/>
<polygon fill="#48e818" stroke="#48e818" stroke-width="2" points="458.33,-264.63 459.41,-254.09 451.99,-261.66 458.33,-264.63"/>
<text text-anchor="middle" x="462.96" y="-272.7" font-family="Times,serif" font-size="14.00">Нет</text>
</g>
<!-- node0x105301d50&#45;&gt;node0x105301d20 -->
<g id="edge3" class="edge">
<title>node0x105301d50:left&#45;&gt;node0x105301d20</title>
<path fill="none" stroke="#187ae8" stroke-width="2" d="M413.75,-152C413.75,-138.61 413.79,-124.22 413.86,-110.62"/>
<polygon fill="#187ae8" stroke="#187ae8" stroke-width="2" points="417.35,-112.46 413.9,-102.44 410.35,-112.43 417.35,-112.46"/>
<text text-anchor="middle" x="421.7" y="-120.7" font-family="Times,serif" font-size="14.00">Да</text>
</g>
</g>
</svg>
