<?xml version="1.0" encoding="UTF-8" standalone="no"?>
<!DOCTYPE svg PUBLIC "-//W3C//DTD SVG 1.1//EN"
 "http://www.w3.org/Graphics/SVG/1.1/DTD/svg11.dtd">
<!-- Generated by graphviz version 12.2.0 (20241103.1931)
 -->
<!-- Pages: 1 -->
<svg width="583pt" height="412pt"
 viewBox="0.00 0.00 583.12 411.50" xmlns="http://www.w3.org/2000/svg" xmlns:xlink="http://www.w3.org/1999/xlink">
<g id="graph0" class="graph" transform="scale(1 1) rotate(0) translate(4 407.5)">
<polygon fill="#dcdcdc" stroke="none" points="-4,4 -4,-407.5 579.12,-407.5 579.12,4 -4,4"/>
<!-- node0x106e01e40 -->
<g id="node1" class="node">
<title>node0x106e01e40</title>
<path fill="#fbee21" stroke="#d3c70d" d="M118,-304.5C118,-304.5 343.75,-304.5 343.75,-304.5 349.75,-304.5 355.75,-310.5 355.75,-316.5 355.75,-316.5 355.75,-391 355.75,-391 355.75,-397 349.75,-403 343.75,-403 343.75,-403 118,-403 118,-403 112,-403 106,-397 106,-391 106,-391 106,-316.5 106,-316.5 106,-310.5 112,-304.5 118,-304.5"/>
<text text-anchor="middle" x="230.88" y="-385.7" font-family="Times,serif" font-size="14.00" fill="#000000">Animal</text>
<text text-anchor="middle" x="230.88" y="-369.2" font-family="Times,serif" font-size="14.00" fill="#000000">0x106e01e40</text>
<polyline fill="none" stroke="#d3c70d" points="106,-362 355.75,-362"/>
<text text-anchor="middle" x="150.38" y="-344.7" font-family="Times,serif" font-size="14.00" fill="#000000">Left</text>
<text text-anchor="middle" x="150.38" y="-328.2" font-family="Times,serif" font-size="14.00" fill="#000000">Poltorashka</text>
<text text-anchor="middle" x="150.38" y="-311.7" font-family="Times,serif" font-size="14.00" fill="#000000">0x106e01e10</text>
<polyline fill="none" stroke="#d3c70d" points="194.75,-304.5 194.75,-362"/>
<text text-anchor="middle" x="221.5" y="-344.7" font-family="Times,serif" font-size="14.00" fill="#000000">Parent</text>
<text text-anchor="middle" x="221.5" y="-328.2" font-family="Times,serif" font-size="14.00" fill="#000000">NONE</text>
<text text-anchor="middle" x="221.5" y="-311.7" font-family="Times,serif" font-size="14.00" fill="#000000">0x0</text>
<polyline fill="none" stroke="#d3c70d" points="248.25,-304.5 248.25,-362"/>
<text text-anchor="middle" x="302" y="-344.7" font-family="Times,serif" font-size="14.00" fill="#000000">Right</text>
<text text-anchor="middle" x="302" y="-328.2" font-family="Times,serif" font-size="14.00" fill="#000000">Teaches analisys</text>
<text text-anchor="middle" x="302" y="-311.7" font-family="Times,serif" font-size="14.00" fill="#000000">0x106e01de0</text>
</g>
<!-- node0x106e01e10 -->
<g id="node2" class="node">
<title>node0x106e01e10</title>
<path fill="#d5cfe1" stroke="#8797b2" d="M12,-152.5C12,-152.5 183.75,-152.5 183.75,-152.5 189.75,-152.5 195.75,-158.5 195.75,-164.5 195.75,-164.5 195.75,-239 195.75,-239 195.75,-245 189.75,-251 183.75,-251 183.75,-251 12,-251 12,-251 6,-251 0,-245 0,-239 0,-239 0,-164.5 0,-164.5 0,-158.5 6,-152.5 12,-152.5"/>
<text text-anchor="middle" x="97.88" y="-233.7" font-family="Times,serif" font-size="14.00" fill="#000000">Poltorashka</text>
<text text-anchor="middle" x="97.88" y="-217.2" font-family="Times,serif" font-size="14.00" fill="#000000">0x106e01e10</text>
<polyline fill="none" stroke="#8797b2" points="0,-210 195.75,-210"/>
<text text-anchor="middle" x="26.75" y="-192.7" font-family="Times,serif" font-size="14.00" fill="#000000">Left</text>
<text text-anchor="middle" x="26.75" y="-176.2" font-family="Times,serif" font-size="14.00" fill="#000000">NONE</text>
<text text-anchor="middle" x="26.75" y="-159.7" font-family="Times,serif" font-size="14.00" fill="#000000">0x0</text>
<polyline fill="none" stroke="#8797b2" points="53.5,-152.5 53.5,-210"/>
<text text-anchor="middle" x="97.88" y="-192.7" font-family="Times,serif" font-size="14.00" fill="#000000">Parent</text>
<text text-anchor="middle" x="97.88" y="-176.2" font-family="Times,serif" font-size="14.00" fill="#000000">Animal</text>
<text text-anchor="middle" x="97.88" y="-159.7" font-family="Times,serif" font-size="14.00" fill="#000000">0x106e01e40</text>
<polyline fill="none" stroke="#8797b2" points="142.25,-152.5 142.25,-210"/>
<text text-anchor="middle" x="169" y="-192.7" font-family="Times,serif" font-size="14.00" fill="#000000">Right</text>
<text text-anchor="middle" x="169" y="-176.2" font-family="Times,serif" font-size="14.00" fill="#000000">NONE</text>
<text text-anchor="middle" x="169" y="-159.7" font-family="Times,serif" font-size="14.00" fill="#000000">0x0</text>
</g>
<!-- node0x106e01e40&#45;&gt;node0x106e01e10 -->
<g id="edge1" class="edge">
<title>node0x106e01e40:left&#45;&gt;node0x106e01e10</title>
<path fill="none" stroke="#187ae8" stroke-width="2" d="M105,-333.25C74.29,-333.25 74.06,-296.77 80.67,-262.38"/>
<polygon fill="#187ae8" stroke="#187ae8" stroke-width="2" points="83.73,-264.81 82.39,-254.3 76.88,-263.35 83.73,-264.81"/>
<text text-anchor="middle" x="86.91" y="-272.7" font-family="Times,serif" font-size="14.00">Да</text>
</g>
<!-- node0x106e01de0 -->
<g id="node4" class="node">
<title>node0x106e01de0</title>
<path fill="#bdef9e" stroke="#99c2a2" d="M225.5,-152.5C225.5,-152.5 484.25,-152.5 484.25,-152.5 490.25,-152.5 496.25,-158.5 496.25,-164.5 496.25,-164.5 496.25,-239 496.25,-239 496.25,-245 490.25,-251 484.25,-251 484.25,-251 225.5,-251 225.5,-251 219.5,-251 213.5,-245 213.5,-239 213.5,-239 213.5,-164.5 213.5,-164.5 213.5,-158.5 219.5,-152.5 225.5,-152.5"/>
<text text-anchor="middle" x="354.88" y="-233.7" font-family="Times,serif" font-size="14.00" fill="#000000">Teaches analisys</text>
<text text-anchor="middle" x="354.88" y="-217.2" font-family="Times,serif" font-size="14.00" fill="#000000">0x106e01de0</text>
<polyline fill="none" stroke="#99c2a2" points="213.5,-210 496.25,-210"/>
<text text-anchor="middle" x="258.25" y="-192.7" font-family="Times,serif" font-size="14.00" fill="#000000">Left</text>
<text text-anchor="middle" x="258.25" y="-176.2" font-family="Times,serif" font-size="14.00" fill="#000000">Burtsev</text>
<text text-anchor="middle" x="258.25" y="-159.7" font-family="Times,serif" font-size="14.00" fill="#000000">0x106e01d80</text>
<polyline fill="none" stroke="#99c2a2" points="303,-152.5 303,-210"/>
<text text-anchor="middle" x="347.38" y="-192.7" font-family="Times,serif" font-size="14.00" fill="#000000">Parent</text>
<text text-anchor="middle" x="347.38" y="-176.2" font-family="Times,serif" font-size="14.00" fill="#000000">Animal</text>
<text text-anchor="middle" x="347.38" y="-159.7" font-family="Times,serif" font-size="14.00" fill="#000000">0x106e01e40</text>
<polyline fill="none" stroke="#99c2a2" points="391.75,-152.5 391.75,-210"/>
<text text-anchor="middle" x="444" y="-192.7" font-family="Times,serif" font-size="14.00" fill="#000000">Right</text>
<text text-anchor="middle" x="444" y="-176.2" font-family="Times,serif" font-size="14.00" fill="#000000">Teaches physics</text>
<text text-anchor="middle" x="444" y="-159.7" font-family="Times,serif" font-size="14.00" fill="#000000">0x106e01d50</text>
</g>
<!-- node0x106e01e40&#45;&gt;node0x106e01de0 -->
<g id="edge4" class="edge">
<title>node0x106e01e40:right&#45;&gt;node0x106e01de0</title>
<path fill="none" stroke="#48e818" stroke-width="2" d="M302,-304C302,-289.38 306.38,-274.79 312.63,-261.42"/>
<polygon fill="#48e818" stroke="#48e818" stroke-width="2" points="314.91,-264.64 316.34,-254.14 308.68,-261.46 314.91,-264.64"/>
<text text-anchor="middle" x="319.43" y="-272.7" font-family="Times,serif" font-size="14.00">Нет</text>
</g>
<!-- node0x106e01d50 -->
<g id="node3" class="node">
<title>node0x106e01d50</title>
<path fill="#f18805" stroke="#af3800" d="M372.62,-0.5C372.62,-0.5 563.12,-0.5 563.12,-0.5 569.12,-0.5 575.12,-6.5 575.12,-12.5 575.12,-12.5 575.12,-87 575.12,-87 575.12,-93 569.12,-99 563.12,-99 563.12,-99 372.62,-99 372.62,-99 366.62,-99 360.62,-93 360.62,-87 360.62,-87 360.62,-12.5 360.62,-12.5 360.62,-6.5 366.62,-0.5 372.62,-0.5"/>
<text text-anchor="middle" x="467.88" y="-81.7" font-family="Times,serif" font-size="14.00" fill="#000000">Teaches physics</text>
<text text-anchor="middle" x="467.88" y="-65.2" font-family="Times,serif" font-size="14.00" fill="#000000">0x106e01d50</text>
<polyline fill="none" stroke="#af3800" points="360.62,-58 575.12,-58"/>
<text text-anchor="middle" x="387.38" y="-40.7" font-family="Times,serif" font-size="14.00" fill="#000000">Left</text>
<text text-anchor="middle" x="387.38" y="-24.2" font-family="Times,serif" font-size="14.00" fill="#000000">NONE</text>
<text text-anchor="middle" x="387.38" y="-7.7" font-family="Times,serif" font-size="14.00" fill="#000000">0x0</text>
<polyline fill="none" stroke="#af3800" points="414.12,-0.5 414.12,-58"/>
<text text-anchor="middle" x="467.88" y="-40.7" font-family="Times,serif" font-size="14.00" fill="#000000">Parent</text>
<text text-anchor="middle" x="467.88" y="-24.2" font-family="Times,serif" font-size="14.00" fill="#000000">Teaches analisys</text>
<text text-anchor="middle" x="467.88" y="-7.7" font-family="Times,serif" font-size="14.00" fill="#000000">0x106e01de0</text>
<polyline fill="none" stroke="#af3800" points="521.62,-0.5 521.62,-58"/>
<text text-anchor="middle" x="548.38" y="-40.7" font-family="Times,serif" font-size="14.00" fill="#000000">Right</text>
<text text-anchor="middle" x="548.38" y="-24.2" font-family="Times,serif" font-size="14.00" fill="#000000">NONE</text>
<text text-anchor="middle" x="548.38" y="-7.7" font-family="Times,serif" font-size="14.00" fill="#000000">0x0</text>
</g>
<!-- node0x106e01de0&#45;&gt;node0x106e01d50 -->
<g id="edge3" class="edge">
<title>node0x106e01de0:right&#45;&gt;node0x106e01d50</title>
<path fill="none" stroke="#48e818" stroke-width="2" d="M444,-152C444,-138.38 446.07,-124.01 448.99,-110.5"/>
<polygon fill="#48e818" stroke="#48e818" stroke-width="2" points="452.03,-112.87 450.92,-102.34 445.21,-111.26 452.03,-112.87"/>
<text text-anchor="middle" x="458.34" y="-120.7" font-family="Times,serif" font-size="14.00">Нет</text>
</g>
<!-- node0x106e01d80 -->
<g id="node5" class="node">
<title>node0x106e01d80</title>
<path fill="#d5cfe1" stroke="#8797b2" d="M139.62,-0.5C139.62,-0.5 330.12,-0.5 330.12,-0.5 336.12,-0.5 342.12,-6.5 342.12,-12.5 342.12,-12.5 342.12,-87 342.12,-87 342.12,-93 336.12,-99 330.12,-99 330.12,-99 139.62,-99 139.62,-99 133.62,-99 127.62,-93 127.62,-87 127.62,-87 127.62,-12.5 127.62,-12.5 127.62,-6.5 133.62,-0.5 139.62,-0.5"/>
<text text-anchor="middle" x="234.88" y="-81.7" font-family="Times,serif" font-size="14.00" fill="#000000">Burtsev</text>
<text text-anchor="middle" x="234.88" y="-65.2" font-family="Times,serif" font-size="14.00" fill="#000000">0x106e01d80</text>
<polyline fill="none" stroke="#8797b2" points="127.62,-58 342.12,-58"/>
<text text-anchor="middle" x="154.38" y="-40.7" font-family="Times,serif" font-size="14.00" fill="#000000">Left</text>
<text text-anchor="middle" x="154.38" y="-24.2" font-family="Times,serif" font-size="14.00" fill="#000000">NONE</text>
<text text-anchor="middle" x="154.38" y="-7.7" font-family="Times,serif" font-size="14.00" fill="#000000">0x0</text>
<polyline fill="none" stroke="#8797b2" points="181.12,-0.5 181.12,-58"/>
<text text-anchor="middle" x="234.88" y="-40.7" font-family="Times,serif" font-size="14.00" fill="#000000">Parent</text>
<text text-anchor="middle" x="234.88" y="-24.2" font-family="Times,serif" font-size="14.00" fill="#000000">Teaches analisys</text>
<text text-anchor="middle" x="234.88" y="-7.7" font-family="Times,serif" font-size="14.00" fill="#000000">0x106e01de0</text>
<polyline fill="none" stroke="#8797b2" points="288.62,-0.5 288.62,-58"/>
<text text-anchor="middle" x="315.38" y="-40.7" font-family="Times,serif" font-size="14.00" fill="#000000">Right</text>
<text text-anchor="middle" x="315.38" y="-24.2" font-family="Times,serif" font-size="14.00" fill="#000000">NONE</text>
<text text-anchor="middle" x="315.38" y="-7.7" font-family="Times,serif" font-size="14.00" fill="#000000">0x0</text>
</g>
<!-- node0x106e01de0&#45;&gt;node0x106e01d80 -->
<g id="edge2" class="edge">
<title>node0x106e01de0:left&#45;&gt;node0x106e01d80</title>
<path fill="none" stroke="#187ae8" stroke-width="2" d="M258.25,-152C258.25,-138.4 256.22,-124.03 253.36,-110.52"/>
<polygon fill="#187ae8" stroke="#187ae8" stroke-width="2" points="257.14,-111.31 251.47,-102.36 250.32,-112.89 257.14,-111.31"/>
<text text-anchor="middle" x="264.88" y="-120.7" font-family="Times,serif" font-size="14.00">Да</text>
</g>
</g>
</svg>
