<?xml version="1.0" encoding="UTF-8" standalone="no"?>
<!DOCTYPE svg PUBLIC "-//W3C//DTD SVG 1.1//EN"
 "http://www.w3.org/Graphics/SVG/1.1/DTD/svg11.dtd">
<!-- Generated by graphviz version 12.2.0 (20241103.1931)
 -->
<!-- Pages: 1 -->
<svg width="1106pt" height="1172pt"
 viewBox="0.00 0.00 1105.88 1171.50" xmlns="http://www.w3.org/2000/svg" xmlns:xlink="http://www.w3.org/1999/xlink">
<g id="graph0" class="graph" transform="scale(1 1) rotate(0) translate(4 1167.5)">
<polygon fill="#dcdcdc" stroke="none" points="-4,4 -4,-1167.5 1101.88,-1167.5 1101.88,4 -4,4"/>
<!-- node0x103601de0 -->
<g id="node1" class="node">
<title>node0x103601de0</title>
<path fill="#fbee21" stroke="#d3c70d" d="M117.62,-1064.5C117.62,-1064.5 344.88,-1064.5 344.88,-1064.5 350.88,-1064.5 356.88,-1070.5 356.88,-1076.5 356.88,-1076.5 356.88,-1151 356.88,-1151 356.88,-1157 350.88,-1163 344.88,-1163 344.88,-1163 117.63,-1163 117.63,-1163 111.62,-1163 105.62,-1157 105.62,-1151 105.62,-1151 105.62,-1076.5 105.62,-1076.5 105.62,-1070.5 111.62,-1064.5 117.62,-1064.5"/>
<text text-anchor="middle" x="231.25" y="-1145.7" font-family="Times,serif" font-size="14.00" fill="#000000">Animal</text>
<text text-anchor="middle" x="231.25" y="-1129.2" font-family="Times,serif" font-size="14.00" fill="#000000">0x103601de0</text>
<polyline fill="none" stroke="#d3c70d" points="105.62,-1122 356.88,-1122"/>
<text text-anchor="middle" x="150.75" y="-1104.7" font-family="Times,serif" font-size="14.00" fill="#000000">Left</text>
<text text-anchor="middle" x="150.75" y="-1088.2" font-family="Times,serif" font-size="14.00" fill="#000000">Poltorashka</text>
<text text-anchor="middle" x="150.75" y="-1071.7" font-family="Times,serif" font-size="14.00" fill="#000000">0x103601db0</text>
<polyline fill="none" stroke="#d3c70d" points="195.88,-1064.5 195.88,-1122"/>
<text text-anchor="middle" x="222.62" y="-1104.7" font-family="Times,serif" font-size="14.00" fill="#000000">Parent</text>
<text text-anchor="middle" x="222.62" y="-1088.2" font-family="Times,serif" font-size="14.00" fill="#000000">NONE</text>
<text text-anchor="middle" x="222.62" y="-1071.7" font-family="Times,serif" font-size="14.00" fill="#000000">0x0</text>
<polyline fill="none" stroke="#d3c70d" points="249.38,-1064.5 249.38,-1122"/>
<text text-anchor="middle" x="303.12" y="-1104.7" font-family="Times,serif" font-size="14.00" fill="#000000">Right</text>
<text text-anchor="middle" x="303.12" y="-1088.2" font-family="Times,serif" font-size="14.00" fill="#000000">Teaches analisys</text>
<text text-anchor="middle" x="303.12" y="-1071.7" font-family="Times,serif" font-size="14.00" fill="#000000">0x103601d80</text>
</g>
<!-- node0x103601db0 -->
<g id="node2" class="node">
<title>node0x103601db0</title>
<path fill="#d5cfe1" stroke="#8797b2" d="M12,-912.5C12,-912.5 184.5,-912.5 184.5,-912.5 190.5,-912.5 196.5,-918.5 196.5,-924.5 196.5,-924.5 196.5,-999 196.5,-999 196.5,-1005 190.5,-1011 184.5,-1011 184.5,-1011 12,-1011 12,-1011 6,-1011 0,-1005 0,-999 0,-999 0,-924.5 0,-924.5 0,-918.5 6,-912.5 12,-912.5"/>
<text text-anchor="middle" x="98.25" y="-993.7" font-family="Times,serif" font-size="14.00" fill="#000000">Poltorashka</text>
<text text-anchor="middle" x="98.25" y="-977.2" font-family="Times,serif" font-size="14.00" fill="#000000">0x103601db0</text>
<polyline fill="none" stroke="#8797b2" points="0,-970 196.5,-970"/>
<text text-anchor="middle" x="26.75" y="-952.7" font-family="Times,serif" font-size="14.00" fill="#000000">Left</text>
<text text-anchor="middle" x="26.75" y="-936.2" font-family="Times,serif" font-size="14.00" fill="#000000">NONE</text>
<text text-anchor="middle" x="26.75" y="-919.7" font-family="Times,serif" font-size="14.00" fill="#000000">0x0</text>
<polyline fill="none" stroke="#8797b2" points="53.5,-912.5 53.5,-970"/>
<text text-anchor="middle" x="98.25" y="-952.7" font-family="Times,serif" font-size="14.00" fill="#000000">Parent</text>
<text text-anchor="middle" x="98.25" y="-936.2" font-family="Times,serif" font-size="14.00" fill="#000000">Animal</text>
<text text-anchor="middle" x="98.25" y="-919.7" font-family="Times,serif" font-size="14.00" fill="#000000">0x103601de0</text>
<polyline fill="none" stroke="#8797b2" points="143,-912.5 143,-970"/>
<text text-anchor="middle" x="169.75" y="-952.7" font-family="Times,serif" font-size="14.00" fill="#000000">Right</text>
<text text-anchor="middle" x="169.75" y="-936.2" font-family="Times,serif" font-size="14.00" fill="#000000">NONE</text>
<text text-anchor="middle" x="169.75" y="-919.7" font-family="Times,serif" font-size="14.00" fill="#000000">0x0</text>
</g>
<!-- node0x103601de0&#45;&gt;node0x103601db0 -->
<g id="edge1" class="edge">
<title>node0x103601de0:left&#45;&gt;node0x103601db0</title>
<path fill="none" stroke="#187ae8" stroke-width="2" d="M104.62,-1093.25C73.92,-1093.25 73.9,-1056.77 80.71,-1022.38"/>
<polygon fill="#187ae8" stroke="#187ae8" stroke-width="2" points="83.76,-1024.82 82.48,-1014.3 76.92,-1023.32 83.76,-1024.82"/>
<text text-anchor="middle" x="86.89" y="-1032.7" font-family="Times,serif" font-size="14.00">Да</text>
</g>
<!-- node0x103601d80 -->
<g id="node4" class="node">
<title>node0x103601d80</title>
<path fill="#bdef9e" stroke="#99c2a2" d="M226.12,-912.5C226.12,-912.5 486.38,-912.5 486.38,-912.5 492.38,-912.5 498.38,-918.5 498.38,-924.5 498.38,-924.5 498.38,-999 498.38,-999 498.38,-1005 492.38,-1011 486.38,-1011 486.38,-1011 226.12,-1011 226.12,-1011 220.12,-1011 214.12,-1005 214.12,-999 214.12,-999 214.12,-924.5 214.12,-924.5 214.12,-918.5 220.12,-912.5 226.12,-912.5"/>
<text text-anchor="middle" x="356.25" y="-993.7" font-family="Times,serif" font-size="14.00" fill="#000000">Teaches analisys</text>
<text text-anchor="middle" x="356.25" y="-977.2" font-family="Times,serif" font-size="14.00" fill="#000000">0x103601d80</text>
<polyline fill="none" stroke="#99c2a2" points="214.12,-970 498.38,-970"/>
<text text-anchor="middle" x="259.25" y="-952.7" font-family="Times,serif" font-size="14.00" fill="#000000">Left</text>
<text text-anchor="middle" x="259.25" y="-936.2" font-family="Times,serif" font-size="14.00" fill="#000000">Burtsev</text>
<text text-anchor="middle" x="259.25" y="-919.7" font-family="Times,serif" font-size="14.00" fill="#000000">0x103601d20</text>
<polyline fill="none" stroke="#99c2a2" points="304.38,-912.5 304.38,-970"/>
<text text-anchor="middle" x="349.12" y="-952.7" font-family="Times,serif" font-size="14.00" fill="#000000">Parent</text>
<text text-anchor="middle" x="349.12" y="-936.2" font-family="Times,serif" font-size="14.00" fill="#000000">Animal</text>
<text text-anchor="middle" x="349.12" y="-919.7" font-family="Times,serif" font-size="14.00" fill="#000000">0x103601de0</text>
<polyline fill="none" stroke="#99c2a2" points="393.88,-912.5 393.88,-970"/>
<text text-anchor="middle" x="446.12" y="-952.7" font-family="Times,serif" font-size="14.00" fill="#000000">Right</text>
<text text-anchor="middle" x="446.12" y="-936.2" font-family="Times,serif" font-size="14.00" fill="#000000">Teaches physics</text>
<text text-anchor="middle" x="446.12" y="-919.7" font-family="Times,serif" font-size="14.00" fill="#000000">0x103601cf0</text>
</g>
<!-- node0x103601de0&#45;&gt;node0x103601d80 -->
<g id="edge15" class="edge">
<title>node0x103601de0:right&#45;&gt;node0x103601d80</title>
<path fill="none" stroke="#48e818" stroke-width="2" d="M303.12,-1064C303.12,-1049.37 307.53,-1034.77 313.8,-1021.39"/>
<polygon fill="#48e818" stroke="#48e818" stroke-width="2" points="316.08,-1024.61 317.54,-1014.12 309.86,-1021.42 316.08,-1024.61"/>
<text text-anchor="middle" x="320.58" y="-1032.7" font-family="Times,serif" font-size="14.00">Нет</text>
</g>
<!-- node0x103601ba0 -->
<g id="node3" class="node">
<title>node0x103601ba0</title>
<path fill="#f18805" stroke="#af3800" d="M621.62,-304.5C621.62,-304.5 896.88,-304.5 896.88,-304.5 902.88,-304.5 908.88,-310.5 908.88,-316.5 908.88,-316.5 908.88,-391 908.88,-391 908.88,-397 902.88,-403 896.88,-403 896.88,-403 621.62,-403 621.62,-403 615.62,-403 609.62,-397 609.62,-391 609.62,-391 609.62,-316.5 609.62,-316.5 609.62,-310.5 615.62,-304.5 621.62,-304.5"/>
<text text-anchor="middle" x="759.25" y="-385.7" font-family="Times,serif" font-size="14.00" fill="#000000">Coach</text>
<text text-anchor="middle" x="759.25" y="-369.2" font-family="Times,serif" font-size="14.00" fill="#000000">0x103601ba0</text>
<polyline fill="none" stroke="#af3800" points="609.62,-362 908.88,-362"/>
<text text-anchor="middle" x="669" y="-344.7" font-family="Times,serif" font-size="14.00" fill="#000000">Left</text>
<text text-anchor="middle" x="669" y="-328.2" font-family="Times,serif" font-size="14.00" fill="#000000">Valentin Guardiola</text>
<text text-anchor="middle" x="669" y="-311.7" font-family="Times,serif" font-size="14.00" fill="#000000">0x103601b70</text>
<polyline fill="none" stroke="#af3800" points="728.38,-304.5 728.38,-362"/>
<text text-anchor="middle" x="773.5" y="-344.7" font-family="Times,serif" font-size="14.00" fill="#000000">Parent</text>
<text text-anchor="middle" x="773.5" y="-328.2" font-family="Times,serif" font-size="14.00" fill="#000000">Do sport</text>
<text text-anchor="middle" x="773.5" y="-311.7" font-family="Times,serif" font-size="14.00" fill="#000000">0x103601bd0</text>
<polyline fill="none" stroke="#af3800" points="818.62,-304.5 818.62,-362"/>
<text text-anchor="middle" x="863.75" y="-344.7" font-family="Times,serif" font-size="14.00" fill="#000000">Right</text>
<text text-anchor="middle" x="863.75" y="-328.2" font-family="Times,serif" font-size="14.00" fill="#000000">IN KARTEL</text>
<text text-anchor="middle" x="863.75" y="-311.7" font-family="Times,serif" font-size="14.00" fill="#000000">0x103601b10</text>
</g>
<!-- node0x103601b70 -->
<g id="node13" class="node">
<title>node0x103601b70</title>
<path fill="#d5cfe1" stroke="#8797b2" d="M555,-152.5C555,-152.5 727.5,-152.5 727.5,-152.5 733.5,-152.5 739.5,-158.5 739.5,-164.5 739.5,-164.5 739.5,-239 739.5,-239 739.5,-245 733.5,-251 727.5,-251 727.5,-251 555,-251 555,-251 549,-251 543,-245 543,-239 543,-239 543,-164.5 543,-164.5 543,-158.5 549,-152.5 555,-152.5"/>
<text text-anchor="middle" x="641.25" y="-233.7" font-family="Times,serif" font-size="14.00" fill="#000000">Valentin Guardiola</text>
<text text-anchor="middle" x="641.25" y="-217.2" font-family="Times,serif" font-size="14.00" fill="#000000">0x103601b70</text>
<polyline fill="none" stroke="#8797b2" points="543,-210 739.5,-210"/>
<text text-anchor="middle" x="569.75" y="-192.7" font-family="Times,serif" font-size="14.00" fill="#000000">Left</text>
<text text-anchor="middle" x="569.75" y="-176.2" font-family="Times,serif" font-size="14.00" fill="#000000">NONE</text>
<text text-anchor="middle" x="569.75" y="-159.7" font-family="Times,serif" font-size="14.00" fill="#000000">0x0</text>
<polyline fill="none" stroke="#8797b2" points="596.5,-152.5 596.5,-210"/>
<text text-anchor="middle" x="641.25" y="-192.7" font-family="Times,serif" font-size="14.00" fill="#000000">Parent</text>
<text text-anchor="middle" x="641.25" y="-176.2" font-family="Times,serif" font-size="14.00" fill="#000000">Coach</text>
<text text-anchor="middle" x="641.25" y="-159.7" font-family="Times,serif" font-size="14.00" fill="#000000">0x103601ba0</text>
<polyline fill="none" stroke="#8797b2" points="686,-152.5 686,-210"/>
<text text-anchor="middle" x="712.75" y="-192.7" font-family="Times,serif" font-size="14.00" fill="#000000">Right</text>
<text text-anchor="middle" x="712.75" y="-176.2" font-family="Times,serif" font-size="14.00" fill="#000000">NONE</text>
<text text-anchor="middle" x="712.75" y="-159.7" font-family="Times,serif" font-size="14.00" fill="#000000">0x0</text>
</g>
<!-- node0x103601ba0&#45;&gt;node0x103601b70 -->
<g id="edge8" class="edge">
<title>node0x103601ba0:left&#45;&gt;node0x103601b70</title>
<path fill="none" stroke="#187ae8" stroke-width="2" d="M669,-304C669,-290.33 666.62,-275.98 663.25,-262.52"/>
<polygon fill="#187ae8" stroke="#187ae8" stroke-width="2" points="667.04,-263.1 661.02,-254.38 660.29,-264.95 667.04,-263.1"/>
<text text-anchor="middle" x="675.4" y="-272.7" font-family="Times,serif" font-size="14.00">Да</text>
</g>
<!-- node0x103601b10 -->
<g id="node14" class="node">
<title>node0x103601b10</title>
<path fill="#bdef9e" stroke="#99c2a2" d="M769.38,-152.5C769.38,-152.5 1013.12,-152.5 1013.12,-152.5 1019.12,-152.5 1025.12,-158.5 1025.12,-164.5 1025.12,-164.5 1025.12,-239 1025.12,-239 1025.12,-245 1019.12,-251 1013.12,-251 1013.12,-251 769.38,-251 769.38,-251 763.38,-251 757.38,-245 757.38,-239 757.38,-239 757.38,-164.5 757.38,-164.5 757.38,-158.5 763.38,-152.5 769.38,-152.5"/>
<text text-anchor="middle" x="891.25" y="-233.7" font-family="Times,serif" font-size="14.00" fill="#000000">IN KARTEL</text>
<text text-anchor="middle" x="891.25" y="-217.2" font-family="Times,serif" font-size="14.00" fill="#000000">0x103601b10</text>
<polyline fill="none" stroke="#99c2a2" points="757.38,-210 1025.12,-210"/>
<text text-anchor="middle" x="801.75" y="-192.7" font-family="Times,serif" font-size="14.00" fill="#000000">Left</text>
<text text-anchor="middle" x="801.75" y="-176.2" font-family="Times,serif" font-size="14.00" fill="#000000">LEGEND</text>
<text text-anchor="middle" x="801.75" y="-159.7" font-family="Times,serif" font-size="14.00" fill="#000000">0x103601ae0</text>
<polyline fill="none" stroke="#99c2a2" points="846.12,-152.5 846.12,-210"/>
<text text-anchor="middle" x="890.88" y="-192.7" font-family="Times,serif" font-size="14.00" fill="#000000">Parent</text>
<text text-anchor="middle" x="890.88" y="-176.2" font-family="Times,serif" font-size="14.00" fill="#000000">Coach</text>
<text text-anchor="middle" x="890.88" y="-159.7" font-family="Times,serif" font-size="14.00" fill="#000000">0x103601ba0</text>
<polyline fill="none" stroke="#99c2a2" points="935.62,-152.5 935.62,-210"/>
<text text-anchor="middle" x="980.38" y="-192.7" font-family="Times,serif" font-size="14.00" fill="#000000">Right</text>
<text text-anchor="middle" x="980.38" y="-176.2" font-family="Times,serif" font-size="14.00" fill="#000000">LX</text>
<text text-anchor="middle" x="980.38" y="-159.7" font-family="Times,serif" font-size="14.00" fill="#000000">0x103601ab0</text>
</g>
<!-- node0x103601ba0&#45;&gt;node0x103601b10 -->
<g id="edge11" class="edge">
<title>node0x103601ba0:right&#45;&gt;node0x103601b10</title>
<path fill="none" stroke="#48e818" stroke-width="2" d="M863.75,-304C863.75,-290.34 866.11,-275.99 869.45,-262.53"/>
<polygon fill="#48e818" stroke="#48e818" stroke-width="2" points="872.42,-264.96 871.66,-254.39 865.66,-263.13 872.42,-264.96"/>
<text text-anchor="middle" x="878.62" y="-272.7" font-family="Times,serif" font-size="14.00">Нет</text>
</g>
<!-- node0x103601d20 -->
<g id="node5" class="node">
<title>node0x103601d20</title>
<path fill="#d5cfe1" stroke="#8797b2" d="M142,-760.5C142,-760.5 332.5,-760.5 332.5,-760.5 338.5,-760.5 344.5,-766.5 344.5,-772.5 344.5,-772.5 344.5,-847 344.5,-847 344.5,-853 338.5,-859 332.5,-859 332.5,-859 142,-859 142,-859 136,-859 130,-853 130,-847 130,-847 130,-772.5 130,-772.5 130,-766.5 136,-760.5 142,-760.5"/>
<text text-anchor="middle" x="237.25" y="-841.7" font-family="Times,serif" font-size="14.00" fill="#000000">Burtsev</text>
<text text-anchor="middle" x="237.25" y="-825.2" font-family="Times,serif" font-size="14.00" fill="#000000">0x103601d20</text>
<polyline fill="none" stroke="#8797b2" points="130,-818 344.5,-818"/>
<text text-anchor="middle" x="156.75" y="-800.7" font-family="Times,serif" font-size="14.00" fill="#000000">Left</text>
<text text-anchor="middle" x="156.75" y="-784.2" font-family="Times,serif" font-size="14.00" fill="#000000">NONE</text>
<text text-anchor="middle" x="156.75" y="-767.7" font-family="Times,serif" font-size="14.00" fill="#000000">0x0</text>
<polyline fill="none" stroke="#8797b2" points="183.5,-760.5 183.5,-818"/>
<text text-anchor="middle" x="237.25" y="-800.7" font-family="Times,serif" font-size="14.00" fill="#000000">Parent</text>
<text text-anchor="middle" x="237.25" y="-784.2" font-family="Times,serif" font-size="14.00" fill="#000000">Teaches analisys</text>
<text text-anchor="middle" x="237.25" y="-767.7" font-family="Times,serif" font-size="14.00" fill="#000000">0x103601d80</text>
<polyline fill="none" stroke="#8797b2" points="291,-760.5 291,-818"/>
<text text-anchor="middle" x="317.75" y="-800.7" font-family="Times,serif" font-size="14.00" fill="#000000">Right</text>
<text text-anchor="middle" x="317.75" y="-784.2" font-family="Times,serif" font-size="14.00" fill="#000000">NONE</text>
<text text-anchor="middle" x="317.75" y="-767.7" font-family="Times,serif" font-size="14.00" fill="#000000">0x0</text>
</g>
<!-- node0x103601d80&#45;&gt;node0x103601d20 -->
<g id="edge2" class="edge">
<title>node0x103601d80:left&#45;&gt;node0x103601d20</title>
<path fill="none" stroke="#187ae8" stroke-width="2" d="M259.25,-912C259.25,-898.44 257.34,-884.08 254.65,-870.58"/>
<polygon fill="#187ae8" stroke="#187ae8" stroke-width="2" points="258.42,-871.45 252.87,-862.43 251.58,-872.94 258.42,-871.45"/>
<text text-anchor="middle" x="265.95" y="-880.7" font-family="Times,serif" font-size="14.00">Да</text>
</g>
<!-- node0x103601cf0 -->
<g id="node6" class="node">
<title>node0x103601cf0</title>
<path fill="#bdef9e" stroke="#99c2a2" d="M374.75,-760.5C374.75,-760.5 647.75,-760.5 647.75,-760.5 653.75,-760.5 659.75,-766.5 659.75,-772.5 659.75,-772.5 659.75,-847 659.75,-847 659.75,-853 653.75,-859 647.75,-859 647.75,-859 374.75,-859 374.75,-859 368.75,-859 362.75,-853 362.75,-847 362.75,-847 362.75,-772.5 362.75,-772.5 362.75,-766.5 368.75,-760.5 374.75,-760.5"/>
<text text-anchor="middle" x="511.25" y="-841.7" font-family="Times,serif" font-size="14.00" fill="#000000">Teaches physics</text>
<text text-anchor="middle" x="511.25" y="-825.2" font-family="Times,serif" font-size="14.00" fill="#000000">0x103601cf0</text>
<polyline fill="none" stroke="#99c2a2" points="362.75,-818 659.75,-818"/>
<text text-anchor="middle" x="407.12" y="-800.7" font-family="Times,serif" font-size="14.00" fill="#000000">Left</text>
<text text-anchor="middle" x="407.12" y="-784.2" font-family="Times,serif" font-size="14.00" fill="#000000">Nefor</text>
<text text-anchor="middle" x="407.12" y="-767.7" font-family="Times,serif" font-size="14.00" fill="#000000">0x103601cc0</text>
<polyline fill="none" stroke="#99c2a2" points="451.5,-760.5 451.5,-818"/>
<text text-anchor="middle" x="505.25" y="-800.7" font-family="Times,serif" font-size="14.00" fill="#000000">Parent</text>
<text text-anchor="middle" x="505.25" y="-784.2" font-family="Times,serif" font-size="14.00" fill="#000000">Teaches analisys</text>
<text text-anchor="middle" x="505.25" y="-767.7" font-family="Times,serif" font-size="14.00" fill="#000000">0x103601d80</text>
<polyline fill="none" stroke="#99c2a2" points="559,-760.5 559,-818"/>
<text text-anchor="middle" x="609.38" y="-800.7" font-family="Times,serif" font-size="14.00" fill="#000000">Right</text>
<text text-anchor="middle" x="609.38" y="-784.2" font-family="Times,serif" font-size="14.00" fill="#000000">Teaches angem</text>
<text text-anchor="middle" x="609.38" y="-767.7" font-family="Times,serif" font-size="14.00" fill="#000000">0x103601c30</text>
</g>
<!-- node0x103601d80&#45;&gt;node0x103601cf0 -->
<g id="edge14" class="edge">
<title>node0x103601d80:right&#45;&gt;node0x103601cf0</title>
<path fill="none" stroke="#48e818" stroke-width="2" d="M446.12,-912C446.12,-896.78 451.4,-882.03 458.94,-868.7"/>
<polygon fill="#48e818" stroke="#48e818" stroke-width="2" points="460.9,-872.19 463.19,-861.84 454.95,-868.5 460.9,-872.19"/>
<text text-anchor="middle" x="465.07" y="-880.7" font-family="Times,serif" font-size="14.00">Нет</text>
</g>
<!-- node0x103601cc0 -->
<g id="node7" class="node">
<title>node0x103601cc0</title>
<path fill="#d5cfe1" stroke="#8797b2" d="M145.5,-608.5C145.5,-608.5 405,-608.5 405,-608.5 411,-608.5 417,-614.5 417,-620.5 417,-620.5 417,-695 417,-695 417,-701 411,-707 405,-707 405,-707 145.5,-707 145.5,-707 139.5,-707 133.5,-701 133.5,-695 133.5,-695 133.5,-620.5 133.5,-620.5 133.5,-614.5 139.5,-608.5 145.5,-608.5"/>
<text text-anchor="middle" x="275.25" y="-689.7" font-family="Times,serif" font-size="14.00" fill="#000000">Nefor</text>
<text text-anchor="middle" x="275.25" y="-673.2" font-family="Times,serif" font-size="14.00" fill="#000000">0x103601cc0</text>
<polyline fill="none" stroke="#8797b2" points="133.5,-666 417,-666"/>
<text text-anchor="middle" x="178.25" y="-648.7" font-family="Times,serif" font-size="14.00" fill="#000000">Left</text>
<text text-anchor="middle" x="178.25" y="-632.2" font-family="Times,serif" font-size="14.00" fill="#000000">Magic</text>
<text text-anchor="middle" x="178.25" y="-615.7" font-family="Times,serif" font-size="14.00" fill="#000000">0x103601c90</text>
<polyline fill="none" stroke="#8797b2" points="223,-608.5 223,-666"/>
<text text-anchor="middle" x="275.25" y="-648.7" font-family="Times,serif" font-size="14.00" fill="#000000">Parent</text>
<text text-anchor="middle" x="275.25" y="-632.2" font-family="Times,serif" font-size="14.00" fill="#000000">Teaches physics</text>
<text text-anchor="middle" x="275.25" y="-615.7" font-family="Times,serif" font-size="14.00" fill="#000000">0x103601cf0</text>
<polyline fill="none" stroke="#8797b2" points="327.5,-608.5 327.5,-666"/>
<text text-anchor="middle" x="372.25" y="-648.7" font-family="Times,serif" font-size="14.00" fill="#000000">Right</text>
<text text-anchor="middle" x="372.25" y="-632.2" font-family="Times,serif" font-size="14.00" fill="#000000">Ovchos</text>
<text text-anchor="middle" x="372.25" y="-615.7" font-family="Times,serif" font-size="14.00" fill="#000000">0x103601c60</text>
</g>
<!-- node0x103601cf0&#45;&gt;node0x103601cc0 -->
<g id="edge3" class="edge">
<title>node0x103601cf0:left&#45;&gt;node0x103601cc0</title>
<path fill="none" stroke="#187ae8" stroke-width="2" d="M407.12,-760C407.12,-742.6 399.81,-727.77 388.63,-715.28"/>
<polygon fill="#187ae8" stroke="#187ae8" stroke-width="2" points="392.44,-714.15 382.89,-709.55 387.49,-719.1 392.44,-714.15"/>
<text text-anchor="middle" x="411.31" y="-728.7" font-family="Times,serif" font-size="14.00">Да</text>
</g>
<!-- node0x103601c30 -->
<g id="node10" class="node">
<title>node0x103601c30</title>
<path fill="#bdef9e" stroke="#99c2a2" d="M559.12,-608.5C559.12,-608.5 819.38,-608.5 819.38,-608.5 825.38,-608.5 831.38,-614.5 831.38,-620.5 831.38,-620.5 831.38,-695 831.38,-695 831.38,-701 825.38,-707 819.38,-707 819.38,-707 559.12,-707 559.12,-707 553.12,-707 547.12,-701 547.12,-695 547.12,-695 547.12,-620.5 547.12,-620.5 547.12,-614.5 553.12,-608.5 559.12,-608.5"/>
<text text-anchor="middle" x="689.25" y="-689.7" font-family="Times,serif" font-size="14.00" fill="#000000">Teaches angem</text>
<text text-anchor="middle" x="689.25" y="-673.2" font-family="Times,serif" font-size="14.00" fill="#000000">0x103601c30</text>
<polyline fill="none" stroke="#99c2a2" points="547.12,-666 831.38,-666"/>
<text text-anchor="middle" x="591.88" y="-648.7" font-family="Times,serif" font-size="14.00" fill="#000000">Left</text>
<text text-anchor="middle" x="591.88" y="-632.2" font-family="Times,serif" font-size="14.00" fill="#000000">Chubarik</text>
<text text-anchor="middle" x="591.88" y="-615.7" font-family="Times,serif" font-size="14.00" fill="#000000">0x103601c00</text>
<polyline fill="none" stroke="#99c2a2" points="636.62,-608.5 636.62,-666"/>
<text text-anchor="middle" x="688.88" y="-648.7" font-family="Times,serif" font-size="14.00" fill="#000000">Parent</text>
<text text-anchor="middle" x="688.88" y="-632.2" font-family="Times,serif" font-size="14.00" fill="#000000">Teaches physics</text>
<text text-anchor="middle" x="688.88" y="-615.7" font-family="Times,serif" font-size="14.00" fill="#000000">0x103601cf0</text>
<polyline fill="none" stroke="#99c2a2" points="741.12,-608.5 741.12,-666"/>
<text text-anchor="middle" x="786.25" y="-648.7" font-family="Times,serif" font-size="14.00" fill="#000000">Right</text>
<text text-anchor="middle" x="786.25" y="-632.2" font-family="Times,serif" font-size="14.00" fill="#000000">Do sport</text>
<text text-anchor="middle" x="786.25" y="-615.7" font-family="Times,serif" font-size="14.00" fill="#000000">0x103601bd0</text>
</g>
<!-- node0x103601cf0&#45;&gt;node0x103601c30 -->
<g id="edge13" class="edge">
<title>node0x103601cf0:right&#45;&gt;node0x103601c30</title>
<path fill="none" stroke="#48e818" stroke-width="2" d="M660.75,-789.25C692,-789.25 698.25,-753.08 697.16,-718.83"/>
<polygon fill="#48e818" stroke="#48e818" stroke-width="2" points="700.73,-720.16 696.69,-710.37 693.74,-720.54 700.73,-720.16"/>
<text text-anchor="middle" x="708.14" y="-728.7" font-family="Times,serif" font-size="14.00">Нет</text>
</g>
<!-- node0x103601c90 -->
<g id="node8" class="node">
<title>node0x103601c90</title>
<path fill="#d5cfe1" stroke="#8797b2" d="M72.38,-456.5C72.38,-456.5 244.12,-456.5 244.12,-456.5 250.12,-456.5 256.12,-462.5 256.12,-468.5 256.12,-468.5 256.12,-543 256.12,-543 256.12,-549 250.12,-555 244.12,-555 244.12,-555 72.37,-555 72.37,-555 66.38,-555 60.38,-549 60.38,-543 60.38,-543 60.38,-468.5 60.38,-468.5 60.38,-462.5 66.38,-456.5 72.38,-456.5"/>
<text text-anchor="middle" x="158.25" y="-537.7" font-family="Times,serif" font-size="14.00" fill="#000000">Magic</text>
<text text-anchor="middle" x="158.25" y="-521.2" font-family="Times,serif" font-size="14.00" fill="#000000">0x103601c90</text>
<polyline fill="none" stroke="#8797b2" points="60.38,-514 256.12,-514"/>
<text text-anchor="middle" x="87.12" y="-496.7" font-family="Times,serif" font-size="14.00" fill="#000000">Left</text>
<text text-anchor="middle" x="87.12" y="-480.2" font-family="Times,serif" font-size="14.00" fill="#000000">NONE</text>
<text text-anchor="middle" x="87.12" y="-463.7" font-family="Times,serif" font-size="14.00" fill="#000000">0x0</text>
<polyline fill="none" stroke="#8797b2" points="113.88,-456.5 113.88,-514"/>
<text text-anchor="middle" x="158.25" y="-496.7" font-family="Times,serif" font-size="14.00" fill="#000000">Parent</text>
<text text-anchor="middle" x="158.25" y="-480.2" font-family="Times,serif" font-size="14.00" fill="#000000">Nefor</text>
<text text-anchor="middle" x="158.25" y="-463.7" font-family="Times,serif" font-size="14.00" fill="#000000">0x103601cc0</text>
<polyline fill="none" stroke="#8797b2" points="202.62,-456.5 202.62,-514"/>
<text text-anchor="middle" x="229.38" y="-496.7" font-family="Times,serif" font-size="14.00" fill="#000000">Right</text>
<text text-anchor="middle" x="229.38" y="-480.2" font-family="Times,serif" font-size="14.00" fill="#000000">NONE</text>
<text text-anchor="middle" x="229.38" y="-463.7" font-family="Times,serif" font-size="14.00" fill="#000000">0x0</text>
</g>
<!-- node0x103601cc0&#45;&gt;node0x103601c90 -->
<g id="edge4" class="edge">
<title>node0x103601cc0:left&#45;&gt;node0x103601c90</title>
<path fill="none" stroke="#187ae8" stroke-width="2" d="M178.25,-608C178.25,-594.42 176.5,-580.01 174.03,-566.45"/>
<polygon fill="#187ae8" stroke="#187ae8" stroke-width="2" points="177.79,-567.39 172.4,-558.26 170.92,-568.75 177.79,-567.39"/>
<text text-anchor="middle" x="185.06" y="-576.7" font-family="Times,serif" font-size="14.00">Да</text>
</g>
<!-- node0x103601c60 -->
<g id="node9" class="node">
<title>node0x103601c60</title>
<path fill="#bdef9e" stroke="#99c2a2" d="M286.38,-456.5C286.38,-456.5 458.12,-456.5 458.12,-456.5 464.12,-456.5 470.12,-462.5 470.12,-468.5 470.12,-468.5 470.12,-543 470.12,-543 470.12,-549 464.12,-555 458.12,-555 458.12,-555 286.38,-555 286.38,-555 280.38,-555 274.38,-549 274.38,-543 274.38,-543 274.38,-468.5 274.38,-468.5 274.38,-462.5 280.38,-456.5 286.38,-456.5"/>
<text text-anchor="middle" x="372.25" y="-537.7" font-family="Times,serif" font-size="14.00" fill="#000000">Ovchos</text>
<text text-anchor="middle" x="372.25" y="-521.2" font-family="Times,serif" font-size="14.00" fill="#000000">0x103601c60</text>
<polyline fill="none" stroke="#99c2a2" points="274.38,-514 470.12,-514"/>
<text text-anchor="middle" x="301.12" y="-496.7" font-family="Times,serif" font-size="14.00" fill="#000000">Left</text>
<text text-anchor="middle" x="301.12" y="-480.2" font-family="Times,serif" font-size="14.00" fill="#000000">NONE</text>
<text text-anchor="middle" x="301.12" y="-463.7" font-family="Times,serif" font-size="14.00" fill="#000000">0x0</text>
<polyline fill="none" stroke="#99c2a2" points="327.88,-456.5 327.88,-514"/>
<text text-anchor="middle" x="372.25" y="-496.7" font-family="Times,serif" font-size="14.00" fill="#000000">Parent</text>
<text text-anchor="middle" x="372.25" y="-480.2" font-family="Times,serif" font-size="14.00" fill="#000000">Nefor</text>
<text text-anchor="middle" x="372.25" y="-463.7" font-family="Times,serif" font-size="14.00" fill="#000000">0x103601cc0</text>
<polyline fill="none" stroke="#99c2a2" points="416.62,-456.5 416.62,-514"/>
<text text-anchor="middle" x="443.38" y="-496.7" font-family="Times,serif" font-size="14.00" fill="#000000">Right</text>
<text text-anchor="middle" x="443.38" y="-480.2" font-family="Times,serif" font-size="14.00" fill="#000000">NONE</text>
<text text-anchor="middle" x="443.38" y="-463.7" font-family="Times,serif" font-size="14.00" fill="#000000">0x0</text>
</g>
<!-- node0x103601cc0&#45;&gt;node0x103601c60 -->
<g id="edge5" class="edge">
<title>node0x103601cc0:right&#45;&gt;node0x103601c60</title>
<path fill="none" stroke="#48e818" stroke-width="2" d="M372.25,-608C372.25,-594.61 372.25,-580.22 372.25,-566.62"/>
<polygon fill="#48e818" stroke="#48e818" stroke-width="2" points="375.75,-568.44 372.25,-558.44 368.75,-568.44 375.75,-568.44"/>
<text text-anchor="middle" x="383.12" y="-576.7" font-family="Times,serif" font-size="14.00">Нет</text>
</g>
<!-- node0x103601c00 -->
<g id="node11" class="node">
<title>node0x103601c00</title>
<path fill="#d5cfe1" stroke="#8797b2" d="M500.38,-456.5C500.38,-456.5 684.12,-456.5 684.12,-456.5 690.12,-456.5 696.12,-462.5 696.12,-468.5 696.12,-468.5 696.12,-543 696.12,-543 696.12,-549 690.12,-555 684.12,-555 684.12,-555 500.38,-555 500.38,-555 494.38,-555 488.38,-549 488.38,-543 488.38,-543 488.38,-468.5 488.38,-468.5 488.38,-462.5 494.38,-456.5 500.38,-456.5"/>
<text text-anchor="middle" x="592.25" y="-537.7" font-family="Times,serif" font-size="14.00" fill="#000000">Chubarik</text>
<text text-anchor="middle" x="592.25" y="-521.2" font-family="Times,serif" font-size="14.00" fill="#000000">0x103601c00</text>
<polyline fill="none" stroke="#8797b2" points="488.38,-514 696.12,-514"/>
<text text-anchor="middle" x="515.12" y="-496.7" font-family="Times,serif" font-size="14.00" fill="#000000">Left</text>
<text text-anchor="middle" x="515.12" y="-480.2" font-family="Times,serif" font-size="14.00" fill="#000000">NONE</text>
<text text-anchor="middle" x="515.12" y="-463.7" font-family="Times,serif" font-size="14.00" fill="#000000">0x0</text>
<polyline fill="none" stroke="#8797b2" points="541.88,-456.5 541.88,-514"/>
<text text-anchor="middle" x="592.25" y="-496.7" font-family="Times,serif" font-size="14.00" fill="#000000">Parent</text>
<text text-anchor="middle" x="592.25" y="-480.2" font-family="Times,serif" font-size="14.00" fill="#000000">Teaches angem</text>
<text text-anchor="middle" x="592.25" y="-463.7" font-family="Times,serif" font-size="14.00" fill="#000000">0x103601c30</text>
<polyline fill="none" stroke="#8797b2" points="642.62,-456.5 642.62,-514"/>
<text text-anchor="middle" x="669.38" y="-496.7" font-family="Times,serif" font-size="14.00" fill="#000000">Right</text>
<text text-anchor="middle" x="669.38" y="-480.2" font-family="Times,serif" font-size="14.00" fill="#000000">NONE</text>
<text text-anchor="middle" x="669.38" y="-463.7" font-family="Times,serif" font-size="14.00" fill="#000000">0x0</text>
</g>
<!-- node0x103601c30&#45;&gt;node0x103601c00 -->
<g id="edge6" class="edge">
<title>node0x103601c30:left&#45;&gt;node0x103601c00</title>
<path fill="none" stroke="#187ae8" stroke-width="2" d="M591.88,-608C591.88,-594.61 591.91,-580.22 591.95,-566.62"/>
<polygon fill="#187ae8" stroke="#187ae8" stroke-width="2" points="595.45,-568.46 591.99,-558.44 588.45,-568.43 595.45,-568.46"/>
<text text-anchor="middle" x="599.8" y="-576.7" font-family="Times,serif" font-size="14.00">Да</text>
</g>
<!-- node0x103601bd0 -->
<g id="node12" class="node">
<title>node0x103601bd0</title>
<path fill="#bdef9e" stroke="#99c2a2" d="M726.38,-456.5C726.38,-456.5 946.12,-456.5 946.12,-456.5 952.12,-456.5 958.12,-462.5 958.12,-468.5 958.12,-468.5 958.12,-543 958.12,-543 958.12,-549 952.12,-555 946.12,-555 946.12,-555 726.38,-555 726.38,-555 720.38,-555 714.38,-549 714.38,-543 714.38,-543 714.38,-468.5 714.38,-468.5 714.38,-462.5 720.38,-456.5 726.38,-456.5"/>
<text text-anchor="middle" x="836.25" y="-537.7" font-family="Times,serif" font-size="14.00" fill="#000000">Do sport</text>
<text text-anchor="middle" x="836.25" y="-521.2" font-family="Times,serif" font-size="14.00" fill="#000000">0x103601bd0</text>
<polyline fill="none" stroke="#99c2a2" points="714.38,-514 958.12,-514"/>
<text text-anchor="middle" x="759.12" y="-496.7" font-family="Times,serif" font-size="14.00" fill="#000000">Left</text>
<text text-anchor="middle" x="759.12" y="-480.2" font-family="Times,serif" font-size="14.00" fill="#000000">Coach</text>
<text text-anchor="middle" x="759.12" y="-463.7" font-family="Times,serif" font-size="14.00" fill="#000000">0x103601ba0</text>
<polyline fill="none" stroke="#99c2a2" points="803.88,-456.5 803.88,-514"/>
<text text-anchor="middle" x="854.25" y="-496.7" font-family="Times,serif" font-size="14.00" fill="#000000">Parent</text>
<text text-anchor="middle" x="854.25" y="-480.2" font-family="Times,serif" font-size="14.00" fill="#000000">Teaches angem</text>
<text text-anchor="middle" x="854.25" y="-463.7" font-family="Times,serif" font-size="14.00" fill="#000000">0x103601c30</text>
<polyline fill="none" stroke="#99c2a2" points="904.62,-456.5 904.62,-514"/>
<text text-anchor="middle" x="931.38" y="-496.7" font-family="Times,serif" font-size="14.00" fill="#000000">Right</text>
<text text-anchor="middle" x="931.38" y="-480.2" font-family="Times,serif" font-size="14.00" fill="#000000">NONE</text>
<text text-anchor="middle" x="931.38" y="-463.7" font-family="Times,serif" font-size="14.00" fill="#000000">0x0</text>
</g>
<!-- node0x103601c30&#45;&gt;node0x103601bd0 -->
<g id="edge12" class="edge">
<title>node0x103601c30:right&#45;&gt;node0x103601bd0</title>
<path fill="none" stroke="#48e818" stroke-width="2" d="M786.25,-608C786.25,-593.47 790.44,-578.87 796.39,-565.45"/>
<polygon fill="#48e818" stroke="#48e818" stroke-width="2" points="798.71,-568.69 799.93,-558.17 792.41,-565.64 798.71,-568.69"/>
<text text-anchor="middle" x="803.32" y="-576.7" font-family="Times,serif" font-size="14.00">Нет</text>
</g>
<!-- node0x103601bd0&#45;&gt;node0x103601ba0 -->
<g id="edge7" class="edge">
<title>node0x103601bd0:left&#45;&gt;node0x103601ba0</title>
<path fill="none" stroke="#187ae8" stroke-width="2" d="M759.12,-456C759.12,-442.61 759.14,-428.22 759.15,-414.62"/>
<polygon fill="#187ae8" stroke="#187ae8" stroke-width="2" points="762.65,-416.45 759.16,-406.44 755.65,-416.44 762.65,-416.45"/>
<text text-anchor="middle" x="767.02" y="-424.7" font-family="Times,serif" font-size="14.00">Да</text>
</g>
<!-- node0x103601ae0 -->
<g id="node15" class="node">
<title>node0x103601ae0</title>
<path fill="#d5cfe1" stroke="#8797b2" d="M697.62,-0.5C697.62,-0.5 870.88,-0.5 870.88,-0.5 876.88,-0.5 882.88,-6.5 882.88,-12.5 882.88,-12.5 882.88,-87 882.88,-87 882.88,-93 876.88,-99 870.88,-99 870.88,-99 697.62,-99 697.62,-99 691.62,-99 685.62,-93 685.62,-87 685.62,-87 685.62,-12.5 685.62,-12.5 685.62,-6.5 691.62,-0.5 697.62,-0.5"/>
<text text-anchor="middle" x="784.25" y="-81.7" font-family="Times,serif" font-size="14.00" fill="#000000">LEGEND</text>
<text text-anchor="middle" x="784.25" y="-65.2" font-family="Times,serif" font-size="14.00" fill="#000000">0x103601ae0</text>
<polyline fill="none" stroke="#8797b2" points="685.62,-58 882.88,-58"/>
<text text-anchor="middle" x="712.38" y="-40.7" font-family="Times,serif" font-size="14.00" fill="#000000">Left</text>
<text text-anchor="middle" x="712.38" y="-24.2" font-family="Times,serif" font-size="14.00" fill="#000000">NONE</text>
<text text-anchor="middle" x="712.38" y="-7.7" font-family="Times,serif" font-size="14.00" fill="#000000">0x0</text>
<polyline fill="none" stroke="#8797b2" points="739.12,-0.5 739.12,-58"/>
<text text-anchor="middle" x="784.25" y="-40.7" font-family="Times,serif" font-size="14.00" fill="#000000">Parent</text>
<text text-anchor="middle" x="784.25" y="-24.2" font-family="Times,serif" font-size="14.00" fill="#000000">IN KARTEL</text>
<text text-anchor="middle" x="784.25" y="-7.7" font-family="Times,serif" font-size="14.00" fill="#000000">0x103601b10</text>
<polyline fill="none" stroke="#8797b2" points="829.38,-0.5 829.38,-58"/>
<text text-anchor="middle" x="856.12" y="-40.7" font-family="Times,serif" font-size="14.00" fill="#000000">Right</text>
<text text-anchor="middle" x="856.12" y="-24.2" font-family="Times,serif" font-size="14.00" fill="#000000">NONE</text>
<text text-anchor="middle" x="856.12" y="-7.7" font-family="Times,serif" font-size="14.00" fill="#000000">0x0</text>
</g>
<!-- node0x103601b10&#45;&gt;node0x103601ae0 -->
<g id="edge9" class="edge">
<title>node0x103601b10:left&#45;&gt;node0x103601ae0</title>
<path fill="none" stroke="#187ae8" stroke-width="2" d="M801.75,-152C801.75,-138.48 800.22,-124.09 798.06,-110.54"/>
<polygon fill="#187ae8" stroke="#187ae8" stroke-width="2" points="801.8,-111.62 796.64,-102.36 794.9,-112.82 801.8,-111.62"/>
<text text-anchor="middle" x="808.69" y="-120.7" font-family="Times,serif" font-size="14.00">Да</text>
</g>
<!-- node0x103601ab0 -->
<g id="node16" class="node">
<title>node0x103601ab0</title>
<path fill="#bdef9e" stroke="#99c2a2" d="M912.62,-0.5C912.62,-0.5 1085.88,-0.5 1085.88,-0.5 1091.88,-0.5 1097.88,-6.5 1097.88,-12.5 1097.88,-12.5 1097.88,-87 1097.88,-87 1097.88,-93 1091.88,-99 1085.88,-99 1085.88,-99 912.62,-99 912.62,-99 906.62,-99 900.62,-93 900.62,-87 900.62,-87 900.62,-12.5 900.62,-12.5 900.62,-6.5 906.62,-0.5 912.62,-0.5"/>
<text text-anchor="middle" x="999.25" y="-81.7" font-family="Times,serif" font-size="14.00" fill="#000000">LX</text>
<text text-anchor="middle" x="999.25" y="-65.2" font-family="Times,serif" font-size="14.00" fill="#000000">0x103601ab0</text>
<polyline fill="none" stroke="#99c2a2" points="900.62,-58 1097.88,-58"/>
<text text-anchor="middle" x="927.38" y="-40.7" font-family="Times,serif" font-size="14.00" fill="#000000">Left</text>
<text text-anchor="middle" x="927.38" y="-24.2" font-family="Times,serif" font-size="14.00" fill="#000000">NONE</text>
<text text-anchor="middle" x="927.38" y="-7.7" font-family="Times,serif" font-size="14.00" fill="#000000">0x0</text>
<polyline fill="none" stroke="#99c2a2" points="954.12,-0.5 954.12,-58"/>
<text text-anchor="middle" x="999.25" y="-40.7" font-family="Times,serif" font-size="14.00" fill="#000000">Parent</text>
<text text-anchor="middle" x="999.25" y="-24.2" font-family="Times,serif" font-size="14.00" fill="#000000">IN KARTEL</text>
<text text-anchor="middle" x="999.25" y="-7.7" font-family="Times,serif" font-size="14.00" fill="#000000">0x103601b10</text>
<polyline fill="none" stroke="#99c2a2" points="1044.38,-0.5 1044.38,-58"/>
<text text-anchor="middle" x="1071.12" y="-40.7" font-family="Times,serif" font-size="14.00" fill="#000000">Right</text>
<text text-anchor="middle" x="1071.12" y="-24.2" font-family="Times,serif" font-size="14.00" fill="#000000">NONE</text>
<text text-anchor="middle" x="1071.12" y="-7.7" font-family="Times,serif" font-size="14.00" fill="#000000">0x0</text>
</g>
<!-- node0x103601b10&#45;&gt;node0x103601ab0 -->
<g id="edge10" class="edge">
<title>node0x103601b10:right&#45;&gt;node0x103601ab0</title>
<path fill="none" stroke="#48e818" stroke-width="2" d="M980.38,-152C980.38,-138.45 982.03,-124.05 984.36,-110.49"/>
<polygon fill="#48e818" stroke="#48e818" stroke-width="2" points="987.49,-112.78 985.89,-102.31 980.61,-111.49 987.49,-112.78"/>
<text text-anchor="middle" x="993.99" y="-120.7" font-family="Times,serif" font-size="14.00">Нет</text>
</g>
</g>
</svg>
