<?xml version="1.0" encoding="UTF-8" standalone="no"?>
<!DOCTYPE svg PUBLIC "-//W3C//DTD SVG 1.1//EN"
 "http://www.w3.org/Graphics/SVG/1.1/DTD/svg11.dtd">
<!-- Generated by graphviz version 12.2.0 (20241103.1931)
 -->
<!-- Pages: 1 -->
<svg width="967pt" height="1020pt"
 viewBox="0.00 0.00 967.12 1019.50" xmlns="http://www.w3.org/2000/svg" xmlns:xlink="http://www.w3.org/1999/xlink">
<g id="graph0" class="graph" transform="scale(1 1) rotate(0) translate(4 1015.5)">
<polygon fill="#dcdcdc" stroke="none" points="-4,4 -4,-1015.5 963.12,-1015.5 963.12,4 -4,4"/>
<!-- node0x105301e40 -->
<g id="node1" class="node">
<title>node0x105301e40</title>
<path fill="#fbee21" stroke="#d3c70d" d="M118,-912.5C118,-912.5 344.5,-912.5 344.5,-912.5 350.5,-912.5 356.5,-918.5 356.5,-924.5 356.5,-924.5 356.5,-999 356.5,-999 356.5,-1005 350.5,-1011 344.5,-1011 344.5,-1011 118,-1011 118,-1011 112,-1011 106,-1005 106,-999 106,-999 106,-924.5 106,-924.5 106,-918.5 112,-912.5 118,-912.5"/>
<text text-anchor="middle" x="231.25" y="-993.7" font-family="Times,serif" font-size="14.00" fill="#000000">Animal</text>
<text text-anchor="middle" x="231.25" y="-977.2" font-family="Times,serif" font-size="14.00" fill="#000000">0x105301e40</text>
<polyline fill="none" stroke="#d3c70d" points="106,-970 356.5,-970"/>
<text text-anchor="middle" x="150.75" y="-952.7" font-family="Times,serif" font-size="14.00" fill="#000000">Left</text>
<text text-anchor="middle" x="150.75" y="-936.2" font-family="Times,serif" font-size="14.00" fill="#000000">Poltorashka</text>
<text text-anchor="middle" x="150.75" y="-919.7" font-family="Times,serif" font-size="14.00" fill="#000000">0x105301e10</text>
<polyline fill="none" stroke="#d3c70d" points="195.5,-912.5 195.5,-970"/>
<text text-anchor="middle" x="222.25" y="-952.7" font-family="Times,serif" font-size="14.00" fill="#000000">Parent</text>
<text text-anchor="middle" x="222.25" y="-936.2" font-family="Times,serif" font-size="14.00" fill="#000000">NONE</text>
<text text-anchor="middle" x="222.25" y="-919.7" font-family="Times,serif" font-size="14.00" fill="#000000">0x0</text>
<polyline fill="none" stroke="#d3c70d" points="249,-912.5 249,-970"/>
<text text-anchor="middle" x="302.75" y="-952.7" font-family="Times,serif" font-size="14.00" fill="#000000">Right</text>
<text text-anchor="middle" x="302.75" y="-936.2" font-family="Times,serif" font-size="14.00" fill="#000000">Teaches analisys</text>
<text text-anchor="middle" x="302.75" y="-919.7" font-family="Times,serif" font-size="14.00" fill="#000000">0x105301de0</text>
</g>
<!-- node0x105301e10 -->
<g id="node2" class="node">
<title>node0x105301e10</title>
<path fill="#d5cfe1" stroke="#8797b2" d="M12,-760.5C12,-760.5 184.5,-760.5 184.5,-760.5 190.5,-760.5 196.5,-766.5 196.5,-772.5 196.5,-772.5 196.5,-847 196.5,-847 196.5,-853 190.5,-859 184.5,-859 184.5,-859 12,-859 12,-859 6,-859 0,-853 0,-847 0,-847 0,-772.5 0,-772.5 0,-766.5 6,-760.5 12,-760.5"/>
<text text-anchor="middle" x="98.25" y="-841.7" font-family="Times,serif" font-size="14.00" fill="#000000">Poltorashka</text>
<text text-anchor="middle" x="98.25" y="-825.2" font-family="Times,serif" font-size="14.00" fill="#000000">0x105301e10</text>
<polyline fill="none" stroke="#8797b2" points="0,-818 196.5,-818"/>
<text text-anchor="middle" x="26.75" y="-800.7" font-family="Times,serif" font-size="14.00" fill="#000000">Left</text>
<text text-anchor="middle" x="26.75" y="-784.2" font-family="Times,serif" font-size="14.00" fill="#000000">NONE</text>
<text text-anchor="middle" x="26.75" y="-767.7" font-family="Times,serif" font-size="14.00" fill="#000000">0x0</text>
<polyline fill="none" stroke="#8797b2" points="53.5,-760.5 53.5,-818"/>
<text text-anchor="middle" x="98.25" y="-800.7" font-family="Times,serif" font-size="14.00" fill="#000000">Parent</text>
<text text-anchor="middle" x="98.25" y="-784.2" font-family="Times,serif" font-size="14.00" fill="#000000">Animal</text>
<text text-anchor="middle" x="98.25" y="-767.7" font-family="Times,serif" font-size="14.00" fill="#000000">0x105301e40</text>
<polyline fill="none" stroke="#8797b2" points="143,-760.5 143,-818"/>
<text text-anchor="middle" x="169.75" y="-800.7" font-family="Times,serif" font-size="14.00" fill="#000000">Right</text>
<text text-anchor="middle" x="169.75" y="-784.2" font-family="Times,serif" font-size="14.00" fill="#000000">NONE</text>
<text text-anchor="middle" x="169.75" y="-767.7" font-family="Times,serif" font-size="14.00" fill="#000000">0x0</text>
</g>
<!-- node0x105301e40&#45;&gt;node0x105301e10 -->
<g id="edge1" class="edge">
<title>node0x105301e40:left&#45;&gt;node0x105301e10</title>
<path fill="none" stroke="#187ae8" stroke-width="2" d="M105,-941.25C74.29,-941.25 74.17,-904.77 80.87,-870.38"/>
<polygon fill="#187ae8" stroke="#187ae8" stroke-width="2" points="83.93,-872.82 82.62,-862.3 77.09,-871.34 83.93,-872.82"/>
<text text-anchor="middle" x="87.09" y="-880.7" font-family="Times,serif" font-size="14.00">Да</text>
</g>
<!-- node0x105301de0 -->
<g id="node4" class="node">
<title>node0x105301de0</title>
<path fill="#bdef9e" stroke="#99c2a2" d="M226.12,-760.5C226.12,-760.5 486.38,-760.5 486.38,-760.5 492.38,-760.5 498.38,-766.5 498.38,-772.5 498.38,-772.5 498.38,-847 498.38,-847 498.38,-853 492.38,-859 486.38,-859 486.38,-859 226.12,-859 226.12,-859 220.12,-859 214.12,-853 214.12,-847 214.12,-847 214.12,-772.5 214.12,-772.5 214.12,-766.5 220.12,-760.5 226.12,-760.5"/>
<text text-anchor="middle" x="356.25" y="-841.7" font-family="Times,serif" font-size="14.00" fill="#000000">Teaches analisys</text>
<text text-anchor="middle" x="356.25" y="-825.2" font-family="Times,serif" font-size="14.00" fill="#000000">0x105301de0</text>
<polyline fill="none" stroke="#99c2a2" points="214.12,-818 498.38,-818"/>
<text text-anchor="middle" x="259.25" y="-800.7" font-family="Times,serif" font-size="14.00" fill="#000000">Left</text>
<text text-anchor="middle" x="259.25" y="-784.2" font-family="Times,serif" font-size="14.00" fill="#000000">Burtsev</text>
<text text-anchor="middle" x="259.25" y="-767.7" font-family="Times,serif" font-size="14.00" fill="#000000">0x105301d80</text>
<polyline fill="none" stroke="#99c2a2" points="304.38,-760.5 304.38,-818"/>
<text text-anchor="middle" x="349.12" y="-800.7" font-family="Times,serif" font-size="14.00" fill="#000000">Parent</text>
<text text-anchor="middle" x="349.12" y="-784.2" font-family="Times,serif" font-size="14.00" fill="#000000">Animal</text>
<text text-anchor="middle" x="349.12" y="-767.7" font-family="Times,serif" font-size="14.00" fill="#000000">0x105301e40</text>
<polyline fill="none" stroke="#99c2a2" points="393.88,-760.5 393.88,-818"/>
<text text-anchor="middle" x="446.12" y="-800.7" font-family="Times,serif" font-size="14.00" fill="#000000">Right</text>
<text text-anchor="middle" x="446.12" y="-784.2" font-family="Times,serif" font-size="14.00" fill="#000000">Teaches physics</text>
<text text-anchor="middle" x="446.12" y="-767.7" font-family="Times,serif" font-size="14.00" fill="#000000">0x105301d50</text>
</g>
<!-- node0x105301e40&#45;&gt;node0x105301de0 -->
<g id="edge12" class="edge">
<title>node0x105301e40:right&#45;&gt;node0x105301de0</title>
<path fill="none" stroke="#48e818" stroke-width="2" d="M302.75,-912C302.75,-897.35 307.19,-882.74 313.5,-869.36"/>
<polygon fill="#48e818" stroke="#48e818" stroke-width="2" points="315.78,-872.57 317.27,-862.08 309.56,-869.36 315.78,-872.57"/>
<text text-anchor="middle" x="320.25" y="-880.7" font-family="Times,serif" font-size="14.00">Нет</text>
</g>
<!-- node0x105301c00 -->
<g id="node3" class="node">
<title>node0x105301c00</title>
<path fill="#f18805" stroke="#af3800" d="M641.38,-152.5C641.38,-152.5 879.12,-152.5 879.12,-152.5 885.12,-152.5 891.12,-158.5 891.12,-164.5 891.12,-164.5 891.12,-239 891.12,-239 891.12,-245 885.12,-251 879.12,-251 879.12,-251 641.38,-251 641.38,-251 635.38,-251 629.38,-245 629.38,-239 629.38,-239 629.38,-164.5 629.38,-164.5 629.38,-158.5 635.38,-152.5 641.38,-152.5"/>
<text text-anchor="middle" x="760.25" y="-233.7" font-family="Times,serif" font-size="14.00" fill="#000000">Coach</text>
<text text-anchor="middle" x="760.25" y="-217.2" font-family="Times,serif" font-size="14.00" fill="#000000">0x105301c00</text>
<polyline fill="none" stroke="#af3800" points="629.38,-210 891.12,-210"/>
<text text-anchor="middle" x="688.75" y="-192.7" font-family="Times,serif" font-size="14.00" fill="#000000">Left</text>
<text text-anchor="middle" x="688.75" y="-176.2" font-family="Times,serif" font-size="14.00" fill="#000000">Valentin Guardiola</text>
<text text-anchor="middle" x="688.75" y="-159.7" font-family="Times,serif" font-size="14.00" fill="#000000">0x105301bd0</text>
<polyline fill="none" stroke="#af3800" points="748.12,-152.5 748.12,-210"/>
<text text-anchor="middle" x="792.88" y="-192.7" font-family="Times,serif" font-size="14.00" fill="#000000">Parent</text>
<text text-anchor="middle" x="792.88" y="-176.2" font-family="Times,serif" font-size="14.00" fill="#000000">Do sport</text>
<text text-anchor="middle" x="792.88" y="-159.7" font-family="Times,serif" font-size="14.00" fill="#000000">0x105301c30</text>
<polyline fill="none" stroke="#af3800" points="837.62,-152.5 837.62,-210"/>
<text text-anchor="middle" x="864.38" y="-192.7" font-family="Times,serif" font-size="14.00" fill="#000000">Right</text>
<text text-anchor="middle" x="864.38" y="-176.2" font-family="Times,serif" font-size="14.00" fill="#000000">NONE</text>
<text text-anchor="middle" x="864.38" y="-159.7" font-family="Times,serif" font-size="14.00" fill="#000000">0x0</text>
</g>
<!-- node0x105301bd0 -->
<g id="node13" class="node">
<title>node0x105301bd0</title>
<path fill="#d5cfe1" stroke="#8797b2" d="M603,-0.5C603,-0.5 775.5,-0.5 775.5,-0.5 781.5,-0.5 787.5,-6.5 787.5,-12.5 787.5,-12.5 787.5,-87 787.5,-87 787.5,-93 781.5,-99 775.5,-99 775.5,-99 603,-99 603,-99 597,-99 591,-93 591,-87 591,-87 591,-12.5 591,-12.5 591,-6.5 597,-0.5 603,-0.5"/>
<text text-anchor="middle" x="689.25" y="-81.7" font-family="Times,serif" font-size="14.00" fill="#000000">Valentin Guardiola</text>
<text text-anchor="middle" x="689.25" y="-65.2" font-family="Times,serif" font-size="14.00" fill="#000000">0x105301bd0</text>
<polyline fill="none" stroke="#8797b2" points="591,-58 787.5,-58"/>
<text text-anchor="middle" x="617.75" y="-40.7" font-family="Times,serif" font-size="14.00" fill="#000000">Left</text>
<text text-anchor="middle" x="617.75" y="-24.2" font-family="Times,serif" font-size="14.00" fill="#000000">NONE</text>
<text text-anchor="middle" x="617.75" y="-7.7" font-family="Times,serif" font-size="14.00" fill="#000000">0x0</text>
<polyline fill="none" stroke="#8797b2" points="644.5,-0.5 644.5,-58"/>
<text text-anchor="middle" x="689.25" y="-40.7" font-family="Times,serif" font-size="14.00" fill="#000000">Parent</text>
<text text-anchor="middle" x="689.25" y="-24.2" font-family="Times,serif" font-size="14.00" fill="#000000">Coach</text>
<text text-anchor="middle" x="689.25" y="-7.7" font-family="Times,serif" font-size="14.00" fill="#000000">0x105301c00</text>
<polyline fill="none" stroke="#8797b2" points="734,-0.5 734,-58"/>
<text text-anchor="middle" x="760.75" y="-40.7" font-family="Times,serif" font-size="14.00" fill="#000000">Right</text>
<text text-anchor="middle" x="760.75" y="-24.2" font-family="Times,serif" font-size="14.00" fill="#000000">NONE</text>
<text text-anchor="middle" x="760.75" y="-7.7" font-family="Times,serif" font-size="14.00" fill="#000000">0x0</text>
</g>
<!-- node0x105301c00&#45;&gt;node0x105301bd0 -->
<g id="edge8" class="edge">
<title>node0x105301c00:left&#45;&gt;node0x105301bd0</title>
<path fill="none" stroke="#187ae8" stroke-width="2" d="M688.75,-152C688.75,-138.61 688.79,-124.22 688.86,-110.62"/>
<polygon fill="#187ae8" stroke="#187ae8" stroke-width="2" points="692.35,-112.46 688.9,-102.44 685.35,-112.43 692.35,-112.46"/>
<text text-anchor="middle" x="696.7" y="-120.7" font-family="Times,serif" font-size="14.00">Да</text>
</g>
<!-- node0x105301d80 -->
<g id="node5" class="node">
<title>node0x105301d80</title>
<path fill="#d5cfe1" stroke="#8797b2" d="M142,-608.5C142,-608.5 332.5,-608.5 332.5,-608.5 338.5,-608.5 344.5,-614.5 344.5,-620.5 344.5,-620.5 344.5,-695 344.5,-695 344.5,-701 338.5,-707 332.5,-707 332.5,-707 142,-707 142,-707 136,-707 130,-701 130,-695 130,-695 130,-620.5 130,-620.5 130,-614.5 136,-608.5 142,-608.5"/>
<text text-anchor="middle" x="237.25" y="-689.7" font-family="Times,serif" font-size="14.00" fill="#000000">Burtsev</text>
<text text-anchor="middle" x="237.25" y="-673.2" font-family="Times,serif" font-size="14.00" fill="#000000">0x105301d80</text>
<polyline fill="none" stroke="#8797b2" points="130,-666 344.5,-666"/>
<text text-anchor="middle" x="156.75" y="-648.7" font-family="Times,serif" font-size="14.00" fill="#000000">Left</text>
<text text-anchor="middle" x="156.75" y="-632.2" font-family="Times,serif" font-size="14.00" fill="#000000">NONE</text>
<text text-anchor="middle" x="156.75" y="-615.7" font-family="Times,serif" font-size="14.00" fill="#000000">0x0</text>
<polyline fill="none" stroke="#8797b2" points="183.5,-608.5 183.5,-666"/>
<text text-anchor="middle" x="237.25" y="-648.7" font-family="Times,serif" font-size="14.00" fill="#000000">Parent</text>
<text text-anchor="middle" x="237.25" y="-632.2" font-family="Times,serif" font-size="14.00" fill="#000000">Teaches analisys</text>
<text text-anchor="middle" x="237.25" y="-615.7" font-family="Times,serif" font-size="14.00" fill="#000000">0x105301de0</text>
<polyline fill="none" stroke="#8797b2" points="291,-608.5 291,-666"/>
<text text-anchor="middle" x="317.75" y="-648.7" font-family="Times,serif" font-size="14.00" fill="#000000">Right</text>
<text text-anchor="middle" x="317.75" y="-632.2" font-family="Times,serif" font-size="14.00" fill="#000000">NONE</text>
<text text-anchor="middle" x="317.75" y="-615.7" font-family="Times,serif" font-size="14.00" fill="#000000">0x0</text>
</g>
<!-- node0x105301de0&#45;&gt;node0x105301d80 -->
<g id="edge2" class="edge">
<title>node0x105301de0:left&#45;&gt;node0x105301d80</title>
<path fill="none" stroke="#187ae8" stroke-width="2" d="M259.25,-760C259.25,-746.44 257.34,-732.08 254.65,-718.58"/>
<polygon fill="#187ae8" stroke="#187ae8" stroke-width="2" points="258.42,-719.45 252.87,-710.43 251.58,-720.94 258.42,-719.45"/>
<text text-anchor="middle" x="265.95" y="-728.7" font-family="Times,serif" font-size="14.00">Да</text>
</g>
<!-- node0x105301d50 -->
<g id="node6" class="node">
<title>node0x105301d50</title>
<path fill="#bdef9e" stroke="#99c2a2" d="M375,-608.5C375,-608.5 649.5,-608.5 649.5,-608.5 655.5,-608.5 661.5,-614.5 661.5,-620.5 661.5,-620.5 661.5,-695 661.5,-695 661.5,-701 655.5,-707 649.5,-707 649.5,-707 375,-707 375,-707 369,-707 363,-701 363,-695 363,-695 363,-620.5 363,-620.5 363,-614.5 369,-608.5 375,-608.5"/>
<text text-anchor="middle" x="512.25" y="-689.7" font-family="Times,serif" font-size="14.00" fill="#000000">Teaches physics</text>
<text text-anchor="middle" x="512.25" y="-673.2" font-family="Times,serif" font-size="14.00" fill="#000000">0x105301d50</text>
<polyline fill="none" stroke="#99c2a2" points="363,-666 661.5,-666"/>
<text text-anchor="middle" x="408.12" y="-648.7" font-family="Times,serif" font-size="14.00" fill="#000000">Left</text>
<text text-anchor="middle" x="408.12" y="-632.2" font-family="Times,serif" font-size="14.00" fill="#000000">Nefor</text>
<text text-anchor="middle" x="408.12" y="-615.7" font-family="Times,serif" font-size="14.00" fill="#000000">0x105301d20</text>
<polyline fill="none" stroke="#99c2a2" points="453.25,-608.5 453.25,-666"/>
<text text-anchor="middle" x="507" y="-648.7" font-family="Times,serif" font-size="14.00" fill="#000000">Parent</text>
<text text-anchor="middle" x="507" y="-632.2" font-family="Times,serif" font-size="14.00" fill="#000000">Teaches analisys</text>
<text text-anchor="middle" x="507" y="-615.7" font-family="Times,serif" font-size="14.00" fill="#000000">0x105301de0</text>
<polyline fill="none" stroke="#99c2a2" points="560.75,-608.5 560.75,-666"/>
<text text-anchor="middle" x="611.12" y="-648.7" font-family="Times,serif" font-size="14.00" fill="#000000">Right</text>
<text text-anchor="middle" x="611.12" y="-632.2" font-family="Times,serif" font-size="14.00" fill="#000000">Teaches angem</text>
<text text-anchor="middle" x="611.12" y="-615.7" font-family="Times,serif" font-size="14.00" fill="#000000">0x105301c90</text>
</g>
<!-- node0x105301de0&#45;&gt;node0x105301d50 -->
<g id="edge11" class="edge">
<title>node0x105301de0:right&#45;&gt;node0x105301d50</title>
<path fill="none" stroke="#48e818" stroke-width="2" d="M446.12,-760C446.12,-744.8 451.42,-730.09 459.01,-716.82"/>
<polygon fill="#48e818" stroke="#48e818" stroke-width="2" points="460.94,-720.32 463.29,-709.99 455.01,-716.6 460.94,-720.32"/>
<text text-anchor="middle" x="465.19" y="-728.7" font-family="Times,serif" font-size="14.00">Нет</text>
</g>
<!-- node0x105301d20 -->
<g id="node7" class="node">
<title>node0x105301d20</title>
<path fill="#d5cfe1" stroke="#8797b2" d="M149,-456.5C149,-456.5 405.5,-456.5 405.5,-456.5 411.5,-456.5 417.5,-462.5 417.5,-468.5 417.5,-468.5 417.5,-543 417.5,-543 417.5,-549 411.5,-555 405.5,-555 405.5,-555 149,-555 149,-555 143,-555 137,-549 137,-543 137,-543 137,-468.5 137,-468.5 137,-462.5 143,-456.5 149,-456.5"/>
<text text-anchor="middle" x="277.25" y="-537.7" font-family="Times,serif" font-size="14.00" fill="#000000">Nefor</text>
<text text-anchor="middle" x="277.25" y="-521.2" font-family="Times,serif" font-size="14.00" fill="#000000">0x105301d20</text>
<polyline fill="none" stroke="#8797b2" points="137,-514 417.5,-514"/>
<text text-anchor="middle" x="180.62" y="-496.7" font-family="Times,serif" font-size="14.00" fill="#000000">Left</text>
<text text-anchor="middle" x="180.62" y="-480.2" font-family="Times,serif" font-size="14.00" fill="#000000">Magic</text>
<text text-anchor="middle" x="180.62" y="-463.7" font-family="Times,serif" font-size="14.00" fill="#000000">0x105301cf0</text>
<polyline fill="none" stroke="#8797b2" points="224.25,-456.5 224.25,-514"/>
<text text-anchor="middle" x="276.5" y="-496.7" font-family="Times,serif" font-size="14.00" fill="#000000">Parent</text>
<text text-anchor="middle" x="276.5" y="-480.2" font-family="Times,serif" font-size="14.00" fill="#000000">Teaches physics</text>
<text text-anchor="middle" x="276.5" y="-463.7" font-family="Times,serif" font-size="14.00" fill="#000000">0x105301d50</text>
<polyline fill="none" stroke="#8797b2" points="328.75,-456.5 328.75,-514"/>
<text text-anchor="middle" x="373.12" y="-496.7" font-family="Times,serif" font-size="14.00" fill="#000000">Right</text>
<text text-anchor="middle" x="373.12" y="-480.2" font-family="Times,serif" font-size="14.00" fill="#000000">Ovchos</text>
<text text-anchor="middle" x="373.12" y="-463.7" font-family="Times,serif" font-size="14.00" fill="#000000">0x105301cc0</text>
</g>
<!-- node0x105301d50&#45;&gt;node0x105301d20 -->
<g id="edge3" class="edge">
<title>node0x105301d50:left&#45;&gt;node0x105301d20</title>
<path fill="none" stroke="#187ae8" stroke-width="2" d="M408.12,-608C408.12,-590.56 400.77,-575.7 389.54,-563.17"/>
<polygon fill="#187ae8" stroke="#187ae8" stroke-width="2" points="393.33,-562.01 383.78,-557.42 388.38,-566.96 393.33,-562.01"/>
<text text-anchor="middle" x="412.34" y="-576.7" font-family="Times,serif" font-size="14.00">Да</text>
</g>
<!-- node0x105301c90 -->
<g id="node10" class="node">
<title>node0x105301c90</title>
<path fill="#bdef9e" stroke="#99c2a2" d="M560.5,-456.5C560.5,-456.5 820,-456.5 820,-456.5 826,-456.5 832,-462.5 832,-468.5 832,-468.5 832,-543 832,-543 832,-549 826,-555 820,-555 820,-555 560.5,-555 560.5,-555 554.5,-555 548.5,-549 548.5,-543 548.5,-543 548.5,-468.5 548.5,-468.5 548.5,-462.5 554.5,-456.5 560.5,-456.5"/>
<text text-anchor="middle" x="690.25" y="-537.7" font-family="Times,serif" font-size="14.00" fill="#000000">Teaches angem</text>
<text text-anchor="middle" x="690.25" y="-521.2" font-family="Times,serif" font-size="14.00" fill="#000000">0x105301c90</text>
<polyline fill="none" stroke="#99c2a2" points="548.5,-514 832,-514"/>
<text text-anchor="middle" x="593.25" y="-496.7" font-family="Times,serif" font-size="14.00" fill="#000000">Left</text>
<text text-anchor="middle" x="593.25" y="-480.2" font-family="Times,serif" font-size="14.00" fill="#000000">Chubarik</text>
<text text-anchor="middle" x="593.25" y="-463.7" font-family="Times,serif" font-size="14.00" fill="#000000">0x105301c60</text>
<polyline fill="none" stroke="#99c2a2" points="638,-456.5 638,-514"/>
<text text-anchor="middle" x="690.25" y="-496.7" font-family="Times,serif" font-size="14.00" fill="#000000">Parent</text>
<text text-anchor="middle" x="690.25" y="-480.2" font-family="Times,serif" font-size="14.00" fill="#000000">Teaches physics</text>
<text text-anchor="middle" x="690.25" y="-463.7" font-family="Times,serif" font-size="14.00" fill="#000000">0x105301d50</text>
<polyline fill="none" stroke="#99c2a2" points="742.5,-456.5 742.5,-514"/>
<text text-anchor="middle" x="787.25" y="-496.7" font-family="Times,serif" font-size="14.00" fill="#000000">Right</text>
<text text-anchor="middle" x="787.25" y="-480.2" font-family="Times,serif" font-size="14.00" fill="#000000">Do sport</text>
<text text-anchor="middle" x="787.25" y="-463.7" font-family="Times,serif" font-size="14.00" fill="#000000">0x105301c30</text>
</g>
<!-- node0x105301d50&#45;&gt;node0x105301c90 -->
<g id="edge10" class="edge">
<title>node0x105301d50:right&#45;&gt;node0x105301c90</title>
<path fill="none" stroke="#48e818" stroke-width="2" d="M662.5,-637.25C693.72,-637.25 699.76,-601.08 698.48,-566.83"/>
<polygon fill="#48e818" stroke="#48e818" stroke-width="2" points="702.06,-568.14 697.97,-558.37 695.07,-568.56 702.06,-568.14"/>
<text text-anchor="middle" x="709.51" y="-576.7" font-family="Times,serif" font-size="14.00">Нет</text>
</g>
<!-- node0x105301cf0 -->
<g id="node8" class="node">
<title>node0x105301cf0</title>
<path fill="#d5cfe1" stroke="#8797b2" d="M70.62,-304.5C70.62,-304.5 243.88,-304.5 243.88,-304.5 249.88,-304.5 255.88,-310.5 255.88,-316.5 255.88,-316.5 255.88,-391 255.88,-391 255.88,-397 249.88,-403 243.88,-403 243.88,-403 70.62,-403 70.62,-403 64.63,-403 58.62,-397 58.62,-391 58.62,-391 58.62,-316.5 58.62,-316.5 58.62,-310.5 64.62,-304.5 70.62,-304.5"/>
<text text-anchor="middle" x="157.25" y="-385.7" font-family="Times,serif" font-size="14.00" fill="#000000">Magic</text>
<text text-anchor="middle" x="157.25" y="-369.2" font-family="Times,serif" font-size="14.00" fill="#000000">0x105301cf0</text>
<polyline fill="none" stroke="#8797b2" points="58.62,-362 255.88,-362"/>
<text text-anchor="middle" x="85.38" y="-344.7" font-family="Times,serif" font-size="14.00" fill="#000000">Left</text>
<text text-anchor="middle" x="85.38" y="-328.2" font-family="Times,serif" font-size="14.00" fill="#000000">NONE</text>
<text text-anchor="middle" x="85.38" y="-311.7" font-family="Times,serif" font-size="14.00" fill="#000000">0x0</text>
<polyline fill="none" stroke="#8797b2" points="112.12,-304.5 112.12,-362"/>
<text text-anchor="middle" x="157.25" y="-344.7" font-family="Times,serif" font-size="14.00" fill="#000000">Parent</text>
<text text-anchor="middle" x="157.25" y="-328.2" font-family="Times,serif" font-size="14.00" fill="#000000">Nefor</text>
<text text-anchor="middle" x="157.25" y="-311.7" font-family="Times,serif" font-size="14.00" fill="#000000">0x105301d20</text>
<polyline fill="none" stroke="#8797b2" points="202.38,-304.5 202.38,-362"/>
<text text-anchor="middle" x="229.12" y="-344.7" font-family="Times,serif" font-size="14.00" fill="#000000">Right</text>
<text text-anchor="middle" x="229.12" y="-328.2" font-family="Times,serif" font-size="14.00" fill="#000000">NONE</text>
<text text-anchor="middle" x="229.12" y="-311.7" font-family="Times,serif" font-size="14.00" fill="#000000">0x0</text>
</g>
<!-- node0x105301d20&#45;&gt;node0x105301cf0 -->
<g id="edge4" class="edge">
<title>node0x105301d20:left&#45;&gt;node0x105301cf0</title>
<path fill="none" stroke="#187ae8" stroke-width="2" d="M180.62,-456C180.62,-442.4 178.6,-428.03 175.74,-414.52"/>
<polygon fill="#187ae8" stroke="#187ae8" stroke-width="2" points="179.51,-415.31 173.85,-406.36 172.69,-416.89 179.51,-415.31"/>
<text text-anchor="middle" x="187.25" y="-424.7" font-family="Times,serif" font-size="14.00">Да</text>
</g>
<!-- node0x105301cc0 -->
<g id="node9" class="node">
<title>node0x105301cc0</title>
<path fill="#bdef9e" stroke="#99c2a2" d="M285.62,-304.5C285.62,-304.5 458.88,-304.5 458.88,-304.5 464.88,-304.5 470.88,-310.5 470.88,-316.5 470.88,-316.5 470.88,-391 470.88,-391 470.88,-397 464.88,-403 458.88,-403 458.88,-403 285.62,-403 285.62,-403 279.62,-403 273.62,-397 273.62,-391 273.62,-391 273.62,-316.5 273.62,-316.5 273.62,-310.5 279.62,-304.5 285.62,-304.5"/>
<text text-anchor="middle" x="372.25" y="-385.7" font-family="Times,serif" font-size="14.00" fill="#000000">Ovchos</text>
<text text-anchor="middle" x="372.25" y="-369.2" font-family="Times,serif" font-size="14.00" fill="#000000">0x105301cc0</text>
<polyline fill="none" stroke="#99c2a2" points="273.62,-362 470.88,-362"/>
<text text-anchor="middle" x="300.38" y="-344.7" font-family="Times,serif" font-size="14.00" fill="#000000">Left</text>
<text text-anchor="middle" x="300.38" y="-328.2" font-family="Times,serif" font-size="14.00" fill="#000000">NONE</text>
<text text-anchor="middle" x="300.38" y="-311.7" font-family="Times,serif" font-size="14.00" fill="#000000">0x0</text>
<polyline fill="none" stroke="#99c2a2" points="327.12,-304.5 327.12,-362"/>
<text text-anchor="middle" x="372.25" y="-344.7" font-family="Times,serif" font-size="14.00" fill="#000000">Parent</text>
<text text-anchor="middle" x="372.25" y="-328.2" font-family="Times,serif" font-size="14.00" fill="#000000">Nefor</text>
<text text-anchor="middle" x="372.25" y="-311.7" font-family="Times,serif" font-size="14.00" fill="#000000">0x105301d20</text>
<polyline fill="none" stroke="#99c2a2" points="417.38,-304.5 417.38,-362"/>
<text text-anchor="middle" x="444.12" y="-344.7" font-family="Times,serif" font-size="14.00" fill="#000000">Right</text>
<text text-anchor="middle" x="444.12" y="-328.2" font-family="Times,serif" font-size="14.00" fill="#000000">NONE</text>
<text text-anchor="middle" x="444.12" y="-311.7" font-family="Times,serif" font-size="14.00" fill="#000000">0x0</text>
</g>
<!-- node0x105301d20&#45;&gt;node0x105301cc0 -->
<g id="edge5" class="edge">
<title>node0x105301d20:right&#45;&gt;node0x105301cc0</title>
<path fill="none" stroke="#48e818" stroke-width="2" d="M373.12,-456C373.12,-442.61 373.05,-428.22 372.94,-414.62"/>
<polygon fill="#48e818" stroke="#48e818" stroke-width="2" points="376.45,-416.41 372.87,-406.44 369.45,-416.47 376.45,-416.41"/>
<text text-anchor="middle" x="383.95" y="-424.7" font-family="Times,serif" font-size="14.00">Нет</text>
</g>
<!-- node0x105301c60 -->
<g id="node11" class="node">
<title>node0x105301c60</title>
<path fill="#d5cfe1" stroke="#8797b2" d="M501.38,-304.5C501.38,-304.5 685.12,-304.5 685.12,-304.5 691.12,-304.5 697.12,-310.5 697.12,-316.5 697.12,-316.5 697.12,-391 697.12,-391 697.12,-397 691.12,-403 685.12,-403 685.12,-403 501.38,-403 501.38,-403 495.38,-403 489.38,-397 489.38,-391 489.38,-391 489.38,-316.5 489.38,-316.5 489.38,-310.5 495.38,-304.5 501.38,-304.5"/>
<text text-anchor="middle" x="593.25" y="-385.7" font-family="Times,serif" font-size="14.00" fill="#000000">Chubarik</text>
<text text-anchor="middle" x="593.25" y="-369.2" font-family="Times,serif" font-size="14.00" fill="#000000">0x105301c60</text>
<polyline fill="none" stroke="#8797b2" points="489.38,-362 697.12,-362"/>
<text text-anchor="middle" x="516.12" y="-344.7" font-family="Times,serif" font-size="14.00" fill="#000000">Left</text>
<text text-anchor="middle" x="516.12" y="-328.2" font-family="Times,serif" font-size="14.00" fill="#000000">NONE</text>
<text text-anchor="middle" x="516.12" y="-311.7" font-family="Times,serif" font-size="14.00" fill="#000000">0x0</text>
<polyline fill="none" stroke="#8797b2" points="542.88,-304.5 542.88,-362"/>
<text text-anchor="middle" x="593.25" y="-344.7" font-family="Times,serif" font-size="14.00" fill="#000000">Parent</text>
<text text-anchor="middle" x="593.25" y="-328.2" font-family="Times,serif" font-size="14.00" fill="#000000">Teaches angem</text>
<text text-anchor="middle" x="593.25" y="-311.7" font-family="Times,serif" font-size="14.00" fill="#000000">0x105301c90</text>
<polyline fill="none" stroke="#8797b2" points="643.62,-304.5 643.62,-362"/>
<text text-anchor="middle" x="670.38" y="-344.7" font-family="Times,serif" font-size="14.00" fill="#000000">Right</text>
<text text-anchor="middle" x="670.38" y="-328.2" font-family="Times,serif" font-size="14.00" fill="#000000">NONE</text>
<text text-anchor="middle" x="670.38" y="-311.7" font-family="Times,serif" font-size="14.00" fill="#000000">0x0</text>
</g>
<!-- node0x105301c90&#45;&gt;node0x105301c60 -->
<g id="edge6" class="edge">
<title>node0x105301c90:left&#45;&gt;node0x105301c60</title>
<path fill="none" stroke="#187ae8" stroke-width="2" d="M593.25,-456C593.25,-442.61 593.25,-428.22 593.25,-414.62"/>
<polygon fill="#187ae8" stroke="#187ae8" stroke-width="2" points="596.75,-416.44 593.25,-406.44 589.75,-416.44 596.75,-416.44"/>
<text text-anchor="middle" x="601.12" y="-424.7" font-family="Times,serif" font-size="14.00">Да</text>
</g>
<!-- node0x105301c30 -->
<g id="node12" class="node">
<title>node0x105301c30</title>
<path fill="#bdef9e" stroke="#99c2a2" d="M727.38,-304.5C727.38,-304.5 947.12,-304.5 947.12,-304.5 953.12,-304.5 959.12,-310.5 959.12,-316.5 959.12,-316.5 959.12,-391 959.12,-391 959.12,-397 953.12,-403 947.12,-403 947.12,-403 727.38,-403 727.38,-403 721.38,-403 715.38,-397 715.38,-391 715.38,-391 715.38,-316.5 715.38,-316.5 715.38,-310.5 721.38,-304.5 727.38,-304.5"/>
<text text-anchor="middle" x="837.25" y="-385.7" font-family="Times,serif" font-size="14.00" fill="#000000">Do sport</text>
<text text-anchor="middle" x="837.25" y="-369.2" font-family="Times,serif" font-size="14.00" fill="#000000">0x105301c30</text>
<polyline fill="none" stroke="#99c2a2" points="715.38,-362 959.12,-362"/>
<text text-anchor="middle" x="760.12" y="-344.7" font-family="Times,serif" font-size="14.00" fill="#000000">Left</text>
<text text-anchor="middle" x="760.12" y="-328.2" font-family="Times,serif" font-size="14.00" fill="#000000">Coach</text>
<text text-anchor="middle" x="760.12" y="-311.7" font-family="Times,serif" font-size="14.00" fill="#000000">0x105301c00</text>
<polyline fill="none" stroke="#99c2a2" points="804.88,-304.5 804.88,-362"/>
<text text-anchor="middle" x="855.25" y="-344.7" font-family="Times,serif" font-size="14.00" fill="#000000">Parent</text>
<text text-anchor="middle" x="855.25" y="-328.2" font-family="Times,serif" font-size="14.00" fill="#000000">Teaches angem</text>
<text text-anchor="middle" x="855.25" y="-311.7" font-family="Times,serif" font-size="14.00" fill="#000000">0x105301c90</text>
<polyline fill="none" stroke="#99c2a2" points="905.62,-304.5 905.62,-362"/>
<text text-anchor="middle" x="932.38" y="-344.7" font-family="Times,serif" font-size="14.00" fill="#000000">Right</text>
<text text-anchor="middle" x="932.38" y="-328.2" font-family="Times,serif" font-size="14.00" fill="#000000">NONE</text>
<text text-anchor="middle" x="932.38" y="-311.7" font-family="Times,serif" font-size="14.00" fill="#000000">0x0</text>
</g>
<!-- node0x105301c90&#45;&gt;node0x105301c30 -->
<g id="edge9" class="edge">
<title>node0x105301c90:right&#45;&gt;node0x105301c30</title>
<path fill="none" stroke="#48e818" stroke-width="2" d="M787.25,-456C787.25,-441.47 791.44,-426.87 797.39,-413.45"/>
<polygon fill="#48e818" stroke="#48e818" stroke-width="2" points="799.71,-416.69 800.93,-406.17 793.41,-413.64 799.71,-416.69"/>
<text text-anchor="middle" x="804.32" y="-424.7" font-family="Times,serif" font-size="14.00">Нет</text>
</g>
<!-- node0x105301c30&#45;&gt;node0x105301c00 -->
<g id="edge7" class="edge">
<title>node0x105301c30:left&#45;&gt;node0x105301c00</title>
<path fill="none" stroke="#187ae8" stroke-width="2" d="M760.12,-304C760.12,-290.61 760.14,-276.22 760.15,-262.62"/>
<polygon fill="#187ae8" stroke="#187ae8" stroke-width="2" points="763.65,-264.45 760.16,-254.44 756.65,-264.44 763.65,-264.45"/>
<text text-anchor="middle" x="768.02" y="-272.7" font-family="Times,serif" font-size="14.00">Да</text>
</g>
</g>
</svg>
