<?xml version="1.0" encoding="UTF-8" standalone="no"?>
<!DOCTYPE svg PUBLIC "-//W3C//DTD SVG 1.1//EN"
 "http://www.w3.org/Graphics/SVG/1.1/DTD/svg11.dtd">
<!-- Generated by graphviz version 12.2.0 (20241103.1931)
 -->
<!-- Pages: 1 -->
<svg width="1005pt" height="1172pt"
 viewBox="0.00 0.00 1004.75 1171.50" xmlns="http://www.w3.org/2000/svg" xmlns:xlink="http://www.w3.org/1999/xlink">
<g id="graph0" class="graph" transform="scale(1 1) rotate(0) translate(4 1167.5)">
<polygon fill="#dcdcdc" stroke="none" points="-4,4 -4,-1167.5 1000.75,-1167.5 1000.75,4 -4,4"/>
<!-- node0x106e01e40 -->
<g id="node1" class="node">
<title>node0x106e01e40</title>
<path fill="#fbee21" stroke="#d3c70d" d="M118,-1064.5C118,-1064.5 343.75,-1064.5 343.75,-1064.5 349.75,-1064.5 355.75,-1070.5 355.75,-1076.5 355.75,-1076.5 355.75,-1151 355.75,-1151 355.75,-1157 349.75,-1163 343.75,-1163 343.75,-1163 118,-1163 118,-1163 112,-1163 106,-1157 106,-1151 106,-1151 106,-1076.5 106,-1076.5 106,-1070.5 112,-1064.5 118,-1064.5"/>
<text text-anchor="middle" x="230.88" y="-1145.7" font-family="Times,serif" font-size="14.00" fill="#000000">Animal</text>
<text text-anchor="middle" x="230.88" y="-1129.2" font-family="Times,serif" font-size="14.00" fill="#000000">0x106e01e40</text>
<polyline fill="none" stroke="#d3c70d" points="106,-1122 355.75,-1122"/>
<text text-anchor="middle" x="150.38" y="-1104.7" font-family="Times,serif" font-size="14.00" fill="#000000">Left</text>
<text text-anchor="middle" x="150.38" y="-1088.2" font-family="Times,serif" font-size="14.00" fill="#000000">Poltorashka</text>
<text text-anchor="middle" x="150.38" y="-1071.7" font-family="Times,serif" font-size="14.00" fill="#000000">0x106e01e10</text>
<polyline fill="none" stroke="#d3c70d" points="194.75,-1064.5 194.75,-1122"/>
<text text-anchor="middle" x="221.5" y="-1104.7" font-family="Times,serif" font-size="14.00" fill="#000000">Parent</text>
<text text-anchor="middle" x="221.5" y="-1088.2" font-family="Times,serif" font-size="14.00" fill="#000000">NONE</text>
<text text-anchor="middle" x="221.5" y="-1071.7" font-family="Times,serif" font-size="14.00" fill="#000000">0x0</text>
<polyline fill="none" stroke="#d3c70d" points="248.25,-1064.5 248.25,-1122"/>
<text text-anchor="middle" x="302" y="-1104.7" font-family="Times,serif" font-size="14.00" fill="#000000">Right</text>
<text text-anchor="middle" x="302" y="-1088.2" font-family="Times,serif" font-size="14.00" fill="#000000">Teaches analisys</text>
<text text-anchor="middle" x="302" y="-1071.7" font-family="Times,serif" font-size="14.00" fill="#000000">0x106e01de0</text>
</g>
<!-- node0x106e01e10 -->
<g id="node2" class="node">
<title>node0x106e01e10</title>
<path fill="#d5cfe1" stroke="#8797b2" d="M12,-912.5C12,-912.5 183.75,-912.5 183.75,-912.5 189.75,-912.5 195.75,-918.5 195.75,-924.5 195.75,-924.5 195.75,-999 195.75,-999 195.75,-1005 189.75,-1011 183.75,-1011 183.75,-1011 12,-1011 12,-1011 6,-1011 0,-1005 0,-999 0,-999 0,-924.5 0,-924.5 0,-918.5 6,-912.5 12,-912.5"/>
<text text-anchor="middle" x="97.88" y="-993.7" font-family="Times,serif" font-size="14.00" fill="#000000">Poltorashka</text>
<text text-anchor="middle" x="97.88" y="-977.2" font-family="Times,serif" font-size="14.00" fill="#000000">0x106e01e10</text>
<polyline fill="none" stroke="#8797b2" points="0,-970 195.75,-970"/>
<text text-anchor="middle" x="26.75" y="-952.7" font-family="Times,serif" font-size="14.00" fill="#000000">Left</text>
<text text-anchor="middle" x="26.75" y="-936.2" font-family="Times,serif" font-size="14.00" fill="#000000">NONE</text>
<text text-anchor="middle" x="26.75" y="-919.7" font-family="Times,serif" font-size="14.00" fill="#000000">0x0</text>
<polyline fill="none" stroke="#8797b2" points="53.5,-912.5 53.5,-970"/>
<text text-anchor="middle" x="97.88" y="-952.7" font-family="Times,serif" font-size="14.00" fill="#000000">Parent</text>
<text text-anchor="middle" x="97.88" y="-936.2" font-family="Times,serif" font-size="14.00" fill="#000000">Animal</text>
<text text-anchor="middle" x="97.88" y="-919.7" font-family="Times,serif" font-size="14.00" fill="#000000">0x106e01e40</text>
<polyline fill="none" stroke="#8797b2" points="142.25,-912.5 142.25,-970"/>
<text text-anchor="middle" x="169" y="-952.7" font-family="Times,serif" font-size="14.00" fill="#000000">Right</text>
<text text-anchor="middle" x="169" y="-936.2" font-family="Times,serif" font-size="14.00" fill="#000000">NONE</text>
<text text-anchor="middle" x="169" y="-919.7" font-family="Times,serif" font-size="14.00" fill="#000000">0x0</text>
</g>
<!-- node0x106e01e40&#45;&gt;node0x106e01e10 -->
<g id="edge1" class="edge">
<title>node0x106e01e40:left&#45;&gt;node0x106e01e10</title>
<path fill="none" stroke="#187ae8" stroke-width="2" d="M105,-1093.25C74.29,-1093.25 74.06,-1056.77 80.67,-1022.38"/>
<polygon fill="#187ae8" stroke="#187ae8" stroke-width="2" points="83.73,-1024.81 82.39,-1014.3 76.88,-1023.35 83.73,-1024.81"/>
<text text-anchor="middle" x="86.91" y="-1032.7" font-family="Times,serif" font-size="14.00">Да</text>
</g>
<!-- node0x106e01de0 -->
<g id="node4" class="node">
<title>node0x106e01de0</title>
<path fill="#bdef9e" stroke="#99c2a2" d="M225.5,-912.5C225.5,-912.5 484.25,-912.5 484.25,-912.5 490.25,-912.5 496.25,-918.5 496.25,-924.5 496.25,-924.5 496.25,-999 496.25,-999 496.25,-1005 490.25,-1011 484.25,-1011 484.25,-1011 225.5,-1011 225.5,-1011 219.5,-1011 213.5,-1005 213.5,-999 213.5,-999 213.5,-924.5 213.5,-924.5 213.5,-918.5 219.5,-912.5 225.5,-912.5"/>
<text text-anchor="middle" x="354.88" y="-993.7" font-family="Times,serif" font-size="14.00" fill="#000000">Teaches analisys</text>
<text text-anchor="middle" x="354.88" y="-977.2" font-family="Times,serif" font-size="14.00" fill="#000000">0x106e01de0</text>
<polyline fill="none" stroke="#99c2a2" points="213.5,-970 496.25,-970"/>
<text text-anchor="middle" x="258.25" y="-952.7" font-family="Times,serif" font-size="14.00" fill="#000000">Left</text>
<text text-anchor="middle" x="258.25" y="-936.2" font-family="Times,serif" font-size="14.00" fill="#000000">Burtsev</text>
<text text-anchor="middle" x="258.25" y="-919.7" font-family="Times,serif" font-size="14.00" fill="#000000">0x106e01d80</text>
<polyline fill="none" stroke="#99c2a2" points="303,-912.5 303,-970"/>
<text text-anchor="middle" x="347.38" y="-952.7" font-family="Times,serif" font-size="14.00" fill="#000000">Parent</text>
<text text-anchor="middle" x="347.38" y="-936.2" font-family="Times,serif" font-size="14.00" fill="#000000">Animal</text>
<text text-anchor="middle" x="347.38" y="-919.7" font-family="Times,serif" font-size="14.00" fill="#000000">0x106e01e40</text>
<polyline fill="none" stroke="#99c2a2" points="391.75,-912.5 391.75,-970"/>
<text text-anchor="middle" x="444" y="-952.7" font-family="Times,serif" font-size="14.00" fill="#000000">Right</text>
<text text-anchor="middle" x="444" y="-936.2" font-family="Times,serif" font-size="14.00" fill="#000000">Teaches physics</text>
<text text-anchor="middle" x="444" y="-919.7" font-family="Times,serif" font-size="14.00" fill="#000000">0x106e01d50</text>
</g>
<!-- node0x106e01e40&#45;&gt;node0x106e01de0 -->
<g id="edge14" class="edge">
<title>node0x106e01e40:right&#45;&gt;node0x106e01de0</title>
<path fill="none" stroke="#48e818" stroke-width="2" d="M302,-1064C302,-1049.38 306.38,-1034.79 312.63,-1021.42"/>
<polygon fill="#48e818" stroke="#48e818" stroke-width="2" points="314.91,-1024.64 316.34,-1014.14 308.68,-1021.46 314.91,-1024.64"/>
<text text-anchor="middle" x="319.43" y="-1032.7" font-family="Times,serif" font-size="14.00">Нет</text>
</g>
<!-- node0x106e01b70 -->
<g id="node3" class="node">
<title>node0x106e01b70</title>
<path fill="#f18805" stroke="#af3800" d="M777,-152.5C777,-152.5 984.75,-152.5 984.75,-152.5 990.75,-152.5 996.75,-158.5 996.75,-164.5 996.75,-164.5 996.75,-239 996.75,-239 996.75,-245 990.75,-251 984.75,-251 984.75,-251 777,-251 777,-251 771,-251 765,-245 765,-239 765,-239 765,-164.5 765,-164.5 765,-158.5 771,-152.5 777,-152.5"/>
<text text-anchor="middle" x="880.88" y="-233.7" font-family="Times,serif" font-size="14.00" fill="#000000">IN KARTEL</text>
<text text-anchor="middle" x="880.88" y="-217.2" font-family="Times,serif" font-size="14.00" fill="#000000">0x106e01b70</text>
<polyline fill="none" stroke="#af3800" points="765,-210 996.75,-210"/>
<text text-anchor="middle" x="809.75" y="-192.7" font-family="Times,serif" font-size="14.00" fill="#000000">Left</text>
<text text-anchor="middle" x="809.75" y="-176.2" font-family="Times,serif" font-size="14.00" fill="#000000">LEGEND</text>
<text text-anchor="middle" x="809.75" y="-159.7" font-family="Times,serif" font-size="14.00" fill="#000000">0x106e01b40</text>
<polyline fill="none" stroke="#af3800" points="854.5,-152.5 854.5,-210"/>
<text text-anchor="middle" x="898.88" y="-192.7" font-family="Times,serif" font-size="14.00" fill="#000000">Parent</text>
<text text-anchor="middle" x="898.88" y="-176.2" font-family="Times,serif" font-size="14.00" fill="#000000">Coach</text>
<text text-anchor="middle" x="898.88" y="-159.7" font-family="Times,serif" font-size="14.00" fill="#000000">0x106e01c00</text>
<polyline fill="none" stroke="#af3800" points="943.25,-152.5 943.25,-210"/>
<text text-anchor="middle" x="970" y="-192.7" font-family="Times,serif" font-size="14.00" fill="#000000">Right</text>
<text text-anchor="middle" x="970" y="-176.2" font-family="Times,serif" font-size="14.00" fill="#000000">NONE</text>
<text text-anchor="middle" x="970" y="-159.7" font-family="Times,serif" font-size="14.00" fill="#000000">0x0</text>
</g>
<!-- node0x106e01b40 -->
<g id="node15" class="node">
<title>node0x106e01b40</title>
<path fill="#d5cfe1" stroke="#8797b2" d="M723.62,-0.5C723.62,-0.5 896.12,-0.5 896.12,-0.5 902.12,-0.5 908.12,-6.5 908.12,-12.5 908.12,-12.5 908.12,-87 908.12,-87 908.12,-93 902.12,-99 896.12,-99 896.12,-99 723.62,-99 723.62,-99 717.62,-99 711.62,-93 711.62,-87 711.62,-87 711.62,-12.5 711.62,-12.5 711.62,-6.5 717.62,-0.5 723.62,-0.5"/>
<text text-anchor="middle" x="809.88" y="-81.7" font-family="Times,serif" font-size="14.00" fill="#000000">LEGEND</text>
<text text-anchor="middle" x="809.88" y="-65.2" font-family="Times,serif" font-size="14.00" fill="#000000">0x106e01b40</text>
<polyline fill="none" stroke="#8797b2" points="711.62,-58 908.12,-58"/>
<text text-anchor="middle" x="738.38" y="-40.7" font-family="Times,serif" font-size="14.00" fill="#000000">Left</text>
<text text-anchor="middle" x="738.38" y="-24.2" font-family="Times,serif" font-size="14.00" fill="#000000">NONE</text>
<text text-anchor="middle" x="738.38" y="-7.7" font-family="Times,serif" font-size="14.00" fill="#000000">0x0</text>
<polyline fill="none" stroke="#8797b2" points="765.12,-0.5 765.12,-58"/>
<text text-anchor="middle" x="809.88" y="-40.7" font-family="Times,serif" font-size="14.00" fill="#000000">Parent</text>
<text text-anchor="middle" x="809.88" y="-24.2" font-family="Times,serif" font-size="14.00" fill="#000000">IN KARTEL</text>
<text text-anchor="middle" x="809.88" y="-7.7" font-family="Times,serif" font-size="14.00" fill="#000000">0x106e01b70</text>
<polyline fill="none" stroke="#8797b2" points="854.62,-0.5 854.62,-58"/>
<text text-anchor="middle" x="881.38" y="-40.7" font-family="Times,serif" font-size="14.00" fill="#000000">Right</text>
<text text-anchor="middle" x="881.38" y="-24.2" font-family="Times,serif" font-size="14.00" fill="#000000">NONE</text>
<text text-anchor="middle" x="881.38" y="-7.7" font-family="Times,serif" font-size="14.00" fill="#000000">0x0</text>
</g>
<!-- node0x106e01b70&#45;&gt;node0x106e01b40 -->
<g id="edge9" class="edge">
<title>node0x106e01b70:left&#45;&gt;node0x106e01b40</title>
<path fill="none" stroke="#187ae8" stroke-width="2" d="M809.75,-152C809.75,-138.61 809.76,-124.22 809.78,-110.62"/>
<polygon fill="#187ae8" stroke="#187ae8" stroke-width="2" points="813.27,-112.45 809.79,-102.44 806.27,-112.44 813.27,-112.45"/>
<text text-anchor="middle" x="817.64" y="-120.7" font-family="Times,serif" font-size="14.00">Да</text>
</g>
<!-- node0x106e01d80 -->
<g id="node5" class="node">
<title>node0x106e01d80</title>
<path fill="#d5cfe1" stroke="#8797b2" d="M141.62,-760.5C141.62,-760.5 332.12,-760.5 332.12,-760.5 338.12,-760.5 344.12,-766.5 344.12,-772.5 344.12,-772.5 344.12,-847 344.12,-847 344.12,-853 338.12,-859 332.12,-859 332.12,-859 141.62,-859 141.62,-859 135.62,-859 129.62,-853 129.62,-847 129.62,-847 129.62,-772.5 129.62,-772.5 129.62,-766.5 135.62,-760.5 141.62,-760.5"/>
<text text-anchor="middle" x="236.88" y="-841.7" font-family="Times,serif" font-size="14.00" fill="#000000">Burtsev</text>
<text text-anchor="middle" x="236.88" y="-825.2" font-family="Times,serif" font-size="14.00" fill="#000000">0x106e01d80</text>
<polyline fill="none" stroke="#8797b2" points="129.62,-818 344.12,-818"/>
<text text-anchor="middle" x="156.38" y="-800.7" font-family="Times,serif" font-size="14.00" fill="#000000">Left</text>
<text text-anchor="middle" x="156.38" y="-784.2" font-family="Times,serif" font-size="14.00" fill="#000000">NONE</text>
<text text-anchor="middle" x="156.38" y="-767.7" font-family="Times,serif" font-size="14.00" fill="#000000">0x0</text>
<polyline fill="none" stroke="#8797b2" points="183.12,-760.5 183.12,-818"/>
<text text-anchor="middle" x="236.88" y="-800.7" font-family="Times,serif" font-size="14.00" fill="#000000">Parent</text>
<text text-anchor="middle" x="236.88" y="-784.2" font-family="Times,serif" font-size="14.00" fill="#000000">Teaches analisys</text>
<text text-anchor="middle" x="236.88" y="-767.7" font-family="Times,serif" font-size="14.00" fill="#000000">0x106e01de0</text>
<polyline fill="none" stroke="#8797b2" points="290.62,-760.5 290.62,-818"/>
<text text-anchor="middle" x="317.38" y="-800.7" font-family="Times,serif" font-size="14.00" fill="#000000">Right</text>
<text text-anchor="middle" x="317.38" y="-784.2" font-family="Times,serif" font-size="14.00" fill="#000000">NONE</text>
<text text-anchor="middle" x="317.38" y="-767.7" font-family="Times,serif" font-size="14.00" fill="#000000">0x0</text>
</g>
<!-- node0x106e01de0&#45;&gt;node0x106e01d80 -->
<g id="edge2" class="edge">
<title>node0x106e01de0:left&#45;&gt;node0x106e01d80</title>
<path fill="none" stroke="#187ae8" stroke-width="2" d="M258.25,-912C258.25,-898.46 256.4,-884.11 253.78,-870.6"/>
<polygon fill="#187ae8" stroke="#187ae8" stroke-width="2" points="257.55,-871.52 252.06,-862.46 250.7,-872.97 257.55,-871.52"/>
<text text-anchor="middle" x="264.99" y="-880.7" font-family="Times,serif" font-size="14.00">Да</text>
</g>
<!-- node0x106e01d50 -->
<g id="node6" class="node">
<title>node0x106e01d50</title>
<path fill="#bdef9e" stroke="#99c2a2" d="M374,-760.5C374,-760.5 647.75,-760.5 647.75,-760.5 653.75,-760.5 659.75,-766.5 659.75,-772.5 659.75,-772.5 659.75,-847 659.75,-847 659.75,-853 653.75,-859 647.75,-859 647.75,-859 374,-859 374,-859 368,-859 362,-853 362,-847 362,-847 362,-772.5 362,-772.5 362,-766.5 368,-760.5 374,-760.5"/>
<text text-anchor="middle" x="510.88" y="-841.7" font-family="Times,serif" font-size="14.00" fill="#000000">Teaches physics</text>
<text text-anchor="middle" x="510.88" y="-825.2" font-family="Times,serif" font-size="14.00" fill="#000000">0x106e01d50</text>
<polyline fill="none" stroke="#99c2a2" points="362,-818 659.75,-818"/>
<text text-anchor="middle" x="406.75" y="-800.7" font-family="Times,serif" font-size="14.00" fill="#000000">Left</text>
<text text-anchor="middle" x="406.75" y="-784.2" font-family="Times,serif" font-size="14.00" fill="#000000">Nefor</text>
<text text-anchor="middle" x="406.75" y="-767.7" font-family="Times,serif" font-size="14.00" fill="#000000">0x106e01d20</text>
<polyline fill="none" stroke="#99c2a2" points="451.5,-760.5 451.5,-818"/>
<text text-anchor="middle" x="505.25" y="-800.7" font-family="Times,serif" font-size="14.00" fill="#000000">Parent</text>
<text text-anchor="middle" x="505.25" y="-784.2" font-family="Times,serif" font-size="14.00" fill="#000000">Teaches analisys</text>
<text text-anchor="middle" x="505.25" y="-767.7" font-family="Times,serif" font-size="14.00" fill="#000000">0x106e01de0</text>
<polyline fill="none" stroke="#99c2a2" points="559,-760.5 559,-818"/>
<text text-anchor="middle" x="609.38" y="-800.7" font-family="Times,serif" font-size="14.00" fill="#000000">Right</text>
<text text-anchor="middle" x="609.38" y="-784.2" font-family="Times,serif" font-size="14.00" fill="#000000">Teaches angem</text>
<text text-anchor="middle" x="609.38" y="-767.7" font-family="Times,serif" font-size="14.00" fill="#000000">0x106e01c90</text>
</g>
<!-- node0x106e01de0&#45;&gt;node0x106e01d50 -->
<g id="edge13" class="edge">
<title>node0x106e01de0:right&#45;&gt;node0x106e01d50</title>
<path fill="none" stroke="#48e818" stroke-width="2" d="M444,-912C444,-896.74 449.35,-882.02 457.03,-868.74"/>
<polygon fill="#48e818" stroke="#48e818" stroke-width="2" points="458.97,-872.22 461.36,-861.9 453.05,-868.47 458.97,-872.22"/>
<text text-anchor="middle" x="463.16" y="-880.7" font-family="Times,serif" font-size="14.00">Нет</text>
</g>
<!-- node0x106e01d20 -->
<g id="node7" class="node">
<title>node0x106e01d20</title>
<path fill="#d5cfe1" stroke="#8797b2" d="M149.38,-608.5C149.38,-608.5 404.38,-608.5 404.38,-608.5 410.38,-608.5 416.38,-614.5 416.38,-620.5 416.38,-620.5 416.38,-695 416.38,-695 416.38,-701 410.38,-707 404.38,-707 404.38,-707 149.38,-707 149.38,-707 143.38,-707 137.38,-701 137.38,-695 137.38,-695 137.38,-620.5 137.38,-620.5 137.38,-614.5 143.38,-608.5 149.38,-608.5"/>
<text text-anchor="middle" x="276.88" y="-689.7" font-family="Times,serif" font-size="14.00" fill="#000000">Nefor</text>
<text text-anchor="middle" x="276.88" y="-673.2" font-family="Times,serif" font-size="14.00" fill="#000000">0x106e01d20</text>
<polyline fill="none" stroke="#8797b2" points="137.38,-666 416.38,-666"/>
<text text-anchor="middle" x="180.62" y="-648.7" font-family="Times,serif" font-size="14.00" fill="#000000">Left</text>
<text text-anchor="middle" x="180.62" y="-632.2" font-family="Times,serif" font-size="14.00" fill="#000000">Magic</text>
<text text-anchor="middle" x="180.62" y="-615.7" font-family="Times,serif" font-size="14.00" fill="#000000">0x106e01cf0</text>
<polyline fill="none" stroke="#8797b2" points="223.88,-608.5 223.88,-666"/>
<text text-anchor="middle" x="276.12" y="-648.7" font-family="Times,serif" font-size="14.00" fill="#000000">Parent</text>
<text text-anchor="middle" x="276.12" y="-632.2" font-family="Times,serif" font-size="14.00" fill="#000000">Teaches physics</text>
<text text-anchor="middle" x="276.12" y="-615.7" font-family="Times,serif" font-size="14.00" fill="#000000">0x106e01d50</text>
<polyline fill="none" stroke="#8797b2" points="328.38,-608.5 328.38,-666"/>
<text text-anchor="middle" x="372.38" y="-648.7" font-family="Times,serif" font-size="14.00" fill="#000000">Right</text>
<text text-anchor="middle" x="372.38" y="-632.2" font-family="Times,serif" font-size="14.00" fill="#000000">Ovchos</text>
<text text-anchor="middle" x="372.38" y="-615.7" font-family="Times,serif" font-size="14.00" fill="#000000">0x106e01cc0</text>
</g>
<!-- node0x106e01d50&#45;&gt;node0x106e01d20 -->
<g id="edge3" class="edge">
<title>node0x106e01d50:left&#45;&gt;node0x106e01d20</title>
<path fill="none" stroke="#187ae8" stroke-width="2" d="M406.75,-760C406.75,-742.64 399.45,-727.83 388.31,-715.32"/>
<polygon fill="#187ae8" stroke="#187ae8" stroke-width="2" points="392.13,-714.21 382.6,-709.58 387.17,-719.14 392.13,-714.21"/>
<text text-anchor="middle" x="410.99" y="-728.7" font-family="Times,serif" font-size="14.00">Да</text>
</g>
<!-- node0x106e01c90 -->
<g id="node10" class="node">
<title>node0x106e01c90</title>
<path fill="#bdef9e" stroke="#99c2a2" d="M558.88,-608.5C558.88,-608.5 816.88,-608.5 816.88,-608.5 822.88,-608.5 828.88,-614.5 828.88,-620.5 828.88,-620.5 828.88,-695 828.88,-695 828.88,-701 822.88,-707 816.88,-707 816.88,-707 558.88,-707 558.88,-707 552.88,-707 546.88,-701 546.88,-695 546.88,-695 546.88,-620.5 546.88,-620.5 546.88,-614.5 552.88,-608.5 558.88,-608.5"/>
<text text-anchor="middle" x="687.88" y="-689.7" font-family="Times,serif" font-size="14.00" fill="#000000">Teaches angem</text>
<text text-anchor="middle" x="687.88" y="-673.2" font-family="Times,serif" font-size="14.00" fill="#000000">0x106e01c90</text>
<polyline fill="none" stroke="#99c2a2" points="546.88,-666 828.88,-666"/>
<text text-anchor="middle" x="591.25" y="-648.7" font-family="Times,serif" font-size="14.00" fill="#000000">Left</text>
<text text-anchor="middle" x="591.25" y="-632.2" font-family="Times,serif" font-size="14.00" fill="#000000">Chubarik</text>
<text text-anchor="middle" x="591.25" y="-615.7" font-family="Times,serif" font-size="14.00" fill="#000000">0x106e01c60</text>
<polyline fill="none" stroke="#99c2a2" points="635.62,-608.5 635.62,-666"/>
<text text-anchor="middle" x="687.88" y="-648.7" font-family="Times,serif" font-size="14.00" fill="#000000">Parent</text>
<text text-anchor="middle" x="687.88" y="-632.2" font-family="Times,serif" font-size="14.00" fill="#000000">Teaches physics</text>
<text text-anchor="middle" x="687.88" y="-615.7" font-family="Times,serif" font-size="14.00" fill="#000000">0x106e01d50</text>
<polyline fill="none" stroke="#99c2a2" points="740.12,-608.5 740.12,-666"/>
<text text-anchor="middle" x="784.5" y="-648.7" font-family="Times,serif" font-size="14.00" fill="#000000">Right</text>
<text text-anchor="middle" x="784.5" y="-632.2" font-family="Times,serif" font-size="14.00" fill="#000000">Do sport</text>
<text text-anchor="middle" x="784.5" y="-615.7" font-family="Times,serif" font-size="14.00" fill="#000000">0x106e01c30</text>
</g>
<!-- node0x106e01d50&#45;&gt;node0x106e01c90 -->
<g id="edge12" class="edge">
<title>node0x106e01d50:right&#45;&gt;node0x106e01c90</title>
<path fill="none" stroke="#48e818" stroke-width="2" d="M660.75,-789.25C691.94,-789.25 697.8,-753.08 696.37,-718.83"/>
<polygon fill="#48e818" stroke="#48e818" stroke-width="2" points="699.96,-720.12 695.82,-710.36 692.97,-720.57 699.96,-720.12"/>
<text text-anchor="middle" x="707.44" y="-728.7" font-family="Times,serif" font-size="14.00">Нет</text>
</g>
<!-- node0x106e01cf0 -->
<g id="node8" class="node">
<title>node0x106e01cf0</title>
<path fill="#d5cfe1" stroke="#8797b2" d="M70.62,-456.5C70.62,-456.5 243.12,-456.5 243.12,-456.5 249.12,-456.5 255.12,-462.5 255.12,-468.5 255.12,-468.5 255.12,-543 255.12,-543 255.12,-549 249.12,-555 243.12,-555 243.12,-555 70.62,-555 70.62,-555 64.63,-555 58.62,-549 58.62,-543 58.62,-543 58.62,-468.5 58.62,-468.5 58.62,-462.5 64.62,-456.5 70.62,-456.5"/>
<text text-anchor="middle" x="156.88" y="-537.7" font-family="Times,serif" font-size="14.00" fill="#000000">Magic</text>
<text text-anchor="middle" x="156.88" y="-521.2" font-family="Times,serif" font-size="14.00" fill="#000000">0x106e01cf0</text>
<polyline fill="none" stroke="#8797b2" points="58.62,-514 255.12,-514"/>
<text text-anchor="middle" x="85.38" y="-496.7" font-family="Times,serif" font-size="14.00" fill="#000000">Left</text>
<text text-anchor="middle" x="85.38" y="-480.2" font-family="Times,serif" font-size="14.00" fill="#000000">NONE</text>
<text text-anchor="middle" x="85.38" y="-463.7" font-family="Times,serif" font-size="14.00" fill="#000000">0x0</text>
<polyline fill="none" stroke="#8797b2" points="112.12,-456.5 112.12,-514"/>
<text text-anchor="middle" x="156.88" y="-496.7" font-family="Times,serif" font-size="14.00" fill="#000000">Parent</text>
<text text-anchor="middle" x="156.88" y="-480.2" font-family="Times,serif" font-size="14.00" fill="#000000">Nefor</text>
<text text-anchor="middle" x="156.88" y="-463.7" font-family="Times,serif" font-size="14.00" fill="#000000">0x106e01d20</text>
<polyline fill="none" stroke="#8797b2" points="201.62,-456.5 201.62,-514"/>
<text text-anchor="middle" x="228.38" y="-496.7" font-family="Times,serif" font-size="14.00" fill="#000000">Right</text>
<text text-anchor="middle" x="228.38" y="-480.2" font-family="Times,serif" font-size="14.00" fill="#000000">NONE</text>
<text text-anchor="middle" x="228.38" y="-463.7" font-family="Times,serif" font-size="14.00" fill="#000000">0x0</text>
</g>
<!-- node0x106e01d20&#45;&gt;node0x106e01cf0 -->
<g id="edge4" class="edge">
<title>node0x106e01d20:left&#45;&gt;node0x106e01cf0</title>
<path fill="none" stroke="#187ae8" stroke-width="2" d="M180.62,-608C180.62,-594.39 178.57,-580.01 175.66,-566.5"/>
<polygon fill="#187ae8" stroke="#187ae8" stroke-width="2" points="179.44,-567.27 173.74,-558.34 172.62,-568.88 179.44,-567.27"/>
<text text-anchor="middle" x="187.23" y="-576.7" font-family="Times,serif" font-size="14.00">Да</text>
</g>
<!-- node0x106e01cc0 -->
<g id="node9" class="node">
<title>node0x106e01cc0</title>
<path fill="#bdef9e" stroke="#99c2a2" d="M285.62,-456.5C285.62,-456.5 458.12,-456.5 458.12,-456.5 464.12,-456.5 470.12,-462.5 470.12,-468.5 470.12,-468.5 470.12,-543 470.12,-543 470.12,-549 464.12,-555 458.12,-555 458.12,-555 285.62,-555 285.62,-555 279.62,-555 273.62,-549 273.62,-543 273.62,-543 273.62,-468.5 273.62,-468.5 273.62,-462.5 279.62,-456.5 285.62,-456.5"/>
<text text-anchor="middle" x="371.88" y="-537.7" font-family="Times,serif" font-size="14.00" fill="#000000">Ovchos</text>
<text text-anchor="middle" x="371.88" y="-521.2" font-family="Times,serif" font-size="14.00" fill="#000000">0x106e01cc0</text>
<polyline fill="none" stroke="#99c2a2" points="273.62,-514 470.12,-514"/>
<text text-anchor="middle" x="300.38" y="-496.7" font-family="Times,serif" font-size="14.00" fill="#000000">Left</text>
<text text-anchor="middle" x="300.38" y="-480.2" font-family="Times,serif" font-size="14.00" fill="#000000">NONE</text>
<text text-anchor="middle" x="300.38" y="-463.7" font-family="Times,serif" font-size="14.00" fill="#000000">0x0</text>
<polyline fill="none" stroke="#99c2a2" points="327.12,-456.5 327.12,-514"/>
<text text-anchor="middle" x="371.88" y="-496.7" font-family="Times,serif" font-size="14.00" fill="#000000">Parent</text>
<text text-anchor="middle" x="371.88" y="-480.2" font-family="Times,serif" font-size="14.00" fill="#000000">Nefor</text>
<text text-anchor="middle" x="371.88" y="-463.7" font-family="Times,serif" font-size="14.00" fill="#000000">0x106e01d20</text>
<polyline fill="none" stroke="#99c2a2" points="416.62,-456.5 416.62,-514"/>
<text text-anchor="middle" x="443.38" y="-496.7" font-family="Times,serif" font-size="14.00" fill="#000000">Right</text>
<text text-anchor="middle" x="443.38" y="-480.2" font-family="Times,serif" font-size="14.00" fill="#000000">NONE</text>
<text text-anchor="middle" x="443.38" y="-463.7" font-family="Times,serif" font-size="14.00" fill="#000000">0x0</text>
</g>
<!-- node0x106e01d20&#45;&gt;node0x106e01cc0 -->
<g id="edge5" class="edge">
<title>node0x106e01d20:right&#45;&gt;node0x106e01cc0</title>
<path fill="none" stroke="#48e818" stroke-width="2" d="M372.38,-608C372.38,-594.61 372.33,-580.22 372.27,-566.62"/>
<polygon fill="#48e818" stroke="#48e818" stroke-width="2" points="375.78,-568.43 372.23,-558.44 368.78,-568.46 375.78,-568.43"/>
<text text-anchor="middle" x="383.22" y="-576.7" font-family="Times,serif" font-size="14.00">Нет</text>
</g>
<!-- node0x106e01c60 -->
<g id="node11" class="node">
<title>node0x106e01c60</title>
<path fill="#d5cfe1" stroke="#8797b2" d="M500,-456.5C500,-456.5 683.75,-456.5 683.75,-456.5 689.75,-456.5 695.75,-462.5 695.75,-468.5 695.75,-468.5 695.75,-543 695.75,-543 695.75,-549 689.75,-555 683.75,-555 683.75,-555 500,-555 500,-555 494,-555 488,-549 488,-543 488,-543 488,-468.5 488,-468.5 488,-462.5 494,-456.5 500,-456.5"/>
<text text-anchor="middle" x="591.88" y="-537.7" font-family="Times,serif" font-size="14.00" fill="#000000">Chubarik</text>
<text text-anchor="middle" x="591.88" y="-521.2" font-family="Times,serif" font-size="14.00" fill="#000000">0x106e01c60</text>
<polyline fill="none" stroke="#8797b2" points="488,-514 695.75,-514"/>
<text text-anchor="middle" x="514.75" y="-496.7" font-family="Times,serif" font-size="14.00" fill="#000000">Left</text>
<text text-anchor="middle" x="514.75" y="-480.2" font-family="Times,serif" font-size="14.00" fill="#000000">NONE</text>
<text text-anchor="middle" x="514.75" y="-463.7" font-family="Times,serif" font-size="14.00" fill="#000000">0x0</text>
<polyline fill="none" stroke="#8797b2" points="541.5,-456.5 541.5,-514"/>
<text text-anchor="middle" x="591.88" y="-496.7" font-family="Times,serif" font-size="14.00" fill="#000000">Parent</text>
<text text-anchor="middle" x="591.88" y="-480.2" font-family="Times,serif" font-size="14.00" fill="#000000">Teaches angem</text>
<text text-anchor="middle" x="591.88" y="-463.7" font-family="Times,serif" font-size="14.00" fill="#000000">0x106e01c90</text>
<polyline fill="none" stroke="#8797b2" points="642.25,-456.5 642.25,-514"/>
<text text-anchor="middle" x="669" y="-496.7" font-family="Times,serif" font-size="14.00" fill="#000000">Right</text>
<text text-anchor="middle" x="669" y="-480.2" font-family="Times,serif" font-size="14.00" fill="#000000">NONE</text>
<text text-anchor="middle" x="669" y="-463.7" font-family="Times,serif" font-size="14.00" fill="#000000">0x0</text>
</g>
<!-- node0x106e01c90&#45;&gt;node0x106e01c60 -->
<g id="edge6" class="edge">
<title>node0x106e01c90:left&#45;&gt;node0x106e01c60</title>
<path fill="none" stroke="#187ae8" stroke-width="2" d="M591.25,-608C591.25,-594.61 591.31,-580.22 591.38,-566.62"/>
<polygon fill="#187ae8" stroke="#187ae8" stroke-width="2" points="594.87,-568.47 591.43,-558.44 587.87,-568.42 594.87,-568.47"/>
<text text-anchor="middle" x="599.22" y="-576.7" font-family="Times,serif" font-size="14.00">Да</text>
</g>
<!-- node0x106e01c30 -->
<g id="node12" class="node">
<title>node0x106e01c30</title>
<path fill="#bdef9e" stroke="#99c2a2" d="M725.38,-456.5C725.38,-456.5 944.38,-456.5 944.38,-456.5 950.38,-456.5 956.38,-462.5 956.38,-468.5 956.38,-468.5 956.38,-543 956.38,-543 956.38,-549 950.38,-555 944.38,-555 944.38,-555 725.38,-555 725.38,-555 719.38,-555 713.38,-549 713.38,-543 713.38,-543 713.38,-468.5 713.38,-468.5 713.38,-462.5 719.38,-456.5 725.38,-456.5"/>
<text text-anchor="middle" x="834.88" y="-537.7" font-family="Times,serif" font-size="14.00" fill="#000000">Do sport</text>
<text text-anchor="middle" x="834.88" y="-521.2" font-family="Times,serif" font-size="14.00" fill="#000000">0x106e01c30</text>
<polyline fill="none" stroke="#99c2a2" points="713.38,-514 956.38,-514"/>
<text text-anchor="middle" x="757.75" y="-496.7" font-family="Times,serif" font-size="14.00" fill="#000000">Left</text>
<text text-anchor="middle" x="757.75" y="-480.2" font-family="Times,serif" font-size="14.00" fill="#000000">Coach</text>
<text text-anchor="middle" x="757.75" y="-463.7" font-family="Times,serif" font-size="14.00" fill="#000000">0x106e01c00</text>
<polyline fill="none" stroke="#99c2a2" points="802.12,-456.5 802.12,-514"/>
<text text-anchor="middle" x="852.5" y="-496.7" font-family="Times,serif" font-size="14.00" fill="#000000">Parent</text>
<text text-anchor="middle" x="852.5" y="-480.2" font-family="Times,serif" font-size="14.00" fill="#000000">Teaches angem</text>
<text text-anchor="middle" x="852.5" y="-463.7" font-family="Times,serif" font-size="14.00" fill="#000000">0x106e01c90</text>
<polyline fill="none" stroke="#99c2a2" points="902.88,-456.5 902.88,-514"/>
<text text-anchor="middle" x="929.62" y="-496.7" font-family="Times,serif" font-size="14.00" fill="#000000">Right</text>
<text text-anchor="middle" x="929.62" y="-480.2" font-family="Times,serif" font-size="14.00" fill="#000000">NONE</text>
<text text-anchor="middle" x="929.62" y="-463.7" font-family="Times,serif" font-size="14.00" fill="#000000">0x0</text>
</g>
<!-- node0x106e01c90&#45;&gt;node0x106e01c30 -->
<g id="edge11" class="edge">
<title>node0x106e01c90:right&#45;&gt;node0x106e01c30</title>
<path fill="none" stroke="#48e818" stroke-width="2" d="M784.5,-608C784.5,-593.45 788.72,-578.84 794.72,-565.42"/>
<polygon fill="#48e818" stroke="#48e818" stroke-width="2" points="797.04,-568.65 798.28,-558.13 790.75,-565.58 797.04,-568.65"/>
<text text-anchor="middle" x="801.62" y="-576.7" font-family="Times,serif" font-size="14.00">Нет</text>
</g>
<!-- node0x106e01c00 -->
<g id="node13" class="node">
<title>node0x106e01c00</title>
<path fill="#d5cfe1" stroke="#8797b2" d="M621.38,-304.5C621.38,-304.5 894.38,-304.5 894.38,-304.5 900.38,-304.5 906.38,-310.5 906.38,-316.5 906.38,-316.5 906.38,-391 906.38,-391 906.38,-397 900.38,-403 894.38,-403 894.38,-403 621.38,-403 621.38,-403 615.38,-403 609.38,-397 609.38,-391 609.38,-391 609.38,-316.5 609.38,-316.5 609.38,-310.5 615.38,-304.5 621.38,-304.5"/>
<text text-anchor="middle" x="757.88" y="-385.7" font-family="Times,serif" font-size="14.00" fill="#000000">Coach</text>
<text text-anchor="middle" x="757.88" y="-369.2" font-family="Times,serif" font-size="14.00" fill="#000000">0x106e01c00</text>
<polyline fill="none" stroke="#8797b2" points="609.38,-362 906.38,-362"/>
<text text-anchor="middle" x="668.75" y="-344.7" font-family="Times,serif" font-size="14.00" fill="#000000">Left</text>
<text text-anchor="middle" x="668.75" y="-328.2" font-family="Times,serif" font-size="14.00" fill="#000000">Valentin Guardiola</text>
<text text-anchor="middle" x="668.75" y="-311.7" font-family="Times,serif" font-size="14.00" fill="#000000">0x106e01bd0</text>
<polyline fill="none" stroke="#8797b2" points="728.12,-304.5 728.12,-362"/>
<text text-anchor="middle" x="772.5" y="-344.7" font-family="Times,serif" font-size="14.00" fill="#000000">Parent</text>
<text text-anchor="middle" x="772.5" y="-328.2" font-family="Times,serif" font-size="14.00" fill="#000000">Do sport</text>
<text text-anchor="middle" x="772.5" y="-311.7" font-family="Times,serif" font-size="14.00" fill="#000000">0x106e01c30</text>
<polyline fill="none" stroke="#8797b2" points="816.88,-304.5 816.88,-362"/>
<text text-anchor="middle" x="861.62" y="-344.7" font-family="Times,serif" font-size="14.00" fill="#000000">Right</text>
<text text-anchor="middle" x="861.62" y="-328.2" font-family="Times,serif" font-size="14.00" fill="#000000">IN KARTEL</text>
<text text-anchor="middle" x="861.62" y="-311.7" font-family="Times,serif" font-size="14.00" fill="#000000">0x106e01b70</text>
</g>
<!-- node0x106e01c30&#45;&gt;node0x106e01c00 -->
<g id="edge7" class="edge">
<title>node0x106e01c30:left&#45;&gt;node0x106e01c00</title>
<path fill="none" stroke="#187ae8" stroke-width="2" d="M757.75,-456C757.75,-442.61 757.76,-428.22 757.78,-414.62"/>
<polygon fill="#187ae8" stroke="#187ae8" stroke-width="2" points="761.27,-416.45 757.79,-406.44 754.27,-416.44 761.27,-416.45"/>
<text text-anchor="middle" x="765.64" y="-424.7" font-family="Times,serif" font-size="14.00">Да</text>
</g>
<!-- node0x106e01c00&#45;&gt;node0x106e01b70 -->
<g id="edge10" class="edge">
<title>node0x106e01c00:right&#45;&gt;node0x106e01b70</title>
<path fill="none" stroke="#48e818" stroke-width="2" d="M861.62,-304C861.62,-290.44 863.31,-276.04 865.69,-262.48"/>
<polygon fill="#48e818" stroke="#48e818" stroke-width="2" points="868.81,-264.77 867.25,-254.29 861.94,-263.46 868.81,-264.77"/>
<text text-anchor="middle" x="875.29" y="-272.7" font-family="Times,serif" font-size="14.00">Нет</text>
</g>
<!-- node0x106e01bd0 -->
<g id="node14" class="node">
<title>node0x106e01bd0</title>
<path fill="#d5cfe1" stroke="#8797b2" d="M563,-152.5C563,-152.5 734.75,-152.5 734.75,-152.5 740.75,-152.5 746.75,-158.5 746.75,-164.5 746.75,-164.5 746.75,-239 746.75,-239 746.75,-245 740.75,-251 734.75,-251 734.75,-251 563,-251 563,-251 557,-251 551,-245 551,-239 551,-239 551,-164.5 551,-164.5 551,-158.5 557,-152.5 563,-152.5"/>
<text text-anchor="middle" x="648.88" y="-233.7" font-family="Times,serif" font-size="14.00" fill="#000000">Valentin Guardiola</text>
<text text-anchor="middle" x="648.88" y="-217.2" font-family="Times,serif" font-size="14.00" fill="#000000">0x106e01bd0</text>
<polyline fill="none" stroke="#8797b2" points="551,-210 746.75,-210"/>
<text text-anchor="middle" x="577.75" y="-192.7" font-family="Times,serif" font-size="14.00" fill="#000000">Left</text>
<text text-anchor="middle" x="577.75" y="-176.2" font-family="Times,serif" font-size="14.00" fill="#000000">NONE</text>
<text text-anchor="middle" x="577.75" y="-159.7" font-family="Times,serif" font-size="14.00" fill="#000000">0x0</text>
<polyline fill="none" stroke="#8797b2" points="604.5,-152.5 604.5,-210"/>
<text text-anchor="middle" x="648.88" y="-192.7" font-family="Times,serif" font-size="14.00" fill="#000000">Parent</text>
<text text-anchor="middle" x="648.88" y="-176.2" font-family="Times,serif" font-size="14.00" fill="#000000">Coach</text>
<text text-anchor="middle" x="648.88" y="-159.7" font-family="Times,serif" font-size="14.00" fill="#000000">0x106e01c00</text>
<polyline fill="none" stroke="#8797b2" points="693.25,-152.5 693.25,-210"/>
<text text-anchor="middle" x="720" y="-192.7" font-family="Times,serif" font-size="14.00" fill="#000000">Right</text>
<text text-anchor="middle" x="720" y="-176.2" font-family="Times,serif" font-size="14.00" fill="#000000">NONE</text>
<text text-anchor="middle" x="720" y="-159.7" font-family="Times,serif" font-size="14.00" fill="#000000">0x0</text>
</g>
<!-- node0x106e01c00&#45;&gt;node0x106e01bd0 -->
<g id="edge8" class="edge">
<title>node0x106e01c00:left&#45;&gt;node0x106e01bd0</title>
<path fill="none" stroke="#187ae8" stroke-width="2" d="M668.75,-304C668.75,-290.42 667.01,-276.01 664.56,-262.45"/>
<polygon fill="#187ae8" stroke="#187ae8" stroke-width="2" points="668.31,-263.4 662.94,-254.27 661.44,-264.76 668.31,-263.4"/>
<text text-anchor="middle" x="675.57" y="-272.7" font-family="Times,serif" font-size="14.00">Да</text>
</g>
</g>
</svg>
