<?xml version="1.0" encoding="UTF-8" standalone="no"?>
<!DOCTYPE svg PUBLIC "-//W3C//DTD SVG 1.1//EN"
 "http://www.w3.org/Graphics/SVG/1.1/DTD/svg11.dtd">
<!-- Generated by graphviz version 12.2.0 (20241103.1931)
 -->
<!-- Pages: 1 -->
<svg width="964pt" height="868pt"
 viewBox="0.00 0.00 964.38 867.50" xmlns="http://www.w3.org/2000/svg" xmlns:xlink="http://www.w3.org/1999/xlink">
<g id="graph0" class="graph" transform="scale(1 1) rotate(0) translate(4 863.5)">
<polygon fill="#dcdcdc" stroke="none" points="-4,4 -4,-863.5 960.38,-863.5 960.38,4 -4,4"/>
<!-- node0x106e01e40 -->
<g id="node1" class="node">
<title>node0x106e01e40</title>
<path fill="#fbee21" stroke="#d3c70d" d="M118,-760.5C118,-760.5 343.75,-760.5 343.75,-760.5 349.75,-760.5 355.75,-766.5 355.75,-772.5 355.75,-772.5 355.75,-847 355.75,-847 355.75,-853 349.75,-859 343.75,-859 343.75,-859 118,-859 118,-859 112,-859 106,-853 106,-847 106,-847 106,-772.5 106,-772.5 106,-766.5 112,-760.5 118,-760.5"/>
<text text-anchor="middle" x="230.88" y="-841.7" font-family="Times,serif" font-size="14.00" fill="#000000">Animal</text>
<text text-anchor="middle" x="230.88" y="-825.2" font-family="Times,serif" font-size="14.00" fill="#000000">0x106e01e40</text>
<polyline fill="none" stroke="#d3c70d" points="106,-818 355.75,-818"/>
<text text-anchor="middle" x="150.38" y="-800.7" font-family="Times,serif" font-size="14.00" fill="#000000">Left</text>
<text text-anchor="middle" x="150.38" y="-784.2" font-family="Times,serif" font-size="14.00" fill="#000000">Poltorashka</text>
<text text-anchor="middle" x="150.38" y="-767.7" font-family="Times,serif" font-size="14.00" fill="#000000">0x106e01e10</text>
<polyline fill="none" stroke="#d3c70d" points="194.75,-760.5 194.75,-818"/>
<text text-anchor="middle" x="221.5" y="-800.7" font-family="Times,serif" font-size="14.00" fill="#000000">Parent</text>
<text text-anchor="middle" x="221.5" y="-784.2" font-family="Times,serif" font-size="14.00" fill="#000000">NONE</text>
<text text-anchor="middle" x="221.5" y="-767.7" font-family="Times,serif" font-size="14.00" fill="#000000">0x0</text>
<polyline fill="none" stroke="#d3c70d" points="248.25,-760.5 248.25,-818"/>
<text text-anchor="middle" x="302" y="-800.7" font-family="Times,serif" font-size="14.00" fill="#000000">Right</text>
<text text-anchor="middle" x="302" y="-784.2" font-family="Times,serif" font-size="14.00" fill="#000000">Teaches analisys</text>
<text text-anchor="middle" x="302" y="-767.7" font-family="Times,serif" font-size="14.00" fill="#000000">0x106e01de0</text>
</g>
<!-- node0x106e01e10 -->
<g id="node2" class="node">
<title>node0x106e01e10</title>
<path fill="#d5cfe1" stroke="#8797b2" d="M12,-608.5C12,-608.5 183.75,-608.5 183.75,-608.5 189.75,-608.5 195.75,-614.5 195.75,-620.5 195.75,-620.5 195.75,-695 195.75,-695 195.75,-701 189.75,-707 183.75,-707 183.75,-707 12,-707 12,-707 6,-707 0,-701 0,-695 0,-695 0,-620.5 0,-620.5 0,-614.5 6,-608.5 12,-608.5"/>
<text text-anchor="middle" x="97.88" y="-689.7" font-family="Times,serif" font-size="14.00" fill="#000000">Poltorashka</text>
<text text-anchor="middle" x="97.88" y="-673.2" font-family="Times,serif" font-size="14.00" fill="#000000">0x106e01e10</text>
<polyline fill="none" stroke="#8797b2" points="0,-666 195.75,-666"/>
<text text-anchor="middle" x="26.75" y="-648.7" font-family="Times,serif" font-size="14.00" fill="#000000">Left</text>
<text text-anchor="middle" x="26.75" y="-632.2" font-family="Times,serif" font-size="14.00" fill="#000000">NONE</text>
<text text-anchor="middle" x="26.75" y="-615.7" font-family="Times,serif" font-size="14.00" fill="#000000">0x0</text>
<polyline fill="none" stroke="#8797b2" points="53.5,-608.5 53.5,-666"/>
<text text-anchor="middle" x="97.88" y="-648.7" font-family="Times,serif" font-size="14.00" fill="#000000">Parent</text>
<text text-anchor="middle" x="97.88" y="-632.2" font-family="Times,serif" font-size="14.00" fill="#000000">Animal</text>
<text text-anchor="middle" x="97.88" y="-615.7" font-family="Times,serif" font-size="14.00" fill="#000000">0x106e01e40</text>
<polyline fill="none" stroke="#8797b2" points="142.25,-608.5 142.25,-666"/>
<text text-anchor="middle" x="169" y="-648.7" font-family="Times,serif" font-size="14.00" fill="#000000">Right</text>
<text text-anchor="middle" x="169" y="-632.2" font-family="Times,serif" font-size="14.00" fill="#000000">NONE</text>
<text text-anchor="middle" x="169" y="-615.7" font-family="Times,serif" font-size="14.00" fill="#000000">0x0</text>
</g>
<!-- node0x106e01e40&#45;&gt;node0x106e01e10 -->
<g id="edge1" class="edge">
<title>node0x106e01e40:left&#45;&gt;node0x106e01e10</title>
<path fill="none" stroke="#187ae8" stroke-width="2" d="M105,-789.25C74.29,-789.25 74.06,-752.77 80.67,-718.38"/>
<polygon fill="#187ae8" stroke="#187ae8" stroke-width="2" points="83.73,-720.81 82.39,-710.3 76.88,-719.35 83.73,-720.81"/>
<text text-anchor="middle" x="86.91" y="-728.7" font-family="Times,serif" font-size="14.00">Да</text>
</g>
<!-- node0x106e01de0 -->
<g id="node4" class="node">
<title>node0x106e01de0</title>
<path fill="#bdef9e" stroke="#99c2a2" d="M225.5,-608.5C225.5,-608.5 484.25,-608.5 484.25,-608.5 490.25,-608.5 496.25,-614.5 496.25,-620.5 496.25,-620.5 496.25,-695 496.25,-695 496.25,-701 490.25,-707 484.25,-707 484.25,-707 225.5,-707 225.5,-707 219.5,-707 213.5,-701 213.5,-695 213.5,-695 213.5,-620.5 213.5,-620.5 213.5,-614.5 219.5,-608.5 225.5,-608.5"/>
<text text-anchor="middle" x="354.88" y="-689.7" font-family="Times,serif" font-size="14.00" fill="#000000">Teaches analisys</text>
<text text-anchor="middle" x="354.88" y="-673.2" font-family="Times,serif" font-size="14.00" fill="#000000">0x106e01de0</text>
<polyline fill="none" stroke="#99c2a2" points="213.5,-666 496.25,-666"/>
<text text-anchor="middle" x="258.25" y="-648.7" font-family="Times,serif" font-size="14.00" fill="#000000">Left</text>
<text text-anchor="middle" x="258.25" y="-632.2" font-family="Times,serif" font-size="14.00" fill="#000000">Burtsev</text>
<text text-anchor="middle" x="258.25" y="-615.7" font-family="Times,serif" font-size="14.00" fill="#000000">0x106e01d80</text>
<polyline fill="none" stroke="#99c2a2" points="303,-608.5 303,-666"/>
<text text-anchor="middle" x="347.38" y="-648.7" font-family="Times,serif" font-size="14.00" fill="#000000">Parent</text>
<text text-anchor="middle" x="347.38" y="-632.2" font-family="Times,serif" font-size="14.00" fill="#000000">Animal</text>
<text text-anchor="middle" x="347.38" y="-615.7" font-family="Times,serif" font-size="14.00" fill="#000000">0x106e01e40</text>
<polyline fill="none" stroke="#99c2a2" points="391.75,-608.5 391.75,-666"/>
<text text-anchor="middle" x="444" y="-648.7" font-family="Times,serif" font-size="14.00" fill="#000000">Right</text>
<text text-anchor="middle" x="444" y="-632.2" font-family="Times,serif" font-size="14.00" fill="#000000">Teaches physics</text>
<text text-anchor="middle" x="444" y="-615.7" font-family="Times,serif" font-size="14.00" fill="#000000">0x106e01d50</text>
</g>
<!-- node0x106e01e40&#45;&gt;node0x106e01de0 -->
<g id="edge11" class="edge">
<title>node0x106e01e40:right&#45;&gt;node0x106e01de0</title>
<path fill="none" stroke="#48e818" stroke-width="2" d="M302,-760C302,-745.38 306.38,-730.79 312.63,-717.42"/>
<polygon fill="#48e818" stroke="#48e818" stroke-width="2" points="314.91,-720.64 316.34,-710.14 308.68,-717.46 314.91,-720.64"/>
<text text-anchor="middle" x="319.43" y="-728.7" font-family="Times,serif" font-size="14.00">Нет</text>
</g>
<!-- node0x106e01c00 -->
<g id="node3" class="node">
<title>node0x106e01c00</title>
<path fill="#f18805" stroke="#af3800" d="M672,-0.5C672,-0.5 843.75,-0.5 843.75,-0.5 849.75,-0.5 855.75,-6.5 855.75,-12.5 855.75,-12.5 855.75,-87 855.75,-87 855.75,-93 849.75,-99 843.75,-99 843.75,-99 672,-99 672,-99 666,-99 660,-93 660,-87 660,-87 660,-12.5 660,-12.5 660,-6.5 666,-0.5 672,-0.5"/>
<text text-anchor="middle" x="757.88" y="-81.7" font-family="Times,serif" font-size="14.00" fill="#000000">Coach</text>
<text text-anchor="middle" x="757.88" y="-65.2" font-family="Times,serif" font-size="14.00" fill="#000000">0x106e01c00</text>
<polyline fill="none" stroke="#af3800" points="660,-58 855.75,-58"/>
<text text-anchor="middle" x="686.75" y="-40.7" font-family="Times,serif" font-size="14.00" fill="#000000">Left</text>
<text text-anchor="middle" x="686.75" y="-24.2" font-family="Times,serif" font-size="14.00" fill="#000000">NONE</text>
<text text-anchor="middle" x="686.75" y="-7.7" font-family="Times,serif" font-size="14.00" fill="#000000">0x0</text>
<polyline fill="none" stroke="#af3800" points="713.5,-0.5 713.5,-58"/>
<text text-anchor="middle" x="757.88" y="-40.7" font-family="Times,serif" font-size="14.00" fill="#000000">Parent</text>
<text text-anchor="middle" x="757.88" y="-24.2" font-family="Times,serif" font-size="14.00" fill="#000000">Do sport</text>
<text text-anchor="middle" x="757.88" y="-7.7" font-family="Times,serif" font-size="14.00" fill="#000000">0x106e01c30</text>
<polyline fill="none" stroke="#af3800" points="802.25,-0.5 802.25,-58"/>
<text text-anchor="middle" x="829" y="-40.7" font-family="Times,serif" font-size="14.00" fill="#000000">Right</text>
<text text-anchor="middle" x="829" y="-24.2" font-family="Times,serif" font-size="14.00" fill="#000000">NONE</text>
<text text-anchor="middle" x="829" y="-7.7" font-family="Times,serif" font-size="14.00" fill="#000000">0x0</text>
</g>
<!-- node0x106e01d80 -->
<g id="node5" class="node">
<title>node0x106e01d80</title>
<path fill="#d5cfe1" stroke="#8797b2" d="M141.62,-456.5C141.62,-456.5 332.12,-456.5 332.12,-456.5 338.12,-456.5 344.12,-462.5 344.12,-468.5 344.12,-468.5 344.12,-543 344.12,-543 344.12,-549 338.12,-555 332.12,-555 332.12,-555 141.62,-555 141.62,-555 135.62,-555 129.62,-549 129.62,-543 129.62,-543 129.62,-468.5 129.62,-468.5 129.62,-462.5 135.62,-456.5 141.62,-456.5"/>
<text text-anchor="middle" x="236.88" y="-537.7" font-family="Times,serif" font-size="14.00" fill="#000000">Burtsev</text>
<text text-anchor="middle" x="236.88" y="-521.2" font-family="Times,serif" font-size="14.00" fill="#000000">0x106e01d80</text>
<polyline fill="none" stroke="#8797b2" points="129.62,-514 344.12,-514"/>
<text text-anchor="middle" x="156.38" y="-496.7" font-family="Times,serif" font-size="14.00" fill="#000000">Left</text>
<text text-anchor="middle" x="156.38" y="-480.2" font-family="Times,serif" font-size="14.00" fill="#000000">NONE</text>
<text text-anchor="middle" x="156.38" y="-463.7" font-family="Times,serif" font-size="14.00" fill="#000000">0x0</text>
<polyline fill="none" stroke="#8797b2" points="183.12,-456.5 183.12,-514"/>
<text text-anchor="middle" x="236.88" y="-496.7" font-family="Times,serif" font-size="14.00" fill="#000000">Parent</text>
<text text-anchor="middle" x="236.88" y="-480.2" font-family="Times,serif" font-size="14.00" fill="#000000">Teaches analisys</text>
<text text-anchor="middle" x="236.88" y="-463.7" font-family="Times,serif" font-size="14.00" fill="#000000">0x106e01de0</text>
<polyline fill="none" stroke="#8797b2" points="290.62,-456.5 290.62,-514"/>
<text text-anchor="middle" x="317.38" y="-496.7" font-family="Times,serif" font-size="14.00" fill="#000000">Right</text>
<text text-anchor="middle" x="317.38" y="-480.2" font-family="Times,serif" font-size="14.00" fill="#000000">NONE</text>
<text text-anchor="middle" x="317.38" y="-463.7" font-family="Times,serif" font-size="14.00" fill="#000000">0x0</text>
</g>
<!-- node0x106e01de0&#45;&gt;node0x106e01d80 -->
<g id="edge2" class="edge">
<title>node0x106e01de0:left&#45;&gt;node0x106e01d80</title>
<path fill="none" stroke="#187ae8" stroke-width="2" d="M258.25,-608C258.25,-594.46 256.4,-580.11 253.78,-566.6"/>
<polygon fill="#187ae8" stroke="#187ae8" stroke-width="2" points="257.55,-567.52 252.06,-558.46 250.7,-568.97 257.55,-567.52"/>
<text text-anchor="middle" x="264.99" y="-576.7" font-family="Times,serif" font-size="14.00">Да</text>
</g>
<!-- node0x106e01d50 -->
<g id="node6" class="node">
<title>node0x106e01d50</title>
<path fill="#bdef9e" stroke="#99c2a2" d="M374,-456.5C374,-456.5 647.75,-456.5 647.75,-456.5 653.75,-456.5 659.75,-462.5 659.75,-468.5 659.75,-468.5 659.75,-543 659.75,-543 659.75,-549 653.75,-555 647.75,-555 647.75,-555 374,-555 374,-555 368,-555 362,-549 362,-543 362,-543 362,-468.5 362,-468.5 362,-462.5 368,-456.5 374,-456.5"/>
<text text-anchor="middle" x="510.88" y="-537.7" font-family="Times,serif" font-size="14.00" fill="#000000">Teaches physics</text>
<text text-anchor="middle" x="510.88" y="-521.2" font-family="Times,serif" font-size="14.00" fill="#000000">0x106e01d50</text>
<polyline fill="none" stroke="#99c2a2" points="362,-514 659.75,-514"/>
<text text-anchor="middle" x="406.75" y="-496.7" font-family="Times,serif" font-size="14.00" fill="#000000">Left</text>
<text text-anchor="middle" x="406.75" y="-480.2" font-family="Times,serif" font-size="14.00" fill="#000000">Nefor</text>
<text text-anchor="middle" x="406.75" y="-463.7" font-family="Times,serif" font-size="14.00" fill="#000000">0x106e01d20</text>
<polyline fill="none" stroke="#99c2a2" points="451.5,-456.5 451.5,-514"/>
<text text-anchor="middle" x="505.25" y="-496.7" font-family="Times,serif" font-size="14.00" fill="#000000">Parent</text>
<text text-anchor="middle" x="505.25" y="-480.2" font-family="Times,serif" font-size="14.00" fill="#000000">Teaches analisys</text>
<text text-anchor="middle" x="505.25" y="-463.7" font-family="Times,serif" font-size="14.00" fill="#000000">0x106e01de0</text>
<polyline fill="none" stroke="#99c2a2" points="559,-456.5 559,-514"/>
<text text-anchor="middle" x="609.38" y="-496.7" font-family="Times,serif" font-size="14.00" fill="#000000">Right</text>
<text text-anchor="middle" x="609.38" y="-480.2" font-family="Times,serif" font-size="14.00" fill="#000000">Teaches angem</text>
<text text-anchor="middle" x="609.38" y="-463.7" font-family="Times,serif" font-size="14.00" fill="#000000">0x106e01c90</text>
</g>
<!-- node0x106e01de0&#45;&gt;node0x106e01d50 -->
<g id="edge10" class="edge">
<title>node0x106e01de0:right&#45;&gt;node0x106e01d50</title>
<path fill="none" stroke="#48e818" stroke-width="2" d="M444,-608C444,-592.74 449.35,-578.02 457.03,-564.74"/>
<polygon fill="#48e818" stroke="#48e818" stroke-width="2" points="458.97,-568.22 461.36,-557.9 453.05,-564.47 458.97,-568.22"/>
<text text-anchor="middle" x="463.16" y="-576.7" font-family="Times,serif" font-size="14.00">Нет</text>
</g>
<!-- node0x106e01d20 -->
<g id="node7" class="node">
<title>node0x106e01d20</title>
<path fill="#d5cfe1" stroke="#8797b2" d="M149.38,-304.5C149.38,-304.5 404.38,-304.5 404.38,-304.5 410.38,-304.5 416.38,-310.5 416.38,-316.5 416.38,-316.5 416.38,-391 416.38,-391 416.38,-397 410.38,-403 404.38,-403 404.38,-403 149.38,-403 149.38,-403 143.38,-403 137.38,-397 137.38,-391 137.38,-391 137.38,-316.5 137.38,-316.5 137.38,-310.5 143.38,-304.5 149.38,-304.5"/>
<text text-anchor="middle" x="276.88" y="-385.7" font-family="Times,serif" font-size="14.00" fill="#000000">Nefor</text>
<text text-anchor="middle" x="276.88" y="-369.2" font-family="Times,serif" font-size="14.00" fill="#000000">0x106e01d20</text>
<polyline fill="none" stroke="#8797b2" points="137.38,-362 416.38,-362"/>
<text text-anchor="middle" x="180.62" y="-344.7" font-family="Times,serif" font-size="14.00" fill="#000000">Left</text>
<text text-anchor="middle" x="180.62" y="-328.2" font-family="Times,serif" font-size="14.00" fill="#000000">Magic</text>
<text text-anchor="middle" x="180.62" y="-311.7" font-family="Times,serif" font-size="14.00" fill="#000000">0x106e01cf0</text>
<polyline fill="none" stroke="#8797b2" points="223.88,-304.5 223.88,-362"/>
<text text-anchor="middle" x="276.12" y="-344.7" font-family="Times,serif" font-size="14.00" fill="#000000">Parent</text>
<text text-anchor="middle" x="276.12" y="-328.2" font-family="Times,serif" font-size="14.00" fill="#000000">Teaches physics</text>
<text text-anchor="middle" x="276.12" y="-311.7" font-family="Times,serif" font-size="14.00" fill="#000000">0x106e01d50</text>
<polyline fill="none" stroke="#8797b2" points="328.38,-304.5 328.38,-362"/>
<text text-anchor="middle" x="372.38" y="-344.7" font-family="Times,serif" font-size="14.00" fill="#000000">Right</text>
<text text-anchor="middle" x="372.38" y="-328.2" font-family="Times,serif" font-size="14.00" fill="#000000">Ovchos</text>
<text text-anchor="middle" x="372.38" y="-311.7" font-family="Times,serif" font-size="14.00" fill="#000000">0x106e01cc0</text>
</g>
<!-- node0x106e01d50&#45;&gt;node0x106e01d20 -->
<g id="edge3" class="edge">
<title>node0x106e01d50:left&#45;&gt;node0x106e01d20</title>
<path fill="none" stroke="#187ae8" stroke-width="2" d="M406.75,-456C406.75,-438.64 399.45,-423.83 388.31,-411.32"/>
<polygon fill="#187ae8" stroke="#187ae8" stroke-width="2" points="392.13,-410.21 382.6,-405.58 387.17,-415.14 392.13,-410.21"/>
<text text-anchor="middle" x="410.99" y="-424.7" font-family="Times,serif" font-size="14.00">Да</text>
</g>
<!-- node0x106e01c90 -->
<g id="node10" class="node">
<title>node0x106e01c90</title>
<path fill="#bdef9e" stroke="#99c2a2" d="M558.88,-304.5C558.88,-304.5 816.88,-304.5 816.88,-304.5 822.88,-304.5 828.88,-310.5 828.88,-316.5 828.88,-316.5 828.88,-391 828.88,-391 828.88,-397 822.88,-403 816.88,-403 816.88,-403 558.88,-403 558.88,-403 552.88,-403 546.88,-397 546.88,-391 546.88,-391 546.88,-316.5 546.88,-316.5 546.88,-310.5 552.88,-304.5 558.88,-304.5"/>
<text text-anchor="middle" x="687.88" y="-385.7" font-family="Times,serif" font-size="14.00" fill="#000000">Teaches angem</text>
<text text-anchor="middle" x="687.88" y="-369.2" font-family="Times,serif" font-size="14.00" fill="#000000">0x106e01c90</text>
<polyline fill="none" stroke="#99c2a2" points="546.88,-362 828.88,-362"/>
<text text-anchor="middle" x="591.25" y="-344.7" font-family="Times,serif" font-size="14.00" fill="#000000">Left</text>
<text text-anchor="middle" x="591.25" y="-328.2" font-family="Times,serif" font-size="14.00" fill="#000000">Chubarik</text>
<text text-anchor="middle" x="591.25" y="-311.7" font-family="Times,serif" font-size="14.00" fill="#000000">0x106e01c60</text>
<polyline fill="none" stroke="#99c2a2" points="635.62,-304.5 635.62,-362"/>
<text text-anchor="middle" x="687.88" y="-344.7" font-family="Times,serif" font-size="14.00" fill="#000000">Parent</text>
<text text-anchor="middle" x="687.88" y="-328.2" font-family="Times,serif" font-size="14.00" fill="#000000">Teaches physics</text>
<text text-anchor="middle" x="687.88" y="-311.7" font-family="Times,serif" font-size="14.00" fill="#000000">0x106e01d50</text>
<polyline fill="none" stroke="#99c2a2" points="740.12,-304.5 740.12,-362"/>
<text text-anchor="middle" x="784.5" y="-344.7" font-family="Times,serif" font-size="14.00" fill="#000000">Right</text>
<text text-anchor="middle" x="784.5" y="-328.2" font-family="Times,serif" font-size="14.00" fill="#000000">Do sport</text>
<text text-anchor="middle" x="784.5" y="-311.7" font-family="Times,serif" font-size="14.00" fill="#000000">0x106e01c30</text>
</g>
<!-- node0x106e01d50&#45;&gt;node0x106e01c90 -->
<g id="edge9" class="edge">
<title>node0x106e01d50:right&#45;&gt;node0x106e01c90</title>
<path fill="none" stroke="#48e818" stroke-width="2" d="M660.75,-485.25C691.94,-485.25 697.8,-449.08 696.37,-414.83"/>
<polygon fill="#48e818" stroke="#48e818" stroke-width="2" points="699.96,-416.12 695.82,-406.36 692.97,-416.57 699.96,-416.12"/>
<text text-anchor="middle" x="707.44" y="-424.7" font-family="Times,serif" font-size="14.00">Нет</text>
</g>
<!-- node0x106e01cf0 -->
<g id="node8" class="node">
<title>node0x106e01cf0</title>
<path fill="#d5cfe1" stroke="#8797b2" d="M70.62,-152.5C70.62,-152.5 243.12,-152.5 243.12,-152.5 249.12,-152.5 255.12,-158.5 255.12,-164.5 255.12,-164.5 255.12,-239 255.12,-239 255.12,-245 249.12,-251 243.12,-251 243.12,-251 70.62,-251 70.62,-251 64.63,-251 58.62,-245 58.62,-239 58.62,-239 58.62,-164.5 58.62,-164.5 58.62,-158.5 64.62,-152.5 70.62,-152.5"/>
<text text-anchor="middle" x="156.88" y="-233.7" font-family="Times,serif" font-size="14.00" fill="#000000">Magic</text>
<text text-anchor="middle" x="156.88" y="-217.2" font-family="Times,serif" font-size="14.00" fill="#000000">0x106e01cf0</text>
<polyline fill="none" stroke="#8797b2" points="58.62,-210 255.12,-210"/>
<text text-anchor="middle" x="85.38" y="-192.7" font-family="Times,serif" font-size="14.00" fill="#000000">Left</text>
<text text-anchor="middle" x="85.38" y="-176.2" font-family="Times,serif" font-size="14.00" fill="#000000">NONE</text>
<text text-anchor="middle" x="85.38" y="-159.7" font-family="Times,serif" font-size="14.00" fill="#000000">0x0</text>
<polyline fill="none" stroke="#8797b2" points="112.12,-152.5 112.12,-210"/>
<text text-anchor="middle" x="156.88" y="-192.7" font-family="Times,serif" font-size="14.00" fill="#000000">Parent</text>
<text text-anchor="middle" x="156.88" y="-176.2" font-family="Times,serif" font-size="14.00" fill="#000000">Nefor</text>
<text text-anchor="middle" x="156.88" y="-159.7" font-family="Times,serif" font-size="14.00" fill="#000000">0x106e01d20</text>
<polyline fill="none" stroke="#8797b2" points="201.62,-152.5 201.62,-210"/>
<text text-anchor="middle" x="228.38" y="-192.7" font-family="Times,serif" font-size="14.00" fill="#000000">Right</text>
<text text-anchor="middle" x="228.38" y="-176.2" font-family="Times,serif" font-size="14.00" fill="#000000">NONE</text>
<text text-anchor="middle" x="228.38" y="-159.7" font-family="Times,serif" font-size="14.00" fill="#000000">0x0</text>
</g>
<!-- node0x106e01d20&#45;&gt;node0x106e01cf0 -->
<g id="edge4" class="edge">
<title>node0x106e01d20:left&#45;&gt;node0x106e01cf0</title>
<path fill="none" stroke="#187ae8" stroke-width="2" d="M180.62,-304C180.62,-290.39 178.57,-276.01 175.66,-262.5"/>
<polygon fill="#187ae8" stroke="#187ae8" stroke-width="2" points="179.44,-263.27 173.74,-254.34 172.62,-264.88 179.44,-263.27"/>
<text text-anchor="middle" x="187.23" y="-272.7" font-family="Times,serif" font-size="14.00">Да</text>
</g>
<!-- node0x106e01cc0 -->
<g id="node9" class="node">
<title>node0x106e01cc0</title>
<path fill="#bdef9e" stroke="#99c2a2" d="M285.62,-152.5C285.62,-152.5 458.12,-152.5 458.12,-152.5 464.12,-152.5 470.12,-158.5 470.12,-164.5 470.12,-164.5 470.12,-239 470.12,-239 470.12,-245 464.12,-251 458.12,-251 458.12,-251 285.62,-251 285.62,-251 279.62,-251 273.62,-245 273.62,-239 273.62,-239 273.62,-164.5 273.62,-164.5 273.62,-158.5 279.62,-152.5 285.62,-152.5"/>
<text text-anchor="middle" x="371.88" y="-233.7" font-family="Times,serif" font-size="14.00" fill="#000000">Ovchos</text>
<text text-anchor="middle" x="371.88" y="-217.2" font-family="Times,serif" font-size="14.00" fill="#000000">0x106e01cc0</text>
<polyline fill="none" stroke="#99c2a2" points="273.62,-210 470.12,-210"/>
<text text-anchor="middle" x="300.38" y="-192.7" font-family="Times,serif" font-size="14.00" fill="#000000">Left</text>
<text text-anchor="middle" x="300.38" y="-176.2" font-family="Times,serif" font-size="14.00" fill="#000000">NONE</text>
<text text-anchor="middle" x="300.38" y="-159.7" font-family="Times,serif" font-size="14.00" fill="#000000">0x0</text>
<polyline fill="none" stroke="#99c2a2" points="327.12,-152.5 327.12,-210"/>
<text text-anchor="middle" x="371.88" y="-192.7" font-family="Times,serif" font-size="14.00" fill="#000000">Parent</text>
<text text-anchor="middle" x="371.88" y="-176.2" font-family="Times,serif" font-size="14.00" fill="#000000">Nefor</text>
<text text-anchor="middle" x="371.88" y="-159.7" font-family="Times,serif" font-size="14.00" fill="#000000">0x106e01d20</text>
<polyline fill="none" stroke="#99c2a2" points="416.62,-152.5 416.62,-210"/>
<text text-anchor="middle" x="443.38" y="-192.7" font-family="Times,serif" font-size="14.00" fill="#000000">Right</text>
<text text-anchor="middle" x="443.38" y="-176.2" font-family="Times,serif" font-size="14.00" fill="#000000">NONE</text>
<text text-anchor="middle" x="443.38" y="-159.7" font-family="Times,serif" font-size="14.00" fill="#000000">0x0</text>
</g>
<!-- node0x106e01d20&#45;&gt;node0x106e01cc0 -->
<g id="edge5" class="edge">
<title>node0x106e01d20:right&#45;&gt;node0x106e01cc0</title>
<path fill="none" stroke="#48e818" stroke-width="2" d="M372.38,-304C372.38,-290.61 372.33,-276.22 372.27,-262.62"/>
<polygon fill="#48e818" stroke="#48e818" stroke-width="2" points="375.78,-264.43 372.23,-254.44 368.78,-264.46 375.78,-264.43"/>
<text text-anchor="middle" x="383.22" y="-272.7" font-family="Times,serif" font-size="14.00">Нет</text>
</g>
<!-- node0x106e01c60 -->
<g id="node11" class="node">
<title>node0x106e01c60</title>
<path fill="#d5cfe1" stroke="#8797b2" d="M500,-152.5C500,-152.5 683.75,-152.5 683.75,-152.5 689.75,-152.5 695.75,-158.5 695.75,-164.5 695.75,-164.5 695.75,-239 695.75,-239 695.75,-245 689.75,-251 683.75,-251 683.75,-251 500,-251 500,-251 494,-251 488,-245 488,-239 488,-239 488,-164.5 488,-164.5 488,-158.5 494,-152.5 500,-152.5"/>
<text text-anchor="middle" x="591.88" y="-233.7" font-family="Times,serif" font-size="14.00" fill="#000000">Chubarik</text>
<text text-anchor="middle" x="591.88" y="-217.2" font-family="Times,serif" font-size="14.00" fill="#000000">0x106e01c60</text>
<polyline fill="none" stroke="#8797b2" points="488,-210 695.75,-210"/>
<text text-anchor="middle" x="514.75" y="-192.7" font-family="Times,serif" font-size="14.00" fill="#000000">Left</text>
<text text-anchor="middle" x="514.75" y="-176.2" font-family="Times,serif" font-size="14.00" fill="#000000">NONE</text>
<text text-anchor="middle" x="514.75" y="-159.7" font-family="Times,serif" font-size="14.00" fill="#000000">0x0</text>
<polyline fill="none" stroke="#8797b2" points="541.5,-152.5 541.5,-210"/>
<text text-anchor="middle" x="591.88" y="-192.7" font-family="Times,serif" font-size="14.00" fill="#000000">Parent</text>
<text text-anchor="middle" x="591.88" y="-176.2" font-family="Times,serif" font-size="14.00" fill="#000000">Teaches angem</text>
<text text-anchor="middle" x="591.88" y="-159.7" font-family="Times,serif" font-size="14.00" fill="#000000">0x106e01c90</text>
<polyline fill="none" stroke="#8797b2" points="642.25,-152.5 642.25,-210"/>
<text text-anchor="middle" x="669" y="-192.7" font-family="Times,serif" font-size="14.00" fill="#000000">Right</text>
<text text-anchor="middle" x="669" y="-176.2" font-family="Times,serif" font-size="14.00" fill="#000000">NONE</text>
<text text-anchor="middle" x="669" y="-159.7" font-family="Times,serif" font-size="14.00" fill="#000000">0x0</text>
</g>
<!-- node0x106e01c90&#45;&gt;node0x106e01c60 -->
<g id="edge6" class="edge">
<title>node0x106e01c90:left&#45;&gt;node0x106e01c60</title>
<path fill="none" stroke="#187ae8" stroke-width="2" d="M591.25,-304C591.25,-290.61 591.31,-276.22 591.38,-262.62"/>
<polygon fill="#187ae8" stroke="#187ae8" stroke-width="2" points="594.87,-264.47 591.43,-254.44 587.87,-264.42 594.87,-264.47"/>
<text text-anchor="middle" x="599.22" y="-272.7" font-family="Times,serif" font-size="14.00">Да</text>
</g>
<!-- node0x106e01c30 -->
<g id="node12" class="node">
<title>node0x106e01c30</title>
<path fill="#bdef9e" stroke="#99c2a2" d="M725.38,-152.5C725.38,-152.5 944.38,-152.5 944.38,-152.5 950.38,-152.5 956.38,-158.5 956.38,-164.5 956.38,-164.5 956.38,-239 956.38,-239 956.38,-245 950.38,-251 944.38,-251 944.38,-251 725.38,-251 725.38,-251 719.38,-251 713.38,-245 713.38,-239 713.38,-239 713.38,-164.5 713.38,-164.5 713.38,-158.5 719.38,-152.5 725.38,-152.5"/>
<text text-anchor="middle" x="834.88" y="-233.7" font-family="Times,serif" font-size="14.00" fill="#000000">Do sport</text>
<text text-anchor="middle" x="834.88" y="-217.2" font-family="Times,serif" font-size="14.00" fill="#000000">0x106e01c30</text>
<polyline fill="none" stroke="#99c2a2" points="713.38,-210 956.38,-210"/>
<text text-anchor="middle" x="757.75" y="-192.7" font-family="Times,serif" font-size="14.00" fill="#000000">Left</text>
<text text-anchor="middle" x="757.75" y="-176.2" font-family="Times,serif" font-size="14.00" fill="#000000">Coach</text>
<text text-anchor="middle" x="757.75" y="-159.7" font-family="Times,serif" font-size="14.00" fill="#000000">0x106e01c00</text>
<polyline fill="none" stroke="#99c2a2" points="802.12,-152.5 802.12,-210"/>
<text text-anchor="middle" x="852.5" y="-192.7" font-family="Times,serif" font-size="14.00" fill="#000000">Parent</text>
<text text-anchor="middle" x="852.5" y="-176.2" font-family="Times,serif" font-size="14.00" fill="#000000">Teaches angem</text>
<text text-anchor="middle" x="852.5" y="-159.7" font-family="Times,serif" font-size="14.00" fill="#000000">0x106e01c90</text>
<polyline fill="none" stroke="#99c2a2" points="902.88,-152.5 902.88,-210"/>
<text text-anchor="middle" x="929.62" y="-192.7" font-family="Times,serif" font-size="14.00" fill="#000000">Right</text>
<text text-anchor="middle" x="929.62" y="-176.2" font-family="Times,serif" font-size="14.00" fill="#000000">NONE</text>
<text text-anchor="middle" x="929.62" y="-159.7" font-family="Times,serif" font-size="14.00" fill="#000000">0x0</text>
</g>
<!-- node0x106e01c90&#45;&gt;node0x106e01c30 -->
<g id="edge8" class="edge">
<title>node0x106e01c90:right&#45;&gt;node0x106e01c30</title>
<path fill="none" stroke="#48e818" stroke-width="2" d="M784.5,-304C784.5,-289.45 788.72,-274.84 794.72,-261.42"/>
<polygon fill="#48e818" stroke="#48e818" stroke-width="2" points="797.04,-264.65 798.28,-254.13 790.75,-261.58 797.04,-264.65"/>
<text text-anchor="middle" x="801.62" y="-272.7" font-family="Times,serif" font-size="14.00">Нет</text>
</g>
<!-- node0x106e01c30&#45;&gt;node0x106e01c00 -->
<g id="edge7" class="edge">
<title>node0x106e01c30:left&#45;&gt;node0x106e01c00</title>
<path fill="none" stroke="#187ae8" stroke-width="2" d="M757.75,-152C757.75,-138.61 757.76,-124.22 757.78,-110.62"/>
<polygon fill="#187ae8" stroke="#187ae8" stroke-width="2" points="761.27,-112.45 757.79,-102.44 754.27,-112.44 761.27,-112.45"/>
<text text-anchor="middle" x="765.64" y="-120.7" font-family="Times,serif" font-size="14.00">Да</text>
</g>
</g>
</svg>
