<?xml version="1.0" encoding="UTF-8" standalone="no"?>
<!DOCTYPE svg PUBLIC "-//W3C//DTD SVG 1.1//EN"
 "http://www.w3.org/Graphics/SVG/1.1/DTD/svg11.dtd">
<!-- Generated by graphviz version 12.2.0 (20241103.1931)
 -->
<!-- Pages: 1 -->
<svg width="1108pt" height="1172pt"
 viewBox="0.00 0.00 1107.88 1171.50" xmlns="http://www.w3.org/2000/svg" xmlns:xlink="http://www.w3.org/1999/xlink">
<g id="graph0" class="graph" transform="scale(1 1) rotate(0) translate(4 1167.5)">
<polygon fill="#dcdcdc" stroke="none" points="-4,4 -4,-1167.5 1103.88,-1167.5 1103.88,4 -4,4"/>
<!-- node0x105301e40 -->
<g id="node1" class="node">
<title>node0x105301e40</title>
<path fill="#fbee21" stroke="#d3c70d" d="M118,-1064.5C118,-1064.5 344.5,-1064.5 344.5,-1064.5 350.5,-1064.5 356.5,-1070.5 356.5,-1076.5 356.5,-1076.5 356.5,-1151 356.5,-1151 356.5,-1157 350.5,-1163 344.5,-1163 344.5,-1163 118,-1163 118,-1163 112,-1163 106,-1157 106,-1151 106,-1151 106,-1076.5 106,-1076.5 106,-1070.5 112,-1064.5 118,-1064.5"/>
<text text-anchor="middle" x="231.25" y="-1145.7" font-family="Times,serif" font-size="14.00" fill="#000000">Animal</text>
<text text-anchor="middle" x="231.25" y="-1129.2" font-family="Times,serif" font-size="14.00" fill="#000000">0x105301e40</text>
<polyline fill="none" stroke="#d3c70d" points="106,-1122 356.5,-1122"/>
<text text-anchor="middle" x="150.75" y="-1104.7" font-family="Times,serif" font-size="14.00" fill="#000000">Left</text>
<text text-anchor="middle" x="150.75" y="-1088.2" font-family="Times,serif" font-size="14.00" fill="#000000">Poltorashka</text>
<text text-anchor="middle" x="150.75" y="-1071.7" font-family="Times,serif" font-size="14.00" fill="#000000">0x105301e10</text>
<polyline fill="none" stroke="#d3c70d" points="195.5,-1064.5 195.5,-1122"/>
<text text-anchor="middle" x="222.25" y="-1104.7" font-family="Times,serif" font-size="14.00" fill="#000000">Parent</text>
<text text-anchor="middle" x="222.25" y="-1088.2" font-family="Times,serif" font-size="14.00" fill="#000000">NONE</text>
<text text-anchor="middle" x="222.25" y="-1071.7" font-family="Times,serif" font-size="14.00" fill="#000000">0x0</text>
<polyline fill="none" stroke="#d3c70d" points="249,-1064.5 249,-1122"/>
<text text-anchor="middle" x="302.75" y="-1104.7" font-family="Times,serif" font-size="14.00" fill="#000000">Right</text>
<text text-anchor="middle" x="302.75" y="-1088.2" font-family="Times,serif" font-size="14.00" fill="#000000">Teaches analisys</text>
<text text-anchor="middle" x="302.75" y="-1071.7" font-family="Times,serif" font-size="14.00" fill="#000000">0x105301de0</text>
</g>
<!-- node0x105301e10 -->
<g id="node2" class="node">
<title>node0x105301e10</title>
<path fill="#d5cfe1" stroke="#8797b2" d="M12,-912.5C12,-912.5 184.5,-912.5 184.5,-912.5 190.5,-912.5 196.5,-918.5 196.5,-924.5 196.5,-924.5 196.5,-999 196.5,-999 196.5,-1005 190.5,-1011 184.5,-1011 184.5,-1011 12,-1011 12,-1011 6,-1011 0,-1005 0,-999 0,-999 0,-924.5 0,-924.5 0,-918.5 6,-912.5 12,-912.5"/>
<text text-anchor="middle" x="98.25" y="-993.7" font-family="Times,serif" font-size="14.00" fill="#000000">Poltorashka</text>
<text text-anchor="middle" x="98.25" y="-977.2" font-family="Times,serif" font-size="14.00" fill="#000000">0x105301e10</text>
<polyline fill="none" stroke="#8797b2" points="0,-970 196.5,-970"/>
<text text-anchor="middle" x="26.75" y="-952.7" font-family="Times,serif" font-size="14.00" fill="#000000">Left</text>
<text text-anchor="middle" x="26.75" y="-936.2" font-family="Times,serif" font-size="14.00" fill="#000000">NONE</text>
<text text-anchor="middle" x="26.75" y="-919.7" font-family="Times,serif" font-size="14.00" fill="#000000">0x0</text>
<polyline fill="none" stroke="#8797b2" points="53.5,-912.5 53.5,-970"/>
<text text-anchor="middle" x="98.25" y="-952.7" font-family="Times,serif" font-size="14.00" fill="#000000">Parent</text>
<text text-anchor="middle" x="98.25" y="-936.2" font-family="Times,serif" font-size="14.00" fill="#000000">Animal</text>
<text text-anchor="middle" x="98.25" y="-919.7" font-family="Times,serif" font-size="14.00" fill="#000000">0x105301e40</text>
<polyline fill="none" stroke="#8797b2" points="143,-912.5 143,-970"/>
<text text-anchor="middle" x="169.75" y="-952.7" font-family="Times,serif" font-size="14.00" fill="#000000">Right</text>
<text text-anchor="middle" x="169.75" y="-936.2" font-family="Times,serif" font-size="14.00" fill="#000000">NONE</text>
<text text-anchor="middle" x="169.75" y="-919.7" font-family="Times,serif" font-size="14.00" fill="#000000">0x0</text>
</g>
<!-- node0x105301e40&#45;&gt;node0x105301e10 -->
<g id="edge1" class="edge">
<title>node0x105301e40:left&#45;&gt;node0x105301e10</title>
<path fill="none" stroke="#187ae8" stroke-width="2" d="M105,-1093.25C74.29,-1093.25 74.17,-1056.77 80.87,-1022.38"/>
<polygon fill="#187ae8" stroke="#187ae8" stroke-width="2" points="83.93,-1024.82 82.62,-1014.3 77.09,-1023.34 83.93,-1024.82"/>
<text text-anchor="middle" x="87.09" y="-1032.7" font-family="Times,serif" font-size="14.00">Да</text>
</g>
<!-- node0x105301de0 -->
<g id="node4" class="node">
<title>node0x105301de0</title>
<path fill="#bdef9e" stroke="#99c2a2" d="M226.12,-912.5C226.12,-912.5 486.38,-912.5 486.38,-912.5 492.38,-912.5 498.38,-918.5 498.38,-924.5 498.38,-924.5 498.38,-999 498.38,-999 498.38,-1005 492.38,-1011 486.38,-1011 486.38,-1011 226.12,-1011 226.12,-1011 220.12,-1011 214.12,-1005 214.12,-999 214.12,-999 214.12,-924.5 214.12,-924.5 214.12,-918.5 220.12,-912.5 226.12,-912.5"/>
<text text-anchor="middle" x="356.25" y="-993.7" font-family="Times,serif" font-size="14.00" fill="#000000">Teaches analisys</text>
<text text-anchor="middle" x="356.25" y="-977.2" font-family="Times,serif" font-size="14.00" fill="#000000">0x105301de0</text>
<polyline fill="none" stroke="#99c2a2" points="214.12,-970 498.38,-970"/>
<text text-anchor="middle" x="259.25" y="-952.7" font-family="Times,serif" font-size="14.00" fill="#000000">Left</text>
<text text-anchor="middle" x="259.25" y="-936.2" font-family="Times,serif" font-size="14.00" fill="#000000">Burtsev</text>
<text text-anchor="middle" x="259.25" y="-919.7" font-family="Times,serif" font-size="14.00" fill="#000000">0x105301d80</text>
<polyline fill="none" stroke="#99c2a2" points="304.38,-912.5 304.38,-970"/>
<text text-anchor="middle" x="349.12" y="-952.7" font-family="Times,serif" font-size="14.00" fill="#000000">Parent</text>
<text text-anchor="middle" x="349.12" y="-936.2" font-family="Times,serif" font-size="14.00" fill="#000000">Animal</text>
<text text-anchor="middle" x="349.12" y="-919.7" font-family="Times,serif" font-size="14.00" fill="#000000">0x105301e40</text>
<polyline fill="none" stroke="#99c2a2" points="393.88,-912.5 393.88,-970"/>
<text text-anchor="middle" x="446.12" y="-952.7" font-family="Times,serif" font-size="14.00" fill="#000000">Right</text>
<text text-anchor="middle" x="446.12" y="-936.2" font-family="Times,serif" font-size="14.00" fill="#000000">Teaches physics</text>
<text text-anchor="middle" x="446.12" y="-919.7" font-family="Times,serif" font-size="14.00" fill="#000000">0x105301d50</text>
</g>
<!-- node0x105301e40&#45;&gt;node0x105301de0 -->
<g id="edge15" class="edge">
<title>node0x105301e40:right&#45;&gt;node0x105301de0</title>
<path fill="none" stroke="#48e818" stroke-width="2" d="M302.75,-1064C302.75,-1049.35 307.19,-1034.74 313.5,-1021.36"/>
<polygon fill="#48e818" stroke="#48e818" stroke-width="2" points="315.78,-1024.57 317.27,-1014.08 309.56,-1021.36 315.78,-1024.57"/>
<text text-anchor="middle" x="320.25" y="-1032.7" font-family="Times,serif" font-size="14.00">Нет</text>
</g>
<!-- node0x105301b70 -->
<g id="node3" class="node">
<title>node0x105301b70</title>
<path fill="#f18805" stroke="#af3800" d="M770.25,-152.5C770.25,-152.5 1016.25,-152.5 1016.25,-152.5 1022.25,-152.5 1028.25,-158.5 1028.25,-164.5 1028.25,-164.5 1028.25,-239 1028.25,-239 1028.25,-245 1022.25,-251 1016.25,-251 1016.25,-251 770.25,-251 770.25,-251 764.25,-251 758.25,-245 758.25,-239 758.25,-239 758.25,-164.5 758.25,-164.5 758.25,-158.5 764.25,-152.5 770.25,-152.5"/>
<text text-anchor="middle" x="893.25" y="-233.7" font-family="Times,serif" font-size="14.00" fill="#000000">IN KARTEL</text>
<text text-anchor="middle" x="893.25" y="-217.2" font-family="Times,serif" font-size="14.00" fill="#000000">0x105301b70</text>
<polyline fill="none" stroke="#af3800" points="758.25,-210 1028.25,-210"/>
<text text-anchor="middle" x="803.38" y="-192.7" font-family="Times,serif" font-size="14.00" fill="#000000">Left</text>
<text text-anchor="middle" x="803.38" y="-176.2" font-family="Times,serif" font-size="14.00" fill="#000000">LEGEND</text>
<text text-anchor="middle" x="803.38" y="-159.7" font-family="Times,serif" font-size="14.00" fill="#000000">0x105301b40</text>
<polyline fill="none" stroke="#af3800" points="848.5,-152.5 848.5,-210"/>
<text text-anchor="middle" x="893.25" y="-192.7" font-family="Times,serif" font-size="14.00" fill="#000000">Parent</text>
<text text-anchor="middle" x="893.25" y="-176.2" font-family="Times,serif" font-size="14.00" fill="#000000">Coach</text>
<text text-anchor="middle" x="893.25" y="-159.7" font-family="Times,serif" font-size="14.00" fill="#000000">0x105301c00</text>
<polyline fill="none" stroke="#af3800" points="938,-152.5 938,-210"/>
<text text-anchor="middle" x="983.12" y="-192.7" font-family="Times,serif" font-size="14.00" fill="#000000">Right</text>
<text text-anchor="middle" x="983.12" y="-176.2" font-family="Times,serif" font-size="14.00" fill="#000000">LX</text>
<text text-anchor="middle" x="983.12" y="-159.7" font-family="Times,serif" font-size="14.00" fill="#000000">0x105301b10</text>
</g>
<!-- node0x105301b40 -->
<g id="node15" class="node">
<title>node0x105301b40</title>
<path fill="#d5cfe1" stroke="#8797b2" d="M699.62,-0.5C699.62,-0.5 872.88,-0.5 872.88,-0.5 878.88,-0.5 884.88,-6.5 884.88,-12.5 884.88,-12.5 884.88,-87 884.88,-87 884.88,-93 878.88,-99 872.88,-99 872.88,-99 699.62,-99 699.62,-99 693.62,-99 687.62,-93 687.62,-87 687.62,-87 687.62,-12.5 687.62,-12.5 687.62,-6.5 693.62,-0.5 699.62,-0.5"/>
<text text-anchor="middle" x="786.25" y="-81.7" font-family="Times,serif" font-size="14.00" fill="#000000">LEGEND</text>
<text text-anchor="middle" x="786.25" y="-65.2" font-family="Times,serif" font-size="14.00" fill="#000000">0x105301b40</text>
<polyline fill="none" stroke="#8797b2" points="687.62,-58 884.88,-58"/>
<text text-anchor="middle" x="714.38" y="-40.7" font-family="Times,serif" font-size="14.00" fill="#000000">Left</text>
<text text-anchor="middle" x="714.38" y="-24.2" font-family="Times,serif" font-size="14.00" fill="#000000">NONE</text>
<text text-anchor="middle" x="714.38" y="-7.7" font-family="Times,serif" font-size="14.00" fill="#000000">0x0</text>
<polyline fill="none" stroke="#8797b2" points="741.12,-0.5 741.12,-58"/>
<text text-anchor="middle" x="786.25" y="-40.7" font-family="Times,serif" font-size="14.00" fill="#000000">Parent</text>
<text text-anchor="middle" x="786.25" y="-24.2" font-family="Times,serif" font-size="14.00" fill="#000000">IN KARTEL</text>
<text text-anchor="middle" x="786.25" y="-7.7" font-family="Times,serif" font-size="14.00" fill="#000000">0x105301b70</text>
<polyline fill="none" stroke="#8797b2" points="831.38,-0.5 831.38,-58"/>
<text text-anchor="middle" x="858.12" y="-40.7" font-family="Times,serif" font-size="14.00" fill="#000000">Right</text>
<text text-anchor="middle" x="858.12" y="-24.2" font-family="Times,serif" font-size="14.00" fill="#000000">NONE</text>
<text text-anchor="middle" x="858.12" y="-7.7" font-family="Times,serif" font-size="14.00" fill="#000000">0x0</text>
</g>
<!-- node0x105301b70&#45;&gt;node0x105301b40 -->
<g id="edge9" class="edge">
<title>node0x105301b70:left&#45;&gt;node0x105301b40</title>
<path fill="none" stroke="#187ae8" stroke-width="2" d="M803.38,-152C803.38,-138.49 801.87,-124.11 799.76,-110.55"/>
<polygon fill="#187ae8" stroke="#187ae8" stroke-width="2" points="803.5,-111.65 798.37,-102.38 796.6,-112.82 803.5,-111.65"/>
<text text-anchor="middle" x="810.34" y="-120.7" font-family="Times,serif" font-size="14.00">Да</text>
</g>
<!-- node0x105301b10 -->
<g id="node16" class="node">
<title>node0x105301b10</title>
<path fill="#bdef9e" stroke="#99c2a2" d="M914.62,-0.5C914.62,-0.5 1087.88,-0.5 1087.88,-0.5 1093.88,-0.5 1099.88,-6.5 1099.88,-12.5 1099.88,-12.5 1099.88,-87 1099.88,-87 1099.88,-93 1093.88,-99 1087.88,-99 1087.88,-99 914.62,-99 914.62,-99 908.62,-99 902.62,-93 902.62,-87 902.62,-87 902.62,-12.5 902.62,-12.5 902.62,-6.5 908.62,-0.5 914.62,-0.5"/>
<text text-anchor="middle" x="1001.25" y="-81.7" font-family="Times,serif" font-size="14.00" fill="#000000">LX</text>
<text text-anchor="middle" x="1001.25" y="-65.2" font-family="Times,serif" font-size="14.00" fill="#000000">0x105301b10</text>
<polyline fill="none" stroke="#99c2a2" points="902.62,-58 1099.88,-58"/>
<text text-anchor="middle" x="929.38" y="-40.7" font-family="Times,serif" font-size="14.00" fill="#000000">Left</text>
<text text-anchor="middle" x="929.38" y="-24.2" font-family="Times,serif" font-size="14.00" fill="#000000">NONE</text>
<text text-anchor="middle" x="929.38" y="-7.7" font-family="Times,serif" font-size="14.00" fill="#000000">0x0</text>
<polyline fill="none" stroke="#99c2a2" points="956.12,-0.5 956.12,-58"/>
<text text-anchor="middle" x="1001.25" y="-40.7" font-family="Times,serif" font-size="14.00" fill="#000000">Parent</text>
<text text-anchor="middle" x="1001.25" y="-24.2" font-family="Times,serif" font-size="14.00" fill="#000000">IN KARTEL</text>
<text text-anchor="middle" x="1001.25" y="-7.7" font-family="Times,serif" font-size="14.00" fill="#000000">0x105301b70</text>
<polyline fill="none" stroke="#99c2a2" points="1046.38,-0.5 1046.38,-58"/>
<text text-anchor="middle" x="1073.12" y="-40.7" font-family="Times,serif" font-size="14.00" fill="#000000">Right</text>
<text text-anchor="middle" x="1073.12" y="-24.2" font-family="Times,serif" font-size="14.00" fill="#000000">NONE</text>
<text text-anchor="middle" x="1073.12" y="-7.7" font-family="Times,serif" font-size="14.00" fill="#000000">0x0</text>
</g>
<!-- node0x105301b70&#45;&gt;node0x105301b10 -->
<g id="edge10" class="edge">
<title>node0x105301b70:right&#45;&gt;node0x105301b10</title>
<path fill="none" stroke="#48e818" stroke-width="2" d="M983.12,-152C983.12,-138.47 984.71,-124.07 986.95,-110.52"/>
<polygon fill="#48e818" stroke="#48e818" stroke-width="2" points="990.09,-112.8 988.42,-102.34 983.2,-111.56 990.09,-112.8"/>
<text text-anchor="middle" x="996.63" y="-120.7" font-family="Times,serif" font-size="14.00">Нет</text>
</g>
<!-- node0x105301d80 -->
<g id="node5" class="node">
<title>node0x105301d80</title>
<path fill="#d5cfe1" stroke="#8797b2" d="M142,-760.5C142,-760.5 332.5,-760.5 332.5,-760.5 338.5,-760.5 344.5,-766.5 344.5,-772.5 344.5,-772.5 344.5,-847 344.5,-847 344.5,-853 338.5,-859 332.5,-859 332.5,-859 142,-859 142,-859 136,-859 130,-853 130,-847 130,-847 130,-772.5 130,-772.5 130,-766.5 136,-760.5 142,-760.5"/>
<text text-anchor="middle" x="237.25" y="-841.7" font-family="Times,serif" font-size="14.00" fill="#000000">Burtsev</text>
<text text-anchor="middle" x="237.25" y="-825.2" font-family="Times,serif" font-size="14.00" fill="#000000">0x105301d80</text>
<polyline fill="none" stroke="#8797b2" points="130,-818 344.5,-818"/>
<text text-anchor="middle" x="156.75" y="-800.7" font-family="Times,serif" font-size="14.00" fill="#000000">Left</text>
<text text-anchor="middle" x="156.75" y="-784.2" font-family="Times,serif" font-size="14.00" fill="#000000">NONE</text>
<text text-anchor="middle" x="156.75" y="-767.7" font-family="Times,serif" font-size="14.00" fill="#000000">0x0</text>
<polyline fill="none" stroke="#8797b2" points="183.5,-760.5 183.5,-818"/>
<text text-anchor="middle" x="237.25" y="-800.7" font-family="Times,serif" font-size="14.00" fill="#000000">Parent</text>
<text text-anchor="middle" x="237.25" y="-784.2" font-family="Times,serif" font-size="14.00" fill="#000000">Teaches analisys</text>
<text text-anchor="middle" x="237.25" y="-767.7" font-family="Times,serif" font-size="14.00" fill="#000000">0x105301de0</text>
<polyline fill="none" stroke="#8797b2" points="291,-760.5 291,-818"/>
<text text-anchor="middle" x="317.75" y="-800.7" font-family="Times,serif" font-size="14.00" fill="#000000">Right</text>
<text text-anchor="middle" x="317.75" y="-784.2" font-family="Times,serif" font-size="14.00" fill="#000000">NONE</text>
<text text-anchor="middle" x="317.75" y="-767.7" font-family="Times,serif" font-size="14.00" fill="#000000">0x0</text>
</g>
<!-- node0x105301de0&#45;&gt;node0x105301d80 -->
<g id="edge2" class="edge">
<title>node0x105301de0:left&#45;&gt;node0x105301d80</title>
<path fill="none" stroke="#187ae8" stroke-width="2" d="M259.25,-912C259.25,-898.44 257.34,-884.08 254.65,-870.58"/>
<polygon fill="#187ae8" stroke="#187ae8" stroke-width="2" points="258.42,-871.45 252.87,-862.43 251.58,-872.94 258.42,-871.45"/>
<text text-anchor="middle" x="265.95" y="-880.7" font-family="Times,serif" font-size="14.00">Да</text>
</g>
<!-- node0x105301d50 -->
<g id="node6" class="node">
<title>node0x105301d50</title>
<path fill="#bdef9e" stroke="#99c2a2" d="M375,-760.5C375,-760.5 649.5,-760.5 649.5,-760.5 655.5,-760.5 661.5,-766.5 661.5,-772.5 661.5,-772.5 661.5,-847 661.5,-847 661.5,-853 655.5,-859 649.5,-859 649.5,-859 375,-859 375,-859 369,-859 363,-853 363,-847 363,-847 363,-772.5 363,-772.5 363,-766.5 369,-760.5 375,-760.5"/>
<text text-anchor="middle" x="512.25" y="-841.7" font-family="Times,serif" font-size="14.00" fill="#000000">Teaches physics</text>
<text text-anchor="middle" x="512.25" y="-825.2" font-family="Times,serif" font-size="14.00" fill="#000000">0x105301d50</text>
<polyline fill="none" stroke="#99c2a2" points="363,-818 661.5,-818"/>
<text text-anchor="middle" x="408.12" y="-800.7" font-family="Times,serif" font-size="14.00" fill="#000000">Left</text>
<text text-anchor="middle" x="408.12" y="-784.2" font-family="Times,serif" font-size="14.00" fill="#000000">Nefor</text>
<text text-anchor="middle" x="408.12" y="-767.7" font-family="Times,serif" font-size="14.00" fill="#000000">0x105301d20</text>
<polyline fill="none" stroke="#99c2a2" points="453.25,-760.5 453.25,-818"/>
<text text-anchor="middle" x="507" y="-800.7" font-family="Times,serif" font-size="14.00" fill="#000000">Parent</text>
<text text-anchor="middle" x="507" y="-784.2" font-family="Times,serif" font-size="14.00" fill="#000000">Teaches analisys</text>
<text text-anchor="middle" x="507" y="-767.7" font-family="Times,serif" font-size="14.00" fill="#000000">0x105301de0</text>
<polyline fill="none" stroke="#99c2a2" points="560.75,-760.5 560.75,-818"/>
<text text-anchor="middle" x="611.12" y="-800.7" font-family="Times,serif" font-size="14.00" fill="#000000">Right</text>
<text text-anchor="middle" x="611.12" y="-784.2" font-family="Times,serif" font-size="14.00" fill="#000000">Teaches angem</text>
<text text-anchor="middle" x="611.12" y="-767.7" font-family="Times,serif" font-size="14.00" fill="#000000">0x105301c90</text>
</g>
<!-- node0x105301de0&#45;&gt;node0x105301d50 -->
<g id="edge14" class="edge">
<title>node0x105301de0:right&#45;&gt;node0x105301d50</title>
<path fill="none" stroke="#48e818" stroke-width="2" d="M446.12,-912C446.12,-896.8 451.42,-882.09 459.01,-868.82"/>
<polygon fill="#48e818" stroke="#48e818" stroke-width="2" points="460.94,-872.32 463.29,-861.99 455.01,-868.6 460.94,-872.32"/>
<text text-anchor="middle" x="465.19" y="-880.7" font-family="Times,serif" font-size="14.00">Нет</text>
</g>
<!-- node0x105301d20 -->
<g id="node7" class="node">
<title>node0x105301d20</title>
<path fill="#d5cfe1" stroke="#8797b2" d="M149,-608.5C149,-608.5 405.5,-608.5 405.5,-608.5 411.5,-608.5 417.5,-614.5 417.5,-620.5 417.5,-620.5 417.5,-695 417.5,-695 417.5,-701 411.5,-707 405.5,-707 405.5,-707 149,-707 149,-707 143,-707 137,-701 137,-695 137,-695 137,-620.5 137,-620.5 137,-614.5 143,-608.5 149,-608.5"/>
<text text-anchor="middle" x="277.25" y="-689.7" font-family="Times,serif" font-size="14.00" fill="#000000">Nefor</text>
<text text-anchor="middle" x="277.25" y="-673.2" font-family="Times,serif" font-size="14.00" fill="#000000">0x105301d20</text>
<polyline fill="none" stroke="#8797b2" points="137,-666 417.5,-666"/>
<text text-anchor="middle" x="180.62" y="-648.7" font-family="Times,serif" font-size="14.00" fill="#000000">Left</text>
<text text-anchor="middle" x="180.62" y="-632.2" font-family="Times,serif" font-size="14.00" fill="#000000">Magic</text>
<text text-anchor="middle" x="180.62" y="-615.7" font-family="Times,serif" font-size="14.00" fill="#000000">0x105301cf0</text>
<polyline fill="none" stroke="#8797b2" points="224.25,-608.5 224.25,-666"/>
<text text-anchor="middle" x="276.5" y="-648.7" font-family="Times,serif" font-size="14.00" fill="#000000">Parent</text>
<text text-anchor="middle" x="276.5" y="-632.2" font-family="Times,serif" font-size="14.00" fill="#000000">Teaches physics</text>
<text text-anchor="middle" x="276.5" y="-615.7" font-family="Times,serif" font-size="14.00" fill="#000000">0x105301d50</text>
<polyline fill="none" stroke="#8797b2" points="328.75,-608.5 328.75,-666"/>
<text text-anchor="middle" x="373.12" y="-648.7" font-family="Times,serif" font-size="14.00" fill="#000000">Right</text>
<text text-anchor="middle" x="373.12" y="-632.2" font-family="Times,serif" font-size="14.00" fill="#000000">Ovchos</text>
<text text-anchor="middle" x="373.12" y="-615.7" font-family="Times,serif" font-size="14.00" fill="#000000">0x105301cc0</text>
</g>
<!-- node0x105301d50&#45;&gt;node0x105301d20 -->
<g id="edge3" class="edge">
<title>node0x105301d50:left&#45;&gt;node0x105301d20</title>
<path fill="none" stroke="#187ae8" stroke-width="2" d="M408.12,-760C408.12,-742.56 400.77,-727.7 389.54,-715.17"/>
<polygon fill="#187ae8" stroke="#187ae8" stroke-width="2" points="393.33,-714.01 383.78,-709.42 388.38,-718.96 393.33,-714.01"/>
<text text-anchor="middle" x="412.34" y="-728.7" font-family="Times,serif" font-size="14.00">Да</text>
</g>
<!-- node0x105301c90 -->
<g id="node10" class="node">
<title>node0x105301c90</title>
<path fill="#bdef9e" stroke="#99c2a2" d="M560.5,-608.5C560.5,-608.5 820,-608.5 820,-608.5 826,-608.5 832,-614.5 832,-620.5 832,-620.5 832,-695 832,-695 832,-701 826,-707 820,-707 820,-707 560.5,-707 560.5,-707 554.5,-707 548.5,-701 548.5,-695 548.5,-695 548.5,-620.5 548.5,-620.5 548.5,-614.5 554.5,-608.5 560.5,-608.5"/>
<text text-anchor="middle" x="690.25" y="-689.7" font-family="Times,serif" font-size="14.00" fill="#000000">Teaches angem</text>
<text text-anchor="middle" x="690.25" y="-673.2" font-family="Times,serif" font-size="14.00" fill="#000000">0x105301c90</text>
<polyline fill="none" stroke="#99c2a2" points="548.5,-666 832,-666"/>
<text text-anchor="middle" x="593.25" y="-648.7" font-family="Times,serif" font-size="14.00" fill="#000000">Left</text>
<text text-anchor="middle" x="593.25" y="-632.2" font-family="Times,serif" font-size="14.00" fill="#000000">Chubarik</text>
<text text-anchor="middle" x="593.25" y="-615.7" font-family="Times,serif" font-size="14.00" fill="#000000">0x105301c60</text>
<polyline fill="none" stroke="#99c2a2" points="638,-608.5 638,-666"/>
<text text-anchor="middle" x="690.25" y="-648.7" font-family="Times,serif" font-size="14.00" fill="#000000">Parent</text>
<text text-anchor="middle" x="690.25" y="-632.2" font-family="Times,serif" font-size="14.00" fill="#000000">Teaches physics</text>
<text text-anchor="middle" x="690.25" y="-615.7" font-family="Times,serif" font-size="14.00" fill="#000000">0x105301d50</text>
<polyline fill="none" stroke="#99c2a2" points="742.5,-608.5 742.5,-666"/>
<text text-anchor="middle" x="787.25" y="-648.7" font-family="Times,serif" font-size="14.00" fill="#000000">Right</text>
<text text-anchor="middle" x="787.25" y="-632.2" font-family="Times,serif" font-size="14.00" fill="#000000">Do sport</text>
<text text-anchor="middle" x="787.25" y="-615.7" font-family="Times,serif" font-size="14.00" fill="#000000">0x105301c30</text>
</g>
<!-- node0x105301d50&#45;&gt;node0x105301c90 -->
<g id="edge13" class="edge">
<title>node0x105301d50:right&#45;&gt;node0x105301c90</title>
<path fill="none" stroke="#48e818" stroke-width="2" d="M662.5,-789.25C693.72,-789.25 699.76,-753.08 698.48,-718.83"/>
<polygon fill="#48e818" stroke="#48e818" stroke-width="2" points="702.06,-720.14 697.97,-710.37 695.07,-720.56 702.06,-720.14"/>
<text text-anchor="middle" x="709.51" y="-728.7" font-family="Times,serif" font-size="14.00">Нет</text>
</g>
<!-- node0x105301cf0 -->
<g id="node8" class="node">
<title>node0x105301cf0</title>
<path fill="#d5cfe1" stroke="#8797b2" d="M70.62,-456.5C70.62,-456.5 243.88,-456.5 243.88,-456.5 249.88,-456.5 255.88,-462.5 255.88,-468.5 255.88,-468.5 255.88,-543 255.88,-543 255.88,-549 249.88,-555 243.88,-555 243.88,-555 70.62,-555 70.62,-555 64.63,-555 58.62,-549 58.62,-543 58.62,-543 58.62,-468.5 58.62,-468.5 58.62,-462.5 64.62,-456.5 70.62,-456.5"/>
<text text-anchor="middle" x="157.25" y="-537.7" font-family="Times,serif" font-size="14.00" fill="#000000">Magic</text>
<text text-anchor="middle" x="157.25" y="-521.2" font-family="Times,serif" font-size="14.00" fill="#000000">0x105301cf0</text>
<polyline fill="none" stroke="#8797b2" points="58.62,-514 255.88,-514"/>
<text text-anchor="middle" x="85.38" y="-496.7" font-family="Times,serif" font-size="14.00" fill="#000000">Left</text>
<text text-anchor="middle" x="85.38" y="-480.2" font-family="Times,serif" font-size="14.00" fill="#000000">NONE</text>
<text text-anchor="middle" x="85.38" y="-463.7" font-family="Times,serif" font-size="14.00" fill="#000000">0x0</text>
<polyline fill="none" stroke="#8797b2" points="112.12,-456.5 112.12,-514"/>
<text text-anchor="middle" x="157.25" y="-496.7" font-family="Times,serif" font-size="14.00" fill="#000000">Parent</text>
<text text-anchor="middle" x="157.25" y="-480.2" font-family="Times,serif" font-size="14.00" fill="#000000">Nefor</text>
<text text-anchor="middle" x="157.25" y="-463.7" font-family="Times,serif" font-size="14.00" fill="#000000">0x105301d20</text>
<polyline fill="none" stroke="#8797b2" points="202.38,-456.5 202.38,-514"/>
<text text-anchor="middle" x="229.12" y="-496.7" font-family="Times,serif" font-size="14.00" fill="#000000">Right</text>
<text text-anchor="middle" x="229.12" y="-480.2" font-family="Times,serif" font-size="14.00" fill="#000000">NONE</text>
<text text-anchor="middle" x="229.12" y="-463.7" font-family="Times,serif" font-size="14.00" fill="#000000">0x0</text>
</g>
<!-- node0x105301d20&#45;&gt;node0x105301cf0 -->
<g id="edge4" class="edge">
<title>node0x105301d20:left&#45;&gt;node0x105301cf0</title>
<path fill="none" stroke="#187ae8" stroke-width="2" d="M180.62,-608C180.62,-594.4 178.6,-580.03 175.74,-566.52"/>
<polygon fill="#187ae8" stroke="#187ae8" stroke-width="2" points="179.51,-567.31 173.85,-558.36 172.69,-568.89 179.51,-567.31"/>
<text text-anchor="middle" x="187.25" y="-576.7" font-family="Times,serif" font-size="14.00">Да</text>
</g>
<!-- node0x105301cc0 -->
<g id="node9" class="node">
<title>node0x105301cc0</title>
<path fill="#bdef9e" stroke="#99c2a2" d="M285.62,-456.5C285.62,-456.5 458.88,-456.5 458.88,-456.5 464.88,-456.5 470.88,-462.5 470.88,-468.5 470.88,-468.5 470.88,-543 470.88,-543 470.88,-549 464.88,-555 458.88,-555 458.88,-555 285.62,-555 285.62,-555 279.62,-555 273.62,-549 273.62,-543 273.62,-543 273.62,-468.5 273.62,-468.5 273.62,-462.5 279.62,-456.5 285.62,-456.5"/>
<text text-anchor="middle" x="372.25" y="-537.7" font-family="Times,serif" font-size="14.00" fill="#000000">Ovchos</text>
<text text-anchor="middle" x="372.25" y="-521.2" font-family="Times,serif" font-size="14.00" fill="#000000">0x105301cc0</text>
<polyline fill="none" stroke="#99c2a2" points="273.62,-514 470.88,-514"/>
<text text-anchor="middle" x="300.38" y="-496.7" font-family="Times,serif" font-size="14.00" fill="#000000">Left</text>
<text text-anchor="middle" x="300.38" y="-480.2" font-family="Times,serif" font-size="14.00" fill="#000000">NONE</text>
<text text-anchor="middle" x="300.38" y="-463.7" font-family="Times,serif" font-size="14.00" fill="#000000">0x0</text>
<polyline fill="none" stroke="#99c2a2" points="327.12,-456.5 327.12,-514"/>
<text text-anchor="middle" x="372.25" y="-496.7" font-family="Times,serif" font-size="14.00" fill="#000000">Parent</text>
<text text-anchor="middle" x="372.25" y="-480.2" font-family="Times,serif" font-size="14.00" fill="#000000">Nefor</text>
<text text-anchor="middle" x="372.25" y="-463.7" font-family="Times,serif" font-size="14.00" fill="#000000">0x105301d20</text>
<polyline fill="none" stroke="#99c2a2" points="417.38,-456.5 417.38,-514"/>
<text text-anchor="middle" x="444.12" y="-496.7" font-family="Times,serif" font-size="14.00" fill="#000000">Right</text>
<text text-anchor="middle" x="444.12" y="-480.2" font-family="Times,serif" font-size="14.00" fill="#000000">NONE</text>
<text text-anchor="middle" x="444.12" y="-463.7" font-family="Times,serif" font-size="14.00" fill="#000000">0x0</text>
</g>
<!-- node0x105301d20&#45;&gt;node0x105301cc0 -->
<g id="edge5" class="edge">
<title>node0x105301d20:right&#45;&gt;node0x105301cc0</title>
<path fill="none" stroke="#48e818" stroke-width="2" d="M373.12,-608C373.12,-594.61 373.05,-580.22 372.94,-566.62"/>
<polygon fill="#48e818" stroke="#48e818" stroke-width="2" points="376.45,-568.41 372.87,-558.44 369.45,-568.47 376.45,-568.41"/>
<text text-anchor="middle" x="383.95" y="-576.7" font-family="Times,serif" font-size="14.00">Нет</text>
</g>
<!-- node0x105301c60 -->
<g id="node11" class="node">
<title>node0x105301c60</title>
<path fill="#d5cfe1" stroke="#8797b2" d="M501.38,-456.5C501.38,-456.5 685.12,-456.5 685.12,-456.5 691.12,-456.5 697.12,-462.5 697.12,-468.5 697.12,-468.5 697.12,-543 697.12,-543 697.12,-549 691.12,-555 685.12,-555 685.12,-555 501.38,-555 501.38,-555 495.38,-555 489.38,-549 489.38,-543 489.38,-543 489.38,-468.5 489.38,-468.5 489.38,-462.5 495.38,-456.5 501.38,-456.5"/>
<text text-anchor="middle" x="593.25" y="-537.7" font-family="Times,serif" font-size="14.00" fill="#000000">Chubarik</text>
<text text-anchor="middle" x="593.25" y="-521.2" font-family="Times,serif" font-size="14.00" fill="#000000">0x105301c60</text>
<polyline fill="none" stroke="#8797b2" points="489.38,-514 697.12,-514"/>
<text text-anchor="middle" x="516.12" y="-496.7" font-family="Times,serif" font-size="14.00" fill="#000000">Left</text>
<text text-anchor="middle" x="516.12" y="-480.2" font-family="Times,serif" font-size="14.00" fill="#000000">NONE</text>
<text text-anchor="middle" x="516.12" y="-463.7" font-family="Times,serif" font-size="14.00" fill="#000000">0x0</text>
<polyline fill="none" stroke="#8797b2" points="542.88,-456.5 542.88,-514"/>
<text text-anchor="middle" x="593.25" y="-496.7" font-family="Times,serif" font-size="14.00" fill="#000000">Parent</text>
<text text-anchor="middle" x="593.25" y="-480.2" font-family="Times,serif" font-size="14.00" fill="#000000">Teaches angem</text>
<text text-anchor="middle" x="593.25" y="-463.7" font-family="Times,serif" font-size="14.00" fill="#000000">0x105301c90</text>
<polyline fill="none" stroke="#8797b2" points="643.62,-456.5 643.62,-514"/>
<text text-anchor="middle" x="670.38" y="-496.7" font-family="Times,serif" font-size="14.00" fill="#000000">Right</text>
<text text-anchor="middle" x="670.38" y="-480.2" font-family="Times,serif" font-size="14.00" fill="#000000">NONE</text>
<text text-anchor="middle" x="670.38" y="-463.7" font-family="Times,serif" font-size="14.00" fill="#000000">0x0</text>
</g>
<!-- node0x105301c90&#45;&gt;node0x105301c60 -->
<g id="edge6" class="edge">
<title>node0x105301c90:left&#45;&gt;node0x105301c60</title>
<path fill="none" stroke="#187ae8" stroke-width="2" d="M593.25,-608C593.25,-594.61 593.25,-580.22 593.25,-566.62"/>
<polygon fill="#187ae8" stroke="#187ae8" stroke-width="2" points="596.75,-568.44 593.25,-558.44 589.75,-568.44 596.75,-568.44"/>
<text text-anchor="middle" x="601.12" y="-576.7" font-family="Times,serif" font-size="14.00">Да</text>
</g>
<!-- node0x105301c30 -->
<g id="node12" class="node">
<title>node0x105301c30</title>
<path fill="#bdef9e" stroke="#99c2a2" d="M727.38,-456.5C727.38,-456.5 947.12,-456.5 947.12,-456.5 953.12,-456.5 959.12,-462.5 959.12,-468.5 959.12,-468.5 959.12,-543 959.12,-543 959.12,-549 953.12,-555 947.12,-555 947.12,-555 727.38,-555 727.38,-555 721.38,-555 715.38,-549 715.38,-543 715.38,-543 715.38,-468.5 715.38,-468.5 715.38,-462.5 721.38,-456.5 727.38,-456.5"/>
<text text-anchor="middle" x="837.25" y="-537.7" font-family="Times,serif" font-size="14.00" fill="#000000">Do sport</text>
<text text-anchor="middle" x="837.25" y="-521.2" font-family="Times,serif" font-size="14.00" fill="#000000">0x105301c30</text>
<polyline fill="none" stroke="#99c2a2" points="715.38,-514 959.12,-514"/>
<text text-anchor="middle" x="760.12" y="-496.7" font-family="Times,serif" font-size="14.00" fill="#000000">Left</text>
<text text-anchor="middle" x="760.12" y="-480.2" font-family="Times,serif" font-size="14.00" fill="#000000">Coach</text>
<text text-anchor="middle" x="760.12" y="-463.7" font-family="Times,serif" font-size="14.00" fill="#000000">0x105301c00</text>
<polyline fill="none" stroke="#99c2a2" points="804.88,-456.5 804.88,-514"/>
<text text-anchor="middle" x="855.25" y="-496.7" font-family="Times,serif" font-size="14.00" fill="#000000">Parent</text>
<text text-anchor="middle" x="855.25" y="-480.2" font-family="Times,serif" font-size="14.00" fill="#000000">Teaches angem</text>
<text text-anchor="middle" x="855.25" y="-463.7" font-family="Times,serif" font-size="14.00" fill="#000000">0x105301c90</text>
<polyline fill="none" stroke="#99c2a2" points="905.62,-456.5 905.62,-514"/>
<text text-anchor="middle" x="932.38" y="-496.7" font-family="Times,serif" font-size="14.00" fill="#000000">Right</text>
<text text-anchor="middle" x="932.38" y="-480.2" font-family="Times,serif" font-size="14.00" fill="#000000">NONE</text>
<text text-anchor="middle" x="932.38" y="-463.7" font-family="Times,serif" font-size="14.00" fill="#000000">0x0</text>
</g>
<!-- node0x105301c90&#45;&gt;node0x105301c30 -->
<g id="edge12" class="edge">
<title>node0x105301c90:right&#45;&gt;node0x105301c30</title>
<path fill="none" stroke="#48e818" stroke-width="2" d="M787.25,-608C787.25,-593.47 791.44,-578.87 797.39,-565.45"/>
<polygon fill="#48e818" stroke="#48e818" stroke-width="2" points="799.71,-568.69 800.93,-558.17 793.41,-565.64 799.71,-568.69"/>
<text text-anchor="middle" x="804.32" y="-576.7" font-family="Times,serif" font-size="14.00">Нет</text>
</g>
<!-- node0x105301c00 -->
<g id="node13" class="node">
<title>node0x105301c00</title>
<path fill="#d5cfe1" stroke="#8797b2" d="M623,-304.5C623,-304.5 897.5,-304.5 897.5,-304.5 903.5,-304.5 909.5,-310.5 909.5,-316.5 909.5,-316.5 909.5,-391 909.5,-391 909.5,-397 903.5,-403 897.5,-403 897.5,-403 623,-403 623,-403 617,-403 611,-397 611,-391 611,-391 611,-316.5 611,-316.5 611,-310.5 617,-304.5 623,-304.5"/>
<text text-anchor="middle" x="760.25" y="-385.7" font-family="Times,serif" font-size="14.00" fill="#000000">Coach</text>
<text text-anchor="middle" x="760.25" y="-369.2" font-family="Times,serif" font-size="14.00" fill="#000000">0x105301c00</text>
<polyline fill="none" stroke="#8797b2" points="611,-362 909.5,-362"/>
<text text-anchor="middle" x="670.38" y="-344.7" font-family="Times,serif" font-size="14.00" fill="#000000">Left</text>
<text text-anchor="middle" x="670.38" y="-328.2" font-family="Times,serif" font-size="14.00" fill="#000000">Valentin Guardiola</text>
<text text-anchor="middle" x="670.38" y="-311.7" font-family="Times,serif" font-size="14.00" fill="#000000">0x105301bd0</text>
<polyline fill="none" stroke="#8797b2" points="729.75,-304.5 729.75,-362"/>
<text text-anchor="middle" x="774.5" y="-344.7" font-family="Times,serif" font-size="14.00" fill="#000000">Parent</text>
<text text-anchor="middle" x="774.5" y="-328.2" font-family="Times,serif" font-size="14.00" fill="#000000">Do sport</text>
<text text-anchor="middle" x="774.5" y="-311.7" font-family="Times,serif" font-size="14.00" fill="#000000">0x105301c30</text>
<polyline fill="none" stroke="#8797b2" points="819.25,-304.5 819.25,-362"/>
<text text-anchor="middle" x="864.38" y="-344.7" font-family="Times,serif" font-size="14.00" fill="#000000">Right</text>
<text text-anchor="middle" x="864.38" y="-328.2" font-family="Times,serif" font-size="14.00" fill="#000000">IN KARTEL</text>
<text text-anchor="middle" x="864.38" y="-311.7" font-family="Times,serif" font-size="14.00" fill="#000000">0x105301b70</text>
</g>
<!-- node0x105301c30&#45;&gt;node0x105301c00 -->
<g id="edge7" class="edge">
<title>node0x105301c30:left&#45;&gt;node0x105301c00</title>
<path fill="none" stroke="#187ae8" stroke-width="2" d="M760.12,-456C760.12,-442.61 760.14,-428.22 760.15,-414.62"/>
<polygon fill="#187ae8" stroke="#187ae8" stroke-width="2" points="763.65,-416.45 760.16,-406.44 756.65,-416.44 763.65,-416.45"/>
<text text-anchor="middle" x="768.02" y="-424.7" font-family="Times,serif" font-size="14.00">Да</text>
</g>
<!-- node0x105301c00&#45;&gt;node0x105301b70 -->
<g id="edge11" class="edge">
<title>node0x105301c00:right&#45;&gt;node0x105301b70</title>
<path fill="none" stroke="#48e818" stroke-width="2" d="M864.38,-304C864.38,-290.29 866.85,-275.92 870.36,-262.46"/>
<polygon fill="#48e818" stroke="#48e818" stroke-width="2" points="873.31,-264.89 872.68,-254.31 866.57,-262.97 873.31,-264.89"/>
<text text-anchor="middle" x="879.44" y="-272.7" font-family="Times,serif" font-size="14.00">Нет</text>
</g>
<!-- node0x105301bd0 -->
<g id="node14" class="node">
<title>node0x105301bd0</title>
<path fill="#d5cfe1" stroke="#8797b2" d="M556,-152.5C556,-152.5 728.5,-152.5 728.5,-152.5 734.5,-152.5 740.5,-158.5 740.5,-164.5 740.5,-164.5 740.5,-239 740.5,-239 740.5,-245 734.5,-251 728.5,-251 728.5,-251 556,-251 556,-251 550,-251 544,-245 544,-239 544,-239 544,-164.5 544,-164.5 544,-158.5 550,-152.5 556,-152.5"/>
<text text-anchor="middle" x="642.25" y="-233.7" font-family="Times,serif" font-size="14.00" fill="#000000">Valentin Guardiola</text>
<text text-anchor="middle" x="642.25" y="-217.2" font-family="Times,serif" font-size="14.00" fill="#000000">0x105301bd0</text>
<polyline fill="none" stroke="#8797b2" points="544,-210 740.5,-210"/>
<text text-anchor="middle" x="570.75" y="-192.7" font-family="Times,serif" font-size="14.00" fill="#000000">Left</text>
<text text-anchor="middle" x="570.75" y="-176.2" font-family="Times,serif" font-size="14.00" fill="#000000">NONE</text>
<text text-anchor="middle" x="570.75" y="-159.7" font-family="Times,serif" font-size="14.00" fill="#000000">0x0</text>
<polyline fill="none" stroke="#8797b2" points="597.5,-152.5 597.5,-210"/>
<text text-anchor="middle" x="642.25" y="-192.7" font-family="Times,serif" font-size="14.00" fill="#000000">Parent</text>
<text text-anchor="middle" x="642.25" y="-176.2" font-family="Times,serif" font-size="14.00" fill="#000000">Coach</text>
<text text-anchor="middle" x="642.25" y="-159.7" font-family="Times,serif" font-size="14.00" fill="#000000">0x105301c00</text>
<polyline fill="none" stroke="#8797b2" points="687,-152.5 687,-210"/>
<text text-anchor="middle" x="713.75" y="-192.7" font-family="Times,serif" font-size="14.00" fill="#000000">Right</text>
<text text-anchor="middle" x="713.75" y="-176.2" font-family="Times,serif" font-size="14.00" fill="#000000">NONE</text>
<text text-anchor="middle" x="713.75" y="-159.7" font-family="Times,serif" font-size="14.00" fill="#000000">0x0</text>
</g>
<!-- node0x105301c00&#45;&gt;node0x105301bd0 -->
<g id="edge8" class="edge">
<title>node0x105301c00:left&#45;&gt;node0x105301bd0</title>
<path fill="none" stroke="#187ae8" stroke-width="2" d="M670.38,-304C670.38,-290.32 667.96,-275.96 664.55,-262.5"/>
<polygon fill="#187ae8" stroke="#187ae8" stroke-width="2" points="668.33,-263.06 662.29,-254.36 661.59,-264.93 668.33,-263.06"/>
<text text-anchor="middle" x="676.75" y="-272.7" font-family="Times,serif" font-size="14.00">Да</text>
</g>
</g>
</svg>
