<?xml version="1.0" encoding="UTF-8" standalone="no"?>
<!DOCTYPE svg PUBLIC "-//W3C//DTD SVG 1.1//EN"
 "http://www.w3.org/Graphics/SVG/1.1/DTD/svg11.dtd">
<!-- Generated by graphviz version 12.2.0 (20241103.1931)
 -->
<!-- Pages: 1 -->
<svg width="930pt" height="716pt"
 viewBox="0.00 0.00 929.75 715.50" xmlns="http://www.w3.org/2000/svg" xmlns:xlink="http://www.w3.org/1999/xlink">
<g id="graph0" class="graph" transform="scale(1 1) rotate(0) translate(4 711.5)">
<polygon fill="#dcdcdc" stroke="none" points="-4,4 -4,-711.5 925.75,-711.5 925.75,4 -4,4"/>
<!-- node0x105a01e40 -->
<g id="node1" class="node">
<title>node0x105a01e40</title>
<path fill="#fbee21" stroke="#d3c70d" d="M118,-608.5C118,-608.5 343.75,-608.5 343.75,-608.5 349.75,-608.5 355.75,-614.5 355.75,-620.5 355.75,-620.5 355.75,-695 355.75,-695 355.75,-701 349.75,-707 343.75,-707 343.75,-707 118,-707 118,-707 112,-707 106,-701 106,-695 106,-695 106,-620.5 106,-620.5 106,-614.5 112,-608.5 118,-608.5"/>
<text text-anchor="middle" x="230.88" y="-689.7" font-family="Times,serif" font-size="14.00" fill="#000000">Animal</text>
<text text-anchor="middle" x="230.88" y="-673.2" font-family="Times,serif" font-size="14.00" fill="#000000">0x105a01e40</text>
<polyline fill="none" stroke="#d3c70d" points="106,-666 355.75,-666"/>
<text text-anchor="middle" x="150.38" y="-648.7" font-family="Times,serif" font-size="14.00" fill="#000000">Left</text>
<text text-anchor="middle" x="150.38" y="-632.2" font-family="Times,serif" font-size="14.00" fill="#000000">Poltorashka</text>
<text text-anchor="middle" x="150.38" y="-615.7" font-family="Times,serif" font-size="14.00" fill="#000000">0x105a01e10</text>
<polyline fill="none" stroke="#d3c70d" points="194.75,-608.5 194.75,-666"/>
<text text-anchor="middle" x="221.5" y="-648.7" font-family="Times,serif" font-size="14.00" fill="#000000">Parent</text>
<text text-anchor="middle" x="221.5" y="-632.2" font-family="Times,serif" font-size="14.00" fill="#000000">NONE</text>
<text text-anchor="middle" x="221.5" y="-615.7" font-family="Times,serif" font-size="14.00" fill="#000000">0x0</text>
<polyline fill="none" stroke="#d3c70d" points="248.25,-608.5 248.25,-666"/>
<text text-anchor="middle" x="302" y="-648.7" font-family="Times,serif" font-size="14.00" fill="#000000">Right</text>
<text text-anchor="middle" x="302" y="-632.2" font-family="Times,serif" font-size="14.00" fill="#000000">Teaches analisys</text>
<text text-anchor="middle" x="302" y="-615.7" font-family="Times,serif" font-size="14.00" fill="#000000">0x105a01de0</text>
</g>
<!-- node0x105a01e10 -->
<g id="node2" class="node">
<title>node0x105a01e10</title>
<path fill="#d5cfe1" stroke="#8797b2" d="M12,-456.5C12,-456.5 183.75,-456.5 183.75,-456.5 189.75,-456.5 195.75,-462.5 195.75,-468.5 195.75,-468.5 195.75,-543 195.75,-543 195.75,-549 189.75,-555 183.75,-555 183.75,-555 12,-555 12,-555 6,-555 0,-549 0,-543 0,-543 0,-468.5 0,-468.5 0,-462.5 6,-456.5 12,-456.5"/>
<text text-anchor="middle" x="97.88" y="-537.7" font-family="Times,serif" font-size="14.00" fill="#000000">Poltorashka</text>
<text text-anchor="middle" x="97.88" y="-521.2" font-family="Times,serif" font-size="14.00" fill="#000000">0x105a01e10</text>
<polyline fill="none" stroke="#8797b2" points="0,-514 195.75,-514"/>
<text text-anchor="middle" x="26.75" y="-496.7" font-family="Times,serif" font-size="14.00" fill="#000000">Left</text>
<text text-anchor="middle" x="26.75" y="-480.2" font-family="Times,serif" font-size="14.00" fill="#000000">NONE</text>
<text text-anchor="middle" x="26.75" y="-463.7" font-family="Times,serif" font-size="14.00" fill="#000000">0x0</text>
<polyline fill="none" stroke="#8797b2" points="53.5,-456.5 53.5,-514"/>
<text text-anchor="middle" x="97.88" y="-496.7" font-family="Times,serif" font-size="14.00" fill="#000000">Parent</text>
<text text-anchor="middle" x="97.88" y="-480.2" font-family="Times,serif" font-size="14.00" fill="#000000">Animal</text>
<text text-anchor="middle" x="97.88" y="-463.7" font-family="Times,serif" font-size="14.00" fill="#000000">0x105a01e40</text>
<polyline fill="none" stroke="#8797b2" points="142.25,-456.5 142.25,-514"/>
<text text-anchor="middle" x="169" y="-496.7" font-family="Times,serif" font-size="14.00" fill="#000000">Right</text>
<text text-anchor="middle" x="169" y="-480.2" font-family="Times,serif" font-size="14.00" fill="#000000">NONE</text>
<text text-anchor="middle" x="169" y="-463.7" font-family="Times,serif" font-size="14.00" fill="#000000">0x0</text>
</g>
<!-- node0x105a01e40&#45;&gt;node0x105a01e10 -->
<g id="edge1" class="edge">
<title>node0x105a01e40:left&#45;&gt;node0x105a01e10</title>
<path fill="none" stroke="#187ae8" stroke-width="2" d="M105,-637.25C74.29,-637.25 74.06,-600.77 80.67,-566.38"/>
<polygon fill="#187ae8" stroke="#187ae8" stroke-width="2" points="83.73,-568.81 82.39,-558.3 76.88,-567.35 83.73,-568.81"/>
<text text-anchor="middle" x="86.91" y="-576.7" font-family="Times,serif" font-size="14.00">Да</text>
</g>
<!-- node0x105a01de0 -->
<g id="node4" class="node">
<title>node0x105a01de0</title>
<path fill="#bdef9e" stroke="#99c2a2" d="M225.5,-456.5C225.5,-456.5 484.25,-456.5 484.25,-456.5 490.25,-456.5 496.25,-462.5 496.25,-468.5 496.25,-468.5 496.25,-543 496.25,-543 496.25,-549 490.25,-555 484.25,-555 484.25,-555 225.5,-555 225.5,-555 219.5,-555 213.5,-549 213.5,-543 213.5,-543 213.5,-468.5 213.5,-468.5 213.5,-462.5 219.5,-456.5 225.5,-456.5"/>
<text text-anchor="middle" x="354.88" y="-537.7" font-family="Times,serif" font-size="14.00" fill="#000000">Teaches analisys</text>
<text text-anchor="middle" x="354.88" y="-521.2" font-family="Times,serif" font-size="14.00" fill="#000000">0x105a01de0</text>
<polyline fill="none" stroke="#99c2a2" points="213.5,-514 496.25,-514"/>
<text text-anchor="middle" x="258.25" y="-496.7" font-family="Times,serif" font-size="14.00" fill="#000000">Left</text>
<text text-anchor="middle" x="258.25" y="-480.2" font-family="Times,serif" font-size="14.00" fill="#000000">Burtsev</text>
<text text-anchor="middle" x="258.25" y="-463.7" font-family="Times,serif" font-size="14.00" fill="#000000">0x105a01d80</text>
<polyline fill="none" stroke="#99c2a2" points="303,-456.5 303,-514"/>
<text text-anchor="middle" x="347.38" y="-496.7" font-family="Times,serif" font-size="14.00" fill="#000000">Parent</text>
<text text-anchor="middle" x="347.38" y="-480.2" font-family="Times,serif" font-size="14.00" fill="#000000">Animal</text>
<text text-anchor="middle" x="347.38" y="-463.7" font-family="Times,serif" font-size="14.00" fill="#000000">0x105a01e40</text>
<polyline fill="none" stroke="#99c2a2" points="391.75,-456.5 391.75,-514"/>
<text text-anchor="middle" x="444" y="-496.7" font-family="Times,serif" font-size="14.00" fill="#000000">Right</text>
<text text-anchor="middle" x="444" y="-480.2" font-family="Times,serif" font-size="14.00" fill="#000000">Teaches physics</text>
<text text-anchor="middle" x="444" y="-463.7" font-family="Times,serif" font-size="14.00" fill="#000000">0x105a01d50</text>
</g>
<!-- node0x105a01e40&#45;&gt;node0x105a01de0 -->
<g id="edge10" class="edge">
<title>node0x105a01e40:right&#45;&gt;node0x105a01de0</title>
<path fill="none" stroke="#48e818" stroke-width="2" d="M302,-608C302,-593.38 306.38,-578.79 312.63,-565.42"/>
<polygon fill="#48e818" stroke="#48e818" stroke-width="2" points="314.91,-568.64 316.34,-558.14 308.68,-565.46 314.91,-568.64"/>
<text text-anchor="middle" x="319.43" y="-576.7" font-family="Times,serif" font-size="14.00">Нет</text>
</g>
<!-- node0x105a01c30 -->
<g id="node3" class="node">
<title>node0x105a01c30</title>
<path fill="#f18805" stroke="#af3800" d="M726,-0.5C726,-0.5 909.75,-0.5 909.75,-0.5 915.75,-0.5 921.75,-6.5 921.75,-12.5 921.75,-12.5 921.75,-87 921.75,-87 921.75,-93 915.75,-99 909.75,-99 909.75,-99 726,-99 726,-99 720,-99 714,-93 714,-87 714,-87 714,-12.5 714,-12.5 714,-6.5 720,-0.5 726,-0.5"/>
<text text-anchor="middle" x="817.88" y="-81.7" font-family="Times,serif" font-size="14.00" fill="#000000">Do sport</text>
<text text-anchor="middle" x="817.88" y="-65.2" font-family="Times,serif" font-size="14.00" fill="#000000">0x105a01c30</text>
<polyline fill="none" stroke="#af3800" points="714,-58 921.75,-58"/>
<text text-anchor="middle" x="740.75" y="-40.7" font-family="Times,serif" font-size="14.00" fill="#000000">Left</text>
<text text-anchor="middle" x="740.75" y="-24.2" font-family="Times,serif" font-size="14.00" fill="#000000">NONE</text>
<text text-anchor="middle" x="740.75" y="-7.7" font-family="Times,serif" font-size="14.00" fill="#000000">0x0</text>
<polyline fill="none" stroke="#af3800" points="767.5,-0.5 767.5,-58"/>
<text text-anchor="middle" x="817.88" y="-40.7" font-family="Times,serif" font-size="14.00" fill="#000000">Parent</text>
<text text-anchor="middle" x="817.88" y="-24.2" font-family="Times,serif" font-size="14.00" fill="#000000">Teaches angem</text>
<text text-anchor="middle" x="817.88" y="-7.7" font-family="Times,serif" font-size="14.00" fill="#000000">0x105a01c90</text>
<polyline fill="none" stroke="#af3800" points="868.25,-0.5 868.25,-58"/>
<text text-anchor="middle" x="895" y="-40.7" font-family="Times,serif" font-size="14.00" fill="#000000">Right</text>
<text text-anchor="middle" x="895" y="-24.2" font-family="Times,serif" font-size="14.00" fill="#000000">NONE</text>
<text text-anchor="middle" x="895" y="-7.7" font-family="Times,serif" font-size="14.00" fill="#000000">0x0</text>
</g>
<!-- node0x105a01d80 -->
<g id="node5" class="node">
<title>node0x105a01d80</title>
<path fill="#d5cfe1" stroke="#8797b2" d="M141.62,-304.5C141.62,-304.5 332.12,-304.5 332.12,-304.5 338.12,-304.5 344.12,-310.5 344.12,-316.5 344.12,-316.5 344.12,-391 344.12,-391 344.12,-397 338.12,-403 332.12,-403 332.12,-403 141.62,-403 141.62,-403 135.62,-403 129.62,-397 129.62,-391 129.62,-391 129.62,-316.5 129.62,-316.5 129.62,-310.5 135.62,-304.5 141.62,-304.5"/>
<text text-anchor="middle" x="236.88" y="-385.7" font-family="Times,serif" font-size="14.00" fill="#000000">Burtsev</text>
<text text-anchor="middle" x="236.88" y="-369.2" font-family="Times,serif" font-size="14.00" fill="#000000">0x105a01d80</text>
<polyline fill="none" stroke="#8797b2" points="129.62,-362 344.12,-362"/>
<text text-anchor="middle" x="156.38" y="-344.7" font-family="Times,serif" font-size="14.00" fill="#000000">Left</text>
<text text-anchor="middle" x="156.38" y="-328.2" font-family="Times,serif" font-size="14.00" fill="#000000">NONE</text>
<text text-anchor="middle" x="156.38" y="-311.7" font-family="Times,serif" font-size="14.00" fill="#000000">0x0</text>
<polyline fill="none" stroke="#8797b2" points="183.12,-304.5 183.12,-362"/>
<text text-anchor="middle" x="236.88" y="-344.7" font-family="Times,serif" font-size="14.00" fill="#000000">Parent</text>
<text text-anchor="middle" x="236.88" y="-328.2" font-family="Times,serif" font-size="14.00" fill="#000000">Teaches analisys</text>
<text text-anchor="middle" x="236.88" y="-311.7" font-family="Times,serif" font-size="14.00" fill="#000000">0x105a01de0</text>
<polyline fill="none" stroke="#8797b2" points="290.62,-304.5 290.62,-362"/>
<text text-anchor="middle" x="317.38" y="-344.7" font-family="Times,serif" font-size="14.00" fill="#000000">Right</text>
<text text-anchor="middle" x="317.38" y="-328.2" font-family="Times,serif" font-size="14.00" fill="#000000">NONE</text>
<text text-anchor="middle" x="317.38" y="-311.7" font-family="Times,serif" font-size="14.00" fill="#000000">0x0</text>
</g>
<!-- node0x105a01de0&#45;&gt;node0x105a01d80 -->
<g id="edge2" class="edge">
<title>node0x105a01de0:left&#45;&gt;node0x105a01d80</title>
<path fill="none" stroke="#187ae8" stroke-width="2" d="M258.25,-456C258.25,-442.46 256.4,-428.11 253.78,-414.6"/>
<polygon fill="#187ae8" stroke="#187ae8" stroke-width="2" points="257.55,-415.52 252.06,-406.46 250.7,-416.97 257.55,-415.52"/>
<text text-anchor="middle" x="264.99" y="-424.7" font-family="Times,serif" font-size="14.00">Да</text>
</g>
<!-- node0x105a01d50 -->
<g id="node6" class="node">
<title>node0x105a01d50</title>
<path fill="#bdef9e" stroke="#99c2a2" d="M374,-304.5C374,-304.5 647.75,-304.5 647.75,-304.5 653.75,-304.5 659.75,-310.5 659.75,-316.5 659.75,-316.5 659.75,-391 659.75,-391 659.75,-397 653.75,-403 647.75,-403 647.75,-403 374,-403 374,-403 368,-403 362,-397 362,-391 362,-391 362,-316.5 362,-316.5 362,-310.5 368,-304.5 374,-304.5"/>
<text text-anchor="middle" x="510.88" y="-385.7" font-family="Times,serif" font-size="14.00" fill="#000000">Teaches physics</text>
<text text-anchor="middle" x="510.88" y="-369.2" font-family="Times,serif" font-size="14.00" fill="#000000">0x105a01d50</text>
<polyline fill="none" stroke="#99c2a2" points="362,-362 659.75,-362"/>
<text text-anchor="middle" x="406.75" y="-344.7" font-family="Times,serif" font-size="14.00" fill="#000000">Left</text>
<text text-anchor="middle" x="406.75" y="-328.2" font-family="Times,serif" font-size="14.00" fill="#000000">Nefor</text>
<text text-anchor="middle" x="406.75" y="-311.7" font-family="Times,serif" font-size="14.00" fill="#000000">0x105a01d20</text>
<polyline fill="none" stroke="#99c2a2" points="451.5,-304.5 451.5,-362"/>
<text text-anchor="middle" x="505.25" y="-344.7" font-family="Times,serif" font-size="14.00" fill="#000000">Parent</text>
<text text-anchor="middle" x="505.25" y="-328.2" font-family="Times,serif" font-size="14.00" fill="#000000">Teaches analisys</text>
<text text-anchor="middle" x="505.25" y="-311.7" font-family="Times,serif" font-size="14.00" fill="#000000">0x105a01de0</text>
<polyline fill="none" stroke="#99c2a2" points="559,-304.5 559,-362"/>
<text text-anchor="middle" x="609.38" y="-344.7" font-family="Times,serif" font-size="14.00" fill="#000000">Right</text>
<text text-anchor="middle" x="609.38" y="-328.2" font-family="Times,serif" font-size="14.00" fill="#000000">Teaches angem</text>
<text text-anchor="middle" x="609.38" y="-311.7" font-family="Times,serif" font-size="14.00" fill="#000000">0x105a01c90</text>
</g>
<!-- node0x105a01de0&#45;&gt;node0x105a01d50 -->
<g id="edge9" class="edge">
<title>node0x105a01de0:right&#45;&gt;node0x105a01d50</title>
<path fill="none" stroke="#48e818" stroke-width="2" d="M444,-456C444,-440.74 449.35,-426.02 457.03,-412.74"/>
<polygon fill="#48e818" stroke="#48e818" stroke-width="2" points="458.97,-416.22 461.36,-405.9 453.05,-412.47 458.97,-416.22"/>
<text text-anchor="middle" x="463.16" y="-424.7" font-family="Times,serif" font-size="14.00">Нет</text>
</g>
<!-- node0x105a01d20 -->
<g id="node7" class="node">
<title>node0x105a01d20</title>
<path fill="#d5cfe1" stroke="#8797b2" d="M149.38,-152.5C149.38,-152.5 404.38,-152.5 404.38,-152.5 410.38,-152.5 416.38,-158.5 416.38,-164.5 416.38,-164.5 416.38,-239 416.38,-239 416.38,-245 410.38,-251 404.38,-251 404.38,-251 149.38,-251 149.38,-251 143.38,-251 137.38,-245 137.38,-239 137.38,-239 137.38,-164.5 137.38,-164.5 137.38,-158.5 143.38,-152.5 149.38,-152.5"/>
<text text-anchor="middle" x="276.88" y="-233.7" font-family="Times,serif" font-size="14.00" fill="#000000">Nefor</text>
<text text-anchor="middle" x="276.88" y="-217.2" font-family="Times,serif" font-size="14.00" fill="#000000">0x105a01d20</text>
<polyline fill="none" stroke="#8797b2" points="137.38,-210 416.38,-210"/>
<text text-anchor="middle" x="180.62" y="-192.7" font-family="Times,serif" font-size="14.00" fill="#000000">Left</text>
<text text-anchor="middle" x="180.62" y="-176.2" font-family="Times,serif" font-size="14.00" fill="#000000">Magic</text>
<text text-anchor="middle" x="180.62" y="-159.7" font-family="Times,serif" font-size="14.00" fill="#000000">0x105a01cf0</text>
<polyline fill="none" stroke="#8797b2" points="223.88,-152.5 223.88,-210"/>
<text text-anchor="middle" x="276.12" y="-192.7" font-family="Times,serif" font-size="14.00" fill="#000000">Parent</text>
<text text-anchor="middle" x="276.12" y="-176.2" font-family="Times,serif" font-size="14.00" fill="#000000">Teaches physics</text>
<text text-anchor="middle" x="276.12" y="-159.7" font-family="Times,serif" font-size="14.00" fill="#000000">0x105a01d50</text>
<polyline fill="none" stroke="#8797b2" points="328.38,-152.5 328.38,-210"/>
<text text-anchor="middle" x="372.38" y="-192.7" font-family="Times,serif" font-size="14.00" fill="#000000">Right</text>
<text text-anchor="middle" x="372.38" y="-176.2" font-family="Times,serif" font-size="14.00" fill="#000000">Ovchos</text>
<text text-anchor="middle" x="372.38" y="-159.7" font-family="Times,serif" font-size="14.00" fill="#000000">0x105a01cc0</text>
</g>
<!-- node0x105a01d50&#45;&gt;node0x105a01d20 -->
<g id="edge3" class="edge">
<title>node0x105a01d50:left&#45;&gt;node0x105a01d20</title>
<path fill="none" stroke="#187ae8" stroke-width="2" d="M406.75,-304C406.75,-286.64 399.45,-271.83 388.31,-259.32"/>
<polygon fill="#187ae8" stroke="#187ae8" stroke-width="2" points="392.13,-258.21 382.6,-253.58 387.17,-263.14 392.13,-258.21"/>
<text text-anchor="middle" x="410.99" y="-272.7" font-family="Times,serif" font-size="14.00">Да</text>
</g>
<!-- node0x105a01c90 -->
<g id="node10" class="node">
<title>node0x105a01c90</title>
<path fill="#bdef9e" stroke="#99c2a2" d="M558.88,-152.5C558.88,-152.5 816.88,-152.5 816.88,-152.5 822.88,-152.5 828.88,-158.5 828.88,-164.5 828.88,-164.5 828.88,-239 828.88,-239 828.88,-245 822.88,-251 816.88,-251 816.88,-251 558.88,-251 558.88,-251 552.88,-251 546.88,-245 546.88,-239 546.88,-239 546.88,-164.5 546.88,-164.5 546.88,-158.5 552.88,-152.5 558.88,-152.5"/>
<text text-anchor="middle" x="687.88" y="-233.7" font-family="Times,serif" font-size="14.00" fill="#000000">Teaches angem</text>
<text text-anchor="middle" x="687.88" y="-217.2" font-family="Times,serif" font-size="14.00" fill="#000000">0x105a01c90</text>
<polyline fill="none" stroke="#99c2a2" points="546.88,-210 828.88,-210"/>
<text text-anchor="middle" x="591.25" y="-192.7" font-family="Times,serif" font-size="14.00" fill="#000000">Left</text>
<text text-anchor="middle" x="591.25" y="-176.2" font-family="Times,serif" font-size="14.00" fill="#000000">Chubarik</text>
<text text-anchor="middle" x="591.25" y="-159.7" font-family="Times,serif" font-size="14.00" fill="#000000">0x105a01c60</text>
<polyline fill="none" stroke="#99c2a2" points="635.62,-152.5 635.62,-210"/>
<text text-anchor="middle" x="687.88" y="-192.7" font-family="Times,serif" font-size="14.00" fill="#000000">Parent</text>
<text text-anchor="middle" x="687.88" y="-176.2" font-family="Times,serif" font-size="14.00" fill="#000000">Teaches physics</text>
<text text-anchor="middle" x="687.88" y="-159.7" font-family="Times,serif" font-size="14.00" fill="#000000">0x105a01d50</text>
<polyline fill="none" stroke="#99c2a2" points="740.12,-152.5 740.12,-210"/>
<text text-anchor="middle" x="784.5" y="-192.7" font-family="Times,serif" font-size="14.00" fill="#000000">Right</text>
<text text-anchor="middle" x="784.5" y="-176.2" font-family="Times,serif" font-size="14.00" fill="#000000">Do sport</text>
<text text-anchor="middle" x="784.5" y="-159.7" font-family="Times,serif" font-size="14.00" fill="#000000">0x105a01c30</text>
</g>
<!-- node0x105a01d50&#45;&gt;node0x105a01c90 -->
<g id="edge8" class="edge">
<title>node0x105a01d50:right&#45;&gt;node0x105a01c90</title>
<path fill="none" stroke="#48e818" stroke-width="2" d="M660.75,-333.25C691.94,-333.25 697.8,-297.08 696.37,-262.83"/>
<polygon fill="#48e818" stroke="#48e818" stroke-width="2" points="699.96,-264.12 695.82,-254.36 692.97,-264.57 699.96,-264.12"/>
<text text-anchor="middle" x="707.44" y="-272.7" font-family="Times,serif" font-size="14.00">Нет</text>
</g>
<!-- node0x105a01cf0 -->
<g id="node8" class="node">
<title>node0x105a01cf0</title>
<path fill="#d5cfe1" stroke="#8797b2" d="M70.62,-0.5C70.62,-0.5 243.12,-0.5 243.12,-0.5 249.12,-0.5 255.12,-6.5 255.12,-12.5 255.12,-12.5 255.12,-87 255.12,-87 255.12,-93 249.12,-99 243.12,-99 243.12,-99 70.62,-99 70.62,-99 64.63,-99 58.62,-93 58.62,-87 58.62,-87 58.62,-12.5 58.62,-12.5 58.62,-6.5 64.62,-0.5 70.62,-0.5"/>
<text text-anchor="middle" x="156.88" y="-81.7" font-family="Times,serif" font-size="14.00" fill="#000000">Magic</text>
<text text-anchor="middle" x="156.88" y="-65.2" font-family="Times,serif" font-size="14.00" fill="#000000">0x105a01cf0</text>
<polyline fill="none" stroke="#8797b2" points="58.62,-58 255.12,-58"/>
<text text-anchor="middle" x="85.38" y="-40.7" font-family="Times,serif" font-size="14.00" fill="#000000">Left</text>
<text text-anchor="middle" x="85.38" y="-24.2" font-family="Times,serif" font-size="14.00" fill="#000000">NONE</text>
<text text-anchor="middle" x="85.38" y="-7.7" font-family="Times,serif" font-size="14.00" fill="#000000">0x0</text>
<polyline fill="none" stroke="#8797b2" points="112.12,-0.5 112.12,-58"/>
<text text-anchor="middle" x="156.88" y="-40.7" font-family="Times,serif" font-size="14.00" fill="#000000">Parent</text>
<text text-anchor="middle" x="156.88" y="-24.2" font-family="Times,serif" font-size="14.00" fill="#000000">Nefor</text>
<text text-anchor="middle" x="156.88" y="-7.7" font-family="Times,serif" font-size="14.00" fill="#000000">0x105a01d20</text>
<polyline fill="none" stroke="#8797b2" points="201.62,-0.5 201.62,-58"/>
<text text-anchor="middle" x="228.38" y="-40.7" font-family="Times,serif" font-size="14.00" fill="#000000">Right</text>
<text text-anchor="middle" x="228.38" y="-24.2" font-family="Times,serif" font-size="14.00" fill="#000000">NONE</text>
<text text-anchor="middle" x="228.38" y="-7.7" font-family="Times,serif" font-size="14.00" fill="#000000">0x0</text>
</g>
<!-- node0x105a01d20&#45;&gt;node0x105a01cf0 -->
<g id="edge4" class="edge">
<title>node0x105a01d20:left&#45;&gt;node0x105a01cf0</title>
<path fill="none" stroke="#187ae8" stroke-width="2" d="M180.62,-152C180.62,-138.39 178.57,-124.01 175.66,-110.5"/>
<polygon fill="#187ae8" stroke="#187ae8" stroke-width="2" points="179.44,-111.27 173.74,-102.34 172.62,-112.88 179.44,-111.27"/>
<text text-anchor="middle" x="187.23" y="-120.7" font-family="Times,serif" font-size="14.00">Да</text>
</g>
<!-- node0x105a01cc0 -->
<g id="node9" class="node">
<title>node0x105a01cc0</title>
<path fill="#bdef9e" stroke="#99c2a2" d="M285.62,-0.5C285.62,-0.5 458.12,-0.5 458.12,-0.5 464.12,-0.5 470.12,-6.5 470.12,-12.5 470.12,-12.5 470.12,-87 470.12,-87 470.12,-93 464.12,-99 458.12,-99 458.12,-99 285.62,-99 285.62,-99 279.62,-99 273.62,-93 273.62,-87 273.62,-87 273.62,-12.5 273.62,-12.5 273.62,-6.5 279.62,-0.5 285.62,-0.5"/>
<text text-anchor="middle" x="371.88" y="-81.7" font-family="Times,serif" font-size="14.00" fill="#000000">Ovchos</text>
<text text-anchor="middle" x="371.88" y="-65.2" font-family="Times,serif" font-size="14.00" fill="#000000">0x105a01cc0</text>
<polyline fill="none" stroke="#99c2a2" points="273.62,-58 470.12,-58"/>
<text text-anchor="middle" x="300.38" y="-40.7" font-family="Times,serif" font-size="14.00" fill="#000000">Left</text>
<text text-anchor="middle" x="300.38" y="-24.2" font-family="Times,serif" font-size="14.00" fill="#000000">NONE</text>
<text text-anchor="middle" x="300.38" y="-7.7" font-family="Times,serif" font-size="14.00" fill="#000000">0x0</text>
<polyline fill="none" stroke="#99c2a2" points="327.12,-0.5 327.12,-58"/>
<text text-anchor="middle" x="371.88" y="-40.7" font-family="Times,serif" font-size="14.00" fill="#000000">Parent</text>
<text text-anchor="middle" x="371.88" y="-24.2" font-family="Times,serif" font-size="14.00" fill="#000000">Nefor</text>
<text text-anchor="middle" x="371.88" y="-7.7" font-family="Times,serif" font-size="14.00" fill="#000000">0x105a01d20</text>
<polyline fill="none" stroke="#99c2a2" points="416.62,-0.5 416.62,-58"/>
<text text-anchor="middle" x="443.38" y="-40.7" font-family="Times,serif" font-size="14.00" fill="#000000">Right</text>
<text text-anchor="middle" x="443.38" y="-24.2" font-family="Times,serif" font-size="14.00" fill="#000000">NONE</text>
<text text-anchor="middle" x="443.38" y="-7.7" font-family="Times,serif" font-size="14.00" fill="#000000">0x0</text>
</g>
<!-- node0x105a01d20&#45;&gt;node0x105a01cc0 -->
<g id="edge5" class="edge">
<title>node0x105a01d20:right&#45;&gt;node0x105a01cc0</title>
<path fill="none" stroke="#48e818" stroke-width="2" d="M372.38,-152C372.38,-138.61 372.33,-124.22 372.27,-110.62"/>
<polygon fill="#48e818" stroke="#48e818" stroke-width="2" points="375.78,-112.43 372.23,-102.44 368.78,-112.46 375.78,-112.43"/>
<text text-anchor="middle" x="383.22" y="-120.7" font-family="Times,serif" font-size="14.00">Нет</text>
</g>
<!-- node0x105a01c90&#45;&gt;node0x105a01c30 -->
<g id="edge7" class="edge">
<title>node0x105a01c90:right&#45;&gt;node0x105a01c30</title>
<path fill="none" stroke="#48e818" stroke-width="2" d="M784.5,-152C784.5,-138.05 787.39,-123.54 791.47,-110.01"/>
<polygon fill="#48e818" stroke="#48e818" stroke-width="2" points="794.22,-112.87 794.02,-102.27 787.57,-110.68 794.22,-112.87"/>
<text text-anchor="middle" x="800.22" y="-120.7" font-family="Times,serif" font-size="14.00">Нет</text>
</g>
<!-- node0x105a01c60 -->
<g id="node11" class="node">
<title>node0x105a01c60</title>
<path fill="#d5cfe1" stroke="#8797b2" d="M500,-0.5C500,-0.5 683.75,-0.5 683.75,-0.5 689.75,-0.5 695.75,-6.5 695.75,-12.5 695.75,-12.5 695.75,-87 695.75,-87 695.75,-93 689.75,-99 683.75,-99 683.75,-99 500,-99 500,-99 494,-99 488,-93 488,-87 488,-87 488,-12.5 488,-12.5 488,-6.5 494,-0.5 500,-0.5"/>
<text text-anchor="middle" x="591.88" y="-81.7" font-family="Times,serif" font-size="14.00" fill="#000000">Chubarik</text>
<text text-anchor="middle" x="591.88" y="-65.2" font-family="Times,serif" font-size="14.00" fill="#000000">0x105a01c60</text>
<polyline fill="none" stroke="#8797b2" points="488,-58 695.75,-58"/>
<text text-anchor="middle" x="514.75" y="-40.7" font-family="Times,serif" font-size="14.00" fill="#000000">Left</text>
<text text-anchor="middle" x="514.75" y="-24.2" font-family="Times,serif" font-size="14.00" fill="#000000">NONE</text>
<text text-anchor="middle" x="514.75" y="-7.7" font-family="Times,serif" font-size="14.00" fill="#000000">0x0</text>
<polyline fill="none" stroke="#8797b2" points="541.5,-0.5 541.5,-58"/>
<text text-anchor="middle" x="591.88" y="-40.7" font-family="Times,serif" font-size="14.00" fill="#000000">Parent</text>
<text text-anchor="middle" x="591.88" y="-24.2" font-family="Times,serif" font-size="14.00" fill="#000000">Teaches angem</text>
<text text-anchor="middle" x="591.88" y="-7.7" font-family="Times,serif" font-size="14.00" fill="#000000">0x105a01c90</text>
<polyline fill="none" stroke="#8797b2" points="642.25,-0.5 642.25,-58"/>
<text text-anchor="middle" x="669" y="-40.7" font-family="Times,serif" font-size="14.00" fill="#000000">Right</text>
<text text-anchor="middle" x="669" y="-24.2" font-family="Times,serif" font-size="14.00" fill="#000000">NONE</text>
<text text-anchor="middle" x="669" y="-7.7" font-family="Times,serif" font-size="14.00" fill="#000000">0x0</text>
</g>
<!-- node0x105a01c90&#45;&gt;node0x105a01c60 -->
<g id="edge6" class="edge">
<title>node0x105a01c90:left&#45;&gt;node0x105a01c60</title>
<path fill="none" stroke="#187ae8" stroke-width="2" d="M591.25,-152C591.25,-138.61 591.31,-124.22 591.38,-110.62"/>
<polygon fill="#187ae8" stroke="#187ae8" stroke-width="2" points="594.87,-112.47 591.43,-102.44 587.87,-112.42 594.87,-112.47"/>
<text text-anchor="middle" x="599.22" y="-120.7" font-family="Times,serif" font-size="14.00">Да</text>
</g>
</g>
</svg>
