<?xml version="1.0" encoding="UTF-8" standalone="no"?>
<!DOCTYPE svg PUBLIC "-//W3C//DTD SVG 1.1//EN"
 "http://www.w3.org/Graphics/SVG/1.1/DTD/svg11.dtd">
<!-- Generated by graphviz version 12.2.0 (20241103.1931)
 -->
<!-- Pages: 1 -->
<svg width="979pt" height="1020pt"
 viewBox="0.00 0.00 978.88 1019.50" xmlns="http://www.w3.org/2000/svg" xmlns:xlink="http://www.w3.org/1999/xlink">
<g id="graph0" class="graph" transform="scale(1 1) rotate(0) translate(4 1015.5)">
<polygon fill="#dcdcdc" stroke="none" points="-4,4 -4,-1015.5 974.88,-1015.5 974.88,4 -4,4"/>
<!-- node0x107601e10 -->
<g id="node1" class="node">
<title>node0x107601e10</title>
<path fill="#fbee21" stroke="#d3c70d" d="M118,-912.5C118,-912.5 344.5,-912.5 344.5,-912.5 350.5,-912.5 356.5,-918.5 356.5,-924.5 356.5,-924.5 356.5,-999 356.5,-999 356.5,-1005 350.5,-1011 344.5,-1011 344.5,-1011 118,-1011 118,-1011 112,-1011 106,-1005 106,-999 106,-999 106,-924.5 106,-924.5 106,-918.5 112,-912.5 118,-912.5"/>
<text text-anchor="middle" x="231.25" y="-993.7" font-family="Times,serif" font-size="14.00" fill="#000000">Animal</text>
<text text-anchor="middle" x="231.25" y="-977.2" font-family="Times,serif" font-size="14.00" fill="#000000">0x107601e10</text>
<polyline fill="none" stroke="#d3c70d" points="106,-970 356.5,-970"/>
<text text-anchor="middle" x="150.75" y="-952.7" font-family="Times,serif" font-size="14.00" fill="#000000">Left</text>
<text text-anchor="middle" x="150.75" y="-936.2" font-family="Times,serif" font-size="14.00" fill="#000000">Poltorashka</text>
<text text-anchor="middle" x="150.75" y="-919.7" font-family="Times,serif" font-size="14.00" fill="#000000">0x107601de0</text>
<polyline fill="none" stroke="#d3c70d" points="195.5,-912.5 195.5,-970"/>
<text text-anchor="middle" x="222.25" y="-952.7" font-family="Times,serif" font-size="14.00" fill="#000000">Parent</text>
<text text-anchor="middle" x="222.25" y="-936.2" font-family="Times,serif" font-size="14.00" fill="#000000">NONE</text>
<text text-anchor="middle" x="222.25" y="-919.7" font-family="Times,serif" font-size="14.00" fill="#000000">0x0</text>
<polyline fill="none" stroke="#d3c70d" points="249,-912.5 249,-970"/>
<text text-anchor="middle" x="302.75" y="-952.7" font-family="Times,serif" font-size="14.00" fill="#000000">Right</text>
<text text-anchor="middle" x="302.75" y="-936.2" font-family="Times,serif" font-size="14.00" fill="#000000">Teaches analisys</text>
<text text-anchor="middle" x="302.75" y="-919.7" font-family="Times,serif" font-size="14.00" fill="#000000">0x107601db0</text>
</g>
<!-- node0x107601de0 -->
<g id="node2" class="node">
<title>node0x107601de0</title>
<path fill="#d5cfe1" stroke="#8797b2" d="M12,-760.5C12,-760.5 184.5,-760.5 184.5,-760.5 190.5,-760.5 196.5,-766.5 196.5,-772.5 196.5,-772.5 196.5,-847 196.5,-847 196.5,-853 190.5,-859 184.5,-859 184.5,-859 12,-859 12,-859 6,-859 0,-853 0,-847 0,-847 0,-772.5 0,-772.5 0,-766.5 6,-760.5 12,-760.5"/>
<text text-anchor="middle" x="98.25" y="-841.7" font-family="Times,serif" font-size="14.00" fill="#000000">Poltorashka</text>
<text text-anchor="middle" x="98.25" y="-825.2" font-family="Times,serif" font-size="14.00" fill="#000000">0x107601de0</text>
<polyline fill="none" stroke="#8797b2" points="0,-818 196.5,-818"/>
<text text-anchor="middle" x="26.75" y="-800.7" font-family="Times,serif" font-size="14.00" fill="#000000">Left</text>
<text text-anchor="middle" x="26.75" y="-784.2" font-family="Times,serif" font-size="14.00" fill="#000000">NONE</text>
<text text-anchor="middle" x="26.75" y="-767.7" font-family="Times,serif" font-size="14.00" fill="#000000">0x0</text>
<polyline fill="none" stroke="#8797b2" points="53.5,-760.5 53.5,-818"/>
<text text-anchor="middle" x="98.25" y="-800.7" font-family="Times,serif" font-size="14.00" fill="#000000">Parent</text>
<text text-anchor="middle" x="98.25" y="-784.2" font-family="Times,serif" font-size="14.00" fill="#000000">Animal</text>
<text text-anchor="middle" x="98.25" y="-767.7" font-family="Times,serif" font-size="14.00" fill="#000000">0x107601e10</text>
<polyline fill="none" stroke="#8797b2" points="143,-760.5 143,-818"/>
<text text-anchor="middle" x="169.75" y="-800.7" font-family="Times,serif" font-size="14.00" fill="#000000">Right</text>
<text text-anchor="middle" x="169.75" y="-784.2" font-family="Times,serif" font-size="14.00" fill="#000000">NONE</text>
<text text-anchor="middle" x="169.75" y="-767.7" font-family="Times,serif" font-size="14.00" fill="#000000">0x0</text>
</g>
<!-- node0x107601e10&#45;&gt;node0x107601de0 -->
<g id="edge1" class="edge">
<title>node0x107601e10:left&#45;&gt;node0x107601de0</title>
<path fill="none" stroke="#187ae8" stroke-width="2" d="M105,-941.25C74.29,-941.25 74.17,-904.77 80.87,-870.38"/>
<polygon fill="#187ae8" stroke="#187ae8" stroke-width="2" points="83.93,-872.82 82.62,-862.3 77.09,-871.34 83.93,-872.82"/>
<text text-anchor="middle" x="87.09" y="-880.7" font-family="Times,serif" font-size="14.00">Да</text>
</g>
<!-- node0x107601db0 -->
<g id="node4" class="node">
<title>node0x107601db0</title>
<path fill="#bdef9e" stroke="#99c2a2" d="M226.12,-760.5C226.12,-760.5 486.38,-760.5 486.38,-760.5 492.38,-760.5 498.38,-766.5 498.38,-772.5 498.38,-772.5 498.38,-847 498.38,-847 498.38,-853 492.38,-859 486.38,-859 486.38,-859 226.12,-859 226.12,-859 220.12,-859 214.12,-853 214.12,-847 214.12,-847 214.12,-772.5 214.12,-772.5 214.12,-766.5 220.12,-760.5 226.12,-760.5"/>
<text text-anchor="middle" x="356.25" y="-841.7" font-family="Times,serif" font-size="14.00" fill="#000000">Teaches analisys</text>
<text text-anchor="middle" x="356.25" y="-825.2" font-family="Times,serif" font-size="14.00" fill="#000000">0x107601db0</text>
<polyline fill="none" stroke="#99c2a2" points="214.12,-818 498.38,-818"/>
<text text-anchor="middle" x="259.25" y="-800.7" font-family="Times,serif" font-size="14.00" fill="#000000">Left</text>
<text text-anchor="middle" x="259.25" y="-784.2" font-family="Times,serif" font-size="14.00" fill="#000000">Burtsev</text>
<text text-anchor="middle" x="259.25" y="-767.7" font-family="Times,serif" font-size="14.00" fill="#000000">0x107601d50</text>
<polyline fill="none" stroke="#99c2a2" points="304.38,-760.5 304.38,-818"/>
<text text-anchor="middle" x="349.12" y="-800.7" font-family="Times,serif" font-size="14.00" fill="#000000">Parent</text>
<text text-anchor="middle" x="349.12" y="-784.2" font-family="Times,serif" font-size="14.00" fill="#000000">Animal</text>
<text text-anchor="middle" x="349.12" y="-767.7" font-family="Times,serif" font-size="14.00" fill="#000000">0x107601e10</text>
<polyline fill="none" stroke="#99c2a2" points="393.88,-760.5 393.88,-818"/>
<text text-anchor="middle" x="446.12" y="-800.7" font-family="Times,serif" font-size="14.00" fill="#000000">Right</text>
<text text-anchor="middle" x="446.12" y="-784.2" font-family="Times,serif" font-size="14.00" fill="#000000">Teaches physics</text>
<text text-anchor="middle" x="446.12" y="-767.7" font-family="Times,serif" font-size="14.00" fill="#000000">0x107601d20</text>
</g>
<!-- node0x107601e10&#45;&gt;node0x107601db0 -->
<g id="edge13" class="edge">
<title>node0x107601e10:right&#45;&gt;node0x107601db0</title>
<path fill="none" stroke="#48e818" stroke-width="2" d="M302.75,-912C302.75,-897.35 307.19,-882.74 313.5,-869.36"/>
<polygon fill="#48e818" stroke="#48e818" stroke-width="2" points="315.78,-872.57 317.27,-862.08 309.56,-869.36 315.78,-872.57"/>
<text text-anchor="middle" x="320.25" y="-880.7" font-family="Times,serif" font-size="14.00">Нет</text>
</g>
<!-- node0x107601b40 -->
<g id="node3" class="node">
<title>node0x107601b40</title>
<path fill="#f18805" stroke="#af3800" d="M785.62,-0.5C785.62,-0.5 958.88,-0.5 958.88,-0.5 964.88,-0.5 970.88,-6.5 970.88,-12.5 970.88,-12.5 970.88,-87 970.88,-87 970.88,-93 964.88,-99 958.88,-99 958.88,-99 785.62,-99 785.62,-99 779.62,-99 773.62,-93 773.62,-87 773.62,-87 773.62,-12.5 773.62,-12.5 773.62,-6.5 779.62,-0.5 785.62,-0.5"/>
<text text-anchor="middle" x="872.25" y="-81.7" font-family="Times,serif" font-size="14.00" fill="#000000">IN KARTEL</text>
<text text-anchor="middle" x="872.25" y="-65.2" font-family="Times,serif" font-size="14.00" fill="#000000">0x107601b40</text>
<polyline fill="none" stroke="#af3800" points="773.62,-58 970.88,-58"/>
<text text-anchor="middle" x="800.38" y="-40.7" font-family="Times,serif" font-size="14.00" fill="#000000">Left</text>
<text text-anchor="middle" x="800.38" y="-24.2" font-family="Times,serif" font-size="14.00" fill="#000000">NONE</text>
<text text-anchor="middle" x="800.38" y="-7.7" font-family="Times,serif" font-size="14.00" fill="#000000">0x0</text>
<polyline fill="none" stroke="#af3800" points="827.12,-0.5 827.12,-58"/>
<text text-anchor="middle" x="872.25" y="-40.7" font-family="Times,serif" font-size="14.00" fill="#000000">Parent</text>
<text text-anchor="middle" x="872.25" y="-24.2" font-family="Times,serif" font-size="14.00" fill="#000000">Coach</text>
<text text-anchor="middle" x="872.25" y="-7.7" font-family="Times,serif" font-size="14.00" fill="#000000">0x107601bd0</text>
<polyline fill="none" stroke="#af3800" points="917.38,-0.5 917.38,-58"/>
<text text-anchor="middle" x="944.12" y="-40.7" font-family="Times,serif" font-size="14.00" fill="#000000">Right</text>
<text text-anchor="middle" x="944.12" y="-24.2" font-family="Times,serif" font-size="14.00" fill="#000000">NONE</text>
<text text-anchor="middle" x="944.12" y="-7.7" font-family="Times,serif" font-size="14.00" fill="#000000">0x0</text>
</g>
<!-- node0x107601d50 -->
<g id="node5" class="node">
<title>node0x107601d50</title>
<path fill="#d5cfe1" stroke="#8797b2" d="M142,-608.5C142,-608.5 332.5,-608.5 332.5,-608.5 338.5,-608.5 344.5,-614.5 344.5,-620.5 344.5,-620.5 344.5,-695 344.5,-695 344.5,-701 338.5,-707 332.5,-707 332.5,-707 142,-707 142,-707 136,-707 130,-701 130,-695 130,-695 130,-620.5 130,-620.5 130,-614.5 136,-608.5 142,-608.5"/>
<text text-anchor="middle" x="237.25" y="-689.7" font-family="Times,serif" font-size="14.00" fill="#000000">Burtsev</text>
<text text-anchor="middle" x="237.25" y="-673.2" font-family="Times,serif" font-size="14.00" fill="#000000">0x107601d50</text>
<polyline fill="none" stroke="#8797b2" points="130,-666 344.5,-666"/>
<text text-anchor="middle" x="156.75" y="-648.7" font-family="Times,serif" font-size="14.00" fill="#000000">Left</text>
<text text-anchor="middle" x="156.75" y="-632.2" font-family="Times,serif" font-size="14.00" fill="#000000">NONE</text>
<text text-anchor="middle" x="156.75" y="-615.7" font-family="Times,serif" font-size="14.00" fill="#000000">0x0</text>
<polyline fill="none" stroke="#8797b2" points="183.5,-608.5 183.5,-666"/>
<text text-anchor="middle" x="237.25" y="-648.7" font-family="Times,serif" font-size="14.00" fill="#000000">Parent</text>
<text text-anchor="middle" x="237.25" y="-632.2" font-family="Times,serif" font-size="14.00" fill="#000000">Teaches analisys</text>
<text text-anchor="middle" x="237.25" y="-615.7" font-family="Times,serif" font-size="14.00" fill="#000000">0x107601db0</text>
<polyline fill="none" stroke="#8797b2" points="291,-608.5 291,-666"/>
<text text-anchor="middle" x="317.75" y="-648.7" font-family="Times,serif" font-size="14.00" fill="#000000">Right</text>
<text text-anchor="middle" x="317.75" y="-632.2" font-family="Times,serif" font-size="14.00" fill="#000000">NONE</text>
<text text-anchor="middle" x="317.75" y="-615.7" font-family="Times,serif" font-size="14.00" fill="#000000">0x0</text>
</g>
<!-- node0x107601db0&#45;&gt;node0x107601d50 -->
<g id="edge2" class="edge">
<title>node0x107601db0:left&#45;&gt;node0x107601d50</title>
<path fill="none" stroke="#187ae8" stroke-width="2" d="M259.25,-760C259.25,-746.44 257.34,-732.08 254.65,-718.58"/>
<polygon fill="#187ae8" stroke="#187ae8" stroke-width="2" points="258.42,-719.45 252.87,-710.43 251.58,-720.94 258.42,-719.45"/>
<text text-anchor="middle" x="265.95" y="-728.7" font-family="Times,serif" font-size="14.00">Да</text>
</g>
<!-- node0x107601d20 -->
<g id="node6" class="node">
<title>node0x107601d20</title>
<path fill="#bdef9e" stroke="#99c2a2" d="M374.5,-608.5C374.5,-608.5 646,-608.5 646,-608.5 652,-608.5 658,-614.5 658,-620.5 658,-620.5 658,-695 658,-695 658,-701 652,-707 646,-707 646,-707 374.5,-707 374.5,-707 368.5,-707 362.5,-701 362.5,-695 362.5,-695 362.5,-620.5 362.5,-620.5 362.5,-614.5 368.5,-608.5 374.5,-608.5"/>
<text text-anchor="middle" x="510.25" y="-689.7" font-family="Times,serif" font-size="14.00" fill="#000000">Teaches physics</text>
<text text-anchor="middle" x="510.25" y="-673.2" font-family="Times,serif" font-size="14.00" fill="#000000">0x107601d20</text>
<polyline fill="none" stroke="#99c2a2" points="362.5,-666 658,-666"/>
<text text-anchor="middle" x="406.12" y="-648.7" font-family="Times,serif" font-size="14.00" fill="#000000">Left</text>
<text text-anchor="middle" x="406.12" y="-632.2" font-family="Times,serif" font-size="14.00" fill="#000000">Nefor</text>
<text text-anchor="middle" x="406.12" y="-615.7" font-family="Times,serif" font-size="14.00" fill="#000000">0x107601cf0</text>
<polyline fill="none" stroke="#99c2a2" points="449.75,-608.5 449.75,-666"/>
<text text-anchor="middle" x="503.5" y="-648.7" font-family="Times,serif" font-size="14.00" fill="#000000">Parent</text>
<text text-anchor="middle" x="503.5" y="-632.2" font-family="Times,serif" font-size="14.00" fill="#000000">Teaches analisys</text>
<text text-anchor="middle" x="503.5" y="-615.7" font-family="Times,serif" font-size="14.00" fill="#000000">0x107601db0</text>
<polyline fill="none" stroke="#99c2a2" points="557.25,-608.5 557.25,-666"/>
<text text-anchor="middle" x="607.62" y="-648.7" font-family="Times,serif" font-size="14.00" fill="#000000">Right</text>
<text text-anchor="middle" x="607.62" y="-632.2" font-family="Times,serif" font-size="14.00" fill="#000000">Teaches angem</text>
<text text-anchor="middle" x="607.62" y="-615.7" font-family="Times,serif" font-size="14.00" fill="#000000">0x107601c60</text>
</g>
<!-- node0x107601db0&#45;&gt;node0x107601d20 -->
<g id="edge12" class="edge">
<title>node0x107601db0:right&#45;&gt;node0x107601d20</title>
<path fill="none" stroke="#48e818" stroke-width="2" d="M446.12,-760C446.12,-744.99 451.21,-730.41 458.52,-717.2"/>
<polygon fill="#48e818" stroke="#48e818" stroke-width="2" points="460.72,-720.32 462.93,-709.96 454.74,-716.68 460.72,-720.32"/>
<text text-anchor="middle" x="464.95" y="-728.7" font-family="Times,serif" font-size="14.00">Нет</text>
</g>
<!-- node0x107601cf0 -->
<g id="node7" class="node">
<title>node0x107601cf0</title>
<path fill="#d5cfe1" stroke="#8797b2" d="M145.88,-456.5C145.88,-456.5 404.62,-456.5 404.62,-456.5 410.62,-456.5 416.62,-462.5 416.62,-468.5 416.62,-468.5 416.62,-543 416.62,-543 416.62,-549 410.62,-555 404.62,-555 404.62,-555 145.88,-555 145.88,-555 139.88,-555 133.88,-549 133.88,-543 133.88,-543 133.88,-468.5 133.88,-468.5 133.88,-462.5 139.88,-456.5 145.88,-456.5"/>
<text text-anchor="middle" x="275.25" y="-537.7" font-family="Times,serif" font-size="14.00" fill="#000000">Nefor</text>
<text text-anchor="middle" x="275.25" y="-521.2" font-family="Times,serif" font-size="14.00" fill="#000000">0x107601cf0</text>
<polyline fill="none" stroke="#8797b2" points="133.88,-514 416.62,-514"/>
<text text-anchor="middle" x="178.25" y="-496.7" font-family="Times,serif" font-size="14.00" fill="#000000">Left</text>
<text text-anchor="middle" x="178.25" y="-480.2" font-family="Times,serif" font-size="14.00" fill="#000000">Magic</text>
<text text-anchor="middle" x="178.25" y="-463.7" font-family="Times,serif" font-size="14.00" fill="#000000">0x107601cc0</text>
<polyline fill="none" stroke="#8797b2" points="222.62,-456.5 222.62,-514"/>
<text text-anchor="middle" x="274.88" y="-496.7" font-family="Times,serif" font-size="14.00" fill="#000000">Parent</text>
<text text-anchor="middle" x="274.88" y="-480.2" font-family="Times,serif" font-size="14.00" fill="#000000">Teaches physics</text>
<text text-anchor="middle" x="274.88" y="-463.7" font-family="Times,serif" font-size="14.00" fill="#000000">0x107601d20</text>
<polyline fill="none" stroke="#8797b2" points="327.12,-456.5 327.12,-514"/>
<text text-anchor="middle" x="371.88" y="-496.7" font-family="Times,serif" font-size="14.00" fill="#000000">Right</text>
<text text-anchor="middle" x="371.88" y="-480.2" font-family="Times,serif" font-size="14.00" fill="#000000">Ovchos</text>
<text text-anchor="middle" x="371.88" y="-463.7" font-family="Times,serif" font-size="14.00" fill="#000000">0x107601c90</text>
</g>
<!-- node0x107601d20&#45;&gt;node0x107601cf0 -->
<g id="edge3" class="edge">
<title>node0x107601d20:left&#45;&gt;node0x107601cf0</title>
<path fill="none" stroke="#187ae8" stroke-width="2" d="M406.12,-608C406.12,-590.56 398.77,-575.7 387.54,-563.17"/>
<polygon fill="#187ae8" stroke="#187ae8" stroke-width="2" points="391.33,-562.01 381.78,-557.42 386.38,-566.96 391.33,-562.01"/>
<text text-anchor="middle" x="410.34" y="-576.7" font-family="Times,serif" font-size="14.00">Да</text>
</g>
<!-- node0x107601c60 -->
<g id="node10" class="node">
<title>node0x107601c60</title>
<path fill="#bdef9e" stroke="#99c2a2" d="M557.5,-456.5C557.5,-456.5 817,-456.5 817,-456.5 823,-456.5 829,-462.5 829,-468.5 829,-468.5 829,-543 829,-543 829,-549 823,-555 817,-555 817,-555 557.5,-555 557.5,-555 551.5,-555 545.5,-549 545.5,-543 545.5,-543 545.5,-468.5 545.5,-468.5 545.5,-462.5 551.5,-456.5 557.5,-456.5"/>
<text text-anchor="middle" x="687.25" y="-537.7" font-family="Times,serif" font-size="14.00" fill="#000000">Teaches angem</text>
<text text-anchor="middle" x="687.25" y="-521.2" font-family="Times,serif" font-size="14.00" fill="#000000">0x107601c60</text>
<polyline fill="none" stroke="#99c2a2" points="545.5,-514 829,-514"/>
<text text-anchor="middle" x="590.25" y="-496.7" font-family="Times,serif" font-size="14.00" fill="#000000">Left</text>
<text text-anchor="middle" x="590.25" y="-480.2" font-family="Times,serif" font-size="14.00" fill="#000000">Chubarik</text>
<text text-anchor="middle" x="590.25" y="-463.7" font-family="Times,serif" font-size="14.00" fill="#000000">0x107601c30</text>
<polyline fill="none" stroke="#99c2a2" points="635,-456.5 635,-514"/>
<text text-anchor="middle" x="687.25" y="-496.7" font-family="Times,serif" font-size="14.00" fill="#000000">Parent</text>
<text text-anchor="middle" x="687.25" y="-480.2" font-family="Times,serif" font-size="14.00" fill="#000000">Teaches physics</text>
<text text-anchor="middle" x="687.25" y="-463.7" font-family="Times,serif" font-size="14.00" fill="#000000">0x107601d20</text>
<polyline fill="none" stroke="#99c2a2" points="739.5,-456.5 739.5,-514"/>
<text text-anchor="middle" x="784.25" y="-496.7" font-family="Times,serif" font-size="14.00" fill="#000000">Right</text>
<text text-anchor="middle" x="784.25" y="-480.2" font-family="Times,serif" font-size="14.00" fill="#000000">Do sport</text>
<text text-anchor="middle" x="784.25" y="-463.7" font-family="Times,serif" font-size="14.00" fill="#000000">0x107601c00</text>
</g>
<!-- node0x107601d20&#45;&gt;node0x107601c60 -->
<g id="edge11" class="edge">
<title>node0x107601d20:right&#45;&gt;node0x107601c60</title>
<path fill="none" stroke="#48e818" stroke-width="2" d="M659,-637.25C690.24,-637.25 696.42,-601.08 695.26,-566.83"/>
<polygon fill="#48e818" stroke="#48e818" stroke-width="2" points="698.84,-568.15 694.79,-558.37 691.85,-568.55 698.84,-568.15"/>
<text text-anchor="middle" x="706.26" y="-576.7" font-family="Times,serif" font-size="14.00">Нет</text>
</g>
<!-- node0x107601cc0 -->
<g id="node8" class="node">
<title>node0x107601cc0</title>
<path fill="#d5cfe1" stroke="#8797b2" d="M74.12,-304.5C74.12,-304.5 244.38,-304.5 244.38,-304.5 250.38,-304.5 256.38,-310.5 256.38,-316.5 256.38,-316.5 256.38,-391 256.38,-391 256.38,-397 250.38,-403 244.38,-403 244.38,-403 74.12,-403 74.12,-403 68.13,-403 62.12,-397 62.12,-391 62.12,-391 62.12,-316.5 62.12,-316.5 62.12,-310.5 68.12,-304.5 74.12,-304.5"/>
<text text-anchor="middle" x="159.25" y="-385.7" font-family="Times,serif" font-size="14.00" fill="#000000">Magic</text>
<text text-anchor="middle" x="159.25" y="-369.2" font-family="Times,serif" font-size="14.00" fill="#000000">0x107601cc0</text>
<polyline fill="none" stroke="#8797b2" points="62.12,-362 256.38,-362"/>
<text text-anchor="middle" x="88.88" y="-344.7" font-family="Times,serif" font-size="14.00" fill="#000000">Left</text>
<text text-anchor="middle" x="88.88" y="-328.2" font-family="Times,serif" font-size="14.00" fill="#000000">NONE</text>
<text text-anchor="middle" x="88.88" y="-311.7" font-family="Times,serif" font-size="14.00" fill="#000000">0x0</text>
<polyline fill="none" stroke="#8797b2" points="115.62,-304.5 115.62,-362"/>
<text text-anchor="middle" x="159.25" y="-344.7" font-family="Times,serif" font-size="14.00" fill="#000000">Parent</text>
<text text-anchor="middle" x="159.25" y="-328.2" font-family="Times,serif" font-size="14.00" fill="#000000">Nefor</text>
<text text-anchor="middle" x="159.25" y="-311.7" font-family="Times,serif" font-size="14.00" fill="#000000">0x107601cf0</text>
<polyline fill="none" stroke="#8797b2" points="202.88,-304.5 202.88,-362"/>
<text text-anchor="middle" x="229.62" y="-344.7" font-family="Times,serif" font-size="14.00" fill="#000000">Right</text>
<text text-anchor="middle" x="229.62" y="-328.2" font-family="Times,serif" font-size="14.00" fill="#000000">NONE</text>
<text text-anchor="middle" x="229.62" y="-311.7" font-family="Times,serif" font-size="14.00" fill="#000000">0x0</text>
</g>
<!-- node0x107601cf0&#45;&gt;node0x107601cc0 -->
<g id="edge4" class="edge">
<title>node0x107601cf0:left&#45;&gt;node0x107601cc0</title>
<path fill="none" stroke="#187ae8" stroke-width="2" d="M178.25,-456C178.25,-442.45 176.59,-428.04 174.24,-414.49"/>
<polygon fill="#187ae8" stroke="#187ae8" stroke-width="2" points="177.99,-415.48 172.7,-406.3 171.11,-416.78 177.99,-415.48"/>
<text text-anchor="middle" x="185.11" y="-424.7" font-family="Times,serif" font-size="14.00">Да</text>
</g>
<!-- node0x107601c90 -->
<g id="node9" class="node">
<title>node0x107601c90</title>
<path fill="#bdef9e" stroke="#99c2a2" d="M286.12,-304.5C286.12,-304.5 456.38,-304.5 456.38,-304.5 462.38,-304.5 468.38,-310.5 468.38,-316.5 468.38,-316.5 468.38,-391 468.38,-391 468.38,-397 462.38,-403 456.38,-403 456.38,-403 286.12,-403 286.12,-403 280.12,-403 274.12,-397 274.12,-391 274.12,-391 274.12,-316.5 274.12,-316.5 274.12,-310.5 280.12,-304.5 286.12,-304.5"/>
<text text-anchor="middle" x="371.25" y="-385.7" font-family="Times,serif" font-size="14.00" fill="#000000">Ovchos</text>
<text text-anchor="middle" x="371.25" y="-369.2" font-family="Times,serif" font-size="14.00" fill="#000000">0x107601c90</text>
<polyline fill="none" stroke="#99c2a2" points="274.12,-362 468.38,-362"/>
<text text-anchor="middle" x="300.88" y="-344.7" font-family="Times,serif" font-size="14.00" fill="#000000">Left</text>
<text text-anchor="middle" x="300.88" y="-328.2" font-family="Times,serif" font-size="14.00" fill="#000000">NONE</text>
<text text-anchor="middle" x="300.88" y="-311.7" font-family="Times,serif" font-size="14.00" fill="#000000">0x0</text>
<polyline fill="none" stroke="#99c2a2" points="327.62,-304.5 327.62,-362"/>
<text text-anchor="middle" x="371.25" y="-344.7" font-family="Times,serif" font-size="14.00" fill="#000000">Parent</text>
<text text-anchor="middle" x="371.25" y="-328.2" font-family="Times,serif" font-size="14.00" fill="#000000">Nefor</text>
<text text-anchor="middle" x="371.25" y="-311.7" font-family="Times,serif" font-size="14.00" fill="#000000">0x107601cf0</text>
<polyline fill="none" stroke="#99c2a2" points="414.88,-304.5 414.88,-362"/>
<text text-anchor="middle" x="441.62" y="-344.7" font-family="Times,serif" font-size="14.00" fill="#000000">Right</text>
<text text-anchor="middle" x="441.62" y="-328.2" font-family="Times,serif" font-size="14.00" fill="#000000">NONE</text>
<text text-anchor="middle" x="441.62" y="-311.7" font-family="Times,serif" font-size="14.00" fill="#000000">0x0</text>
</g>
<!-- node0x107601cf0&#45;&gt;node0x107601c90 -->
<g id="edge5" class="edge">
<title>node0x107601cf0:right&#45;&gt;node0x107601c90</title>
<path fill="none" stroke="#48e818" stroke-width="2" d="M371.88,-456C371.88,-442.61 371.82,-428.22 371.74,-414.62"/>
<polygon fill="#48e818" stroke="#48e818" stroke-width="2" points="375.25,-416.42 371.69,-406.44 368.25,-416.47 375.25,-416.42"/>
<text text-anchor="middle" x="382.72" y="-424.7" font-family="Times,serif" font-size="14.00">Нет</text>
</g>
<!-- node0x107601c30 -->
<g id="node11" class="node">
<title>node0x107601c30</title>
<path fill="#d5cfe1" stroke="#8797b2" d="M498.38,-304.5C498.38,-304.5 682.12,-304.5 682.12,-304.5 688.12,-304.5 694.12,-310.5 694.12,-316.5 694.12,-316.5 694.12,-391 694.12,-391 694.12,-397 688.12,-403 682.12,-403 682.12,-403 498.38,-403 498.38,-403 492.38,-403 486.38,-397 486.38,-391 486.38,-391 486.38,-316.5 486.38,-316.5 486.38,-310.5 492.38,-304.5 498.38,-304.5"/>
<text text-anchor="middle" x="590.25" y="-385.7" font-family="Times,serif" font-size="14.00" fill="#000000">Chubarik</text>
<text text-anchor="middle" x="590.25" y="-369.2" font-family="Times,serif" font-size="14.00" fill="#000000">0x107601c30</text>
<polyline fill="none" stroke="#8797b2" points="486.38,-362 694.12,-362"/>
<text text-anchor="middle" x="513.12" y="-344.7" font-family="Times,serif" font-size="14.00" fill="#000000">Left</text>
<text text-anchor="middle" x="513.12" y="-328.2" font-family="Times,serif" font-size="14.00" fill="#000000">NONE</text>
<text text-anchor="middle" x="513.12" y="-311.7" font-family="Times,serif" font-size="14.00" fill="#000000">0x0</text>
<polyline fill="none" stroke="#8797b2" points="539.88,-304.5 539.88,-362"/>
<text text-anchor="middle" x="590.25" y="-344.7" font-family="Times,serif" font-size="14.00" fill="#000000">Parent</text>
<text text-anchor="middle" x="590.25" y="-328.2" font-family="Times,serif" font-size="14.00" fill="#000000">Teaches angem</text>
<text text-anchor="middle" x="590.25" y="-311.7" font-family="Times,serif" font-size="14.00" fill="#000000">0x107601c60</text>
<polyline fill="none" stroke="#8797b2" points="640.62,-304.5 640.62,-362"/>
<text text-anchor="middle" x="667.38" y="-344.7" font-family="Times,serif" font-size="14.00" fill="#000000">Right</text>
<text text-anchor="middle" x="667.38" y="-328.2" font-family="Times,serif" font-size="14.00" fill="#000000">NONE</text>
<text text-anchor="middle" x="667.38" y="-311.7" font-family="Times,serif" font-size="14.00" fill="#000000">0x0</text>
</g>
<!-- node0x107601c60&#45;&gt;node0x107601c30 -->
<g id="edge6" class="edge">
<title>node0x107601c60:left&#45;&gt;node0x107601c30</title>
<path fill="none" stroke="#187ae8" stroke-width="2" d="M590.25,-456C590.25,-442.61 590.25,-428.22 590.25,-414.62"/>
<polygon fill="#187ae8" stroke="#187ae8" stroke-width="2" points="593.75,-416.44 590.25,-406.44 586.75,-416.44 593.75,-416.44"/>
<text text-anchor="middle" x="598.12" y="-424.7" font-family="Times,serif" font-size="14.00">Да</text>
</g>
<!-- node0x107601c00 -->
<g id="node12" class="node">
<title>node0x107601c00</title>
<path fill="#bdef9e" stroke="#99c2a2" d="M724,-304.5C724,-304.5 944.5,-304.5 944.5,-304.5 950.5,-304.5 956.5,-310.5 956.5,-316.5 956.5,-316.5 956.5,-391 956.5,-391 956.5,-397 950.5,-403 944.5,-403 944.5,-403 724,-403 724,-403 718,-403 712,-397 712,-391 712,-391 712,-316.5 712,-316.5 712,-310.5 718,-304.5 724,-304.5"/>
<text text-anchor="middle" x="834.25" y="-385.7" font-family="Times,serif" font-size="14.00" fill="#000000">Do sport</text>
<text text-anchor="middle" x="834.25" y="-369.2" font-family="Times,serif" font-size="14.00" fill="#000000">0x107601c00</text>
<polyline fill="none" stroke="#99c2a2" points="712,-362 956.5,-362"/>
<text text-anchor="middle" x="757.12" y="-344.7" font-family="Times,serif" font-size="14.00" fill="#000000">Left</text>
<text text-anchor="middle" x="757.12" y="-328.2" font-family="Times,serif" font-size="14.00" fill="#000000">Coach</text>
<text text-anchor="middle" x="757.12" y="-311.7" font-family="Times,serif" font-size="14.00" fill="#000000">0x107601bd0</text>
<polyline fill="none" stroke="#99c2a2" points="802.25,-304.5 802.25,-362"/>
<text text-anchor="middle" x="852.62" y="-344.7" font-family="Times,serif" font-size="14.00" fill="#000000">Parent</text>
<text text-anchor="middle" x="852.62" y="-328.2" font-family="Times,serif" font-size="14.00" fill="#000000">Teaches angem</text>
<text text-anchor="middle" x="852.62" y="-311.7" font-family="Times,serif" font-size="14.00" fill="#000000">0x107601c60</text>
<polyline fill="none" stroke="#99c2a2" points="903,-304.5 903,-362"/>
<text text-anchor="middle" x="929.75" y="-344.7" font-family="Times,serif" font-size="14.00" fill="#000000">Right</text>
<text text-anchor="middle" x="929.75" y="-328.2" font-family="Times,serif" font-size="14.00" fill="#000000">NONE</text>
<text text-anchor="middle" x="929.75" y="-311.7" font-family="Times,serif" font-size="14.00" fill="#000000">0x0</text>
</g>
<!-- node0x107601c60&#45;&gt;node0x107601c00 -->
<g id="edge10" class="edge">
<title>node0x107601c60:right&#45;&gt;node0x107601c00</title>
<path fill="none" stroke="#48e818" stroke-width="2" d="M784.25,-456C784.25,-441.47 788.44,-426.87 794.39,-413.45"/>
<polygon fill="#48e818" stroke="#48e818" stroke-width="2" points="796.71,-416.69 797.93,-406.17 790.41,-413.64 796.71,-416.69"/>
<text text-anchor="middle" x="801.32" y="-424.7" font-family="Times,serif" font-size="14.00">Нет</text>
</g>
<!-- node0x107601bd0 -->
<g id="node13" class="node">
<title>node0x107601bd0</title>
<path fill="#d5cfe1" stroke="#8797b2" d="M620,-152.5C620,-152.5 894.5,-152.5 894.5,-152.5 900.5,-152.5 906.5,-158.5 906.5,-164.5 906.5,-164.5 906.5,-239 906.5,-239 906.5,-245 900.5,-251 894.5,-251 894.5,-251 620,-251 620,-251 614,-251 608,-245 608,-239 608,-239 608,-164.5 608,-164.5 608,-158.5 614,-152.5 620,-152.5"/>
<text text-anchor="middle" x="757.25" y="-233.7" font-family="Times,serif" font-size="14.00" fill="#000000">Coach</text>
<text text-anchor="middle" x="757.25" y="-217.2" font-family="Times,serif" font-size="14.00" fill="#000000">0x107601bd0</text>
<polyline fill="none" stroke="#8797b2" points="608,-210 906.5,-210"/>
<text text-anchor="middle" x="667.38" y="-192.7" font-family="Times,serif" font-size="14.00" fill="#000000">Left</text>
<text text-anchor="middle" x="667.38" y="-176.2" font-family="Times,serif" font-size="14.00" fill="#000000">Valentin Guardiola</text>
<text text-anchor="middle" x="667.38" y="-159.7" font-family="Times,serif" font-size="14.00" fill="#000000">0x107601ba0</text>
<polyline fill="none" stroke="#8797b2" points="726.75,-152.5 726.75,-210"/>
<text text-anchor="middle" x="771.5" y="-192.7" font-family="Times,serif" font-size="14.00" fill="#000000">Parent</text>
<text text-anchor="middle" x="771.5" y="-176.2" font-family="Times,serif" font-size="14.00" fill="#000000">Do sport</text>
<text text-anchor="middle" x="771.5" y="-159.7" font-family="Times,serif" font-size="14.00" fill="#000000">0x107601c00</text>
<polyline fill="none" stroke="#8797b2" points="816.25,-152.5 816.25,-210"/>
<text text-anchor="middle" x="861.38" y="-192.7" font-family="Times,serif" font-size="14.00" fill="#000000">Right</text>
<text text-anchor="middle" x="861.38" y="-176.2" font-family="Times,serif" font-size="14.00" fill="#000000">IN KARTEL</text>
<text text-anchor="middle" x="861.38" y="-159.7" font-family="Times,serif" font-size="14.00" fill="#000000">0x107601b40</text>
</g>
<!-- node0x107601c00&#45;&gt;node0x107601bd0 -->
<g id="edge7" class="edge">
<title>node0x107601c00:left&#45;&gt;node0x107601bd0</title>
<path fill="none" stroke="#187ae8" stroke-width="2" d="M757.12,-304C757.12,-290.61 757.14,-276.22 757.15,-262.62"/>
<polygon fill="#187ae8" stroke="#187ae8" stroke-width="2" points="760.65,-264.45 757.16,-254.44 753.65,-264.44 760.65,-264.45"/>
<text text-anchor="middle" x="765.02" y="-272.7" font-family="Times,serif" font-size="14.00">Да</text>
</g>
<!-- node0x107601bd0&#45;&gt;node0x107601b40 -->
<g id="edge9" class="edge">
<title>node0x107601bd0:right&#45;&gt;node0x107601b40</title>
<path fill="none" stroke="#48e818" stroke-width="2" d="M861.38,-152C861.38,-138.53 862.34,-124.12 863.69,-110.51"/>
<polygon fill="#48e818" stroke="#48e818" stroke-width="2" points="866.98,-112.63 864.58,-102.31 860.02,-111.88 866.98,-112.63"/>
<text text-anchor="middle" x="873.83" y="-120.7" font-family="Times,serif" font-size="14.00">Нет</text>
</g>
<!-- node0x107601ba0 -->
<g id="node14" class="node">
<title>node0x107601ba0</title>
<path fill="#d5cfe1" stroke="#8797b2" d="M570.62,-0.5C570.62,-0.5 743.88,-0.5 743.88,-0.5 749.88,-0.5 755.88,-6.5 755.88,-12.5 755.88,-12.5 755.88,-87 755.88,-87 755.88,-93 749.88,-99 743.88,-99 743.88,-99 570.62,-99 570.62,-99 564.62,-99 558.62,-93 558.62,-87 558.62,-87 558.62,-12.5 558.62,-12.5 558.62,-6.5 564.62,-0.5 570.62,-0.5"/>
<text text-anchor="middle" x="657.25" y="-81.7" font-family="Times,serif" font-size="14.00" fill="#000000">Valentin Guardiola</text>
<text text-anchor="middle" x="657.25" y="-65.2" font-family="Times,serif" font-size="14.00" fill="#000000">0x107601ba0</text>
<polyline fill="none" stroke="#8797b2" points="558.62,-58 755.88,-58"/>
<text text-anchor="middle" x="585.38" y="-40.7" font-family="Times,serif" font-size="14.00" fill="#000000">Left</text>
<text text-anchor="middle" x="585.38" y="-24.2" font-family="Times,serif" font-size="14.00" fill="#000000">NONE</text>
<text text-anchor="middle" x="585.38" y="-7.7" font-family="Times,serif" font-size="14.00" fill="#000000">0x0</text>
<polyline fill="none" stroke="#8797b2" points="612.12,-0.5 612.12,-58"/>
<text text-anchor="middle" x="657.25" y="-40.7" font-family="Times,serif" font-size="14.00" fill="#000000">Parent</text>
<text text-anchor="middle" x="657.25" y="-24.2" font-family="Times,serif" font-size="14.00" fill="#000000">Coach</text>
<text text-anchor="middle" x="657.25" y="-7.7" font-family="Times,serif" font-size="14.00" fill="#000000">0x107601bd0</text>
<polyline fill="none" stroke="#8797b2" points="702.38,-0.5 702.38,-58"/>
<text text-anchor="middle" x="729.12" y="-40.7" font-family="Times,serif" font-size="14.00" fill="#000000">Right</text>
<text text-anchor="middle" x="729.12" y="-24.2" font-family="Times,serif" font-size="14.00" fill="#000000">NONE</text>
<text text-anchor="middle" x="729.12" y="-7.7" font-family="Times,serif" font-size="14.00" fill="#000000">0x0</text>
</g>
<!-- node0x107601bd0&#45;&gt;node0x107601ba0 -->
<g id="edge8" class="edge">
<title>node0x107601bd0:left&#45;&gt;node0x107601ba0</title>
<path fill="none" stroke="#187ae8" stroke-width="2" d="M667.38,-152C667.38,-138.54 666.48,-124.13 665.22,-110.52"/>
<polygon fill="#187ae8" stroke="#187ae8" stroke-width="2" points="668.88,-111.93 664.39,-102.33 661.91,-112.63 668.88,-111.93"/>
<text text-anchor="middle" x="674.71" y="-120.7" font-family="Times,serif" font-size="14.00">Да</text>
</g>
</g>
</svg>
