<?xml version="1.0" encoding="UTF-8" standalone="no"?>
<!DOCTYPE svg PUBLIC "-//W3C//DTD SVG 1.1//EN"
 "http://www.w3.org/Graphics/SVG/1.1/DTD/svg11.dtd">
<!-- Generated by graphviz version 12.2.0 (20241103.1931)
 -->
<!-- Pages: 1 -->
<svg width="931pt" height="716pt"
 viewBox="0.00 0.00 931.12 715.50" xmlns="http://www.w3.org/2000/svg" xmlns:xlink="http://www.w3.org/1999/xlink">
<g id="graph0" class="graph" transform="scale(1 1) rotate(0) translate(4 711.5)">
<polygon fill="#dcdcdc" stroke="none" points="-4,4 -4,-711.5 927.12,-711.5 927.12,4 -4,4"/>
<!-- node0x105301e40 -->
<g id="node1" class="node">
<title>node0x105301e40</title>
<path fill="#fbee21" stroke="#d3c70d" d="M118,-608.5C118,-608.5 344.5,-608.5 344.5,-608.5 350.5,-608.5 356.5,-614.5 356.5,-620.5 356.5,-620.5 356.5,-695 356.5,-695 356.5,-701 350.5,-707 344.5,-707 344.5,-707 118,-707 118,-707 112,-707 106,-701 106,-695 106,-695 106,-620.5 106,-620.5 106,-614.5 112,-608.5 118,-608.5"/>
<text text-anchor="middle" x="231.25" y="-689.7" font-family="Times,serif" font-size="14.00" fill="#000000">Animal</text>
<text text-anchor="middle" x="231.25" y="-673.2" font-family="Times,serif" font-size="14.00" fill="#000000">0x105301e40</text>
<polyline fill="none" stroke="#d3c70d" points="106,-666 356.5,-666"/>
<text text-anchor="middle" x="150.75" y="-648.7" font-family="Times,serif" font-size="14.00" fill="#000000">Left</text>
<text text-anchor="middle" x="150.75" y="-632.2" font-family="Times,serif" font-size="14.00" fill="#000000">Poltorashka</text>
<text text-anchor="middle" x="150.75" y="-615.7" font-family="Times,serif" font-size="14.00" fill="#000000">0x105301e10</text>
<polyline fill="none" stroke="#d3c70d" points="195.5,-608.5 195.5,-666"/>
<text text-anchor="middle" x="222.25" y="-648.7" font-family="Times,serif" font-size="14.00" fill="#000000">Parent</text>
<text text-anchor="middle" x="222.25" y="-632.2" font-family="Times,serif" font-size="14.00" fill="#000000">NONE</text>
<text text-anchor="middle" x="222.25" y="-615.7" font-family="Times,serif" font-size="14.00" fill="#000000">0x0</text>
<polyline fill="none" stroke="#d3c70d" points="249,-608.5 249,-666"/>
<text text-anchor="middle" x="302.75" y="-648.7" font-family="Times,serif" font-size="14.00" fill="#000000">Right</text>
<text text-anchor="middle" x="302.75" y="-632.2" font-family="Times,serif" font-size="14.00" fill="#000000">Teaches analisys</text>
<text text-anchor="middle" x="302.75" y="-615.7" font-family="Times,serif" font-size="14.00" fill="#000000">0x105301de0</text>
</g>
<!-- node0x105301e10 -->
<g id="node2" class="node">
<title>node0x105301e10</title>
<path fill="#d5cfe1" stroke="#8797b2" d="M12,-456.5C12,-456.5 184.5,-456.5 184.5,-456.5 190.5,-456.5 196.5,-462.5 196.5,-468.5 196.5,-468.5 196.5,-543 196.5,-543 196.5,-549 190.5,-555 184.5,-555 184.5,-555 12,-555 12,-555 6,-555 0,-549 0,-543 0,-543 0,-468.5 0,-468.5 0,-462.5 6,-456.5 12,-456.5"/>
<text text-anchor="middle" x="98.25" y="-537.7" font-family="Times,serif" font-size="14.00" fill="#000000">Poltorashka</text>
<text text-anchor="middle" x="98.25" y="-521.2" font-family="Times,serif" font-size="14.00" fill="#000000">0x105301e10</text>
<polyline fill="none" stroke="#8797b2" points="0,-514 196.5,-514"/>
<text text-anchor="middle" x="26.75" y="-496.7" font-family="Times,serif" font-size="14.00" fill="#000000">Left</text>
<text text-anchor="middle" x="26.75" y="-480.2" font-family="Times,serif" font-size="14.00" fill="#000000">NONE</text>
<text text-anchor="middle" x="26.75" y="-463.7" font-family="Times,serif" font-size="14.00" fill="#000000">0x0</text>
<polyline fill="none" stroke="#8797b2" points="53.5,-456.5 53.5,-514"/>
<text text-anchor="middle" x="98.25" y="-496.7" font-family="Times,serif" font-size="14.00" fill="#000000">Parent</text>
<text text-anchor="middle" x="98.25" y="-480.2" font-family="Times,serif" font-size="14.00" fill="#000000">Animal</text>
<text text-anchor="middle" x="98.25" y="-463.7" font-family="Times,serif" font-size="14.00" fill="#000000">0x105301e40</text>
<polyline fill="none" stroke="#8797b2" points="143,-456.5 143,-514"/>
<text text-anchor="middle" x="169.75" y="-496.7" font-family="Times,serif" font-size="14.00" fill="#000000">Right</text>
<text text-anchor="middle" x="169.75" y="-480.2" font-family="Times,serif" font-size="14.00" fill="#000000">NONE</text>
<text text-anchor="middle" x="169.75" y="-463.7" font-family="Times,serif" font-size="14.00" fill="#000000">0x0</text>
</g>
<!-- node0x105301e40&#45;&gt;node0x105301e10 -->
<g id="edge1" class="edge">
<title>node0x105301e40:left&#45;&gt;node0x105301e10</title>
<path fill="none" stroke="#187ae8" stroke-width="2" d="M105,-637.25C74.29,-637.25 74.17,-600.77 80.87,-566.38"/>
<polygon fill="#187ae8" stroke="#187ae8" stroke-width="2" points="83.93,-568.82 82.62,-558.3 77.09,-567.34 83.93,-568.82"/>
<text text-anchor="middle" x="87.09" y="-576.7" font-family="Times,serif" font-size="14.00">Да</text>
</g>
<!-- node0x105301de0 -->
<g id="node4" class="node">
<title>node0x105301de0</title>
<path fill="#bdef9e" stroke="#99c2a2" d="M226.12,-456.5C226.12,-456.5 486.38,-456.5 486.38,-456.5 492.38,-456.5 498.38,-462.5 498.38,-468.5 498.38,-468.5 498.38,-543 498.38,-543 498.38,-549 492.38,-555 486.38,-555 486.38,-555 226.12,-555 226.12,-555 220.12,-555 214.12,-549 214.12,-543 214.12,-543 214.12,-468.5 214.12,-468.5 214.12,-462.5 220.12,-456.5 226.12,-456.5"/>
<text text-anchor="middle" x="356.25" y="-537.7" font-family="Times,serif" font-size="14.00" fill="#000000">Teaches analisys</text>
<text text-anchor="middle" x="356.25" y="-521.2" font-family="Times,serif" font-size="14.00" fill="#000000">0x105301de0</text>
<polyline fill="none" stroke="#99c2a2" points="214.12,-514 498.38,-514"/>
<text text-anchor="middle" x="259.25" y="-496.7" font-family="Times,serif" font-size="14.00" fill="#000000">Left</text>
<text text-anchor="middle" x="259.25" y="-480.2" font-family="Times,serif" font-size="14.00" fill="#000000">Burtsev</text>
<text text-anchor="middle" x="259.25" y="-463.7" font-family="Times,serif" font-size="14.00" fill="#000000">0x105301d80</text>
<polyline fill="none" stroke="#99c2a2" points="304.38,-456.5 304.38,-514"/>
<text text-anchor="middle" x="349.12" y="-496.7" font-family="Times,serif" font-size="14.00" fill="#000000">Parent</text>
<text text-anchor="middle" x="349.12" y="-480.2" font-family="Times,serif" font-size="14.00" fill="#000000">Animal</text>
<text text-anchor="middle" x="349.12" y="-463.7" font-family="Times,serif" font-size="14.00" fill="#000000">0x105301e40</text>
<polyline fill="none" stroke="#99c2a2" points="393.88,-456.5 393.88,-514"/>
<text text-anchor="middle" x="446.12" y="-496.7" font-family="Times,serif" font-size="14.00" fill="#000000">Right</text>
<text text-anchor="middle" x="446.12" y="-480.2" font-family="Times,serif" font-size="14.00" fill="#000000">Teaches physics</text>
<text text-anchor="middle" x="446.12" y="-463.7" font-family="Times,serif" font-size="14.00" fill="#000000">0x105301d50</text>
</g>
<!-- node0x105301e40&#45;&gt;node0x105301de0 -->
<g id="edge10" class="edge">
<title>node0x105301e40:right&#45;&gt;node0x105301de0</title>
<path fill="none" stroke="#48e818" stroke-width="2" d="M302.75,-608C302.75,-593.35 307.19,-578.74 313.5,-565.36"/>
<polygon fill="#48e818" stroke="#48e818" stroke-width="2" points="315.78,-568.57 317.27,-558.08 309.56,-565.36 315.78,-568.57"/>
<text text-anchor="middle" x="320.25" y="-576.7" font-family="Times,serif" font-size="14.00">Нет</text>
</g>
<!-- node0x105301c30 -->
<g id="node3" class="node">
<title>node0x105301c30</title>
<path fill="#f18805" stroke="#af3800" d="M727.38,-0.5C727.38,-0.5 911.12,-0.5 911.12,-0.5 917.12,-0.5 923.12,-6.5 923.12,-12.5 923.12,-12.5 923.12,-87 923.12,-87 923.12,-93 917.12,-99 911.12,-99 911.12,-99 727.38,-99 727.38,-99 721.38,-99 715.38,-93 715.38,-87 715.38,-87 715.38,-12.5 715.38,-12.5 715.38,-6.5 721.38,-0.5 727.38,-0.5"/>
<text text-anchor="middle" x="819.25" y="-81.7" font-family="Times,serif" font-size="14.00" fill="#000000">Do sport</text>
<text text-anchor="middle" x="819.25" y="-65.2" font-family="Times,serif" font-size="14.00" fill="#000000">0x105301c30</text>
<polyline fill="none" stroke="#af3800" points="715.38,-58 923.12,-58"/>
<text text-anchor="middle" x="742.12" y="-40.7" font-family="Times,serif" font-size="14.00" fill="#000000">Left</text>
<text text-anchor="middle" x="742.12" y="-24.2" font-family="Times,serif" font-size="14.00" fill="#000000">NONE</text>
<text text-anchor="middle" x="742.12" y="-7.7" font-family="Times,serif" font-size="14.00" fill="#000000">0x0</text>
<polyline fill="none" stroke="#af3800" points="768.88,-0.5 768.88,-58"/>
<text text-anchor="middle" x="819.25" y="-40.7" font-family="Times,serif" font-size="14.00" fill="#000000">Parent</text>
<text text-anchor="middle" x="819.25" y="-24.2" font-family="Times,serif" font-size="14.00" fill="#000000">Teaches angem</text>
<text text-anchor="middle" x="819.25" y="-7.7" font-family="Times,serif" font-size="14.00" fill="#000000">0x105301c90</text>
<polyline fill="none" stroke="#af3800" points="869.62,-0.5 869.62,-58"/>
<text text-anchor="middle" x="896.38" y="-40.7" font-family="Times,serif" font-size="14.00" fill="#000000">Right</text>
<text text-anchor="middle" x="896.38" y="-24.2" font-family="Times,serif" font-size="14.00" fill="#000000">NONE</text>
<text text-anchor="middle" x="896.38" y="-7.7" font-family="Times,serif" font-size="14.00" fill="#000000">0x0</text>
</g>
<!-- node0x105301d80 -->
<g id="node5" class="node">
<title>node0x105301d80</title>
<path fill="#d5cfe1" stroke="#8797b2" d="M142,-304.5C142,-304.5 332.5,-304.5 332.5,-304.5 338.5,-304.5 344.5,-310.5 344.5,-316.5 344.5,-316.5 344.5,-391 344.5,-391 344.5,-397 338.5,-403 332.5,-403 332.5,-403 142,-403 142,-403 136,-403 130,-397 130,-391 130,-391 130,-316.5 130,-316.5 130,-310.5 136,-304.5 142,-304.5"/>
<text text-anchor="middle" x="237.25" y="-385.7" font-family="Times,serif" font-size="14.00" fill="#000000">Burtsev</text>
<text text-anchor="middle" x="237.25" y="-369.2" font-family="Times,serif" font-size="14.00" fill="#000000">0x105301d80</text>
<polyline fill="none" stroke="#8797b2" points="130,-362 344.5,-362"/>
<text text-anchor="middle" x="156.75" y="-344.7" font-family="Times,serif" font-size="14.00" fill="#000000">Left</text>
<text text-anchor="middle" x="156.75" y="-328.2" font-family="Times,serif" font-size="14.00" fill="#000000">NONE</text>
<text text-anchor="middle" x="156.75" y="-311.7" font-family="Times,serif" font-size="14.00" fill="#000000">0x0</text>
<polyline fill="none" stroke="#8797b2" points="183.5,-304.5 183.5,-362"/>
<text text-anchor="middle" x="237.25" y="-344.7" font-family="Times,serif" font-size="14.00" fill="#000000">Parent</text>
<text text-anchor="middle" x="237.25" y="-328.2" font-family="Times,serif" font-size="14.00" fill="#000000">Teaches analisys</text>
<text text-anchor="middle" x="237.25" y="-311.7" font-family="Times,serif" font-size="14.00" fill="#000000">0x105301de0</text>
<polyline fill="none" stroke="#8797b2" points="291,-304.5 291,-362"/>
<text text-anchor="middle" x="317.75" y="-344.7" font-family="Times,serif" font-size="14.00" fill="#000000">Right</text>
<text text-anchor="middle" x="317.75" y="-328.2" font-family="Times,serif" font-size="14.00" fill="#000000">NONE</text>
<text text-anchor="middle" x="317.75" y="-311.7" font-family="Times,serif" font-size="14.00" fill="#000000">0x0</text>
</g>
<!-- node0x105301de0&#45;&gt;node0x105301d80 -->
<g id="edge2" class="edge">
<title>node0x105301de0:left&#45;&gt;node0x105301d80</title>
<path fill="none" stroke="#187ae8" stroke-width="2" d="M259.25,-456C259.25,-442.44 257.34,-428.08 254.65,-414.58"/>
<polygon fill="#187ae8" stroke="#187ae8" stroke-width="2" points="258.42,-415.45 252.87,-406.43 251.58,-416.94 258.42,-415.45"/>
<text text-anchor="middle" x="265.95" y="-424.7" font-family="Times,serif" font-size="14.00">Да</text>
</g>
<!-- node0x105301d50 -->
<g id="node6" class="node">
<title>node0x105301d50</title>
<path fill="#bdef9e" stroke="#99c2a2" d="M375,-304.5C375,-304.5 649.5,-304.5 649.5,-304.5 655.5,-304.5 661.5,-310.5 661.5,-316.5 661.5,-316.5 661.5,-391 661.5,-391 661.5,-397 655.5,-403 649.5,-403 649.5,-403 375,-403 375,-403 369,-403 363,-397 363,-391 363,-391 363,-316.5 363,-316.5 363,-310.5 369,-304.5 375,-304.5"/>
<text text-anchor="middle" x="512.25" y="-385.7" font-family="Times,serif" font-size="14.00" fill="#000000">Teaches physics</text>
<text text-anchor="middle" x="512.25" y="-369.2" font-family="Times,serif" font-size="14.00" fill="#000000">0x105301d50</text>
<polyline fill="none" stroke="#99c2a2" points="363,-362 661.5,-362"/>
<text text-anchor="middle" x="408.12" y="-344.7" font-family="Times,serif" font-size="14.00" fill="#000000">Left</text>
<text text-anchor="middle" x="408.12" y="-328.2" font-family="Times,serif" font-size="14.00" fill="#000000">Nefor</text>
<text text-anchor="middle" x="408.12" y="-311.7" font-family="Times,serif" font-size="14.00" fill="#000000">0x105301d20</text>
<polyline fill="none" stroke="#99c2a2" points="453.25,-304.5 453.25,-362"/>
<text text-anchor="middle" x="507" y="-344.7" font-family="Times,serif" font-size="14.00" fill="#000000">Parent</text>
<text text-anchor="middle" x="507" y="-328.2" font-family="Times,serif" font-size="14.00" fill="#000000">Teaches analisys</text>
<text text-anchor="middle" x="507" y="-311.7" font-family="Times,serif" font-size="14.00" fill="#000000">0x105301de0</text>
<polyline fill="none" stroke="#99c2a2" points="560.75,-304.5 560.75,-362"/>
<text text-anchor="middle" x="611.12" y="-344.7" font-family="Times,serif" font-size="14.00" fill="#000000">Right</text>
<text text-anchor="middle" x="611.12" y="-328.2" font-family="Times,serif" font-size="14.00" fill="#000000">Teaches angem</text>
<text text-anchor="middle" x="611.12" y="-311.7" font-family="Times,serif" font-size="14.00" fill="#000000">0x105301c90</text>
</g>
<!-- node0x105301de0&#45;&gt;node0x105301d50 -->
<g id="edge9" class="edge">
<title>node0x105301de0:right&#45;&gt;node0x105301d50</title>
<path fill="none" stroke="#48e818" stroke-width="2" d="M446.12,-456C446.12,-440.8 451.42,-426.09 459.01,-412.82"/>
<polygon fill="#48e818" stroke="#48e818" stroke-width="2" points="460.94,-416.32 463.29,-405.99 455.01,-412.6 460.94,-416.32"/>
<text text-anchor="middle" x="465.19" y="-424.7" font-family="Times,serif" font-size="14.00">Нет</text>
</g>
<!-- node0x105301d20 -->
<g id="node7" class="node">
<title>node0x105301d20</title>
<path fill="#d5cfe1" stroke="#8797b2" d="M149,-152.5C149,-152.5 405.5,-152.5 405.5,-152.5 411.5,-152.5 417.5,-158.5 417.5,-164.5 417.5,-164.5 417.5,-239 417.5,-239 417.5,-245 411.5,-251 405.5,-251 405.5,-251 149,-251 149,-251 143,-251 137,-245 137,-239 137,-239 137,-164.5 137,-164.5 137,-158.5 143,-152.5 149,-152.5"/>
<text text-anchor="middle" x="277.25" y="-233.7" font-family="Times,serif" font-size="14.00" fill="#000000">Nefor</text>
<text text-anchor="middle" x="277.25" y="-217.2" font-family="Times,serif" font-size="14.00" fill="#000000">0x105301d20</text>
<polyline fill="none" stroke="#8797b2" points="137,-210 417.5,-210"/>
<text text-anchor="middle" x="180.62" y="-192.7" font-family="Times,serif" font-size="14.00" fill="#000000">Left</text>
<text text-anchor="middle" x="180.62" y="-176.2" font-family="Times,serif" font-size="14.00" fill="#000000">Magic</text>
<text text-anchor="middle" x="180.62" y="-159.7" font-family="Times,serif" font-size="14.00" fill="#000000">0x105301cf0</text>
<polyline fill="none" stroke="#8797b2" points="224.25,-152.5 224.25,-210"/>
<text text-anchor="middle" x="276.5" y="-192.7" font-family="Times,serif" font-size="14.00" fill="#000000">Parent</text>
<text text-anchor="middle" x="276.5" y="-176.2" font-family="Times,serif" font-size="14.00" fill="#000000">Teaches physics</text>
<text text-anchor="middle" x="276.5" y="-159.7" font-family="Times,serif" font-size="14.00" fill="#000000">0x105301d50</text>
<polyline fill="none" stroke="#8797b2" points="328.75,-152.5 328.75,-210"/>
<text text-anchor="middle" x="373.12" y="-192.7" font-family="Times,serif" font-size="14.00" fill="#000000">Right</text>
<text text-anchor="middle" x="373.12" y="-176.2" font-family="Times,serif" font-size="14.00" fill="#000000">Ovchos</text>
<text text-anchor="middle" x="373.12" y="-159.7" font-family="Times,serif" font-size="14.00" fill="#000000">0x105301cc0</text>
</g>
<!-- node0x105301d50&#45;&gt;node0x105301d20 -->
<g id="edge3" class="edge">
<title>node0x105301d50:left&#45;&gt;node0x105301d20</title>
<path fill="none" stroke="#187ae8" stroke-width="2" d="M408.12,-304C408.12,-286.56 400.77,-271.7 389.54,-259.17"/>
<polygon fill="#187ae8" stroke="#187ae8" stroke-width="2" points="393.33,-258.01 383.78,-253.42 388.38,-262.96 393.33,-258.01"/>
<text text-anchor="middle" x="412.34" y="-272.7" font-family="Times,serif" font-size="14.00">Да</text>
</g>
<!-- node0x105301c90 -->
<g id="node10" class="node">
<title>node0x105301c90</title>
<path fill="#bdef9e" stroke="#99c2a2" d="M560.5,-152.5C560.5,-152.5 820,-152.5 820,-152.5 826,-152.5 832,-158.5 832,-164.5 832,-164.5 832,-239 832,-239 832,-245 826,-251 820,-251 820,-251 560.5,-251 560.5,-251 554.5,-251 548.5,-245 548.5,-239 548.5,-239 548.5,-164.5 548.5,-164.5 548.5,-158.5 554.5,-152.5 560.5,-152.5"/>
<text text-anchor="middle" x="690.25" y="-233.7" font-family="Times,serif" font-size="14.00" fill="#000000">Teaches angem</text>
<text text-anchor="middle" x="690.25" y="-217.2" font-family="Times,serif" font-size="14.00" fill="#000000">0x105301c90</text>
<polyline fill="none" stroke="#99c2a2" points="548.5,-210 832,-210"/>
<text text-anchor="middle" x="593.25" y="-192.7" font-family="Times,serif" font-size="14.00" fill="#000000">Left</text>
<text text-anchor="middle" x="593.25" y="-176.2" font-family="Times,serif" font-size="14.00" fill="#000000">Chubarik</text>
<text text-anchor="middle" x="593.25" y="-159.7" font-family="Times,serif" font-size="14.00" fill="#000000">0x105301c60</text>
<polyline fill="none" stroke="#99c2a2" points="638,-152.5 638,-210"/>
<text text-anchor="middle" x="690.25" y="-192.7" font-family="Times,serif" font-size="14.00" fill="#000000">Parent</text>
<text text-anchor="middle" x="690.25" y="-176.2" font-family="Times,serif" font-size="14.00" fill="#000000">Teaches physics</text>
<text text-anchor="middle" x="690.25" y="-159.7" font-family="Times,serif" font-size="14.00" fill="#000000">0x105301d50</text>
<polyline fill="none" stroke="#99c2a2" points="742.5,-152.5 742.5,-210"/>
<text text-anchor="middle" x="787.25" y="-192.7" font-family="Times,serif" font-size="14.00" fill="#000000">Right</text>
<text text-anchor="middle" x="787.25" y="-176.2" font-family="Times,serif" font-size="14.00" fill="#000000">Do sport</text>
<text text-anchor="middle" x="787.25" y="-159.7" font-family="Times,serif" font-size="14.00" fill="#000000">0x105301c30</text>
</g>
<!-- node0x105301d50&#45;&gt;node0x105301c90 -->
<g id="edge8" class="edge">
<title>node0x105301d50:right&#45;&gt;node0x105301c90</title>
<path fill="none" stroke="#48e818" stroke-width="2" d="M662.5,-333.25C693.72,-333.25 699.76,-297.08 698.48,-262.83"/>
<polygon fill="#48e818" stroke="#48e818" stroke-width="2" points="702.06,-264.14 697.97,-254.37 695.07,-264.56 702.06,-264.14"/>
<text text-anchor="middle" x="709.51" y="-272.7" font-family="Times,serif" font-size="14.00">Нет</text>
</g>
<!-- node0x105301cf0 -->
<g id="node8" class="node">
<title>node0x105301cf0</title>
<path fill="#d5cfe1" stroke="#8797b2" d="M70.62,-0.5C70.62,-0.5 243.88,-0.5 243.88,-0.5 249.88,-0.5 255.88,-6.5 255.88,-12.5 255.88,-12.5 255.88,-87 255.88,-87 255.88,-93 249.88,-99 243.88,-99 243.88,-99 70.62,-99 70.62,-99 64.63,-99 58.62,-93 58.62,-87 58.62,-87 58.62,-12.5 58.62,-12.5 58.62,-6.5 64.62,-0.5 70.62,-0.5"/>
<text text-anchor="middle" x="157.25" y="-81.7" font-family="Times,serif" font-size="14.00" fill="#000000">Magic</text>
<text text-anchor="middle" x="157.25" y="-65.2" font-family="Times,serif" font-size="14.00" fill="#000000">0x105301cf0</text>
<polyline fill="none" stroke="#8797b2" points="58.62,-58 255.88,-58"/>
<text text-anchor="middle" x="85.38" y="-40.7" font-family="Times,serif" font-size="14.00" fill="#000000">Left</text>
<text text-anchor="middle" x="85.38" y="-24.2" font-family="Times,serif" font-size="14.00" fill="#000000">NONE</text>
<text text-anchor="middle" x="85.38" y="-7.7" font-family="Times,serif" font-size="14.00" fill="#000000">0x0</text>
<polyline fill="none" stroke="#8797b2" points="112.12,-0.5 112.12,-58"/>
<text text-anchor="middle" x="157.25" y="-40.7" font-family="Times,serif" font-size="14.00" fill="#000000">Parent</text>
<text text-anchor="middle" x="157.25" y="-24.2" font-family="Times,serif" font-size="14.00" fill="#000000">Nefor</text>
<text text-anchor="middle" x="157.25" y="-7.7" font-family="Times,serif" font-size="14.00" fill="#000000">0x105301d20</text>
<polyline fill="none" stroke="#8797b2" points="202.38,-0.5 202.38,-58"/>
<text text-anchor="middle" x="229.12" y="-40.7" font-family="Times,serif" font-size="14.00" fill="#000000">Right</text>
<text text-anchor="middle" x="229.12" y="-24.2" font-family="Times,serif" font-size="14.00" fill="#000000">NONE</text>
<text text-anchor="middle" x="229.12" y="-7.7" font-family="Times,serif" font-size="14.00" fill="#000000">0x0</text>
</g>
<!-- node0x105301d20&#45;&gt;node0x105301cf0 -->
<g id="edge4" class="edge">
<title>node0x105301d20:left&#45;&gt;node0x105301cf0</title>
<path fill="none" stroke="#187ae8" stroke-width="2" d="M180.62,-152C180.62,-138.4 178.6,-124.03 175.74,-110.52"/>
<polygon fill="#187ae8" stroke="#187ae8" stroke-width="2" points="179.51,-111.31 173.85,-102.36 172.69,-112.89 179.51,-111.31"/>
<text text-anchor="middle" x="187.25" y="-120.7" font-family="Times,serif" font-size="14.00">Да</text>
</g>
<!-- node0x105301cc0 -->
<g id="node9" class="node">
<title>node0x105301cc0</title>
<path fill="#bdef9e" stroke="#99c2a2" d="M285.62,-0.5C285.62,-0.5 458.88,-0.5 458.88,-0.5 464.88,-0.5 470.88,-6.5 470.88,-12.5 470.88,-12.5 470.88,-87 470.88,-87 470.88,-93 464.88,-99 458.88,-99 458.88,-99 285.62,-99 285.62,-99 279.62,-99 273.62,-93 273.62,-87 273.62,-87 273.62,-12.5 273.62,-12.5 273.62,-6.5 279.62,-0.5 285.62,-0.5"/>
<text text-anchor="middle" x="372.25" y="-81.7" font-family="Times,serif" font-size="14.00" fill="#000000">Ovchos</text>
<text text-anchor="middle" x="372.25" y="-65.2" font-family="Times,serif" font-size="14.00" fill="#000000">0x105301cc0</text>
<polyline fill="none" stroke="#99c2a2" points="273.62,-58 470.88,-58"/>
<text text-anchor="middle" x="300.38" y="-40.7" font-family="Times,serif" font-size="14.00" fill="#000000">Left</text>
<text text-anchor="middle" x="300.38" y="-24.2" font-family="Times,serif" font-size="14.00" fill="#000000">NONE</text>
<text text-anchor="middle" x="300.38" y="-7.7" font-family="Times,serif" font-size="14.00" fill="#000000">0x0</text>
<polyline fill="none" stroke="#99c2a2" points="327.12,-0.5 327.12,-58"/>
<text text-anchor="middle" x="372.25" y="-40.7" font-family="Times,serif" font-size="14.00" fill="#000000">Parent</text>
<text text-anchor="middle" x="372.25" y="-24.2" font-family="Times,serif" font-size="14.00" fill="#000000">Nefor</text>
<text text-anchor="middle" x="372.25" y="-7.7" font-family="Times,serif" font-size="14.00" fill="#000000">0x105301d20</text>
<polyline fill="none" stroke="#99c2a2" points="417.38,-0.5 417.38,-58"/>
<text text-anchor="middle" x="444.12" y="-40.7" font-family="Times,serif" font-size="14.00" fill="#000000">Right</text>
<text text-anchor="middle" x="444.12" y="-24.2" font-family="Times,serif" font-size="14.00" fill="#000000">NONE</text>
<text text-anchor="middle" x="444.12" y="-7.7" font-family="Times,serif" font-size="14.00" fill="#000000">0x0</text>
</g>
<!-- node0x105301d20&#45;&gt;node0x105301cc0 -->
<g id="edge5" class="edge">
<title>node0x105301d20:right&#45;&gt;node0x105301cc0</title>
<path fill="none" stroke="#48e818" stroke-width="2" d="M373.12,-152C373.12,-138.61 373.05,-124.22 372.94,-110.62"/>
<polygon fill="#48e818" stroke="#48e818" stroke-width="2" points="376.45,-112.41 372.87,-102.44 369.45,-112.47 376.45,-112.41"/>
<text text-anchor="middle" x="383.95" y="-120.7" font-family="Times,serif" font-size="14.00">Нет</text>
</g>
<!-- node0x105301c90&#45;&gt;node0x105301c30 -->
<g id="edge7" class="edge">
<title>node0x105301c90:right&#45;&gt;node0x105301c30</title>
<path fill="none" stroke="#48e818" stroke-width="2" d="M787.25,-152C787.25,-138.11 790.02,-123.62 793.94,-110.09"/>
<polygon fill="#48e818" stroke="#48e818" stroke-width="2" points="796.7,-112.96 796.38,-102.37 790.03,-110.85 796.7,-112.96"/>
<text text-anchor="middle" x="802.77" y="-120.7" font-family="Times,serif" font-size="14.00">Нет</text>
</g>
<!-- node0x105301c60 -->
<g id="node11" class="node">
<title>node0x105301c60</title>
<path fill="#d5cfe1" stroke="#8797b2" d="M501.38,-0.5C501.38,-0.5 685.12,-0.5 685.12,-0.5 691.12,-0.5 697.12,-6.5 697.12,-12.5 697.12,-12.5 697.12,-87 697.12,-87 697.12,-93 691.12,-99 685.12,-99 685.12,-99 501.38,-99 501.38,-99 495.38,-99 489.38,-93 489.38,-87 489.38,-87 489.38,-12.5 489.38,-12.5 489.38,-6.5 495.38,-0.5 501.38,-0.5"/>
<text text-anchor="middle" x="593.25" y="-81.7" font-family="Times,serif" font-size="14.00" fill="#000000">Chubarik</text>
<text text-anchor="middle" x="593.25" y="-65.2" font-family="Times,serif" font-size="14.00" fill="#000000">0x105301c60</text>
<polyline fill="none" stroke="#8797b2" points="489.38,-58 697.12,-58"/>
<text text-anchor="middle" x="516.12" y="-40.7" font-family="Times,serif" font-size="14.00" fill="#000000">Left</text>
<text text-anchor="middle" x="516.12" y="-24.2" font-family="Times,serif" font-size="14.00" fill="#000000">NONE</text>
<text text-anchor="middle" x="516.12" y="-7.7" font-family="Times,serif" font-size="14.00" fill="#000000">0x0</text>
<polyline fill="none" stroke="#8797b2" points="542.88,-0.5 542.88,-58"/>
<text text-anchor="middle" x="593.25" y="-40.7" font-family="Times,serif" font-size="14.00" fill="#000000">Parent</text>
<text text-anchor="middle" x="593.25" y="-24.2" font-family="Times,serif" font-size="14.00" fill="#000000">Teaches angem</text>
<text text-anchor="middle" x="593.25" y="-7.7" font-family="Times,serif" font-size="14.00" fill="#000000">0x105301c90</text>
<polyline fill="none" stroke="#8797b2" points="643.62,-0.5 643.62,-58"/>
<text text-anchor="middle" x="670.38" y="-40.7" font-family="Times,serif" font-size="14.00" fill="#000000">Right</text>
<text text-anchor="middle" x="670.38" y="-24.2" font-family="Times,serif" font-size="14.00" fill="#000000">NONE</text>
<text text-anchor="middle" x="670.38" y="-7.7" font-family="Times,serif" font-size="14.00" fill="#000000">0x0</text>
</g>
<!-- node0x105301c90&#45;&gt;node0x105301c60 -->
<g id="edge6" class="edge">
<title>node0x105301c90:left&#45;&gt;node0x105301c60</title>
<path fill="none" stroke="#187ae8" stroke-width="2" d="M593.25,-152C593.25,-138.61 593.25,-124.22 593.25,-110.62"/>
<polygon fill="#187ae8" stroke="#187ae8" stroke-width="2" points="596.75,-112.44 593.25,-102.44 589.75,-112.44 596.75,-112.44"/>
<text text-anchor="middle" x="601.12" y="-120.7" font-family="Times,serif" font-size="14.00">Да</text>
</g>
</g>
</svg>
