<?xml version="1.0" encoding="UTF-8" standalone="no"?>
<!DOCTYPE svg PUBLIC "-//W3C//DTD SVG 1.1//EN"
 "http://www.w3.org/Graphics/SVG/1.1/DTD/svg11.dtd">
<!-- Generated by graphviz version 12.2.0 (20241103.1931)
 -->
<!-- Pages: 1 -->
<svg width="803pt" height="716pt"
 viewBox="0.00 0.00 803.00 715.50" xmlns="http://www.w3.org/2000/svg" xmlns:xlink="http://www.w3.org/1999/xlink">
<g id="graph0" class="graph" transform="scale(1 1) rotate(0) translate(4 711.5)">
<polygon fill="#dcdcdc" stroke="none" points="-4,4 -4,-711.5 799,-711.5 799,4 -4,4"/>
<!-- node0x105301e40 -->
<g id="node1" class="node">
<title>node0x105301e40</title>
<path fill="#fbee21" stroke="#d3c70d" d="M118,-608.5C118,-608.5 344.5,-608.5 344.5,-608.5 350.5,-608.5 356.5,-614.5 356.5,-620.5 356.5,-620.5 356.5,-695 356.5,-695 356.5,-701 350.5,-707 344.5,-707 344.5,-707 118,-707 118,-707 112,-707 106,-701 106,-695 106,-695 106,-620.5 106,-620.5 106,-614.5 112,-608.5 118,-608.5"/>
<text text-anchor="middle" x="231.25" y="-689.7" font-family="Times,serif" font-size="14.00" fill="#000000">Animal</text>
<text text-anchor="middle" x="231.25" y="-673.2" font-family="Times,serif" font-size="14.00" fill="#000000">0x105301e40</text>
<polyline fill="none" stroke="#d3c70d" points="106,-666 356.5,-666"/>
<text text-anchor="middle" x="150.75" y="-648.7" font-family="Times,serif" font-size="14.00" fill="#000000">Left</text>
<text text-anchor="middle" x="150.75" y="-632.2" font-family="Times,serif" font-size="14.00" fill="#000000">Poltorashka</text>
<text text-anchor="middle" x="150.75" y="-615.7" font-family="Times,serif" font-size="14.00" fill="#000000">0x105301e10</text>
<polyline fill="none" stroke="#d3c70d" points="195.5,-608.5 195.5,-666"/>
<text text-anchor="middle" x="222.25" y="-648.7" font-family="Times,serif" font-size="14.00" fill="#000000">Parent</text>
<text text-anchor="middle" x="222.25" y="-632.2" font-family="Times,serif" font-size="14.00" fill="#000000">NONE</text>
<text text-anchor="middle" x="222.25" y="-615.7" font-family="Times,serif" font-size="14.00" fill="#000000">0x0</text>
<polyline fill="none" stroke="#d3c70d" points="249,-608.5 249,-666"/>
<text text-anchor="middle" x="302.75" y="-648.7" font-family="Times,serif" font-size="14.00" fill="#000000">Right</text>
<text text-anchor="middle" x="302.75" y="-632.2" font-family="Times,serif" font-size="14.00" fill="#000000">Teaches analisys</text>
<text text-anchor="middle" x="302.75" y="-615.7" font-family="Times,serif" font-size="14.00" fill="#000000">0x105301de0</text>
</g>
<!-- node0x105301e10 -->
<g id="node2" class="node">
<title>node0x105301e10</title>
<path fill="#d5cfe1" stroke="#8797b2" d="M12,-456.5C12,-456.5 184.5,-456.5 184.5,-456.5 190.5,-456.5 196.5,-462.5 196.5,-468.5 196.5,-468.5 196.5,-543 196.5,-543 196.5,-549 190.5,-555 184.5,-555 184.5,-555 12,-555 12,-555 6,-555 0,-549 0,-543 0,-543 0,-468.5 0,-468.5 0,-462.5 6,-456.5 12,-456.5"/>
<text text-anchor="middle" x="98.25" y="-537.7" font-family="Times,serif" font-size="14.00" fill="#000000">Poltorashka</text>
<text text-anchor="middle" x="98.25" y="-521.2" font-family="Times,serif" font-size="14.00" fill="#000000">0x105301e10</text>
<polyline fill="none" stroke="#8797b2" points="0,-514 196.5,-514"/>
<text text-anchor="middle" x="26.75" y="-496.7" font-family="Times,serif" font-size="14.00" fill="#000000">Left</text>
<text text-anchor="middle" x="26.75" y="-480.2" font-family="Times,serif" font-size="14.00" fill="#000000">NONE</text>
<text text-anchor="middle" x="26.75" y="-463.7" font-family="Times,serif" font-size="14.00" fill="#000000">0x0</text>
<polyline fill="none" stroke="#8797b2" points="53.5,-456.5 53.5,-514"/>
<text text-anchor="middle" x="98.25" y="-496.7" font-family="Times,serif" font-size="14.00" fill="#000000">Parent</text>
<text text-anchor="middle" x="98.25" y="-480.2" font-family="Times,serif" font-size="14.00" fill="#000000">Animal</text>
<text text-anchor="middle" x="98.25" y="-463.7" font-family="Times,serif" font-size="14.00" fill="#000000">0x105301e40</text>
<polyline fill="none" stroke="#8797b2" points="143,-456.5 143,-514"/>
<text text-anchor="middle" x="169.75" y="-496.7" font-family="Times,serif" font-size="14.00" fill="#000000">Right</text>
<text text-anchor="middle" x="169.75" y="-480.2" font-family="Times,serif" font-size="14.00" fill="#000000">NONE</text>
<text text-anchor="middle" x="169.75" y="-463.7" font-family="Times,serif" font-size="14.00" fill="#000000">0x0</text>
</g>
<!-- node0x105301e40&#45;&gt;node0x105301e10 -->
<g id="edge1" class="edge">
<title>node0x105301e40:left&#45;&gt;node0x105301e10</title>
<path fill="none" stroke="#187ae8" stroke-width="2" d="M105,-637.25C74.29,-637.25 74.17,-600.77 80.87,-566.38"/>
<polygon fill="#187ae8" stroke="#187ae8" stroke-width="2" points="83.93,-568.82 82.62,-558.3 77.09,-567.34 83.93,-568.82"/>
<text text-anchor="middle" x="87.09" y="-576.7" font-family="Times,serif" font-size="14.00">Да</text>
</g>
<!-- node0x105301de0 -->
<g id="node4" class="node">
<title>node0x105301de0</title>
<path fill="#bdef9e" stroke="#99c2a2" d="M226.12,-456.5C226.12,-456.5 486.38,-456.5 486.38,-456.5 492.38,-456.5 498.38,-462.5 498.38,-468.5 498.38,-468.5 498.38,-543 498.38,-543 498.38,-549 492.38,-555 486.38,-555 486.38,-555 226.12,-555 226.12,-555 220.12,-555 214.12,-549 214.12,-543 214.12,-543 214.12,-468.5 214.12,-468.5 214.12,-462.5 220.12,-456.5 226.12,-456.5"/>
<text text-anchor="middle" x="356.25" y="-537.7" font-family="Times,serif" font-size="14.00" fill="#000000">Teaches analisys</text>
<text text-anchor="middle" x="356.25" y="-521.2" font-family="Times,serif" font-size="14.00" fill="#000000">0x105301de0</text>
<polyline fill="none" stroke="#99c2a2" points="214.12,-514 498.38,-514"/>
<text text-anchor="middle" x="259.25" y="-496.7" font-family="Times,serif" font-size="14.00" fill="#000000">Left</text>
<text text-anchor="middle" x="259.25" y="-480.2" font-family="Times,serif" font-size="14.00" fill="#000000">Burtsev</text>
<text text-anchor="middle" x="259.25" y="-463.7" font-family="Times,serif" font-size="14.00" fill="#000000">0x105301d80</text>
<polyline fill="none" stroke="#99c2a2" points="304.38,-456.5 304.38,-514"/>
<text text-anchor="middle" x="349.12" y="-496.7" font-family="Times,serif" font-size="14.00" fill="#000000">Parent</text>
<text text-anchor="middle" x="349.12" y="-480.2" font-family="Times,serif" font-size="14.00" fill="#000000">Animal</text>
<text text-anchor="middle" x="349.12" y="-463.7" font-family="Times,serif" font-size="14.00" fill="#000000">0x105301e40</text>
<polyline fill="none" stroke="#99c2a2" points="393.88,-456.5 393.88,-514"/>
<text text-anchor="middle" x="446.12" y="-496.7" font-family="Times,serif" font-size="14.00" fill="#000000">Right</text>
<text text-anchor="middle" x="446.12" y="-480.2" font-family="Times,serif" font-size="14.00" fill="#000000">Teaches physics</text>
<text text-anchor="middle" x="446.12" y="-463.7" font-family="Times,serif" font-size="14.00" fill="#000000">0x105301d50</text>
</g>
<!-- node0x105301e40&#45;&gt;node0x105301de0 -->
<g id="edge9" class="edge">
<title>node0x105301e40:right&#45;&gt;node0x105301de0</title>
<path fill="none" stroke="#48e818" stroke-width="2" d="M302.75,-608C302.75,-593.35 307.19,-578.74 313.5,-565.36"/>
<polygon fill="#48e818" stroke="#48e818" stroke-width="2" points="315.78,-568.57 317.27,-558.08 309.56,-565.36 315.78,-568.57"/>
<text text-anchor="middle" x="320.25" y="-576.7" font-family="Times,serif" font-size="14.00">Нет</text>
</g>
<!-- node0x105301c90 -->
<g id="node3" class="node">
<title>node0x105301c90</title>
<path fill="#f18805" stroke="#af3800" d="M559.5,-152.5C559.5,-152.5 783,-152.5 783,-152.5 789,-152.5 795,-158.5 795,-164.5 795,-164.5 795,-239 795,-239 795,-245 789,-251 783,-251 783,-251 559.5,-251 559.5,-251 553.5,-251 547.5,-245 547.5,-239 547.5,-239 547.5,-164.5 547.5,-164.5 547.5,-158.5 553.5,-152.5 559.5,-152.5"/>
<text text-anchor="middle" x="671.25" y="-233.7" font-family="Times,serif" font-size="14.00" fill="#000000">Teaches angem</text>
<text text-anchor="middle" x="671.25" y="-217.2" font-family="Times,serif" font-size="14.00" fill="#000000">0x105301c90</text>
<polyline fill="none" stroke="#af3800" points="547.5,-210 795,-210"/>
<text text-anchor="middle" x="592.25" y="-192.7" font-family="Times,serif" font-size="14.00" fill="#000000">Left</text>
<text text-anchor="middle" x="592.25" y="-176.2" font-family="Times,serif" font-size="14.00" fill="#000000">Chubarik</text>
<text text-anchor="middle" x="592.25" y="-159.7" font-family="Times,serif" font-size="14.00" fill="#000000">0x105301c60</text>
<polyline fill="none" stroke="#af3800" points="637,-152.5 637,-210"/>
<text text-anchor="middle" x="689.25" y="-192.7" font-family="Times,serif" font-size="14.00" fill="#000000">Parent</text>
<text text-anchor="middle" x="689.25" y="-176.2" font-family="Times,serif" font-size="14.00" fill="#000000">Teaches physics</text>
<text text-anchor="middle" x="689.25" y="-159.7" font-family="Times,serif" font-size="14.00" fill="#000000">0x105301d50</text>
<polyline fill="none" stroke="#af3800" points="741.5,-152.5 741.5,-210"/>
<text text-anchor="middle" x="768.25" y="-192.7" font-family="Times,serif" font-size="14.00" fill="#000000">Right</text>
<text text-anchor="middle" x="768.25" y="-176.2" font-family="Times,serif" font-size="14.00" fill="#000000">NONE</text>
<text text-anchor="middle" x="768.25" y="-159.7" font-family="Times,serif" font-size="14.00" fill="#000000">0x0</text>
</g>
<!-- node0x105301c60 -->
<g id="node10" class="node">
<title>node0x105301c60</title>
<path fill="#d5cfe1" stroke="#8797b2" d="M524.38,-0.5C524.38,-0.5 708.12,-0.5 708.12,-0.5 714.12,-0.5 720.12,-6.5 720.12,-12.5 720.12,-12.5 720.12,-87 720.12,-87 720.12,-93 714.12,-99 708.12,-99 708.12,-99 524.38,-99 524.38,-99 518.38,-99 512.38,-93 512.38,-87 512.38,-87 512.38,-12.5 512.38,-12.5 512.38,-6.5 518.38,-0.5 524.38,-0.5"/>
<text text-anchor="middle" x="616.25" y="-81.7" font-family="Times,serif" font-size="14.00" fill="#000000">Chubarik</text>
<text text-anchor="middle" x="616.25" y="-65.2" font-family="Times,serif" font-size="14.00" fill="#000000">0x105301c60</text>
<polyline fill="none" stroke="#8797b2" points="512.38,-58 720.12,-58"/>
<text text-anchor="middle" x="539.12" y="-40.7" font-family="Times,serif" font-size="14.00" fill="#000000">Left</text>
<text text-anchor="middle" x="539.12" y="-24.2" font-family="Times,serif" font-size="14.00" fill="#000000">NONE</text>
<text text-anchor="middle" x="539.12" y="-7.7" font-family="Times,serif" font-size="14.00" fill="#000000">0x0</text>
<polyline fill="none" stroke="#8797b2" points="565.88,-0.5 565.88,-58"/>
<text text-anchor="middle" x="616.25" y="-40.7" font-family="Times,serif" font-size="14.00" fill="#000000">Parent</text>
<text text-anchor="middle" x="616.25" y="-24.2" font-family="Times,serif" font-size="14.00" fill="#000000">Teaches angem</text>
<text text-anchor="middle" x="616.25" y="-7.7" font-family="Times,serif" font-size="14.00" fill="#000000">0x105301c90</text>
<polyline fill="none" stroke="#8797b2" points="666.62,-0.5 666.62,-58"/>
<text text-anchor="middle" x="693.38" y="-40.7" font-family="Times,serif" font-size="14.00" fill="#000000">Right</text>
<text text-anchor="middle" x="693.38" y="-24.2" font-family="Times,serif" font-size="14.00" fill="#000000">NONE</text>
<text text-anchor="middle" x="693.38" y="-7.7" font-family="Times,serif" font-size="14.00" fill="#000000">0x0</text>
</g>
<!-- node0x105301c90&#45;&gt;node0x105301c60 -->
<g id="edge6" class="edge">
<title>node0x105301c90:left&#45;&gt;node0x105301c60</title>
<path fill="none" stroke="#187ae8" stroke-width="2" d="M592.25,-152C592.25,-138.38 594.33,-124 597.27,-110.49"/>
<polygon fill="#187ae8" stroke="#187ae8" stroke-width="2" points="600.3,-112.87 599.21,-102.33 593.49,-111.25 600.3,-112.87"/>
<text text-anchor="middle" x="603.61" y="-120.7" font-family="Times,serif" font-size="14.00">Да</text>
</g>
<!-- node0x105301d80 -->
<g id="node5" class="node">
<title>node0x105301d80</title>
<path fill="#d5cfe1" stroke="#8797b2" d="M142,-304.5C142,-304.5 332.5,-304.5 332.5,-304.5 338.5,-304.5 344.5,-310.5 344.5,-316.5 344.5,-316.5 344.5,-391 344.5,-391 344.5,-397 338.5,-403 332.5,-403 332.5,-403 142,-403 142,-403 136,-403 130,-397 130,-391 130,-391 130,-316.5 130,-316.5 130,-310.5 136,-304.5 142,-304.5"/>
<text text-anchor="middle" x="237.25" y="-385.7" font-family="Times,serif" font-size="14.00" fill="#000000">Burtsev</text>
<text text-anchor="middle" x="237.25" y="-369.2" font-family="Times,serif" font-size="14.00" fill="#000000">0x105301d80</text>
<polyline fill="none" stroke="#8797b2" points="130,-362 344.5,-362"/>
<text text-anchor="middle" x="156.75" y="-344.7" font-family="Times,serif" font-size="14.00" fill="#000000">Left</text>
<text text-anchor="middle" x="156.75" y="-328.2" font-family="Times,serif" font-size="14.00" fill="#000000">NONE</text>
<text text-anchor="middle" x="156.75" y="-311.7" font-family="Times,serif" font-size="14.00" fill="#000000">0x0</text>
<polyline fill="none" stroke="#8797b2" points="183.5,-304.5 183.5,-362"/>
<text text-anchor="middle" x="237.25" y="-344.7" font-family="Times,serif" font-size="14.00" fill="#000000">Parent</text>
<text text-anchor="middle" x="237.25" y="-328.2" font-family="Times,serif" font-size="14.00" fill="#000000">Teaches analisys</text>
<text text-anchor="middle" x="237.25" y="-311.7" font-family="Times,serif" font-size="14.00" fill="#000000">0x105301de0</text>
<polyline fill="none" stroke="#8797b2" points="291,-304.5 291,-362"/>
<text text-anchor="middle" x="317.75" y="-344.7" font-family="Times,serif" font-size="14.00" fill="#000000">Right</text>
<text text-anchor="middle" x="317.75" y="-328.2" font-family="Times,serif" font-size="14.00" fill="#000000">NONE</text>
<text text-anchor="middle" x="317.75" y="-311.7" font-family="Times,serif" font-size="14.00" fill="#000000">0x0</text>
</g>
<!-- node0x105301de0&#45;&gt;node0x105301d80 -->
<g id="edge2" class="edge">
<title>node0x105301de0:left&#45;&gt;node0x105301d80</title>
<path fill="none" stroke="#187ae8" stroke-width="2" d="M259.25,-456C259.25,-442.44 257.34,-428.08 254.65,-414.58"/>
<polygon fill="#187ae8" stroke="#187ae8" stroke-width="2" points="258.42,-415.45 252.87,-406.43 251.58,-416.94 258.42,-415.45"/>
<text text-anchor="middle" x="265.95" y="-424.7" font-family="Times,serif" font-size="14.00">Да</text>
</g>
<!-- node0x105301d50 -->
<g id="node6" class="node">
<title>node0x105301d50</title>
<path fill="#bdef9e" stroke="#99c2a2" d="M375,-304.5C375,-304.5 649.5,-304.5 649.5,-304.5 655.5,-304.5 661.5,-310.5 661.5,-316.5 661.5,-316.5 661.5,-391 661.5,-391 661.5,-397 655.5,-403 649.5,-403 649.5,-403 375,-403 375,-403 369,-403 363,-397 363,-391 363,-391 363,-316.5 363,-316.5 363,-310.5 369,-304.5 375,-304.5"/>
<text text-anchor="middle" x="512.25" y="-385.7" font-family="Times,serif" font-size="14.00" fill="#000000">Teaches physics</text>
<text text-anchor="middle" x="512.25" y="-369.2" font-family="Times,serif" font-size="14.00" fill="#000000">0x105301d50</text>
<polyline fill="none" stroke="#99c2a2" points="363,-362 661.5,-362"/>
<text text-anchor="middle" x="408.12" y="-344.7" font-family="Times,serif" font-size="14.00" fill="#000000">Left</text>
<text text-anchor="middle" x="408.12" y="-328.2" font-family="Times,serif" font-size="14.00" fill="#000000">Nefor</text>
<text text-anchor="middle" x="408.12" y="-311.7" font-family="Times,serif" font-size="14.00" fill="#000000">0x105301d20</text>
<polyline fill="none" stroke="#99c2a2" points="453.25,-304.5 453.25,-362"/>
<text text-anchor="middle" x="507" y="-344.7" font-family="Times,serif" font-size="14.00" fill="#000000">Parent</text>
<text text-anchor="middle" x="507" y="-328.2" font-family="Times,serif" font-size="14.00" fill="#000000">Teaches analisys</text>
<text text-anchor="middle" x="507" y="-311.7" font-family="Times,serif" font-size="14.00" fill="#000000">0x105301de0</text>
<polyline fill="none" stroke="#99c2a2" points="560.75,-304.5 560.75,-362"/>
<text text-anchor="middle" x="611.12" y="-344.7" font-family="Times,serif" font-size="14.00" fill="#000000">Right</text>
<text text-anchor="middle" x="611.12" y="-328.2" font-family="Times,serif" font-size="14.00" fill="#000000">Teaches angem</text>
<text text-anchor="middle" x="611.12" y="-311.7" font-family="Times,serif" font-size="14.00" fill="#000000">0x105301c90</text>
</g>
<!-- node0x105301de0&#45;&gt;node0x105301d50 -->
<g id="edge8" class="edge">
<title>node0x105301de0:right&#45;&gt;node0x105301d50</title>
<path fill="none" stroke="#48e818" stroke-width="2" d="M446.12,-456C446.12,-440.8 451.42,-426.09 459.01,-412.82"/>
<polygon fill="#48e818" stroke="#48e818" stroke-width="2" points="460.94,-416.32 463.29,-405.99 455.01,-412.6 460.94,-416.32"/>
<text text-anchor="middle" x="465.19" y="-424.7" font-family="Times,serif" font-size="14.00">Нет</text>
</g>
<!-- node0x105301d50&#45;&gt;node0x105301c90 -->
<g id="edge7" class="edge">
<title>node0x105301d50:right&#45;&gt;node0x105301c90</title>
<path fill="none" stroke="#48e818" stroke-width="2" d="M611.12,-304C611.12,-289.09 616,-274.46 622.98,-261.16"/>
<polygon fill="#48e818" stroke="#48e818" stroke-width="2" points="625.21,-264.31 627.17,-253.89 619.14,-260.81 625.21,-264.31"/>
<text text-anchor="middle" x="629.45" y="-272.7" font-family="Times,serif" font-size="14.00">Нет</text>
</g>
<!-- node0x105301d20 -->
<g id="node7" class="node">
<title>node0x105301d20</title>
<path fill="#d5cfe1" stroke="#8797b2" d="M172,-152.5C172,-152.5 428.5,-152.5 428.5,-152.5 434.5,-152.5 440.5,-158.5 440.5,-164.5 440.5,-164.5 440.5,-239 440.5,-239 440.5,-245 434.5,-251 428.5,-251 428.5,-251 172,-251 172,-251 166,-251 160,-245 160,-239 160,-239 160,-164.5 160,-164.5 160,-158.5 166,-152.5 172,-152.5"/>
<text text-anchor="middle" x="300.25" y="-233.7" font-family="Times,serif" font-size="14.00" fill="#000000">Nefor</text>
<text text-anchor="middle" x="300.25" y="-217.2" font-family="Times,serif" font-size="14.00" fill="#000000">0x105301d20</text>
<polyline fill="none" stroke="#8797b2" points="160,-210 440.5,-210"/>
<text text-anchor="middle" x="203.62" y="-192.7" font-family="Times,serif" font-size="14.00" fill="#000000">Left</text>
<text text-anchor="middle" x="203.62" y="-176.2" font-family="Times,serif" font-size="14.00" fill="#000000">Magic</text>
<text text-anchor="middle" x="203.62" y="-159.7" font-family="Times,serif" font-size="14.00" fill="#000000">0x105301cf0</text>
<polyline fill="none" stroke="#8797b2" points="247.25,-152.5 247.25,-210"/>
<text text-anchor="middle" x="299.5" y="-192.7" font-family="Times,serif" font-size="14.00" fill="#000000">Parent</text>
<text text-anchor="middle" x="299.5" y="-176.2" font-family="Times,serif" font-size="14.00" fill="#000000">Teaches physics</text>
<text text-anchor="middle" x="299.5" y="-159.7" font-family="Times,serif" font-size="14.00" fill="#000000">0x105301d50</text>
<polyline fill="none" stroke="#8797b2" points="351.75,-152.5 351.75,-210"/>
<text text-anchor="middle" x="396.12" y="-192.7" font-family="Times,serif" font-size="14.00" fill="#000000">Right</text>
<text text-anchor="middle" x="396.12" y="-176.2" font-family="Times,serif" font-size="14.00" fill="#000000">Ovchos</text>
<text text-anchor="middle" x="396.12" y="-159.7" font-family="Times,serif" font-size="14.00" fill="#000000">0x105301cc0</text>
</g>
<!-- node0x105301d50&#45;&gt;node0x105301d20 -->
<g id="edge3" class="edge">
<title>node0x105301d50:left&#45;&gt;node0x105301d20</title>
<path fill="none" stroke="#187ae8" stroke-width="2" d="M408.12,-304C408.12,-287.3 401.17,-272.56 390.79,-259.85"/>
<polygon fill="#187ae8" stroke="#187ae8" stroke-width="2" points="394.45,-258.67 385.14,-253.62 389.27,-263.38 394.45,-258.67"/>
<text text-anchor="middle" x="412.98" y="-272.7" font-family="Times,serif" font-size="14.00">Да</text>
</g>
<!-- node0x105301cf0 -->
<g id="node8" class="node">
<title>node0x105301cf0</title>
<path fill="#d5cfe1" stroke="#8797b2" d="M93.62,-0.5C93.62,-0.5 266.88,-0.5 266.88,-0.5 272.88,-0.5 278.88,-6.5 278.88,-12.5 278.88,-12.5 278.88,-87 278.88,-87 278.88,-93 272.88,-99 266.88,-99 266.88,-99 93.62,-99 93.62,-99 87.63,-99 81.62,-93 81.62,-87 81.62,-87 81.62,-12.5 81.62,-12.5 81.62,-6.5 87.62,-0.5 93.62,-0.5"/>
<text text-anchor="middle" x="180.25" y="-81.7" font-family="Times,serif" font-size="14.00" fill="#000000">Magic</text>
<text text-anchor="middle" x="180.25" y="-65.2" font-family="Times,serif" font-size="14.00" fill="#000000">0x105301cf0</text>
<polyline fill="none" stroke="#8797b2" points="81.62,-58 278.88,-58"/>
<text text-anchor="middle" x="108.38" y="-40.7" font-family="Times,serif" font-size="14.00" fill="#000000">Left</text>
<text text-anchor="middle" x="108.38" y="-24.2" font-family="Times,serif" font-size="14.00" fill="#000000">NONE</text>
<text text-anchor="middle" x="108.38" y="-7.7" font-family="Times,serif" font-size="14.00" fill="#000000">0x0</text>
<polyline fill="none" stroke="#8797b2" points="135.12,-0.5 135.12,-58"/>
<text text-anchor="middle" x="180.25" y="-40.7" font-family="Times,serif" font-size="14.00" fill="#000000">Parent</text>
<text text-anchor="middle" x="180.25" y="-24.2" font-family="Times,serif" font-size="14.00" fill="#000000">Nefor</text>
<text text-anchor="middle" x="180.25" y="-7.7" font-family="Times,serif" font-size="14.00" fill="#000000">0x105301d20</text>
<polyline fill="none" stroke="#8797b2" points="225.38,-0.5 225.38,-58"/>
<text text-anchor="middle" x="252.12" y="-40.7" font-family="Times,serif" font-size="14.00" fill="#000000">Right</text>
<text text-anchor="middle" x="252.12" y="-24.2" font-family="Times,serif" font-size="14.00" fill="#000000">NONE</text>
<text text-anchor="middle" x="252.12" y="-7.7" font-family="Times,serif" font-size="14.00" fill="#000000">0x0</text>
</g>
<!-- node0x105301d20&#45;&gt;node0x105301cf0 -->
<g id="edge4" class="edge">
<title>node0x105301d20:left&#45;&gt;node0x105301cf0</title>
<path fill="none" stroke="#187ae8" stroke-width="2" d="M203.62,-152C203.62,-138.4 201.6,-124.03 198.74,-110.52"/>
<polygon fill="#187ae8" stroke="#187ae8" stroke-width="2" points="202.51,-111.31 196.85,-102.36 195.69,-112.89 202.51,-111.31"/>
<text text-anchor="middle" x="210.25" y="-120.7" font-family="Times,serif" font-size="14.00">Да</text>
</g>
<!-- node0x105301cc0 -->
<g id="node9" class="node">
<title>node0x105301cc0</title>
<path fill="#bdef9e" stroke="#99c2a2" d="M308.62,-0.5C308.62,-0.5 481.88,-0.5 481.88,-0.5 487.88,-0.5 493.88,-6.5 493.88,-12.5 493.88,-12.5 493.88,-87 493.88,-87 493.88,-93 487.88,-99 481.88,-99 481.88,-99 308.62,-99 308.62,-99 302.62,-99 296.62,-93 296.62,-87 296.62,-87 296.62,-12.5 296.62,-12.5 296.62,-6.5 302.62,-0.5 308.62,-0.5"/>
<text text-anchor="middle" x="395.25" y="-81.7" font-family="Times,serif" font-size="14.00" fill="#000000">Ovchos</text>
<text text-anchor="middle" x="395.25" y="-65.2" font-family="Times,serif" font-size="14.00" fill="#000000">0x105301cc0</text>
<polyline fill="none" stroke="#99c2a2" points="296.62,-58 493.88,-58"/>
<text text-anchor="middle" x="323.38" y="-40.7" font-family="Times,serif" font-size="14.00" fill="#000000">Left</text>
<text text-anchor="middle" x="323.38" y="-24.2" font-family="Times,serif" font-size="14.00" fill="#000000">NONE</text>
<text text-anchor="middle" x="323.38" y="-7.7" font-family="Times,serif" font-size="14.00" fill="#000000">0x0</text>
<polyline fill="none" stroke="#99c2a2" points="350.12,-0.5 350.12,-58"/>
<text text-anchor="middle" x="395.25" y="-40.7" font-family="Times,serif" font-size="14.00" fill="#000000">Parent</text>
<text text-anchor="middle" x="395.25" y="-24.2" font-family="Times,serif" font-size="14.00" fill="#000000">Nefor</text>
<text text-anchor="middle" x="395.25" y="-7.7" font-family="Times,serif" font-size="14.00" fill="#000000">0x105301d20</text>
<polyline fill="none" stroke="#99c2a2" points="440.38,-0.5 440.38,-58"/>
<text text-anchor="middle" x="467.12" y="-40.7" font-family="Times,serif" font-size="14.00" fill="#000000">Right</text>
<text text-anchor="middle" x="467.12" y="-24.2" font-family="Times,serif" font-size="14.00" fill="#000000">NONE</text>
<text text-anchor="middle" x="467.12" y="-7.7" font-family="Times,serif" font-size="14.00" fill="#000000">0x0</text>
</g>
<!-- node0x105301d20&#45;&gt;node0x105301cc0 -->
<g id="edge5" class="edge">
<title>node0x105301d20:right&#45;&gt;node0x105301cc0</title>
<path fill="none" stroke="#48e818" stroke-width="2" d="M396.12,-152C396.12,-138.61 396.05,-124.22 395.94,-110.62"/>
<polygon fill="#48e818" stroke="#48e818" stroke-width="2" points="399.45,-112.41 395.87,-102.44 392.45,-112.47 399.45,-112.41"/>
<text text-anchor="middle" x="406.95" y="-120.7" font-family="Times,serif" font-size="14.00">Нет</text>
</g>
</g>
</svg>
