<?xml version="1.0" encoding="UTF-8" standalone="no"?>
<!DOCTYPE svg PUBLIC "-//W3C//DTD SVG 1.1//EN"
 "http://www.w3.org/Graphics/SVG/1.1/DTD/svg11.dtd">
<!-- Generated by graphviz version 12.2.0 (20241103.1931)
 -->
<!-- Pages: 1 -->
<svg width="755pt" height="716pt"
 viewBox="0.00 0.00 755.00 715.50" xmlns="http://www.w3.org/2000/svg" xmlns:xlink="http://www.w3.org/1999/xlink">
<g id="graph0" class="graph" transform="scale(1 1) rotate(0) translate(4 711.5)">
<polygon fill="#dcdcdc" stroke="none" points="-4,4 -4,-711.5 751,-711.5 751,4 -4,4"/>
<!-- node0x103601de0 -->
<g id="node1" class="node">
<title>node0x103601de0</title>
<path fill="#fbee21" stroke="#d3c70d" d="M117.62,-608.5C117.62,-608.5 344.88,-608.5 344.88,-608.5 350.88,-608.5 356.88,-614.5 356.88,-620.5 356.88,-620.5 356.88,-695 356.88,-695 356.88,-701 350.88,-707 344.88,-707 344.88,-707 117.63,-707 117.63,-707 111.62,-707 105.62,-701 105.62,-695 105.62,-695 105.62,-620.5 105.62,-620.5 105.62,-614.5 111.62,-608.5 117.62,-608.5"/>
<text text-anchor="middle" x="231.25" y="-689.7" font-family="Times,serif" font-size="14.00" fill="#000000">Animal</text>
<text text-anchor="middle" x="231.25" y="-673.2" font-family="Times,serif" font-size="14.00" fill="#000000">0x103601de0</text>
<polyline fill="none" stroke="#d3c70d" points="105.62,-666 356.88,-666"/>
<text text-anchor="middle" x="150.75" y="-648.7" font-family="Times,serif" font-size="14.00" fill="#000000">Left</text>
<text text-anchor="middle" x="150.75" y="-632.2" font-family="Times,serif" font-size="14.00" fill="#000000">Poltorashka</text>
<text text-anchor="middle" x="150.75" y="-615.7" font-family="Times,serif" font-size="14.00" fill="#000000">0x103601db0</text>
<polyline fill="none" stroke="#d3c70d" points="195.88,-608.5 195.88,-666"/>
<text text-anchor="middle" x="222.62" y="-648.7" font-family="Times,serif" font-size="14.00" fill="#000000">Parent</text>
<text text-anchor="middle" x="222.62" y="-632.2" font-family="Times,serif" font-size="14.00" fill="#000000">NONE</text>
<text text-anchor="middle" x="222.62" y="-615.7" font-family="Times,serif" font-size="14.00" fill="#000000">0x0</text>
<polyline fill="none" stroke="#d3c70d" points="249.38,-608.5 249.38,-666"/>
<text text-anchor="middle" x="303.12" y="-648.7" font-family="Times,serif" font-size="14.00" fill="#000000">Right</text>
<text text-anchor="middle" x="303.12" y="-632.2" font-family="Times,serif" font-size="14.00" fill="#000000">Teaches analisys</text>
<text text-anchor="middle" x="303.12" y="-615.7" font-family="Times,serif" font-size="14.00" fill="#000000">0x103601d80</text>
</g>
<!-- node0x103601db0 -->
<g id="node2" class="node">
<title>node0x103601db0</title>
<path fill="#d5cfe1" stroke="#8797b2" d="M12,-456.5C12,-456.5 184.5,-456.5 184.5,-456.5 190.5,-456.5 196.5,-462.5 196.5,-468.5 196.5,-468.5 196.5,-543 196.5,-543 196.5,-549 190.5,-555 184.5,-555 184.5,-555 12,-555 12,-555 6,-555 0,-549 0,-543 0,-543 0,-468.5 0,-468.5 0,-462.5 6,-456.5 12,-456.5"/>
<text text-anchor="middle" x="98.25" y="-537.7" font-family="Times,serif" font-size="14.00" fill="#000000">Poltorashka</text>
<text text-anchor="middle" x="98.25" y="-521.2" font-family="Times,serif" font-size="14.00" fill="#000000">0x103601db0</text>
<polyline fill="none" stroke="#8797b2" points="0,-514 196.5,-514"/>
<text text-anchor="middle" x="26.75" y="-496.7" font-family="Times,serif" font-size="14.00" fill="#000000">Left</text>
<text text-anchor="middle" x="26.75" y="-480.2" font-family="Times,serif" font-size="14.00" fill="#000000">NONE</text>
<text text-anchor="middle" x="26.75" y="-463.7" font-family="Times,serif" font-size="14.00" fill="#000000">0x0</text>
<polyline fill="none" stroke="#8797b2" points="53.5,-456.5 53.5,-514"/>
<text text-anchor="middle" x="98.25" y="-496.7" font-family="Times,serif" font-size="14.00" fill="#000000">Parent</text>
<text text-anchor="middle" x="98.25" y="-480.2" font-family="Times,serif" font-size="14.00" fill="#000000">Animal</text>
<text text-anchor="middle" x="98.25" y="-463.7" font-family="Times,serif" font-size="14.00" fill="#000000">0x103601de0</text>
<polyline fill="none" stroke="#8797b2" points="143,-456.5 143,-514"/>
<text text-anchor="middle" x="169.75" y="-496.7" font-family="Times,serif" font-size="14.00" fill="#000000">Right</text>
<text text-anchor="middle" x="169.75" y="-480.2" font-family="Times,serif" font-size="14.00" fill="#000000">NONE</text>
<text text-anchor="middle" x="169.75" y="-463.7" font-family="Times,serif" font-size="14.00" fill="#000000">0x0</text>
</g>
<!-- node0x103601de0&#45;&gt;node0x103601db0 -->
<g id="edge1" class="edge">
<title>node0x103601de0:left&#45;&gt;node0x103601db0</title>
<path fill="none" stroke="#187ae8" stroke-width="2" d="M104.62,-637.25C73.92,-637.25 73.9,-600.77 80.71,-566.38"/>
<polygon fill="#187ae8" stroke="#187ae8" stroke-width="2" points="83.76,-568.82 82.48,-558.3 76.92,-567.32 83.76,-568.82"/>
<text text-anchor="middle" x="86.89" y="-576.7" font-family="Times,serif" font-size="14.00">Да</text>
</g>
<!-- node0x103601d80 -->
<g id="node4" class="node">
<title>node0x103601d80</title>
<path fill="#bdef9e" stroke="#99c2a2" d="M226.12,-456.5C226.12,-456.5 486.38,-456.5 486.38,-456.5 492.38,-456.5 498.38,-462.5 498.38,-468.5 498.38,-468.5 498.38,-543 498.38,-543 498.38,-549 492.38,-555 486.38,-555 486.38,-555 226.12,-555 226.12,-555 220.12,-555 214.12,-549 214.12,-543 214.12,-543 214.12,-468.5 214.12,-468.5 214.12,-462.5 220.12,-456.5 226.12,-456.5"/>
<text text-anchor="middle" x="356.25" y="-537.7" font-family="Times,serif" font-size="14.00" fill="#000000">Teaches analisys</text>
<text text-anchor="middle" x="356.25" y="-521.2" font-family="Times,serif" font-size="14.00" fill="#000000">0x103601d80</text>
<polyline fill="none" stroke="#99c2a2" points="214.12,-514 498.38,-514"/>
<text text-anchor="middle" x="259.25" y="-496.7" font-family="Times,serif" font-size="14.00" fill="#000000">Left</text>
<text text-anchor="middle" x="259.25" y="-480.2" font-family="Times,serif" font-size="14.00" fill="#000000">Burtsev</text>
<text text-anchor="middle" x="259.25" y="-463.7" font-family="Times,serif" font-size="14.00" fill="#000000">0x103601d20</text>
<polyline fill="none" stroke="#99c2a2" points="304.38,-456.5 304.38,-514"/>
<text text-anchor="middle" x="349.12" y="-496.7" font-family="Times,serif" font-size="14.00" fill="#000000">Parent</text>
<text text-anchor="middle" x="349.12" y="-480.2" font-family="Times,serif" font-size="14.00" fill="#000000">Animal</text>
<text text-anchor="middle" x="349.12" y="-463.7" font-family="Times,serif" font-size="14.00" fill="#000000">0x103601de0</text>
<polyline fill="none" stroke="#99c2a2" points="393.88,-456.5 393.88,-514"/>
<text text-anchor="middle" x="446.12" y="-496.7" font-family="Times,serif" font-size="14.00" fill="#000000">Right</text>
<text text-anchor="middle" x="446.12" y="-480.2" font-family="Times,serif" font-size="14.00" fill="#000000">Teaches physics</text>
<text text-anchor="middle" x="446.12" y="-463.7" font-family="Times,serif" font-size="14.00" fill="#000000">0x103601cf0</text>
</g>
<!-- node0x103601de0&#45;&gt;node0x103601d80 -->
<g id="edge8" class="edge">
<title>node0x103601de0:right&#45;&gt;node0x103601d80</title>
<path fill="none" stroke="#48e818" stroke-width="2" d="M303.12,-608C303.12,-593.37 307.53,-578.77 313.8,-565.39"/>
<polygon fill="#48e818" stroke="#48e818" stroke-width="2" points="316.08,-568.61 317.54,-558.12 309.86,-565.42 316.08,-568.61"/>
<text text-anchor="middle" x="320.58" y="-576.7" font-family="Times,serif" font-size="14.00">Нет</text>
</g>
<!-- node0x103601c30 -->
<g id="node3" class="node">
<title>node0x103601c30</title>
<path fill="#f18805" stroke="#af3800" d="M547.5,-152.5C547.5,-152.5 735,-152.5 735,-152.5 741,-152.5 747,-158.5 747,-164.5 747,-164.5 747,-239 747,-239 747,-245 741,-251 735,-251 735,-251 547.5,-251 547.5,-251 541.5,-251 535.5,-245 535.5,-239 535.5,-239 535.5,-164.5 535.5,-164.5 535.5,-158.5 541.5,-152.5 547.5,-152.5"/>
<text text-anchor="middle" x="641.25" y="-233.7" font-family="Times,serif" font-size="14.00" fill="#000000">Teaches angem</text>
<text text-anchor="middle" x="641.25" y="-217.2" font-family="Times,serif" font-size="14.00" fill="#000000">0x103601c30</text>
<polyline fill="none" stroke="#af3800" points="535.5,-210 747,-210"/>
<text text-anchor="middle" x="562.25" y="-192.7" font-family="Times,serif" font-size="14.00" fill="#000000">Left</text>
<text text-anchor="middle" x="562.25" y="-176.2" font-family="Times,serif" font-size="14.00" fill="#000000">NONE</text>
<text text-anchor="middle" x="562.25" y="-159.7" font-family="Times,serif" font-size="14.00" fill="#000000">0x0</text>
<polyline fill="none" stroke="#af3800" points="589,-152.5 589,-210"/>
<text text-anchor="middle" x="641.25" y="-192.7" font-family="Times,serif" font-size="14.00" fill="#000000">Parent</text>
<text text-anchor="middle" x="641.25" y="-176.2" font-family="Times,serif" font-size="14.00" fill="#000000">Teaches physics</text>
<text text-anchor="middle" x="641.25" y="-159.7" font-family="Times,serif" font-size="14.00" fill="#000000">0x103601cf0</text>
<polyline fill="none" stroke="#af3800" points="693.5,-152.5 693.5,-210"/>
<text text-anchor="middle" x="720.25" y="-192.7" font-family="Times,serif" font-size="14.00" fill="#000000">Right</text>
<text text-anchor="middle" x="720.25" y="-176.2" font-family="Times,serif" font-size="14.00" fill="#000000">NONE</text>
<text text-anchor="middle" x="720.25" y="-159.7" font-family="Times,serif" font-size="14.00" fill="#000000">0x0</text>
</g>
<!-- node0x103601d20 -->
<g id="node5" class="node">
<title>node0x103601d20</title>
<path fill="#d5cfe1" stroke="#8797b2" d="M142,-304.5C142,-304.5 332.5,-304.5 332.5,-304.5 338.5,-304.5 344.5,-310.5 344.5,-316.5 344.5,-316.5 344.5,-391 344.5,-391 344.5,-397 338.5,-403 332.5,-403 332.5,-403 142,-403 142,-403 136,-403 130,-397 130,-391 130,-391 130,-316.5 130,-316.5 130,-310.5 136,-304.5 142,-304.5"/>
<text text-anchor="middle" x="237.25" y="-385.7" font-family="Times,serif" font-size="14.00" fill="#000000">Burtsev</text>
<text text-anchor="middle" x="237.25" y="-369.2" font-family="Times,serif" font-size="14.00" fill="#000000">0x103601d20</text>
<polyline fill="none" stroke="#8797b2" points="130,-362 344.5,-362"/>
<text text-anchor="middle" x="156.75" y="-344.7" font-family="Times,serif" font-size="14.00" fill="#000000">Left</text>
<text text-anchor="middle" x="156.75" y="-328.2" font-family="Times,serif" font-size="14.00" fill="#000000">NONE</text>
<text text-anchor="middle" x="156.75" y="-311.7" font-family="Times,serif" font-size="14.00" fill="#000000">0x0</text>
<polyline fill="none" stroke="#8797b2" points="183.5,-304.5 183.5,-362"/>
<text text-anchor="middle" x="237.25" y="-344.7" font-family="Times,serif" font-size="14.00" fill="#000000">Parent</text>
<text text-anchor="middle" x="237.25" y="-328.2" font-family="Times,serif" font-size="14.00" fill="#000000">Teaches analisys</text>
<text text-anchor="middle" x="237.25" y="-311.7" font-family="Times,serif" font-size="14.00" fill="#000000">0x103601d80</text>
<polyline fill="none" stroke="#8797b2" points="291,-304.5 291,-362"/>
<text text-anchor="middle" x="317.75" y="-344.7" font-family="Times,serif" font-size="14.00" fill="#000000">Right</text>
<text text-anchor="middle" x="317.75" y="-328.2" font-family="Times,serif" font-size="14.00" fill="#000000">NONE</text>
<text text-anchor="middle" x="317.75" y="-311.7" font-family="Times,serif" font-size="14.00" fill="#000000">0x0</text>
</g>
<!-- node0x103601d80&#45;&gt;node0x103601d20 -->
<g id="edge2" class="edge">
<title>node0x103601d80:left&#45;&gt;node0x103601d20</title>
<path fill="none" stroke="#187ae8" stroke-width="2" d="M259.25,-456C259.25,-442.44 257.34,-428.08 254.65,-414.58"/>
<polygon fill="#187ae8" stroke="#187ae8" stroke-width="2" points="258.42,-415.45 252.87,-406.43 251.58,-416.94 258.42,-415.45"/>
<text text-anchor="middle" x="265.95" y="-424.7" font-family="Times,serif" font-size="14.00">Да</text>
</g>
<!-- node0x103601cf0 -->
<g id="node6" class="node">
<title>node0x103601cf0</title>
<path fill="#bdef9e" stroke="#99c2a2" d="M374.75,-304.5C374.75,-304.5 647.75,-304.5 647.75,-304.5 653.75,-304.5 659.75,-310.5 659.75,-316.5 659.75,-316.5 659.75,-391 659.75,-391 659.75,-397 653.75,-403 647.75,-403 647.75,-403 374.75,-403 374.75,-403 368.75,-403 362.75,-397 362.75,-391 362.75,-391 362.75,-316.5 362.75,-316.5 362.75,-310.5 368.75,-304.5 374.75,-304.5"/>
<text text-anchor="middle" x="511.25" y="-385.7" font-family="Times,serif" font-size="14.00" fill="#000000">Teaches physics</text>
<text text-anchor="middle" x="511.25" y="-369.2" font-family="Times,serif" font-size="14.00" fill="#000000">0x103601cf0</text>
<polyline fill="none" stroke="#99c2a2" points="362.75,-362 659.75,-362"/>
<text text-anchor="middle" x="407.12" y="-344.7" font-family="Times,serif" font-size="14.00" fill="#000000">Left</text>
<text text-anchor="middle" x="407.12" y="-328.2" font-family="Times,serif" font-size="14.00" fill="#000000">Nefor</text>
<text text-anchor="middle" x="407.12" y="-311.7" font-family="Times,serif" font-size="14.00" fill="#000000">0x103601cc0</text>
<polyline fill="none" stroke="#99c2a2" points="451.5,-304.5 451.5,-362"/>
<text text-anchor="middle" x="505.25" y="-344.7" font-family="Times,serif" font-size="14.00" fill="#000000">Parent</text>
<text text-anchor="middle" x="505.25" y="-328.2" font-family="Times,serif" font-size="14.00" fill="#000000">Teaches analisys</text>
<text text-anchor="middle" x="505.25" y="-311.7" font-family="Times,serif" font-size="14.00" fill="#000000">0x103601d80</text>
<polyline fill="none" stroke="#99c2a2" points="559,-304.5 559,-362"/>
<text text-anchor="middle" x="609.38" y="-344.7" font-family="Times,serif" font-size="14.00" fill="#000000">Right</text>
<text text-anchor="middle" x="609.38" y="-328.2" font-family="Times,serif" font-size="14.00" fill="#000000">Teaches angem</text>
<text text-anchor="middle" x="609.38" y="-311.7" font-family="Times,serif" font-size="14.00" fill="#000000">0x103601c30</text>
</g>
<!-- node0x103601d80&#45;&gt;node0x103601cf0 -->
<g id="edge7" class="edge">
<title>node0x103601d80:right&#45;&gt;node0x103601cf0</title>
<path fill="none" stroke="#48e818" stroke-width="2" d="M446.12,-456C446.12,-440.78 451.4,-426.03 458.94,-412.7"/>
<polygon fill="#48e818" stroke="#48e818" stroke-width="2" points="460.9,-416.19 463.19,-405.84 454.95,-412.5 460.9,-416.19"/>
<text text-anchor="middle" x="465.07" y="-424.7" font-family="Times,serif" font-size="14.00">Нет</text>
</g>
<!-- node0x103601cf0&#45;&gt;node0x103601c30 -->
<g id="edge6" class="edge">
<title>node0x103601cf0:right&#45;&gt;node0x103601c30</title>
<path fill="none" stroke="#48e818" stroke-width="2" d="M609.38,-304C609.38,-290.11 612.14,-275.63 616.03,-262.1"/>
<polygon fill="#48e818" stroke="#48e818" stroke-width="2" points="618.8,-264.97 618.46,-254.38 612.13,-262.86 618.8,-264.97"/>
<text text-anchor="middle" x="624.88" y="-272.7" font-family="Times,serif" font-size="14.00">Нет</text>
</g>
<!-- node0x103601cc0 -->
<g id="node7" class="node">
<title>node0x103601cc0</title>
<path fill="#d5cfe1" stroke="#8797b2" d="M245.5,-152.5C245.5,-152.5 505,-152.5 505,-152.5 511,-152.5 517,-158.5 517,-164.5 517,-164.5 517,-239 517,-239 517,-245 511,-251 505,-251 505,-251 245.5,-251 245.5,-251 239.5,-251 233.5,-245 233.5,-239 233.5,-239 233.5,-164.5 233.5,-164.5 233.5,-158.5 239.5,-152.5 245.5,-152.5"/>
<text text-anchor="middle" x="375.25" y="-233.7" font-family="Times,serif" font-size="14.00" fill="#000000">Nefor</text>
<text text-anchor="middle" x="375.25" y="-217.2" font-family="Times,serif" font-size="14.00" fill="#000000">0x103601cc0</text>
<polyline fill="none" stroke="#8797b2" points="233.5,-210 517,-210"/>
<text text-anchor="middle" x="278.25" y="-192.7" font-family="Times,serif" font-size="14.00" fill="#000000">Left</text>
<text text-anchor="middle" x="278.25" y="-176.2" font-family="Times,serif" font-size="14.00" fill="#000000">Magic</text>
<text text-anchor="middle" x="278.25" y="-159.7" font-family="Times,serif" font-size="14.00" fill="#000000">0x103601c90</text>
<polyline fill="none" stroke="#8797b2" points="323,-152.5 323,-210"/>
<text text-anchor="middle" x="375.25" y="-192.7" font-family="Times,serif" font-size="14.00" fill="#000000">Parent</text>
<text text-anchor="middle" x="375.25" y="-176.2" font-family="Times,serif" font-size="14.00" fill="#000000">Teaches physics</text>
<text text-anchor="middle" x="375.25" y="-159.7" font-family="Times,serif" font-size="14.00" fill="#000000">0x103601cf0</text>
<polyline fill="none" stroke="#8797b2" points="427.5,-152.5 427.5,-210"/>
<text text-anchor="middle" x="472.25" y="-192.7" font-family="Times,serif" font-size="14.00" fill="#000000">Right</text>
<text text-anchor="middle" x="472.25" y="-176.2" font-family="Times,serif" font-size="14.00" fill="#000000">Ovchos</text>
<text text-anchor="middle" x="472.25" y="-159.7" font-family="Times,serif" font-size="14.00" fill="#000000">0x103601c60</text>
</g>
<!-- node0x103601cf0&#45;&gt;node0x103601cc0 -->
<g id="edge3" class="edge">
<title>node0x103601cf0:left&#45;&gt;node0x103601cc0</title>
<path fill="none" stroke="#187ae8" stroke-width="2" d="M407.12,-304C407.12,-290.11 404.36,-275.63 400.47,-262.1"/>
<polygon fill="#187ae8" stroke="#187ae8" stroke-width="2" points="404.37,-262.86 398.04,-254.38 397.7,-264.97 404.37,-262.86"/>
<text text-anchor="middle" x="413.3" y="-272.7" font-family="Times,serif" font-size="14.00">Да</text>
</g>
<!-- node0x103601c90 -->
<g id="node8" class="node">
<title>node0x103601c90</title>
<path fill="#d5cfe1" stroke="#8797b2" d="M182.38,-0.5C182.38,-0.5 354.12,-0.5 354.12,-0.5 360.12,-0.5 366.12,-6.5 366.12,-12.5 366.12,-12.5 366.12,-87 366.12,-87 366.12,-93 360.12,-99 354.12,-99 354.12,-99 182.38,-99 182.38,-99 176.38,-99 170.38,-93 170.38,-87 170.38,-87 170.38,-12.5 170.38,-12.5 170.38,-6.5 176.38,-0.5 182.38,-0.5"/>
<text text-anchor="middle" x="268.25" y="-81.7" font-family="Times,serif" font-size="14.00" fill="#000000">Magic</text>
<text text-anchor="middle" x="268.25" y="-65.2" font-family="Times,serif" font-size="14.00" fill="#000000">0x103601c90</text>
<polyline fill="none" stroke="#8797b2" points="170.38,-58 366.12,-58"/>
<text text-anchor="middle" x="197.12" y="-40.7" font-family="Times,serif" font-size="14.00" fill="#000000">Left</text>
<text text-anchor="middle" x="197.12" y="-24.2" font-family="Times,serif" font-size="14.00" fill="#000000">NONE</text>
<text text-anchor="middle" x="197.12" y="-7.7" font-family="Times,serif" font-size="14.00" fill="#000000">0x0</text>
<polyline fill="none" stroke="#8797b2" points="223.88,-0.5 223.88,-58"/>
<text text-anchor="middle" x="268.25" y="-40.7" font-family="Times,serif" font-size="14.00" fill="#000000">Parent</text>
<text text-anchor="middle" x="268.25" y="-24.2" font-family="Times,serif" font-size="14.00" fill="#000000">Nefor</text>
<text text-anchor="middle" x="268.25" y="-7.7" font-family="Times,serif" font-size="14.00" fill="#000000">0x103601cc0</text>
<polyline fill="none" stroke="#8797b2" points="312.62,-0.5 312.62,-58"/>
<text text-anchor="middle" x="339.38" y="-40.7" font-family="Times,serif" font-size="14.00" fill="#000000">Right</text>
<text text-anchor="middle" x="339.38" y="-24.2" font-family="Times,serif" font-size="14.00" fill="#000000">NONE</text>
<text text-anchor="middle" x="339.38" y="-7.7" font-family="Times,serif" font-size="14.00" fill="#000000">0x0</text>
</g>
<!-- node0x103601cc0&#45;&gt;node0x103601c90 -->
<g id="edge4" class="edge">
<title>node0x103601cc0:left&#45;&gt;node0x103601c90</title>
<path fill="none" stroke="#187ae8" stroke-width="2" d="M278.25,-152C278.25,-138.55 277.36,-124.13 276.12,-110.52"/>
<polygon fill="#187ae8" stroke="#187ae8" stroke-width="2" points="279.78,-111.94 275.3,-102.33 272.81,-112.63 279.78,-111.94"/>
<text text-anchor="middle" x="285.59" y="-120.7" font-family="Times,serif" font-size="14.00">Да</text>
</g>
<!-- node0x103601c60 -->
<g id="node9" class="node">
<title>node0x103601c60</title>
<path fill="#bdef9e" stroke="#99c2a2" d="M396.38,-0.5C396.38,-0.5 568.12,-0.5 568.12,-0.5 574.12,-0.5 580.12,-6.5 580.12,-12.5 580.12,-12.5 580.12,-87 580.12,-87 580.12,-93 574.12,-99 568.12,-99 568.12,-99 396.38,-99 396.38,-99 390.38,-99 384.38,-93 384.38,-87 384.38,-87 384.38,-12.5 384.38,-12.5 384.38,-6.5 390.38,-0.5 396.38,-0.5"/>
<text text-anchor="middle" x="482.25" y="-81.7" font-family="Times,serif" font-size="14.00" fill="#000000">Ovchos</text>
<text text-anchor="middle" x="482.25" y="-65.2" font-family="Times,serif" font-size="14.00" fill="#000000">0x103601c60</text>
<polyline fill="none" stroke="#99c2a2" points="384.38,-58 580.12,-58"/>
<text text-anchor="middle" x="411.12" y="-40.7" font-family="Times,serif" font-size="14.00" fill="#000000">Left</text>
<text text-anchor="middle" x="411.12" y="-24.2" font-family="Times,serif" font-size="14.00" fill="#000000">NONE</text>
<text text-anchor="middle" x="411.12" y="-7.7" font-family="Times,serif" font-size="14.00" fill="#000000">0x0</text>
<polyline fill="none" stroke="#99c2a2" points="437.88,-0.5 437.88,-58"/>
<text text-anchor="middle" x="482.25" y="-40.7" font-family="Times,serif" font-size="14.00" fill="#000000">Parent</text>
<text text-anchor="middle" x="482.25" y="-24.2" font-family="Times,serif" font-size="14.00" fill="#000000">Nefor</text>
<text text-anchor="middle" x="482.25" y="-7.7" font-family="Times,serif" font-size="14.00" fill="#000000">0x103601cc0</text>
<polyline fill="none" stroke="#99c2a2" points="526.62,-0.5 526.62,-58"/>
<text text-anchor="middle" x="553.38" y="-40.7" font-family="Times,serif" font-size="14.00" fill="#000000">Right</text>
<text text-anchor="middle" x="553.38" y="-24.2" font-family="Times,serif" font-size="14.00" fill="#000000">NONE</text>
<text text-anchor="middle" x="553.38" y="-7.7" font-family="Times,serif" font-size="14.00" fill="#000000">0x0</text>
</g>
<!-- node0x103601cc0&#45;&gt;node0x103601c60 -->
<g id="edge5" class="edge">
<title>node0x103601cc0:right&#45;&gt;node0x103601c60</title>
<path fill="none" stroke="#48e818" stroke-width="2" d="M472.25,-152C472.25,-138.55 473.14,-124.13 474.38,-110.52"/>
<polygon fill="#48e818" stroke="#48e818" stroke-width="2" points="477.69,-112.63 475.2,-102.33 470.72,-111.94 477.69,-112.63"/>
<text text-anchor="middle" x="484.58" y="-120.7" font-family="Times,serif" font-size="14.00">Нет</text>
</g>
</g>
</svg>
