<?xml version="1.0" encoding="UTF-8" standalone="no"?>
<!DOCTYPE svg PUBLIC "-//W3C//DTD SVG 1.1//EN"
 "http://www.w3.org/Graphics/SVG/1.1/DTD/svg11.dtd">
<!-- Generated by graphviz version 12.2.0 (20241103.1931)
 -->
<!-- Pages: 1 -->
<svg width="624pt" height="564pt"
 viewBox="0.00 0.00 624.38 563.50" xmlns="http://www.w3.org/2000/svg" xmlns:xlink="http://www.w3.org/1999/xlink">
<g id="graph0" class="graph" transform="scale(1 1) rotate(0) translate(4 559.5)">
<polygon fill="#dcdcdc" stroke="none" points="-4,4 -4,-559.5 620.38,-559.5 620.38,4 -4,4"/>
<!-- node0x107601e10 -->
<g id="node1" class="node">
<title>node0x107601e10</title>
<path fill="#fbee21" stroke="#d3c70d" d="M118,-456.5C118,-456.5 344.5,-456.5 344.5,-456.5 350.5,-456.5 356.5,-462.5 356.5,-468.5 356.5,-468.5 356.5,-543 356.5,-543 356.5,-549 350.5,-555 344.5,-555 344.5,-555 118,-555 118,-555 112,-555 106,-549 106,-543 106,-543 106,-468.5 106,-468.5 106,-462.5 112,-456.5 118,-456.5"/>
<text text-anchor="middle" x="231.25" y="-537.7" font-family="Times,serif" font-size="14.00" fill="#000000">Animal</text>
<text text-anchor="middle" x="231.25" y="-521.2" font-family="Times,serif" font-size="14.00" fill="#000000">0x107601e10</text>
<polyline fill="none" stroke="#d3c70d" points="106,-514 356.5,-514"/>
<text text-anchor="middle" x="150.75" y="-496.7" font-family="Times,serif" font-size="14.00" fill="#000000">Left</text>
<text text-anchor="middle" x="150.75" y="-480.2" font-family="Times,serif" font-size="14.00" fill="#000000">Poltorashka</text>
<text text-anchor="middle" x="150.75" y="-463.7" font-family="Times,serif" font-size="14.00" fill="#000000">0x107601de0</text>
<polyline fill="none" stroke="#d3c70d" points="195.5,-456.5 195.5,-514"/>
<text text-anchor="middle" x="222.25" y="-496.7" font-family="Times,serif" font-size="14.00" fill="#000000">Parent</text>
<text text-anchor="middle" x="222.25" y="-480.2" font-family="Times,serif" font-size="14.00" fill="#000000">NONE</text>
<text text-anchor="middle" x="222.25" y="-463.7" font-family="Times,serif" font-size="14.00" fill="#000000">0x0</text>
<polyline fill="none" stroke="#d3c70d" points="249,-456.5 249,-514"/>
<text text-anchor="middle" x="302.75" y="-496.7" font-family="Times,serif" font-size="14.00" fill="#000000">Right</text>
<text text-anchor="middle" x="302.75" y="-480.2" font-family="Times,serif" font-size="14.00" fill="#000000">Teaches analisys</text>
<text text-anchor="middle" x="302.75" y="-463.7" font-family="Times,serif" font-size="14.00" fill="#000000">0x107601db0</text>
</g>
<!-- node0x107601de0 -->
<g id="node2" class="node">
<title>node0x107601de0</title>
<path fill="#d5cfe1" stroke="#8797b2" d="M12,-304.5C12,-304.5 184.5,-304.5 184.5,-304.5 190.5,-304.5 196.5,-310.5 196.5,-316.5 196.5,-316.5 196.5,-391 196.5,-391 196.5,-397 190.5,-403 184.5,-403 184.5,-403 12,-403 12,-403 6,-403 0,-397 0,-391 0,-391 0,-316.5 0,-316.5 0,-310.5 6,-304.5 12,-304.5"/>
<text text-anchor="middle" x="98.25" y="-385.7" font-family="Times,serif" font-size="14.00" fill="#000000">Poltorashka</text>
<text text-anchor="middle" x="98.25" y="-369.2" font-family="Times,serif" font-size="14.00" fill="#000000">0x107601de0</text>
<polyline fill="none" stroke="#8797b2" points="0,-362 196.5,-362"/>
<text text-anchor="middle" x="26.75" y="-344.7" font-family="Times,serif" font-size="14.00" fill="#000000">Left</text>
<text text-anchor="middle" x="26.75" y="-328.2" font-family="Times,serif" font-size="14.00" fill="#000000">NONE</text>
<text text-anchor="middle" x="26.75" y="-311.7" font-family="Times,serif" font-size="14.00" fill="#000000">0x0</text>
<polyline fill="none" stroke="#8797b2" points="53.5,-304.5 53.5,-362"/>
<text text-anchor="middle" x="98.25" y="-344.7" font-family="Times,serif" font-size="14.00" fill="#000000">Parent</text>
<text text-anchor="middle" x="98.25" y="-328.2" font-family="Times,serif" font-size="14.00" fill="#000000">Animal</text>
<text text-anchor="middle" x="98.25" y="-311.7" font-family="Times,serif" font-size="14.00" fill="#000000">0x107601e10</text>
<polyline fill="none" stroke="#8797b2" points="143,-304.5 143,-362"/>
<text text-anchor="middle" x="169.75" y="-344.7" font-family="Times,serif" font-size="14.00" fill="#000000">Right</text>
<text text-anchor="middle" x="169.75" y="-328.2" font-family="Times,serif" font-size="14.00" fill="#000000">NONE</text>
<text text-anchor="middle" x="169.75" y="-311.7" font-family="Times,serif" font-size="14.00" fill="#000000">0x0</text>
</g>
<!-- node0x107601e10&#45;&gt;node0x107601de0 -->
<g id="edge1" class="edge">
<title>node0x107601e10:left&#45;&gt;node0x107601de0</title>
<path fill="none" stroke="#187ae8" stroke-width="2" d="M105,-485.25C74.29,-485.25 74.17,-448.77 80.87,-414.38"/>
<polygon fill="#187ae8" stroke="#187ae8" stroke-width="2" points="83.93,-416.82 82.62,-406.3 77.09,-415.34 83.93,-416.82"/>
<text text-anchor="middle" x="87.09" y="-424.7" font-family="Times,serif" font-size="14.00">Да</text>
</g>
<!-- node0x107601db0 -->
<g id="node4" class="node">
<title>node0x107601db0</title>
<path fill="#bdef9e" stroke="#99c2a2" d="M226.12,-304.5C226.12,-304.5 486.38,-304.5 486.38,-304.5 492.38,-304.5 498.38,-310.5 498.38,-316.5 498.38,-316.5 498.38,-391 498.38,-391 498.38,-397 492.38,-403 486.38,-403 486.38,-403 226.12,-403 226.12,-403 220.12,-403 214.12,-397 214.12,-391 214.12,-391 214.12,-316.5 214.12,-316.5 214.12,-310.5 220.12,-304.5 226.12,-304.5"/>
<text text-anchor="middle" x="356.25" y="-385.7" font-family="Times,serif" font-size="14.00" fill="#000000">Teaches analisys</text>
<text text-anchor="middle" x="356.25" y="-369.2" font-family="Times,serif" font-size="14.00" fill="#000000">0x107601db0</text>
<polyline fill="none" stroke="#99c2a2" points="214.12,-362 498.38,-362"/>
<text text-anchor="middle" x="259.25" y="-344.7" font-family="Times,serif" font-size="14.00" fill="#000000">Left</text>
<text text-anchor="middle" x="259.25" y="-328.2" font-family="Times,serif" font-size="14.00" fill="#000000">Burtsev</text>
<text text-anchor="middle" x="259.25" y="-311.7" font-family="Times,serif" font-size="14.00" fill="#000000">0x107601d50</text>
<polyline fill="none" stroke="#99c2a2" points="304.38,-304.5 304.38,-362"/>
<text text-anchor="middle" x="349.12" y="-344.7" font-family="Times,serif" font-size="14.00" fill="#000000">Parent</text>
<text text-anchor="middle" x="349.12" y="-328.2" font-family="Times,serif" font-size="14.00" fill="#000000">Animal</text>
<text text-anchor="middle" x="349.12" y="-311.7" font-family="Times,serif" font-size="14.00" fill="#000000">0x107601e10</text>
<polyline fill="none" stroke="#99c2a2" points="393.88,-304.5 393.88,-362"/>
<text text-anchor="middle" x="446.12" y="-344.7" font-family="Times,serif" font-size="14.00" fill="#000000">Right</text>
<text text-anchor="middle" x="446.12" y="-328.2" font-family="Times,serif" font-size="14.00" fill="#000000">Teaches physics</text>
<text text-anchor="middle" x="446.12" y="-311.7" font-family="Times,serif" font-size="14.00" fill="#000000">0x107601d20</text>
</g>
<!-- node0x107601e10&#45;&gt;node0x107601db0 -->
<g id="edge5" class="edge">
<title>node0x107601e10:right&#45;&gt;node0x107601db0</title>
<path fill="none" stroke="#48e818" stroke-width="2" d="M302.75,-456C302.75,-441.35 307.19,-426.74 313.5,-413.36"/>
<polygon fill="#48e818" stroke="#48e818" stroke-width="2" points="315.78,-416.57 317.27,-406.08 309.56,-413.36 315.78,-416.57"/>
<text text-anchor="middle" x="320.25" y="-424.7" font-family="Times,serif" font-size="14.00">Нет</text>
</g>
<!-- node0x107601cf0 -->
<g id="node3" class="node">
<title>node0x107601cf0</title>
<path fill="#f18805" stroke="#af3800" d="M318.5,-0.5C318.5,-0.5 506,-0.5 506,-0.5 512,-0.5 518,-6.5 518,-12.5 518,-12.5 518,-87 518,-87 518,-93 512,-99 506,-99 506,-99 318.5,-99 318.5,-99 312.5,-99 306.5,-93 306.5,-87 306.5,-87 306.5,-12.5 306.5,-12.5 306.5,-6.5 312.5,-0.5 318.5,-0.5"/>
<text text-anchor="middle" x="412.25" y="-81.7" font-family="Times,serif" font-size="14.00" fill="#000000">Nefor</text>
<text text-anchor="middle" x="412.25" y="-65.2" font-family="Times,serif" font-size="14.00" fill="#000000">0x107601cf0</text>
<polyline fill="none" stroke="#af3800" points="306.5,-58 518,-58"/>
<text text-anchor="middle" x="333.25" y="-40.7" font-family="Times,serif" font-size="14.00" fill="#000000">Left</text>
<text text-anchor="middle" x="333.25" y="-24.2" font-family="Times,serif" font-size="14.00" fill="#000000">NONE</text>
<text text-anchor="middle" x="333.25" y="-7.7" font-family="Times,serif" font-size="14.00" fill="#000000">0x0</text>
<polyline fill="none" stroke="#af3800" points="360,-0.5 360,-58"/>
<text text-anchor="middle" x="412.25" y="-40.7" font-family="Times,serif" font-size="14.00" fill="#000000">Parent</text>
<text text-anchor="middle" x="412.25" y="-24.2" font-family="Times,serif" font-size="14.00" fill="#000000">Teaches physics</text>
<text text-anchor="middle" x="412.25" y="-7.7" font-family="Times,serif" font-size="14.00" fill="#000000">0x107601d20</text>
<polyline fill="none" stroke="#af3800" points="464.5,-0.5 464.5,-58"/>
<text text-anchor="middle" x="491.25" y="-40.7" font-family="Times,serif" font-size="14.00" fill="#000000">Right</text>
<text text-anchor="middle" x="491.25" y="-24.2" font-family="Times,serif" font-size="14.00" fill="#000000">NONE</text>
<text text-anchor="middle" x="491.25" y="-7.7" font-family="Times,serif" font-size="14.00" fill="#000000">0x0</text>
</g>
<!-- node0x107601d50 -->
<g id="node5" class="node">
<title>node0x107601d50</title>
<path fill="#d5cfe1" stroke="#8797b2" d="M148,-152.5C148,-152.5 338.5,-152.5 338.5,-152.5 344.5,-152.5 350.5,-158.5 350.5,-164.5 350.5,-164.5 350.5,-239 350.5,-239 350.5,-245 344.5,-251 338.5,-251 338.5,-251 148,-251 148,-251 142,-251 136,-245 136,-239 136,-239 136,-164.5 136,-164.5 136,-158.5 142,-152.5 148,-152.5"/>
<text text-anchor="middle" x="243.25" y="-233.7" font-family="Times,serif" font-size="14.00" fill="#000000">Burtsev</text>
<text text-anchor="middle" x="243.25" y="-217.2" font-family="Times,serif" font-size="14.00" fill="#000000">0x107601d50</text>
<polyline fill="none" stroke="#8797b2" points="136,-210 350.5,-210"/>
<text text-anchor="middle" x="162.75" y="-192.7" font-family="Times,serif" font-size="14.00" fill="#000000">Left</text>
<text text-anchor="middle" x="162.75" y="-176.2" font-family="Times,serif" font-size="14.00" fill="#000000">NONE</text>
<text text-anchor="middle" x="162.75" y="-159.7" font-family="Times,serif" font-size="14.00" fill="#000000">0x0</text>
<polyline fill="none" stroke="#8797b2" points="189.5,-152.5 189.5,-210"/>
<text text-anchor="middle" x="243.25" y="-192.7" font-family="Times,serif" font-size="14.00" fill="#000000">Parent</text>
<text text-anchor="middle" x="243.25" y="-176.2" font-family="Times,serif" font-size="14.00" fill="#000000">Teaches analisys</text>
<text text-anchor="middle" x="243.25" y="-159.7" font-family="Times,serif" font-size="14.00" fill="#000000">0x107601db0</text>
<polyline fill="none" stroke="#8797b2" points="297,-152.5 297,-210"/>
<text text-anchor="middle" x="323.75" y="-192.7" font-family="Times,serif" font-size="14.00" fill="#000000">Right</text>
<text text-anchor="middle" x="323.75" y="-176.2" font-family="Times,serif" font-size="14.00" fill="#000000">NONE</text>
<text text-anchor="middle" x="323.75" y="-159.7" font-family="Times,serif" font-size="14.00" fill="#000000">0x0</text>
</g>
<!-- node0x107601db0&#45;&gt;node0x107601d50 -->
<g id="edge2" class="edge">
<title>node0x107601db0:left&#45;&gt;node0x107601d50</title>
<path fill="none" stroke="#187ae8" stroke-width="2" d="M259.25,-304C259.25,-290.51 257.85,-276.14 255.87,-262.58"/>
<polygon fill="#187ae8" stroke="#187ae8" stroke-width="2" points="259.6,-263.74 254.57,-254.42 252.69,-264.84 259.6,-263.74"/>
<text text-anchor="middle" x="266.27" y="-272.7" font-family="Times,serif" font-size="14.00">Да</text>
</g>
<!-- node0x107601d20 -->
<g id="node6" class="node">
<title>node0x107601d20</title>
<path fill="#bdef9e" stroke="#99c2a2" d="M380.12,-152.5C380.12,-152.5 604.38,-152.5 604.38,-152.5 610.38,-152.5 616.38,-158.5 616.38,-164.5 616.38,-164.5 616.38,-239 616.38,-239 616.38,-245 610.38,-251 604.38,-251 604.38,-251 380.12,-251 380.12,-251 374.12,-251 368.12,-245 368.12,-239 368.12,-239 368.12,-164.5 368.12,-164.5 368.12,-158.5 374.12,-152.5 380.12,-152.5"/>
<text text-anchor="middle" x="492.25" y="-233.7" font-family="Times,serif" font-size="14.00" fill="#000000">Teaches physics</text>
<text text-anchor="middle" x="492.25" y="-217.2" font-family="Times,serif" font-size="14.00" fill="#000000">0x107601d20</text>
<polyline fill="none" stroke="#99c2a2" points="368.12,-210 616.38,-210"/>
<text text-anchor="middle" x="411.75" y="-192.7" font-family="Times,serif" font-size="14.00" fill="#000000">Left</text>
<text text-anchor="middle" x="411.75" y="-176.2" font-family="Times,serif" font-size="14.00" fill="#000000">Nefor</text>
<text text-anchor="middle" x="411.75" y="-159.7" font-family="Times,serif" font-size="14.00" fill="#000000">0x107601cf0</text>
<polyline fill="none" stroke="#99c2a2" points="455.38,-152.5 455.38,-210"/>
<text text-anchor="middle" x="509.12" y="-192.7" font-family="Times,serif" font-size="14.00" fill="#000000">Parent</text>
<text text-anchor="middle" x="509.12" y="-176.2" font-family="Times,serif" font-size="14.00" fill="#000000">Teaches analisys</text>
<text text-anchor="middle" x="509.12" y="-159.7" font-family="Times,serif" font-size="14.00" fill="#000000">0x107601db0</text>
<polyline fill="none" stroke="#99c2a2" points="562.88,-152.5 562.88,-210"/>
<text text-anchor="middle" x="589.62" y="-192.7" font-family="Times,serif" font-size="14.00" fill="#000000">Right</text>
<text text-anchor="middle" x="589.62" y="-176.2" font-family="Times,serif" font-size="14.00" fill="#000000">NONE</text>
<text text-anchor="middle" x="589.62" y="-159.7" font-family="Times,serif" font-size="14.00" fill="#000000">0x0</text>
</g>
<!-- node0x107601db0&#45;&gt;node0x107601d20 -->
<g id="edge4" class="edge">
<title>node0x107601db0:right&#45;&gt;node0x107601d20</title>
<path fill="none" stroke="#48e818" stroke-width="2" d="M446.12,-304C446.12,-289.67 450,-275.15 455.5,-261.74"/>
<polygon fill="#48e818" stroke="#48e818" stroke-width="2" points="458.06,-264.57 458.97,-254.02 451.68,-261.7 458.06,-264.57"/>
<text text-anchor="middle" x="462.72" y="-272.7" font-family="Times,serif" font-size="14.00">Нет</text>
</g>
<!-- node0x107601d20&#45;&gt;node0x107601cf0 -->
<g id="edge3" class="edge">
<title>node0x107601d20:left&#45;&gt;node0x107601cf0</title>
<path fill="none" stroke="#187ae8" stroke-width="2" d="M411.75,-152C411.75,-138.61 411.79,-124.22 411.86,-110.62"/>
<polygon fill="#187ae8" stroke="#187ae8" stroke-width="2" points="415.35,-112.46 411.9,-102.44 408.35,-112.43 415.35,-112.46"/>
<text text-anchor="middle" x="419.7" y="-120.7" font-family="Times,serif" font-size="14.00">Да</text>
</g>
</g>
</svg>
