<?xml version="1.0" encoding="UTF-8" standalone="no"?>
<!DOCTYPE svg PUBLIC "-//W3C//DTD SVG 1.1//EN"
 "http://www.w3.org/Graphics/SVG/1.1/DTD/svg11.dtd">
<!-- Generated by graphviz version 12.2.0 (20241103.1931)
 -->
<!-- Pages: 1 -->
<svg width="1092pt" height="1172pt"
 viewBox="0.00 0.00 1091.50 1171.50" xmlns="http://www.w3.org/2000/svg" xmlns:xlink="http://www.w3.org/1999/xlink">
<g id="graph0" class="graph" transform="scale(1 1) rotate(0) translate(4 1167.5)">
<polygon fill="#dcdcdc" stroke="none" points="-4,4 -4,-1167.5 1087.5,-1167.5 1087.5,4 -4,4"/>
<!-- node0x107601e10 -->
<g id="node1" class="node">
<title>node0x107601e10</title>
<path fill="#fbee21" stroke="#d3c70d" d="M118,-1064.5C118,-1064.5 344.5,-1064.5 344.5,-1064.5 350.5,-1064.5 356.5,-1070.5 356.5,-1076.5 356.5,-1076.5 356.5,-1151 356.5,-1151 356.5,-1157 350.5,-1163 344.5,-1163 344.5,-1163 118,-1163 118,-1163 112,-1163 106,-1157 106,-1151 106,-1151 106,-1076.5 106,-1076.5 106,-1070.5 112,-1064.5 118,-1064.5"/>
<text text-anchor="middle" x="231.25" y="-1145.7" font-family="Times,serif" font-size="14.00" fill="#000000">Animal</text>
<text text-anchor="middle" x="231.25" y="-1129.2" font-family="Times,serif" font-size="14.00" fill="#000000">0x107601e10</text>
<polyline fill="none" stroke="#d3c70d" points="106,-1122 356.5,-1122"/>
<text text-anchor="middle" x="150.75" y="-1104.7" font-family="Times,serif" font-size="14.00" fill="#000000">Left</text>
<text text-anchor="middle" x="150.75" y="-1088.2" font-family="Times,serif" font-size="14.00" fill="#000000">Poltorashka</text>
<text text-anchor="middle" x="150.75" y="-1071.7" font-family="Times,serif" font-size="14.00" fill="#000000">0x107601de0</text>
<polyline fill="none" stroke="#d3c70d" points="195.5,-1064.5 195.5,-1122"/>
<text text-anchor="middle" x="222.25" y="-1104.7" font-family="Times,serif" font-size="14.00" fill="#000000">Parent</text>
<text text-anchor="middle" x="222.25" y="-1088.2" font-family="Times,serif" font-size="14.00" fill="#000000">NONE</text>
<text text-anchor="middle" x="222.25" y="-1071.7" font-family="Times,serif" font-size="14.00" fill="#000000">0x0</text>
<polyline fill="none" stroke="#d3c70d" points="249,-1064.5 249,-1122"/>
<text text-anchor="middle" x="302.75" y="-1104.7" font-family="Times,serif" font-size="14.00" fill="#000000">Right</text>
<text text-anchor="middle" x="302.75" y="-1088.2" font-family="Times,serif" font-size="14.00" fill="#000000">Teaches analisys</text>
<text text-anchor="middle" x="302.75" y="-1071.7" font-family="Times,serif" font-size="14.00" fill="#000000">0x107601db0</text>
</g>
<!-- node0x107601de0 -->
<g id="node2" class="node">
<title>node0x107601de0</title>
<path fill="#d5cfe1" stroke="#8797b2" d="M12,-912.5C12,-912.5 184.5,-912.5 184.5,-912.5 190.5,-912.5 196.5,-918.5 196.5,-924.5 196.5,-924.5 196.5,-999 196.5,-999 196.5,-1005 190.5,-1011 184.5,-1011 184.5,-1011 12,-1011 12,-1011 6,-1011 0,-1005 0,-999 0,-999 0,-924.5 0,-924.5 0,-918.5 6,-912.5 12,-912.5"/>
<text text-anchor="middle" x="98.25" y="-993.7" font-family="Times,serif" font-size="14.00" fill="#000000">Poltorashka</text>
<text text-anchor="middle" x="98.25" y="-977.2" font-family="Times,serif" font-size="14.00" fill="#000000">0x107601de0</text>
<polyline fill="none" stroke="#8797b2" points="0,-970 196.5,-970"/>
<text text-anchor="middle" x="26.75" y="-952.7" font-family="Times,serif" font-size="14.00" fill="#000000">Left</text>
<text text-anchor="middle" x="26.75" y="-936.2" font-family="Times,serif" font-size="14.00" fill="#000000">NONE</text>
<text text-anchor="middle" x="26.75" y="-919.7" font-family="Times,serif" font-size="14.00" fill="#000000">0x0</text>
<polyline fill="none" stroke="#8797b2" points="53.5,-912.5 53.5,-970"/>
<text text-anchor="middle" x="98.25" y="-952.7" font-family="Times,serif" font-size="14.00" fill="#000000">Parent</text>
<text text-anchor="middle" x="98.25" y="-936.2" font-family="Times,serif" font-size="14.00" fill="#000000">Animal</text>
<text text-anchor="middle" x="98.25" y="-919.7" font-family="Times,serif" font-size="14.00" fill="#000000">0x107601e10</text>
<polyline fill="none" stroke="#8797b2" points="143,-912.5 143,-970"/>
<text text-anchor="middle" x="169.75" y="-952.7" font-family="Times,serif" font-size="14.00" fill="#000000">Right</text>
<text text-anchor="middle" x="169.75" y="-936.2" font-family="Times,serif" font-size="14.00" fill="#000000">NONE</text>
<text text-anchor="middle" x="169.75" y="-919.7" font-family="Times,serif" font-size="14.00" fill="#000000">0x0</text>
</g>
<!-- node0x107601e10&#45;&gt;node0x107601de0 -->
<g id="edge1" class="edge">
<title>node0x107601e10:left&#45;&gt;node0x107601de0</title>
<path fill="none" stroke="#187ae8" stroke-width="2" d="M105,-1093.25C74.29,-1093.25 74.17,-1056.77 80.87,-1022.38"/>
<polygon fill="#187ae8" stroke="#187ae8" stroke-width="2" points="83.93,-1024.82 82.62,-1014.3 77.09,-1023.34 83.93,-1024.82"/>
<text text-anchor="middle" x="87.09" y="-1032.7" font-family="Times,serif" font-size="14.00">Да</text>
</g>
<!-- node0x107601db0 -->
<g id="node4" class="node">
<title>node0x107601db0</title>
<path fill="#bdef9e" stroke="#99c2a2" d="M226.12,-912.5C226.12,-912.5 486.38,-912.5 486.38,-912.5 492.38,-912.5 498.38,-918.5 498.38,-924.5 498.38,-924.5 498.38,-999 498.38,-999 498.38,-1005 492.38,-1011 486.38,-1011 486.38,-1011 226.12,-1011 226.12,-1011 220.12,-1011 214.12,-1005 214.12,-999 214.12,-999 214.12,-924.5 214.12,-924.5 214.12,-918.5 220.12,-912.5 226.12,-912.5"/>
<text text-anchor="middle" x="356.25" y="-993.7" font-family="Times,serif" font-size="14.00" fill="#000000">Teaches analisys</text>
<text text-anchor="middle" x="356.25" y="-977.2" font-family="Times,serif" font-size="14.00" fill="#000000">0x107601db0</text>
<polyline fill="none" stroke="#99c2a2" points="214.12,-970 498.38,-970"/>
<text text-anchor="middle" x="259.25" y="-952.7" font-family="Times,serif" font-size="14.00" fill="#000000">Left</text>
<text text-anchor="middle" x="259.25" y="-936.2" font-family="Times,serif" font-size="14.00" fill="#000000">Burtsev</text>
<text text-anchor="middle" x="259.25" y="-919.7" font-family="Times,serif" font-size="14.00" fill="#000000">0x107601d50</text>
<polyline fill="none" stroke="#99c2a2" points="304.38,-912.5 304.38,-970"/>
<text text-anchor="middle" x="349.12" y="-952.7" font-family="Times,serif" font-size="14.00" fill="#000000">Parent</text>
<text text-anchor="middle" x="349.12" y="-936.2" font-family="Times,serif" font-size="14.00" fill="#000000">Animal</text>
<text text-anchor="middle" x="349.12" y="-919.7" font-family="Times,serif" font-size="14.00" fill="#000000">0x107601e10</text>
<polyline fill="none" stroke="#99c2a2" points="393.88,-912.5 393.88,-970"/>
<text text-anchor="middle" x="446.12" y="-952.7" font-family="Times,serif" font-size="14.00" fill="#000000">Right</text>
<text text-anchor="middle" x="446.12" y="-936.2" font-family="Times,serif" font-size="14.00" fill="#000000">Teaches physics</text>
<text text-anchor="middle" x="446.12" y="-919.7" font-family="Times,serif" font-size="14.00" fill="#000000">0x107601d20</text>
</g>
<!-- node0x107601e10&#45;&gt;node0x107601db0 -->
<g id="edge16" class="edge">
<title>node0x107601e10:right&#45;&gt;node0x107601db0</title>
<path fill="none" stroke="#48e818" stroke-width="2" d="M302.75,-1064C302.75,-1049.35 307.19,-1034.74 313.5,-1021.36"/>
<polygon fill="#48e818" stroke="#48e818" stroke-width="2" points="315.78,-1024.57 317.27,-1014.08 309.56,-1021.36 315.78,-1024.57"/>
<text text-anchor="middle" x="320.25" y="-1032.7" font-family="Times,serif" font-size="14.00">Нет</text>
</g>
<!-- node0x107601c60 -->
<g id="node3" class="node">
<title>node0x107601c60</title>
<path fill="#f18805" stroke="#af3800" d="M557.5,-608.5C557.5,-608.5 817,-608.5 817,-608.5 823,-608.5 829,-614.5 829,-620.5 829,-620.5 829,-695 829,-695 829,-701 823,-707 817,-707 817,-707 557.5,-707 557.5,-707 551.5,-707 545.5,-701 545.5,-695 545.5,-695 545.5,-620.5 545.5,-620.5 545.5,-614.5 551.5,-608.5 557.5,-608.5"/>
<text text-anchor="middle" x="687.25" y="-689.7" font-family="Times,serif" font-size="14.00" fill="#000000">Teaches angem</text>
<text text-anchor="middle" x="687.25" y="-673.2" font-family="Times,serif" font-size="14.00" fill="#000000">0x107601c60</text>
<polyline fill="none" stroke="#af3800" points="545.5,-666 829,-666"/>
<text text-anchor="middle" x="590.25" y="-648.7" font-family="Times,serif" font-size="14.00" fill="#000000">Left</text>
<text text-anchor="middle" x="590.25" y="-632.2" font-family="Times,serif" font-size="14.00" fill="#000000">Chubarik</text>
<text text-anchor="middle" x="590.25" y="-615.7" font-family="Times,serif" font-size="14.00" fill="#000000">0x107601c30</text>
<polyline fill="none" stroke="#af3800" points="635,-608.5 635,-666"/>
<text text-anchor="middle" x="687.25" y="-648.7" font-family="Times,serif" font-size="14.00" fill="#000000">Parent</text>
<text text-anchor="middle" x="687.25" y="-632.2" font-family="Times,serif" font-size="14.00" fill="#000000">Teaches physics</text>
<text text-anchor="middle" x="687.25" y="-615.7" font-family="Times,serif" font-size="14.00" fill="#000000">0x107601d20</text>
<polyline fill="none" stroke="#af3800" points="739.5,-608.5 739.5,-666"/>
<text text-anchor="middle" x="784.25" y="-648.7" font-family="Times,serif" font-size="14.00" fill="#000000">Right</text>
<text text-anchor="middle" x="784.25" y="-632.2" font-family="Times,serif" font-size="14.00" fill="#000000">Do sport</text>
<text text-anchor="middle" x="784.25" y="-615.7" font-family="Times,serif" font-size="14.00" fill="#000000">0x107601c00</text>
</g>
<!-- node0x107601c30 -->
<g id="node10" class="node">
<title>node0x107601c30</title>
<path fill="#d5cfe1" stroke="#8797b2" d="M498.38,-456.5C498.38,-456.5 682.12,-456.5 682.12,-456.5 688.12,-456.5 694.12,-462.5 694.12,-468.5 694.12,-468.5 694.12,-543 694.12,-543 694.12,-549 688.12,-555 682.12,-555 682.12,-555 498.38,-555 498.38,-555 492.38,-555 486.38,-549 486.38,-543 486.38,-543 486.38,-468.5 486.38,-468.5 486.38,-462.5 492.38,-456.5 498.38,-456.5"/>
<text text-anchor="middle" x="590.25" y="-537.7" font-family="Times,serif" font-size="14.00" fill="#000000">Chubarik</text>
<text text-anchor="middle" x="590.25" y="-521.2" font-family="Times,serif" font-size="14.00" fill="#000000">0x107601c30</text>
<polyline fill="none" stroke="#8797b2" points="486.38,-514 694.12,-514"/>
<text text-anchor="middle" x="513.12" y="-496.7" font-family="Times,serif" font-size="14.00" fill="#000000">Left</text>
<text text-anchor="middle" x="513.12" y="-480.2" font-family="Times,serif" font-size="14.00" fill="#000000">NONE</text>
<text text-anchor="middle" x="513.12" y="-463.7" font-family="Times,serif" font-size="14.00" fill="#000000">0x0</text>
<polyline fill="none" stroke="#8797b2" points="539.88,-456.5 539.88,-514"/>
<text text-anchor="middle" x="590.25" y="-496.7" font-family="Times,serif" font-size="14.00" fill="#000000">Parent</text>
<text text-anchor="middle" x="590.25" y="-480.2" font-family="Times,serif" font-size="14.00" fill="#000000">Teaches angem</text>
<text text-anchor="middle" x="590.25" y="-463.7" font-family="Times,serif" font-size="14.00" fill="#000000">0x107601c60</text>
<polyline fill="none" stroke="#8797b2" points="640.62,-456.5 640.62,-514"/>
<text text-anchor="middle" x="667.38" y="-496.7" font-family="Times,serif" font-size="14.00" fill="#000000">Right</text>
<text text-anchor="middle" x="667.38" y="-480.2" font-family="Times,serif" font-size="14.00" fill="#000000">NONE</text>
<text text-anchor="middle" x="667.38" y="-463.7" font-family="Times,serif" font-size="14.00" fill="#000000">0x0</text>
</g>
<!-- node0x107601c60&#45;&gt;node0x107601c30 -->
<g id="edge6" class="edge">
<title>node0x107601c60:left&#45;&gt;node0x107601c30</title>
<path fill="none" stroke="#187ae8" stroke-width="2" d="M590.25,-608C590.25,-594.61 590.25,-580.22 590.25,-566.62"/>
<polygon fill="#187ae8" stroke="#187ae8" stroke-width="2" points="593.75,-568.44 590.25,-558.44 586.75,-568.44 593.75,-568.44"/>
<text text-anchor="middle" x="598.12" y="-576.7" font-family="Times,serif" font-size="14.00">Да</text>
</g>
<!-- node0x107601c00 -->
<g id="node11" class="node">
<title>node0x107601c00</title>
<path fill="#bdef9e" stroke="#99c2a2" d="M724,-456.5C724,-456.5 980.5,-456.5 980.5,-456.5 986.5,-456.5 992.5,-462.5 992.5,-468.5 992.5,-468.5 992.5,-543 992.5,-543 992.5,-549 986.5,-555 980.5,-555 980.5,-555 724,-555 724,-555 718,-555 712,-549 712,-543 712,-543 712,-468.5 712,-468.5 712,-462.5 718,-456.5 724,-456.5"/>
<text text-anchor="middle" x="852.25" y="-537.7" font-family="Times,serif" font-size="14.00" fill="#000000">Do sport</text>
<text text-anchor="middle" x="852.25" y="-521.2" font-family="Times,serif" font-size="14.00" fill="#000000">0x107601c00</text>
<polyline fill="none" stroke="#99c2a2" points="712,-514 992.5,-514"/>
<text text-anchor="middle" x="757.12" y="-496.7" font-family="Times,serif" font-size="14.00" fill="#000000">Left</text>
<text text-anchor="middle" x="757.12" y="-480.2" font-family="Times,serif" font-size="14.00" fill="#000000">Coach</text>
<text text-anchor="middle" x="757.12" y="-463.7" font-family="Times,serif" font-size="14.00" fill="#000000">0x107601bd0</text>
<polyline fill="none" stroke="#99c2a2" points="802.25,-456.5 802.25,-514"/>
<text text-anchor="middle" x="852.62" y="-496.7" font-family="Times,serif" font-size="14.00" fill="#000000">Parent</text>
<text text-anchor="middle" x="852.62" y="-480.2" font-family="Times,serif" font-size="14.00" fill="#000000">Teaches angem</text>
<text text-anchor="middle" x="852.62" y="-463.7" font-family="Times,serif" font-size="14.00" fill="#000000">0x107601c60</text>
<polyline fill="none" stroke="#99c2a2" points="903,-456.5 903,-514"/>
<text text-anchor="middle" x="947.75" y="-496.7" font-family="Times,serif" font-size="14.00" fill="#000000">Right</text>
<text text-anchor="middle" x="947.75" y="-480.2" font-family="Times,serif" font-size="14.00" fill="#000000">Kvadrober</text>
<text text-anchor="middle" x="947.75" y="-463.7" font-family="Times,serif" font-size="14.00" fill="#000000">0x107601ab0</text>
</g>
<!-- node0x107601c60&#45;&gt;node0x107601c00 -->
<g id="edge13" class="edge">
<title>node0x107601c60:right&#45;&gt;node0x107601c00</title>
<path fill="none" stroke="#48e818" stroke-width="2" d="M784.25,-608C784.25,-592.75 789.63,-578.07 797.37,-564.84"/>
<polygon fill="#48e818" stroke="#48e818" stroke-width="2" points="799.29,-568.33 801.74,-558.03 793.39,-564.55 799.29,-568.33"/>
<text text-anchor="middle" x="803.55" y="-576.7" font-family="Times,serif" font-size="14.00">Нет</text>
</g>
<!-- node0x107601d50 -->
<g id="node5" class="node">
<title>node0x107601d50</title>
<path fill="#d5cfe1" stroke="#8797b2" d="M142,-760.5C142,-760.5 332.5,-760.5 332.5,-760.5 338.5,-760.5 344.5,-766.5 344.5,-772.5 344.5,-772.5 344.5,-847 344.5,-847 344.5,-853 338.5,-859 332.5,-859 332.5,-859 142,-859 142,-859 136,-859 130,-853 130,-847 130,-847 130,-772.5 130,-772.5 130,-766.5 136,-760.5 142,-760.5"/>
<text text-anchor="middle" x="237.25" y="-841.7" font-family="Times,serif" font-size="14.00" fill="#000000">Burtsev</text>
<text text-anchor="middle" x="237.25" y="-825.2" font-family="Times,serif" font-size="14.00" fill="#000000">0x107601d50</text>
<polyline fill="none" stroke="#8797b2" points="130,-818 344.5,-818"/>
<text text-anchor="middle" x="156.75" y="-800.7" font-family="Times,serif" font-size="14.00" fill="#000000">Left</text>
<text text-anchor="middle" x="156.75" y="-784.2" font-family="Times,serif" font-size="14.00" fill="#000000">NONE</text>
<text text-anchor="middle" x="156.75" y="-767.7" font-family="Times,serif" font-size="14.00" fill="#000000">0x0</text>
<polyline fill="none" stroke="#8797b2" points="183.5,-760.5 183.5,-818"/>
<text text-anchor="middle" x="237.25" y="-800.7" font-family="Times,serif" font-size="14.00" fill="#000000">Parent</text>
<text text-anchor="middle" x="237.25" y="-784.2" font-family="Times,serif" font-size="14.00" fill="#000000">Teaches analisys</text>
<text text-anchor="middle" x="237.25" y="-767.7" font-family="Times,serif" font-size="14.00" fill="#000000">0x107601db0</text>
<polyline fill="none" stroke="#8797b2" points="291,-760.5 291,-818"/>
<text text-anchor="middle" x="317.75" y="-800.7" font-family="Times,serif" font-size="14.00" fill="#000000">Right</text>
<text text-anchor="middle" x="317.75" y="-784.2" font-family="Times,serif" font-size="14.00" fill="#000000">NONE</text>
<text text-anchor="middle" x="317.75" y="-767.7" font-family="Times,serif" font-size="14.00" fill="#000000">0x0</text>
</g>
<!-- node0x107601db0&#45;&gt;node0x107601d50 -->
<g id="edge2" class="edge">
<title>node0x107601db0:left&#45;&gt;node0x107601d50</title>
<path fill="none" stroke="#187ae8" stroke-width="2" d="M259.25,-912C259.25,-898.44 257.34,-884.08 254.65,-870.58"/>
<polygon fill="#187ae8" stroke="#187ae8" stroke-width="2" points="258.42,-871.45 252.87,-862.43 251.58,-872.94 258.42,-871.45"/>
<text text-anchor="middle" x="265.95" y="-880.7" font-family="Times,serif" font-size="14.00">Да</text>
</g>
<!-- node0x107601d20 -->
<g id="node6" class="node">
<title>node0x107601d20</title>
<path fill="#bdef9e" stroke="#99c2a2" d="M374.5,-760.5C374.5,-760.5 646,-760.5 646,-760.5 652,-760.5 658,-766.5 658,-772.5 658,-772.5 658,-847 658,-847 658,-853 652,-859 646,-859 646,-859 374.5,-859 374.5,-859 368.5,-859 362.5,-853 362.5,-847 362.5,-847 362.5,-772.5 362.5,-772.5 362.5,-766.5 368.5,-760.5 374.5,-760.5"/>
<text text-anchor="middle" x="510.25" y="-841.7" font-family="Times,serif" font-size="14.00" fill="#000000">Teaches physics</text>
<text text-anchor="middle" x="510.25" y="-825.2" font-family="Times,serif" font-size="14.00" fill="#000000">0x107601d20</text>
<polyline fill="none" stroke="#99c2a2" points="362.5,-818 658,-818"/>
<text text-anchor="middle" x="406.12" y="-800.7" font-family="Times,serif" font-size="14.00" fill="#000000">Left</text>
<text text-anchor="middle" x="406.12" y="-784.2" font-family="Times,serif" font-size="14.00" fill="#000000">Nefor</text>
<text text-anchor="middle" x="406.12" y="-767.7" font-family="Times,serif" font-size="14.00" fill="#000000">0x107601cf0</text>
<polyline fill="none" stroke="#99c2a2" points="449.75,-760.5 449.75,-818"/>
<text text-anchor="middle" x="503.5" y="-800.7" font-family="Times,serif" font-size="14.00" fill="#000000">Parent</text>
<text text-anchor="middle" x="503.5" y="-784.2" font-family="Times,serif" font-size="14.00" fill="#000000">Teaches analisys</text>
<text text-anchor="middle" x="503.5" y="-767.7" font-family="Times,serif" font-size="14.00" fill="#000000">0x107601db0</text>
<polyline fill="none" stroke="#99c2a2" points="557.25,-760.5 557.25,-818"/>
<text text-anchor="middle" x="607.62" y="-800.7" font-family="Times,serif" font-size="14.00" fill="#000000">Right</text>
<text text-anchor="middle" x="607.62" y="-784.2" font-family="Times,serif" font-size="14.00" fill="#000000">Teaches angem</text>
<text text-anchor="middle" x="607.62" y="-767.7" font-family="Times,serif" font-size="14.00" fill="#000000">0x107601c60</text>
</g>
<!-- node0x107601db0&#45;&gt;node0x107601d20 -->
<g id="edge15" class="edge">
<title>node0x107601db0:right&#45;&gt;node0x107601d20</title>
<path fill="none" stroke="#48e818" stroke-width="2" d="M446.12,-912C446.12,-896.99 451.21,-882.41 458.52,-869.2"/>
<polygon fill="#48e818" stroke="#48e818" stroke-width="2" points="460.72,-872.32 462.93,-861.96 454.74,-868.68 460.72,-872.32"/>
<text text-anchor="middle" x="464.95" y="-880.7" font-family="Times,serif" font-size="14.00">Нет</text>
</g>
<!-- node0x107601d20&#45;&gt;node0x107601c60 -->
<g id="edge14" class="edge">
<title>node0x107601d20:right&#45;&gt;node0x107601c60</title>
<path fill="none" stroke="#48e818" stroke-width="2" d="M659,-789.25C690.24,-789.25 696.42,-753.08 695.26,-718.83"/>
<polygon fill="#48e818" stroke="#48e818" stroke-width="2" points="698.84,-720.15 694.79,-710.37 691.85,-720.55 698.84,-720.15"/>
<text text-anchor="middle" x="706.26" y="-728.7" font-family="Times,serif" font-size="14.00">Нет</text>
</g>
<!-- node0x107601cf0 -->
<g id="node7" class="node">
<title>node0x107601cf0</title>
<path fill="#d5cfe1" stroke="#8797b2" d="M145.88,-608.5C145.88,-608.5 404.62,-608.5 404.62,-608.5 410.62,-608.5 416.62,-614.5 416.62,-620.5 416.62,-620.5 416.62,-695 416.62,-695 416.62,-701 410.62,-707 404.62,-707 404.62,-707 145.88,-707 145.88,-707 139.88,-707 133.88,-701 133.88,-695 133.88,-695 133.88,-620.5 133.88,-620.5 133.88,-614.5 139.88,-608.5 145.88,-608.5"/>
<text text-anchor="middle" x="275.25" y="-689.7" font-family="Times,serif" font-size="14.00" fill="#000000">Nefor</text>
<text text-anchor="middle" x="275.25" y="-673.2" font-family="Times,serif" font-size="14.00" fill="#000000">0x107601cf0</text>
<polyline fill="none" stroke="#8797b2" points="133.88,-666 416.62,-666"/>
<text text-anchor="middle" x="178.25" y="-648.7" font-family="Times,serif" font-size="14.00" fill="#000000">Left</text>
<text text-anchor="middle" x="178.25" y="-632.2" font-family="Times,serif" font-size="14.00" fill="#000000">Magic</text>
<text text-anchor="middle" x="178.25" y="-615.7" font-family="Times,serif" font-size="14.00" fill="#000000">0x107601cc0</text>
<polyline fill="none" stroke="#8797b2" points="222.62,-608.5 222.62,-666"/>
<text text-anchor="middle" x="274.88" y="-648.7" font-family="Times,serif" font-size="14.00" fill="#000000">Parent</text>
<text text-anchor="middle" x="274.88" y="-632.2" font-family="Times,serif" font-size="14.00" fill="#000000">Teaches physics</text>
<text text-anchor="middle" x="274.88" y="-615.7" font-family="Times,serif" font-size="14.00" fill="#000000">0x107601d20</text>
<polyline fill="none" stroke="#8797b2" points="327.12,-608.5 327.12,-666"/>
<text text-anchor="middle" x="371.88" y="-648.7" font-family="Times,serif" font-size="14.00" fill="#000000">Right</text>
<text text-anchor="middle" x="371.88" y="-632.2" font-family="Times,serif" font-size="14.00" fill="#000000">Ovchos</text>
<text text-anchor="middle" x="371.88" y="-615.7" font-family="Times,serif" font-size="14.00" fill="#000000">0x107601c90</text>
</g>
<!-- node0x107601d20&#45;&gt;node0x107601cf0 -->
<g id="edge3" class="edge">
<title>node0x107601d20:left&#45;&gt;node0x107601cf0</title>
<path fill="none" stroke="#187ae8" stroke-width="2" d="M406.12,-760C406.12,-742.56 398.77,-727.7 387.54,-715.17"/>
<polygon fill="#187ae8" stroke="#187ae8" stroke-width="2" points="391.33,-714.01 381.78,-709.42 386.38,-718.96 391.33,-714.01"/>
<text text-anchor="middle" x="410.34" y="-728.7" font-family="Times,serif" font-size="14.00">Да</text>
</g>
<!-- node0x107601cc0 -->
<g id="node8" class="node">
<title>node0x107601cc0</title>
<path fill="#d5cfe1" stroke="#8797b2" d="M74.12,-456.5C74.12,-456.5 244.38,-456.5 244.38,-456.5 250.38,-456.5 256.38,-462.5 256.38,-468.5 256.38,-468.5 256.38,-543 256.38,-543 256.38,-549 250.38,-555 244.38,-555 244.38,-555 74.12,-555 74.12,-555 68.13,-555 62.12,-549 62.12,-543 62.12,-543 62.12,-468.5 62.12,-468.5 62.12,-462.5 68.12,-456.5 74.12,-456.5"/>
<text text-anchor="middle" x="159.25" y="-537.7" font-family="Times,serif" font-size="14.00" fill="#000000">Magic</text>
<text text-anchor="middle" x="159.25" y="-521.2" font-family="Times,serif" font-size="14.00" fill="#000000">0x107601cc0</text>
<polyline fill="none" stroke="#8797b2" points="62.12,-514 256.38,-514"/>
<text text-anchor="middle" x="88.88" y="-496.7" font-family="Times,serif" font-size="14.00" fill="#000000">Left</text>
<text text-anchor="middle" x="88.88" y="-480.2" font-family="Times,serif" font-size="14.00" fill="#000000">NONE</text>
<text text-anchor="middle" x="88.88" y="-463.7" font-family="Times,serif" font-size="14.00" fill="#000000">0x0</text>
<polyline fill="none" stroke="#8797b2" points="115.62,-456.5 115.62,-514"/>
<text text-anchor="middle" x="159.25" y="-496.7" font-family="Times,serif" font-size="14.00" fill="#000000">Parent</text>
<text text-anchor="middle" x="159.25" y="-480.2" font-family="Times,serif" font-size="14.00" fill="#000000">Nefor</text>
<text text-anchor="middle" x="159.25" y="-463.7" font-family="Times,serif" font-size="14.00" fill="#000000">0x107601cf0</text>
<polyline fill="none" stroke="#8797b2" points="202.88,-456.5 202.88,-514"/>
<text text-anchor="middle" x="229.62" y="-496.7" font-family="Times,serif" font-size="14.00" fill="#000000">Right</text>
<text text-anchor="middle" x="229.62" y="-480.2" font-family="Times,serif" font-size="14.00" fill="#000000">NONE</text>
<text text-anchor="middle" x="229.62" y="-463.7" font-family="Times,serif" font-size="14.00" fill="#000000">0x0</text>
</g>
<!-- node0x107601cf0&#45;&gt;node0x107601cc0 -->
<g id="edge4" class="edge">
<title>node0x107601cf0:left&#45;&gt;node0x107601cc0</title>
<path fill="none" stroke="#187ae8" stroke-width="2" d="M178.25,-608C178.25,-594.45 176.59,-580.04 174.24,-566.49"/>
<polygon fill="#187ae8" stroke="#187ae8" stroke-width="2" points="177.99,-567.48 172.7,-558.3 171.11,-568.78 177.99,-567.48"/>
<text text-anchor="middle" x="185.11" y="-576.7" font-family="Times,serif" font-size="14.00">Да</text>
</g>
<!-- node0x107601c90 -->
<g id="node9" class="node">
<title>node0x107601c90</title>
<path fill="#bdef9e" stroke="#99c2a2" d="M286.12,-456.5C286.12,-456.5 456.38,-456.5 456.38,-456.5 462.38,-456.5 468.38,-462.5 468.38,-468.5 468.38,-468.5 468.38,-543 468.38,-543 468.38,-549 462.38,-555 456.38,-555 456.38,-555 286.12,-555 286.12,-555 280.12,-555 274.12,-549 274.12,-543 274.12,-543 274.12,-468.5 274.12,-468.5 274.12,-462.5 280.12,-456.5 286.12,-456.5"/>
<text text-anchor="middle" x="371.25" y="-537.7" font-family="Times,serif" font-size="14.00" fill="#000000">Ovchos</text>
<text text-anchor="middle" x="371.25" y="-521.2" font-family="Times,serif" font-size="14.00" fill="#000000">0x107601c90</text>
<polyline fill="none" stroke="#99c2a2" points="274.12,-514 468.38,-514"/>
<text text-anchor="middle" x="300.88" y="-496.7" font-family="Times,serif" font-size="14.00" fill="#000000">Left</text>
<text text-anchor="middle" x="300.88" y="-480.2" font-family="Times,serif" font-size="14.00" fill="#000000">NONE</text>
<text text-anchor="middle" x="300.88" y="-463.7" font-family="Times,serif" font-size="14.00" fill="#000000">0x0</text>
<polyline fill="none" stroke="#99c2a2" points="327.62,-456.5 327.62,-514"/>
<text text-anchor="middle" x="371.25" y="-496.7" font-family="Times,serif" font-size="14.00" fill="#000000">Parent</text>
<text text-anchor="middle" x="371.25" y="-480.2" font-family="Times,serif" font-size="14.00" fill="#000000">Nefor</text>
<text text-anchor="middle" x="371.25" y="-463.7" font-family="Times,serif" font-size="14.00" fill="#000000">0x107601cf0</text>
<polyline fill="none" stroke="#99c2a2" points="414.88,-456.5 414.88,-514"/>
<text text-anchor="middle" x="441.62" y="-496.7" font-family="Times,serif" font-size="14.00" fill="#000000">Right</text>
<text text-anchor="middle" x="441.62" y="-480.2" font-family="Times,serif" font-size="14.00" fill="#000000">NONE</text>
<text text-anchor="middle" x="441.62" y="-463.7" font-family="Times,serif" font-size="14.00" fill="#000000">0x0</text>
</g>
<!-- node0x107601cf0&#45;&gt;node0x107601c90 -->
<g id="edge5" class="edge">
<title>node0x107601cf0:right&#45;&gt;node0x107601c90</title>
<path fill="none" stroke="#48e818" stroke-width="2" d="M371.88,-608C371.88,-594.61 371.82,-580.22 371.74,-566.62"/>
<polygon fill="#48e818" stroke="#48e818" stroke-width="2" points="375.25,-568.42 371.69,-558.44 368.25,-568.47 375.25,-568.42"/>
<text text-anchor="middle" x="382.72" y="-576.7" font-family="Times,serif" font-size="14.00">Нет</text>
</g>
<!-- node0x107601bd0 -->
<g id="node12" class="node">
<title>node0x107601bd0</title>
<path fill="#d5cfe1" stroke="#8797b2" d="M582,-304.5C582,-304.5 856.5,-304.5 856.5,-304.5 862.5,-304.5 868.5,-310.5 868.5,-316.5 868.5,-316.5 868.5,-391 868.5,-391 868.5,-397 862.5,-403 856.5,-403 856.5,-403 582,-403 582,-403 576,-403 570,-397 570,-391 570,-391 570,-316.5 570,-316.5 570,-310.5 576,-304.5 582,-304.5"/>
<text text-anchor="middle" x="719.25" y="-385.7" font-family="Times,serif" font-size="14.00" fill="#000000">Coach</text>
<text text-anchor="middle" x="719.25" y="-369.2" font-family="Times,serif" font-size="14.00" fill="#000000">0x107601bd0</text>
<polyline fill="none" stroke="#8797b2" points="570,-362 868.5,-362"/>
<text text-anchor="middle" x="629.38" y="-344.7" font-family="Times,serif" font-size="14.00" fill="#000000">Left</text>
<text text-anchor="middle" x="629.38" y="-328.2" font-family="Times,serif" font-size="14.00" fill="#000000">Valentin Guardiola</text>
<text text-anchor="middle" x="629.38" y="-311.7" font-family="Times,serif" font-size="14.00" fill="#000000">0x107601ba0</text>
<polyline fill="none" stroke="#8797b2" points="688.75,-304.5 688.75,-362"/>
<text text-anchor="middle" x="733.5" y="-344.7" font-family="Times,serif" font-size="14.00" fill="#000000">Parent</text>
<text text-anchor="middle" x="733.5" y="-328.2" font-family="Times,serif" font-size="14.00" fill="#000000">Do sport</text>
<text text-anchor="middle" x="733.5" y="-311.7" font-family="Times,serif" font-size="14.00" fill="#000000">0x107601c00</text>
<polyline fill="none" stroke="#8797b2" points="778.25,-304.5 778.25,-362"/>
<text text-anchor="middle" x="823.38" y="-344.7" font-family="Times,serif" font-size="14.00" fill="#000000">Right</text>
<text text-anchor="middle" x="823.38" y="-328.2" font-family="Times,serif" font-size="14.00" fill="#000000">IN KARTEL</text>
<text text-anchor="middle" x="823.38" y="-311.7" font-family="Times,serif" font-size="14.00" fill="#000000">0x107601b40</text>
</g>
<!-- node0x107601c00&#45;&gt;node0x107601bd0 -->
<g id="edge7" class="edge">
<title>node0x107601c00:left&#45;&gt;node0x107601bd0</title>
<path fill="none" stroke="#187ae8" stroke-width="2" d="M757.12,-456C757.12,-441.93 753.88,-427.42 749.28,-413.93"/>
<polygon fill="#187ae8" stroke="#187ae8" stroke-width="2" points="753.17,-414.35 746.41,-406.2 746.61,-416.79 753.17,-414.35"/>
<text text-anchor="middle" x="762.98" y="-424.7" font-family="Times,serif" font-size="14.00">Да</text>
</g>
<!-- node0x107601ab0 -->
<g id="node17" class="node">
<title>node0x107601ab0</title>
<path fill="#bdef9e" stroke="#99c2a2" d="M899,-304.5C899,-304.5 1071.5,-304.5 1071.5,-304.5 1077.5,-304.5 1083.5,-310.5 1083.5,-316.5 1083.5,-316.5 1083.5,-391 1083.5,-391 1083.5,-397 1077.5,-403 1071.5,-403 1071.5,-403 899,-403 899,-403 893,-403 887,-397 887,-391 887,-391 887,-316.5 887,-316.5 887,-310.5 893,-304.5 899,-304.5"/>
<text text-anchor="middle" x="985.25" y="-385.7" font-family="Times,serif" font-size="14.00" fill="#000000">Kvadrober</text>
<text text-anchor="middle" x="985.25" y="-369.2" font-family="Times,serif" font-size="14.00" fill="#000000">0x107601ab0</text>
<polyline fill="none" stroke="#99c2a2" points="887,-362 1083.5,-362"/>
<text text-anchor="middle" x="913.75" y="-344.7" font-family="Times,serif" font-size="14.00" fill="#000000">Left</text>
<text text-anchor="middle" x="913.75" y="-328.2" font-family="Times,serif" font-size="14.00" fill="#000000">NONE</text>
<text text-anchor="middle" x="913.75" y="-311.7" font-family="Times,serif" font-size="14.00" fill="#000000">0x0</text>
<polyline fill="none" stroke="#99c2a2" points="940.5,-304.5 940.5,-362"/>
<text text-anchor="middle" x="985.25" y="-344.7" font-family="Times,serif" font-size="14.00" fill="#000000">Parent</text>
<text text-anchor="middle" x="985.25" y="-328.2" font-family="Times,serif" font-size="14.00" fill="#000000">Do sport</text>
<text text-anchor="middle" x="985.25" y="-311.7" font-family="Times,serif" font-size="14.00" fill="#000000">0x107601c00</text>
<polyline fill="none" stroke="#99c2a2" points="1030,-304.5 1030,-362"/>
<text text-anchor="middle" x="1056.75" y="-344.7" font-family="Times,serif" font-size="14.00" fill="#000000">Right</text>
<text text-anchor="middle" x="1056.75" y="-328.2" font-family="Times,serif" font-size="14.00" fill="#000000">NONE</text>
<text text-anchor="middle" x="1056.75" y="-311.7" font-family="Times,serif" font-size="14.00" fill="#000000">0x0</text>
</g>
<!-- node0x107601c00&#45;&gt;node0x107601ab0 -->
<g id="edge12" class="edge">
<title>node0x107601c00:right&#45;&gt;node0x107601ab0</title>
<path fill="none" stroke="#48e818" stroke-width="2" d="M947.75,-456C947.75,-441.95 950.97,-427.44 955.51,-413.96"/>
<polygon fill="#48e818" stroke="#48e818" stroke-width="2" points="958.19,-416.82 958.36,-406.23 951.62,-414.4 958.19,-416.82"/>
<text text-anchor="middle" x="963.27" y="-424.7" font-family="Times,serif" font-size="14.00">Нет</text>
</g>
<!-- node0x107601ba0 -->
<g id="node13" class="node">
<title>node0x107601ba0</title>
<path fill="#d5cfe1" stroke="#8797b2" d="M514.62,-152.5C514.62,-152.5 687.88,-152.5 687.88,-152.5 693.88,-152.5 699.88,-158.5 699.88,-164.5 699.88,-164.5 699.88,-239 699.88,-239 699.88,-245 693.88,-251 687.88,-251 687.88,-251 514.62,-251 514.62,-251 508.62,-251 502.62,-245 502.62,-239 502.62,-239 502.62,-164.5 502.62,-164.5 502.62,-158.5 508.62,-152.5 514.62,-152.5"/>
<text text-anchor="middle" x="601.25" y="-233.7" font-family="Times,serif" font-size="14.00" fill="#000000">Valentin Guardiola</text>
<text text-anchor="middle" x="601.25" y="-217.2" font-family="Times,serif" font-size="14.00" fill="#000000">0x107601ba0</text>
<polyline fill="none" stroke="#8797b2" points="502.62,-210 699.88,-210"/>
<text text-anchor="middle" x="529.38" y="-192.7" font-family="Times,serif" font-size="14.00" fill="#000000">Left</text>
<text text-anchor="middle" x="529.38" y="-176.2" font-family="Times,serif" font-size="14.00" fill="#000000">NONE</text>
<text text-anchor="middle" x="529.38" y="-159.7" font-family="Times,serif" font-size="14.00" fill="#000000">0x0</text>
<polyline fill="none" stroke="#8797b2" points="556.12,-152.5 556.12,-210"/>
<text text-anchor="middle" x="601.25" y="-192.7" font-family="Times,serif" font-size="14.00" fill="#000000">Parent</text>
<text text-anchor="middle" x="601.25" y="-176.2" font-family="Times,serif" font-size="14.00" fill="#000000">Coach</text>
<text text-anchor="middle" x="601.25" y="-159.7" font-family="Times,serif" font-size="14.00" fill="#000000">0x107601bd0</text>
<polyline fill="none" stroke="#8797b2" points="646.38,-152.5 646.38,-210"/>
<text text-anchor="middle" x="673.12" y="-192.7" font-family="Times,serif" font-size="14.00" fill="#000000">Right</text>
<text text-anchor="middle" x="673.12" y="-176.2" font-family="Times,serif" font-size="14.00" fill="#000000">NONE</text>
<text text-anchor="middle" x="673.12" y="-159.7" font-family="Times,serif" font-size="14.00" fill="#000000">0x0</text>
</g>
<!-- node0x107601bd0&#45;&gt;node0x107601ba0 -->
<g id="edge8" class="edge">
<title>node0x107601bd0:left&#45;&gt;node0x107601ba0</title>
<path fill="none" stroke="#187ae8" stroke-width="2" d="M629.38,-304C629.38,-290.32 626.96,-275.96 623.55,-262.5"/>
<polygon fill="#187ae8" stroke="#187ae8" stroke-width="2" points="627.33,-263.06 621.29,-254.36 620.59,-264.93 627.33,-263.06"/>
<text text-anchor="middle" x="635.75" y="-272.7" font-family="Times,serif" font-size="14.00">Да</text>
</g>
<!-- node0x107601b40 -->
<g id="node14" class="node">
<title>node0x107601b40</title>
<path fill="#bdef9e" stroke="#99c2a2" d="M729.62,-152.5C729.62,-152.5 974.88,-152.5 974.88,-152.5 980.88,-152.5 986.88,-158.5 986.88,-164.5 986.88,-164.5 986.88,-239 986.88,-239 986.88,-245 980.88,-251 974.88,-251 974.88,-251 729.62,-251 729.62,-251 723.62,-251 717.62,-245 717.62,-239 717.62,-239 717.62,-164.5 717.62,-164.5 717.62,-158.5 723.62,-152.5 729.62,-152.5"/>
<text text-anchor="middle" x="852.25" y="-233.7" font-family="Times,serif" font-size="14.00" fill="#000000">IN KARTEL</text>
<text text-anchor="middle" x="852.25" y="-217.2" font-family="Times,serif" font-size="14.00" fill="#000000">0x107601b40</text>
<polyline fill="none" stroke="#99c2a2" points="717.62,-210 986.88,-210"/>
<text text-anchor="middle" x="762.75" y="-192.7" font-family="Times,serif" font-size="14.00" fill="#000000">Left</text>
<text text-anchor="middle" x="762.75" y="-176.2" font-family="Times,serif" font-size="14.00" fill="#000000">LEGEND</text>
<text text-anchor="middle" x="762.75" y="-159.7" font-family="Times,serif" font-size="14.00" fill="#000000">0x107601b10</text>
<polyline fill="none" stroke="#99c2a2" points="807.88,-152.5 807.88,-210"/>
<text text-anchor="middle" x="853" y="-192.7" font-family="Times,serif" font-size="14.00" fill="#000000">Parent</text>
<text text-anchor="middle" x="853" y="-176.2" font-family="Times,serif" font-size="14.00" fill="#000000">Coach</text>
<text text-anchor="middle" x="853" y="-159.7" font-family="Times,serif" font-size="14.00" fill="#000000">0x107601bd0</text>
<polyline fill="none" stroke="#99c2a2" points="898.12,-152.5 898.12,-210"/>
<text text-anchor="middle" x="942.5" y="-192.7" font-family="Times,serif" font-size="14.00" fill="#000000">Right</text>
<text text-anchor="middle" x="942.5" y="-176.2" font-family="Times,serif" font-size="14.00" fill="#000000">LX</text>
<text text-anchor="middle" x="942.5" y="-159.7" font-family="Times,serif" font-size="14.00" fill="#000000">0x107601ae0</text>
</g>
<!-- node0x107601bd0&#45;&gt;node0x107601b40 -->
<g id="edge11" class="edge">
<title>node0x107601bd0:right&#45;&gt;node0x107601b40</title>
<path fill="none" stroke="#48e818" stroke-width="2" d="M823.38,-304C823.38,-290.29 825.85,-275.92 829.36,-262.46"/>
<polygon fill="#48e818" stroke="#48e818" stroke-width="2" points="832.31,-264.89 831.68,-254.31 825.57,-262.97 832.31,-264.89"/>
<text text-anchor="middle" x="838.44" y="-272.7" font-family="Times,serif" font-size="14.00">Нет</text>
</g>
<!-- node0x107601b10 -->
<g id="node15" class="node">
<title>node0x107601b10</title>
<path fill="#d5cfe1" stroke="#8797b2" d="M658.62,-0.5C658.62,-0.5 831.88,-0.5 831.88,-0.5 837.88,-0.5 843.88,-6.5 843.88,-12.5 843.88,-12.5 843.88,-87 843.88,-87 843.88,-93 837.88,-99 831.88,-99 831.88,-99 658.62,-99 658.62,-99 652.62,-99 646.62,-93 646.62,-87 646.62,-87 646.62,-12.5 646.62,-12.5 646.62,-6.5 652.62,-0.5 658.62,-0.5"/>
<text text-anchor="middle" x="745.25" y="-81.7" font-family="Times,serif" font-size="14.00" fill="#000000">LEGEND</text>
<text text-anchor="middle" x="745.25" y="-65.2" font-family="Times,serif" font-size="14.00" fill="#000000">0x107601b10</text>
<polyline fill="none" stroke="#8797b2" points="646.62,-58 843.88,-58"/>
<text text-anchor="middle" x="673.38" y="-40.7" font-family="Times,serif" font-size="14.00" fill="#000000">Left</text>
<text text-anchor="middle" x="673.38" y="-24.2" font-family="Times,serif" font-size="14.00" fill="#000000">NONE</text>
<text text-anchor="middle" x="673.38" y="-7.7" font-family="Times,serif" font-size="14.00" fill="#000000">0x0</text>
<polyline fill="none" stroke="#8797b2" points="700.12,-0.5 700.12,-58"/>
<text text-anchor="middle" x="745.25" y="-40.7" font-family="Times,serif" font-size="14.00" fill="#000000">Parent</text>
<text text-anchor="middle" x="745.25" y="-24.2" font-family="Times,serif" font-size="14.00" fill="#000000">IN KARTEL</text>
<text text-anchor="middle" x="745.25" y="-7.7" font-family="Times,serif" font-size="14.00" fill="#000000">0x107601b40</text>
<polyline fill="none" stroke="#8797b2" points="790.38,-0.5 790.38,-58"/>
<text text-anchor="middle" x="817.12" y="-40.7" font-family="Times,serif" font-size="14.00" fill="#000000">Right</text>
<text text-anchor="middle" x="817.12" y="-24.2" font-family="Times,serif" font-size="14.00" fill="#000000">NONE</text>
<text text-anchor="middle" x="817.12" y="-7.7" font-family="Times,serif" font-size="14.00" fill="#000000">0x0</text>
</g>
<!-- node0x107601b40&#45;&gt;node0x107601b10 -->
<g id="edge9" class="edge">
<title>node0x107601b40:left&#45;&gt;node0x107601b10</title>
<path fill="none" stroke="#187ae8" stroke-width="2" d="M762.75,-152C762.75,-138.48 761.22,-124.09 759.06,-110.54"/>
<polygon fill="#187ae8" stroke="#187ae8" stroke-width="2" points="762.8,-111.62 757.64,-102.36 755.9,-112.82 762.8,-111.62"/>
<text text-anchor="middle" x="769.69" y="-120.7" font-family="Times,serif" font-size="14.00">Да</text>
</g>
<!-- node0x107601ae0 -->
<g id="node16" class="node">
<title>node0x107601ae0</title>
<path fill="#bdef9e" stroke="#99c2a2" d="M873.62,-0.5C873.62,-0.5 1046.88,-0.5 1046.88,-0.5 1052.88,-0.5 1058.88,-6.5 1058.88,-12.5 1058.88,-12.5 1058.88,-87 1058.88,-87 1058.88,-93 1052.88,-99 1046.88,-99 1046.88,-99 873.62,-99 873.62,-99 867.62,-99 861.62,-93 861.62,-87 861.62,-87 861.62,-12.5 861.62,-12.5 861.62,-6.5 867.62,-0.5 873.62,-0.5"/>
<text text-anchor="middle" x="960.25" y="-81.7" font-family="Times,serif" font-size="14.00" fill="#000000">LX</text>
<text text-anchor="middle" x="960.25" y="-65.2" font-family="Times,serif" font-size="14.00" fill="#000000">0x107601ae0</text>
<polyline fill="none" stroke="#99c2a2" points="861.62,-58 1058.88,-58"/>
<text text-anchor="middle" x="888.38" y="-40.7" font-family="Times,serif" font-size="14.00" fill="#000000">Left</text>
<text text-anchor="middle" x="888.38" y="-24.2" font-family="Times,serif" font-size="14.00" fill="#000000">NONE</text>
<text text-anchor="middle" x="888.38" y="-7.7" font-family="Times,serif" font-size="14.00" fill="#000000">0x0</text>
<polyline fill="none" stroke="#99c2a2" points="915.12,-0.5 915.12,-58"/>
<text text-anchor="middle" x="960.25" y="-40.7" font-family="Times,serif" font-size="14.00" fill="#000000">Parent</text>
<text text-anchor="middle" x="960.25" y="-24.2" font-family="Times,serif" font-size="14.00" fill="#000000">IN KARTEL</text>
<text text-anchor="middle" x="960.25" y="-7.7" font-family="Times,serif" font-size="14.00" fill="#000000">0x107601b40</text>
<polyline fill="none" stroke="#99c2a2" points="1005.38,-0.5 1005.38,-58"/>
<text text-anchor="middle" x="1032.12" y="-40.7" font-family="Times,serif" font-size="14.00" fill="#000000">Right</text>
<text text-anchor="middle" x="1032.12" y="-24.2" font-family="Times,serif" font-size="14.00" fill="#000000">NONE</text>
<text text-anchor="middle" x="1032.12" y="-7.7" font-family="Times,serif" font-size="14.00" fill="#000000">0x0</text>
</g>
<!-- node0x107601b40&#45;&gt;node0x107601ae0 -->
<g id="edge10" class="edge">
<title>node0x107601b40:right&#45;&gt;node0x107601ae0</title>
<path fill="none" stroke="#48e818" stroke-width="2" d="M942.5,-152C942.5,-138.48 944.06,-124.09 946.25,-110.53"/>
<polygon fill="#48e818" stroke="#48e818" stroke-width="2" points="949.4,-112.81 947.69,-102.35 942.5,-111.59 949.4,-112.81"/>
<text text-anchor="middle" x="955.95" y="-120.7" font-family="Times,serif" font-size="14.00">Нет</text>
</g>
</g>
</svg>
