<?xml version="1.0" encoding="UTF-8" standalone="no"?>
<!DOCTYPE svg PUBLIC "-//W3C//DTD SVG 1.1//EN"
 "http://www.w3.org/Graphics/SVG/1.1/DTD/svg11.dtd">
<!-- Generated by graphviz version 12.2.0 (20241103.1931)
 -->
<!-- Pages: 1 -->
<svg width="1105pt" height="1172pt"
 viewBox="0.00 0.00 1104.88 1171.50" xmlns="http://www.w3.org/2000/svg" xmlns:xlink="http://www.w3.org/1999/xlink">
<g id="graph0" class="graph" transform="scale(1 1) rotate(0) translate(4 1167.5)">
<polygon fill="#dcdcdc" stroke="none" points="-4,4 -4,-1167.5 1100.88,-1167.5 1100.88,4 -4,4"/>
<!-- node0x107601e10 -->
<g id="node1" class="node">
<title>node0x107601e10</title>
<path fill="#fbee21" stroke="#d3c70d" d="M118,-1064.5C118,-1064.5 344.5,-1064.5 344.5,-1064.5 350.5,-1064.5 356.5,-1070.5 356.5,-1076.5 356.5,-1076.5 356.5,-1151 356.5,-1151 356.5,-1157 350.5,-1163 344.5,-1163 344.5,-1163 118,-1163 118,-1163 112,-1163 106,-1157 106,-1151 106,-1151 106,-1076.5 106,-1076.5 106,-1070.5 112,-1064.5 118,-1064.5"/>
<text text-anchor="middle" x="231.25" y="-1145.7" font-family="Times,serif" font-size="14.00" fill="#000000">Animal</text>
<text text-anchor="middle" x="231.25" y="-1129.2" font-family="Times,serif" font-size="14.00" fill="#000000">0x107601e10</text>
<polyline fill="none" stroke="#d3c70d" points="106,-1122 356.5,-1122"/>
<text text-anchor="middle" x="150.75" y="-1104.7" font-family="Times,serif" font-size="14.00" fill="#000000">Left</text>
<text text-anchor="middle" x="150.75" y="-1088.2" font-family="Times,serif" font-size="14.00" fill="#000000">Poltorashka</text>
<text text-anchor="middle" x="150.75" y="-1071.7" font-family="Times,serif" font-size="14.00" fill="#000000">0x107601de0</text>
<polyline fill="none" stroke="#d3c70d" points="195.5,-1064.5 195.5,-1122"/>
<text text-anchor="middle" x="222.25" y="-1104.7" font-family="Times,serif" font-size="14.00" fill="#000000">Parent</text>
<text text-anchor="middle" x="222.25" y="-1088.2" font-family="Times,serif" font-size="14.00" fill="#000000">NONE</text>
<text text-anchor="middle" x="222.25" y="-1071.7" font-family="Times,serif" font-size="14.00" fill="#000000">0x0</text>
<polyline fill="none" stroke="#d3c70d" points="249,-1064.5 249,-1122"/>
<text text-anchor="middle" x="302.75" y="-1104.7" font-family="Times,serif" font-size="14.00" fill="#000000">Right</text>
<text text-anchor="middle" x="302.75" y="-1088.2" font-family="Times,serif" font-size="14.00" fill="#000000">Teaches analisys</text>
<text text-anchor="middle" x="302.75" y="-1071.7" font-family="Times,serif" font-size="14.00" fill="#000000">0x107601db0</text>
</g>
<!-- node0x107601de0 -->
<g id="node2" class="node">
<title>node0x107601de0</title>
<path fill="#d5cfe1" stroke="#8797b2" d="M12,-912.5C12,-912.5 184.5,-912.5 184.5,-912.5 190.5,-912.5 196.5,-918.5 196.5,-924.5 196.5,-924.5 196.5,-999 196.5,-999 196.5,-1005 190.5,-1011 184.5,-1011 184.5,-1011 12,-1011 12,-1011 6,-1011 0,-1005 0,-999 0,-999 0,-924.5 0,-924.5 0,-918.5 6,-912.5 12,-912.5"/>
<text text-anchor="middle" x="98.25" y="-993.7" font-family="Times,serif" font-size="14.00" fill="#000000">Poltorashka</text>
<text text-anchor="middle" x="98.25" y="-977.2" font-family="Times,serif" font-size="14.00" fill="#000000">0x107601de0</text>
<polyline fill="none" stroke="#8797b2" points="0,-970 196.5,-970"/>
<text text-anchor="middle" x="26.75" y="-952.7" font-family="Times,serif" font-size="14.00" fill="#000000">Left</text>
<text text-anchor="middle" x="26.75" y="-936.2" font-family="Times,serif" font-size="14.00" fill="#000000">NONE</text>
<text text-anchor="middle" x="26.75" y="-919.7" font-family="Times,serif" font-size="14.00" fill="#000000">0x0</text>
<polyline fill="none" stroke="#8797b2" points="53.5,-912.5 53.5,-970"/>
<text text-anchor="middle" x="98.25" y="-952.7" font-family="Times,serif" font-size="14.00" fill="#000000">Parent</text>
<text text-anchor="middle" x="98.25" y="-936.2" font-family="Times,serif" font-size="14.00" fill="#000000">Animal</text>
<text text-anchor="middle" x="98.25" y="-919.7" font-family="Times,serif" font-size="14.00" fill="#000000">0x107601e10</text>
<polyline fill="none" stroke="#8797b2" points="143,-912.5 143,-970"/>
<text text-anchor="middle" x="169.75" y="-952.7" font-family="Times,serif" font-size="14.00" fill="#000000">Right</text>
<text text-anchor="middle" x="169.75" y="-936.2" font-family="Times,serif" font-size="14.00" fill="#000000">NONE</text>
<text text-anchor="middle" x="169.75" y="-919.7" font-family="Times,serif" font-size="14.00" fill="#000000">0x0</text>
</g>
<!-- node0x107601e10&#45;&gt;node0x107601de0 -->
<g id="edge1" class="edge">
<title>node0x107601e10:left&#45;&gt;node0x107601de0</title>
<path fill="none" stroke="#187ae8" stroke-width="2" d="M105,-1093.25C74.29,-1093.25 74.17,-1056.77 80.87,-1022.38"/>
<polygon fill="#187ae8" stroke="#187ae8" stroke-width="2" points="83.93,-1024.82 82.62,-1014.3 77.09,-1023.34 83.93,-1024.82"/>
<text text-anchor="middle" x="87.09" y="-1032.7" font-family="Times,serif" font-size="14.00">Да</text>
</g>
<!-- node0x107601db0 -->
<g id="node4" class="node">
<title>node0x107601db0</title>
<path fill="#bdef9e" stroke="#99c2a2" d="M226.12,-912.5C226.12,-912.5 486.38,-912.5 486.38,-912.5 492.38,-912.5 498.38,-918.5 498.38,-924.5 498.38,-924.5 498.38,-999 498.38,-999 498.38,-1005 492.38,-1011 486.38,-1011 486.38,-1011 226.12,-1011 226.12,-1011 220.12,-1011 214.12,-1005 214.12,-999 214.12,-999 214.12,-924.5 214.12,-924.5 214.12,-918.5 220.12,-912.5 226.12,-912.5"/>
<text text-anchor="middle" x="356.25" y="-993.7" font-family="Times,serif" font-size="14.00" fill="#000000">Teaches analisys</text>
<text text-anchor="middle" x="356.25" y="-977.2" font-family="Times,serif" font-size="14.00" fill="#000000">0x107601db0</text>
<polyline fill="none" stroke="#99c2a2" points="214.12,-970 498.38,-970"/>
<text text-anchor="middle" x="259.25" y="-952.7" font-family="Times,serif" font-size="14.00" fill="#000000">Left</text>
<text text-anchor="middle" x="259.25" y="-936.2" font-family="Times,serif" font-size="14.00" fill="#000000">Burtsev</text>
<text text-anchor="middle" x="259.25" y="-919.7" font-family="Times,serif" font-size="14.00" fill="#000000">0x107601d50</text>
<polyline fill="none" stroke="#99c2a2" points="304.38,-912.5 304.38,-970"/>
<text text-anchor="middle" x="349.12" y="-952.7" font-family="Times,serif" font-size="14.00" fill="#000000">Parent</text>
<text text-anchor="middle" x="349.12" y="-936.2" font-family="Times,serif" font-size="14.00" fill="#000000">Animal</text>
<text text-anchor="middle" x="349.12" y="-919.7" font-family="Times,serif" font-size="14.00" fill="#000000">0x107601e10</text>
<polyline fill="none" stroke="#99c2a2" points="393.88,-912.5 393.88,-970"/>
<text text-anchor="middle" x="446.12" y="-952.7" font-family="Times,serif" font-size="14.00" fill="#000000">Right</text>
<text text-anchor="middle" x="446.12" y="-936.2" font-family="Times,serif" font-size="14.00" fill="#000000">Teaches physics</text>
<text text-anchor="middle" x="446.12" y="-919.7" font-family="Times,serif" font-size="14.00" fill="#000000">0x107601d20</text>
</g>
<!-- node0x107601e10&#45;&gt;node0x107601db0 -->
<g id="edge15" class="edge">
<title>node0x107601e10:right&#45;&gt;node0x107601db0</title>
<path fill="none" stroke="#48e818" stroke-width="2" d="M302.75,-1064C302.75,-1049.35 307.19,-1034.74 313.5,-1021.36"/>
<polygon fill="#48e818" stroke="#48e818" stroke-width="2" points="315.78,-1024.57 317.27,-1014.08 309.56,-1021.36 315.78,-1024.57"/>
<text text-anchor="middle" x="320.25" y="-1032.7" font-family="Times,serif" font-size="14.00">Нет</text>
</g>
<!-- node0x107601c00 -->
<g id="node3" class="node">
<title>node0x107601c00</title>
<path fill="#f18805" stroke="#af3800" d="M724,-456.5C724,-456.5 944.5,-456.5 944.5,-456.5 950.5,-456.5 956.5,-462.5 956.5,-468.5 956.5,-468.5 956.5,-543 956.5,-543 956.5,-549 950.5,-555 944.5,-555 944.5,-555 724,-555 724,-555 718,-555 712,-549 712,-543 712,-543 712,-468.5 712,-468.5 712,-462.5 718,-456.5 724,-456.5"/>
<text text-anchor="middle" x="834.25" y="-537.7" font-family="Times,serif" font-size="14.00" fill="#000000">Do sport</text>
<text text-anchor="middle" x="834.25" y="-521.2" font-family="Times,serif" font-size="14.00" fill="#000000">0x107601c00</text>
<polyline fill="none" stroke="#af3800" points="712,-514 956.5,-514"/>
<text text-anchor="middle" x="757.12" y="-496.7" font-family="Times,serif" font-size="14.00" fill="#000000">Left</text>
<text text-anchor="middle" x="757.12" y="-480.2" font-family="Times,serif" font-size="14.00" fill="#000000">Coach</text>
<text text-anchor="middle" x="757.12" y="-463.7" font-family="Times,serif" font-size="14.00" fill="#000000">0x107601bd0</text>
<polyline fill="none" stroke="#af3800" points="802.25,-456.5 802.25,-514"/>
<text text-anchor="middle" x="852.62" y="-496.7" font-family="Times,serif" font-size="14.00" fill="#000000">Parent</text>
<text text-anchor="middle" x="852.62" y="-480.2" font-family="Times,serif" font-size="14.00" fill="#000000">Teaches angem</text>
<text text-anchor="middle" x="852.62" y="-463.7" font-family="Times,serif" font-size="14.00" fill="#000000">0x107601c60</text>
<polyline fill="none" stroke="#af3800" points="903,-456.5 903,-514"/>
<text text-anchor="middle" x="929.75" y="-496.7" font-family="Times,serif" font-size="14.00" fill="#000000">Right</text>
<text text-anchor="middle" x="929.75" y="-480.2" font-family="Times,serif" font-size="14.00" fill="#000000">NONE</text>
<text text-anchor="middle" x="929.75" y="-463.7" font-family="Times,serif" font-size="14.00" fill="#000000">0x0</text>
</g>
<!-- node0x107601bd0 -->
<g id="node12" class="node">
<title>node0x107601bd0</title>
<path fill="#d5cfe1" stroke="#8797b2" d="M620,-304.5C620,-304.5 894.5,-304.5 894.5,-304.5 900.5,-304.5 906.5,-310.5 906.5,-316.5 906.5,-316.5 906.5,-391 906.5,-391 906.5,-397 900.5,-403 894.5,-403 894.5,-403 620,-403 620,-403 614,-403 608,-397 608,-391 608,-391 608,-316.5 608,-316.5 608,-310.5 614,-304.5 620,-304.5"/>
<text text-anchor="middle" x="757.25" y="-385.7" font-family="Times,serif" font-size="14.00" fill="#000000">Coach</text>
<text text-anchor="middle" x="757.25" y="-369.2" font-family="Times,serif" font-size="14.00" fill="#000000">0x107601bd0</text>
<polyline fill="none" stroke="#8797b2" points="608,-362 906.5,-362"/>
<text text-anchor="middle" x="667.38" y="-344.7" font-family="Times,serif" font-size="14.00" fill="#000000">Left</text>
<text text-anchor="middle" x="667.38" y="-328.2" font-family="Times,serif" font-size="14.00" fill="#000000">Valentin Guardiola</text>
<text text-anchor="middle" x="667.38" y="-311.7" font-family="Times,serif" font-size="14.00" fill="#000000">0x107601ba0</text>
<polyline fill="none" stroke="#8797b2" points="726.75,-304.5 726.75,-362"/>
<text text-anchor="middle" x="771.5" y="-344.7" font-family="Times,serif" font-size="14.00" fill="#000000">Parent</text>
<text text-anchor="middle" x="771.5" y="-328.2" font-family="Times,serif" font-size="14.00" fill="#000000">Do sport</text>
<text text-anchor="middle" x="771.5" y="-311.7" font-family="Times,serif" font-size="14.00" fill="#000000">0x107601c00</text>
<polyline fill="none" stroke="#8797b2" points="816.25,-304.5 816.25,-362"/>
<text text-anchor="middle" x="861.38" y="-344.7" font-family="Times,serif" font-size="14.00" fill="#000000">Right</text>
<text text-anchor="middle" x="861.38" y="-328.2" font-family="Times,serif" font-size="14.00" fill="#000000">IN KARTEL</text>
<text text-anchor="middle" x="861.38" y="-311.7" font-family="Times,serif" font-size="14.00" fill="#000000">0x107601b40</text>
</g>
<!-- node0x107601c00&#45;&gt;node0x107601bd0 -->
<g id="edge7" class="edge">
<title>node0x107601c00:left&#45;&gt;node0x107601bd0</title>
<path fill="none" stroke="#187ae8" stroke-width="2" d="M757.12,-456C757.12,-442.61 757.14,-428.22 757.15,-414.62"/>
<polygon fill="#187ae8" stroke="#187ae8" stroke-width="2" points="760.65,-416.45 757.16,-406.44 753.65,-416.44 760.65,-416.45"/>
<text text-anchor="middle" x="765.02" y="-424.7" font-family="Times,serif" font-size="14.00">Да</text>
</g>
<!-- node0x107601d50 -->
<g id="node5" class="node">
<title>node0x107601d50</title>
<path fill="#d5cfe1" stroke="#8797b2" d="M142,-760.5C142,-760.5 332.5,-760.5 332.5,-760.5 338.5,-760.5 344.5,-766.5 344.5,-772.5 344.5,-772.5 344.5,-847 344.5,-847 344.5,-853 338.5,-859 332.5,-859 332.5,-859 142,-859 142,-859 136,-859 130,-853 130,-847 130,-847 130,-772.5 130,-772.5 130,-766.5 136,-760.5 142,-760.5"/>
<text text-anchor="middle" x="237.25" y="-841.7" font-family="Times,serif" font-size="14.00" fill="#000000">Burtsev</text>
<text text-anchor="middle" x="237.25" y="-825.2" font-family="Times,serif" font-size="14.00" fill="#000000">0x107601d50</text>
<polyline fill="none" stroke="#8797b2" points="130,-818 344.5,-818"/>
<text text-anchor="middle" x="156.75" y="-800.7" font-family="Times,serif" font-size="14.00" fill="#000000">Left</text>
<text text-anchor="middle" x="156.75" y="-784.2" font-family="Times,serif" font-size="14.00" fill="#000000">NONE</text>
<text text-anchor="middle" x="156.75" y="-767.7" font-family="Times,serif" font-size="14.00" fill="#000000">0x0</text>
<polyline fill="none" stroke="#8797b2" points="183.5,-760.5 183.5,-818"/>
<text text-anchor="middle" x="237.25" y="-800.7" font-family="Times,serif" font-size="14.00" fill="#000000">Parent</text>
<text text-anchor="middle" x="237.25" y="-784.2" font-family="Times,serif" font-size="14.00" fill="#000000">Teaches analisys</text>
<text text-anchor="middle" x="237.25" y="-767.7" font-family="Times,serif" font-size="14.00" fill="#000000">0x107601db0</text>
<polyline fill="none" stroke="#8797b2" points="291,-760.5 291,-818"/>
<text text-anchor="middle" x="317.75" y="-800.7" font-family="Times,serif" font-size="14.00" fill="#000000">Right</text>
<text text-anchor="middle" x="317.75" y="-784.2" font-family="Times,serif" font-size="14.00" fill="#000000">NONE</text>
<text text-anchor="middle" x="317.75" y="-767.7" font-family="Times,serif" font-size="14.00" fill="#000000">0x0</text>
</g>
<!-- node0x107601db0&#45;&gt;node0x107601d50 -->
<g id="edge2" class="edge">
<title>node0x107601db0:left&#45;&gt;node0x107601d50</title>
<path fill="none" stroke="#187ae8" stroke-width="2" d="M259.25,-912C259.25,-898.44 257.34,-884.08 254.65,-870.58"/>
<polygon fill="#187ae8" stroke="#187ae8" stroke-width="2" points="258.42,-871.45 252.87,-862.43 251.58,-872.94 258.42,-871.45"/>
<text text-anchor="middle" x="265.95" y="-880.7" font-family="Times,serif" font-size="14.00">Да</text>
</g>
<!-- node0x107601d20 -->
<g id="node6" class="node">
<title>node0x107601d20</title>
<path fill="#bdef9e" stroke="#99c2a2" d="M374.5,-760.5C374.5,-760.5 646,-760.5 646,-760.5 652,-760.5 658,-766.5 658,-772.5 658,-772.5 658,-847 658,-847 658,-853 652,-859 646,-859 646,-859 374.5,-859 374.5,-859 368.5,-859 362.5,-853 362.5,-847 362.5,-847 362.5,-772.5 362.5,-772.5 362.5,-766.5 368.5,-760.5 374.5,-760.5"/>
<text text-anchor="middle" x="510.25" y="-841.7" font-family="Times,serif" font-size="14.00" fill="#000000">Teaches physics</text>
<text text-anchor="middle" x="510.25" y="-825.2" font-family="Times,serif" font-size="14.00" fill="#000000">0x107601d20</text>
<polyline fill="none" stroke="#99c2a2" points="362.5,-818 658,-818"/>
<text text-anchor="middle" x="406.12" y="-800.7" font-family="Times,serif" font-size="14.00" fill="#000000">Left</text>
<text text-anchor="middle" x="406.12" y="-784.2" font-family="Times,serif" font-size="14.00" fill="#000000">Nefor</text>
<text text-anchor="middle" x="406.12" y="-767.7" font-family="Times,serif" font-size="14.00" fill="#000000">0x107601cf0</text>
<polyline fill="none" stroke="#99c2a2" points="449.75,-760.5 449.75,-818"/>
<text text-anchor="middle" x="503.5" y="-800.7" font-family="Times,serif" font-size="14.00" fill="#000000">Parent</text>
<text text-anchor="middle" x="503.5" y="-784.2" font-family="Times,serif" font-size="14.00" fill="#000000">Teaches analisys</text>
<text text-anchor="middle" x="503.5" y="-767.7" font-family="Times,serif" font-size="14.00" fill="#000000">0x107601db0</text>
<polyline fill="none" stroke="#99c2a2" points="557.25,-760.5 557.25,-818"/>
<text text-anchor="middle" x="607.62" y="-800.7" font-family="Times,serif" font-size="14.00" fill="#000000">Right</text>
<text text-anchor="middle" x="607.62" y="-784.2" font-family="Times,serif" font-size="14.00" fill="#000000">Teaches angem</text>
<text text-anchor="middle" x="607.62" y="-767.7" font-family="Times,serif" font-size="14.00" fill="#000000">0x107601c60</text>
</g>
<!-- node0x107601db0&#45;&gt;node0x107601d20 -->
<g id="edge14" class="edge">
<title>node0x107601db0:right&#45;&gt;node0x107601d20</title>
<path fill="none" stroke="#48e818" stroke-width="2" d="M446.12,-912C446.12,-896.99 451.21,-882.41 458.52,-869.2"/>
<polygon fill="#48e818" stroke="#48e818" stroke-width="2" points="460.72,-872.32 462.93,-861.96 454.74,-868.68 460.72,-872.32"/>
<text text-anchor="middle" x="464.95" y="-880.7" font-family="Times,serif" font-size="14.00">Нет</text>
</g>
<!-- node0x107601cf0 -->
<g id="node7" class="node">
<title>node0x107601cf0</title>
<path fill="#d5cfe1" stroke="#8797b2" d="M145.88,-608.5C145.88,-608.5 404.62,-608.5 404.62,-608.5 410.62,-608.5 416.62,-614.5 416.62,-620.5 416.62,-620.5 416.62,-695 416.62,-695 416.62,-701 410.62,-707 404.62,-707 404.62,-707 145.88,-707 145.88,-707 139.88,-707 133.88,-701 133.88,-695 133.88,-695 133.88,-620.5 133.88,-620.5 133.88,-614.5 139.88,-608.5 145.88,-608.5"/>
<text text-anchor="middle" x="275.25" y="-689.7" font-family="Times,serif" font-size="14.00" fill="#000000">Nefor</text>
<text text-anchor="middle" x="275.25" y="-673.2" font-family="Times,serif" font-size="14.00" fill="#000000">0x107601cf0</text>
<polyline fill="none" stroke="#8797b2" points="133.88,-666 416.62,-666"/>
<text text-anchor="middle" x="178.25" y="-648.7" font-family="Times,serif" font-size="14.00" fill="#000000">Left</text>
<text text-anchor="middle" x="178.25" y="-632.2" font-family="Times,serif" font-size="14.00" fill="#000000">Magic</text>
<text text-anchor="middle" x="178.25" y="-615.7" font-family="Times,serif" font-size="14.00" fill="#000000">0x107601cc0</text>
<polyline fill="none" stroke="#8797b2" points="222.62,-608.5 222.62,-666"/>
<text text-anchor="middle" x="274.88" y="-648.7" font-family="Times,serif" font-size="14.00" fill="#000000">Parent</text>
<text text-anchor="middle" x="274.88" y="-632.2" font-family="Times,serif" font-size="14.00" fill="#000000">Teaches physics</text>
<text text-anchor="middle" x="274.88" y="-615.7" font-family="Times,serif" font-size="14.00" fill="#000000">0x107601d20</text>
<polyline fill="none" stroke="#8797b2" points="327.12,-608.5 327.12,-666"/>
<text text-anchor="middle" x="371.88" y="-648.7" font-family="Times,serif" font-size="14.00" fill="#000000">Right</text>
<text text-anchor="middle" x="371.88" y="-632.2" font-family="Times,serif" font-size="14.00" fill="#000000">Ovchos</text>
<text text-anchor="middle" x="371.88" y="-615.7" font-family="Times,serif" font-size="14.00" fill="#000000">0x107601c90</text>
</g>
<!-- node0x107601d20&#45;&gt;node0x107601cf0 -->
<g id="edge3" class="edge">
<title>node0x107601d20:left&#45;&gt;node0x107601cf0</title>
<path fill="none" stroke="#187ae8" stroke-width="2" d="M406.12,-760C406.12,-742.56 398.77,-727.7 387.54,-715.17"/>
<polygon fill="#187ae8" stroke="#187ae8" stroke-width="2" points="391.33,-714.01 381.78,-709.42 386.38,-718.96 391.33,-714.01"/>
<text text-anchor="middle" x="410.34" y="-728.7" font-family="Times,serif" font-size="14.00">Да</text>
</g>
<!-- node0x107601c60 -->
<g id="node10" class="node">
<title>node0x107601c60</title>
<path fill="#bdef9e" stroke="#99c2a2" d="M557.5,-608.5C557.5,-608.5 817,-608.5 817,-608.5 823,-608.5 829,-614.5 829,-620.5 829,-620.5 829,-695 829,-695 829,-701 823,-707 817,-707 817,-707 557.5,-707 557.5,-707 551.5,-707 545.5,-701 545.5,-695 545.5,-695 545.5,-620.5 545.5,-620.5 545.5,-614.5 551.5,-608.5 557.5,-608.5"/>
<text text-anchor="middle" x="687.25" y="-689.7" font-family="Times,serif" font-size="14.00" fill="#000000">Teaches angem</text>
<text text-anchor="middle" x="687.25" y="-673.2" font-family="Times,serif" font-size="14.00" fill="#000000">0x107601c60</text>
<polyline fill="none" stroke="#99c2a2" points="545.5,-666 829,-666"/>
<text text-anchor="middle" x="590.25" y="-648.7" font-family="Times,serif" font-size="14.00" fill="#000000">Left</text>
<text text-anchor="middle" x="590.25" y="-632.2" font-family="Times,serif" font-size="14.00" fill="#000000">Chubarik</text>
<text text-anchor="middle" x="590.25" y="-615.7" font-family="Times,serif" font-size="14.00" fill="#000000">0x107601c30</text>
<polyline fill="none" stroke="#99c2a2" points="635,-608.5 635,-666"/>
<text text-anchor="middle" x="687.25" y="-648.7" font-family="Times,serif" font-size="14.00" fill="#000000">Parent</text>
<text text-anchor="middle" x="687.25" y="-632.2" font-family="Times,serif" font-size="14.00" fill="#000000">Teaches physics</text>
<text text-anchor="middle" x="687.25" y="-615.7" font-family="Times,serif" font-size="14.00" fill="#000000">0x107601d20</text>
<polyline fill="none" stroke="#99c2a2" points="739.5,-608.5 739.5,-666"/>
<text text-anchor="middle" x="784.25" y="-648.7" font-family="Times,serif" font-size="14.00" fill="#000000">Right</text>
<text text-anchor="middle" x="784.25" y="-632.2" font-family="Times,serif" font-size="14.00" fill="#000000">Do sport</text>
<text text-anchor="middle" x="784.25" y="-615.7" font-family="Times,serif" font-size="14.00" fill="#000000">0x107601c00</text>
</g>
<!-- node0x107601d20&#45;&gt;node0x107601c60 -->
<g id="edge13" class="edge">
<title>node0x107601d20:right&#45;&gt;node0x107601c60</title>
<path fill="none" stroke="#48e818" stroke-width="2" d="M659,-789.25C690.24,-789.25 696.42,-753.08 695.26,-718.83"/>
<polygon fill="#48e818" stroke="#48e818" stroke-width="2" points="698.84,-720.15 694.79,-710.37 691.85,-720.55 698.84,-720.15"/>
<text text-anchor="middle" x="706.26" y="-728.7" font-family="Times,serif" font-size="14.00">Нет</text>
</g>
<!-- node0x107601cc0 -->
<g id="node8" class="node">
<title>node0x107601cc0</title>
<path fill="#d5cfe1" stroke="#8797b2" d="M74.12,-456.5C74.12,-456.5 244.38,-456.5 244.38,-456.5 250.38,-456.5 256.38,-462.5 256.38,-468.5 256.38,-468.5 256.38,-543 256.38,-543 256.38,-549 250.38,-555 244.38,-555 244.38,-555 74.12,-555 74.12,-555 68.13,-555 62.12,-549 62.12,-543 62.12,-543 62.12,-468.5 62.12,-468.5 62.12,-462.5 68.12,-456.5 74.12,-456.5"/>
<text text-anchor="middle" x="159.25" y="-537.7" font-family="Times,serif" font-size="14.00" fill="#000000">Magic</text>
<text text-anchor="middle" x="159.25" y="-521.2" font-family="Times,serif" font-size="14.00" fill="#000000">0x107601cc0</text>
<polyline fill="none" stroke="#8797b2" points="62.12,-514 256.38,-514"/>
<text text-anchor="middle" x="88.88" y="-496.7" font-family="Times,serif" font-size="14.00" fill="#000000">Left</text>
<text text-anchor="middle" x="88.88" y="-480.2" font-family="Times,serif" font-size="14.00" fill="#000000">NONE</text>
<text text-anchor="middle" x="88.88" y="-463.7" font-family="Times,serif" font-size="14.00" fill="#000000">0x0</text>
<polyline fill="none" stroke="#8797b2" points="115.62,-456.5 115.62,-514"/>
<text text-anchor="middle" x="159.25" y="-496.7" font-family="Times,serif" font-size="14.00" fill="#000000">Parent</text>
<text text-anchor="middle" x="159.25" y="-480.2" font-family="Times,serif" font-size="14.00" fill="#000000">Nefor</text>
<text text-anchor="middle" x="159.25" y="-463.7" font-family="Times,serif" font-size="14.00" fill="#000000">0x107601cf0</text>
<polyline fill="none" stroke="#8797b2" points="202.88,-456.5 202.88,-514"/>
<text text-anchor="middle" x="229.62" y="-496.7" font-family="Times,serif" font-size="14.00" fill="#000000">Right</text>
<text text-anchor="middle" x="229.62" y="-480.2" font-family="Times,serif" font-size="14.00" fill="#000000">NONE</text>
<text text-anchor="middle" x="229.62" y="-463.7" font-family="Times,serif" font-size="14.00" fill="#000000">0x0</text>
</g>
<!-- node0x107601cf0&#45;&gt;node0x107601cc0 -->
<g id="edge4" class="edge">
<title>node0x107601cf0:left&#45;&gt;node0x107601cc0</title>
<path fill="none" stroke="#187ae8" stroke-width="2" d="M178.25,-608C178.25,-594.45 176.59,-580.04 174.24,-566.49"/>
<polygon fill="#187ae8" stroke="#187ae8" stroke-width="2" points="177.99,-567.48 172.7,-558.3 171.11,-568.78 177.99,-567.48"/>
<text text-anchor="middle" x="185.11" y="-576.7" font-family="Times,serif" font-size="14.00">Да</text>
</g>
<!-- node0x107601c90 -->
<g id="node9" class="node">
<title>node0x107601c90</title>
<path fill="#bdef9e" stroke="#99c2a2" d="M286.12,-456.5C286.12,-456.5 456.38,-456.5 456.38,-456.5 462.38,-456.5 468.38,-462.5 468.38,-468.5 468.38,-468.5 468.38,-543 468.38,-543 468.38,-549 462.38,-555 456.38,-555 456.38,-555 286.12,-555 286.12,-555 280.12,-555 274.12,-549 274.12,-543 274.12,-543 274.12,-468.5 274.12,-468.5 274.12,-462.5 280.12,-456.5 286.12,-456.5"/>
<text text-anchor="middle" x="371.25" y="-537.7" font-family="Times,serif" font-size="14.00" fill="#000000">Ovchos</text>
<text text-anchor="middle" x="371.25" y="-521.2" font-family="Times,serif" font-size="14.00" fill="#000000">0x107601c90</text>
<polyline fill="none" stroke="#99c2a2" points="274.12,-514 468.38,-514"/>
<text text-anchor="middle" x="300.88" y="-496.7" font-family="Times,serif" font-size="14.00" fill="#000000">Left</text>
<text text-anchor="middle" x="300.88" y="-480.2" font-family="Times,serif" font-size="14.00" fill="#000000">NONE</text>
<text text-anchor="middle" x="300.88" y="-463.7" font-family="Times,serif" font-size="14.00" fill="#000000">0x0</text>
<polyline fill="none" stroke="#99c2a2" points="327.62,-456.5 327.62,-514"/>
<text text-anchor="middle" x="371.25" y="-496.7" font-family="Times,serif" font-size="14.00" fill="#000000">Parent</text>
<text text-anchor="middle" x="371.25" y="-480.2" font-family="Times,serif" font-size="14.00" fill="#000000">Nefor</text>
<text text-anchor="middle" x="371.25" y="-463.7" font-family="Times,serif" font-size="14.00" fill="#000000">0x107601cf0</text>
<polyline fill="none" stroke="#99c2a2" points="414.88,-456.5 414.88,-514"/>
<text text-anchor="middle" x="441.62" y="-496.7" font-family="Times,serif" font-size="14.00" fill="#000000">Right</text>
<text text-anchor="middle" x="441.62" y="-480.2" font-family="Times,serif" font-size="14.00" fill="#000000">NONE</text>
<text text-anchor="middle" x="441.62" y="-463.7" font-family="Times,serif" font-size="14.00" fill="#000000">0x0</text>
</g>
<!-- node0x107601cf0&#45;&gt;node0x107601c90 -->
<g id="edge5" class="edge">
<title>node0x107601cf0:right&#45;&gt;node0x107601c90</title>
<path fill="none" stroke="#48e818" stroke-width="2" d="M371.88,-608C371.88,-594.61 371.82,-580.22 371.74,-566.62"/>
<polygon fill="#48e818" stroke="#48e818" stroke-width="2" points="375.25,-568.42 371.69,-558.44 368.25,-568.47 375.25,-568.42"/>
<text text-anchor="middle" x="382.72" y="-576.7" font-family="Times,serif" font-size="14.00">Нет</text>
</g>
<!-- node0x107601c60&#45;&gt;node0x107601c00 -->
<g id="edge12" class="edge">
<title>node0x107601c60:right&#45;&gt;node0x107601c00</title>
<path fill="none" stroke="#48e818" stroke-width="2" d="M784.25,-608C784.25,-593.47 788.44,-578.87 794.39,-565.45"/>
<polygon fill="#48e818" stroke="#48e818" stroke-width="2" points="796.71,-568.69 797.93,-558.17 790.41,-565.64 796.71,-568.69"/>
<text text-anchor="middle" x="801.32" y="-576.7" font-family="Times,serif" font-size="14.00">Нет</text>
</g>
<!-- node0x107601c30 -->
<g id="node11" class="node">
<title>node0x107601c30</title>
<path fill="#d5cfe1" stroke="#8797b2" d="M498.38,-456.5C498.38,-456.5 682.12,-456.5 682.12,-456.5 688.12,-456.5 694.12,-462.5 694.12,-468.5 694.12,-468.5 694.12,-543 694.12,-543 694.12,-549 688.12,-555 682.12,-555 682.12,-555 498.38,-555 498.38,-555 492.38,-555 486.38,-549 486.38,-543 486.38,-543 486.38,-468.5 486.38,-468.5 486.38,-462.5 492.38,-456.5 498.38,-456.5"/>
<text text-anchor="middle" x="590.25" y="-537.7" font-family="Times,serif" font-size="14.00" fill="#000000">Chubarik</text>
<text text-anchor="middle" x="590.25" y="-521.2" font-family="Times,serif" font-size="14.00" fill="#000000">0x107601c30</text>
<polyline fill="none" stroke="#8797b2" points="486.38,-514 694.12,-514"/>
<text text-anchor="middle" x="513.12" y="-496.7" font-family="Times,serif" font-size="14.00" fill="#000000">Left</text>
<text text-anchor="middle" x="513.12" y="-480.2" font-family="Times,serif" font-size="14.00" fill="#000000">NONE</text>
<text text-anchor="middle" x="513.12" y="-463.7" font-family="Times,serif" font-size="14.00" fill="#000000">0x0</text>
<polyline fill="none" stroke="#8797b2" points="539.88,-456.5 539.88,-514"/>
<text text-anchor="middle" x="590.25" y="-496.7" font-family="Times,serif" font-size="14.00" fill="#000000">Parent</text>
<text text-anchor="middle" x="590.25" y="-480.2" font-family="Times,serif" font-size="14.00" fill="#000000">Teaches angem</text>
<text text-anchor="middle" x="590.25" y="-463.7" font-family="Times,serif" font-size="14.00" fill="#000000">0x107601c60</text>
<polyline fill="none" stroke="#8797b2" points="640.62,-456.5 640.62,-514"/>
<text text-anchor="middle" x="667.38" y="-496.7" font-family="Times,serif" font-size="14.00" fill="#000000">Right</text>
<text text-anchor="middle" x="667.38" y="-480.2" font-family="Times,serif" font-size="14.00" fill="#000000">NONE</text>
<text text-anchor="middle" x="667.38" y="-463.7" font-family="Times,serif" font-size="14.00" fill="#000000">0x0</text>
</g>
<!-- node0x107601c60&#45;&gt;node0x107601c30 -->
<g id="edge6" class="edge">
<title>node0x107601c60:left&#45;&gt;node0x107601c30</title>
<path fill="none" stroke="#187ae8" stroke-width="2" d="M590.25,-608C590.25,-594.61 590.25,-580.22 590.25,-566.62"/>
<polygon fill="#187ae8" stroke="#187ae8" stroke-width="2" points="593.75,-568.44 590.25,-558.44 586.75,-568.44 593.75,-568.44"/>
<text text-anchor="middle" x="598.12" y="-576.7" font-family="Times,serif" font-size="14.00">Да</text>
</g>
<!-- node0x107601ba0 -->
<g id="node13" class="node">
<title>node0x107601ba0</title>
<path fill="#d5cfe1" stroke="#8797b2" d="M552.62,-152.5C552.62,-152.5 725.88,-152.5 725.88,-152.5 731.88,-152.5 737.88,-158.5 737.88,-164.5 737.88,-164.5 737.88,-239 737.88,-239 737.88,-245 731.88,-251 725.88,-251 725.88,-251 552.62,-251 552.62,-251 546.62,-251 540.62,-245 540.62,-239 540.62,-239 540.62,-164.5 540.62,-164.5 540.62,-158.5 546.62,-152.5 552.62,-152.5"/>
<text text-anchor="middle" x="639.25" y="-233.7" font-family="Times,serif" font-size="14.00" fill="#000000">Valentin Guardiola</text>
<text text-anchor="middle" x="639.25" y="-217.2" font-family="Times,serif" font-size="14.00" fill="#000000">0x107601ba0</text>
<polyline fill="none" stroke="#8797b2" points="540.62,-210 737.88,-210"/>
<text text-anchor="middle" x="567.38" y="-192.7" font-family="Times,serif" font-size="14.00" fill="#000000">Left</text>
<text text-anchor="middle" x="567.38" y="-176.2" font-family="Times,serif" font-size="14.00" fill="#000000">NONE</text>
<text text-anchor="middle" x="567.38" y="-159.7" font-family="Times,serif" font-size="14.00" fill="#000000">0x0</text>
<polyline fill="none" stroke="#8797b2" points="594.12,-152.5 594.12,-210"/>
<text text-anchor="middle" x="639.25" y="-192.7" font-family="Times,serif" font-size="14.00" fill="#000000">Parent</text>
<text text-anchor="middle" x="639.25" y="-176.2" font-family="Times,serif" font-size="14.00" fill="#000000">Coach</text>
<text text-anchor="middle" x="639.25" y="-159.7" font-family="Times,serif" font-size="14.00" fill="#000000">0x107601bd0</text>
<polyline fill="none" stroke="#8797b2" points="684.38,-152.5 684.38,-210"/>
<text text-anchor="middle" x="711.12" y="-192.7" font-family="Times,serif" font-size="14.00" fill="#000000">Right</text>
<text text-anchor="middle" x="711.12" y="-176.2" font-family="Times,serif" font-size="14.00" fill="#000000">NONE</text>
<text text-anchor="middle" x="711.12" y="-159.7" font-family="Times,serif" font-size="14.00" fill="#000000">0x0</text>
</g>
<!-- node0x107601bd0&#45;&gt;node0x107601ba0 -->
<g id="edge8" class="edge">
<title>node0x107601bd0:left&#45;&gt;node0x107601ba0</title>
<path fill="none" stroke="#187ae8" stroke-width="2" d="M667.38,-304C667.38,-290.32 664.96,-275.96 661.55,-262.5"/>
<polygon fill="#187ae8" stroke="#187ae8" stroke-width="2" points="665.33,-263.06 659.29,-254.36 658.59,-264.93 665.33,-263.06"/>
<text text-anchor="middle" x="673.75" y="-272.7" font-family="Times,serif" font-size="14.00">Да</text>
</g>
<!-- node0x107601b40 -->
<g id="node14" class="node">
<title>node0x107601b40</title>
<path fill="#bdef9e" stroke="#99c2a2" d="M767.62,-152.5C767.62,-152.5 1012.88,-152.5 1012.88,-152.5 1018.88,-152.5 1024.88,-158.5 1024.88,-164.5 1024.88,-164.5 1024.88,-239 1024.88,-239 1024.88,-245 1018.88,-251 1012.88,-251 1012.88,-251 767.62,-251 767.62,-251 761.62,-251 755.62,-245 755.62,-239 755.62,-239 755.62,-164.5 755.62,-164.5 755.62,-158.5 761.62,-152.5 767.62,-152.5"/>
<text text-anchor="middle" x="890.25" y="-233.7" font-family="Times,serif" font-size="14.00" fill="#000000">IN KARTEL</text>
<text text-anchor="middle" x="890.25" y="-217.2" font-family="Times,serif" font-size="14.00" fill="#000000">0x107601b40</text>
<polyline fill="none" stroke="#99c2a2" points="755.62,-210 1024.88,-210"/>
<text text-anchor="middle" x="800.75" y="-192.7" font-family="Times,serif" font-size="14.00" fill="#000000">Left</text>
<text text-anchor="middle" x="800.75" y="-176.2" font-family="Times,serif" font-size="14.00" fill="#000000">LEGEND</text>
<text text-anchor="middle" x="800.75" y="-159.7" font-family="Times,serif" font-size="14.00" fill="#000000">0x107601b10</text>
<polyline fill="none" stroke="#99c2a2" points="845.88,-152.5 845.88,-210"/>
<text text-anchor="middle" x="891" y="-192.7" font-family="Times,serif" font-size="14.00" fill="#000000">Parent</text>
<text text-anchor="middle" x="891" y="-176.2" font-family="Times,serif" font-size="14.00" fill="#000000">Coach</text>
<text text-anchor="middle" x="891" y="-159.7" font-family="Times,serif" font-size="14.00" fill="#000000">0x107601bd0</text>
<polyline fill="none" stroke="#99c2a2" points="936.12,-152.5 936.12,-210"/>
<text text-anchor="middle" x="980.5" y="-192.7" font-family="Times,serif" font-size="14.00" fill="#000000">Right</text>
<text text-anchor="middle" x="980.5" y="-176.2" font-family="Times,serif" font-size="14.00" fill="#000000">LX</text>
<text text-anchor="middle" x="980.5" y="-159.7" font-family="Times,serif" font-size="14.00" fill="#000000">0x107601ae0</text>
</g>
<!-- node0x107601bd0&#45;&gt;node0x107601b40 -->
<g id="edge11" class="edge">
<title>node0x107601bd0:right&#45;&gt;node0x107601b40</title>
<path fill="none" stroke="#48e818" stroke-width="2" d="M861.38,-304C861.38,-290.29 863.85,-275.92 867.36,-262.46"/>
<polygon fill="#48e818" stroke="#48e818" stroke-width="2" points="870.31,-264.89 869.68,-254.31 863.57,-262.97 870.31,-264.89"/>
<text text-anchor="middle" x="876.44" y="-272.7" font-family="Times,serif" font-size="14.00">Нет</text>
</g>
<!-- node0x107601b10 -->
<g id="node15" class="node">
<title>node0x107601b10</title>
<path fill="#d5cfe1" stroke="#8797b2" d="M696.62,-0.5C696.62,-0.5 869.88,-0.5 869.88,-0.5 875.88,-0.5 881.88,-6.5 881.88,-12.5 881.88,-12.5 881.88,-87 881.88,-87 881.88,-93 875.88,-99 869.88,-99 869.88,-99 696.62,-99 696.62,-99 690.62,-99 684.62,-93 684.62,-87 684.62,-87 684.62,-12.5 684.62,-12.5 684.62,-6.5 690.62,-0.5 696.62,-0.5"/>
<text text-anchor="middle" x="783.25" y="-81.7" font-family="Times,serif" font-size="14.00" fill="#000000">LEGEND</text>
<text text-anchor="middle" x="783.25" y="-65.2" font-family="Times,serif" font-size="14.00" fill="#000000">0x107601b10</text>
<polyline fill="none" stroke="#8797b2" points="684.62,-58 881.88,-58"/>
<text text-anchor="middle" x="711.38" y="-40.7" font-family="Times,serif" font-size="14.00" fill="#000000">Left</text>
<text text-anchor="middle" x="711.38" y="-24.2" font-family="Times,serif" font-size="14.00" fill="#000000">NONE</text>
<text text-anchor="middle" x="711.38" y="-7.7" font-family="Times,serif" font-size="14.00" fill="#000000">0x0</text>
<polyline fill="none" stroke="#8797b2" points="738.12,-0.5 738.12,-58"/>
<text text-anchor="middle" x="783.25" y="-40.7" font-family="Times,serif" font-size="14.00" fill="#000000">Parent</text>
<text text-anchor="middle" x="783.25" y="-24.2" font-family="Times,serif" font-size="14.00" fill="#000000">IN KARTEL</text>
<text text-anchor="middle" x="783.25" y="-7.7" font-family="Times,serif" font-size="14.00" fill="#000000">0x107601b40</text>
<polyline fill="none" stroke="#8797b2" points="828.38,-0.5 828.38,-58"/>
<text text-anchor="middle" x="855.12" y="-40.7" font-family="Times,serif" font-size="14.00" fill="#000000">Right</text>
<text text-anchor="middle" x="855.12" y="-24.2" font-family="Times,serif" font-size="14.00" fill="#000000">NONE</text>
<text text-anchor="middle" x="855.12" y="-7.7" font-family="Times,serif" font-size="14.00" fill="#000000">0x0</text>
</g>
<!-- node0x107601b40&#45;&gt;node0x107601b10 -->
<g id="edge9" class="edge">
<title>node0x107601b40:left&#45;&gt;node0x107601b10</title>
<path fill="none" stroke="#187ae8" stroke-width="2" d="M800.75,-152C800.75,-138.48 799.22,-124.09 797.06,-110.54"/>
<polygon fill="#187ae8" stroke="#187ae8" stroke-width="2" points="800.8,-111.62 795.64,-102.36 793.9,-112.82 800.8,-111.62"/>
<text text-anchor="middle" x="807.69" y="-120.7" font-family="Times,serif" font-size="14.00">Да</text>
</g>
<!-- node0x107601ae0 -->
<g id="node16" class="node">
<title>node0x107601ae0</title>
<path fill="#bdef9e" stroke="#99c2a2" d="M911.62,-0.5C911.62,-0.5 1084.88,-0.5 1084.88,-0.5 1090.88,-0.5 1096.88,-6.5 1096.88,-12.5 1096.88,-12.5 1096.88,-87 1096.88,-87 1096.88,-93 1090.88,-99 1084.88,-99 1084.88,-99 911.62,-99 911.62,-99 905.62,-99 899.62,-93 899.62,-87 899.62,-87 899.62,-12.5 899.62,-12.5 899.62,-6.5 905.62,-0.5 911.62,-0.5"/>
<text text-anchor="middle" x="998.25" y="-81.7" font-family="Times,serif" font-size="14.00" fill="#000000">LX</text>
<text text-anchor="middle" x="998.25" y="-65.2" font-family="Times,serif" font-size="14.00" fill="#000000">0x107601ae0</text>
<polyline fill="none" stroke="#99c2a2" points="899.62,-58 1096.88,-58"/>
<text text-anchor="middle" x="926.38" y="-40.7" font-family="Times,serif" font-size="14.00" fill="#000000">Left</text>
<text text-anchor="middle" x="926.38" y="-24.2" font-family="Times,serif" font-size="14.00" fill="#000000">NONE</text>
<text text-anchor="middle" x="926.38" y="-7.7" font-family="Times,serif" font-size="14.00" fill="#000000">0x0</text>
<polyline fill="none" stroke="#99c2a2" points="953.12,-0.5 953.12,-58"/>
<text text-anchor="middle" x="998.25" y="-40.7" font-family="Times,serif" font-size="14.00" fill="#000000">Parent</text>
<text text-anchor="middle" x="998.25" y="-24.2" font-family="Times,serif" font-size="14.00" fill="#000000">IN KARTEL</text>
<text text-anchor="middle" x="998.25" y="-7.7" font-family="Times,serif" font-size="14.00" fill="#000000">0x107601b40</text>
<polyline fill="none" stroke="#99c2a2" points="1043.38,-0.5 1043.38,-58"/>
<text text-anchor="middle" x="1070.12" y="-40.7" font-family="Times,serif" font-size="14.00" fill="#000000">Right</text>
<text text-anchor="middle" x="1070.12" y="-24.2" font-family="Times,serif" font-size="14.00" fill="#000000">NONE</text>
<text text-anchor="middle" x="1070.12" y="-7.7" font-family="Times,serif" font-size="14.00" fill="#000000">0x0</text>
</g>
<!-- node0x107601b40&#45;&gt;node0x107601ae0 -->
<g id="edge10" class="edge">
<title>node0x107601b40:right&#45;&gt;node0x107601ae0</title>
<path fill="none" stroke="#48e818" stroke-width="2" d="M980.5,-152C980.5,-138.48 982.06,-124.09 984.25,-110.53"/>
<polygon fill="#48e818" stroke="#48e818" stroke-width="2" points="987.4,-112.81 985.69,-102.35 980.5,-111.59 987.4,-112.81"/>
<text text-anchor="middle" x="993.95" y="-120.7" font-family="Times,serif" font-size="14.00">Нет</text>
</g>
</g>
</svg>
