<?xml version="1.0" encoding="UTF-8" standalone="no"?>
<!DOCTYPE svg PUBLIC "-//W3C//DTD SVG 1.1//EN"
 "http://www.w3.org/Graphics/SVG/1.1/DTD/svg11.dtd">
<!-- Generated by graphviz version 12.2.0 (20241103.1931)
 -->
<!-- Pages: 1 -->
<svg width="967pt" height="868pt"
 viewBox="0.00 0.00 967.12 867.50" xmlns="http://www.w3.org/2000/svg" xmlns:xlink="http://www.w3.org/1999/xlink">
<g id="graph0" class="graph" transform="scale(1 1) rotate(0) translate(4 863.5)">
<polygon fill="#dcdcdc" stroke="none" points="-4,4 -4,-863.5 963.12,-863.5 963.12,4 -4,4"/>
<!-- node0x105301e40 -->
<g id="node1" class="node">
<title>node0x105301e40</title>
<path fill="#fbee21" stroke="#d3c70d" d="M118,-760.5C118,-760.5 344.5,-760.5 344.5,-760.5 350.5,-760.5 356.5,-766.5 356.5,-772.5 356.5,-772.5 356.5,-847 356.5,-847 356.5,-853 350.5,-859 344.5,-859 344.5,-859 118,-859 118,-859 112,-859 106,-853 106,-847 106,-847 106,-772.5 106,-772.5 106,-766.5 112,-760.5 118,-760.5"/>
<text text-anchor="middle" x="231.25" y="-841.7" font-family="Times,serif" font-size="14.00" fill="#000000">Animal</text>
<text text-anchor="middle" x="231.25" y="-825.2" font-family="Times,serif" font-size="14.00" fill="#000000">0x105301e40</text>
<polyline fill="none" stroke="#d3c70d" points="106,-818 356.5,-818"/>
<text text-anchor="middle" x="150.75" y="-800.7" font-family="Times,serif" font-size="14.00" fill="#000000">Left</text>
<text text-anchor="middle" x="150.75" y="-784.2" font-family="Times,serif" font-size="14.00" fill="#000000">Poltorashka</text>
<text text-anchor="middle" x="150.75" y="-767.7" font-family="Times,serif" font-size="14.00" fill="#000000">0x105301e10</text>
<polyline fill="none" stroke="#d3c70d" points="195.5,-760.5 195.5,-818"/>
<text text-anchor="middle" x="222.25" y="-800.7" font-family="Times,serif" font-size="14.00" fill="#000000">Parent</text>
<text text-anchor="middle" x="222.25" y="-784.2" font-family="Times,serif" font-size="14.00" fill="#000000">NONE</text>
<text text-anchor="middle" x="222.25" y="-767.7" font-family="Times,serif" font-size="14.00" fill="#000000">0x0</text>
<polyline fill="none" stroke="#d3c70d" points="249,-760.5 249,-818"/>
<text text-anchor="middle" x="302.75" y="-800.7" font-family="Times,serif" font-size="14.00" fill="#000000">Right</text>
<text text-anchor="middle" x="302.75" y="-784.2" font-family="Times,serif" font-size="14.00" fill="#000000">Teaches analisys</text>
<text text-anchor="middle" x="302.75" y="-767.7" font-family="Times,serif" font-size="14.00" fill="#000000">0x105301de0</text>
</g>
<!-- node0x105301e10 -->
<g id="node2" class="node">
<title>node0x105301e10</title>
<path fill="#d5cfe1" stroke="#8797b2" d="M12,-608.5C12,-608.5 184.5,-608.5 184.5,-608.5 190.5,-608.5 196.5,-614.5 196.5,-620.5 196.5,-620.5 196.5,-695 196.5,-695 196.5,-701 190.5,-707 184.5,-707 184.5,-707 12,-707 12,-707 6,-707 0,-701 0,-695 0,-695 0,-620.5 0,-620.5 0,-614.5 6,-608.5 12,-608.5"/>
<text text-anchor="middle" x="98.25" y="-689.7" font-family="Times,serif" font-size="14.00" fill="#000000">Poltorashka</text>
<text text-anchor="middle" x="98.25" y="-673.2" font-family="Times,serif" font-size="14.00" fill="#000000">0x105301e10</text>
<polyline fill="none" stroke="#8797b2" points="0,-666 196.5,-666"/>
<text text-anchor="middle" x="26.75" y="-648.7" font-family="Times,serif" font-size="14.00" fill="#000000">Left</text>
<text text-anchor="middle" x="26.75" y="-632.2" font-family="Times,serif" font-size="14.00" fill="#000000">NONE</text>
<text text-anchor="middle" x="26.75" y="-615.7" font-family="Times,serif" font-size="14.00" fill="#000000">0x0</text>
<polyline fill="none" stroke="#8797b2" points="53.5,-608.5 53.5,-666"/>
<text text-anchor="middle" x="98.25" y="-648.7" font-family="Times,serif" font-size="14.00" fill="#000000">Parent</text>
<text text-anchor="middle" x="98.25" y="-632.2" font-family="Times,serif" font-size="14.00" fill="#000000">Animal</text>
<text text-anchor="middle" x="98.25" y="-615.7" font-family="Times,serif" font-size="14.00" fill="#000000">0x105301e40</text>
<polyline fill="none" stroke="#8797b2" points="143,-608.5 143,-666"/>
<text text-anchor="middle" x="169.75" y="-648.7" font-family="Times,serif" font-size="14.00" fill="#000000">Right</text>
<text text-anchor="middle" x="169.75" y="-632.2" font-family="Times,serif" font-size="14.00" fill="#000000">NONE</text>
<text text-anchor="middle" x="169.75" y="-615.7" font-family="Times,serif" font-size="14.00" fill="#000000">0x0</text>
</g>
<!-- node0x105301e40&#45;&gt;node0x105301e10 -->
<g id="edge1" class="edge">
<title>node0x105301e40:left&#45;&gt;node0x105301e10</title>
<path fill="none" stroke="#187ae8" stroke-width="2" d="M105,-789.25C74.29,-789.25 74.17,-752.77 80.87,-718.38"/>
<polygon fill="#187ae8" stroke="#187ae8" stroke-width="2" points="83.93,-720.82 82.62,-710.3 77.09,-719.34 83.93,-720.82"/>
<text text-anchor="middle" x="87.09" y="-728.7" font-family="Times,serif" font-size="14.00">Да</text>
</g>
<!-- node0x105301de0 -->
<g id="node4" class="node">
<title>node0x105301de0</title>
<path fill="#bdef9e" stroke="#99c2a2" d="M226.12,-608.5C226.12,-608.5 486.38,-608.5 486.38,-608.5 492.38,-608.5 498.38,-614.5 498.38,-620.5 498.38,-620.5 498.38,-695 498.38,-695 498.38,-701 492.38,-707 486.38,-707 486.38,-707 226.12,-707 226.12,-707 220.12,-707 214.12,-701 214.12,-695 214.12,-695 214.12,-620.5 214.12,-620.5 214.12,-614.5 220.12,-608.5 226.12,-608.5"/>
<text text-anchor="middle" x="356.25" y="-689.7" font-family="Times,serif" font-size="14.00" fill="#000000">Teaches analisys</text>
<text text-anchor="middle" x="356.25" y="-673.2" font-family="Times,serif" font-size="14.00" fill="#000000">0x105301de0</text>
<polyline fill="none" stroke="#99c2a2" points="214.12,-666 498.38,-666"/>
<text text-anchor="middle" x="259.25" y="-648.7" font-family="Times,serif" font-size="14.00" fill="#000000">Left</text>
<text text-anchor="middle" x="259.25" y="-632.2" font-family="Times,serif" font-size="14.00" fill="#000000">Burtsev</text>
<text text-anchor="middle" x="259.25" y="-615.7" font-family="Times,serif" font-size="14.00" fill="#000000">0x105301d80</text>
<polyline fill="none" stroke="#99c2a2" points="304.38,-608.5 304.38,-666"/>
<text text-anchor="middle" x="349.12" y="-648.7" font-family="Times,serif" font-size="14.00" fill="#000000">Parent</text>
<text text-anchor="middle" x="349.12" y="-632.2" font-family="Times,serif" font-size="14.00" fill="#000000">Animal</text>
<text text-anchor="middle" x="349.12" y="-615.7" font-family="Times,serif" font-size="14.00" fill="#000000">0x105301e40</text>
<polyline fill="none" stroke="#99c2a2" points="393.88,-608.5 393.88,-666"/>
<text text-anchor="middle" x="446.12" y="-648.7" font-family="Times,serif" font-size="14.00" fill="#000000">Right</text>
<text text-anchor="middle" x="446.12" y="-632.2" font-family="Times,serif" font-size="14.00" fill="#000000">Teaches physics</text>
<text text-anchor="middle" x="446.12" y="-615.7" font-family="Times,serif" font-size="14.00" fill="#000000">0x105301d50</text>
</g>
<!-- node0x105301e40&#45;&gt;node0x105301de0 -->
<g id="edge11" class="edge">
<title>node0x105301e40:right&#45;&gt;node0x105301de0</title>
<path fill="none" stroke="#48e818" stroke-width="2" d="M302.75,-760C302.75,-745.35 307.19,-730.74 313.5,-717.36"/>
<polygon fill="#48e818" stroke="#48e818" stroke-width="2" points="315.78,-720.57 317.27,-710.08 309.56,-717.36 315.78,-720.57"/>
<text text-anchor="middle" x="320.25" y="-728.7" font-family="Times,serif" font-size="14.00">Нет</text>
</g>
<!-- node0x105301c00 -->
<g id="node3" class="node">
<title>node0x105301c00</title>
<path fill="#f18805" stroke="#af3800" d="M674,-0.5C674,-0.5 846.5,-0.5 846.5,-0.5 852.5,-0.5 858.5,-6.5 858.5,-12.5 858.5,-12.5 858.5,-87 858.5,-87 858.5,-93 852.5,-99 846.5,-99 846.5,-99 674,-99 674,-99 668,-99 662,-93 662,-87 662,-87 662,-12.5 662,-12.5 662,-6.5 668,-0.5 674,-0.5"/>
<text text-anchor="middle" x="760.25" y="-81.7" font-family="Times,serif" font-size="14.00" fill="#000000">Coach</text>
<text text-anchor="middle" x="760.25" y="-65.2" font-family="Times,serif" font-size="14.00" fill="#000000">0x105301c00</text>
<polyline fill="none" stroke="#af3800" points="662,-58 858.5,-58"/>
<text text-anchor="middle" x="688.75" y="-40.7" font-family="Times,serif" font-size="14.00" fill="#000000">Left</text>
<text text-anchor="middle" x="688.75" y="-24.2" font-family="Times,serif" font-size="14.00" fill="#000000">NONE</text>
<text text-anchor="middle" x="688.75" y="-7.7" font-family="Times,serif" font-size="14.00" fill="#000000">0x0</text>
<polyline fill="none" stroke="#af3800" points="715.5,-0.5 715.5,-58"/>
<text text-anchor="middle" x="760.25" y="-40.7" font-family="Times,serif" font-size="14.00" fill="#000000">Parent</text>
<text text-anchor="middle" x="760.25" y="-24.2" font-family="Times,serif" font-size="14.00" fill="#000000">Do sport</text>
<text text-anchor="middle" x="760.25" y="-7.7" font-family="Times,serif" font-size="14.00" fill="#000000">0x105301c30</text>
<polyline fill="none" stroke="#af3800" points="805,-0.5 805,-58"/>
<text text-anchor="middle" x="831.75" y="-40.7" font-family="Times,serif" font-size="14.00" fill="#000000">Right</text>
<text text-anchor="middle" x="831.75" y="-24.2" font-family="Times,serif" font-size="14.00" fill="#000000">NONE</text>
<text text-anchor="middle" x="831.75" y="-7.7" font-family="Times,serif" font-size="14.00" fill="#000000">0x0</text>
</g>
<!-- node0x105301d80 -->
<g id="node5" class="node">
<title>node0x105301d80</title>
<path fill="#d5cfe1" stroke="#8797b2" d="M142,-456.5C142,-456.5 332.5,-456.5 332.5,-456.5 338.5,-456.5 344.5,-462.5 344.5,-468.5 344.5,-468.5 344.5,-543 344.5,-543 344.5,-549 338.5,-555 332.5,-555 332.5,-555 142,-555 142,-555 136,-555 130,-549 130,-543 130,-543 130,-468.5 130,-468.5 130,-462.5 136,-456.5 142,-456.5"/>
<text text-anchor="middle" x="237.25" y="-537.7" font-family="Times,serif" font-size="14.00" fill="#000000">Burtsev</text>
<text text-anchor="middle" x="237.25" y="-521.2" font-family="Times,serif" font-size="14.00" fill="#000000">0x105301d80</text>
<polyline fill="none" stroke="#8797b2" points="130,-514 344.5,-514"/>
<text text-anchor="middle" x="156.75" y="-496.7" font-family="Times,serif" font-size="14.00" fill="#000000">Left</text>
<text text-anchor="middle" x="156.75" y="-480.2" font-family="Times,serif" font-size="14.00" fill="#000000">NONE</text>
<text text-anchor="middle" x="156.75" y="-463.7" font-family="Times,serif" font-size="14.00" fill="#000000">0x0</text>
<polyline fill="none" stroke="#8797b2" points="183.5,-456.5 183.5,-514"/>
<text text-anchor="middle" x="237.25" y="-496.7" font-family="Times,serif" font-size="14.00" fill="#000000">Parent</text>
<text text-anchor="middle" x="237.25" y="-480.2" font-family="Times,serif" font-size="14.00" fill="#000000">Teaches analisys</text>
<text text-anchor="middle" x="237.25" y="-463.7" font-family="Times,serif" font-size="14.00" fill="#000000">0x105301de0</text>
<polyline fill="none" stroke="#8797b2" points="291,-456.5 291,-514"/>
<text text-anchor="middle" x="317.75" y="-496.7" font-family="Times,serif" font-size="14.00" fill="#000000">Right</text>
<text text-anchor="middle" x="317.75" y="-480.2" font-family="Times,serif" font-size="14.00" fill="#000000">NONE</text>
<text text-anchor="middle" x="317.75" y="-463.7" font-family="Times,serif" font-size="14.00" fill="#000000">0x0</text>
</g>
<!-- node0x105301de0&#45;&gt;node0x105301d80 -->
<g id="edge2" class="edge">
<title>node0x105301de0:left&#45;&gt;node0x105301d80</title>
<path fill="none" stroke="#187ae8" stroke-width="2" d="M259.25,-608C259.25,-594.44 257.34,-580.08 254.65,-566.58"/>
<polygon fill="#187ae8" stroke="#187ae8" stroke-width="2" points="258.42,-567.45 252.87,-558.43 251.58,-568.94 258.42,-567.45"/>
<text text-anchor="middle" x="265.95" y="-576.7" font-family="Times,serif" font-size="14.00">Да</text>
</g>
<!-- node0x105301d50 -->
<g id="node6" class="node">
<title>node0x105301d50</title>
<path fill="#bdef9e" stroke="#99c2a2" d="M375,-456.5C375,-456.5 649.5,-456.5 649.5,-456.5 655.5,-456.5 661.5,-462.5 661.5,-468.5 661.5,-468.5 661.5,-543 661.5,-543 661.5,-549 655.5,-555 649.5,-555 649.5,-555 375,-555 375,-555 369,-555 363,-549 363,-543 363,-543 363,-468.5 363,-468.5 363,-462.5 369,-456.5 375,-456.5"/>
<text text-anchor="middle" x="512.25" y="-537.7" font-family="Times,serif" font-size="14.00" fill="#000000">Teaches physics</text>
<text text-anchor="middle" x="512.25" y="-521.2" font-family="Times,serif" font-size="14.00" fill="#000000">0x105301d50</text>
<polyline fill="none" stroke="#99c2a2" points="363,-514 661.5,-514"/>
<text text-anchor="middle" x="408.12" y="-496.7" font-family="Times,serif" font-size="14.00" fill="#000000">Left</text>
<text text-anchor="middle" x="408.12" y="-480.2" font-family="Times,serif" font-size="14.00" fill="#000000">Nefor</text>
<text text-anchor="middle" x="408.12" y="-463.7" font-family="Times,serif" font-size="14.00" fill="#000000">0x105301d20</text>
<polyline fill="none" stroke="#99c2a2" points="453.25,-456.5 453.25,-514"/>
<text text-anchor="middle" x="507" y="-496.7" font-family="Times,serif" font-size="14.00" fill="#000000">Parent</text>
<text text-anchor="middle" x="507" y="-480.2" font-family="Times,serif" font-size="14.00" fill="#000000">Teaches analisys</text>
<text text-anchor="middle" x="507" y="-463.7" font-family="Times,serif" font-size="14.00" fill="#000000">0x105301de0</text>
<polyline fill="none" stroke="#99c2a2" points="560.75,-456.5 560.75,-514"/>
<text text-anchor="middle" x="611.12" y="-496.7" font-family="Times,serif" font-size="14.00" fill="#000000">Right</text>
<text text-anchor="middle" x="611.12" y="-480.2" font-family="Times,serif" font-size="14.00" fill="#000000">Teaches angem</text>
<text text-anchor="middle" x="611.12" y="-463.7" font-family="Times,serif" font-size="14.00" fill="#000000">0x105301c90</text>
</g>
<!-- node0x105301de0&#45;&gt;node0x105301d50 -->
<g id="edge10" class="edge">
<title>node0x105301de0:right&#45;&gt;node0x105301d50</title>
<path fill="none" stroke="#48e818" stroke-width="2" d="M446.12,-608C446.12,-592.8 451.42,-578.09 459.01,-564.82"/>
<polygon fill="#48e818" stroke="#48e818" stroke-width="2" points="460.94,-568.32 463.29,-557.99 455.01,-564.6 460.94,-568.32"/>
<text text-anchor="middle" x="465.19" y="-576.7" font-family="Times,serif" font-size="14.00">Нет</text>
</g>
<!-- node0x105301d20 -->
<g id="node7" class="node">
<title>node0x105301d20</title>
<path fill="#d5cfe1" stroke="#8797b2" d="M149,-304.5C149,-304.5 405.5,-304.5 405.5,-304.5 411.5,-304.5 417.5,-310.5 417.5,-316.5 417.5,-316.5 417.5,-391 417.5,-391 417.5,-397 411.5,-403 405.5,-403 405.5,-403 149,-403 149,-403 143,-403 137,-397 137,-391 137,-391 137,-316.5 137,-316.5 137,-310.5 143,-304.5 149,-304.5"/>
<text text-anchor="middle" x="277.25" y="-385.7" font-family="Times,serif" font-size="14.00" fill="#000000">Nefor</text>
<text text-anchor="middle" x="277.25" y="-369.2" font-family="Times,serif" font-size="14.00" fill="#000000">0x105301d20</text>
<polyline fill="none" stroke="#8797b2" points="137,-362 417.5,-362"/>
<text text-anchor="middle" x="180.62" y="-344.7" font-family="Times,serif" font-size="14.00" fill="#000000">Left</text>
<text text-anchor="middle" x="180.62" y="-328.2" font-family="Times,serif" font-size="14.00" fill="#000000">Magic</text>
<text text-anchor="middle" x="180.62" y="-311.7" font-family="Times,serif" font-size="14.00" fill="#000000">0x105301cf0</text>
<polyline fill="none" stroke="#8797b2" points="224.25,-304.5 224.25,-362"/>
<text text-anchor="middle" x="276.5" y="-344.7" font-family="Times,serif" font-size="14.00" fill="#000000">Parent</text>
<text text-anchor="middle" x="276.5" y="-328.2" font-family="Times,serif" font-size="14.00" fill="#000000">Teaches physics</text>
<text text-anchor="middle" x="276.5" y="-311.7" font-family="Times,serif" font-size="14.00" fill="#000000">0x105301d50</text>
<polyline fill="none" stroke="#8797b2" points="328.75,-304.5 328.75,-362"/>
<text text-anchor="middle" x="373.12" y="-344.7" font-family="Times,serif" font-size="14.00" fill="#000000">Right</text>
<text text-anchor="middle" x="373.12" y="-328.2" font-family="Times,serif" font-size="14.00" fill="#000000">Ovchos</text>
<text text-anchor="middle" x="373.12" y="-311.7" font-family="Times,serif" font-size="14.00" fill="#000000">0x105301cc0</text>
</g>
<!-- node0x105301d50&#45;&gt;node0x105301d20 -->
<g id="edge3" class="edge">
<title>node0x105301d50:left&#45;&gt;node0x105301d20</title>
<path fill="none" stroke="#187ae8" stroke-width="2" d="M408.12,-456C408.12,-438.56 400.77,-423.7 389.54,-411.17"/>
<polygon fill="#187ae8" stroke="#187ae8" stroke-width="2" points="393.33,-410.01 383.78,-405.42 388.38,-414.96 393.33,-410.01"/>
<text text-anchor="middle" x="412.34" y="-424.7" font-family="Times,serif" font-size="14.00">Да</text>
</g>
<!-- node0x105301c90 -->
<g id="node10" class="node">
<title>node0x105301c90</title>
<path fill="#bdef9e" stroke="#99c2a2" d="M560.5,-304.5C560.5,-304.5 820,-304.5 820,-304.5 826,-304.5 832,-310.5 832,-316.5 832,-316.5 832,-391 832,-391 832,-397 826,-403 820,-403 820,-403 560.5,-403 560.5,-403 554.5,-403 548.5,-397 548.5,-391 548.5,-391 548.5,-316.5 548.5,-316.5 548.5,-310.5 554.5,-304.5 560.5,-304.5"/>
<text text-anchor="middle" x="690.25" y="-385.7" font-family="Times,serif" font-size="14.00" fill="#000000">Teaches angem</text>
<text text-anchor="middle" x="690.25" y="-369.2" font-family="Times,serif" font-size="14.00" fill="#000000">0x105301c90</text>
<polyline fill="none" stroke="#99c2a2" points="548.5,-362 832,-362"/>
<text text-anchor="middle" x="593.25" y="-344.7" font-family="Times,serif" font-size="14.00" fill="#000000">Left</text>
<text text-anchor="middle" x="593.25" y="-328.2" font-family="Times,serif" font-size="14.00" fill="#000000">Chubarik</text>
<text text-anchor="middle" x="593.25" y="-311.7" font-family="Times,serif" font-size="14.00" fill="#000000">0x105301c60</text>
<polyline fill="none" stroke="#99c2a2" points="638,-304.5 638,-362"/>
<text text-anchor="middle" x="690.25" y="-344.7" font-family="Times,serif" font-size="14.00" fill="#000000">Parent</text>
<text text-anchor="middle" x="690.25" y="-328.2" font-family="Times,serif" font-size="14.00" fill="#000000">Teaches physics</text>
<text text-anchor="middle" x="690.25" y="-311.7" font-family="Times,serif" font-size="14.00" fill="#000000">0x105301d50</text>
<polyline fill="none" stroke="#99c2a2" points="742.5,-304.5 742.5,-362"/>
<text text-anchor="middle" x="787.25" y="-344.7" font-family="Times,serif" font-size="14.00" fill="#000000">Right</text>
<text text-anchor="middle" x="787.25" y="-328.2" font-family="Times,serif" font-size="14.00" fill="#000000">Do sport</text>
<text text-anchor="middle" x="787.25" y="-311.7" font-family="Times,serif" font-size="14.00" fill="#000000">0x105301c30</text>
</g>
<!-- node0x105301d50&#45;&gt;node0x105301c90 -->
<g id="edge9" class="edge">
<title>node0x105301d50:right&#45;&gt;node0x105301c90</title>
<path fill="none" stroke="#48e818" stroke-width="2" d="M662.5,-485.25C693.72,-485.25 699.76,-449.08 698.48,-414.83"/>
<polygon fill="#48e818" stroke="#48e818" stroke-width="2" points="702.06,-416.14 697.97,-406.37 695.07,-416.56 702.06,-416.14"/>
<text text-anchor="middle" x="709.51" y="-424.7" font-family="Times,serif" font-size="14.00">Нет</text>
</g>
<!-- node0x105301cf0 -->
<g id="node8" class="node">
<title>node0x105301cf0</title>
<path fill="#d5cfe1" stroke="#8797b2" d="M70.62,-152.5C70.62,-152.5 243.88,-152.5 243.88,-152.5 249.88,-152.5 255.88,-158.5 255.88,-164.5 255.88,-164.5 255.88,-239 255.88,-239 255.88,-245 249.88,-251 243.88,-251 243.88,-251 70.62,-251 70.62,-251 64.63,-251 58.62,-245 58.62,-239 58.62,-239 58.62,-164.5 58.62,-164.5 58.62,-158.5 64.62,-152.5 70.62,-152.5"/>
<text text-anchor="middle" x="157.25" y="-233.7" font-family="Times,serif" font-size="14.00" fill="#000000">Magic</text>
<text text-anchor="middle" x="157.25" y="-217.2" font-family="Times,serif" font-size="14.00" fill="#000000">0x105301cf0</text>
<polyline fill="none" stroke="#8797b2" points="58.62,-210 255.88,-210"/>
<text text-anchor="middle" x="85.38" y="-192.7" font-family="Times,serif" font-size="14.00" fill="#000000">Left</text>
<text text-anchor="middle" x="85.38" y="-176.2" font-family="Times,serif" font-size="14.00" fill="#000000">NONE</text>
<text text-anchor="middle" x="85.38" y="-159.7" font-family="Times,serif" font-size="14.00" fill="#000000">0x0</text>
<polyline fill="none" stroke="#8797b2" points="112.12,-152.5 112.12,-210"/>
<text text-anchor="middle" x="157.25" y="-192.7" font-family="Times,serif" font-size="14.00" fill="#000000">Parent</text>
<text text-anchor="middle" x="157.25" y="-176.2" font-family="Times,serif" font-size="14.00" fill="#000000">Nefor</text>
<text text-anchor="middle" x="157.25" y="-159.7" font-family="Times,serif" font-size="14.00" fill="#000000">0x105301d20</text>
<polyline fill="none" stroke="#8797b2" points="202.38,-152.5 202.38,-210"/>
<text text-anchor="middle" x="229.12" y="-192.7" font-family="Times,serif" font-size="14.00" fill="#000000">Right</text>
<text text-anchor="middle" x="229.12" y="-176.2" font-family="Times,serif" font-size="14.00" fill="#000000">NONE</text>
<text text-anchor="middle" x="229.12" y="-159.7" font-family="Times,serif" font-size="14.00" fill="#000000">0x0</text>
</g>
<!-- node0x105301d20&#45;&gt;node0x105301cf0 -->
<g id="edge4" class="edge">
<title>node0x105301d20:left&#45;&gt;node0x105301cf0</title>
<path fill="none" stroke="#187ae8" stroke-width="2" d="M180.62,-304C180.62,-290.4 178.6,-276.03 175.74,-262.52"/>
<polygon fill="#187ae8" stroke="#187ae8" stroke-width="2" points="179.51,-263.31 173.85,-254.36 172.69,-264.89 179.51,-263.31"/>
<text text-anchor="middle" x="187.25" y="-272.7" font-family="Times,serif" font-size="14.00">Да</text>
</g>
<!-- node0x105301cc0 -->
<g id="node9" class="node">
<title>node0x105301cc0</title>
<path fill="#bdef9e" stroke="#99c2a2" d="M285.62,-152.5C285.62,-152.5 458.88,-152.5 458.88,-152.5 464.88,-152.5 470.88,-158.5 470.88,-164.5 470.88,-164.5 470.88,-239 470.88,-239 470.88,-245 464.88,-251 458.88,-251 458.88,-251 285.62,-251 285.62,-251 279.62,-251 273.62,-245 273.62,-239 273.62,-239 273.62,-164.5 273.62,-164.5 273.62,-158.5 279.62,-152.5 285.62,-152.5"/>
<text text-anchor="middle" x="372.25" y="-233.7" font-family="Times,serif" font-size="14.00" fill="#000000">Ovchos</text>
<text text-anchor="middle" x="372.25" y="-217.2" font-family="Times,serif" font-size="14.00" fill="#000000">0x105301cc0</text>
<polyline fill="none" stroke="#99c2a2" points="273.62,-210 470.88,-210"/>
<text text-anchor="middle" x="300.38" y="-192.7" font-family="Times,serif" font-size="14.00" fill="#000000">Left</text>
<text text-anchor="middle" x="300.38" y="-176.2" font-family="Times,serif" font-size="14.00" fill="#000000">NONE</text>
<text text-anchor="middle" x="300.38" y="-159.7" font-family="Times,serif" font-size="14.00" fill="#000000">0x0</text>
<polyline fill="none" stroke="#99c2a2" points="327.12,-152.5 327.12,-210"/>
<text text-anchor="middle" x="372.25" y="-192.7" font-family="Times,serif" font-size="14.00" fill="#000000">Parent</text>
<text text-anchor="middle" x="372.25" y="-176.2" font-family="Times,serif" font-size="14.00" fill="#000000">Nefor</text>
<text text-anchor="middle" x="372.25" y="-159.7" font-family="Times,serif" font-size="14.00" fill="#000000">0x105301d20</text>
<polyline fill="none" stroke="#99c2a2" points="417.38,-152.5 417.38,-210"/>
<text text-anchor="middle" x="444.12" y="-192.7" font-family="Times,serif" font-size="14.00" fill="#000000">Right</text>
<text text-anchor="middle" x="444.12" y="-176.2" font-family="Times,serif" font-size="14.00" fill="#000000">NONE</text>
<text text-anchor="middle" x="444.12" y="-159.7" font-family="Times,serif" font-size="14.00" fill="#000000">0x0</text>
</g>
<!-- node0x105301d20&#45;&gt;node0x105301cc0 -->
<g id="edge5" class="edge">
<title>node0x105301d20:right&#45;&gt;node0x105301cc0</title>
<path fill="none" stroke="#48e818" stroke-width="2" d="M373.12,-304C373.12,-290.61 373.05,-276.22 372.94,-262.62"/>
<polygon fill="#48e818" stroke="#48e818" stroke-width="2" points="376.45,-264.41 372.87,-254.44 369.45,-264.47 376.45,-264.41"/>
<text text-anchor="middle" x="383.95" y="-272.7" font-family="Times,serif" font-size="14.00">Нет</text>
</g>
<!-- node0x105301c60 -->
<g id="node11" class="node">
<title>node0x105301c60</title>
<path fill="#d5cfe1" stroke="#8797b2" d="M501.38,-152.5C501.38,-152.5 685.12,-152.5 685.12,-152.5 691.12,-152.5 697.12,-158.5 697.12,-164.5 697.12,-164.5 697.12,-239 697.12,-239 697.12,-245 691.12,-251 685.12,-251 685.12,-251 501.38,-251 501.38,-251 495.38,-251 489.38,-245 489.38,-239 489.38,-239 489.38,-164.5 489.38,-164.5 489.38,-158.5 495.38,-152.5 501.38,-152.5"/>
<text text-anchor="middle" x="593.25" y="-233.7" font-family="Times,serif" font-size="14.00" fill="#000000">Chubarik</text>
<text text-anchor="middle" x="593.25" y="-217.2" font-family="Times,serif" font-size="14.00" fill="#000000">0x105301c60</text>
<polyline fill="none" stroke="#8797b2" points="489.38,-210 697.12,-210"/>
<text text-anchor="middle" x="516.12" y="-192.7" font-family="Times,serif" font-size="14.00" fill="#000000">Left</text>
<text text-anchor="middle" x="516.12" y="-176.2" font-family="Times,serif" font-size="14.00" fill="#000000">NONE</text>
<text text-anchor="middle" x="516.12" y="-159.7" font-family="Times,serif" font-size="14.00" fill="#000000">0x0</text>
<polyline fill="none" stroke="#8797b2" points="542.88,-152.5 542.88,-210"/>
<text text-anchor="middle" x="593.25" y="-192.7" font-family="Times,serif" font-size="14.00" fill="#000000">Parent</text>
<text text-anchor="middle" x="593.25" y="-176.2" font-family="Times,serif" font-size="14.00" fill="#000000">Teaches angem</text>
<text text-anchor="middle" x="593.25" y="-159.7" font-family="Times,serif" font-size="14.00" fill="#000000">0x105301c90</text>
<polyline fill="none" stroke="#8797b2" points="643.62,-152.5 643.62,-210"/>
<text text-anchor="middle" x="670.38" y="-192.7" font-family="Times,serif" font-size="14.00" fill="#000000">Right</text>
<text text-anchor="middle" x="670.38" y="-176.2" font-family="Times,serif" font-size="14.00" fill="#000000">NONE</text>
<text text-anchor="middle" x="670.38" y="-159.7" font-family="Times,serif" font-size="14.00" fill="#000000">0x0</text>
</g>
<!-- node0x105301c90&#45;&gt;node0x105301c60 -->
<g id="edge6" class="edge">
<title>node0x105301c90:left&#45;&gt;node0x105301c60</title>
<path fill="none" stroke="#187ae8" stroke-width="2" d="M593.25,-304C593.25,-290.61 593.25,-276.22 593.25,-262.62"/>
<polygon fill="#187ae8" stroke="#187ae8" stroke-width="2" points="596.75,-264.44 593.25,-254.44 589.75,-264.44 596.75,-264.44"/>
<text text-anchor="middle" x="601.12" y="-272.7" font-family="Times,serif" font-size="14.00">Да</text>
</g>
<!-- node0x105301c30 -->
<g id="node12" class="node">
<title>node0x105301c30</title>
<path fill="#bdef9e" stroke="#99c2a2" d="M727.38,-152.5C727.38,-152.5 947.12,-152.5 947.12,-152.5 953.12,-152.5 959.12,-158.5 959.12,-164.5 959.12,-164.5 959.12,-239 959.12,-239 959.12,-245 953.12,-251 947.12,-251 947.12,-251 727.38,-251 727.38,-251 721.38,-251 715.38,-245 715.38,-239 715.38,-239 715.38,-164.5 715.38,-164.5 715.38,-158.5 721.38,-152.5 727.38,-152.5"/>
<text text-anchor="middle" x="837.25" y="-233.7" font-family="Times,serif" font-size="14.00" fill="#000000">Do sport</text>
<text text-anchor="middle" x="837.25" y="-217.2" font-family="Times,serif" font-size="14.00" fill="#000000">0x105301c30</text>
<polyline fill="none" stroke="#99c2a2" points="715.38,-210 959.12,-210"/>
<text text-anchor="middle" x="760.12" y="-192.7" font-family="Times,serif" font-size="14.00" fill="#000000">Left</text>
<text text-anchor="middle" x="760.12" y="-176.2" font-family="Times,serif" font-size="14.00" fill="#000000">Coach</text>
<text text-anchor="middle" x="760.12" y="-159.7" font-family="Times,serif" font-size="14.00" fill="#000000">0x105301c00</text>
<polyline fill="none" stroke="#99c2a2" points="804.88,-152.5 804.88,-210"/>
<text text-anchor="middle" x="855.25" y="-192.7" font-family="Times,serif" font-size="14.00" fill="#000000">Parent</text>
<text text-anchor="middle" x="855.25" y="-176.2" font-family="Times,serif" font-size="14.00" fill="#000000">Teaches angem</text>
<text text-anchor="middle" x="855.25" y="-159.7" font-family="Times,serif" font-size="14.00" fill="#000000">0x105301c90</text>
<polyline fill="none" stroke="#99c2a2" points="905.62,-152.5 905.62,-210"/>
<text text-anchor="middle" x="932.38" y="-192.7" font-family="Times,serif" font-size="14.00" fill="#000000">Right</text>
<text text-anchor="middle" x="932.38" y="-176.2" font-family="Times,serif" font-size="14.00" fill="#000000">NONE</text>
<text text-anchor="middle" x="932.38" y="-159.7" font-family="Times,serif" font-size="14.00" fill="#000000">0x0</text>
</g>
<!-- node0x105301c90&#45;&gt;node0x105301c30 -->
<g id="edge8" class="edge">
<title>node0x105301c90:right&#45;&gt;node0x105301c30</title>
<path fill="none" stroke="#48e818" stroke-width="2" d="M787.25,-304C787.25,-289.47 791.44,-274.87 797.39,-261.45"/>
<polygon fill="#48e818" stroke="#48e818" stroke-width="2" points="799.71,-264.69 800.93,-254.17 793.41,-261.64 799.71,-264.69"/>
<text text-anchor="middle" x="804.32" y="-272.7" font-family="Times,serif" font-size="14.00">Нет</text>
</g>
<!-- node0x105301c30&#45;&gt;node0x105301c00 -->
<g id="edge7" class="edge">
<title>node0x105301c30:left&#45;&gt;node0x105301c00</title>
<path fill="none" stroke="#187ae8" stroke-width="2" d="M760.12,-152C760.12,-138.61 760.14,-124.22 760.15,-110.62"/>
<polygon fill="#187ae8" stroke="#187ae8" stroke-width="2" points="763.65,-112.45 760.16,-102.44 756.65,-112.44 763.65,-112.45"/>
<text text-anchor="middle" x="768.02" y="-120.7" font-family="Times,serif" font-size="14.00">Да</text>
</g>
</g>
</svg>
