<?xml version="1.0" encoding="UTF-8" standalone="no"?>
<!DOCTYPE svg PUBLIC "-//W3C//DTD SVG 1.1//EN"
 "http://www.w3.org/Graphics/SVG/1.1/DTD/svg11.dtd">
<!-- Generated by graphviz version 12.2.0 (20241103.1931)
 -->
<!-- Pages: 1 -->
<svg width="753pt" height="716pt"
 viewBox="0.00 0.00 753.00 715.50" xmlns="http://www.w3.org/2000/svg" xmlns:xlink="http://www.w3.org/1999/xlink">
<g id="graph0" class="graph" transform="scale(1 1) rotate(0) translate(4 711.5)">
<polygon fill="#dcdcdc" stroke="none" points="-4,4 -4,-711.5 749,-711.5 749,4 -4,4"/>
<!-- node0x107601e10 -->
<g id="node1" class="node">
<title>node0x107601e10</title>
<path fill="#fbee21" stroke="#d3c70d" d="M118,-608.5C118,-608.5 344.5,-608.5 344.5,-608.5 350.5,-608.5 356.5,-614.5 356.5,-620.5 356.5,-620.5 356.5,-695 356.5,-695 356.5,-701 350.5,-707 344.5,-707 344.5,-707 118,-707 118,-707 112,-707 106,-701 106,-695 106,-695 106,-620.5 106,-620.5 106,-614.5 112,-608.5 118,-608.5"/>
<text text-anchor="middle" x="231.25" y="-689.7" font-family="Times,serif" font-size="14.00" fill="#000000">Animal</text>
<text text-anchor="middle" x="231.25" y="-673.2" font-family="Times,serif" font-size="14.00" fill="#000000">0x107601e10</text>
<polyline fill="none" stroke="#d3c70d" points="106,-666 356.5,-666"/>
<text text-anchor="middle" x="150.75" y="-648.7" font-family="Times,serif" font-size="14.00" fill="#000000">Left</text>
<text text-anchor="middle" x="150.75" y="-632.2" font-family="Times,serif" font-size="14.00" fill="#000000">Poltorashka</text>
<text text-anchor="middle" x="150.75" y="-615.7" font-family="Times,serif" font-size="14.00" fill="#000000">0x107601de0</text>
<polyline fill="none" stroke="#d3c70d" points="195.5,-608.5 195.5,-666"/>
<text text-anchor="middle" x="222.25" y="-648.7" font-family="Times,serif" font-size="14.00" fill="#000000">Parent</text>
<text text-anchor="middle" x="222.25" y="-632.2" font-family="Times,serif" font-size="14.00" fill="#000000">NONE</text>
<text text-anchor="middle" x="222.25" y="-615.7" font-family="Times,serif" font-size="14.00" fill="#000000">0x0</text>
<polyline fill="none" stroke="#d3c70d" points="249,-608.5 249,-666"/>
<text text-anchor="middle" x="302.75" y="-648.7" font-family="Times,serif" font-size="14.00" fill="#000000">Right</text>
<text text-anchor="middle" x="302.75" y="-632.2" font-family="Times,serif" font-size="14.00" fill="#000000">Teaches analisys</text>
<text text-anchor="middle" x="302.75" y="-615.7" font-family="Times,serif" font-size="14.00" fill="#000000">0x107601db0</text>
</g>
<!-- node0x107601de0 -->
<g id="node2" class="node">
<title>node0x107601de0</title>
<path fill="#d5cfe1" stroke="#8797b2" d="M12,-456.5C12,-456.5 184.5,-456.5 184.5,-456.5 190.5,-456.5 196.5,-462.5 196.5,-468.5 196.5,-468.5 196.5,-543 196.5,-543 196.5,-549 190.5,-555 184.5,-555 184.5,-555 12,-555 12,-555 6,-555 0,-549 0,-543 0,-543 0,-468.5 0,-468.5 0,-462.5 6,-456.5 12,-456.5"/>
<text text-anchor="middle" x="98.25" y="-537.7" font-family="Times,serif" font-size="14.00" fill="#000000">Poltorashka</text>
<text text-anchor="middle" x="98.25" y="-521.2" font-family="Times,serif" font-size="14.00" fill="#000000">0x107601de0</text>
<polyline fill="none" stroke="#8797b2" points="0,-514 196.5,-514"/>
<text text-anchor="middle" x="26.75" y="-496.7" font-family="Times,serif" font-size="14.00" fill="#000000">Left</text>
<text text-anchor="middle" x="26.75" y="-480.2" font-family="Times,serif" font-size="14.00" fill="#000000">NONE</text>
<text text-anchor="middle" x="26.75" y="-463.7" font-family="Times,serif" font-size="14.00" fill="#000000">0x0</text>
<polyline fill="none" stroke="#8797b2" points="53.5,-456.5 53.5,-514"/>
<text text-anchor="middle" x="98.25" y="-496.7" font-family="Times,serif" font-size="14.00" fill="#000000">Parent</text>
<text text-anchor="middle" x="98.25" y="-480.2" font-family="Times,serif" font-size="14.00" fill="#000000">Animal</text>
<text text-anchor="middle" x="98.25" y="-463.7" font-family="Times,serif" font-size="14.00" fill="#000000">0x107601e10</text>
<polyline fill="none" stroke="#8797b2" points="143,-456.5 143,-514"/>
<text text-anchor="middle" x="169.75" y="-496.7" font-family="Times,serif" font-size="14.00" fill="#000000">Right</text>
<text text-anchor="middle" x="169.75" y="-480.2" font-family="Times,serif" font-size="14.00" fill="#000000">NONE</text>
<text text-anchor="middle" x="169.75" y="-463.7" font-family="Times,serif" font-size="14.00" fill="#000000">0x0</text>
</g>
<!-- node0x107601e10&#45;&gt;node0x107601de0 -->
<g id="edge1" class="edge">
<title>node0x107601e10:left&#45;&gt;node0x107601de0</title>
<path fill="none" stroke="#187ae8" stroke-width="2" d="M105,-637.25C74.29,-637.25 74.17,-600.77 80.87,-566.38"/>
<polygon fill="#187ae8" stroke="#187ae8" stroke-width="2" points="83.93,-568.82 82.62,-558.3 77.09,-567.34 83.93,-568.82"/>
<text text-anchor="middle" x="87.09" y="-576.7" font-family="Times,serif" font-size="14.00">Да</text>
</g>
<!-- node0x107601db0 -->
<g id="node4" class="node">
<title>node0x107601db0</title>
<path fill="#bdef9e" stroke="#99c2a2" d="M226.12,-456.5C226.12,-456.5 486.38,-456.5 486.38,-456.5 492.38,-456.5 498.38,-462.5 498.38,-468.5 498.38,-468.5 498.38,-543 498.38,-543 498.38,-549 492.38,-555 486.38,-555 486.38,-555 226.12,-555 226.12,-555 220.12,-555 214.12,-549 214.12,-543 214.12,-543 214.12,-468.5 214.12,-468.5 214.12,-462.5 220.12,-456.5 226.12,-456.5"/>
<text text-anchor="middle" x="356.25" y="-537.7" font-family="Times,serif" font-size="14.00" fill="#000000">Teaches analisys</text>
<text text-anchor="middle" x="356.25" y="-521.2" font-family="Times,serif" font-size="14.00" fill="#000000">0x107601db0</text>
<polyline fill="none" stroke="#99c2a2" points="214.12,-514 498.38,-514"/>
<text text-anchor="middle" x="259.25" y="-496.7" font-family="Times,serif" font-size="14.00" fill="#000000">Left</text>
<text text-anchor="middle" x="259.25" y="-480.2" font-family="Times,serif" font-size="14.00" fill="#000000">Burtsev</text>
<text text-anchor="middle" x="259.25" y="-463.7" font-family="Times,serif" font-size="14.00" fill="#000000">0x107601d50</text>
<polyline fill="none" stroke="#99c2a2" points="304.38,-456.5 304.38,-514"/>
<text text-anchor="middle" x="349.12" y="-496.7" font-family="Times,serif" font-size="14.00" fill="#000000">Parent</text>
<text text-anchor="middle" x="349.12" y="-480.2" font-family="Times,serif" font-size="14.00" fill="#000000">Animal</text>
<text text-anchor="middle" x="349.12" y="-463.7" font-family="Times,serif" font-size="14.00" fill="#000000">0x107601e10</text>
<polyline fill="none" stroke="#99c2a2" points="393.88,-456.5 393.88,-514"/>
<text text-anchor="middle" x="446.12" y="-496.7" font-family="Times,serif" font-size="14.00" fill="#000000">Right</text>
<text text-anchor="middle" x="446.12" y="-480.2" font-family="Times,serif" font-size="14.00" fill="#000000">Teaches physics</text>
<text text-anchor="middle" x="446.12" y="-463.7" font-family="Times,serif" font-size="14.00" fill="#000000">0x107601d20</text>
</g>
<!-- node0x107601e10&#45;&gt;node0x107601db0 -->
<g id="edge8" class="edge">
<title>node0x107601e10:right&#45;&gt;node0x107601db0</title>
<path fill="none" stroke="#48e818" stroke-width="2" d="M302.75,-608C302.75,-593.35 307.19,-578.74 313.5,-565.36"/>
<polygon fill="#48e818" stroke="#48e818" stroke-width="2" points="315.78,-568.57 317.27,-558.08 309.56,-565.36 315.78,-568.57"/>
<text text-anchor="middle" x="320.25" y="-576.7" font-family="Times,serif" font-size="14.00">Нет</text>
</g>
<!-- node0x107601c60 -->
<g id="node3" class="node">
<title>node0x107601c60</title>
<path fill="#f18805" stroke="#af3800" d="M545.5,-152.5C545.5,-152.5 733,-152.5 733,-152.5 739,-152.5 745,-158.5 745,-164.5 745,-164.5 745,-239 745,-239 745,-245 739,-251 733,-251 733,-251 545.5,-251 545.5,-251 539.5,-251 533.5,-245 533.5,-239 533.5,-239 533.5,-164.5 533.5,-164.5 533.5,-158.5 539.5,-152.5 545.5,-152.5"/>
<text text-anchor="middle" x="639.25" y="-233.7" font-family="Times,serif" font-size="14.00" fill="#000000">Teaches angem</text>
<text text-anchor="middle" x="639.25" y="-217.2" font-family="Times,serif" font-size="14.00" fill="#000000">0x107601c60</text>
<polyline fill="none" stroke="#af3800" points="533.5,-210 745,-210"/>
<text text-anchor="middle" x="560.25" y="-192.7" font-family="Times,serif" font-size="14.00" fill="#000000">Left</text>
<text text-anchor="middle" x="560.25" y="-176.2" font-family="Times,serif" font-size="14.00" fill="#000000">NONE</text>
<text text-anchor="middle" x="560.25" y="-159.7" font-family="Times,serif" font-size="14.00" fill="#000000">0x0</text>
<polyline fill="none" stroke="#af3800" points="587,-152.5 587,-210"/>
<text text-anchor="middle" x="639.25" y="-192.7" font-family="Times,serif" font-size="14.00" fill="#000000">Parent</text>
<text text-anchor="middle" x="639.25" y="-176.2" font-family="Times,serif" font-size="14.00" fill="#000000">Teaches physics</text>
<text text-anchor="middle" x="639.25" y="-159.7" font-family="Times,serif" font-size="14.00" fill="#000000">0x107601d20</text>
<polyline fill="none" stroke="#af3800" points="691.5,-152.5 691.5,-210"/>
<text text-anchor="middle" x="718.25" y="-192.7" font-family="Times,serif" font-size="14.00" fill="#000000">Right</text>
<text text-anchor="middle" x="718.25" y="-176.2" font-family="Times,serif" font-size="14.00" fill="#000000">NONE</text>
<text text-anchor="middle" x="718.25" y="-159.7" font-family="Times,serif" font-size="14.00" fill="#000000">0x0</text>
</g>
<!-- node0x107601d50 -->
<g id="node5" class="node">
<title>node0x107601d50</title>
<path fill="#d5cfe1" stroke="#8797b2" d="M142,-304.5C142,-304.5 332.5,-304.5 332.5,-304.5 338.5,-304.5 344.5,-310.5 344.5,-316.5 344.5,-316.5 344.5,-391 344.5,-391 344.5,-397 338.5,-403 332.5,-403 332.5,-403 142,-403 142,-403 136,-403 130,-397 130,-391 130,-391 130,-316.5 130,-316.5 130,-310.5 136,-304.5 142,-304.5"/>
<text text-anchor="middle" x="237.25" y="-385.7" font-family="Times,serif" font-size="14.00" fill="#000000">Burtsev</text>
<text text-anchor="middle" x="237.25" y="-369.2" font-family="Times,serif" font-size="14.00" fill="#000000">0x107601d50</text>
<polyline fill="none" stroke="#8797b2" points="130,-362 344.5,-362"/>
<text text-anchor="middle" x="156.75" y="-344.7" font-family="Times,serif" font-size="14.00" fill="#000000">Left</text>
<text text-anchor="middle" x="156.75" y="-328.2" font-family="Times,serif" font-size="14.00" fill="#000000">NONE</text>
<text text-anchor="middle" x="156.75" y="-311.7" font-family="Times,serif" font-size="14.00" fill="#000000">0x0</text>
<polyline fill="none" stroke="#8797b2" points="183.5,-304.5 183.5,-362"/>
<text text-anchor="middle" x="237.25" y="-344.7" font-family="Times,serif" font-size="14.00" fill="#000000">Parent</text>
<text text-anchor="middle" x="237.25" y="-328.2" font-family="Times,serif" font-size="14.00" fill="#000000">Teaches analisys</text>
<text text-anchor="middle" x="237.25" y="-311.7" font-family="Times,serif" font-size="14.00" fill="#000000">0x107601db0</text>
<polyline fill="none" stroke="#8797b2" points="291,-304.5 291,-362"/>
<text text-anchor="middle" x="317.75" y="-344.7" font-family="Times,serif" font-size="14.00" fill="#000000">Right</text>
<text text-anchor="middle" x="317.75" y="-328.2" font-family="Times,serif" font-size="14.00" fill="#000000">NONE</text>
<text text-anchor="middle" x="317.75" y="-311.7" font-family="Times,serif" font-size="14.00" fill="#000000">0x0</text>
</g>
<!-- node0x107601db0&#45;&gt;node0x107601d50 -->
<g id="edge2" class="edge">
<title>node0x107601db0:left&#45;&gt;node0x107601d50</title>
<path fill="none" stroke="#187ae8" stroke-width="2" d="M259.25,-456C259.25,-442.44 257.34,-428.08 254.65,-414.58"/>
<polygon fill="#187ae8" stroke="#187ae8" stroke-width="2" points="258.42,-415.45 252.87,-406.43 251.58,-416.94 258.42,-415.45"/>
<text text-anchor="middle" x="265.95" y="-424.7" font-family="Times,serif" font-size="14.00">Да</text>
</g>
<!-- node0x107601d20 -->
<g id="node6" class="node">
<title>node0x107601d20</title>
<path fill="#bdef9e" stroke="#99c2a2" d="M374.5,-304.5C374.5,-304.5 646,-304.5 646,-304.5 652,-304.5 658,-310.5 658,-316.5 658,-316.5 658,-391 658,-391 658,-397 652,-403 646,-403 646,-403 374.5,-403 374.5,-403 368.5,-403 362.5,-397 362.5,-391 362.5,-391 362.5,-316.5 362.5,-316.5 362.5,-310.5 368.5,-304.5 374.5,-304.5"/>
<text text-anchor="middle" x="510.25" y="-385.7" font-family="Times,serif" font-size="14.00" fill="#000000">Teaches physics</text>
<text text-anchor="middle" x="510.25" y="-369.2" font-family="Times,serif" font-size="14.00" fill="#000000">0x107601d20</text>
<polyline fill="none" stroke="#99c2a2" points="362.5,-362 658,-362"/>
<text text-anchor="middle" x="406.12" y="-344.7" font-family="Times,serif" font-size="14.00" fill="#000000">Left</text>
<text text-anchor="middle" x="406.12" y="-328.2" font-family="Times,serif" font-size="14.00" fill="#000000">Nefor</text>
<text text-anchor="middle" x="406.12" y="-311.7" font-family="Times,serif" font-size="14.00" fill="#000000">0x107601cf0</text>
<polyline fill="none" stroke="#99c2a2" points="449.75,-304.5 449.75,-362"/>
<text text-anchor="middle" x="503.5" y="-344.7" font-family="Times,serif" font-size="14.00" fill="#000000">Parent</text>
<text text-anchor="middle" x="503.5" y="-328.2" font-family="Times,serif" font-size="14.00" fill="#000000">Teaches analisys</text>
<text text-anchor="middle" x="503.5" y="-311.7" font-family="Times,serif" font-size="14.00" fill="#000000">0x107601db0</text>
<polyline fill="none" stroke="#99c2a2" points="557.25,-304.5 557.25,-362"/>
<text text-anchor="middle" x="607.62" y="-344.7" font-family="Times,serif" font-size="14.00" fill="#000000">Right</text>
<text text-anchor="middle" x="607.62" y="-328.2" font-family="Times,serif" font-size="14.00" fill="#000000">Teaches angem</text>
<text text-anchor="middle" x="607.62" y="-311.7" font-family="Times,serif" font-size="14.00" fill="#000000">0x107601c60</text>
</g>
<!-- node0x107601db0&#45;&gt;node0x107601d20 -->
<g id="edge7" class="edge">
<title>node0x107601db0:right&#45;&gt;node0x107601d20</title>
<path fill="none" stroke="#48e818" stroke-width="2" d="M446.12,-456C446.12,-440.99 451.21,-426.41 458.52,-413.2"/>
<polygon fill="#48e818" stroke="#48e818" stroke-width="2" points="460.72,-416.32 462.93,-405.96 454.74,-412.68 460.72,-416.32"/>
<text text-anchor="middle" x="464.95" y="-424.7" font-family="Times,serif" font-size="14.00">Нет</text>
</g>
<!-- node0x107601d20&#45;&gt;node0x107601c60 -->
<g id="edge6" class="edge">
<title>node0x107601d20:right&#45;&gt;node0x107601c60</title>
<path fill="none" stroke="#48e818" stroke-width="2" d="M607.62,-304C607.62,-290.05 610.39,-275.49 614.29,-261.9"/>
<polygon fill="#48e818" stroke="#48e818" stroke-width="2" points="617.08,-264.72 616.73,-254.13 610.4,-262.63 617.08,-264.72"/>
<text text-anchor="middle" x="623.09" y="-272.7" font-family="Times,serif" font-size="14.00">Нет</text>
</g>
<!-- node0x107601cf0 -->
<g id="node7" class="node">
<title>node0x107601cf0</title>
<path fill="#d5cfe1" stroke="#8797b2" d="M244.88,-152.5C244.88,-152.5 503.62,-152.5 503.62,-152.5 509.62,-152.5 515.62,-158.5 515.62,-164.5 515.62,-164.5 515.62,-239 515.62,-239 515.62,-245 509.62,-251 503.62,-251 503.62,-251 244.88,-251 244.88,-251 238.88,-251 232.88,-245 232.88,-239 232.88,-239 232.88,-164.5 232.88,-164.5 232.88,-158.5 238.88,-152.5 244.88,-152.5"/>
<text text-anchor="middle" x="374.25" y="-233.7" font-family="Times,serif" font-size="14.00" fill="#000000">Nefor</text>
<text text-anchor="middle" x="374.25" y="-217.2" font-family="Times,serif" font-size="14.00" fill="#000000">0x107601cf0</text>
<polyline fill="none" stroke="#8797b2" points="232.88,-210 515.62,-210"/>
<text text-anchor="middle" x="277.25" y="-192.7" font-family="Times,serif" font-size="14.00" fill="#000000">Left</text>
<text text-anchor="middle" x="277.25" y="-176.2" font-family="Times,serif" font-size="14.00" fill="#000000">Magic</text>
<text text-anchor="middle" x="277.25" y="-159.7" font-family="Times,serif" font-size="14.00" fill="#000000">0x107601cc0</text>
<polyline fill="none" stroke="#8797b2" points="321.62,-152.5 321.62,-210"/>
<text text-anchor="middle" x="373.88" y="-192.7" font-family="Times,serif" font-size="14.00" fill="#000000">Parent</text>
<text text-anchor="middle" x="373.88" y="-176.2" font-family="Times,serif" font-size="14.00" fill="#000000">Teaches physics</text>
<text text-anchor="middle" x="373.88" y="-159.7" font-family="Times,serif" font-size="14.00" fill="#000000">0x107601d20</text>
<polyline fill="none" stroke="#8797b2" points="426.12,-152.5 426.12,-210"/>
<text text-anchor="middle" x="470.88" y="-192.7" font-family="Times,serif" font-size="14.00" fill="#000000">Right</text>
<text text-anchor="middle" x="470.88" y="-176.2" font-family="Times,serif" font-size="14.00" fill="#000000">Ovchos</text>
<text text-anchor="middle" x="470.88" y="-159.7" font-family="Times,serif" font-size="14.00" fill="#000000">0x107601c90</text>
</g>
<!-- node0x107601d20&#45;&gt;node0x107601cf0 -->
<g id="edge3" class="edge">
<title>node0x107601d20:left&#45;&gt;node0x107601cf0</title>
<path fill="none" stroke="#187ae8" stroke-width="2" d="M406.12,-304C406.12,-290.11 403.36,-275.63 399.47,-262.1"/>
<polygon fill="#187ae8" stroke="#187ae8" stroke-width="2" points="403.37,-262.86 397.04,-254.38 396.7,-264.97 403.37,-262.86"/>
<text text-anchor="middle" x="412.3" y="-272.7" font-family="Times,serif" font-size="14.00">Да</text>
</g>
<!-- node0x107601cc0 -->
<g id="node8" class="node">
<title>node0x107601cc0</title>
<path fill="#d5cfe1" stroke="#8797b2" d="M182.12,-0.5C182.12,-0.5 352.38,-0.5 352.38,-0.5 358.38,-0.5 364.38,-6.5 364.38,-12.5 364.38,-12.5 364.38,-87 364.38,-87 364.38,-93 358.38,-99 352.38,-99 352.38,-99 182.12,-99 182.12,-99 176.12,-99 170.12,-93 170.12,-87 170.12,-87 170.12,-12.5 170.12,-12.5 170.12,-6.5 176.12,-0.5 182.12,-0.5"/>
<text text-anchor="middle" x="267.25" y="-81.7" font-family="Times,serif" font-size="14.00" fill="#000000">Magic</text>
<text text-anchor="middle" x="267.25" y="-65.2" font-family="Times,serif" font-size="14.00" fill="#000000">0x107601cc0</text>
<polyline fill="none" stroke="#8797b2" points="170.12,-58 364.38,-58"/>
<text text-anchor="middle" x="196.88" y="-40.7" font-family="Times,serif" font-size="14.00" fill="#000000">Left</text>
<text text-anchor="middle" x="196.88" y="-24.2" font-family="Times,serif" font-size="14.00" fill="#000000">NONE</text>
<text text-anchor="middle" x="196.88" y="-7.7" font-family="Times,serif" font-size="14.00" fill="#000000">0x0</text>
<polyline fill="none" stroke="#8797b2" points="223.62,-0.5 223.62,-58"/>
<text text-anchor="middle" x="267.25" y="-40.7" font-family="Times,serif" font-size="14.00" fill="#000000">Parent</text>
<text text-anchor="middle" x="267.25" y="-24.2" font-family="Times,serif" font-size="14.00" fill="#000000">Nefor</text>
<text text-anchor="middle" x="267.25" y="-7.7" font-family="Times,serif" font-size="14.00" fill="#000000">0x107601cf0</text>
<polyline fill="none" stroke="#8797b2" points="310.88,-0.5 310.88,-58"/>
<text text-anchor="middle" x="337.62" y="-40.7" font-family="Times,serif" font-size="14.00" fill="#000000">Right</text>
<text text-anchor="middle" x="337.62" y="-24.2" font-family="Times,serif" font-size="14.00" fill="#000000">NONE</text>
<text text-anchor="middle" x="337.62" y="-7.7" font-family="Times,serif" font-size="14.00" fill="#000000">0x0</text>
</g>
<!-- node0x107601cf0&#45;&gt;node0x107601cc0 -->
<g id="edge4" class="edge">
<title>node0x107601cf0:left&#45;&gt;node0x107601cc0</title>
<path fill="none" stroke="#187ae8" stroke-width="2" d="M277.25,-152C277.25,-138.55 276.36,-124.13 275.12,-110.52"/>
<polygon fill="#187ae8" stroke="#187ae8" stroke-width="2" points="278.78,-111.94 274.3,-102.33 271.81,-112.63 278.78,-111.94"/>
<text text-anchor="middle" x="284.59" y="-120.7" font-family="Times,serif" font-size="14.00">Да</text>
</g>
<!-- node0x107601c90 -->
<g id="node9" class="node">
<title>node0x107601c90</title>
<path fill="#bdef9e" stroke="#99c2a2" d="M394.12,-0.5C394.12,-0.5 564.38,-0.5 564.38,-0.5 570.38,-0.5 576.38,-6.5 576.38,-12.5 576.38,-12.5 576.38,-87 576.38,-87 576.38,-93 570.38,-99 564.38,-99 564.38,-99 394.12,-99 394.12,-99 388.12,-99 382.12,-93 382.12,-87 382.12,-87 382.12,-12.5 382.12,-12.5 382.12,-6.5 388.12,-0.5 394.12,-0.5"/>
<text text-anchor="middle" x="479.25" y="-81.7" font-family="Times,serif" font-size="14.00" fill="#000000">Ovchos</text>
<text text-anchor="middle" x="479.25" y="-65.2" font-family="Times,serif" font-size="14.00" fill="#000000">0x107601c90</text>
<polyline fill="none" stroke="#99c2a2" points="382.12,-58 576.38,-58"/>
<text text-anchor="middle" x="408.88" y="-40.7" font-family="Times,serif" font-size="14.00" fill="#000000">Left</text>
<text text-anchor="middle" x="408.88" y="-24.2" font-family="Times,serif" font-size="14.00" fill="#000000">NONE</text>
<text text-anchor="middle" x="408.88" y="-7.7" font-family="Times,serif" font-size="14.00" fill="#000000">0x0</text>
<polyline fill="none" stroke="#99c2a2" points="435.62,-0.5 435.62,-58"/>
<text text-anchor="middle" x="479.25" y="-40.7" font-family="Times,serif" font-size="14.00" fill="#000000">Parent</text>
<text text-anchor="middle" x="479.25" y="-24.2" font-family="Times,serif" font-size="14.00" fill="#000000">Nefor</text>
<text text-anchor="middle" x="479.25" y="-7.7" font-family="Times,serif" font-size="14.00" fill="#000000">0x107601cf0</text>
<polyline fill="none" stroke="#99c2a2" points="522.88,-0.5 522.88,-58"/>
<text text-anchor="middle" x="549.62" y="-40.7" font-family="Times,serif" font-size="14.00" fill="#000000">Right</text>
<text text-anchor="middle" x="549.62" y="-24.2" font-family="Times,serif" font-size="14.00" fill="#000000">NONE</text>
<text text-anchor="middle" x="549.62" y="-7.7" font-family="Times,serif" font-size="14.00" fill="#000000">0x0</text>
</g>
<!-- node0x107601cf0&#45;&gt;node0x107601c90 -->
<g id="edge5" class="edge">
<title>node0x107601cf0:right&#45;&gt;node0x107601c90</title>
<path fill="none" stroke="#48e818" stroke-width="2" d="M470.88,-152C470.88,-138.56 471.62,-124.16 472.66,-110.55"/>
<polygon fill="#48e818" stroke="#48e818" stroke-width="2" points="476,-112.62 473.34,-102.37 469.02,-112.04 476,-112.62"/>
<text text-anchor="middle" x="482.97" y="-120.7" font-family="Times,serif" font-size="14.00">Нет</text>
</g>
</g>
</svg>
