<?xml version="1.0" encoding="UTF-8" standalone="no"?>
<!DOCTYPE svg PUBLIC "-//W3C//DTD SVG 1.1//EN"
 "http://www.w3.org/Graphics/SVG/1.1/DTD/svg11.dtd">
<!-- Generated by graphviz version 12.2.0 (20241103.1931)
 -->
<!-- Pages: 1 -->
<svg width="418pt" height="260pt"
 viewBox="0.00 0.00 417.75 259.50" xmlns="http://www.w3.org/2000/svg" xmlns:xlink="http://www.w3.org/1999/xlink">
<g id="graph0" class="graph" transform="scale(1 1) rotate(0) translate(4 255.5)">
<polygon fill="#dcdcdc" stroke="none" points="-4,4 -4,-255.5 413.75,-255.5 413.75,4 -4,4"/>
<!-- node0x105a01e40 -->
<g id="node1" class="node">
<title>node0x105a01e40</title>
<path fill="#fbee21" stroke="#d3c70d" d="M97,-152.5C97,-152.5 322.75,-152.5 322.75,-152.5 328.75,-152.5 334.75,-158.5 334.75,-164.5 334.75,-164.5 334.75,-239 334.75,-239 334.75,-245 328.75,-251 322.75,-251 322.75,-251 97,-251 97,-251 91,-251 85,-245 85,-239 85,-239 85,-164.5 85,-164.5 85,-158.5 91,-152.5 97,-152.5"/>
<text text-anchor="middle" x="209.88" y="-233.7" font-family="Times,serif" font-size="14.00" fill="#000000">Animal</text>
<text text-anchor="middle" x="209.88" y="-217.2" font-family="Times,serif" font-size="14.00" fill="#000000">0x105a01e40</text>
<polyline fill="none" stroke="#d3c70d" points="85,-210 334.75,-210"/>
<text text-anchor="middle" x="129.38" y="-192.7" font-family="Times,serif" font-size="14.00" fill="#000000">Left</text>
<text text-anchor="middle" x="129.38" y="-176.2" font-family="Times,serif" font-size="14.00" fill="#000000">Poltorashka</text>
<text text-anchor="middle" x="129.38" y="-159.7" font-family="Times,serif" font-size="14.00" fill="#000000">0x105a01e10</text>
<polyline fill="none" stroke="#d3c70d" points="173.75,-152.5 173.75,-210"/>
<text text-anchor="middle" x="200.5" y="-192.7" font-family="Times,serif" font-size="14.00" fill="#000000">Parent</text>
<text text-anchor="middle" x="200.5" y="-176.2" font-family="Times,serif" font-size="14.00" fill="#000000">NONE</text>
<text text-anchor="middle" x="200.5" y="-159.7" font-family="Times,serif" font-size="14.00" fill="#000000">0x0</text>
<polyline fill="none" stroke="#d3c70d" points="227.25,-152.5 227.25,-210"/>
<text text-anchor="middle" x="281" y="-192.7" font-family="Times,serif" font-size="14.00" fill="#000000">Right</text>
<text text-anchor="middle" x="281" y="-176.2" font-family="Times,serif" font-size="14.00" fill="#000000">Teaches analisys</text>
<text text-anchor="middle" x="281" y="-159.7" font-family="Times,serif" font-size="14.00" fill="#000000">0x105a01de0</text>
</g>
<!-- node0x105a01e10 -->
<g id="node2" class="node">
<title>node0x105a01e10</title>
<path fill="#d5cfe1" stroke="#8797b2" d="M12,-0.5C12,-0.5 183.75,-0.5 183.75,-0.5 189.75,-0.5 195.75,-6.5 195.75,-12.5 195.75,-12.5 195.75,-87 195.75,-87 195.75,-93 189.75,-99 183.75,-99 183.75,-99 12,-99 12,-99 6,-99 0,-93 0,-87 0,-87 0,-12.5 0,-12.5 0,-6.5 6,-0.5 12,-0.5"/>
<text text-anchor="middle" x="97.88" y="-81.7" font-family="Times,serif" font-size="14.00" fill="#000000">Poltorashka</text>
<text text-anchor="middle" x="97.88" y="-65.2" font-family="Times,serif" font-size="14.00" fill="#000000">0x105a01e10</text>
<polyline fill="none" stroke="#8797b2" points="0,-58 195.75,-58"/>
<text text-anchor="middle" x="26.75" y="-40.7" font-family="Times,serif" font-size="14.00" fill="#000000">Left</text>
<text text-anchor="middle" x="26.75" y="-24.2" font-family="Times,serif" font-size="14.00" fill="#000000">NONE</text>
<text text-anchor="middle" x="26.75" y="-7.7" font-family="Times,serif" font-size="14.00" fill="#000000">0x0</text>
<polyline fill="none" stroke="#8797b2" points="53.5,-0.5 53.5,-58"/>
<text text-anchor="middle" x="97.88" y="-40.7" font-family="Times,serif" font-size="14.00" fill="#000000">Parent</text>
<text text-anchor="middle" x="97.88" y="-24.2" font-family="Times,serif" font-size="14.00" fill="#000000">Animal</text>
<text text-anchor="middle" x="97.88" y="-7.7" font-family="Times,serif" font-size="14.00" fill="#000000">0x105a01e40</text>
<polyline fill="none" stroke="#8797b2" points="142.25,-0.5 142.25,-58"/>
<text text-anchor="middle" x="169" y="-40.7" font-family="Times,serif" font-size="14.00" fill="#000000">Right</text>
<text text-anchor="middle" x="169" y="-24.2" font-family="Times,serif" font-size="14.00" fill="#000000">NONE</text>
<text text-anchor="middle" x="169" y="-7.7" font-family="Times,serif" font-size="14.00" fill="#000000">0x0</text>
</g>
<!-- node0x105a01e40&#45;&gt;node0x105a01e10 -->
<g id="edge1" class="edge">
<title>node0x105a01e40:left&#45;&gt;node0x105a01e10</title>
<path fill="none" stroke="#187ae8" stroke-width="2" d="M129.38,-152C129.38,-138.06 126.62,-123.5 122.73,-109.91"/>
<polygon fill="#187ae8" stroke="#187ae8" stroke-width="2" points="126.63,-110.65 120.31,-102.14 119.95,-112.73 126.63,-110.65"/>
<text text-anchor="middle" x="135.57" y="-120.7" font-family="Times,serif" font-size="14.00">Да</text>
</g>
<!-- node0x105a01de0 -->
<g id="node3" class="node">
<title>node0x105a01de0</title>
<path fill="#f18805" stroke="#af3800" d="M226,-0.5C226,-0.5 397.75,-0.5 397.75,-0.5 403.75,-0.5 409.75,-6.5 409.75,-12.5 409.75,-12.5 409.75,-87 409.75,-87 409.75,-93 403.75,-99 397.75,-99 397.75,-99 226,-99 226,-99 220,-99 214,-93 214,-87 214,-87 214,-12.5 214,-12.5 214,-6.5 220,-0.5 226,-0.5"/>
<text text-anchor="middle" x="311.88" y="-81.7" font-family="Times,serif" font-size="14.00" fill="#000000">Teaches analisys</text>
<text text-anchor="middle" x="311.88" y="-65.2" font-family="Times,serif" font-size="14.00" fill="#000000">0x105a01de0</text>
<polyline fill="none" stroke="#af3800" points="214,-58 409.75,-58"/>
<text text-anchor="middle" x="240.75" y="-40.7" font-family="Times,serif" font-size="14.00" fill="#000000">Left</text>
<text text-anchor="middle" x="240.75" y="-24.2" font-family="Times,serif" font-size="14.00" fill="#000000">NONE</text>
<text text-anchor="middle" x="240.75" y="-7.7" font-family="Times,serif" font-size="14.00" fill="#000000">0x0</text>
<polyline fill="none" stroke="#af3800" points="267.5,-0.5 267.5,-58"/>
<text text-anchor="middle" x="311.88" y="-40.7" font-family="Times,serif" font-size="14.00" fill="#000000">Parent</text>
<text text-anchor="middle" x="311.88" y="-24.2" font-family="Times,serif" font-size="14.00" fill="#000000">Animal</text>
<text text-anchor="middle" x="311.88" y="-7.7" font-family="Times,serif" font-size="14.00" fill="#000000">0x105a01e40</text>
<polyline fill="none" stroke="#af3800" points="356.25,-0.5 356.25,-58"/>
<text text-anchor="middle" x="383" y="-40.7" font-family="Times,serif" font-size="14.00" fill="#000000">Right</text>
<text text-anchor="middle" x="383" y="-24.2" font-family="Times,serif" font-size="14.00" fill="#000000">NONE</text>
<text text-anchor="middle" x="383" y="-7.7" font-family="Times,serif" font-size="14.00" fill="#000000">0x0</text>
</g>
<!-- node0x105a01e40&#45;&gt;node0x105a01de0 -->
<g id="edge2" class="edge">
<title>node0x105a01e40:right&#45;&gt;node0x105a01de0</title>
<path fill="none" stroke="#48e818" stroke-width="2" d="M281,-152C281,-138.08 283.7,-123.53 287.51,-109.95"/>
<polygon fill="#48e818" stroke="#48e818" stroke-width="2" points="290.31,-112.77 289.88,-102.18 283.61,-110.72 290.31,-112.77"/>
<text text-anchor="middle" x="296.36" y="-120.7" font-family="Times,serif" font-size="14.00">Нет</text>
</g>
</g>
</svg>
