<?xml version="1.0" encoding="UTF-8" standalone="no"?>
<!DOCTYPE svg PUBLIC "-//W3C//DTD SVG 1.1//EN"
 "http://www.w3.org/Graphics/SVG/1.1/DTD/svg11.dtd">
<!-- Generated by graphviz version 12.2.0 (20241103.1931)
 -->
<!-- Pages: 1 -->
<svg width="978pt" height="1020pt"
 viewBox="0.00 0.00 977.75 1019.50" xmlns="http://www.w3.org/2000/svg" xmlns:xlink="http://www.w3.org/1999/xlink">
<g id="graph0" class="graph" transform="scale(1 1) rotate(0) translate(4 1015.5)">
<polygon fill="#dcdcdc" stroke="none" points="-4,4 -4,-1015.5 973.75,-1015.5 973.75,4 -4,4"/>
<!-- node0x106e01e40 -->
<g id="node1" class="node">
<title>node0x106e01e40</title>
<path fill="#fbee21" stroke="#d3c70d" d="M118,-912.5C118,-912.5 343.75,-912.5 343.75,-912.5 349.75,-912.5 355.75,-918.5 355.75,-924.5 355.75,-924.5 355.75,-999 355.75,-999 355.75,-1005 349.75,-1011 343.75,-1011 343.75,-1011 118,-1011 118,-1011 112,-1011 106,-1005 106,-999 106,-999 106,-924.5 106,-924.5 106,-918.5 112,-912.5 118,-912.5"/>
<text text-anchor="middle" x="230.88" y="-993.7" font-family="Times,serif" font-size="14.00" fill="#000000">Animal</text>
<text text-anchor="middle" x="230.88" y="-977.2" font-family="Times,serif" font-size="14.00" fill="#000000">0x106e01e40</text>
<polyline fill="none" stroke="#d3c70d" points="106,-970 355.75,-970"/>
<text text-anchor="middle" x="150.38" y="-952.7" font-family="Times,serif" font-size="14.00" fill="#000000">Left</text>
<text text-anchor="middle" x="150.38" y="-936.2" font-family="Times,serif" font-size="14.00" fill="#000000">Poltorashka</text>
<text text-anchor="middle" x="150.38" y="-919.7" font-family="Times,serif" font-size="14.00" fill="#000000">0x106e01e10</text>
<polyline fill="none" stroke="#d3c70d" points="194.75,-912.5 194.75,-970"/>
<text text-anchor="middle" x="221.5" y="-952.7" font-family="Times,serif" font-size="14.00" fill="#000000">Parent</text>
<text text-anchor="middle" x="221.5" y="-936.2" font-family="Times,serif" font-size="14.00" fill="#000000">NONE</text>
<text text-anchor="middle" x="221.5" y="-919.7" font-family="Times,serif" font-size="14.00" fill="#000000">0x0</text>
<polyline fill="none" stroke="#d3c70d" points="248.25,-912.5 248.25,-970"/>
<text text-anchor="middle" x="302" y="-952.7" font-family="Times,serif" font-size="14.00" fill="#000000">Right</text>
<text text-anchor="middle" x="302" y="-936.2" font-family="Times,serif" font-size="14.00" fill="#000000">Teaches analisys</text>
<text text-anchor="middle" x="302" y="-919.7" font-family="Times,serif" font-size="14.00" fill="#000000">0x106e01de0</text>
</g>
<!-- node0x106e01e10 -->
<g id="node2" class="node">
<title>node0x106e01e10</title>
<path fill="#d5cfe1" stroke="#8797b2" d="M12,-760.5C12,-760.5 183.75,-760.5 183.75,-760.5 189.75,-760.5 195.75,-766.5 195.75,-772.5 195.75,-772.5 195.75,-847 195.75,-847 195.75,-853 189.75,-859 183.75,-859 183.75,-859 12,-859 12,-859 6,-859 0,-853 0,-847 0,-847 0,-772.5 0,-772.5 0,-766.5 6,-760.5 12,-760.5"/>
<text text-anchor="middle" x="97.88" y="-841.7" font-family="Times,serif" font-size="14.00" fill="#000000">Poltorashka</text>
<text text-anchor="middle" x="97.88" y="-825.2" font-family="Times,serif" font-size="14.00" fill="#000000">0x106e01e10</text>
<polyline fill="none" stroke="#8797b2" points="0,-818 195.75,-818"/>
<text text-anchor="middle" x="26.75" y="-800.7" font-family="Times,serif" font-size="14.00" fill="#000000">Left</text>
<text text-anchor="middle" x="26.75" y="-784.2" font-family="Times,serif" font-size="14.00" fill="#000000">NONE</text>
<text text-anchor="middle" x="26.75" y="-767.7" font-family="Times,serif" font-size="14.00" fill="#000000">0x0</text>
<polyline fill="none" stroke="#8797b2" points="53.5,-760.5 53.5,-818"/>
<text text-anchor="middle" x="97.88" y="-800.7" font-family="Times,serif" font-size="14.00" fill="#000000">Parent</text>
<text text-anchor="middle" x="97.88" y="-784.2" font-family="Times,serif" font-size="14.00" fill="#000000">Animal</text>
<text text-anchor="middle" x="97.88" y="-767.7" font-family="Times,serif" font-size="14.00" fill="#000000">0x106e01e40</text>
<polyline fill="none" stroke="#8797b2" points="142.25,-760.5 142.25,-818"/>
<text text-anchor="middle" x="169" y="-800.7" font-family="Times,serif" font-size="14.00" fill="#000000">Right</text>
<text text-anchor="middle" x="169" y="-784.2" font-family="Times,serif" font-size="14.00" fill="#000000">NONE</text>
<text text-anchor="middle" x="169" y="-767.7" font-family="Times,serif" font-size="14.00" fill="#000000">0x0</text>
</g>
<!-- node0x106e01e40&#45;&gt;node0x106e01e10 -->
<g id="edge1" class="edge">
<title>node0x106e01e40:left&#45;&gt;node0x106e01e10</title>
<path fill="none" stroke="#187ae8" stroke-width="2" d="M105,-941.25C74.29,-941.25 74.06,-904.77 80.67,-870.38"/>
<polygon fill="#187ae8" stroke="#187ae8" stroke-width="2" points="83.73,-872.81 82.39,-862.3 76.88,-871.35 83.73,-872.81"/>
<text text-anchor="middle" x="86.91" y="-880.7" font-family="Times,serif" font-size="14.00">Да</text>
</g>
<!-- node0x106e01de0 -->
<g id="node4" class="node">
<title>node0x106e01de0</title>
<path fill="#bdef9e" stroke="#99c2a2" d="M225.5,-760.5C225.5,-760.5 484.25,-760.5 484.25,-760.5 490.25,-760.5 496.25,-766.5 496.25,-772.5 496.25,-772.5 496.25,-847 496.25,-847 496.25,-853 490.25,-859 484.25,-859 484.25,-859 225.5,-859 225.5,-859 219.5,-859 213.5,-853 213.5,-847 213.5,-847 213.5,-772.5 213.5,-772.5 213.5,-766.5 219.5,-760.5 225.5,-760.5"/>
<text text-anchor="middle" x="354.88" y="-841.7" font-family="Times,serif" font-size="14.00" fill="#000000">Teaches analisys</text>
<text text-anchor="middle" x="354.88" y="-825.2" font-family="Times,serif" font-size="14.00" fill="#000000">0x106e01de0</text>
<polyline fill="none" stroke="#99c2a2" points="213.5,-818 496.25,-818"/>
<text text-anchor="middle" x="258.25" y="-800.7" font-family="Times,serif" font-size="14.00" fill="#000000">Left</text>
<text text-anchor="middle" x="258.25" y="-784.2" font-family="Times,serif" font-size="14.00" fill="#000000">Burtsev</text>
<text text-anchor="middle" x="258.25" y="-767.7" font-family="Times,serif" font-size="14.00" fill="#000000">0x106e01d80</text>
<polyline fill="none" stroke="#99c2a2" points="303,-760.5 303,-818"/>
<text text-anchor="middle" x="347.38" y="-800.7" font-family="Times,serif" font-size="14.00" fill="#000000">Parent</text>
<text text-anchor="middle" x="347.38" y="-784.2" font-family="Times,serif" font-size="14.00" fill="#000000">Animal</text>
<text text-anchor="middle" x="347.38" y="-767.7" font-family="Times,serif" font-size="14.00" fill="#000000">0x106e01e40</text>
<polyline fill="none" stroke="#99c2a2" points="391.75,-760.5 391.75,-818"/>
<text text-anchor="middle" x="444" y="-800.7" font-family="Times,serif" font-size="14.00" fill="#000000">Right</text>
<text text-anchor="middle" x="444" y="-784.2" font-family="Times,serif" font-size="14.00" fill="#000000">Teaches physics</text>
<text text-anchor="middle" x="444" y="-767.7" font-family="Times,serif" font-size="14.00" fill="#000000">0x106e01d50</text>
</g>
<!-- node0x106e01e40&#45;&gt;node0x106e01de0 -->
<g id="edge13" class="edge">
<title>node0x106e01e40:right&#45;&gt;node0x106e01de0</title>
<path fill="none" stroke="#48e818" stroke-width="2" d="M302,-912C302,-897.38 306.38,-882.79 312.63,-869.42"/>
<polygon fill="#48e818" stroke="#48e818" stroke-width="2" points="314.91,-872.64 316.34,-862.14 308.68,-869.46 314.91,-872.64"/>
<text text-anchor="middle" x="319.43" y="-880.7" font-family="Times,serif" font-size="14.00">Нет</text>
</g>
<!-- node0x106e01b70 -->
<g id="node3" class="node">
<title>node0x106e01b70</title>
<path fill="#f18805" stroke="#af3800" d="M786,-0.5C786,-0.5 957.75,-0.5 957.75,-0.5 963.75,-0.5 969.75,-6.5 969.75,-12.5 969.75,-12.5 969.75,-87 969.75,-87 969.75,-93 963.75,-99 957.75,-99 957.75,-99 786,-99 786,-99 780,-99 774,-93 774,-87 774,-87 774,-12.5 774,-12.5 774,-6.5 780,-0.5 786,-0.5"/>
<text text-anchor="middle" x="871.88" y="-81.7" font-family="Times,serif" font-size="14.00" fill="#000000">IN KARTEL</text>
<text text-anchor="middle" x="871.88" y="-65.2" font-family="Times,serif" font-size="14.00" fill="#000000">0x106e01b70</text>
<polyline fill="none" stroke="#af3800" points="774,-58 969.75,-58"/>
<text text-anchor="middle" x="800.75" y="-40.7" font-family="Times,serif" font-size="14.00" fill="#000000">Left</text>
<text text-anchor="middle" x="800.75" y="-24.2" font-family="Times,serif" font-size="14.00" fill="#000000">NONE</text>
<text text-anchor="middle" x="800.75" y="-7.7" font-family="Times,serif" font-size="14.00" fill="#000000">0x0</text>
<polyline fill="none" stroke="#af3800" points="827.5,-0.5 827.5,-58"/>
<text text-anchor="middle" x="871.88" y="-40.7" font-family="Times,serif" font-size="14.00" fill="#000000">Parent</text>
<text text-anchor="middle" x="871.88" y="-24.2" font-family="Times,serif" font-size="14.00" fill="#000000">Coach</text>
<text text-anchor="middle" x="871.88" y="-7.7" font-family="Times,serif" font-size="14.00" fill="#000000">0x106e01c00</text>
<polyline fill="none" stroke="#af3800" points="916.25,-0.5 916.25,-58"/>
<text text-anchor="middle" x="943" y="-40.7" font-family="Times,serif" font-size="14.00" fill="#000000">Right</text>
<text text-anchor="middle" x="943" y="-24.2" font-family="Times,serif" font-size="14.00" fill="#000000">NONE</text>
<text text-anchor="middle" x="943" y="-7.7" font-family="Times,serif" font-size="14.00" fill="#000000">0x0</text>
</g>
<!-- node0x106e01d80 -->
<g id="node5" class="node">
<title>node0x106e01d80</title>
<path fill="#d5cfe1" stroke="#8797b2" d="M141.62,-608.5C141.62,-608.5 332.12,-608.5 332.12,-608.5 338.12,-608.5 344.12,-614.5 344.12,-620.5 344.12,-620.5 344.12,-695 344.12,-695 344.12,-701 338.12,-707 332.12,-707 332.12,-707 141.62,-707 141.62,-707 135.62,-707 129.62,-701 129.62,-695 129.62,-695 129.62,-620.5 129.62,-620.5 129.62,-614.5 135.62,-608.5 141.62,-608.5"/>
<text text-anchor="middle" x="236.88" y="-689.7" font-family="Times,serif" font-size="14.00" fill="#000000">Burtsev</text>
<text text-anchor="middle" x="236.88" y="-673.2" font-family="Times,serif" font-size="14.00" fill="#000000">0x106e01d80</text>
<polyline fill="none" stroke="#8797b2" points="129.62,-666 344.12,-666"/>
<text text-anchor="middle" x="156.38" y="-648.7" font-family="Times,serif" font-size="14.00" fill="#000000">Left</text>
<text text-anchor="middle" x="156.38" y="-632.2" font-family="Times,serif" font-size="14.00" fill="#000000">NONE</text>
<text text-anchor="middle" x="156.38" y="-615.7" font-family="Times,serif" font-size="14.00" fill="#000000">0x0</text>
<polyline fill="none" stroke="#8797b2" points="183.12,-608.5 183.12,-666"/>
<text text-anchor="middle" x="236.88" y="-648.7" font-family="Times,serif" font-size="14.00" fill="#000000">Parent</text>
<text text-anchor="middle" x="236.88" y="-632.2" font-family="Times,serif" font-size="14.00" fill="#000000">Teaches analisys</text>
<text text-anchor="middle" x="236.88" y="-615.7" font-family="Times,serif" font-size="14.00" fill="#000000">0x106e01de0</text>
<polyline fill="none" stroke="#8797b2" points="290.62,-608.5 290.62,-666"/>
<text text-anchor="middle" x="317.38" y="-648.7" font-family="Times,serif" font-size="14.00" fill="#000000">Right</text>
<text text-anchor="middle" x="317.38" y="-632.2" font-family="Times,serif" font-size="14.00" fill="#000000">NONE</text>
<text text-anchor="middle" x="317.38" y="-615.7" font-family="Times,serif" font-size="14.00" fill="#000000">0x0</text>
</g>
<!-- node0x106e01de0&#45;&gt;node0x106e01d80 -->
<g id="edge2" class="edge">
<title>node0x106e01de0:left&#45;&gt;node0x106e01d80</title>
<path fill="none" stroke="#187ae8" stroke-width="2" d="M258.25,-760C258.25,-746.46 256.4,-732.11 253.78,-718.6"/>
<polygon fill="#187ae8" stroke="#187ae8" stroke-width="2" points="257.55,-719.52 252.06,-710.46 250.7,-720.97 257.55,-719.52"/>
<text text-anchor="middle" x="264.99" y="-728.7" font-family="Times,serif" font-size="14.00">Да</text>
</g>
<!-- node0x106e01d50 -->
<g id="node6" class="node">
<title>node0x106e01d50</title>
<path fill="#bdef9e" stroke="#99c2a2" d="M374,-608.5C374,-608.5 647.75,-608.5 647.75,-608.5 653.75,-608.5 659.75,-614.5 659.75,-620.5 659.75,-620.5 659.75,-695 659.75,-695 659.75,-701 653.75,-707 647.75,-707 647.75,-707 374,-707 374,-707 368,-707 362,-701 362,-695 362,-695 362,-620.5 362,-620.5 362,-614.5 368,-608.5 374,-608.5"/>
<text text-anchor="middle" x="510.88" y="-689.7" font-family="Times,serif" font-size="14.00" fill="#000000">Teaches physics</text>
<text text-anchor="middle" x="510.88" y="-673.2" font-family="Times,serif" font-size="14.00" fill="#000000">0x106e01d50</text>
<polyline fill="none" stroke="#99c2a2" points="362,-666 659.75,-666"/>
<text text-anchor="middle" x="406.75" y="-648.7" font-family="Times,serif" font-size="14.00" fill="#000000">Left</text>
<text text-anchor="middle" x="406.75" y="-632.2" font-family="Times,serif" font-size="14.00" fill="#000000">Nefor</text>
<text text-anchor="middle" x="406.75" y="-615.7" font-family="Times,serif" font-size="14.00" fill="#000000">0x106e01d20</text>
<polyline fill="none" stroke="#99c2a2" points="451.5,-608.5 451.5,-666"/>
<text text-anchor="middle" x="505.25" y="-648.7" font-family="Times,serif" font-size="14.00" fill="#000000">Parent</text>
<text text-anchor="middle" x="505.25" y="-632.2" font-family="Times,serif" font-size="14.00" fill="#000000">Teaches analisys</text>
<text text-anchor="middle" x="505.25" y="-615.7" font-family="Times,serif" font-size="14.00" fill="#000000">0x106e01de0</text>
<polyline fill="none" stroke="#99c2a2" points="559,-608.5 559,-666"/>
<text text-anchor="middle" x="609.38" y="-648.7" font-family="Times,serif" font-size="14.00" fill="#000000">Right</text>
<text text-anchor="middle" x="609.38" y="-632.2" font-family="Times,serif" font-size="14.00" fill="#000000">Teaches angem</text>
<text text-anchor="middle" x="609.38" y="-615.7" font-family="Times,serif" font-size="14.00" fill="#000000">0x106e01c90</text>
</g>
<!-- node0x106e01de0&#45;&gt;node0x106e01d50 -->
<g id="edge12" class="edge">
<title>node0x106e01de0:right&#45;&gt;node0x106e01d50</title>
<path fill="none" stroke="#48e818" stroke-width="2" d="M444,-760C444,-744.74 449.35,-730.02 457.03,-716.74"/>
<polygon fill="#48e818" stroke="#48e818" stroke-width="2" points="458.97,-720.22 461.36,-709.9 453.05,-716.47 458.97,-720.22"/>
<text text-anchor="middle" x="463.16" y="-728.7" font-family="Times,serif" font-size="14.00">Нет</text>
</g>
<!-- node0x106e01d20 -->
<g id="node7" class="node">
<title>node0x106e01d20</title>
<path fill="#d5cfe1" stroke="#8797b2" d="M149.38,-456.5C149.38,-456.5 404.38,-456.5 404.38,-456.5 410.38,-456.5 416.38,-462.5 416.38,-468.5 416.38,-468.5 416.38,-543 416.38,-543 416.38,-549 410.38,-555 404.38,-555 404.38,-555 149.38,-555 149.38,-555 143.38,-555 137.38,-549 137.38,-543 137.38,-543 137.38,-468.5 137.38,-468.5 137.38,-462.5 143.38,-456.5 149.38,-456.5"/>
<text text-anchor="middle" x="276.88" y="-537.7" font-family="Times,serif" font-size="14.00" fill="#000000">Nefor</text>
<text text-anchor="middle" x="276.88" y="-521.2" font-family="Times,serif" font-size="14.00" fill="#000000">0x106e01d20</text>
<polyline fill="none" stroke="#8797b2" points="137.38,-514 416.38,-514"/>
<text text-anchor="middle" x="180.62" y="-496.7" font-family="Times,serif" font-size="14.00" fill="#000000">Left</text>
<text text-anchor="middle" x="180.62" y="-480.2" font-family="Times,serif" font-size="14.00" fill="#000000">Magic</text>
<text text-anchor="middle" x="180.62" y="-463.7" font-family="Times,serif" font-size="14.00" fill="#000000">0x106e01cf0</text>
<polyline fill="none" stroke="#8797b2" points="223.88,-456.5 223.88,-514"/>
<text text-anchor="middle" x="276.12" y="-496.7" font-family="Times,serif" font-size="14.00" fill="#000000">Parent</text>
<text text-anchor="middle" x="276.12" y="-480.2" font-family="Times,serif" font-size="14.00" fill="#000000">Teaches physics</text>
<text text-anchor="middle" x="276.12" y="-463.7" font-family="Times,serif" font-size="14.00" fill="#000000">0x106e01d50</text>
<polyline fill="none" stroke="#8797b2" points="328.38,-456.5 328.38,-514"/>
<text text-anchor="middle" x="372.38" y="-496.7" font-family="Times,serif" font-size="14.00" fill="#000000">Right</text>
<text text-anchor="middle" x="372.38" y="-480.2" font-family="Times,serif" font-size="14.00" fill="#000000">Ovchos</text>
<text text-anchor="middle" x="372.38" y="-463.7" font-family="Times,serif" font-size="14.00" fill="#000000">0x106e01cc0</text>
</g>
<!-- node0x106e01d50&#45;&gt;node0x106e01d20 -->
<g id="edge3" class="edge">
<title>node0x106e01d50:left&#45;&gt;node0x106e01d20</title>
<path fill="none" stroke="#187ae8" stroke-width="2" d="M406.75,-608C406.75,-590.64 399.45,-575.83 388.31,-563.32"/>
<polygon fill="#187ae8" stroke="#187ae8" stroke-width="2" points="392.13,-562.21 382.6,-557.58 387.17,-567.14 392.13,-562.21"/>
<text text-anchor="middle" x="410.99" y="-576.7" font-family="Times,serif" font-size="14.00">Да</text>
</g>
<!-- node0x106e01c90 -->
<g id="node10" class="node">
<title>node0x106e01c90</title>
<path fill="#bdef9e" stroke="#99c2a2" d="M558.88,-456.5C558.88,-456.5 816.88,-456.5 816.88,-456.5 822.88,-456.5 828.88,-462.5 828.88,-468.5 828.88,-468.5 828.88,-543 828.88,-543 828.88,-549 822.88,-555 816.88,-555 816.88,-555 558.88,-555 558.88,-555 552.88,-555 546.88,-549 546.88,-543 546.88,-543 546.88,-468.5 546.88,-468.5 546.88,-462.5 552.88,-456.5 558.88,-456.5"/>
<text text-anchor="middle" x="687.88" y="-537.7" font-family="Times,serif" font-size="14.00" fill="#000000">Teaches angem</text>
<text text-anchor="middle" x="687.88" y="-521.2" font-family="Times,serif" font-size="14.00" fill="#000000">0x106e01c90</text>
<polyline fill="none" stroke="#99c2a2" points="546.88,-514 828.88,-514"/>
<text text-anchor="middle" x="591.25" y="-496.7" font-family="Times,serif" font-size="14.00" fill="#000000">Left</text>
<text text-anchor="middle" x="591.25" y="-480.2" font-family="Times,serif" font-size="14.00" fill="#000000">Chubarik</text>
<text text-anchor="middle" x="591.25" y="-463.7" font-family="Times,serif" font-size="14.00" fill="#000000">0x106e01c60</text>
<polyline fill="none" stroke="#99c2a2" points="635.62,-456.5 635.62,-514"/>
<text text-anchor="middle" x="687.88" y="-496.7" font-family="Times,serif" font-size="14.00" fill="#000000">Parent</text>
<text text-anchor="middle" x="687.88" y="-480.2" font-family="Times,serif" font-size="14.00" fill="#000000">Teaches physics</text>
<text text-anchor="middle" x="687.88" y="-463.7" font-family="Times,serif" font-size="14.00" fill="#000000">0x106e01d50</text>
<polyline fill="none" stroke="#99c2a2" points="740.12,-456.5 740.12,-514"/>
<text text-anchor="middle" x="784.5" y="-496.7" font-family="Times,serif" font-size="14.00" fill="#000000">Right</text>
<text text-anchor="middle" x="784.5" y="-480.2" font-family="Times,serif" font-size="14.00" fill="#000000">Do sport</text>
<text text-anchor="middle" x="784.5" y="-463.7" font-family="Times,serif" font-size="14.00" fill="#000000">0x106e01c30</text>
</g>
<!-- node0x106e01d50&#45;&gt;node0x106e01c90 -->
<g id="edge11" class="edge">
<title>node0x106e01d50:right&#45;&gt;node0x106e01c90</title>
<path fill="none" stroke="#48e818" stroke-width="2" d="M660.75,-637.25C691.94,-637.25 697.8,-601.08 696.37,-566.83"/>
<polygon fill="#48e818" stroke="#48e818" stroke-width="2" points="699.96,-568.12 695.82,-558.36 692.97,-568.57 699.96,-568.12"/>
<text text-anchor="middle" x="707.44" y="-576.7" font-family="Times,serif" font-size="14.00">Нет</text>
</g>
<!-- node0x106e01cf0 -->
<g id="node8" class="node">
<title>node0x106e01cf0</title>
<path fill="#d5cfe1" stroke="#8797b2" d="M70.62,-304.5C70.62,-304.5 243.12,-304.5 243.12,-304.5 249.12,-304.5 255.12,-310.5 255.12,-316.5 255.12,-316.5 255.12,-391 255.12,-391 255.12,-397 249.12,-403 243.12,-403 243.12,-403 70.62,-403 70.62,-403 64.63,-403 58.62,-397 58.62,-391 58.62,-391 58.62,-316.5 58.62,-316.5 58.62,-310.5 64.62,-304.5 70.62,-304.5"/>
<text text-anchor="middle" x="156.88" y="-385.7" font-family="Times,serif" font-size="14.00" fill="#000000">Magic</text>
<text text-anchor="middle" x="156.88" y="-369.2" font-family="Times,serif" font-size="14.00" fill="#000000">0x106e01cf0</text>
<polyline fill="none" stroke="#8797b2" points="58.62,-362 255.12,-362"/>
<text text-anchor="middle" x="85.38" y="-344.7" font-family="Times,serif" font-size="14.00" fill="#000000">Left</text>
<text text-anchor="middle" x="85.38" y="-328.2" font-family="Times,serif" font-size="14.00" fill="#000000">NONE</text>
<text text-anchor="middle" x="85.38" y="-311.7" font-family="Times,serif" font-size="14.00" fill="#000000">0x0</text>
<polyline fill="none" stroke="#8797b2" points="112.12,-304.5 112.12,-362"/>
<text text-anchor="middle" x="156.88" y="-344.7" font-family="Times,serif" font-size="14.00" fill="#000000">Parent</text>
<text text-anchor="middle" x="156.88" y="-328.2" font-family="Times,serif" font-size="14.00" fill="#000000">Nefor</text>
<text text-anchor="middle" x="156.88" y="-311.7" font-family="Times,serif" font-size="14.00" fill="#000000">0x106e01d20</text>
<polyline fill="none" stroke="#8797b2" points="201.62,-304.5 201.62,-362"/>
<text text-anchor="middle" x="228.38" y="-344.7" font-family="Times,serif" font-size="14.00" fill="#000000">Right</text>
<text text-anchor="middle" x="228.38" y="-328.2" font-family="Times,serif" font-size="14.00" fill="#000000">NONE</text>
<text text-anchor="middle" x="228.38" y="-311.7" font-family="Times,serif" font-size="14.00" fill="#000000">0x0</text>
</g>
<!-- node0x106e01d20&#45;&gt;node0x106e01cf0 -->
<g id="edge4" class="edge">
<title>node0x106e01d20:left&#45;&gt;node0x106e01cf0</title>
<path fill="none" stroke="#187ae8" stroke-width="2" d="M180.62,-456C180.62,-442.39 178.57,-428.01 175.66,-414.5"/>
<polygon fill="#187ae8" stroke="#187ae8" stroke-width="2" points="179.44,-415.27 173.74,-406.34 172.62,-416.88 179.44,-415.27"/>
<text text-anchor="middle" x="187.23" y="-424.7" font-family="Times,serif" font-size="14.00">Да</text>
</g>
<!-- node0x106e01cc0 -->
<g id="node9" class="node">
<title>node0x106e01cc0</title>
<path fill="#bdef9e" stroke="#99c2a2" d="M285.62,-304.5C285.62,-304.5 458.12,-304.5 458.12,-304.5 464.12,-304.5 470.12,-310.5 470.12,-316.5 470.12,-316.5 470.12,-391 470.12,-391 470.12,-397 464.12,-403 458.12,-403 458.12,-403 285.62,-403 285.62,-403 279.62,-403 273.62,-397 273.62,-391 273.62,-391 273.62,-316.5 273.62,-316.5 273.62,-310.5 279.62,-304.5 285.62,-304.5"/>
<text text-anchor="middle" x="371.88" y="-385.7" font-family="Times,serif" font-size="14.00" fill="#000000">Ovchos</text>
<text text-anchor="middle" x="371.88" y="-369.2" font-family="Times,serif" font-size="14.00" fill="#000000">0x106e01cc0</text>
<polyline fill="none" stroke="#99c2a2" points="273.62,-362 470.12,-362"/>
<text text-anchor="middle" x="300.38" y="-344.7" font-family="Times,serif" font-size="14.00" fill="#000000">Left</text>
<text text-anchor="middle" x="300.38" y="-328.2" font-family="Times,serif" font-size="14.00" fill="#000000">NONE</text>
<text text-anchor="middle" x="300.38" y="-311.7" font-family="Times,serif" font-size="14.00" fill="#000000">0x0</text>
<polyline fill="none" stroke="#99c2a2" points="327.12,-304.5 327.12,-362"/>
<text text-anchor="middle" x="371.88" y="-344.7" font-family="Times,serif" font-size="14.00" fill="#000000">Parent</text>
<text text-anchor="middle" x="371.88" y="-328.2" font-family="Times,serif" font-size="14.00" fill="#000000">Nefor</text>
<text text-anchor="middle" x="371.88" y="-311.7" font-family="Times,serif" font-size="14.00" fill="#000000">0x106e01d20</text>
<polyline fill="none" stroke="#99c2a2" points="416.62,-304.5 416.62,-362"/>
<text text-anchor="middle" x="443.38" y="-344.7" font-family="Times,serif" font-size="14.00" fill="#000000">Right</text>
<text text-anchor="middle" x="443.38" y="-328.2" font-family="Times,serif" font-size="14.00" fill="#000000">NONE</text>
<text text-anchor="middle" x="443.38" y="-311.7" font-family="Times,serif" font-size="14.00" fill="#000000">0x0</text>
</g>
<!-- node0x106e01d20&#45;&gt;node0x106e01cc0 -->
<g id="edge5" class="edge">
<title>node0x106e01d20:right&#45;&gt;node0x106e01cc0</title>
<path fill="none" stroke="#48e818" stroke-width="2" d="M372.38,-456C372.38,-442.61 372.33,-428.22 372.27,-414.62"/>
<polygon fill="#48e818" stroke="#48e818" stroke-width="2" points="375.78,-416.43 372.23,-406.44 368.78,-416.46 375.78,-416.43"/>
<text text-anchor="middle" x="383.22" y="-424.7" font-family="Times,serif" font-size="14.00">Нет</text>
</g>
<!-- node0x106e01c60 -->
<g id="node11" class="node">
<title>node0x106e01c60</title>
<path fill="#d5cfe1" stroke="#8797b2" d="M500,-304.5C500,-304.5 683.75,-304.5 683.75,-304.5 689.75,-304.5 695.75,-310.5 695.75,-316.5 695.75,-316.5 695.75,-391 695.75,-391 695.75,-397 689.75,-403 683.75,-403 683.75,-403 500,-403 500,-403 494,-403 488,-397 488,-391 488,-391 488,-316.5 488,-316.5 488,-310.5 494,-304.5 500,-304.5"/>
<text text-anchor="middle" x="591.88" y="-385.7" font-family="Times,serif" font-size="14.00" fill="#000000">Chubarik</text>
<text text-anchor="middle" x="591.88" y="-369.2" font-family="Times,serif" font-size="14.00" fill="#000000">0x106e01c60</text>
<polyline fill="none" stroke="#8797b2" points="488,-362 695.75,-362"/>
<text text-anchor="middle" x="514.75" y="-344.7" font-family="Times,serif" font-size="14.00" fill="#000000">Left</text>
<text text-anchor="middle" x="514.75" y="-328.2" font-family="Times,serif" font-size="14.00" fill="#000000">NONE</text>
<text text-anchor="middle" x="514.75" y="-311.7" font-family="Times,serif" font-size="14.00" fill="#000000">0x0</text>
<polyline fill="none" stroke="#8797b2" points="541.5,-304.5 541.5,-362"/>
<text text-anchor="middle" x="591.88" y="-344.7" font-family="Times,serif" font-size="14.00" fill="#000000">Parent</text>
<text text-anchor="middle" x="591.88" y="-328.2" font-family="Times,serif" font-size="14.00" fill="#000000">Teaches angem</text>
<text text-anchor="middle" x="591.88" y="-311.7" font-family="Times,serif" font-size="14.00" fill="#000000">0x106e01c90</text>
<polyline fill="none" stroke="#8797b2" points="642.25,-304.5 642.25,-362"/>
<text text-anchor="middle" x="669" y="-344.7" font-family="Times,serif" font-size="14.00" fill="#000000">Right</text>
<text text-anchor="middle" x="669" y="-328.2" font-family="Times,serif" font-size="14.00" fill="#000000">NONE</text>
<text text-anchor="middle" x="669" y="-311.7" font-family="Times,serif" font-size="14.00" fill="#000000">0x0</text>
</g>
<!-- node0x106e01c90&#45;&gt;node0x106e01c60 -->
<g id="edge6" class="edge">
<title>node0x106e01c90:left&#45;&gt;node0x106e01c60</title>
<path fill="none" stroke="#187ae8" stroke-width="2" d="M591.25,-456C591.25,-442.61 591.31,-428.22 591.38,-414.62"/>
<polygon fill="#187ae8" stroke="#187ae8" stroke-width="2" points="594.87,-416.47 591.43,-406.44 587.87,-416.42 594.87,-416.47"/>
<text text-anchor="middle" x="599.22" y="-424.7" font-family="Times,serif" font-size="14.00">Да</text>
</g>
<!-- node0x106e01c30 -->
<g id="node12" class="node">
<title>node0x106e01c30</title>
<path fill="#bdef9e" stroke="#99c2a2" d="M725.38,-304.5C725.38,-304.5 944.38,-304.5 944.38,-304.5 950.38,-304.5 956.38,-310.5 956.38,-316.5 956.38,-316.5 956.38,-391 956.38,-391 956.38,-397 950.38,-403 944.38,-403 944.38,-403 725.38,-403 725.38,-403 719.38,-403 713.38,-397 713.38,-391 713.38,-391 713.38,-316.5 713.38,-316.5 713.38,-310.5 719.38,-304.5 725.38,-304.5"/>
<text text-anchor="middle" x="834.88" y="-385.7" font-family="Times,serif" font-size="14.00" fill="#000000">Do sport</text>
<text text-anchor="middle" x="834.88" y="-369.2" font-family="Times,serif" font-size="14.00" fill="#000000">0x106e01c30</text>
<polyline fill="none" stroke="#99c2a2" points="713.38,-362 956.38,-362"/>
<text text-anchor="middle" x="757.75" y="-344.7" font-family="Times,serif" font-size="14.00" fill="#000000">Left</text>
<text text-anchor="middle" x="757.75" y="-328.2" font-family="Times,serif" font-size="14.00" fill="#000000">Coach</text>
<text text-anchor="middle" x="757.75" y="-311.7" font-family="Times,serif" font-size="14.00" fill="#000000">0x106e01c00</text>
<polyline fill="none" stroke="#99c2a2" points="802.12,-304.5 802.12,-362"/>
<text text-anchor="middle" x="852.5" y="-344.7" font-family="Times,serif" font-size="14.00" fill="#000000">Parent</text>
<text text-anchor="middle" x="852.5" y="-328.2" font-family="Times,serif" font-size="14.00" fill="#000000">Teaches angem</text>
<text text-anchor="middle" x="852.5" y="-311.7" font-family="Times,serif" font-size="14.00" fill="#000000">0x106e01c90</text>
<polyline fill="none" stroke="#99c2a2" points="902.88,-304.5 902.88,-362"/>
<text text-anchor="middle" x="929.62" y="-344.7" font-family="Times,serif" font-size="14.00" fill="#000000">Right</text>
<text text-anchor="middle" x="929.62" y="-328.2" font-family="Times,serif" font-size="14.00" fill="#000000">NONE</text>
<text text-anchor="middle" x="929.62" y="-311.7" font-family="Times,serif" font-size="14.00" fill="#000000">0x0</text>
</g>
<!-- node0x106e01c90&#45;&gt;node0x106e01c30 -->
<g id="edge10" class="edge">
<title>node0x106e01c90:right&#45;&gt;node0x106e01c30</title>
<path fill="none" stroke="#48e818" stroke-width="2" d="M784.5,-456C784.5,-441.45 788.72,-426.84 794.72,-413.42"/>
<polygon fill="#48e818" stroke="#48e818" stroke-width="2" points="797.04,-416.65 798.28,-406.13 790.75,-413.58 797.04,-416.65"/>
<text text-anchor="middle" x="801.62" y="-424.7" font-family="Times,serif" font-size="14.00">Нет</text>
</g>
<!-- node0x106e01c00 -->
<g id="node13" class="node">
<title>node0x106e01c00</title>
<path fill="#d5cfe1" stroke="#8797b2" d="M621.38,-152.5C621.38,-152.5 894.38,-152.5 894.38,-152.5 900.38,-152.5 906.38,-158.5 906.38,-164.5 906.38,-164.5 906.38,-239 906.38,-239 906.38,-245 900.38,-251 894.38,-251 894.38,-251 621.38,-251 621.38,-251 615.38,-251 609.38,-245 609.38,-239 609.38,-239 609.38,-164.5 609.38,-164.5 609.38,-158.5 615.38,-152.5 621.38,-152.5"/>
<text text-anchor="middle" x="757.88" y="-233.7" font-family="Times,serif" font-size="14.00" fill="#000000">Coach</text>
<text text-anchor="middle" x="757.88" y="-217.2" font-family="Times,serif" font-size="14.00" fill="#000000">0x106e01c00</text>
<polyline fill="none" stroke="#8797b2" points="609.38,-210 906.38,-210"/>
<text text-anchor="middle" x="668.75" y="-192.7" font-family="Times,serif" font-size="14.00" fill="#000000">Left</text>
<text text-anchor="middle" x="668.75" y="-176.2" font-family="Times,serif" font-size="14.00" fill="#000000">Valentin Guardiola</text>
<text text-anchor="middle" x="668.75" y="-159.7" font-family="Times,serif" font-size="14.00" fill="#000000">0x106e01bd0</text>
<polyline fill="none" stroke="#8797b2" points="728.12,-152.5 728.12,-210"/>
<text text-anchor="middle" x="772.5" y="-192.7" font-family="Times,serif" font-size="14.00" fill="#000000">Parent</text>
<text text-anchor="middle" x="772.5" y="-176.2" font-family="Times,serif" font-size="14.00" fill="#000000">Do sport</text>
<text text-anchor="middle" x="772.5" y="-159.7" font-family="Times,serif" font-size="14.00" fill="#000000">0x106e01c30</text>
<polyline fill="none" stroke="#8797b2" points="816.88,-152.5 816.88,-210"/>
<text text-anchor="middle" x="861.62" y="-192.7" font-family="Times,serif" font-size="14.00" fill="#000000">Right</text>
<text text-anchor="middle" x="861.62" y="-176.2" font-family="Times,serif" font-size="14.00" fill="#000000">IN KARTEL</text>
<text text-anchor="middle" x="861.62" y="-159.7" font-family="Times,serif" font-size="14.00" fill="#000000">0x106e01b70</text>
</g>
<!-- node0x106e01c30&#45;&gt;node0x106e01c00 -->
<g id="edge7" class="edge">
<title>node0x106e01c30:left&#45;&gt;node0x106e01c00</title>
<path fill="none" stroke="#187ae8" stroke-width="2" d="M757.75,-304C757.75,-290.61 757.76,-276.22 757.78,-262.62"/>
<polygon fill="#187ae8" stroke="#187ae8" stroke-width="2" points="761.27,-264.45 757.79,-254.44 754.27,-264.44 761.27,-264.45"/>
<text text-anchor="middle" x="765.64" y="-272.7" font-family="Times,serif" font-size="14.00">Да</text>
</g>
<!-- node0x106e01c00&#45;&gt;node0x106e01b70 -->
<g id="edge9" class="edge">
<title>node0x106e01c00:right&#45;&gt;node0x106e01b70</title>
<path fill="none" stroke="#48e818" stroke-width="2" d="M861.62,-152C861.62,-138.54 862.53,-124.13 863.81,-110.52"/>
<polygon fill="#48e818" stroke="#48e818" stroke-width="2" points="867.11,-112.63 864.64,-102.33 860.15,-111.92 867.11,-112.63"/>
<text text-anchor="middle" x="873.99" y="-120.7" font-family="Times,serif" font-size="14.00">Нет</text>
</g>
<!-- node0x106e01bd0 -->
<g id="node14" class="node">
<title>node0x106e01bd0</title>
<path fill="#d5cfe1" stroke="#8797b2" d="M572,-0.5C572,-0.5 743.75,-0.5 743.75,-0.5 749.75,-0.5 755.75,-6.5 755.75,-12.5 755.75,-12.5 755.75,-87 755.75,-87 755.75,-93 749.75,-99 743.75,-99 743.75,-99 572,-99 572,-99 566,-99 560,-93 560,-87 560,-87 560,-12.5 560,-12.5 560,-6.5 566,-0.5 572,-0.5"/>
<text text-anchor="middle" x="657.88" y="-81.7" font-family="Times,serif" font-size="14.00" fill="#000000">Valentin Guardiola</text>
<text text-anchor="middle" x="657.88" y="-65.2" font-family="Times,serif" font-size="14.00" fill="#000000">0x106e01bd0</text>
<polyline fill="none" stroke="#8797b2" points="560,-58 755.75,-58"/>
<text text-anchor="middle" x="586.75" y="-40.7" font-family="Times,serif" font-size="14.00" fill="#000000">Left</text>
<text text-anchor="middle" x="586.75" y="-24.2" font-family="Times,serif" font-size="14.00" fill="#000000">NONE</text>
<text text-anchor="middle" x="586.75" y="-7.7" font-family="Times,serif" font-size="14.00" fill="#000000">0x0</text>
<polyline fill="none" stroke="#8797b2" points="613.5,-0.5 613.5,-58"/>
<text text-anchor="middle" x="657.88" y="-40.7" font-family="Times,serif" font-size="14.00" fill="#000000">Parent</text>
<text text-anchor="middle" x="657.88" y="-24.2" font-family="Times,serif" font-size="14.00" fill="#000000">Coach</text>
<text text-anchor="middle" x="657.88" y="-7.7" font-family="Times,serif" font-size="14.00" fill="#000000">0x106e01c00</text>
<polyline fill="none" stroke="#8797b2" points="702.25,-0.5 702.25,-58"/>
<text text-anchor="middle" x="729" y="-40.7" font-family="Times,serif" font-size="14.00" fill="#000000">Right</text>
<text text-anchor="middle" x="729" y="-24.2" font-family="Times,serif" font-size="14.00" fill="#000000">NONE</text>
<text text-anchor="middle" x="729" y="-7.7" font-family="Times,serif" font-size="14.00" fill="#000000">0x0</text>
</g>
<!-- node0x106e01c00&#45;&gt;node0x106e01bd0 -->
<g id="edge8" class="edge">
<title>node0x106e01c00:left&#45;&gt;node0x106e01bd0</title>
<path fill="none" stroke="#187ae8" stroke-width="2" d="M668.75,-152C668.75,-138.53 667.79,-124.12 666.43,-110.51"/>
<polygon fill="#187ae8" stroke="#187ae8" stroke-width="2" points="670.1,-111.88 665.55,-102.31 663.14,-112.63 670.1,-111.88"/>
<text text-anchor="middle" x="676.05" y="-120.7" font-family="Times,serif" font-size="14.00">Да</text>
</g>
</g>
</svg>
