<?xml version="1.0" encoding="UTF-8" standalone="no"?>
<!DOCTYPE svg PUBLIC "-//W3C//DTD SVG 1.1//EN"
 "http://www.w3.org/Graphics/SVG/1.1/DTD/svg11.dtd">
<!-- Generated by graphviz version 12.2.0 (20241103.1931)
 -->
<!-- Pages: 1 -->
<svg width="966pt" height="1020pt"
 viewBox="0.00 0.00 966.12 1019.50" xmlns="http://www.w3.org/2000/svg" xmlns:xlink="http://www.w3.org/1999/xlink">
<g id="graph0" class="graph" transform="scale(1 1) rotate(0) translate(4 1015.5)">
<polygon fill="#dcdcdc" stroke="none" points="-4,4 -4,-1015.5 962.12,-1015.5 962.12,4 -4,4"/>
<!-- node0x103601de0 -->
<g id="node1" class="node">
<title>node0x103601de0</title>
<path fill="#fbee21" stroke="#d3c70d" d="M117.62,-912.5C117.62,-912.5 344.88,-912.5 344.88,-912.5 350.88,-912.5 356.88,-918.5 356.88,-924.5 356.88,-924.5 356.88,-999 356.88,-999 356.88,-1005 350.88,-1011 344.88,-1011 344.88,-1011 117.63,-1011 117.63,-1011 111.62,-1011 105.62,-1005 105.62,-999 105.62,-999 105.62,-924.5 105.62,-924.5 105.62,-918.5 111.62,-912.5 117.62,-912.5"/>
<text text-anchor="middle" x="231.25" y="-993.7" font-family="Times,serif" font-size="14.00" fill="#000000">Animal</text>
<text text-anchor="middle" x="231.25" y="-977.2" font-family="Times,serif" font-size="14.00" fill="#000000">0x103601de0</text>
<polyline fill="none" stroke="#d3c70d" points="105.62,-970 356.88,-970"/>
<text text-anchor="middle" x="150.75" y="-952.7" font-family="Times,serif" font-size="14.00" fill="#000000">Left</text>
<text text-anchor="middle" x="150.75" y="-936.2" font-family="Times,serif" font-size="14.00" fill="#000000">Poltorashka</text>
<text text-anchor="middle" x="150.75" y="-919.7" font-family="Times,serif" font-size="14.00" fill="#000000">0x103601db0</text>
<polyline fill="none" stroke="#d3c70d" points="195.88,-912.5 195.88,-970"/>
<text text-anchor="middle" x="222.62" y="-952.7" font-family="Times,serif" font-size="14.00" fill="#000000">Parent</text>
<text text-anchor="middle" x="222.62" y="-936.2" font-family="Times,serif" font-size="14.00" fill="#000000">NONE</text>
<text text-anchor="middle" x="222.62" y="-919.7" font-family="Times,serif" font-size="14.00" fill="#000000">0x0</text>
<polyline fill="none" stroke="#d3c70d" points="249.38,-912.5 249.38,-970"/>
<text text-anchor="middle" x="303.12" y="-952.7" font-family="Times,serif" font-size="14.00" fill="#000000">Right</text>
<text text-anchor="middle" x="303.12" y="-936.2" font-family="Times,serif" font-size="14.00" fill="#000000">Teaches analisys</text>
<text text-anchor="middle" x="303.12" y="-919.7" font-family="Times,serif" font-size="14.00" fill="#000000">0x103601d80</text>
</g>
<!-- node0x103601db0 -->
<g id="node2" class="node">
<title>node0x103601db0</title>
<path fill="#d5cfe1" stroke="#8797b2" d="M12,-760.5C12,-760.5 184.5,-760.5 184.5,-760.5 190.5,-760.5 196.5,-766.5 196.5,-772.5 196.5,-772.5 196.5,-847 196.5,-847 196.5,-853 190.5,-859 184.5,-859 184.5,-859 12,-859 12,-859 6,-859 0,-853 0,-847 0,-847 0,-772.5 0,-772.5 0,-766.5 6,-760.5 12,-760.5"/>
<text text-anchor="middle" x="98.25" y="-841.7" font-family="Times,serif" font-size="14.00" fill="#000000">Poltorashka</text>
<text text-anchor="middle" x="98.25" y="-825.2" font-family="Times,serif" font-size="14.00" fill="#000000">0x103601db0</text>
<polyline fill="none" stroke="#8797b2" points="0,-818 196.5,-818"/>
<text text-anchor="middle" x="26.75" y="-800.7" font-family="Times,serif" font-size="14.00" fill="#000000">Left</text>
<text text-anchor="middle" x="26.75" y="-784.2" font-family="Times,serif" font-size="14.00" fill="#000000">NONE</text>
<text text-anchor="middle" x="26.75" y="-767.7" font-family="Times,serif" font-size="14.00" fill="#000000">0x0</text>
<polyline fill="none" stroke="#8797b2" points="53.5,-760.5 53.5,-818"/>
<text text-anchor="middle" x="98.25" y="-800.7" font-family="Times,serif" font-size="14.00" fill="#000000">Parent</text>
<text text-anchor="middle" x="98.25" y="-784.2" font-family="Times,serif" font-size="14.00" fill="#000000">Animal</text>
<text text-anchor="middle" x="98.25" y="-767.7" font-family="Times,serif" font-size="14.00" fill="#000000">0x103601de0</text>
<polyline fill="none" stroke="#8797b2" points="143,-760.5 143,-818"/>
<text text-anchor="middle" x="169.75" y="-800.7" font-family="Times,serif" font-size="14.00" fill="#000000">Right</text>
<text text-anchor="middle" x="169.75" y="-784.2" font-family="Times,serif" font-size="14.00" fill="#000000">NONE</text>
<text text-anchor="middle" x="169.75" y="-767.7" font-family="Times,serif" font-size="14.00" fill="#000000">0x0</text>
</g>
<!-- node0x103601de0&#45;&gt;node0x103601db0 -->
<g id="edge1" class="edge">
<title>node0x103601de0:left&#45;&gt;node0x103601db0</title>
<path fill="none" stroke="#187ae8" stroke-width="2" d="M104.62,-941.25C73.92,-941.25 73.9,-904.77 80.71,-870.38"/>
<polygon fill="#187ae8" stroke="#187ae8" stroke-width="2" points="83.76,-872.82 82.48,-862.3 76.92,-871.32 83.76,-872.82"/>
<text text-anchor="middle" x="86.89" y="-880.7" font-family="Times,serif" font-size="14.00">Да</text>
</g>
<!-- node0x103601d80 -->
<g id="node4" class="node">
<title>node0x103601d80</title>
<path fill="#bdef9e" stroke="#99c2a2" d="M226.12,-760.5C226.12,-760.5 486.38,-760.5 486.38,-760.5 492.38,-760.5 498.38,-766.5 498.38,-772.5 498.38,-772.5 498.38,-847 498.38,-847 498.38,-853 492.38,-859 486.38,-859 486.38,-859 226.12,-859 226.12,-859 220.12,-859 214.12,-853 214.12,-847 214.12,-847 214.12,-772.5 214.12,-772.5 214.12,-766.5 220.12,-760.5 226.12,-760.5"/>
<text text-anchor="middle" x="356.25" y="-841.7" font-family="Times,serif" font-size="14.00" fill="#000000">Teaches analisys</text>
<text text-anchor="middle" x="356.25" y="-825.2" font-family="Times,serif" font-size="14.00" fill="#000000">0x103601d80</text>
<polyline fill="none" stroke="#99c2a2" points="214.12,-818 498.38,-818"/>
<text text-anchor="middle" x="259.25" y="-800.7" font-family="Times,serif" font-size="14.00" fill="#000000">Left</text>
<text text-anchor="middle" x="259.25" y="-784.2" font-family="Times,serif" font-size="14.00" fill="#000000">Burtsev</text>
<text text-anchor="middle" x="259.25" y="-767.7" font-family="Times,serif" font-size="14.00" fill="#000000">0x103601d20</text>
<polyline fill="none" stroke="#99c2a2" points="304.38,-760.5 304.38,-818"/>
<text text-anchor="middle" x="349.12" y="-800.7" font-family="Times,serif" font-size="14.00" fill="#000000">Parent</text>
<text text-anchor="middle" x="349.12" y="-784.2" font-family="Times,serif" font-size="14.00" fill="#000000">Animal</text>
<text text-anchor="middle" x="349.12" y="-767.7" font-family="Times,serif" font-size="14.00" fill="#000000">0x103601de0</text>
<polyline fill="none" stroke="#99c2a2" points="393.88,-760.5 393.88,-818"/>
<text text-anchor="middle" x="446.12" y="-800.7" font-family="Times,serif" font-size="14.00" fill="#000000">Right</text>
<text text-anchor="middle" x="446.12" y="-784.2" font-family="Times,serif" font-size="14.00" fill="#000000">Teaches physics</text>
<text text-anchor="middle" x="446.12" y="-767.7" font-family="Times,serif" font-size="14.00" fill="#000000">0x103601cf0</text>
</g>
<!-- node0x103601de0&#45;&gt;node0x103601d80 -->
<g id="edge12" class="edge">
<title>node0x103601de0:right&#45;&gt;node0x103601d80</title>
<path fill="none" stroke="#48e818" stroke-width="2" d="M303.12,-912C303.12,-897.37 307.53,-882.77 313.8,-869.39"/>
<polygon fill="#48e818" stroke="#48e818" stroke-width="2" points="316.08,-872.61 317.54,-862.12 309.86,-869.42 316.08,-872.61"/>
<text text-anchor="middle" x="320.58" y="-880.7" font-family="Times,serif" font-size="14.00">Нет</text>
</g>
<!-- node0x103601ba0 -->
<g id="node3" class="node">
<title>node0x103601ba0</title>
<path fill="#f18805" stroke="#af3800" d="M640,-152.5C640,-152.5 878.5,-152.5 878.5,-152.5 884.5,-152.5 890.5,-158.5 890.5,-164.5 890.5,-164.5 890.5,-239 890.5,-239 890.5,-245 884.5,-251 878.5,-251 878.5,-251 640,-251 640,-251 634,-251 628,-245 628,-239 628,-239 628,-164.5 628,-164.5 628,-158.5 634,-152.5 640,-152.5"/>
<text text-anchor="middle" x="759.25" y="-233.7" font-family="Times,serif" font-size="14.00" fill="#000000">Coach</text>
<text text-anchor="middle" x="759.25" y="-217.2" font-family="Times,serif" font-size="14.00" fill="#000000">0x103601ba0</text>
<polyline fill="none" stroke="#af3800" points="628,-210 890.5,-210"/>
<text text-anchor="middle" x="687.38" y="-192.7" font-family="Times,serif" font-size="14.00" fill="#000000">Left</text>
<text text-anchor="middle" x="687.38" y="-176.2" font-family="Times,serif" font-size="14.00" fill="#000000">Valentin Guardiola</text>
<text text-anchor="middle" x="687.38" y="-159.7" font-family="Times,serif" font-size="14.00" fill="#000000">0x103601b70</text>
<polyline fill="none" stroke="#af3800" points="746.75,-152.5 746.75,-210"/>
<text text-anchor="middle" x="791.88" y="-192.7" font-family="Times,serif" font-size="14.00" fill="#000000">Parent</text>
<text text-anchor="middle" x="791.88" y="-176.2" font-family="Times,serif" font-size="14.00" fill="#000000">Do sport</text>
<text text-anchor="middle" x="791.88" y="-159.7" font-family="Times,serif" font-size="14.00" fill="#000000">0x103601bd0</text>
<polyline fill="none" stroke="#af3800" points="837,-152.5 837,-210"/>
<text text-anchor="middle" x="863.75" y="-192.7" font-family="Times,serif" font-size="14.00" fill="#000000">Right</text>
<text text-anchor="middle" x="863.75" y="-176.2" font-family="Times,serif" font-size="14.00" fill="#000000">NONE</text>
<text text-anchor="middle" x="863.75" y="-159.7" font-family="Times,serif" font-size="14.00" fill="#000000">0x0</text>
</g>
<!-- node0x103601b70 -->
<g id="node13" class="node">
<title>node0x103601b70</title>
<path fill="#d5cfe1" stroke="#8797b2" d="M602,-0.5C602,-0.5 774.5,-0.5 774.5,-0.5 780.5,-0.5 786.5,-6.5 786.5,-12.5 786.5,-12.5 786.5,-87 786.5,-87 786.5,-93 780.5,-99 774.5,-99 774.5,-99 602,-99 602,-99 596,-99 590,-93 590,-87 590,-87 590,-12.5 590,-12.5 590,-6.5 596,-0.5 602,-0.5"/>
<text text-anchor="middle" x="688.25" y="-81.7" font-family="Times,serif" font-size="14.00" fill="#000000">Valentin Guardiola</text>
<text text-anchor="middle" x="688.25" y="-65.2" font-family="Times,serif" font-size="14.00" fill="#000000">0x103601b70</text>
<polyline fill="none" stroke="#8797b2" points="590,-58 786.5,-58"/>
<text text-anchor="middle" x="616.75" y="-40.7" font-family="Times,serif" font-size="14.00" fill="#000000">Left</text>
<text text-anchor="middle" x="616.75" y="-24.2" font-family="Times,serif" font-size="14.00" fill="#000000">NONE</text>
<text text-anchor="middle" x="616.75" y="-7.7" font-family="Times,serif" font-size="14.00" fill="#000000">0x0</text>
<polyline fill="none" stroke="#8797b2" points="643.5,-0.5 643.5,-58"/>
<text text-anchor="middle" x="688.25" y="-40.7" font-family="Times,serif" font-size="14.00" fill="#000000">Parent</text>
<text text-anchor="middle" x="688.25" y="-24.2" font-family="Times,serif" font-size="14.00" fill="#000000">Coach</text>
<text text-anchor="middle" x="688.25" y="-7.7" font-family="Times,serif" font-size="14.00" fill="#000000">0x103601ba0</text>
<polyline fill="none" stroke="#8797b2" points="733,-0.5 733,-58"/>
<text text-anchor="middle" x="759.75" y="-40.7" font-family="Times,serif" font-size="14.00" fill="#000000">Right</text>
<text text-anchor="middle" x="759.75" y="-24.2" font-family="Times,serif" font-size="14.00" fill="#000000">NONE</text>
<text text-anchor="middle" x="759.75" y="-7.7" font-family="Times,serif" font-size="14.00" fill="#000000">0x0</text>
</g>
<!-- node0x103601ba0&#45;&gt;node0x103601b70 -->
<g id="edge8" class="edge">
<title>node0x103601ba0:left&#45;&gt;node0x103601b70</title>
<path fill="none" stroke="#187ae8" stroke-width="2" d="M687.38,-152C687.38,-138.61 687.45,-124.22 687.56,-110.62"/>
<polygon fill="#187ae8" stroke="#187ae8" stroke-width="2" points="691.05,-112.47 687.63,-102.44 684.05,-112.41 691.05,-112.47"/>
<text text-anchor="middle" x="695.38" y="-120.7" font-family="Times,serif" font-size="14.00">Да</text>
</g>
<!-- node0x103601d20 -->
<g id="node5" class="node">
<title>node0x103601d20</title>
<path fill="#d5cfe1" stroke="#8797b2" d="M142,-608.5C142,-608.5 332.5,-608.5 332.5,-608.5 338.5,-608.5 344.5,-614.5 344.5,-620.5 344.5,-620.5 344.5,-695 344.5,-695 344.5,-701 338.5,-707 332.5,-707 332.5,-707 142,-707 142,-707 136,-707 130,-701 130,-695 130,-695 130,-620.5 130,-620.5 130,-614.5 136,-608.5 142,-608.5"/>
<text text-anchor="middle" x="237.25" y="-689.7" font-family="Times,serif" font-size="14.00" fill="#000000">Burtsev</text>
<text text-anchor="middle" x="237.25" y="-673.2" font-family="Times,serif" font-size="14.00" fill="#000000">0x103601d20</text>
<polyline fill="none" stroke="#8797b2" points="130,-666 344.5,-666"/>
<text text-anchor="middle" x="156.75" y="-648.7" font-family="Times,serif" font-size="14.00" fill="#000000">Left</text>
<text text-anchor="middle" x="156.75" y="-632.2" font-family="Times,serif" font-size="14.00" fill="#000000">NONE</text>
<text text-anchor="middle" x="156.75" y="-615.7" font-family="Times,serif" font-size="14.00" fill="#000000">0x0</text>
<polyline fill="none" stroke="#8797b2" points="183.5,-608.5 183.5,-666"/>
<text text-anchor="middle" x="237.25" y="-648.7" font-family="Times,serif" font-size="14.00" fill="#000000">Parent</text>
<text text-anchor="middle" x="237.25" y="-632.2" font-family="Times,serif" font-size="14.00" fill="#000000">Teaches analisys</text>
<text text-anchor="middle" x="237.25" y="-615.7" font-family="Times,serif" font-size="14.00" fill="#000000">0x103601d80</text>
<polyline fill="none" stroke="#8797b2" points="291,-608.5 291,-666"/>
<text text-anchor="middle" x="317.75" y="-648.7" font-family="Times,serif" font-size="14.00" fill="#000000">Right</text>
<text text-anchor="middle" x="317.75" y="-632.2" font-family="Times,serif" font-size="14.00" fill="#000000">NONE</text>
<text text-anchor="middle" x="317.75" y="-615.7" font-family="Times,serif" font-size="14.00" fill="#000000">0x0</text>
</g>
<!-- node0x103601d80&#45;&gt;node0x103601d20 -->
<g id="edge2" class="edge">
<title>node0x103601d80:left&#45;&gt;node0x103601d20</title>
<path fill="none" stroke="#187ae8" stroke-width="2" d="M259.25,-760C259.25,-746.44 257.34,-732.08 254.65,-718.58"/>
<polygon fill="#187ae8" stroke="#187ae8" stroke-width="2" points="258.42,-719.45 252.87,-710.43 251.58,-720.94 258.42,-719.45"/>
<text text-anchor="middle" x="265.95" y="-728.7" font-family="Times,serif" font-size="14.00">Да</text>
</g>
<!-- node0x103601cf0 -->
<g id="node6" class="node">
<title>node0x103601cf0</title>
<path fill="#bdef9e" stroke="#99c2a2" d="M374.75,-608.5C374.75,-608.5 647.75,-608.5 647.75,-608.5 653.75,-608.5 659.75,-614.5 659.75,-620.5 659.75,-620.5 659.75,-695 659.75,-695 659.75,-701 653.75,-707 647.75,-707 647.75,-707 374.75,-707 374.75,-707 368.75,-707 362.75,-701 362.75,-695 362.75,-695 362.75,-620.5 362.75,-620.5 362.75,-614.5 368.75,-608.5 374.75,-608.5"/>
<text text-anchor="middle" x="511.25" y="-689.7" font-family="Times,serif" font-size="14.00" fill="#000000">Teaches physics</text>
<text text-anchor="middle" x="511.25" y="-673.2" font-family="Times,serif" font-size="14.00" fill="#000000">0x103601cf0</text>
<polyline fill="none" stroke="#99c2a2" points="362.75,-666 659.75,-666"/>
<text text-anchor="middle" x="407.12" y="-648.7" font-family="Times,serif" font-size="14.00" fill="#000000">Left</text>
<text text-anchor="middle" x="407.12" y="-632.2" font-family="Times,serif" font-size="14.00" fill="#000000">Nefor</text>
<text text-anchor="middle" x="407.12" y="-615.7" font-family="Times,serif" font-size="14.00" fill="#000000">0x103601cc0</text>
<polyline fill="none" stroke="#99c2a2" points="451.5,-608.5 451.5,-666"/>
<text text-anchor="middle" x="505.25" y="-648.7" font-family="Times,serif" font-size="14.00" fill="#000000">Parent</text>
<text text-anchor="middle" x="505.25" y="-632.2" font-family="Times,serif" font-size="14.00" fill="#000000">Teaches analisys</text>
<text text-anchor="middle" x="505.25" y="-615.7" font-family="Times,serif" font-size="14.00" fill="#000000">0x103601d80</text>
<polyline fill="none" stroke="#99c2a2" points="559,-608.5 559,-666"/>
<text text-anchor="middle" x="609.38" y="-648.7" font-family="Times,serif" font-size="14.00" fill="#000000">Right</text>
<text text-anchor="middle" x="609.38" y="-632.2" font-family="Times,serif" font-size="14.00" fill="#000000">Teaches angem</text>
<text text-anchor="middle" x="609.38" y="-615.7" font-family="Times,serif" font-size="14.00" fill="#000000">0x103601c30</text>
</g>
<!-- node0x103601d80&#45;&gt;node0x103601cf0 -->
<g id="edge11" class="edge">
<title>node0x103601d80:right&#45;&gt;node0x103601cf0</title>
<path fill="none" stroke="#48e818" stroke-width="2" d="M446.12,-760C446.12,-744.78 451.4,-730.03 458.94,-716.7"/>
<polygon fill="#48e818" stroke="#48e818" stroke-width="2" points="460.9,-720.19 463.19,-709.84 454.95,-716.5 460.9,-720.19"/>
<text text-anchor="middle" x="465.07" y="-728.7" font-family="Times,serif" font-size="14.00">Нет</text>
</g>
<!-- node0x103601cc0 -->
<g id="node7" class="node">
<title>node0x103601cc0</title>
<path fill="#d5cfe1" stroke="#8797b2" d="M145.5,-456.5C145.5,-456.5 405,-456.5 405,-456.5 411,-456.5 417,-462.5 417,-468.5 417,-468.5 417,-543 417,-543 417,-549 411,-555 405,-555 405,-555 145.5,-555 145.5,-555 139.5,-555 133.5,-549 133.5,-543 133.5,-543 133.5,-468.5 133.5,-468.5 133.5,-462.5 139.5,-456.5 145.5,-456.5"/>
<text text-anchor="middle" x="275.25" y="-537.7" font-family="Times,serif" font-size="14.00" fill="#000000">Nefor</text>
<text text-anchor="middle" x="275.25" y="-521.2" font-family="Times,serif" font-size="14.00" fill="#000000">0x103601cc0</text>
<polyline fill="none" stroke="#8797b2" points="133.5,-514 417,-514"/>
<text text-anchor="middle" x="178.25" y="-496.7" font-family="Times,serif" font-size="14.00" fill="#000000">Left</text>
<text text-anchor="middle" x="178.25" y="-480.2" font-family="Times,serif" font-size="14.00" fill="#000000">Magic</text>
<text text-anchor="middle" x="178.25" y="-463.7" font-family="Times,serif" font-size="14.00" fill="#000000">0x103601c90</text>
<polyline fill="none" stroke="#8797b2" points="223,-456.5 223,-514"/>
<text text-anchor="middle" x="275.25" y="-496.7" font-family="Times,serif" font-size="14.00" fill="#000000">Parent</text>
<text text-anchor="middle" x="275.25" y="-480.2" font-family="Times,serif" font-size="14.00" fill="#000000">Teaches physics</text>
<text text-anchor="middle" x="275.25" y="-463.7" font-family="Times,serif" font-size="14.00" fill="#000000">0x103601cf0</text>
<polyline fill="none" stroke="#8797b2" points="327.5,-456.5 327.5,-514"/>
<text text-anchor="middle" x="372.25" y="-496.7" font-family="Times,serif" font-size="14.00" fill="#000000">Right</text>
<text text-anchor="middle" x="372.25" y="-480.2" font-family="Times,serif" font-size="14.00" fill="#000000">Ovchos</text>
<text text-anchor="middle" x="372.25" y="-463.7" font-family="Times,serif" font-size="14.00" fill="#000000">0x103601c60</text>
</g>
<!-- node0x103601cf0&#45;&gt;node0x103601cc0 -->
<g id="edge3" class="edge">
<title>node0x103601cf0:left&#45;&gt;node0x103601cc0</title>
<path fill="none" stroke="#187ae8" stroke-width="2" d="M407.12,-608C407.12,-590.6 399.81,-575.77 388.63,-563.28"/>
<polygon fill="#187ae8" stroke="#187ae8" stroke-width="2" points="392.44,-562.15 382.89,-557.55 387.49,-567.1 392.44,-562.15"/>
<text text-anchor="middle" x="411.31" y="-576.7" font-family="Times,serif" font-size="14.00">Да</text>
</g>
<!-- node0x103601c30 -->
<g id="node10" class="node">
<title>node0x103601c30</title>
<path fill="#bdef9e" stroke="#99c2a2" d="M559.12,-456.5C559.12,-456.5 819.38,-456.5 819.38,-456.5 825.38,-456.5 831.38,-462.5 831.38,-468.5 831.38,-468.5 831.38,-543 831.38,-543 831.38,-549 825.38,-555 819.38,-555 819.38,-555 559.12,-555 559.12,-555 553.12,-555 547.12,-549 547.12,-543 547.12,-543 547.12,-468.5 547.12,-468.5 547.12,-462.5 553.12,-456.5 559.12,-456.5"/>
<text text-anchor="middle" x="689.25" y="-537.7" font-family="Times,serif" font-size="14.00" fill="#000000">Teaches angem</text>
<text text-anchor="middle" x="689.25" y="-521.2" font-family="Times,serif" font-size="14.00" fill="#000000">0x103601c30</text>
<polyline fill="none" stroke="#99c2a2" points="547.12,-514 831.38,-514"/>
<text text-anchor="middle" x="591.88" y="-496.7" font-family="Times,serif" font-size="14.00" fill="#000000">Left</text>
<text text-anchor="middle" x="591.88" y="-480.2" font-family="Times,serif" font-size="14.00" fill="#000000">Chubarik</text>
<text text-anchor="middle" x="591.88" y="-463.7" font-family="Times,serif" font-size="14.00" fill="#000000">0x103601c00</text>
<polyline fill="none" stroke="#99c2a2" points="636.62,-456.5 636.62,-514"/>
<text text-anchor="middle" x="688.88" y="-496.7" font-family="Times,serif" font-size="14.00" fill="#000000">Parent</text>
<text text-anchor="middle" x="688.88" y="-480.2" font-family="Times,serif" font-size="14.00" fill="#000000">Teaches physics</text>
<text text-anchor="middle" x="688.88" y="-463.7" font-family="Times,serif" font-size="14.00" fill="#000000">0x103601cf0</text>
<polyline fill="none" stroke="#99c2a2" points="741.12,-456.5 741.12,-514"/>
<text text-anchor="middle" x="786.25" y="-496.7" font-family="Times,serif" font-size="14.00" fill="#000000">Right</text>
<text text-anchor="middle" x="786.25" y="-480.2" font-family="Times,serif" font-size="14.00" fill="#000000">Do sport</text>
<text text-anchor="middle" x="786.25" y="-463.7" font-family="Times,serif" font-size="14.00" fill="#000000">0x103601bd0</text>
</g>
<!-- node0x103601cf0&#45;&gt;node0x103601c30 -->
<g id="edge10" class="edge">
<title>node0x103601cf0:right&#45;&gt;node0x103601c30</title>
<path fill="none" stroke="#48e818" stroke-width="2" d="M660.75,-637.25C692,-637.25 698.25,-601.08 697.16,-566.83"/>
<polygon fill="#48e818" stroke="#48e818" stroke-width="2" points="700.73,-568.16 696.69,-558.37 693.74,-568.54 700.73,-568.16"/>
<text text-anchor="middle" x="708.14" y="-576.7" font-family="Times,serif" font-size="14.00">Нет</text>
</g>
<!-- node0x103601c90 -->
<g id="node8" class="node">
<title>node0x103601c90</title>
<path fill="#d5cfe1" stroke="#8797b2" d="M72.38,-304.5C72.38,-304.5 244.12,-304.5 244.12,-304.5 250.12,-304.5 256.12,-310.5 256.12,-316.5 256.12,-316.5 256.12,-391 256.12,-391 256.12,-397 250.12,-403 244.12,-403 244.12,-403 72.37,-403 72.37,-403 66.38,-403 60.38,-397 60.38,-391 60.38,-391 60.38,-316.5 60.38,-316.5 60.38,-310.5 66.38,-304.5 72.38,-304.5"/>
<text text-anchor="middle" x="158.25" y="-385.7" font-family="Times,serif" font-size="14.00" fill="#000000">Magic</text>
<text text-anchor="middle" x="158.25" y="-369.2" font-family="Times,serif" font-size="14.00" fill="#000000">0x103601c90</text>
<polyline fill="none" stroke="#8797b2" points="60.38,-362 256.12,-362"/>
<text text-anchor="middle" x="87.12" y="-344.7" font-family="Times,serif" font-size="14.00" fill="#000000">Left</text>
<text text-anchor="middle" x="87.12" y="-328.2" font-family="Times,serif" font-size="14.00" fill="#000000">NONE</text>
<text text-anchor="middle" x="87.12" y="-311.7" font-family="Times,serif" font-size="14.00" fill="#000000">0x0</text>
<polyline fill="none" stroke="#8797b2" points="113.88,-304.5 113.88,-362"/>
<text text-anchor="middle" x="158.25" y="-344.7" font-family="Times,serif" font-size="14.00" fill="#000000">Parent</text>
<text text-anchor="middle" x="158.25" y="-328.2" font-family="Times,serif" font-size="14.00" fill="#000000">Nefor</text>
<text text-anchor="middle" x="158.25" y="-311.7" font-family="Times,serif" font-size="14.00" fill="#000000">0x103601cc0</text>
<polyline fill="none" stroke="#8797b2" points="202.62,-304.5 202.62,-362"/>
<text text-anchor="middle" x="229.38" y="-344.7" font-family="Times,serif" font-size="14.00" fill="#000000">Right</text>
<text text-anchor="middle" x="229.38" y="-328.2" font-family="Times,serif" font-size="14.00" fill="#000000">NONE</text>
<text text-anchor="middle" x="229.38" y="-311.7" font-family="Times,serif" font-size="14.00" fill="#000000">0x0</text>
</g>
<!-- node0x103601cc0&#45;&gt;node0x103601c90 -->
<g id="edge4" class="edge">
<title>node0x103601cc0:left&#45;&gt;node0x103601c90</title>
<path fill="none" stroke="#187ae8" stroke-width="2" d="M178.25,-456C178.25,-442.42 176.5,-428.01 174.03,-414.45"/>
<polygon fill="#187ae8" stroke="#187ae8" stroke-width="2" points="177.79,-415.39 172.4,-406.26 170.92,-416.75 177.79,-415.39"/>
<text text-anchor="middle" x="185.06" y="-424.7" font-family="Times,serif" font-size="14.00">Да</text>
</g>
<!-- node0x103601c60 -->
<g id="node9" class="node">
<title>node0x103601c60</title>
<path fill="#bdef9e" stroke="#99c2a2" d="M286.38,-304.5C286.38,-304.5 458.12,-304.5 458.12,-304.5 464.12,-304.5 470.12,-310.5 470.12,-316.5 470.12,-316.5 470.12,-391 470.12,-391 470.12,-397 464.12,-403 458.12,-403 458.12,-403 286.38,-403 286.38,-403 280.38,-403 274.38,-397 274.38,-391 274.38,-391 274.38,-316.5 274.38,-316.5 274.38,-310.5 280.38,-304.5 286.38,-304.5"/>
<text text-anchor="middle" x="372.25" y="-385.7" font-family="Times,serif" font-size="14.00" fill="#000000">Ovchos</text>
<text text-anchor="middle" x="372.25" y="-369.2" font-family="Times,serif" font-size="14.00" fill="#000000">0x103601c60</text>
<polyline fill="none" stroke="#99c2a2" points="274.38,-362 470.12,-362"/>
<text text-anchor="middle" x="301.12" y="-344.7" font-family="Times,serif" font-size="14.00" fill="#000000">Left</text>
<text text-anchor="middle" x="301.12" y="-328.2" font-family="Times,serif" font-size="14.00" fill="#000000">NONE</text>
<text text-anchor="middle" x="301.12" y="-311.7" font-family="Times,serif" font-size="14.00" fill="#000000">0x0</text>
<polyline fill="none" stroke="#99c2a2" points="327.88,-304.5 327.88,-362"/>
<text text-anchor="middle" x="372.25" y="-344.7" font-family="Times,serif" font-size="14.00" fill="#000000">Parent</text>
<text text-anchor="middle" x="372.25" y="-328.2" font-family="Times,serif" font-size="14.00" fill="#000000">Nefor</text>
<text text-anchor="middle" x="372.25" y="-311.7" font-family="Times,serif" font-size="14.00" fill="#000000">0x103601cc0</text>
<polyline fill="none" stroke="#99c2a2" points="416.62,-304.5 416.62,-362"/>
<text text-anchor="middle" x="443.38" y="-344.7" font-family="Times,serif" font-size="14.00" fill="#000000">Right</text>
<text text-anchor="middle" x="443.38" y="-328.2" font-family="Times,serif" font-size="14.00" fill="#000000">NONE</text>
<text text-anchor="middle" x="443.38" y="-311.7" font-family="Times,serif" font-size="14.00" fill="#000000">0x0</text>
</g>
<!-- node0x103601cc0&#45;&gt;node0x103601c60 -->
<g id="edge5" class="edge">
<title>node0x103601cc0:right&#45;&gt;node0x103601c60</title>
<path fill="none" stroke="#48e818" stroke-width="2" d="M372.25,-456C372.25,-442.61 372.25,-428.22 372.25,-414.62"/>
<polygon fill="#48e818" stroke="#48e818" stroke-width="2" points="375.75,-416.44 372.25,-406.44 368.75,-416.44 375.75,-416.44"/>
<text text-anchor="middle" x="383.12" y="-424.7" font-family="Times,serif" font-size="14.00">Нет</text>
</g>
<!-- node0x103601c00 -->
<g id="node11" class="node">
<title>node0x103601c00</title>
<path fill="#d5cfe1" stroke="#8797b2" d="M500.38,-304.5C500.38,-304.5 684.12,-304.5 684.12,-304.5 690.12,-304.5 696.12,-310.5 696.12,-316.5 696.12,-316.5 696.12,-391 696.12,-391 696.12,-397 690.12,-403 684.12,-403 684.12,-403 500.38,-403 500.38,-403 494.38,-403 488.38,-397 488.38,-391 488.38,-391 488.38,-316.5 488.38,-316.5 488.38,-310.5 494.38,-304.5 500.38,-304.5"/>
<text text-anchor="middle" x="592.25" y="-385.7" font-family="Times,serif" font-size="14.00" fill="#000000">Chubarik</text>
<text text-anchor="middle" x="592.25" y="-369.2" font-family="Times,serif" font-size="14.00" fill="#000000">0x103601c00</text>
<polyline fill="none" stroke="#8797b2" points="488.38,-362 696.12,-362"/>
<text text-anchor="middle" x="515.12" y="-344.7" font-family="Times,serif" font-size="14.00" fill="#000000">Left</text>
<text text-anchor="middle" x="515.12" y="-328.2" font-family="Times,serif" font-size="14.00" fill="#000000">NONE</text>
<text text-anchor="middle" x="515.12" y="-311.7" font-family="Times,serif" font-size="14.00" fill="#000000">0x0</text>
<polyline fill="none" stroke="#8797b2" points="541.88,-304.5 541.88,-362"/>
<text text-anchor="middle" x="592.25" y="-344.7" font-family="Times,serif" font-size="14.00" fill="#000000">Parent</text>
<text text-anchor="middle" x="592.25" y="-328.2" font-family="Times,serif" font-size="14.00" fill="#000000">Teaches angem</text>
<text text-anchor="middle" x="592.25" y="-311.7" font-family="Times,serif" font-size="14.00" fill="#000000">0x103601c30</text>
<polyline fill="none" stroke="#8797b2" points="642.62,-304.5 642.62,-362"/>
<text text-anchor="middle" x="669.38" y="-344.7" font-family="Times,serif" font-size="14.00" fill="#000000">Right</text>
<text text-anchor="middle" x="669.38" y="-328.2" font-family="Times,serif" font-size="14.00" fill="#000000">NONE</text>
<text text-anchor="middle" x="669.38" y="-311.7" font-family="Times,serif" font-size="14.00" fill="#000000">0x0</text>
</g>
<!-- node0x103601c30&#45;&gt;node0x103601c00 -->
<g id="edge6" class="edge">
<title>node0x103601c30:left&#45;&gt;node0x103601c00</title>
<path fill="none" stroke="#187ae8" stroke-width="2" d="M591.88,-456C591.88,-442.61 591.91,-428.22 591.95,-414.62"/>
<polygon fill="#187ae8" stroke="#187ae8" stroke-width="2" points="595.45,-416.46 591.99,-406.44 588.45,-416.43 595.45,-416.46"/>
<text text-anchor="middle" x="599.8" y="-424.7" font-family="Times,serif" font-size="14.00">Да</text>
</g>
<!-- node0x103601bd0 -->
<g id="node12" class="node">
<title>node0x103601bd0</title>
<path fill="#bdef9e" stroke="#99c2a2" d="M726.38,-304.5C726.38,-304.5 946.12,-304.5 946.12,-304.5 952.12,-304.5 958.12,-310.5 958.12,-316.5 958.12,-316.5 958.12,-391 958.12,-391 958.12,-397 952.12,-403 946.12,-403 946.12,-403 726.38,-403 726.38,-403 720.38,-403 714.38,-397 714.38,-391 714.38,-391 714.38,-316.5 714.38,-316.5 714.38,-310.5 720.38,-304.5 726.38,-304.5"/>
<text text-anchor="middle" x="836.25" y="-385.7" font-family="Times,serif" font-size="14.00" fill="#000000">Do sport</text>
<text text-anchor="middle" x="836.25" y="-369.2" font-family="Times,serif" font-size="14.00" fill="#000000">0x103601bd0</text>
<polyline fill="none" stroke="#99c2a2" points="714.38,-362 958.12,-362"/>
<text text-anchor="middle" x="759.12" y="-344.7" font-family="Times,serif" font-size="14.00" fill="#000000">Left</text>
<text text-anchor="middle" x="759.12" y="-328.2" font-family="Times,serif" font-size="14.00" fill="#000000">Coach</text>
<text text-anchor="middle" x="759.12" y="-311.7" font-family="Times,serif" font-size="14.00" fill="#000000">0x103601ba0</text>
<polyline fill="none" stroke="#99c2a2" points="803.88,-304.5 803.88,-362"/>
<text text-anchor="middle" x="854.25" y="-344.7" font-family="Times,serif" font-size="14.00" fill="#000000">Parent</text>
<text text-anchor="middle" x="854.25" y="-328.2" font-family="Times,serif" font-size="14.00" fill="#000000">Teaches angem</text>
<text text-anchor="middle" x="854.25" y="-311.7" font-family="Times,serif" font-size="14.00" fill="#000000">0x103601c30</text>
<polyline fill="none" stroke="#99c2a2" points="904.62,-304.5 904.62,-362"/>
<text text-anchor="middle" x="931.38" y="-344.7" font-family="Times,serif" font-size="14.00" fill="#000000">Right</text>
<text text-anchor="middle" x="931.38" y="-328.2" font-family="Times,serif" font-size="14.00" fill="#000000">NONE</text>
<text text-anchor="middle" x="931.38" y="-311.7" font-family="Times,serif" font-size="14.00" fill="#000000">0x0</text>
</g>
<!-- node0x103601c30&#45;&gt;node0x103601bd0 -->
<g id="edge9" class="edge">
<title>node0x103601c30:right&#45;&gt;node0x103601bd0</title>
<path fill="none" stroke="#48e818" stroke-width="2" d="M786.25,-456C786.25,-441.47 790.44,-426.87 796.39,-413.45"/>
<polygon fill="#48e818" stroke="#48e818" stroke-width="2" points="798.71,-416.69 799.93,-406.17 792.41,-413.64 798.71,-416.69"/>
<text text-anchor="middle" x="803.32" y="-424.7" font-family="Times,serif" font-size="14.00">Нет</text>
</g>
<!-- node0x103601bd0&#45;&gt;node0x103601ba0 -->
<g id="edge7" class="edge">
<title>node0x103601bd0:left&#45;&gt;node0x103601ba0</title>
<path fill="none" stroke="#187ae8" stroke-width="2" d="M759.12,-304C759.12,-290.61 759.14,-276.22 759.15,-262.62"/>
<polygon fill="#187ae8" stroke="#187ae8" stroke-width="2" points="762.65,-264.45 759.16,-254.44 755.65,-264.44 762.65,-264.45"/>
<text text-anchor="middle" x="767.02" y="-272.7" font-family="Times,serif" font-size="14.00">Да</text>
</g>
</g>
</svg>
