<?xml version="1.0" encoding="UTF-8" standalone="no"?>
<!DOCTYPE svg PUBLIC "-//W3C//DTD SVG 1.1//EN"
 "http://www.w3.org/Graphics/SVG/1.1/DTD/svg11.dtd">
<!-- Generated by graphviz version 12.2.0 (20241103.1931)
 -->
<!-- Pages: 1 -->
<svg width="454pt" height="412pt"
 viewBox="0.00 0.00 453.75 411.50" xmlns="http://www.w3.org/2000/svg" xmlns:xlink="http://www.w3.org/1999/xlink">
<g id="graph0" class="graph" transform="scale(1 1) rotate(0) translate(4 407.5)">
<polygon fill="#dcdcdc" stroke="none" points="-4,4 -4,-407.5 449.75,-407.5 449.75,4 -4,4"/>
<!-- node0x105a01e40 -->
<g id="node1" class="node">
<title>node0x105a01e40</title>
<path fill="#fbee21" stroke="#d3c70d" d="M105,-304.5C105,-304.5 330.75,-304.5 330.75,-304.5 336.75,-304.5 342.75,-310.5 342.75,-316.5 342.75,-316.5 342.75,-391 342.75,-391 342.75,-397 336.75,-403 330.75,-403 330.75,-403 105,-403 105,-403 99,-403 93,-397 93,-391 93,-391 93,-316.5 93,-316.5 93,-310.5 99,-304.5 105,-304.5"/>
<text text-anchor="middle" x="217.88" y="-385.7" font-family="Times,serif" font-size="14.00" fill="#000000">Animal</text>
<text text-anchor="middle" x="217.88" y="-369.2" font-family="Times,serif" font-size="14.00" fill="#000000">0x105a01e40</text>
<polyline fill="none" stroke="#d3c70d" points="93,-362 342.75,-362"/>
<text text-anchor="middle" x="137.38" y="-344.7" font-family="Times,serif" font-size="14.00" fill="#000000">Left</text>
<text text-anchor="middle" x="137.38" y="-328.2" font-family="Times,serif" font-size="14.00" fill="#000000">Poltorashka</text>
<text text-anchor="middle" x="137.38" y="-311.7" font-family="Times,serif" font-size="14.00" fill="#000000">0x105a01e10</text>
<polyline fill="none" stroke="#d3c70d" points="181.75,-304.5 181.75,-362"/>
<text text-anchor="middle" x="208.5" y="-344.7" font-family="Times,serif" font-size="14.00" fill="#000000">Parent</text>
<text text-anchor="middle" x="208.5" y="-328.2" font-family="Times,serif" font-size="14.00" fill="#000000">NONE</text>
<text text-anchor="middle" x="208.5" y="-311.7" font-family="Times,serif" font-size="14.00" fill="#000000">0x0</text>
<polyline fill="none" stroke="#d3c70d" points="235.25,-304.5 235.25,-362"/>
<text text-anchor="middle" x="289" y="-344.7" font-family="Times,serif" font-size="14.00" fill="#000000">Right</text>
<text text-anchor="middle" x="289" y="-328.2" font-family="Times,serif" font-size="14.00" fill="#000000">Teaches analisys</text>
<text text-anchor="middle" x="289" y="-311.7" font-family="Times,serif" font-size="14.00" fill="#000000">0x105a01de0</text>
</g>
<!-- node0x105a01e10 -->
<g id="node2" class="node">
<title>node0x105a01e10</title>
<path fill="#d5cfe1" stroke="#8797b2" d="M12,-152.5C12,-152.5 183.75,-152.5 183.75,-152.5 189.75,-152.5 195.75,-158.5 195.75,-164.5 195.75,-164.5 195.75,-239 195.75,-239 195.75,-245 189.75,-251 183.75,-251 183.75,-251 12,-251 12,-251 6,-251 0,-245 0,-239 0,-239 0,-164.5 0,-164.5 0,-158.5 6,-152.5 12,-152.5"/>
<text text-anchor="middle" x="97.88" y="-233.7" font-family="Times,serif" font-size="14.00" fill="#000000">Poltorashka</text>
<text text-anchor="middle" x="97.88" y="-217.2" font-family="Times,serif" font-size="14.00" fill="#000000">0x105a01e10</text>
<polyline fill="none" stroke="#8797b2" points="0,-210 195.75,-210"/>
<text text-anchor="middle" x="26.75" y="-192.7" font-family="Times,serif" font-size="14.00" fill="#000000">Left</text>
<text text-anchor="middle" x="26.75" y="-176.2" font-family="Times,serif" font-size="14.00" fill="#000000">NONE</text>
<text text-anchor="middle" x="26.75" y="-159.7" font-family="Times,serif" font-size="14.00" fill="#000000">0x0</text>
<polyline fill="none" stroke="#8797b2" points="53.5,-152.5 53.5,-210"/>
<text text-anchor="middle" x="97.88" y="-192.7" font-family="Times,serif" font-size="14.00" fill="#000000">Parent</text>
<text text-anchor="middle" x="97.88" y="-176.2" font-family="Times,serif" font-size="14.00" fill="#000000">Animal</text>
<text text-anchor="middle" x="97.88" y="-159.7" font-family="Times,serif" font-size="14.00" fill="#000000">0x105a01e40</text>
<polyline fill="none" stroke="#8797b2" points="142.25,-152.5 142.25,-210"/>
<text text-anchor="middle" x="169" y="-192.7" font-family="Times,serif" font-size="14.00" fill="#000000">Right</text>
<text text-anchor="middle" x="169" y="-176.2" font-family="Times,serif" font-size="14.00" fill="#000000">NONE</text>
<text text-anchor="middle" x="169" y="-159.7" font-family="Times,serif" font-size="14.00" fill="#000000">0x0</text>
</g>
<!-- node0x105a01e40&#45;&gt;node0x105a01e10 -->
<g id="edge1" class="edge">
<title>node0x105a01e40:left&#45;&gt;node0x105a01e10</title>
<path fill="none" stroke="#187ae8" stroke-width="2" d="M137.38,-304C137.38,-289.86 133.99,-275.31 129.2,-261.82"/>
<polygon fill="#187ae8" stroke="#187ae8" stroke-width="2" points="133.07,-262.13 126.19,-254.07 126.55,-264.66 133.07,-262.13"/>
<text text-anchor="middle" x="143.14" y="-272.7" font-family="Times,serif" font-size="14.00">Да</text>
</g>
<!-- node0x105a01de0 -->
<g id="node3" class="node">
<title>node0x105a01de0</title>
<path fill="#f18805" stroke="#af3800" d="M226,-152.5C226,-152.5 433.75,-152.5 433.75,-152.5 439.75,-152.5 445.75,-158.5 445.75,-164.5 445.75,-164.5 445.75,-239 445.75,-239 445.75,-245 439.75,-251 433.75,-251 433.75,-251 226,-251 226,-251 220,-251 214,-245 214,-239 214,-239 214,-164.5 214,-164.5 214,-158.5 220,-152.5 226,-152.5"/>
<text text-anchor="middle" x="329.88" y="-233.7" font-family="Times,serif" font-size="14.00" fill="#000000">Teaches analisys</text>
<text text-anchor="middle" x="329.88" y="-217.2" font-family="Times,serif" font-size="14.00" fill="#000000">0x105a01de0</text>
<polyline fill="none" stroke="#af3800" points="214,-210 445.75,-210"/>
<text text-anchor="middle" x="258.75" y="-192.7" font-family="Times,serif" font-size="14.00" fill="#000000">Left</text>
<text text-anchor="middle" x="258.75" y="-176.2" font-family="Times,serif" font-size="14.00" fill="#000000">Burtsev</text>
<text text-anchor="middle" x="258.75" y="-159.7" font-family="Times,serif" font-size="14.00" fill="#000000">0x105a01d80</text>
<polyline fill="none" stroke="#af3800" points="303.5,-152.5 303.5,-210"/>
<text text-anchor="middle" x="347.88" y="-192.7" font-family="Times,serif" font-size="14.00" fill="#000000">Parent</text>
<text text-anchor="middle" x="347.88" y="-176.2" font-family="Times,serif" font-size="14.00" fill="#000000">Animal</text>
<text text-anchor="middle" x="347.88" y="-159.7" font-family="Times,serif" font-size="14.00" fill="#000000">0x105a01e40</text>
<polyline fill="none" stroke="#af3800" points="392.25,-152.5 392.25,-210"/>
<text text-anchor="middle" x="419" y="-192.7" font-family="Times,serif" font-size="14.00" fill="#000000">Right</text>
<text text-anchor="middle" x="419" y="-176.2" font-family="Times,serif" font-size="14.00" fill="#000000">NONE</text>
<text text-anchor="middle" x="419" y="-159.7" font-family="Times,serif" font-size="14.00" fill="#000000">0x0</text>
</g>
<!-- node0x105a01e40&#45;&gt;node0x105a01de0 -->
<g id="edge3" class="edge">
<title>node0x105a01e40:right&#45;&gt;node0x105a01de0</title>
<path fill="none" stroke="#48e818" stroke-width="2" d="M289,-304C289,-289.86 292.47,-275.37 297.38,-261.93"/>
<polygon fill="#48e818" stroke="#48e818" stroke-width="2" points="300.01,-264.8 300.47,-254.22 293.51,-262.2 300.01,-264.8"/>
<text text-anchor="middle" x="304.94" y="-272.7" font-family="Times,serif" font-size="14.00">Нет</text>
</g>
<!-- node0x105a01d80 -->
<g id="node4" class="node">
<title>node0x105a01d80</title>
<path fill="#d5cfe1" stroke="#8797b2" d="M163.62,-0.5C163.62,-0.5 354.12,-0.5 354.12,-0.5 360.12,-0.5 366.12,-6.5 366.12,-12.5 366.12,-12.5 366.12,-87 366.12,-87 366.12,-93 360.12,-99 354.12,-99 354.12,-99 163.62,-99 163.62,-99 157.62,-99 151.62,-93 151.62,-87 151.62,-87 151.62,-12.5 151.62,-12.5 151.62,-6.5 157.62,-0.5 163.62,-0.5"/>
<text text-anchor="middle" x="258.88" y="-81.7" font-family="Times,serif" font-size="14.00" fill="#000000">Burtsev</text>
<text text-anchor="middle" x="258.88" y="-65.2" font-family="Times,serif" font-size="14.00" fill="#000000">0x105a01d80</text>
<polyline fill="none" stroke="#8797b2" points="151.62,-58 366.12,-58"/>
<text text-anchor="middle" x="178.38" y="-40.7" font-family="Times,serif" font-size="14.00" fill="#000000">Left</text>
<text text-anchor="middle" x="178.38" y="-24.2" font-family="Times,serif" font-size="14.00" fill="#000000">NONE</text>
<text text-anchor="middle" x="178.38" y="-7.7" font-family="Times,serif" font-size="14.00" fill="#000000">0x0</text>
<polyline fill="none" stroke="#8797b2" points="205.12,-0.5 205.12,-58"/>
<text text-anchor="middle" x="258.88" y="-40.7" font-family="Times,serif" font-size="14.00" fill="#000000">Parent</text>
<text text-anchor="middle" x="258.88" y="-24.2" font-family="Times,serif" font-size="14.00" fill="#000000">Teaches analisys</text>
<text text-anchor="middle" x="258.88" y="-7.7" font-family="Times,serif" font-size="14.00" fill="#000000">0x105a01de0</text>
<polyline fill="none" stroke="#8797b2" points="312.62,-0.5 312.62,-58"/>
<text text-anchor="middle" x="339.38" y="-40.7" font-family="Times,serif" font-size="14.00" fill="#000000">Right</text>
<text text-anchor="middle" x="339.38" y="-24.2" font-family="Times,serif" font-size="14.00" fill="#000000">NONE</text>
<text text-anchor="middle" x="339.38" y="-7.7" font-family="Times,serif" font-size="14.00" fill="#000000">0x0</text>
</g>
<!-- node0x105a01de0&#45;&gt;node0x105a01d80 -->
<g id="edge2" class="edge">
<title>node0x105a01de0:left&#45;&gt;node0x105a01d80</title>
<path fill="none" stroke="#187ae8" stroke-width="2" d="M258.75,-152C258.75,-138.61 258.76,-124.22 258.78,-110.62"/>
<polygon fill="#187ae8" stroke="#187ae8" stroke-width="2" points="262.27,-112.45 258.79,-102.44 255.27,-112.44 262.27,-112.45"/>
<text text-anchor="middle" x="266.64" y="-120.7" font-family="Times,serif" font-size="14.00">Да</text>
</g>
</g>
</svg>
