<?xml version="1.0" encoding="UTF-8" standalone="no"?>
<!DOCTYPE svg PUBLIC "-//W3C//DTD SVG 1.1//EN"
 "http://www.w3.org/Graphics/SVG/1.1/DTD/svg11.dtd">
<!-- Generated by graphviz version 12.2.0 (20241103.1931)
 -->
<!-- Pages: 1 -->
<svg width="1394pt" height="1172pt"
 viewBox="0.00 0.00 1393.50 1171.50" xmlns="http://www.w3.org/2000/svg" xmlns:xlink="http://www.w3.org/1999/xlink">
<g id="graph0" class="graph" transform="scale(1 1) rotate(0) translate(4 1167.5)">
<polygon fill="#dcdcdc" stroke="none" points="-4,4 -4,-1167.5 1389.5,-1167.5 1389.5,4 -4,4"/>
<!-- node0x103901e40 -->
<g id="node1" class="node">
<title>node0x103901e40</title>
<path fill="#fbee21" stroke="#d3c70d" d="M385,-1064.5C385,-1064.5 611.5,-1064.5 611.5,-1064.5 617.5,-1064.5 623.5,-1070.5 623.5,-1076.5 623.5,-1076.5 623.5,-1151 623.5,-1151 623.5,-1157 617.5,-1163 611.5,-1163 611.5,-1163 385,-1163 385,-1163 379,-1163 373,-1157 373,-1151 373,-1151 373,-1076.5 373,-1076.5 373,-1070.5 379,-1064.5 385,-1064.5"/>
<text text-anchor="middle" x="498.25" y="-1145.7" font-family="Times,serif" font-size="14.00" fill="#000000">Animal</text>
<text text-anchor="middle" x="498.25" y="-1129.2" font-family="Times,serif" font-size="14.00" fill="#000000">0x103901e40</text>
<polyline fill="none" stroke="#d3c70d" points="373,-1122 623.5,-1122"/>
<text text-anchor="middle" x="417.75" y="-1104.7" font-family="Times,serif" font-size="14.00" fill="#000000">Left</text>
<text text-anchor="middle" x="417.75" y="-1088.2" font-family="Times,serif" font-size="14.00" fill="#000000">Angry</text>
<text text-anchor="middle" x="417.75" y="-1071.7" font-family="Times,serif" font-size="14.00" fill="#000000">0x103901a80</text>
<polyline fill="none" stroke="#d3c70d" points="462.5,-1064.5 462.5,-1122"/>
<text text-anchor="middle" x="489.25" y="-1104.7" font-family="Times,serif" font-size="14.00" fill="#000000">Parent</text>
<text text-anchor="middle" x="489.25" y="-1088.2" font-family="Times,serif" font-size="14.00" fill="#000000">NONE</text>
<text text-anchor="middle" x="489.25" y="-1071.7" font-family="Times,serif" font-size="14.00" fill="#000000">0x0</text>
<polyline fill="none" stroke="#d3c70d" points="516,-1064.5 516,-1122"/>
<text text-anchor="middle" x="569.75" y="-1104.7" font-family="Times,serif" font-size="14.00" fill="#000000">Right</text>
<text text-anchor="middle" x="569.75" y="-1088.2" font-family="Times,serif" font-size="14.00" fill="#000000">Teaches analisys</text>
<text text-anchor="middle" x="569.75" y="-1071.7" font-family="Times,serif" font-size="14.00" fill="#000000">0x103901de0</text>
</g>
<!-- node0x103901a80 -->
<g id="node2" class="node">
<title>node0x103901a80</title>
<path fill="#f18805" stroke="#af3800" d="M102,-912.5C102,-912.5 346.5,-912.5 346.5,-912.5 352.5,-912.5 358.5,-918.5 358.5,-924.5 358.5,-924.5 358.5,-999 358.5,-999 358.5,-1005 352.5,-1011 346.5,-1011 346.5,-1011 102,-1011 102,-1011 96,-1011 90,-1005 90,-999 90,-999 90,-924.5 90,-924.5 90,-918.5 96,-912.5 102,-912.5"/>
<text text-anchor="middle" x="224.25" y="-993.7" font-family="Times,serif" font-size="14.00" fill="#000000">Angry</text>
<text text-anchor="middle" x="224.25" y="-977.2" font-family="Times,serif" font-size="14.00" fill="#000000">0x103901a80</text>
<polyline fill="none" stroke="#af3800" points="90,-970 358.5,-970"/>
<text text-anchor="middle" x="134.75" y="-952.7" font-family="Times,serif" font-size="14.00" fill="#000000">Left</text>
<text text-anchor="middle" x="134.75" y="-936.2" font-family="Times,serif" font-size="14.00" fill="#000000">Sobaken</text>
<text text-anchor="middle" x="134.75" y="-919.7" font-family="Times,serif" font-size="14.00" fill="#000000">0x103901ab0</text>
<polyline fill="none" stroke="#af3800" points="179.5,-912.5 179.5,-970"/>
<text text-anchor="middle" x="224.25" y="-952.7" font-family="Times,serif" font-size="14.00" fill="#000000">Parent</text>
<text text-anchor="middle" x="224.25" y="-936.2" font-family="Times,serif" font-size="14.00" fill="#000000">Animal</text>
<text text-anchor="middle" x="224.25" y="-919.7" font-family="Times,serif" font-size="14.00" fill="#000000">0x103901e40</text>
<polyline fill="none" stroke="#af3800" points="269,-912.5 269,-970"/>
<text text-anchor="middle" x="313.75" y="-952.7" font-family="Times,serif" font-size="14.00" fill="#000000">Right</text>
<text text-anchor="middle" x="313.75" y="-936.2" font-family="Times,serif" font-size="14.00" fill="#000000">Poltorashka</text>
<text text-anchor="middle" x="313.75" y="-919.7" font-family="Times,serif" font-size="14.00" fill="#000000">0x103901e10</text>
</g>
<!-- node0x103901e40&#45;&gt;node0x103901a80 -->
<g id="edge1" class="edge">
<title>node0x103901e40:left&#45;&gt;node0x103901a80</title>
<path fill="none" stroke="#187ae8" stroke-width="2" d="M372,-1093.25C324.88,-1093.25 285.7,-1055.5 259.56,-1020.6"/>
<polygon fill="#187ae8" stroke="#187ae8" stroke-width="2" points="263.33,-1019.85 254.64,-1013.8 257.66,-1023.95 263.33,-1019.85"/>
<text text-anchor="middle" x="286.44" y="-1032.7" font-family="Times,serif" font-size="14.00">Да</text>
</g>
<!-- node0x103901de0 -->
<g id="node5" class="node">
<title>node0x103901de0</title>
<path fill="#bdef9e" stroke="#99c2a2" d="M504.12,-912.5C504.12,-912.5 764.38,-912.5 764.38,-912.5 770.38,-912.5 776.38,-918.5 776.38,-924.5 776.38,-924.5 776.38,-999 776.38,-999 776.38,-1005 770.38,-1011 764.38,-1011 764.38,-1011 504.12,-1011 504.12,-1011 498.12,-1011 492.12,-1005 492.12,-999 492.12,-999 492.12,-924.5 492.12,-924.5 492.12,-918.5 498.12,-912.5 504.12,-912.5"/>
<text text-anchor="middle" x="634.25" y="-993.7" font-family="Times,serif" font-size="14.00" fill="#000000">Teaches analisys</text>
<text text-anchor="middle" x="634.25" y="-977.2" font-family="Times,serif" font-size="14.00" fill="#000000">0x103901de0</text>
<polyline fill="none" stroke="#99c2a2" points="492.12,-970 776.38,-970"/>
<text text-anchor="middle" x="537.25" y="-952.7" font-family="Times,serif" font-size="14.00" fill="#000000">Left</text>
<text text-anchor="middle" x="537.25" y="-936.2" font-family="Times,serif" font-size="14.00" fill="#000000">Burtsev</text>
<text text-anchor="middle" x="537.25" y="-919.7" font-family="Times,serif" font-size="14.00" fill="#000000">0x103901d80</text>
<polyline fill="none" stroke="#99c2a2" points="582.38,-912.5 582.38,-970"/>
<text text-anchor="middle" x="627.12" y="-952.7" font-family="Times,serif" font-size="14.00" fill="#000000">Parent</text>
<text text-anchor="middle" x="627.12" y="-936.2" font-family="Times,serif" font-size="14.00" fill="#000000">Animal</text>
<text text-anchor="middle" x="627.12" y="-919.7" font-family="Times,serif" font-size="14.00" fill="#000000">0x103901e40</text>
<polyline fill="none" stroke="#99c2a2" points="671.88,-912.5 671.88,-970"/>
<text text-anchor="middle" x="724.12" y="-952.7" font-family="Times,serif" font-size="14.00" fill="#000000">Right</text>
<text text-anchor="middle" x="724.12" y="-936.2" font-family="Times,serif" font-size="14.00" fill="#000000">Teaches physics</text>
<text text-anchor="middle" x="724.12" y="-919.7" font-family="Times,serif" font-size="14.00" fill="#000000">0x103901d50</text>
</g>
<!-- node0x103901e40&#45;&gt;node0x103901de0 -->
<g id="edge18" class="edge">
<title>node0x103901e40:right&#45;&gt;node0x103901de0</title>
<path fill="none" stroke="#48e818" stroke-width="2" d="M569.75,-1064C569.75,-1048.82 574.97,-1034.09 582.44,-1020.77"/>
<polygon fill="#48e818" stroke="#48e818" stroke-width="2" points="584.4,-1024.27 586.65,-1013.92 578.43,-1020.6 584.4,-1024.27"/>
<text text-anchor="middle" x="588.62" y="-1032.7" font-family="Times,serif" font-size="14.00">Нет</text>
</g>
<!-- node0x103901ab0 -->
<g id="node3" class="node">
<title>node0x103901ab0</title>
<path fill="#d5cfe1" stroke="#8797b2" d="M12,-760.5C12,-760.5 184.5,-760.5 184.5,-760.5 190.5,-760.5 196.5,-766.5 196.5,-772.5 196.5,-772.5 196.5,-847 196.5,-847 196.5,-853 190.5,-859 184.5,-859 184.5,-859 12,-859 12,-859 6,-859 0,-853 0,-847 0,-847 0,-772.5 0,-772.5 0,-766.5 6,-760.5 12,-760.5"/>
<text text-anchor="middle" x="98.25" y="-841.7" font-family="Times,serif" font-size="14.00" fill="#000000">Sobaken</text>
<text text-anchor="middle" x="98.25" y="-825.2" font-family="Times,serif" font-size="14.00" fill="#000000">0x103901ab0</text>
<polyline fill="none" stroke="#8797b2" points="0,-818 196.5,-818"/>
<text text-anchor="middle" x="26.75" y="-800.7" font-family="Times,serif" font-size="14.00" fill="#000000">Left</text>
<text text-anchor="middle" x="26.75" y="-784.2" font-family="Times,serif" font-size="14.00" fill="#000000">NONE</text>
<text text-anchor="middle" x="26.75" y="-767.7" font-family="Times,serif" font-size="14.00" fill="#000000">0x0</text>
<polyline fill="none" stroke="#8797b2" points="53.5,-760.5 53.5,-818"/>
<text text-anchor="middle" x="98.25" y="-800.7" font-family="Times,serif" font-size="14.00" fill="#000000">Parent</text>
<text text-anchor="middle" x="98.25" y="-784.2" font-family="Times,serif" font-size="14.00" fill="#000000">Angry</text>
<text text-anchor="middle" x="98.25" y="-767.7" font-family="Times,serif" font-size="14.00" fill="#000000">0x103901a80</text>
<polyline fill="none" stroke="#8797b2" points="143,-760.5 143,-818"/>
<text text-anchor="middle" x="169.75" y="-800.7" font-family="Times,serif" font-size="14.00" fill="#000000">Right</text>
<text text-anchor="middle" x="169.75" y="-784.2" font-family="Times,serif" font-size="14.00" fill="#000000">NONE</text>
<text text-anchor="middle" x="169.75" y="-767.7" font-family="Times,serif" font-size="14.00" fill="#000000">0x0</text>
</g>
<!-- node0x103901a80&#45;&gt;node0x103901ab0 -->
<g id="edge2" class="edge">
<title>node0x103901a80:left&#45;&gt;node0x103901ab0</title>
<path fill="none" stroke="#187ae8" stroke-width="2" d="M134.75,-912C134.75,-897.99 131.62,-883.51 127.19,-870.03"/>
<polygon fill="#187ae8" stroke="#187ae8" stroke-width="2" points="131.1,-870.54 124.42,-862.31 124.51,-872.9 131.1,-870.54"/>
<text text-anchor="middle" x="140.68" y="-880.7" font-family="Times,serif" font-size="14.00">Да</text>
</g>
<!-- node0x103901e10 -->
<g id="node4" class="node">
<title>node0x103901e10</title>
<path fill="#bdef9e" stroke="#99c2a2" d="M227,-760.5C227,-760.5 399.5,-760.5 399.5,-760.5 405.5,-760.5 411.5,-766.5 411.5,-772.5 411.5,-772.5 411.5,-847 411.5,-847 411.5,-853 405.5,-859 399.5,-859 399.5,-859 227,-859 227,-859 221,-859 215,-853 215,-847 215,-847 215,-772.5 215,-772.5 215,-766.5 221,-760.5 227,-760.5"/>
<text text-anchor="middle" x="313.25" y="-841.7" font-family="Times,serif" font-size="14.00" fill="#000000">Poltorashka</text>
<text text-anchor="middle" x="313.25" y="-825.2" font-family="Times,serif" font-size="14.00" fill="#000000">0x103901e10</text>
<polyline fill="none" stroke="#99c2a2" points="215,-818 411.5,-818"/>
<text text-anchor="middle" x="241.75" y="-800.7" font-family="Times,serif" font-size="14.00" fill="#000000">Left</text>
<text text-anchor="middle" x="241.75" y="-784.2" font-family="Times,serif" font-size="14.00" fill="#000000">NONE</text>
<text text-anchor="middle" x="241.75" y="-767.7" font-family="Times,serif" font-size="14.00" fill="#000000">0x0</text>
<polyline fill="none" stroke="#99c2a2" points="268.5,-760.5 268.5,-818"/>
<text text-anchor="middle" x="313.25" y="-800.7" font-family="Times,serif" font-size="14.00" fill="#000000">Parent</text>
<text text-anchor="middle" x="313.25" y="-784.2" font-family="Times,serif" font-size="14.00" fill="#000000">Angry</text>
<text text-anchor="middle" x="313.25" y="-767.7" font-family="Times,serif" font-size="14.00" fill="#000000">0x103901a80</text>
<polyline fill="none" stroke="#99c2a2" points="358,-760.5 358,-818"/>
<text text-anchor="middle" x="384.75" y="-800.7" font-family="Times,serif" font-size="14.00" fill="#000000">Right</text>
<text text-anchor="middle" x="384.75" y="-784.2" font-family="Times,serif" font-size="14.00" fill="#000000">NONE</text>
<text text-anchor="middle" x="384.75" y="-767.7" font-family="Times,serif" font-size="14.00" fill="#000000">0x0</text>
</g>
<!-- node0x103901a80&#45;&gt;node0x103901e10 -->
<g id="edge3" class="edge">
<title>node0x103901a80:right&#45;&gt;node0x103901e10</title>
<path fill="none" stroke="#48e818" stroke-width="2" d="M313.75,-912C313.75,-898.61 313.71,-884.22 313.64,-870.62"/>
<polygon fill="#48e818" stroke="#48e818" stroke-width="2" points="317.15,-872.43 313.6,-862.44 310.15,-872.46 317.15,-872.43"/>
<text text-anchor="middle" x="324.6" y="-880.7" font-family="Times,serif" font-size="14.00">Нет</text>
</g>
<!-- node0x103901d80 -->
<g id="node6" class="node">
<title>node0x103901d80</title>
<path fill="#d5cfe1" stroke="#8797b2" d="M442,-760.5C442,-760.5 632.5,-760.5 632.5,-760.5 638.5,-760.5 644.5,-766.5 644.5,-772.5 644.5,-772.5 644.5,-847 644.5,-847 644.5,-853 638.5,-859 632.5,-859 632.5,-859 442,-859 442,-859 436,-859 430,-853 430,-847 430,-847 430,-772.5 430,-772.5 430,-766.5 436,-760.5 442,-760.5"/>
<text text-anchor="middle" x="537.25" y="-841.7" font-family="Times,serif" font-size="14.00" fill="#000000">Burtsev</text>
<text text-anchor="middle" x="537.25" y="-825.2" font-family="Times,serif" font-size="14.00" fill="#000000">0x103901d80</text>
<polyline fill="none" stroke="#8797b2" points="430,-818 644.5,-818"/>
<text text-anchor="middle" x="456.75" y="-800.7" font-family="Times,serif" font-size="14.00" fill="#000000">Left</text>
<text text-anchor="middle" x="456.75" y="-784.2" font-family="Times,serif" font-size="14.00" fill="#000000">NONE</text>
<text text-anchor="middle" x="456.75" y="-767.7" font-family="Times,serif" font-size="14.00" fill="#000000">0x0</text>
<polyline fill="none" stroke="#8797b2" points="483.5,-760.5 483.5,-818"/>
<text text-anchor="middle" x="537.25" y="-800.7" font-family="Times,serif" font-size="14.00" fill="#000000">Parent</text>
<text text-anchor="middle" x="537.25" y="-784.2" font-family="Times,serif" font-size="14.00" fill="#000000">Teaches analisys</text>
<text text-anchor="middle" x="537.25" y="-767.7" font-family="Times,serif" font-size="14.00" fill="#000000">0x103901de0</text>
<polyline fill="none" stroke="#8797b2" points="591,-760.5 591,-818"/>
<text text-anchor="middle" x="617.75" y="-800.7" font-family="Times,serif" font-size="14.00" fill="#000000">Right</text>
<text text-anchor="middle" x="617.75" y="-784.2" font-family="Times,serif" font-size="14.00" fill="#000000">NONE</text>
<text text-anchor="middle" x="617.75" y="-767.7" font-family="Times,serif" font-size="14.00" fill="#000000">0x0</text>
</g>
<!-- node0x103901de0&#45;&gt;node0x103901d80 -->
<g id="edge4" class="edge">
<title>node0x103901de0:left&#45;&gt;node0x103901d80</title>
<path fill="none" stroke="#187ae8" stroke-width="2" d="M537.25,-912C537.25,-898.61 537.25,-884.22 537.25,-870.62"/>
<polygon fill="#187ae8" stroke="#187ae8" stroke-width="2" points="540.75,-872.44 537.25,-862.44 533.75,-872.44 540.75,-872.44"/>
<text text-anchor="middle" x="545.12" y="-880.7" font-family="Times,serif" font-size="14.00">Да</text>
</g>
<!-- node0x103901d50 -->
<g id="node7" class="node">
<title>node0x103901d50</title>
<path fill="#bdef9e" stroke="#99c2a2" d="M675,-760.5C675,-760.5 949.5,-760.5 949.5,-760.5 955.5,-760.5 961.5,-766.5 961.5,-772.5 961.5,-772.5 961.5,-847 961.5,-847 961.5,-853 955.5,-859 949.5,-859 949.5,-859 675,-859 675,-859 669,-859 663,-853 663,-847 663,-847 663,-772.5 663,-772.5 663,-766.5 669,-760.5 675,-760.5"/>
<text text-anchor="middle" x="812.25" y="-841.7" font-family="Times,serif" font-size="14.00" fill="#000000">Teaches physics</text>
<text text-anchor="middle" x="812.25" y="-825.2" font-family="Times,serif" font-size="14.00" fill="#000000">0x103901d50</text>
<polyline fill="none" stroke="#99c2a2" points="663,-818 961.5,-818"/>
<text text-anchor="middle" x="708.12" y="-800.7" font-family="Times,serif" font-size="14.00" fill="#000000">Left</text>
<text text-anchor="middle" x="708.12" y="-784.2" font-family="Times,serif" font-size="14.00" fill="#000000">Nefor</text>
<text text-anchor="middle" x="708.12" y="-767.7" font-family="Times,serif" font-size="14.00" fill="#000000">0x103901d20</text>
<polyline fill="none" stroke="#99c2a2" points="753.25,-760.5 753.25,-818"/>
<text text-anchor="middle" x="807" y="-800.7" font-family="Times,serif" font-size="14.00" fill="#000000">Parent</text>
<text text-anchor="middle" x="807" y="-784.2" font-family="Times,serif" font-size="14.00" fill="#000000">Teaches analisys</text>
<text text-anchor="middle" x="807" y="-767.7" font-family="Times,serif" font-size="14.00" fill="#000000">0x103901de0</text>
<polyline fill="none" stroke="#99c2a2" points="860.75,-760.5 860.75,-818"/>
<text text-anchor="middle" x="911.12" y="-800.7" font-family="Times,serif" font-size="14.00" fill="#000000">Right</text>
<text text-anchor="middle" x="911.12" y="-784.2" font-family="Times,serif" font-size="14.00" fill="#000000">Teaches angem</text>
<text text-anchor="middle" x="911.12" y="-767.7" font-family="Times,serif" font-size="14.00" fill="#000000">0x103901c90</text>
</g>
<!-- node0x103901de0&#45;&gt;node0x103901d50 -->
<g id="edge17" class="edge">
<title>node0x103901de0:right&#45;&gt;node0x103901d50</title>
<path fill="none" stroke="#48e818" stroke-width="2" d="M724.12,-912C724.12,-895.91 730.54,-881.13 739.91,-868.12"/>
<polygon fill="#48e818" stroke="#48e818" stroke-width="2" points="741.46,-871.79 744.94,-861.78 735.98,-867.44 741.46,-871.79"/>
<text text-anchor="middle" x="744.16" y="-880.7" font-family="Times,serif" font-size="14.00">Нет</text>
</g>
<!-- node0x103901d20 -->
<g id="node8" class="node">
<title>node0x103901d20</title>
<path fill="#d5cfe1" stroke="#8797b2" d="M449,-608.5C449,-608.5 705.5,-608.5 705.5,-608.5 711.5,-608.5 717.5,-614.5 717.5,-620.5 717.5,-620.5 717.5,-695 717.5,-695 717.5,-701 711.5,-707 705.5,-707 705.5,-707 449,-707 449,-707 443,-707 437,-701 437,-695 437,-695 437,-620.5 437,-620.5 437,-614.5 443,-608.5 449,-608.5"/>
<text text-anchor="middle" x="577.25" y="-689.7" font-family="Times,serif" font-size="14.00" fill="#000000">Nefor</text>
<text text-anchor="middle" x="577.25" y="-673.2" font-family="Times,serif" font-size="14.00" fill="#000000">0x103901d20</text>
<polyline fill="none" stroke="#8797b2" points="437,-666 717.5,-666"/>
<text text-anchor="middle" x="480.62" y="-648.7" font-family="Times,serif" font-size="14.00" fill="#000000">Left</text>
<text text-anchor="middle" x="480.62" y="-632.2" font-family="Times,serif" font-size="14.00" fill="#000000">Magic</text>
<text text-anchor="middle" x="480.62" y="-615.7" font-family="Times,serif" font-size="14.00" fill="#000000">0x103901cf0</text>
<polyline fill="none" stroke="#8797b2" points="524.25,-608.5 524.25,-666"/>
<text text-anchor="middle" x="576.5" y="-648.7" font-family="Times,serif" font-size="14.00" fill="#000000">Parent</text>
<text text-anchor="middle" x="576.5" y="-632.2" font-family="Times,serif" font-size="14.00" fill="#000000">Teaches physics</text>
<text text-anchor="middle" x="576.5" y="-615.7" font-family="Times,serif" font-size="14.00" fill="#000000">0x103901d50</text>
<polyline fill="none" stroke="#8797b2" points="628.75,-608.5 628.75,-666"/>
<text text-anchor="middle" x="673.12" y="-648.7" font-family="Times,serif" font-size="14.00" fill="#000000">Right</text>
<text text-anchor="middle" x="673.12" y="-632.2" font-family="Times,serif" font-size="14.00" fill="#000000">Ovchos</text>
<text text-anchor="middle" x="673.12" y="-615.7" font-family="Times,serif" font-size="14.00" fill="#000000">0x103901cc0</text>
</g>
<!-- node0x103901d50&#45;&gt;node0x103901d20 -->
<g id="edge5" class="edge">
<title>node0x103901d50:left&#45;&gt;node0x103901d20</title>
<path fill="none" stroke="#187ae8" stroke-width="2" d="M708.12,-760C708.12,-742.56 700.77,-727.7 689.54,-715.17"/>
<polygon fill="#187ae8" stroke="#187ae8" stroke-width="2" points="693.33,-714.01 683.78,-709.42 688.38,-718.96 693.33,-714.01"/>
<text text-anchor="middle" x="712.34" y="-728.7" font-family="Times,serif" font-size="14.00">Да</text>
</g>
<!-- node0x103901c90 -->
<g id="node11" class="node">
<title>node0x103901c90</title>
<path fill="#bdef9e" stroke="#99c2a2" d="M860.5,-608.5C860.5,-608.5 1120,-608.5 1120,-608.5 1126,-608.5 1132,-614.5 1132,-620.5 1132,-620.5 1132,-695 1132,-695 1132,-701 1126,-707 1120,-707 1120,-707 860.5,-707 860.5,-707 854.5,-707 848.5,-701 848.5,-695 848.5,-695 848.5,-620.5 848.5,-620.5 848.5,-614.5 854.5,-608.5 860.5,-608.5"/>
<text text-anchor="middle" x="990.25" y="-689.7" font-family="Times,serif" font-size="14.00" fill="#000000">Teaches angem</text>
<text text-anchor="middle" x="990.25" y="-673.2" font-family="Times,serif" font-size="14.00" fill="#000000">0x103901c90</text>
<polyline fill="none" stroke="#99c2a2" points="848.5,-666 1132,-666"/>
<text text-anchor="middle" x="893.25" y="-648.7" font-family="Times,serif" font-size="14.00" fill="#000000">Left</text>
<text text-anchor="middle" x="893.25" y="-632.2" font-family="Times,serif" font-size="14.00" fill="#000000">Chubarik</text>
<text text-anchor="middle" x="893.25" y="-615.7" font-family="Times,serif" font-size="14.00" fill="#000000">0x103901c60</text>
<polyline fill="none" stroke="#99c2a2" points="938,-608.5 938,-666"/>
<text text-anchor="middle" x="990.25" y="-648.7" font-family="Times,serif" font-size="14.00" fill="#000000">Parent</text>
<text text-anchor="middle" x="990.25" y="-632.2" font-family="Times,serif" font-size="14.00" fill="#000000">Teaches physics</text>
<text text-anchor="middle" x="990.25" y="-615.7" font-family="Times,serif" font-size="14.00" fill="#000000">0x103901d50</text>
<polyline fill="none" stroke="#99c2a2" points="1042.5,-608.5 1042.5,-666"/>
<text text-anchor="middle" x="1087.25" y="-648.7" font-family="Times,serif" font-size="14.00" fill="#000000">Right</text>
<text text-anchor="middle" x="1087.25" y="-632.2" font-family="Times,serif" font-size="14.00" fill="#000000">Do sport</text>
<text text-anchor="middle" x="1087.25" y="-615.7" font-family="Times,serif" font-size="14.00" fill="#000000">0x103901c30</text>
</g>
<!-- node0x103901d50&#45;&gt;node0x103901c90 -->
<g id="edge16" class="edge">
<title>node0x103901d50:right&#45;&gt;node0x103901c90</title>
<path fill="none" stroke="#48e818" stroke-width="2" d="M962.5,-789.25C993.72,-789.25 999.76,-753.08 998.48,-718.83"/>
<polygon fill="#48e818" stroke="#48e818" stroke-width="2" points="1002.06,-720.14 997.97,-710.37 995.07,-720.56 1002.06,-720.14"/>
<text text-anchor="middle" x="1009.51" y="-728.7" font-family="Times,serif" font-size="14.00">Нет</text>
</g>
<!-- node0x103901cf0 -->
<g id="node9" class="node">
<title>node0x103901cf0</title>
<path fill="#d5cfe1" stroke="#8797b2" d="M370.62,-456.5C370.62,-456.5 543.88,-456.5 543.88,-456.5 549.88,-456.5 555.88,-462.5 555.88,-468.5 555.88,-468.5 555.88,-543 555.88,-543 555.88,-549 549.88,-555 543.88,-555 543.88,-555 370.62,-555 370.62,-555 364.62,-555 358.62,-549 358.62,-543 358.62,-543 358.62,-468.5 358.62,-468.5 358.62,-462.5 364.62,-456.5 370.62,-456.5"/>
<text text-anchor="middle" x="457.25" y="-537.7" font-family="Times,serif" font-size="14.00" fill="#000000">Magic</text>
<text text-anchor="middle" x="457.25" y="-521.2" font-family="Times,serif" font-size="14.00" fill="#000000">0x103901cf0</text>
<polyline fill="none" stroke="#8797b2" points="358.62,-514 555.88,-514"/>
<text text-anchor="middle" x="385.38" y="-496.7" font-family="Times,serif" font-size="14.00" fill="#000000">Left</text>
<text text-anchor="middle" x="385.38" y="-480.2" font-family="Times,serif" font-size="14.00" fill="#000000">NONE</text>
<text text-anchor="middle" x="385.38" y="-463.7" font-family="Times,serif" font-size="14.00" fill="#000000">0x0</text>
<polyline fill="none" stroke="#8797b2" points="412.12,-456.5 412.12,-514"/>
<text text-anchor="middle" x="457.25" y="-496.7" font-family="Times,serif" font-size="14.00" fill="#000000">Parent</text>
<text text-anchor="middle" x="457.25" y="-480.2" font-family="Times,serif" font-size="14.00" fill="#000000">Nefor</text>
<text text-anchor="middle" x="457.25" y="-463.7" font-family="Times,serif" font-size="14.00" fill="#000000">0x103901d20</text>
<polyline fill="none" stroke="#8797b2" points="502.38,-456.5 502.38,-514"/>
<text text-anchor="middle" x="529.12" y="-496.7" font-family="Times,serif" font-size="14.00" fill="#000000">Right</text>
<text text-anchor="middle" x="529.12" y="-480.2" font-family="Times,serif" font-size="14.00" fill="#000000">NONE</text>
<text text-anchor="middle" x="529.12" y="-463.7" font-family="Times,serif" font-size="14.00" fill="#000000">0x0</text>
</g>
<!-- node0x103901d20&#45;&gt;node0x103901cf0 -->
<g id="edge6" class="edge">
<title>node0x103901d20:left&#45;&gt;node0x103901cf0</title>
<path fill="none" stroke="#187ae8" stroke-width="2" d="M480.62,-608C480.62,-594.4 478.6,-580.03 475.74,-566.52"/>
<polygon fill="#187ae8" stroke="#187ae8" stroke-width="2" points="479.51,-567.31 473.85,-558.36 472.69,-568.89 479.51,-567.31"/>
<text text-anchor="middle" x="487.25" y="-576.7" font-family="Times,serif" font-size="14.00">Да</text>
</g>
<!-- node0x103901cc0 -->
<g id="node10" class="node">
<title>node0x103901cc0</title>
<path fill="#bdef9e" stroke="#99c2a2" d="M585.62,-456.5C585.62,-456.5 758.88,-456.5 758.88,-456.5 764.88,-456.5 770.88,-462.5 770.88,-468.5 770.88,-468.5 770.88,-543 770.88,-543 770.88,-549 764.88,-555 758.88,-555 758.88,-555 585.62,-555 585.62,-555 579.62,-555 573.62,-549 573.62,-543 573.62,-543 573.62,-468.5 573.62,-468.5 573.62,-462.5 579.62,-456.5 585.62,-456.5"/>
<text text-anchor="middle" x="672.25" y="-537.7" font-family="Times,serif" font-size="14.00" fill="#000000">Ovchos</text>
<text text-anchor="middle" x="672.25" y="-521.2" font-family="Times,serif" font-size="14.00" fill="#000000">0x103901cc0</text>
<polyline fill="none" stroke="#99c2a2" points="573.62,-514 770.88,-514"/>
<text text-anchor="middle" x="600.38" y="-496.7" font-family="Times,serif" font-size="14.00" fill="#000000">Left</text>
<text text-anchor="middle" x="600.38" y="-480.2" font-family="Times,serif" font-size="14.00" fill="#000000">NONE</text>
<text text-anchor="middle" x="600.38" y="-463.7" font-family="Times,serif" font-size="14.00" fill="#000000">0x0</text>
<polyline fill="none" stroke="#99c2a2" points="627.12,-456.5 627.12,-514"/>
<text text-anchor="middle" x="672.25" y="-496.7" font-family="Times,serif" font-size="14.00" fill="#000000">Parent</text>
<text text-anchor="middle" x="672.25" y="-480.2" font-family="Times,serif" font-size="14.00" fill="#000000">Nefor</text>
<text text-anchor="middle" x="672.25" y="-463.7" font-family="Times,serif" font-size="14.00" fill="#000000">0x103901d20</text>
<polyline fill="none" stroke="#99c2a2" points="717.38,-456.5 717.38,-514"/>
<text text-anchor="middle" x="744.12" y="-496.7" font-family="Times,serif" font-size="14.00" fill="#000000">Right</text>
<text text-anchor="middle" x="744.12" y="-480.2" font-family="Times,serif" font-size="14.00" fill="#000000">NONE</text>
<text text-anchor="middle" x="744.12" y="-463.7" font-family="Times,serif" font-size="14.00" fill="#000000">0x0</text>
</g>
<!-- node0x103901d20&#45;&gt;node0x103901cc0 -->
<g id="edge7" class="edge">
<title>node0x103901d20:right&#45;&gt;node0x103901cc0</title>
<path fill="none" stroke="#48e818" stroke-width="2" d="M673.12,-608C673.12,-594.61 673.05,-580.22 672.94,-566.62"/>
<polygon fill="#48e818" stroke="#48e818" stroke-width="2" points="676.45,-568.41 672.87,-558.44 669.45,-568.47 676.45,-568.41"/>
<text text-anchor="middle" x="683.95" y="-576.7" font-family="Times,serif" font-size="14.00">Нет</text>
</g>
<!-- node0x103901c60 -->
<g id="node12" class="node">
<title>node0x103901c60</title>
<path fill="#d5cfe1" stroke="#8797b2" d="M801.38,-456.5C801.38,-456.5 985.12,-456.5 985.12,-456.5 991.12,-456.5 997.12,-462.5 997.12,-468.5 997.12,-468.5 997.12,-543 997.12,-543 997.12,-549 991.12,-555 985.12,-555 985.12,-555 801.38,-555 801.38,-555 795.38,-555 789.38,-549 789.38,-543 789.38,-543 789.38,-468.5 789.38,-468.5 789.38,-462.5 795.38,-456.5 801.38,-456.5"/>
<text text-anchor="middle" x="893.25" y="-537.7" font-family="Times,serif" font-size="14.00" fill="#000000">Chubarik</text>
<text text-anchor="middle" x="893.25" y="-521.2" font-family="Times,serif" font-size="14.00" fill="#000000">0x103901c60</text>
<polyline fill="none" stroke="#8797b2" points="789.38,-514 997.12,-514"/>
<text text-anchor="middle" x="816.12" y="-496.7" font-family="Times,serif" font-size="14.00" fill="#000000">Left</text>
<text text-anchor="middle" x="816.12" y="-480.2" font-family="Times,serif" font-size="14.00" fill="#000000">NONE</text>
<text text-anchor="middle" x="816.12" y="-463.7" font-family="Times,serif" font-size="14.00" fill="#000000">0x0</text>
<polyline fill="none" stroke="#8797b2" points="842.88,-456.5 842.88,-514"/>
<text text-anchor="middle" x="893.25" y="-496.7" font-family="Times,serif" font-size="14.00" fill="#000000">Parent</text>
<text text-anchor="middle" x="893.25" y="-480.2" font-family="Times,serif" font-size="14.00" fill="#000000">Teaches angem</text>
<text text-anchor="middle" x="893.25" y="-463.7" font-family="Times,serif" font-size="14.00" fill="#000000">0x103901c90</text>
<polyline fill="none" stroke="#8797b2" points="943.62,-456.5 943.62,-514"/>
<text text-anchor="middle" x="970.38" y="-496.7" font-family="Times,serif" font-size="14.00" fill="#000000">Right</text>
<text text-anchor="middle" x="970.38" y="-480.2" font-family="Times,serif" font-size="14.00" fill="#000000">NONE</text>
<text text-anchor="middle" x="970.38" y="-463.7" font-family="Times,serif" font-size="14.00" fill="#000000">0x0</text>
</g>
<!-- node0x103901c90&#45;&gt;node0x103901c60 -->
<g id="edge8" class="edge">
<title>node0x103901c90:left&#45;&gt;node0x103901c60</title>
<path fill="none" stroke="#187ae8" stroke-width="2" d="M893.25,-608C893.25,-594.61 893.25,-580.22 893.25,-566.62"/>
<polygon fill="#187ae8" stroke="#187ae8" stroke-width="2" points="896.75,-568.44 893.25,-558.44 889.75,-568.44 896.75,-568.44"/>
<text text-anchor="middle" x="901.12" y="-576.7" font-family="Times,serif" font-size="14.00">Да</text>
</g>
<!-- node0x103901c30 -->
<g id="node13" class="node">
<title>node0x103901c30</title>
<path fill="#bdef9e" stroke="#99c2a2" d="M1026.75,-456.5C1026.75,-456.5 1281.75,-456.5 1281.75,-456.5 1287.75,-456.5 1293.75,-462.5 1293.75,-468.5 1293.75,-468.5 1293.75,-543 1293.75,-543 1293.75,-549 1287.75,-555 1281.75,-555 1281.75,-555 1026.75,-555 1026.75,-555 1020.75,-555 1014.75,-549 1014.75,-543 1014.75,-543 1014.75,-468.5 1014.75,-468.5 1014.75,-462.5 1020.75,-456.5 1026.75,-456.5"/>
<text text-anchor="middle" x="1154.25" y="-537.7" font-family="Times,serif" font-size="14.00" fill="#000000">Do sport</text>
<text text-anchor="middle" x="1154.25" y="-521.2" font-family="Times,serif" font-size="14.00" fill="#000000">0x103901c30</text>
<polyline fill="none" stroke="#99c2a2" points="1014.75,-514 1293.75,-514"/>
<text text-anchor="middle" x="1059.5" y="-496.7" font-family="Times,serif" font-size="14.00" fill="#000000">Left</text>
<text text-anchor="middle" x="1059.5" y="-480.2" font-family="Times,serif" font-size="14.00" fill="#000000">Coach</text>
<text text-anchor="middle" x="1059.5" y="-463.7" font-family="Times,serif" font-size="14.00" fill="#000000">0x103901c00</text>
<polyline fill="none" stroke="#99c2a2" points="1104.25,-456.5 1104.25,-514"/>
<text text-anchor="middle" x="1154.62" y="-496.7" font-family="Times,serif" font-size="14.00" fill="#000000">Parent</text>
<text text-anchor="middle" x="1154.62" y="-480.2" font-family="Times,serif" font-size="14.00" fill="#000000">Teaches angem</text>
<text text-anchor="middle" x="1154.62" y="-463.7" font-family="Times,serif" font-size="14.00" fill="#000000">0x103901c90</text>
<polyline fill="none" stroke="#99c2a2" points="1205,-456.5 1205,-514"/>
<text text-anchor="middle" x="1249.38" y="-496.7" font-family="Times,serif" font-size="14.00" fill="#000000">Right</text>
<text text-anchor="middle" x="1249.38" y="-480.2" font-family="Times,serif" font-size="14.00" fill="#000000">Kvadrober</text>
<text text-anchor="middle" x="1249.38" y="-463.7" font-family="Times,serif" font-size="14.00" fill="#000000">0x103901ae0</text>
</g>
<!-- node0x103901c90&#45;&gt;node0x103901c30 -->
<g id="edge15" class="edge">
<title>node0x103901c90:right&#45;&gt;node0x103901c30</title>
<path fill="none" stroke="#48e818" stroke-width="2" d="M1087.25,-608C1087.25,-592.73 1092.61,-578 1100.3,-564.73"/>
<polygon fill="#48e818" stroke="#48e818" stroke-width="2" points="1102.24,-568.2 1104.65,-557.88 1096.33,-564.45 1102.24,-568.2"/>
<text text-anchor="middle" x="1106.43" y="-576.7" font-family="Times,serif" font-size="14.00">Нет</text>
</g>
<!-- node0x103901c00 -->
<g id="node14" class="node">
<title>node0x103901c00</title>
<path fill="#d5cfe1" stroke="#8797b2" d="M884,-304.5C884,-304.5 1158.5,-304.5 1158.5,-304.5 1164.5,-304.5 1170.5,-310.5 1170.5,-316.5 1170.5,-316.5 1170.5,-391 1170.5,-391 1170.5,-397 1164.5,-403 1158.5,-403 1158.5,-403 884,-403 884,-403 878,-403 872,-397 872,-391 872,-391 872,-316.5 872,-316.5 872,-310.5 878,-304.5 884,-304.5"/>
<text text-anchor="middle" x="1021.25" y="-385.7" font-family="Times,serif" font-size="14.00" fill="#000000">Coach</text>
<text text-anchor="middle" x="1021.25" y="-369.2" font-family="Times,serif" font-size="14.00" fill="#000000">0x103901c00</text>
<polyline fill="none" stroke="#8797b2" points="872,-362 1170.5,-362"/>
<text text-anchor="middle" x="931.38" y="-344.7" font-family="Times,serif" font-size="14.00" fill="#000000">Left</text>
<text text-anchor="middle" x="931.38" y="-328.2" font-family="Times,serif" font-size="14.00" fill="#000000">Valentin Guardiola</text>
<text text-anchor="middle" x="931.38" y="-311.7" font-family="Times,serif" font-size="14.00" fill="#000000">0x103901bd0</text>
<polyline fill="none" stroke="#8797b2" points="990.75,-304.5 990.75,-362"/>
<text text-anchor="middle" x="1035.5" y="-344.7" font-family="Times,serif" font-size="14.00" fill="#000000">Parent</text>
<text text-anchor="middle" x="1035.5" y="-328.2" font-family="Times,serif" font-size="14.00" fill="#000000">Do sport</text>
<text text-anchor="middle" x="1035.5" y="-311.7" font-family="Times,serif" font-size="14.00" fill="#000000">0x103901c30</text>
<polyline fill="none" stroke="#8797b2" points="1080.25,-304.5 1080.25,-362"/>
<text text-anchor="middle" x="1125.38" y="-344.7" font-family="Times,serif" font-size="14.00" fill="#000000">Right</text>
<text text-anchor="middle" x="1125.38" y="-328.2" font-family="Times,serif" font-size="14.00" fill="#000000">IN KARTEL</text>
<text text-anchor="middle" x="1125.38" y="-311.7" font-family="Times,serif" font-size="14.00" fill="#000000">0x103901b70</text>
</g>
<!-- node0x103901c30&#45;&gt;node0x103901c00 -->
<g id="edge9" class="edge">
<title>node0x103901c30:left&#45;&gt;node0x103901c00</title>
<path fill="none" stroke="#187ae8" stroke-width="2" d="M1059.5,-456C1059.5,-441.91 1056.22,-427.4 1051.58,-413.91"/>
<polygon fill="#187ae8" stroke="#187ae8" stroke-width="2" points="1055.47,-414.3 1048.67,-406.17 1048.92,-416.76 1055.47,-414.3"/>
<text text-anchor="middle" x="1065.34" y="-424.7" font-family="Times,serif" font-size="14.00">Да</text>
</g>
<!-- node0x103901ae0 -->
<g id="node19" class="node">
<title>node0x103901ae0</title>
<path fill="#bdef9e" stroke="#99c2a2" d="M1201,-304.5C1201,-304.5 1373.5,-304.5 1373.5,-304.5 1379.5,-304.5 1385.5,-310.5 1385.5,-316.5 1385.5,-316.5 1385.5,-391 1385.5,-391 1385.5,-397 1379.5,-403 1373.5,-403 1373.5,-403 1201,-403 1201,-403 1195,-403 1189,-397 1189,-391 1189,-391 1189,-316.5 1189,-316.5 1189,-310.5 1195,-304.5 1201,-304.5"/>
<text text-anchor="middle" x="1287.25" y="-385.7" font-family="Times,serif" font-size="14.00" fill="#000000">Kvadrober</text>
<text text-anchor="middle" x="1287.25" y="-369.2" font-family="Times,serif" font-size="14.00" fill="#000000">0x103901ae0</text>
<polyline fill="none" stroke="#99c2a2" points="1189,-362 1385.5,-362"/>
<text text-anchor="middle" x="1215.75" y="-344.7" font-family="Times,serif" font-size="14.00" fill="#000000">Left</text>
<text text-anchor="middle" x="1215.75" y="-328.2" font-family="Times,serif" font-size="14.00" fill="#000000">NONE</text>
<text text-anchor="middle" x="1215.75" y="-311.7" font-family="Times,serif" font-size="14.00" fill="#000000">0x0</text>
<polyline fill="none" stroke="#99c2a2" points="1242.5,-304.5 1242.5,-362"/>
<text text-anchor="middle" x="1287.25" y="-344.7" font-family="Times,serif" font-size="14.00" fill="#000000">Parent</text>
<text text-anchor="middle" x="1287.25" y="-328.2" font-family="Times,serif" font-size="14.00" fill="#000000">Do sport</text>
<text text-anchor="middle" x="1287.25" y="-311.7" font-family="Times,serif" font-size="14.00" fill="#000000">0x103901c30</text>
<polyline fill="none" stroke="#99c2a2" points="1332,-304.5 1332,-362"/>
<text text-anchor="middle" x="1358.75" y="-344.7" font-family="Times,serif" font-size="14.00" fill="#000000">Right</text>
<text text-anchor="middle" x="1358.75" y="-328.2" font-family="Times,serif" font-size="14.00" fill="#000000">NONE</text>
<text text-anchor="middle" x="1358.75" y="-311.7" font-family="Times,serif" font-size="14.00" fill="#000000">0x0</text>
</g>
<!-- node0x103901c30&#45;&gt;node0x103901ae0 -->
<g id="edge14" class="edge">
<title>node0x103901c30:right&#45;&gt;node0x103901ae0</title>
<path fill="none" stroke="#48e818" stroke-width="2" d="M1249.38,-456C1249.38,-441.93 1252.62,-427.42 1257.22,-413.93"/>
<polygon fill="#48e818" stroke="#48e818" stroke-width="2" points="1259.89,-416.79 1260.09,-406.2 1253.33,-414.35 1259.89,-416.79"/>
<text text-anchor="middle" x="1264.94" y="-424.7" font-family="Times,serif" font-size="14.00">Нет</text>
</g>
<!-- node0x103901bd0 -->
<g id="node15" class="node">
<title>node0x103901bd0</title>
<path fill="#d5cfe1" stroke="#8797b2" d="M817,-152.5C817,-152.5 989.5,-152.5 989.5,-152.5 995.5,-152.5 1001.5,-158.5 1001.5,-164.5 1001.5,-164.5 1001.5,-239 1001.5,-239 1001.5,-245 995.5,-251 989.5,-251 989.5,-251 817,-251 817,-251 811,-251 805,-245 805,-239 805,-239 805,-164.5 805,-164.5 805,-158.5 811,-152.5 817,-152.5"/>
<text text-anchor="middle" x="903.25" y="-233.7" font-family="Times,serif" font-size="14.00" fill="#000000">Valentin Guardiola</text>
<text text-anchor="middle" x="903.25" y="-217.2" font-family="Times,serif" font-size="14.00" fill="#000000">0x103901bd0</text>
<polyline fill="none" stroke="#8797b2" points="805,-210 1001.5,-210"/>
<text text-anchor="middle" x="831.75" y="-192.7" font-family="Times,serif" font-size="14.00" fill="#000000">Left</text>
<text text-anchor="middle" x="831.75" y="-176.2" font-family="Times,serif" font-size="14.00" fill="#000000">NONE</text>
<text text-anchor="middle" x="831.75" y="-159.7" font-family="Times,serif" font-size="14.00" fill="#000000">0x0</text>
<polyline fill="none" stroke="#8797b2" points="858.5,-152.5 858.5,-210"/>
<text text-anchor="middle" x="903.25" y="-192.7" font-family="Times,serif" font-size="14.00" fill="#000000">Parent</text>
<text text-anchor="middle" x="903.25" y="-176.2" font-family="Times,serif" font-size="14.00" fill="#000000">Coach</text>
<text text-anchor="middle" x="903.25" y="-159.7" font-family="Times,serif" font-size="14.00" fill="#000000">0x103901c00</text>
<polyline fill="none" stroke="#8797b2" points="948,-152.5 948,-210"/>
<text text-anchor="middle" x="974.75" y="-192.7" font-family="Times,serif" font-size="14.00" fill="#000000">Right</text>
<text text-anchor="middle" x="974.75" y="-176.2" font-family="Times,serif" font-size="14.00" fill="#000000">NONE</text>
<text text-anchor="middle" x="974.75" y="-159.7" font-family="Times,serif" font-size="14.00" fill="#000000">0x0</text>
</g>
<!-- node0x103901c00&#45;&gt;node0x103901bd0 -->
<g id="edge10" class="edge">
<title>node0x103901c00:left&#45;&gt;node0x103901bd0</title>
<path fill="none" stroke="#187ae8" stroke-width="2" d="M931.38,-304C931.38,-290.32 928.96,-275.96 925.55,-262.5"/>
<polygon fill="#187ae8" stroke="#187ae8" stroke-width="2" points="929.33,-263.06 923.29,-254.36 922.59,-264.93 929.33,-263.06"/>
<text text-anchor="middle" x="937.75" y="-272.7" font-family="Times,serif" font-size="14.00">Да</text>
</g>
<!-- node0x103901b70 -->
<g id="node16" class="node">
<title>node0x103901b70</title>
<path fill="#bdef9e" stroke="#99c2a2" d="M1031.25,-152.5C1031.25,-152.5 1277.25,-152.5 1277.25,-152.5 1283.25,-152.5 1289.25,-158.5 1289.25,-164.5 1289.25,-164.5 1289.25,-239 1289.25,-239 1289.25,-245 1283.25,-251 1277.25,-251 1277.25,-251 1031.25,-251 1031.25,-251 1025.25,-251 1019.25,-245 1019.25,-239 1019.25,-239 1019.25,-164.5 1019.25,-164.5 1019.25,-158.5 1025.25,-152.5 1031.25,-152.5"/>
<text text-anchor="middle" x="1154.25" y="-233.7" font-family="Times,serif" font-size="14.00" fill="#000000">IN KARTEL</text>
<text text-anchor="middle" x="1154.25" y="-217.2" font-family="Times,serif" font-size="14.00" fill="#000000">0x103901b70</text>
<polyline fill="none" stroke="#99c2a2" points="1019.25,-210 1289.25,-210"/>
<text text-anchor="middle" x="1064.38" y="-192.7" font-family="Times,serif" font-size="14.00" fill="#000000">Left</text>
<text text-anchor="middle" x="1064.38" y="-176.2" font-family="Times,serif" font-size="14.00" fill="#000000">LEGEND</text>
<text text-anchor="middle" x="1064.38" y="-159.7" font-family="Times,serif" font-size="14.00" fill="#000000">0x103901b40</text>
<polyline fill="none" stroke="#99c2a2" points="1109.5,-152.5 1109.5,-210"/>
<text text-anchor="middle" x="1154.25" y="-192.7" font-family="Times,serif" font-size="14.00" fill="#000000">Parent</text>
<text text-anchor="middle" x="1154.25" y="-176.2" font-family="Times,serif" font-size="14.00" fill="#000000">Coach</text>
<text text-anchor="middle" x="1154.25" y="-159.7" font-family="Times,serif" font-size="14.00" fill="#000000">0x103901c00</text>
<polyline fill="none" stroke="#99c2a2" points="1199,-152.5 1199,-210"/>
<text text-anchor="middle" x="1244.12" y="-192.7" font-family="Times,serif" font-size="14.00" fill="#000000">Right</text>
<text text-anchor="middle" x="1244.12" y="-176.2" font-family="Times,serif" font-size="14.00" fill="#000000">LX</text>
<text text-anchor="middle" x="1244.12" y="-159.7" font-family="Times,serif" font-size="14.00" fill="#000000">0x103901b10</text>
</g>
<!-- node0x103901c00&#45;&gt;node0x103901b70 -->
<g id="edge13" class="edge">
<title>node0x103901c00:right&#45;&gt;node0x103901b70</title>
<path fill="none" stroke="#48e818" stroke-width="2" d="M1125.38,-304C1125.38,-290.29 1127.85,-275.92 1131.36,-262.46"/>
<polygon fill="#48e818" stroke="#48e818" stroke-width="2" points="1134.31,-264.89 1133.68,-254.31 1127.57,-262.97 1134.31,-264.89"/>
<text text-anchor="middle" x="1140.44" y="-272.7" font-family="Times,serif" font-size="14.00">Нет</text>
</g>
<!-- node0x103901b40 -->
<g id="node17" class="node">
<title>node0x103901b40</title>
<path fill="#d5cfe1" stroke="#8797b2" d="M960.62,-0.5C960.62,-0.5 1133.88,-0.5 1133.88,-0.5 1139.88,-0.5 1145.88,-6.5 1145.88,-12.5 1145.88,-12.5 1145.88,-87 1145.88,-87 1145.88,-93 1139.88,-99 1133.88,-99 1133.88,-99 960.62,-99 960.62,-99 954.62,-99 948.62,-93 948.62,-87 948.62,-87 948.62,-12.5 948.62,-12.5 948.62,-6.5 954.62,-0.5 960.62,-0.5"/>
<text text-anchor="middle" x="1047.25" y="-81.7" font-family="Times,serif" font-size="14.00" fill="#000000">LEGEND</text>
<text text-anchor="middle" x="1047.25" y="-65.2" font-family="Times,serif" font-size="14.00" fill="#000000">0x103901b40</text>
<polyline fill="none" stroke="#8797b2" points="948.62,-58 1145.88,-58"/>
<text text-anchor="middle" x="975.38" y="-40.7" font-family="Times,serif" font-size="14.00" fill="#000000">Left</text>
<text text-anchor="middle" x="975.38" y="-24.2" font-family="Times,serif" font-size="14.00" fill="#000000">NONE</text>
<text text-anchor="middle" x="975.38" y="-7.7" font-family="Times,serif" font-size="14.00" fill="#000000">0x0</text>
<polyline fill="none" stroke="#8797b2" points="1002.12,-0.5 1002.12,-58"/>
<text text-anchor="middle" x="1047.25" y="-40.7" font-family="Times,serif" font-size="14.00" fill="#000000">Parent</text>
<text text-anchor="middle" x="1047.25" y="-24.2" font-family="Times,serif" font-size="14.00" fill="#000000">IN KARTEL</text>
<text text-anchor="middle" x="1047.25" y="-7.7" font-family="Times,serif" font-size="14.00" fill="#000000">0x103901b70</text>
<polyline fill="none" stroke="#8797b2" points="1092.38,-0.5 1092.38,-58"/>
<text text-anchor="middle" x="1119.12" y="-40.7" font-family="Times,serif" font-size="14.00" fill="#000000">Right</text>
<text text-anchor="middle" x="1119.12" y="-24.2" font-family="Times,serif" font-size="14.00" fill="#000000">NONE</text>
<text text-anchor="middle" x="1119.12" y="-7.7" font-family="Times,serif" font-size="14.00" fill="#000000">0x0</text>
</g>
<!-- node0x103901b70&#45;&gt;node0x103901b40 -->
<g id="edge11" class="edge">
<title>node0x103901b70:left&#45;&gt;node0x103901b40</title>
<path fill="none" stroke="#187ae8" stroke-width="2" d="M1064.38,-152C1064.38,-138.49 1062.87,-124.11 1060.76,-110.55"/>
<polygon fill="#187ae8" stroke="#187ae8" stroke-width="2" points="1064.5,-111.65 1059.37,-102.38 1057.6,-112.82 1064.5,-111.65"/>
<text text-anchor="middle" x="1071.34" y="-120.7" font-family="Times,serif" font-size="14.00">Да</text>
</g>
<!-- node0x103901b10 -->
<g id="node18" class="node">
<title>node0x103901b10</title>
<path fill="#bdef9e" stroke="#99c2a2" d="M1175.62,-0.5C1175.62,-0.5 1348.88,-0.5 1348.88,-0.5 1354.88,-0.5 1360.88,-6.5 1360.88,-12.5 1360.88,-12.5 1360.88,-87 1360.88,-87 1360.88,-93 1354.88,-99 1348.88,-99 1348.88,-99 1175.62,-99 1175.62,-99 1169.62,-99 1163.62,-93 1163.62,-87 1163.62,-87 1163.62,-12.5 1163.62,-12.5 1163.62,-6.5 1169.62,-0.5 1175.62,-0.5"/>
<text text-anchor="middle" x="1262.25" y="-81.7" font-family="Times,serif" font-size="14.00" fill="#000000">LX</text>
<text text-anchor="middle" x="1262.25" y="-65.2" font-family="Times,serif" font-size="14.00" fill="#000000">0x103901b10</text>
<polyline fill="none" stroke="#99c2a2" points="1163.62,-58 1360.88,-58"/>
<text text-anchor="middle" x="1190.38" y="-40.7" font-family="Times,serif" font-size="14.00" fill="#000000">Left</text>
<text text-anchor="middle" x="1190.38" y="-24.2" font-family="Times,serif" font-size="14.00" fill="#000000">NONE</text>
<text text-anchor="middle" x="1190.38" y="-7.7" font-family="Times,serif" font-size="14.00" fill="#000000">0x0</text>
<polyline fill="none" stroke="#99c2a2" points="1217.12,-0.5 1217.12,-58"/>
<text text-anchor="middle" x="1262.25" y="-40.7" font-family="Times,serif" font-size="14.00" fill="#000000">Parent</text>
<text text-anchor="middle" x="1262.25" y="-24.2" font-family="Times,serif" font-size="14.00" fill="#000000">IN KARTEL</text>
<text text-anchor="middle" x="1262.25" y="-7.7" font-family="Times,serif" font-size="14.00" fill="#000000">0x103901b70</text>
<polyline fill="none" stroke="#99c2a2" points="1307.38,-0.5 1307.38,-58"/>
<text text-anchor="middle" x="1334.12" y="-40.7" font-family="Times,serif" font-size="14.00" fill="#000000">Right</text>
<text text-anchor="middle" x="1334.12" y="-24.2" font-family="Times,serif" font-size="14.00" fill="#000000">NONE</text>
<text text-anchor="middle" x="1334.12" y="-7.7" font-family="Times,serif" font-size="14.00" fill="#000000">0x0</text>
</g>
<!-- node0x103901b70&#45;&gt;node0x103901b10 -->
<g id="edge12" class="edge">
<title>node0x103901b70:right&#45;&gt;node0x103901b10</title>
<path fill="none" stroke="#48e818" stroke-width="2" d="M1244.12,-152C1244.12,-138.47 1245.71,-124.07 1247.95,-110.52"/>
<polygon fill="#48e818" stroke="#48e818" stroke-width="2" points="1251.09,-112.8 1249.42,-102.34 1244.2,-111.56 1251.09,-112.8"/>
<text text-anchor="middle" x="1257.63" y="-120.7" font-family="Times,serif" font-size="14.00">Нет</text>
</g>
</g>
</svg>
