<?xml version="1.0" encoding="UTF-8" standalone="no"?>
<!DOCTYPE svg PUBLIC "-//W3C//DTD SVG 1.1//EN"
 "http://www.w3.org/Graphics/SVG/1.1/DTD/svg11.dtd">
<!-- Generated by graphviz version 12.2.0 (20241103.1931)
 -->
<!-- Pages: 1 -->
<svg width="1091pt" height="1172pt"
 viewBox="0.00 0.00 1090.75 1171.50" xmlns="http://www.w3.org/2000/svg" xmlns:xlink="http://www.w3.org/1999/xlink">
<g id="graph0" class="graph" transform="scale(1 1) rotate(0) translate(4 1167.5)">
<polygon fill="#dcdcdc" stroke="none" points="-4,4 -4,-1167.5 1086.75,-1167.5 1086.75,4 -4,4"/>
<!-- node0x106e01e40 -->
<g id="node1" class="node">
<title>node0x106e01e40</title>
<path fill="#fbee21" stroke="#d3c70d" d="M118,-1064.5C118,-1064.5 343.75,-1064.5 343.75,-1064.5 349.75,-1064.5 355.75,-1070.5 355.75,-1076.5 355.75,-1076.5 355.75,-1151 355.75,-1151 355.75,-1157 349.75,-1163 343.75,-1163 343.75,-1163 118,-1163 118,-1163 112,-1163 106,-1157 106,-1151 106,-1151 106,-1076.5 106,-1076.5 106,-1070.5 112,-1064.5 118,-1064.5"/>
<text text-anchor="middle" x="230.88" y="-1145.7" font-family="Times,serif" font-size="14.00" fill="#000000">Animal</text>
<text text-anchor="middle" x="230.88" y="-1129.2" font-family="Times,serif" font-size="14.00" fill="#000000">0x106e01e40</text>
<polyline fill="none" stroke="#d3c70d" points="106,-1122 355.75,-1122"/>
<text text-anchor="middle" x="150.38" y="-1104.7" font-family="Times,serif" font-size="14.00" fill="#000000">Left</text>
<text text-anchor="middle" x="150.38" y="-1088.2" font-family="Times,serif" font-size="14.00" fill="#000000">Poltorashka</text>
<text text-anchor="middle" x="150.38" y="-1071.7" font-family="Times,serif" font-size="14.00" fill="#000000">0x106e01e10</text>
<polyline fill="none" stroke="#d3c70d" points="194.75,-1064.5 194.75,-1122"/>
<text text-anchor="middle" x="221.5" y="-1104.7" font-family="Times,serif" font-size="14.00" fill="#000000">Parent</text>
<text text-anchor="middle" x="221.5" y="-1088.2" font-family="Times,serif" font-size="14.00" fill="#000000">NONE</text>
<text text-anchor="middle" x="221.5" y="-1071.7" font-family="Times,serif" font-size="14.00" fill="#000000">0x0</text>
<polyline fill="none" stroke="#d3c70d" points="248.25,-1064.5 248.25,-1122"/>
<text text-anchor="middle" x="302" y="-1104.7" font-family="Times,serif" font-size="14.00" fill="#000000">Right</text>
<text text-anchor="middle" x="302" y="-1088.2" font-family="Times,serif" font-size="14.00" fill="#000000">Teaches analisys</text>
<text text-anchor="middle" x="302" y="-1071.7" font-family="Times,serif" font-size="14.00" fill="#000000">0x106e01de0</text>
</g>
<!-- node0x106e01e10 -->
<g id="node2" class="node">
<title>node0x106e01e10</title>
<path fill="#d5cfe1" stroke="#8797b2" d="M12,-912.5C12,-912.5 183.75,-912.5 183.75,-912.5 189.75,-912.5 195.75,-918.5 195.75,-924.5 195.75,-924.5 195.75,-999 195.75,-999 195.75,-1005 189.75,-1011 183.75,-1011 183.75,-1011 12,-1011 12,-1011 6,-1011 0,-1005 0,-999 0,-999 0,-924.5 0,-924.5 0,-918.5 6,-912.5 12,-912.5"/>
<text text-anchor="middle" x="97.88" y="-993.7" font-family="Times,serif" font-size="14.00" fill="#000000">Poltorashka</text>
<text text-anchor="middle" x="97.88" y="-977.2" font-family="Times,serif" font-size="14.00" fill="#000000">0x106e01e10</text>
<polyline fill="none" stroke="#8797b2" points="0,-970 195.75,-970"/>
<text text-anchor="middle" x="26.75" y="-952.7" font-family="Times,serif" font-size="14.00" fill="#000000">Left</text>
<text text-anchor="middle" x="26.75" y="-936.2" font-family="Times,serif" font-size="14.00" fill="#000000">NONE</text>
<text text-anchor="middle" x="26.75" y="-919.7" font-family="Times,serif" font-size="14.00" fill="#000000">0x0</text>
<polyline fill="none" stroke="#8797b2" points="53.5,-912.5 53.5,-970"/>
<text text-anchor="middle" x="97.88" y="-952.7" font-family="Times,serif" font-size="14.00" fill="#000000">Parent</text>
<text text-anchor="middle" x="97.88" y="-936.2" font-family="Times,serif" font-size="14.00" fill="#000000">Animal</text>
<text text-anchor="middle" x="97.88" y="-919.7" font-family="Times,serif" font-size="14.00" fill="#000000">0x106e01e40</text>
<polyline fill="none" stroke="#8797b2" points="142.25,-912.5 142.25,-970"/>
<text text-anchor="middle" x="169" y="-952.7" font-family="Times,serif" font-size="14.00" fill="#000000">Right</text>
<text text-anchor="middle" x="169" y="-936.2" font-family="Times,serif" font-size="14.00" fill="#000000">NONE</text>
<text text-anchor="middle" x="169" y="-919.7" font-family="Times,serif" font-size="14.00" fill="#000000">0x0</text>
</g>
<!-- node0x106e01e40&#45;&gt;node0x106e01e10 -->
<g id="edge1" class="edge">
<title>node0x106e01e40:left&#45;&gt;node0x106e01e10</title>
<path fill="none" stroke="#187ae8" stroke-width="2" d="M105,-1093.25C74.29,-1093.25 74.06,-1056.77 80.67,-1022.38"/>
<polygon fill="#187ae8" stroke="#187ae8" stroke-width="2" points="83.73,-1024.81 82.39,-1014.3 76.88,-1023.35 83.73,-1024.81"/>
<text text-anchor="middle" x="86.91" y="-1032.7" font-family="Times,serif" font-size="14.00">Да</text>
</g>
<!-- node0x106e01de0 -->
<g id="node4" class="node">
<title>node0x106e01de0</title>
<path fill="#bdef9e" stroke="#99c2a2" d="M225.5,-912.5C225.5,-912.5 484.25,-912.5 484.25,-912.5 490.25,-912.5 496.25,-918.5 496.25,-924.5 496.25,-924.5 496.25,-999 496.25,-999 496.25,-1005 490.25,-1011 484.25,-1011 484.25,-1011 225.5,-1011 225.5,-1011 219.5,-1011 213.5,-1005 213.5,-999 213.5,-999 213.5,-924.5 213.5,-924.5 213.5,-918.5 219.5,-912.5 225.5,-912.5"/>
<text text-anchor="middle" x="354.88" y="-993.7" font-family="Times,serif" font-size="14.00" fill="#000000">Teaches analisys</text>
<text text-anchor="middle" x="354.88" y="-977.2" font-family="Times,serif" font-size="14.00" fill="#000000">0x106e01de0</text>
<polyline fill="none" stroke="#99c2a2" points="213.5,-970 496.25,-970"/>
<text text-anchor="middle" x="258.25" y="-952.7" font-family="Times,serif" font-size="14.00" fill="#000000">Left</text>
<text text-anchor="middle" x="258.25" y="-936.2" font-family="Times,serif" font-size="14.00" fill="#000000">Burtsev</text>
<text text-anchor="middle" x="258.25" y="-919.7" font-family="Times,serif" font-size="14.00" fill="#000000">0x106e01d80</text>
<polyline fill="none" stroke="#99c2a2" points="303,-912.5 303,-970"/>
<text text-anchor="middle" x="347.38" y="-952.7" font-family="Times,serif" font-size="14.00" fill="#000000">Parent</text>
<text text-anchor="middle" x="347.38" y="-936.2" font-family="Times,serif" font-size="14.00" fill="#000000">Animal</text>
<text text-anchor="middle" x="347.38" y="-919.7" font-family="Times,serif" font-size="14.00" fill="#000000">0x106e01e40</text>
<polyline fill="none" stroke="#99c2a2" points="391.75,-912.5 391.75,-970"/>
<text text-anchor="middle" x="444" y="-952.7" font-family="Times,serif" font-size="14.00" fill="#000000">Right</text>
<text text-anchor="middle" x="444" y="-936.2" font-family="Times,serif" font-size="14.00" fill="#000000">Teaches physics</text>
<text text-anchor="middle" x="444" y="-919.7" font-family="Times,serif" font-size="14.00" fill="#000000">0x106e01d50</text>
</g>
<!-- node0x106e01e40&#45;&gt;node0x106e01de0 -->
<g id="edge16" class="edge">
<title>node0x106e01e40:right&#45;&gt;node0x106e01de0</title>
<path fill="none" stroke="#48e818" stroke-width="2" d="M302,-1064C302,-1049.38 306.38,-1034.79 312.63,-1021.42"/>
<polygon fill="#48e818" stroke="#48e818" stroke-width="2" points="314.91,-1024.64 316.34,-1014.14 308.68,-1021.46 314.91,-1024.64"/>
<text text-anchor="middle" x="319.43" y="-1032.7" font-family="Times,serif" font-size="14.00">Нет</text>
</g>
<!-- node0x106e01d50 -->
<g id="node3" class="node">
<title>node0x106e01d50</title>
<path fill="#f18805" stroke="#af3800" d="M374,-760.5C374,-760.5 647.75,-760.5 647.75,-760.5 653.75,-760.5 659.75,-766.5 659.75,-772.5 659.75,-772.5 659.75,-847 659.75,-847 659.75,-853 653.75,-859 647.75,-859 647.75,-859 374,-859 374,-859 368,-859 362,-853 362,-847 362,-847 362,-772.5 362,-772.5 362,-766.5 368,-760.5 374,-760.5"/>
<text text-anchor="middle" x="510.88" y="-841.7" font-family="Times,serif" font-size="14.00" fill="#000000">Teaches physics</text>
<text text-anchor="middle" x="510.88" y="-825.2" font-family="Times,serif" font-size="14.00" fill="#000000">0x106e01d50</text>
<polyline fill="none" stroke="#af3800" points="362,-818 659.75,-818"/>
<text text-anchor="middle" x="406.75" y="-800.7" font-family="Times,serif" font-size="14.00" fill="#000000">Left</text>
<text text-anchor="middle" x="406.75" y="-784.2" font-family="Times,serif" font-size="14.00" fill="#000000">Nefor</text>
<text text-anchor="middle" x="406.75" y="-767.7" font-family="Times,serif" font-size="14.00" fill="#000000">0x106e01d20</text>
<polyline fill="none" stroke="#af3800" points="451.5,-760.5 451.5,-818"/>
<text text-anchor="middle" x="505.25" y="-800.7" font-family="Times,serif" font-size="14.00" fill="#000000">Parent</text>
<text text-anchor="middle" x="505.25" y="-784.2" font-family="Times,serif" font-size="14.00" fill="#000000">Teaches analisys</text>
<text text-anchor="middle" x="505.25" y="-767.7" font-family="Times,serif" font-size="14.00" fill="#000000">0x106e01de0</text>
<polyline fill="none" stroke="#af3800" points="559,-760.5 559,-818"/>
<text text-anchor="middle" x="609.38" y="-800.7" font-family="Times,serif" font-size="14.00" fill="#000000">Right</text>
<text text-anchor="middle" x="609.38" y="-784.2" font-family="Times,serif" font-size="14.00" fill="#000000">Teaches angem</text>
<text text-anchor="middle" x="609.38" y="-767.7" font-family="Times,serif" font-size="14.00" fill="#000000">0x106e01c90</text>
</g>
<!-- node0x106e01d20 -->
<g id="node6" class="node">
<title>node0x106e01d20</title>
<path fill="#d5cfe1" stroke="#8797b2" d="M149.38,-608.5C149.38,-608.5 404.38,-608.5 404.38,-608.5 410.38,-608.5 416.38,-614.5 416.38,-620.5 416.38,-620.5 416.38,-695 416.38,-695 416.38,-701 410.38,-707 404.38,-707 404.38,-707 149.38,-707 149.38,-707 143.38,-707 137.38,-701 137.38,-695 137.38,-695 137.38,-620.5 137.38,-620.5 137.38,-614.5 143.38,-608.5 149.38,-608.5"/>
<text text-anchor="middle" x="276.88" y="-689.7" font-family="Times,serif" font-size="14.00" fill="#000000">Nefor</text>
<text text-anchor="middle" x="276.88" y="-673.2" font-family="Times,serif" font-size="14.00" fill="#000000">0x106e01d20</text>
<polyline fill="none" stroke="#8797b2" points="137.38,-666 416.38,-666"/>
<text text-anchor="middle" x="180.62" y="-648.7" font-family="Times,serif" font-size="14.00" fill="#000000">Left</text>
<text text-anchor="middle" x="180.62" y="-632.2" font-family="Times,serif" font-size="14.00" fill="#000000">Magic</text>
<text text-anchor="middle" x="180.62" y="-615.7" font-family="Times,serif" font-size="14.00" fill="#000000">0x106e01cf0</text>
<polyline fill="none" stroke="#8797b2" points="223.88,-608.5 223.88,-666"/>
<text text-anchor="middle" x="276.12" y="-648.7" font-family="Times,serif" font-size="14.00" fill="#000000">Parent</text>
<text text-anchor="middle" x="276.12" y="-632.2" font-family="Times,serif" font-size="14.00" fill="#000000">Teaches physics</text>
<text text-anchor="middle" x="276.12" y="-615.7" font-family="Times,serif" font-size="14.00" fill="#000000">0x106e01d50</text>
<polyline fill="none" stroke="#8797b2" points="328.38,-608.5 328.38,-666"/>
<text text-anchor="middle" x="372.38" y="-648.7" font-family="Times,serif" font-size="14.00" fill="#000000">Right</text>
<text text-anchor="middle" x="372.38" y="-632.2" font-family="Times,serif" font-size="14.00" fill="#000000">Ovchos</text>
<text text-anchor="middle" x="372.38" y="-615.7" font-family="Times,serif" font-size="14.00" fill="#000000">0x106e01cc0</text>
</g>
<!-- node0x106e01d50&#45;&gt;node0x106e01d20 -->
<g id="edge3" class="edge">
<title>node0x106e01d50:left&#45;&gt;node0x106e01d20</title>
<path fill="none" stroke="#187ae8" stroke-width="2" d="M406.75,-760C406.75,-742.64 399.45,-727.83 388.31,-715.32"/>
<polygon fill="#187ae8" stroke="#187ae8" stroke-width="2" points="392.13,-714.21 382.6,-709.58 387.17,-719.14 392.13,-714.21"/>
<text text-anchor="middle" x="410.99" y="-728.7" font-family="Times,serif" font-size="14.00">Да</text>
</g>
<!-- node0x106e01c90 -->
<g id="node9" class="node">
<title>node0x106e01c90</title>
<path fill="#bdef9e" stroke="#99c2a2" d="M558.88,-608.5C558.88,-608.5 816.88,-608.5 816.88,-608.5 822.88,-608.5 828.88,-614.5 828.88,-620.5 828.88,-620.5 828.88,-695 828.88,-695 828.88,-701 822.88,-707 816.88,-707 816.88,-707 558.88,-707 558.88,-707 552.88,-707 546.88,-701 546.88,-695 546.88,-695 546.88,-620.5 546.88,-620.5 546.88,-614.5 552.88,-608.5 558.88,-608.5"/>
<text text-anchor="middle" x="687.88" y="-689.7" font-family="Times,serif" font-size="14.00" fill="#000000">Teaches angem</text>
<text text-anchor="middle" x="687.88" y="-673.2" font-family="Times,serif" font-size="14.00" fill="#000000">0x106e01c90</text>
<polyline fill="none" stroke="#99c2a2" points="546.88,-666 828.88,-666"/>
<text text-anchor="middle" x="591.25" y="-648.7" font-family="Times,serif" font-size="14.00" fill="#000000">Left</text>
<text text-anchor="middle" x="591.25" y="-632.2" font-family="Times,serif" font-size="14.00" fill="#000000">Chubarik</text>
<text text-anchor="middle" x="591.25" y="-615.7" font-family="Times,serif" font-size="14.00" fill="#000000">0x106e01c60</text>
<polyline fill="none" stroke="#99c2a2" points="635.62,-608.5 635.62,-666"/>
<text text-anchor="middle" x="687.88" y="-648.7" font-family="Times,serif" font-size="14.00" fill="#000000">Parent</text>
<text text-anchor="middle" x="687.88" y="-632.2" font-family="Times,serif" font-size="14.00" fill="#000000">Teaches physics</text>
<text text-anchor="middle" x="687.88" y="-615.7" font-family="Times,serif" font-size="14.00" fill="#000000">0x106e01d50</text>
<polyline fill="none" stroke="#99c2a2" points="740.12,-608.5 740.12,-666"/>
<text text-anchor="middle" x="784.5" y="-648.7" font-family="Times,serif" font-size="14.00" fill="#000000">Right</text>
<text text-anchor="middle" x="784.5" y="-632.2" font-family="Times,serif" font-size="14.00" fill="#000000">Do sport</text>
<text text-anchor="middle" x="784.5" y="-615.7" font-family="Times,serif" font-size="14.00" fill="#000000">0x106e01c30</text>
</g>
<!-- node0x106e01d50&#45;&gt;node0x106e01c90 -->
<g id="edge14" class="edge">
<title>node0x106e01d50:right&#45;&gt;node0x106e01c90</title>
<path fill="none" stroke="#48e818" stroke-width="2" d="M660.75,-789.25C691.94,-789.25 697.8,-753.08 696.37,-718.83"/>
<polygon fill="#48e818" stroke="#48e818" stroke-width="2" points="699.96,-720.12 695.82,-710.36 692.97,-720.57 699.96,-720.12"/>
<text text-anchor="middle" x="707.44" y="-728.7" font-family="Times,serif" font-size="14.00">Нет</text>
</g>
<!-- node0x106e01de0&#45;&gt;node0x106e01d50 -->
<g id="edge15" class="edge">
<title>node0x106e01de0:right&#45;&gt;node0x106e01d50</title>
<path fill="none" stroke="#48e818" stroke-width="2" d="M444,-912C444,-896.74 449.35,-882.02 457.03,-868.74"/>
<polygon fill="#48e818" stroke="#48e818" stroke-width="2" points="458.97,-872.22 461.36,-861.9 453.05,-868.47 458.97,-872.22"/>
<text text-anchor="middle" x="463.16" y="-880.7" font-family="Times,serif" font-size="14.00">Нет</text>
</g>
<!-- node0x106e01d80 -->
<g id="node5" class="node">
<title>node0x106e01d80</title>
<path fill="#d5cfe1" stroke="#8797b2" d="M141.62,-760.5C141.62,-760.5 332.12,-760.5 332.12,-760.5 338.12,-760.5 344.12,-766.5 344.12,-772.5 344.12,-772.5 344.12,-847 344.12,-847 344.12,-853 338.12,-859 332.12,-859 332.12,-859 141.62,-859 141.62,-859 135.62,-859 129.62,-853 129.62,-847 129.62,-847 129.62,-772.5 129.62,-772.5 129.62,-766.5 135.62,-760.5 141.62,-760.5"/>
<text text-anchor="middle" x="236.88" y="-841.7" font-family="Times,serif" font-size="14.00" fill="#000000">Burtsev</text>
<text text-anchor="middle" x="236.88" y="-825.2" font-family="Times,serif" font-size="14.00" fill="#000000">0x106e01d80</text>
<polyline fill="none" stroke="#8797b2" points="129.62,-818 344.12,-818"/>
<text text-anchor="middle" x="156.38" y="-800.7" font-family="Times,serif" font-size="14.00" fill="#000000">Left</text>
<text text-anchor="middle" x="156.38" y="-784.2" font-family="Times,serif" font-size="14.00" fill="#000000">NONE</text>
<text text-anchor="middle" x="156.38" y="-767.7" font-family="Times,serif" font-size="14.00" fill="#000000">0x0</text>
<polyline fill="none" stroke="#8797b2" points="183.12,-760.5 183.12,-818"/>
<text text-anchor="middle" x="236.88" y="-800.7" font-family="Times,serif" font-size="14.00" fill="#000000">Parent</text>
<text text-anchor="middle" x="236.88" y="-784.2" font-family="Times,serif" font-size="14.00" fill="#000000">Teaches analisys</text>
<text text-anchor="middle" x="236.88" y="-767.7" font-family="Times,serif" font-size="14.00" fill="#000000">0x106e01de0</text>
<polyline fill="none" stroke="#8797b2" points="290.62,-760.5 290.62,-818"/>
<text text-anchor="middle" x="317.38" y="-800.7" font-family="Times,serif" font-size="14.00" fill="#000000">Right</text>
<text text-anchor="middle" x="317.38" y="-784.2" font-family="Times,serif" font-size="14.00" fill="#000000">NONE</text>
<text text-anchor="middle" x="317.38" y="-767.7" font-family="Times,serif" font-size="14.00" fill="#000000">0x0</text>
</g>
<!-- node0x106e01de0&#45;&gt;node0x106e01d80 -->
<g id="edge2" class="edge">
<title>node0x106e01de0:left&#45;&gt;node0x106e01d80</title>
<path fill="none" stroke="#187ae8" stroke-width="2" d="M258.25,-912C258.25,-898.46 256.4,-884.11 253.78,-870.6"/>
<polygon fill="#187ae8" stroke="#187ae8" stroke-width="2" points="257.55,-871.52 252.06,-862.46 250.7,-872.97 257.55,-871.52"/>
<text text-anchor="middle" x="264.99" y="-880.7" font-family="Times,serif" font-size="14.00">Да</text>
</g>
<!-- node0x106e01cf0 -->
<g id="node7" class="node">
<title>node0x106e01cf0</title>
<path fill="#d5cfe1" stroke="#8797b2" d="M70.62,-456.5C70.62,-456.5 243.12,-456.5 243.12,-456.5 249.12,-456.5 255.12,-462.5 255.12,-468.5 255.12,-468.5 255.12,-543 255.12,-543 255.12,-549 249.12,-555 243.12,-555 243.12,-555 70.62,-555 70.62,-555 64.63,-555 58.62,-549 58.62,-543 58.62,-543 58.62,-468.5 58.62,-468.5 58.62,-462.5 64.62,-456.5 70.62,-456.5"/>
<text text-anchor="middle" x="156.88" y="-537.7" font-family="Times,serif" font-size="14.00" fill="#000000">Magic</text>
<text text-anchor="middle" x="156.88" y="-521.2" font-family="Times,serif" font-size="14.00" fill="#000000">0x106e01cf0</text>
<polyline fill="none" stroke="#8797b2" points="58.62,-514 255.12,-514"/>
<text text-anchor="middle" x="85.38" y="-496.7" font-family="Times,serif" font-size="14.00" fill="#000000">Left</text>
<text text-anchor="middle" x="85.38" y="-480.2" font-family="Times,serif" font-size="14.00" fill="#000000">NONE</text>
<text text-anchor="middle" x="85.38" y="-463.7" font-family="Times,serif" font-size="14.00" fill="#000000">0x0</text>
<polyline fill="none" stroke="#8797b2" points="112.12,-456.5 112.12,-514"/>
<text text-anchor="middle" x="156.88" y="-496.7" font-family="Times,serif" font-size="14.00" fill="#000000">Parent</text>
<text text-anchor="middle" x="156.88" y="-480.2" font-family="Times,serif" font-size="14.00" fill="#000000">Nefor</text>
<text text-anchor="middle" x="156.88" y="-463.7" font-family="Times,serif" font-size="14.00" fill="#000000">0x106e01d20</text>
<polyline fill="none" stroke="#8797b2" points="201.62,-456.5 201.62,-514"/>
<text text-anchor="middle" x="228.38" y="-496.7" font-family="Times,serif" font-size="14.00" fill="#000000">Right</text>
<text text-anchor="middle" x="228.38" y="-480.2" font-family="Times,serif" font-size="14.00" fill="#000000">NONE</text>
<text text-anchor="middle" x="228.38" y="-463.7" font-family="Times,serif" font-size="14.00" fill="#000000">0x0</text>
</g>
<!-- node0x106e01d20&#45;&gt;node0x106e01cf0 -->
<g id="edge4" class="edge">
<title>node0x106e01d20:left&#45;&gt;node0x106e01cf0</title>
<path fill="none" stroke="#187ae8" stroke-width="2" d="M180.62,-608C180.62,-594.39 178.57,-580.01 175.66,-566.5"/>
<polygon fill="#187ae8" stroke="#187ae8" stroke-width="2" points="179.44,-567.27 173.74,-558.34 172.62,-568.88 179.44,-567.27"/>
<text text-anchor="middle" x="187.23" y="-576.7" font-family="Times,serif" font-size="14.00">Да</text>
</g>
<!-- node0x106e01cc0 -->
<g id="node8" class="node">
<title>node0x106e01cc0</title>
<path fill="#bdef9e" stroke="#99c2a2" d="M285.62,-456.5C285.62,-456.5 458.12,-456.5 458.12,-456.5 464.12,-456.5 470.12,-462.5 470.12,-468.5 470.12,-468.5 470.12,-543 470.12,-543 470.12,-549 464.12,-555 458.12,-555 458.12,-555 285.62,-555 285.62,-555 279.62,-555 273.62,-549 273.62,-543 273.62,-543 273.62,-468.5 273.62,-468.5 273.62,-462.5 279.62,-456.5 285.62,-456.5"/>
<text text-anchor="middle" x="371.88" y="-537.7" font-family="Times,serif" font-size="14.00" fill="#000000">Ovchos</text>
<text text-anchor="middle" x="371.88" y="-521.2" font-family="Times,serif" font-size="14.00" fill="#000000">0x106e01cc0</text>
<polyline fill="none" stroke="#99c2a2" points="273.62,-514 470.12,-514"/>
<text text-anchor="middle" x="300.38" y="-496.7" font-family="Times,serif" font-size="14.00" fill="#000000">Left</text>
<text text-anchor="middle" x="300.38" y="-480.2" font-family="Times,serif" font-size="14.00" fill="#000000">NONE</text>
<text text-anchor="middle" x="300.38" y="-463.7" font-family="Times,serif" font-size="14.00" fill="#000000">0x0</text>
<polyline fill="none" stroke="#99c2a2" points="327.12,-456.5 327.12,-514"/>
<text text-anchor="middle" x="371.88" y="-496.7" font-family="Times,serif" font-size="14.00" fill="#000000">Parent</text>
<text text-anchor="middle" x="371.88" y="-480.2" font-family="Times,serif" font-size="14.00" fill="#000000">Nefor</text>
<text text-anchor="middle" x="371.88" y="-463.7" font-family="Times,serif" font-size="14.00" fill="#000000">0x106e01d20</text>
<polyline fill="none" stroke="#99c2a2" points="416.62,-456.5 416.62,-514"/>
<text text-anchor="middle" x="443.38" y="-496.7" font-family="Times,serif" font-size="14.00" fill="#000000">Right</text>
<text text-anchor="middle" x="443.38" y="-480.2" font-family="Times,serif" font-size="14.00" fill="#000000">NONE</text>
<text text-anchor="middle" x="443.38" y="-463.7" font-family="Times,serif" font-size="14.00" fill="#000000">0x0</text>
</g>
<!-- node0x106e01d20&#45;&gt;node0x106e01cc0 -->
<g id="edge5" class="edge">
<title>node0x106e01d20:right&#45;&gt;node0x106e01cc0</title>
<path fill="none" stroke="#48e818" stroke-width="2" d="M372.38,-608C372.38,-594.61 372.33,-580.22 372.27,-566.62"/>
<polygon fill="#48e818" stroke="#48e818" stroke-width="2" points="375.78,-568.43 372.23,-558.44 368.78,-568.46 375.78,-568.43"/>
<text text-anchor="middle" x="383.22" y="-576.7" font-family="Times,serif" font-size="14.00">Нет</text>
</g>
<!-- node0x106e01c60 -->
<g id="node10" class="node">
<title>node0x106e01c60</title>
<path fill="#d5cfe1" stroke="#8797b2" d="M500,-456.5C500,-456.5 683.75,-456.5 683.75,-456.5 689.75,-456.5 695.75,-462.5 695.75,-468.5 695.75,-468.5 695.75,-543 695.75,-543 695.75,-549 689.75,-555 683.75,-555 683.75,-555 500,-555 500,-555 494,-555 488,-549 488,-543 488,-543 488,-468.5 488,-468.5 488,-462.5 494,-456.5 500,-456.5"/>
<text text-anchor="middle" x="591.88" y="-537.7" font-family="Times,serif" font-size="14.00" fill="#000000">Chubarik</text>
<text text-anchor="middle" x="591.88" y="-521.2" font-family="Times,serif" font-size="14.00" fill="#000000">0x106e01c60</text>
<polyline fill="none" stroke="#8797b2" points="488,-514 695.75,-514"/>
<text text-anchor="middle" x="514.75" y="-496.7" font-family="Times,serif" font-size="14.00" fill="#000000">Left</text>
<text text-anchor="middle" x="514.75" y="-480.2" font-family="Times,serif" font-size="14.00" fill="#000000">NONE</text>
<text text-anchor="middle" x="514.75" y="-463.7" font-family="Times,serif" font-size="14.00" fill="#000000">0x0</text>
<polyline fill="none" stroke="#8797b2" points="541.5,-456.5 541.5,-514"/>
<text text-anchor="middle" x="591.88" y="-496.7" font-family="Times,serif" font-size="14.00" fill="#000000">Parent</text>
<text text-anchor="middle" x="591.88" y="-480.2" font-family="Times,serif" font-size="14.00" fill="#000000">Teaches angem</text>
<text text-anchor="middle" x="591.88" y="-463.7" font-family="Times,serif" font-size="14.00" fill="#000000">0x106e01c90</text>
<polyline fill="none" stroke="#8797b2" points="642.25,-456.5 642.25,-514"/>
<text text-anchor="middle" x="669" y="-496.7" font-family="Times,serif" font-size="14.00" fill="#000000">Right</text>
<text text-anchor="middle" x="669" y="-480.2" font-family="Times,serif" font-size="14.00" fill="#000000">NONE</text>
<text text-anchor="middle" x="669" y="-463.7" font-family="Times,serif" font-size="14.00" fill="#000000">0x0</text>
</g>
<!-- node0x106e01c90&#45;&gt;node0x106e01c60 -->
<g id="edge6" class="edge">
<title>node0x106e01c90:left&#45;&gt;node0x106e01c60</title>
<path fill="none" stroke="#187ae8" stroke-width="2" d="M591.25,-608C591.25,-594.61 591.31,-580.22 591.38,-566.62"/>
<polygon fill="#187ae8" stroke="#187ae8" stroke-width="2" points="594.87,-568.47 591.43,-558.44 587.87,-568.42 594.87,-568.47"/>
<text text-anchor="middle" x="599.22" y="-576.7" font-family="Times,serif" font-size="14.00">Да</text>
</g>
<!-- node0x106e01c30 -->
<g id="node11" class="node">
<title>node0x106e01c30</title>
<path fill="#bdef9e" stroke="#99c2a2" d="M726.12,-456.5C726.12,-456.5 979.62,-456.5 979.62,-456.5 985.62,-456.5 991.62,-462.5 991.62,-468.5 991.62,-468.5 991.62,-543 991.62,-543 991.62,-549 985.62,-555 979.62,-555 979.62,-555 726.12,-555 726.12,-555 720.12,-555 714.12,-549 714.12,-543 714.12,-543 714.12,-468.5 714.12,-468.5 714.12,-462.5 720.12,-456.5 726.12,-456.5"/>
<text text-anchor="middle" x="852.88" y="-537.7" font-family="Times,serif" font-size="14.00" fill="#000000">Do sport</text>
<text text-anchor="middle" x="852.88" y="-521.2" font-family="Times,serif" font-size="14.00" fill="#000000">0x106e01c30</text>
<polyline fill="none" stroke="#99c2a2" points="714.12,-514 991.62,-514"/>
<text text-anchor="middle" x="758.5" y="-496.7" font-family="Times,serif" font-size="14.00" fill="#000000">Left</text>
<text text-anchor="middle" x="758.5" y="-480.2" font-family="Times,serif" font-size="14.00" fill="#000000">Coach</text>
<text text-anchor="middle" x="758.5" y="-463.7" font-family="Times,serif" font-size="14.00" fill="#000000">0x106e01c00</text>
<polyline fill="none" stroke="#99c2a2" points="802.88,-456.5 802.88,-514"/>
<text text-anchor="middle" x="853.25" y="-496.7" font-family="Times,serif" font-size="14.00" fill="#000000">Parent</text>
<text text-anchor="middle" x="853.25" y="-480.2" font-family="Times,serif" font-size="14.00" fill="#000000">Teaches angem</text>
<text text-anchor="middle" x="853.25" y="-463.7" font-family="Times,serif" font-size="14.00" fill="#000000">0x106e01c90</text>
<polyline fill="none" stroke="#99c2a2" points="903.62,-456.5 903.62,-514"/>
<text text-anchor="middle" x="947.62" y="-496.7" font-family="Times,serif" font-size="14.00" fill="#000000">Right</text>
<text text-anchor="middle" x="947.62" y="-480.2" font-family="Times,serif" font-size="14.00" fill="#000000">Kvadrober</text>
<text text-anchor="middle" x="947.62" y="-463.7" font-family="Times,serif" font-size="14.00" fill="#000000">0x106e01ae0</text>
</g>
<!-- node0x106e01c90&#45;&gt;node0x106e01c30 -->
<g id="edge13" class="edge">
<title>node0x106e01c90:right&#45;&gt;node0x106e01c30</title>
<path fill="none" stroke="#48e818" stroke-width="2" d="M784.5,-608C784.5,-592.72 789.91,-578.03 797.69,-564.8"/>
<polygon fill="#48e818" stroke="#48e818" stroke-width="2" points="799.61,-568.28 802.09,-557.98 793.73,-564.49 799.61,-568.28"/>
<text text-anchor="middle" x="803.85" y="-576.7" font-family="Times,serif" font-size="14.00">Нет</text>
</g>
<!-- node0x106e01c00 -->
<g id="node12" class="node">
<title>node0x106e01c00</title>
<path fill="#d5cfe1" stroke="#8797b2" d="M584.38,-304.5C584.38,-304.5 857.38,-304.5 857.38,-304.5 863.38,-304.5 869.38,-310.5 869.38,-316.5 869.38,-316.5 869.38,-391 869.38,-391 869.38,-397 863.38,-403 857.38,-403 857.38,-403 584.38,-403 584.38,-403 578.38,-403 572.38,-397 572.38,-391 572.38,-391 572.38,-316.5 572.38,-316.5 572.38,-310.5 578.38,-304.5 584.38,-304.5"/>
<text text-anchor="middle" x="720.88" y="-385.7" font-family="Times,serif" font-size="14.00" fill="#000000">Coach</text>
<text text-anchor="middle" x="720.88" y="-369.2" font-family="Times,serif" font-size="14.00" fill="#000000">0x106e01c00</text>
<polyline fill="none" stroke="#8797b2" points="572.38,-362 869.38,-362"/>
<text text-anchor="middle" x="631.75" y="-344.7" font-family="Times,serif" font-size="14.00" fill="#000000">Left</text>
<text text-anchor="middle" x="631.75" y="-328.2" font-family="Times,serif" font-size="14.00" fill="#000000">Valentin Guardiola</text>
<text text-anchor="middle" x="631.75" y="-311.7" font-family="Times,serif" font-size="14.00" fill="#000000">0x106e01bd0</text>
<polyline fill="none" stroke="#8797b2" points="691.12,-304.5 691.12,-362"/>
<text text-anchor="middle" x="735.5" y="-344.7" font-family="Times,serif" font-size="14.00" fill="#000000">Parent</text>
<text text-anchor="middle" x="735.5" y="-328.2" font-family="Times,serif" font-size="14.00" fill="#000000">Do sport</text>
<text text-anchor="middle" x="735.5" y="-311.7" font-family="Times,serif" font-size="14.00" fill="#000000">0x106e01c30</text>
<polyline fill="none" stroke="#8797b2" points="779.88,-304.5 779.88,-362"/>
<text text-anchor="middle" x="824.62" y="-344.7" font-family="Times,serif" font-size="14.00" fill="#000000">Right</text>
<text text-anchor="middle" x="824.62" y="-328.2" font-family="Times,serif" font-size="14.00" fill="#000000">IN KARTEL</text>
<text text-anchor="middle" x="824.62" y="-311.7" font-family="Times,serif" font-size="14.00" fill="#000000">0x106e01b70</text>
</g>
<!-- node0x106e01c30&#45;&gt;node0x106e01c00 -->
<g id="edge7" class="edge">
<title>node0x106e01c30:left&#45;&gt;node0x106e01c00</title>
<path fill="none" stroke="#187ae8" stroke-width="2" d="M758.5,-456C758.5,-441.94 755.27,-427.44 750.71,-413.95"/>
<polygon fill="#187ae8" stroke="#187ae8" stroke-width="2" points="754.6,-414.38 747.85,-406.22 748.04,-416.81 754.6,-414.38"/>
<text text-anchor="middle" x="764.37" y="-424.7" font-family="Times,serif" font-size="14.00">Да</text>
</g>
<!-- node0x106e01ae0 -->
<g id="node17" class="node">
<title>node0x106e01ae0</title>
<path fill="#bdef9e" stroke="#99c2a2" d="M899,-304.5C899,-304.5 1070.75,-304.5 1070.75,-304.5 1076.75,-304.5 1082.75,-310.5 1082.75,-316.5 1082.75,-316.5 1082.75,-391 1082.75,-391 1082.75,-397 1076.75,-403 1070.75,-403 1070.75,-403 899,-403 899,-403 893,-403 887,-397 887,-391 887,-391 887,-316.5 887,-316.5 887,-310.5 893,-304.5 899,-304.5"/>
<text text-anchor="middle" x="984.88" y="-385.7" font-family="Times,serif" font-size="14.00" fill="#000000">Kvadrober</text>
<text text-anchor="middle" x="984.88" y="-369.2" font-family="Times,serif" font-size="14.00" fill="#000000">0x106e01ae0</text>
<polyline fill="none" stroke="#99c2a2" points="887,-362 1082.75,-362"/>
<text text-anchor="middle" x="913.75" y="-344.7" font-family="Times,serif" font-size="14.00" fill="#000000">Left</text>
<text text-anchor="middle" x="913.75" y="-328.2" font-family="Times,serif" font-size="14.00" fill="#000000">NONE</text>
<text text-anchor="middle" x="913.75" y="-311.7" font-family="Times,serif" font-size="14.00" fill="#000000">0x0</text>
<polyline fill="none" stroke="#99c2a2" points="940.5,-304.5 940.5,-362"/>
<text text-anchor="middle" x="984.88" y="-344.7" font-family="Times,serif" font-size="14.00" fill="#000000">Parent</text>
<text text-anchor="middle" x="984.88" y="-328.2" font-family="Times,serif" font-size="14.00" fill="#000000">Do sport</text>
<text text-anchor="middle" x="984.88" y="-311.7" font-family="Times,serif" font-size="14.00" fill="#000000">0x106e01c30</text>
<polyline fill="none" stroke="#99c2a2" points="1029.25,-304.5 1029.25,-362"/>
<text text-anchor="middle" x="1056" y="-344.7" font-family="Times,serif" font-size="14.00" fill="#000000">Right</text>
<text text-anchor="middle" x="1056" y="-328.2" font-family="Times,serif" font-size="14.00" fill="#000000">NONE</text>
<text text-anchor="middle" x="1056" y="-311.7" font-family="Times,serif" font-size="14.00" fill="#000000">0x0</text>
</g>
<!-- node0x106e01c30&#45;&gt;node0x106e01ae0 -->
<g id="edge12" class="edge">
<title>node0x106e01c30:right&#45;&gt;node0x106e01ae0</title>
<path fill="none" stroke="#48e818" stroke-width="2" d="M947.62,-456C947.62,-441.96 950.82,-427.46 955.34,-413.98"/>
<polygon fill="#48e818" stroke="#48e818" stroke-width="2" points="958.01,-416.84 958.17,-406.25 951.44,-414.43 958.01,-416.84"/>
<text text-anchor="middle" x="963.12" y="-424.7" font-family="Times,serif" font-size="14.00">Нет</text>
</g>
<!-- node0x106e01bd0 -->
<g id="node13" class="node">
<title>node0x106e01bd0</title>
<path fill="#d5cfe1" stroke="#8797b2" d="M517,-152.5C517,-152.5 688.75,-152.5 688.75,-152.5 694.75,-152.5 700.75,-158.5 700.75,-164.5 700.75,-164.5 700.75,-239 700.75,-239 700.75,-245 694.75,-251 688.75,-251 688.75,-251 517,-251 517,-251 511,-251 505,-245 505,-239 505,-239 505,-164.5 505,-164.5 505,-158.5 511,-152.5 517,-152.5"/>
<text text-anchor="middle" x="602.88" y="-233.7" font-family="Times,serif" font-size="14.00" fill="#000000">Valentin Guardiola</text>
<text text-anchor="middle" x="602.88" y="-217.2" font-family="Times,serif" font-size="14.00" fill="#000000">0x106e01bd0</text>
<polyline fill="none" stroke="#8797b2" points="505,-210 700.75,-210"/>
<text text-anchor="middle" x="531.75" y="-192.7" font-family="Times,serif" font-size="14.00" fill="#000000">Left</text>
<text text-anchor="middle" x="531.75" y="-176.2" font-family="Times,serif" font-size="14.00" fill="#000000">NONE</text>
<text text-anchor="middle" x="531.75" y="-159.7" font-family="Times,serif" font-size="14.00" fill="#000000">0x0</text>
<polyline fill="none" stroke="#8797b2" points="558.5,-152.5 558.5,-210"/>
<text text-anchor="middle" x="602.88" y="-192.7" font-family="Times,serif" font-size="14.00" fill="#000000">Parent</text>
<text text-anchor="middle" x="602.88" y="-176.2" font-family="Times,serif" font-size="14.00" fill="#000000">Coach</text>
<text text-anchor="middle" x="602.88" y="-159.7" font-family="Times,serif" font-size="14.00" fill="#000000">0x106e01c00</text>
<polyline fill="none" stroke="#8797b2" points="647.25,-152.5 647.25,-210"/>
<text text-anchor="middle" x="674" y="-192.7" font-family="Times,serif" font-size="14.00" fill="#000000">Right</text>
<text text-anchor="middle" x="674" y="-176.2" font-family="Times,serif" font-size="14.00" fill="#000000">NONE</text>
<text text-anchor="middle" x="674" y="-159.7" font-family="Times,serif" font-size="14.00" fill="#000000">0x0</text>
</g>
<!-- node0x106e01c00&#45;&gt;node0x106e01bd0 -->
<g id="edge8" class="edge">
<title>node0x106e01c00:left&#45;&gt;node0x106e01bd0</title>
<path fill="none" stroke="#187ae8" stroke-width="2" d="M631.75,-304C631.75,-290.29 629.27,-275.92 625.77,-262.46"/>
<polygon fill="#187ae8" stroke="#187ae8" stroke-width="2" points="629.55,-262.97 623.44,-254.31 622.82,-264.89 629.55,-262.97"/>
<text text-anchor="middle" x="638.09" y="-272.7" font-family="Times,serif" font-size="14.00">Да</text>
</g>
<!-- node0x106e01b70 -->
<g id="node14" class="node">
<title>node0x106e01b70</title>
<path fill="#bdef9e" stroke="#99c2a2" d="M731,-152.5C731,-152.5 974.75,-152.5 974.75,-152.5 980.75,-152.5 986.75,-158.5 986.75,-164.5 986.75,-164.5 986.75,-239 986.75,-239 986.75,-245 980.75,-251 974.75,-251 974.75,-251 731,-251 731,-251 725,-251 719,-245 719,-239 719,-239 719,-164.5 719,-164.5 719,-158.5 725,-152.5 731,-152.5"/>
<text text-anchor="middle" x="852.88" y="-233.7" font-family="Times,serif" font-size="14.00" fill="#000000">IN KARTEL</text>
<text text-anchor="middle" x="852.88" y="-217.2" font-family="Times,serif" font-size="14.00" fill="#000000">0x106e01b70</text>
<polyline fill="none" stroke="#99c2a2" points="719,-210 986.75,-210"/>
<text text-anchor="middle" x="763.75" y="-192.7" font-family="Times,serif" font-size="14.00" fill="#000000">Left</text>
<text text-anchor="middle" x="763.75" y="-176.2" font-family="Times,serif" font-size="14.00" fill="#000000">LEGEND</text>
<text text-anchor="middle" x="763.75" y="-159.7" font-family="Times,serif" font-size="14.00" fill="#000000">0x106e01b40</text>
<polyline fill="none" stroke="#99c2a2" points="808.5,-152.5 808.5,-210"/>
<text text-anchor="middle" x="852.88" y="-192.7" font-family="Times,serif" font-size="14.00" fill="#000000">Parent</text>
<text text-anchor="middle" x="852.88" y="-176.2" font-family="Times,serif" font-size="14.00" fill="#000000">Coach</text>
<text text-anchor="middle" x="852.88" y="-159.7" font-family="Times,serif" font-size="14.00" fill="#000000">0x106e01c00</text>
<polyline fill="none" stroke="#99c2a2" points="897.25,-152.5 897.25,-210"/>
<text text-anchor="middle" x="942" y="-192.7" font-family="Times,serif" font-size="14.00" fill="#000000">Right</text>
<text text-anchor="middle" x="942" y="-176.2" font-family="Times,serif" font-size="14.00" fill="#000000">LX</text>
<text text-anchor="middle" x="942" y="-159.7" font-family="Times,serif" font-size="14.00" fill="#000000">0x106e01b10</text>
</g>
<!-- node0x106e01c00&#45;&gt;node0x106e01b70 -->
<g id="edge11" class="edge">
<title>node0x106e01c00:right&#45;&gt;node0x106e01b70</title>
<path fill="none" stroke="#48e818" stroke-width="2" d="M824.62,-304C824.62,-290.31 827.05,-275.96 830.48,-262.49"/>
<polygon fill="#48e818" stroke="#48e818" stroke-width="2" points="833.44,-264.92 832.75,-254.35 826.69,-263.04 833.44,-264.92"/>
<text text-anchor="middle" x="839.6" y="-272.7" font-family="Times,serif" font-size="14.00">Нет</text>
</g>
<!-- node0x106e01b40 -->
<g id="node15" class="node">
<title>node0x106e01b40</title>
<path fill="#d5cfe1" stroke="#8797b2" d="M659.62,-0.5C659.62,-0.5 832.12,-0.5 832.12,-0.5 838.12,-0.5 844.12,-6.5 844.12,-12.5 844.12,-12.5 844.12,-87 844.12,-87 844.12,-93 838.12,-99 832.12,-99 832.12,-99 659.62,-99 659.62,-99 653.62,-99 647.62,-93 647.62,-87 647.62,-87 647.62,-12.5 647.62,-12.5 647.62,-6.5 653.62,-0.5 659.62,-0.5"/>
<text text-anchor="middle" x="745.88" y="-81.7" font-family="Times,serif" font-size="14.00" fill="#000000">LEGEND</text>
<text text-anchor="middle" x="745.88" y="-65.2" font-family="Times,serif" font-size="14.00" fill="#000000">0x106e01b40</text>
<polyline fill="none" stroke="#8797b2" points="647.62,-58 844.12,-58"/>
<text text-anchor="middle" x="674.38" y="-40.7" font-family="Times,serif" font-size="14.00" fill="#000000">Left</text>
<text text-anchor="middle" x="674.38" y="-24.2" font-family="Times,serif" font-size="14.00" fill="#000000">NONE</text>
<text text-anchor="middle" x="674.38" y="-7.7" font-family="Times,serif" font-size="14.00" fill="#000000">0x0</text>
<polyline fill="none" stroke="#8797b2" points="701.12,-0.5 701.12,-58"/>
<text text-anchor="middle" x="745.88" y="-40.7" font-family="Times,serif" font-size="14.00" fill="#000000">Parent</text>
<text text-anchor="middle" x="745.88" y="-24.2" font-family="Times,serif" font-size="14.00" fill="#000000">IN KARTEL</text>
<text text-anchor="middle" x="745.88" y="-7.7" font-family="Times,serif" font-size="14.00" fill="#000000">0x106e01b70</text>
<polyline fill="none" stroke="#8797b2" points="790.62,-0.5 790.62,-58"/>
<text text-anchor="middle" x="817.38" y="-40.7" font-family="Times,serif" font-size="14.00" fill="#000000">Right</text>
<text text-anchor="middle" x="817.38" y="-24.2" font-family="Times,serif" font-size="14.00" fill="#000000">NONE</text>
<text text-anchor="middle" x="817.38" y="-7.7" font-family="Times,serif" font-size="14.00" fill="#000000">0x0</text>
</g>
<!-- node0x106e01b70&#45;&gt;node0x106e01b40 -->
<g id="edge9" class="edge">
<title>node0x106e01b70:left&#45;&gt;node0x106e01b40</title>
<path fill="none" stroke="#187ae8" stroke-width="2" d="M763.75,-152C763.75,-138.47 762.18,-124.08 759.98,-110.52"/>
<polygon fill="#187ae8" stroke="#187ae8" stroke-width="2" points="763.72,-111.58 758.53,-102.35 756.83,-112.81 763.72,-111.58"/>
<text text-anchor="middle" x="770.67" y="-120.7" font-family="Times,serif" font-size="14.00">Да</text>
</g>
<!-- node0x106e01b10 -->
<g id="node16" class="node">
<title>node0x106e01b10</title>
<path fill="#bdef9e" stroke="#99c2a2" d="M874.62,-0.5C874.62,-0.5 1047.12,-0.5 1047.12,-0.5 1053.12,-0.5 1059.12,-6.5 1059.12,-12.5 1059.12,-12.5 1059.12,-87 1059.12,-87 1059.12,-93 1053.12,-99 1047.12,-99 1047.12,-99 874.62,-99 874.62,-99 868.62,-99 862.62,-93 862.62,-87 862.62,-87 862.62,-12.5 862.62,-12.5 862.62,-6.5 868.62,-0.5 874.62,-0.5"/>
<text text-anchor="middle" x="960.88" y="-81.7" font-family="Times,serif" font-size="14.00" fill="#000000">LX</text>
<text text-anchor="middle" x="960.88" y="-65.2" font-family="Times,serif" font-size="14.00" fill="#000000">0x106e01b10</text>
<polyline fill="none" stroke="#99c2a2" points="862.62,-58 1059.12,-58"/>
<text text-anchor="middle" x="889.38" y="-40.7" font-family="Times,serif" font-size="14.00" fill="#000000">Left</text>
<text text-anchor="middle" x="889.38" y="-24.2" font-family="Times,serif" font-size="14.00" fill="#000000">NONE</text>
<text text-anchor="middle" x="889.38" y="-7.7" font-family="Times,serif" font-size="14.00" fill="#000000">0x0</text>
<polyline fill="none" stroke="#99c2a2" points="916.12,-0.5 916.12,-58"/>
<text text-anchor="middle" x="960.88" y="-40.7" font-family="Times,serif" font-size="14.00" fill="#000000">Parent</text>
<text text-anchor="middle" x="960.88" y="-24.2" font-family="Times,serif" font-size="14.00" fill="#000000">IN KARTEL</text>
<text text-anchor="middle" x="960.88" y="-7.7" font-family="Times,serif" font-size="14.00" fill="#000000">0x106e01b70</text>
<polyline fill="none" stroke="#99c2a2" points="1005.62,-0.5 1005.62,-58"/>
<text text-anchor="middle" x="1032.38" y="-40.7" font-family="Times,serif" font-size="14.00" fill="#000000">Right</text>
<text text-anchor="middle" x="1032.38" y="-24.2" font-family="Times,serif" font-size="14.00" fill="#000000">NONE</text>
<text text-anchor="middle" x="1032.38" y="-7.7" font-family="Times,serif" font-size="14.00" fill="#000000">0x0</text>
</g>
<!-- node0x106e01b70&#45;&gt;node0x106e01b10 -->
<g id="edge10" class="edge">
<title>node0x106e01b70:right&#45;&gt;node0x106e01b10</title>
<path fill="none" stroke="#48e818" stroke-width="2" d="M942,-152C942,-138.45 943.65,-124.05 945.98,-110.49"/>
<polygon fill="#48e818" stroke="#48e818" stroke-width="2" points="949.11,-112.78 947.52,-102.31 942.23,-111.49 949.11,-112.78"/>
<text text-anchor="middle" x="955.61" y="-120.7" font-family="Times,serif" font-size="14.00">Нет</text>
</g>
</g>
</svg>
