<?xml version="1.0" encoding="UTF-8" standalone="no"?>
<!DOCTYPE svg PUBLIC "-//W3C//DTD SVG 1.1//EN"
 "http://www.w3.org/Graphics/SVG/1.1/DTD/svg11.dtd">
<!-- Generated by graphviz version 12.2.0 (20241103.1931)
 -->
<!-- Pages: 1 -->
<svg width="1094pt" height="1172pt"
 viewBox="0.00 0.00 1093.50 1171.50" xmlns="http://www.w3.org/2000/svg" xmlns:xlink="http://www.w3.org/1999/xlink">
<g id="graph0" class="graph" transform="scale(1 1) rotate(0) translate(4 1167.5)">
<polygon fill="#dcdcdc" stroke="none" points="-4,4 -4,-1167.5 1089.5,-1167.5 1089.5,4 -4,4"/>
<!-- node0x103901e40 -->
<g id="node1" class="node">
<title>node0x103901e40</title>
<path fill="#fbee21" stroke="#d3c70d" d="M118,-1064.5C118,-1064.5 344.5,-1064.5 344.5,-1064.5 350.5,-1064.5 356.5,-1070.5 356.5,-1076.5 356.5,-1076.5 356.5,-1151 356.5,-1151 356.5,-1157 350.5,-1163 344.5,-1163 344.5,-1163 118,-1163 118,-1163 112,-1163 106,-1157 106,-1151 106,-1151 106,-1076.5 106,-1076.5 106,-1070.5 112,-1064.5 118,-1064.5"/>
<text text-anchor="middle" x="231.25" y="-1145.7" font-family="Times,serif" font-size="14.00" fill="#000000">Animal</text>
<text text-anchor="middle" x="231.25" y="-1129.2" font-family="Times,serif" font-size="14.00" fill="#000000">0x103901e40</text>
<polyline fill="none" stroke="#d3c70d" points="106,-1122 356.5,-1122"/>
<text text-anchor="middle" x="150.75" y="-1104.7" font-family="Times,serif" font-size="14.00" fill="#000000">Left</text>
<text text-anchor="middle" x="150.75" y="-1088.2" font-family="Times,serif" font-size="14.00" fill="#000000">Poltorashka</text>
<text text-anchor="middle" x="150.75" y="-1071.7" font-family="Times,serif" font-size="14.00" fill="#000000">0x103901e10</text>
<polyline fill="none" stroke="#d3c70d" points="195.5,-1064.5 195.5,-1122"/>
<text text-anchor="middle" x="222.25" y="-1104.7" font-family="Times,serif" font-size="14.00" fill="#000000">Parent</text>
<text text-anchor="middle" x="222.25" y="-1088.2" font-family="Times,serif" font-size="14.00" fill="#000000">NONE</text>
<text text-anchor="middle" x="222.25" y="-1071.7" font-family="Times,serif" font-size="14.00" fill="#000000">0x0</text>
<polyline fill="none" stroke="#d3c70d" points="249,-1064.5 249,-1122"/>
<text text-anchor="middle" x="302.75" y="-1104.7" font-family="Times,serif" font-size="14.00" fill="#000000">Right</text>
<text text-anchor="middle" x="302.75" y="-1088.2" font-family="Times,serif" font-size="14.00" fill="#000000">Teaches analisys</text>
<text text-anchor="middle" x="302.75" y="-1071.7" font-family="Times,serif" font-size="14.00" fill="#000000">0x103901de0</text>
</g>
<!-- node0x103901e10 -->
<g id="node2" class="node">
<title>node0x103901e10</title>
<path fill="#d5cfe1" stroke="#8797b2" d="M12,-912.5C12,-912.5 184.5,-912.5 184.5,-912.5 190.5,-912.5 196.5,-918.5 196.5,-924.5 196.5,-924.5 196.5,-999 196.5,-999 196.5,-1005 190.5,-1011 184.5,-1011 184.5,-1011 12,-1011 12,-1011 6,-1011 0,-1005 0,-999 0,-999 0,-924.5 0,-924.5 0,-918.5 6,-912.5 12,-912.5"/>
<text text-anchor="middle" x="98.25" y="-993.7" font-family="Times,serif" font-size="14.00" fill="#000000">Poltorashka</text>
<text text-anchor="middle" x="98.25" y="-977.2" font-family="Times,serif" font-size="14.00" fill="#000000">0x103901e10</text>
<polyline fill="none" stroke="#8797b2" points="0,-970 196.5,-970"/>
<text text-anchor="middle" x="26.75" y="-952.7" font-family="Times,serif" font-size="14.00" fill="#000000">Left</text>
<text text-anchor="middle" x="26.75" y="-936.2" font-family="Times,serif" font-size="14.00" fill="#000000">NONE</text>
<text text-anchor="middle" x="26.75" y="-919.7" font-family="Times,serif" font-size="14.00" fill="#000000">0x0</text>
<polyline fill="none" stroke="#8797b2" points="53.5,-912.5 53.5,-970"/>
<text text-anchor="middle" x="98.25" y="-952.7" font-family="Times,serif" font-size="14.00" fill="#000000">Parent</text>
<text text-anchor="middle" x="98.25" y="-936.2" font-family="Times,serif" font-size="14.00" fill="#000000">Animal</text>
<text text-anchor="middle" x="98.25" y="-919.7" font-family="Times,serif" font-size="14.00" fill="#000000">0x103901e40</text>
<polyline fill="none" stroke="#8797b2" points="143,-912.5 143,-970"/>
<text text-anchor="middle" x="169.75" y="-952.7" font-family="Times,serif" font-size="14.00" fill="#000000">Right</text>
<text text-anchor="middle" x="169.75" y="-936.2" font-family="Times,serif" font-size="14.00" fill="#000000">NONE</text>
<text text-anchor="middle" x="169.75" y="-919.7" font-family="Times,serif" font-size="14.00" fill="#000000">0x0</text>
</g>
<!-- node0x103901e40&#45;&gt;node0x103901e10 -->
<g id="edge1" class="edge">
<title>node0x103901e40:left&#45;&gt;node0x103901e10</title>
<path fill="none" stroke="#187ae8" stroke-width="2" d="M105,-1093.25C74.29,-1093.25 74.17,-1056.77 80.87,-1022.38"/>
<polygon fill="#187ae8" stroke="#187ae8" stroke-width="2" points="83.93,-1024.82 82.62,-1014.3 77.09,-1023.34 83.93,-1024.82"/>
<text text-anchor="middle" x="87.09" y="-1032.7" font-family="Times,serif" font-size="14.00">Да</text>
</g>
<!-- node0x103901de0 -->
<g id="node3" class="node">
<title>node0x103901de0</title>
<path fill="#bdef9e" stroke="#99c2a2" d="M226.12,-912.5C226.12,-912.5 486.38,-912.5 486.38,-912.5 492.38,-912.5 498.38,-918.5 498.38,-924.5 498.38,-924.5 498.38,-999 498.38,-999 498.38,-1005 492.38,-1011 486.38,-1011 486.38,-1011 226.12,-1011 226.12,-1011 220.12,-1011 214.12,-1005 214.12,-999 214.12,-999 214.12,-924.5 214.12,-924.5 214.12,-918.5 220.12,-912.5 226.12,-912.5"/>
<text text-anchor="middle" x="356.25" y="-993.7" font-family="Times,serif" font-size="14.00" fill="#000000">Teaches analisys</text>
<text text-anchor="middle" x="356.25" y="-977.2" font-family="Times,serif" font-size="14.00" fill="#000000">0x103901de0</text>
<polyline fill="none" stroke="#99c2a2" points="214.12,-970 498.38,-970"/>
<text text-anchor="middle" x="259.25" y="-952.7" font-family="Times,serif" font-size="14.00" fill="#000000">Left</text>
<text text-anchor="middle" x="259.25" y="-936.2" font-family="Times,serif" font-size="14.00" fill="#000000">Burtsev</text>
<text text-anchor="middle" x="259.25" y="-919.7" font-family="Times,serif" font-size="14.00" fill="#000000">0x103901d80</text>
<polyline fill="none" stroke="#99c2a2" points="304.38,-912.5 304.38,-970"/>
<text text-anchor="middle" x="349.12" y="-952.7" font-family="Times,serif" font-size="14.00" fill="#000000">Parent</text>
<text text-anchor="middle" x="349.12" y="-936.2" font-family="Times,serif" font-size="14.00" fill="#000000">Animal</text>
<text text-anchor="middle" x="349.12" y="-919.7" font-family="Times,serif" font-size="14.00" fill="#000000">0x103901e40</text>
<polyline fill="none" stroke="#99c2a2" points="393.88,-912.5 393.88,-970"/>
<text text-anchor="middle" x="446.12" y="-952.7" font-family="Times,serif" font-size="14.00" fill="#000000">Right</text>
<text text-anchor="middle" x="446.12" y="-936.2" font-family="Times,serif" font-size="14.00" fill="#000000">Teaches physics</text>
<text text-anchor="middle" x="446.12" y="-919.7" font-family="Times,serif" font-size="14.00" fill="#000000">0x103901d50</text>
</g>
<!-- node0x103901e40&#45;&gt;node0x103901de0 -->
<g id="edge16" class="edge">
<title>node0x103901e40:right&#45;&gt;node0x103901de0</title>
<path fill="none" stroke="#48e818" stroke-width="2" d="M302.75,-1064C302.75,-1049.35 307.19,-1034.74 313.5,-1021.36"/>
<polygon fill="#48e818" stroke="#48e818" stroke-width="2" points="315.78,-1024.57 317.27,-1014.08 309.56,-1021.36 315.78,-1024.57"/>
<text text-anchor="middle" x="320.25" y="-1032.7" font-family="Times,serif" font-size="14.00">Нет</text>
</g>
<!-- node0x103901d80 -->
<g id="node4" class="node">
<title>node0x103901d80</title>
<path fill="#d5cfe1" stroke="#8797b2" d="M142,-760.5C142,-760.5 332.5,-760.5 332.5,-760.5 338.5,-760.5 344.5,-766.5 344.5,-772.5 344.5,-772.5 344.5,-847 344.5,-847 344.5,-853 338.5,-859 332.5,-859 332.5,-859 142,-859 142,-859 136,-859 130,-853 130,-847 130,-847 130,-772.5 130,-772.5 130,-766.5 136,-760.5 142,-760.5"/>
<text text-anchor="middle" x="237.25" y="-841.7" font-family="Times,serif" font-size="14.00" fill="#000000">Burtsev</text>
<text text-anchor="middle" x="237.25" y="-825.2" font-family="Times,serif" font-size="14.00" fill="#000000">0x103901d80</text>
<polyline fill="none" stroke="#8797b2" points="130,-818 344.5,-818"/>
<text text-anchor="middle" x="156.75" y="-800.7" font-family="Times,serif" font-size="14.00" fill="#000000">Left</text>
<text text-anchor="middle" x="156.75" y="-784.2" font-family="Times,serif" font-size="14.00" fill="#000000">NONE</text>
<text text-anchor="middle" x="156.75" y="-767.7" font-family="Times,serif" font-size="14.00" fill="#000000">0x0</text>
<polyline fill="none" stroke="#8797b2" points="183.5,-760.5 183.5,-818"/>
<text text-anchor="middle" x="237.25" y="-800.7" font-family="Times,serif" font-size="14.00" fill="#000000">Parent</text>
<text text-anchor="middle" x="237.25" y="-784.2" font-family="Times,serif" font-size="14.00" fill="#000000">Teaches analisys</text>
<text text-anchor="middle" x="237.25" y="-767.7" font-family="Times,serif" font-size="14.00" fill="#000000">0x103901de0</text>
<polyline fill="none" stroke="#8797b2" points="291,-760.5 291,-818"/>
<text text-anchor="middle" x="317.75" y="-800.7" font-family="Times,serif" font-size="14.00" fill="#000000">Right</text>
<text text-anchor="middle" x="317.75" y="-784.2" font-family="Times,serif" font-size="14.00" fill="#000000">NONE</text>
<text text-anchor="middle" x="317.75" y="-767.7" font-family="Times,serif" font-size="14.00" fill="#000000">0x0</text>
</g>
<!-- node0x103901de0&#45;&gt;node0x103901d80 -->
<g id="edge2" class="edge">
<title>node0x103901de0:left&#45;&gt;node0x103901d80</title>
<path fill="none" stroke="#187ae8" stroke-width="2" d="M259.25,-912C259.25,-898.44 257.34,-884.08 254.65,-870.58"/>
<polygon fill="#187ae8" stroke="#187ae8" stroke-width="2" points="258.42,-871.45 252.87,-862.43 251.58,-872.94 258.42,-871.45"/>
<text text-anchor="middle" x="265.95" y="-880.7" font-family="Times,serif" font-size="14.00">Да</text>
</g>
<!-- node0x103901d50 -->
<g id="node5" class="node">
<title>node0x103901d50</title>
<path fill="#bdef9e" stroke="#99c2a2" d="M375,-760.5C375,-760.5 649.5,-760.5 649.5,-760.5 655.5,-760.5 661.5,-766.5 661.5,-772.5 661.5,-772.5 661.5,-847 661.5,-847 661.5,-853 655.5,-859 649.5,-859 649.5,-859 375,-859 375,-859 369,-859 363,-853 363,-847 363,-847 363,-772.5 363,-772.5 363,-766.5 369,-760.5 375,-760.5"/>
<text text-anchor="middle" x="512.25" y="-841.7" font-family="Times,serif" font-size="14.00" fill="#000000">Teaches physics</text>
<text text-anchor="middle" x="512.25" y="-825.2" font-family="Times,serif" font-size="14.00" fill="#000000">0x103901d50</text>
<polyline fill="none" stroke="#99c2a2" points="363,-818 661.5,-818"/>
<text text-anchor="middle" x="408.12" y="-800.7" font-family="Times,serif" font-size="14.00" fill="#000000">Left</text>
<text text-anchor="middle" x="408.12" y="-784.2" font-family="Times,serif" font-size="14.00" fill="#000000">Nefor</text>
<text text-anchor="middle" x="408.12" y="-767.7" font-family="Times,serif" font-size="14.00" fill="#000000">0x103901d20</text>
<polyline fill="none" stroke="#99c2a2" points="453.25,-760.5 453.25,-818"/>
<text text-anchor="middle" x="507" y="-800.7" font-family="Times,serif" font-size="14.00" fill="#000000">Parent</text>
<text text-anchor="middle" x="507" y="-784.2" font-family="Times,serif" font-size="14.00" fill="#000000">Teaches analisys</text>
<text text-anchor="middle" x="507" y="-767.7" font-family="Times,serif" font-size="14.00" fill="#000000">0x103901de0</text>
<polyline fill="none" stroke="#99c2a2" points="560.75,-760.5 560.75,-818"/>
<text text-anchor="middle" x="611.12" y="-800.7" font-family="Times,serif" font-size="14.00" fill="#000000">Right</text>
<text text-anchor="middle" x="611.12" y="-784.2" font-family="Times,serif" font-size="14.00" fill="#000000">Teaches angem</text>
<text text-anchor="middle" x="611.12" y="-767.7" font-family="Times,serif" font-size="14.00" fill="#000000">0x103901c90</text>
</g>
<!-- node0x103901de0&#45;&gt;node0x103901d50 -->
<g id="edge15" class="edge">
<title>node0x103901de0:right&#45;&gt;node0x103901d50</title>
<path fill="none" stroke="#48e818" stroke-width="2" d="M446.12,-912C446.12,-896.8 451.42,-882.09 459.01,-868.82"/>
<polygon fill="#48e818" stroke="#48e818" stroke-width="2" points="460.94,-872.32 463.29,-861.99 455.01,-868.6 460.94,-872.32"/>
<text text-anchor="middle" x="465.19" y="-880.7" font-family="Times,serif" font-size="14.00">Нет</text>
</g>
<!-- node0x103901d20 -->
<g id="node6" class="node">
<title>node0x103901d20</title>
<path fill="#d5cfe1" stroke="#8797b2" d="M149,-608.5C149,-608.5 405.5,-608.5 405.5,-608.5 411.5,-608.5 417.5,-614.5 417.5,-620.5 417.5,-620.5 417.5,-695 417.5,-695 417.5,-701 411.5,-707 405.5,-707 405.5,-707 149,-707 149,-707 143,-707 137,-701 137,-695 137,-695 137,-620.5 137,-620.5 137,-614.5 143,-608.5 149,-608.5"/>
<text text-anchor="middle" x="277.25" y="-689.7" font-family="Times,serif" font-size="14.00" fill="#000000">Nefor</text>
<text text-anchor="middle" x="277.25" y="-673.2" font-family="Times,serif" font-size="14.00" fill="#000000">0x103901d20</text>
<polyline fill="none" stroke="#8797b2" points="137,-666 417.5,-666"/>
<text text-anchor="middle" x="180.62" y="-648.7" font-family="Times,serif" font-size="14.00" fill="#000000">Left</text>
<text text-anchor="middle" x="180.62" y="-632.2" font-family="Times,serif" font-size="14.00" fill="#000000">Magic</text>
<text text-anchor="middle" x="180.62" y="-615.7" font-family="Times,serif" font-size="14.00" fill="#000000">0x103901cf0</text>
<polyline fill="none" stroke="#8797b2" points="224.25,-608.5 224.25,-666"/>
<text text-anchor="middle" x="276.5" y="-648.7" font-family="Times,serif" font-size="14.00" fill="#000000">Parent</text>
<text text-anchor="middle" x="276.5" y="-632.2" font-family="Times,serif" font-size="14.00" fill="#000000">Teaches physics</text>
<text text-anchor="middle" x="276.5" y="-615.7" font-family="Times,serif" font-size="14.00" fill="#000000">0x103901d50</text>
<polyline fill="none" stroke="#8797b2" points="328.75,-608.5 328.75,-666"/>
<text text-anchor="middle" x="373.12" y="-648.7" font-family="Times,serif" font-size="14.00" fill="#000000">Right</text>
<text text-anchor="middle" x="373.12" y="-632.2" font-family="Times,serif" font-size="14.00" fill="#000000">Ovchos</text>
<text text-anchor="middle" x="373.12" y="-615.7" font-family="Times,serif" font-size="14.00" fill="#000000">0x103901cc0</text>
</g>
<!-- node0x103901d50&#45;&gt;node0x103901d20 -->
<g id="edge3" class="edge">
<title>node0x103901d50:left&#45;&gt;node0x103901d20</title>
<path fill="none" stroke="#187ae8" stroke-width="2" d="M408.12,-760C408.12,-742.56 400.77,-727.7 389.54,-715.17"/>
<polygon fill="#187ae8" stroke="#187ae8" stroke-width="2" points="393.33,-714.01 383.78,-709.42 388.38,-718.96 393.33,-714.01"/>
<text text-anchor="middle" x="412.34" y="-728.7" font-family="Times,serif" font-size="14.00">Да</text>
</g>
<!-- node0x103901c90 -->
<g id="node9" class="node">
<title>node0x103901c90</title>
<path fill="#bdef9e" stroke="#99c2a2" d="M560.5,-608.5C560.5,-608.5 820,-608.5 820,-608.5 826,-608.5 832,-614.5 832,-620.5 832,-620.5 832,-695 832,-695 832,-701 826,-707 820,-707 820,-707 560.5,-707 560.5,-707 554.5,-707 548.5,-701 548.5,-695 548.5,-695 548.5,-620.5 548.5,-620.5 548.5,-614.5 554.5,-608.5 560.5,-608.5"/>
<text text-anchor="middle" x="690.25" y="-689.7" font-family="Times,serif" font-size="14.00" fill="#000000">Teaches angem</text>
<text text-anchor="middle" x="690.25" y="-673.2" font-family="Times,serif" font-size="14.00" fill="#000000">0x103901c90</text>
<polyline fill="none" stroke="#99c2a2" points="548.5,-666 832,-666"/>
<text text-anchor="middle" x="593.25" y="-648.7" font-family="Times,serif" font-size="14.00" fill="#000000">Left</text>
<text text-anchor="middle" x="593.25" y="-632.2" font-family="Times,serif" font-size="14.00" fill="#000000">Chubarik</text>
<text text-anchor="middle" x="593.25" y="-615.7" font-family="Times,serif" font-size="14.00" fill="#000000">0x103901c60</text>
<polyline fill="none" stroke="#99c2a2" points="638,-608.5 638,-666"/>
<text text-anchor="middle" x="690.25" y="-648.7" font-family="Times,serif" font-size="14.00" fill="#000000">Parent</text>
<text text-anchor="middle" x="690.25" y="-632.2" font-family="Times,serif" font-size="14.00" fill="#000000">Teaches physics</text>
<text text-anchor="middle" x="690.25" y="-615.7" font-family="Times,serif" font-size="14.00" fill="#000000">0x103901d50</text>
<polyline fill="none" stroke="#99c2a2" points="742.5,-608.5 742.5,-666"/>
<text text-anchor="middle" x="787.25" y="-648.7" font-family="Times,serif" font-size="14.00" fill="#000000">Right</text>
<text text-anchor="middle" x="787.25" y="-632.2" font-family="Times,serif" font-size="14.00" fill="#000000">Do sport</text>
<text text-anchor="middle" x="787.25" y="-615.7" font-family="Times,serif" font-size="14.00" fill="#000000">0x103901c30</text>
</g>
<!-- node0x103901d50&#45;&gt;node0x103901c90 -->
<g id="edge14" class="edge">
<title>node0x103901d50:right&#45;&gt;node0x103901c90</title>
<path fill="none" stroke="#48e818" stroke-width="2" d="M662.5,-789.25C693.72,-789.25 699.76,-753.08 698.48,-718.83"/>
<polygon fill="#48e818" stroke="#48e818" stroke-width="2" points="702.06,-720.14 697.97,-710.37 695.07,-720.56 702.06,-720.14"/>
<text text-anchor="middle" x="709.51" y="-728.7" font-family="Times,serif" font-size="14.00">Нет</text>
</g>
<!-- node0x103901cf0 -->
<g id="node7" class="node">
<title>node0x103901cf0</title>
<path fill="#d5cfe1" stroke="#8797b2" d="M70.62,-456.5C70.62,-456.5 243.88,-456.5 243.88,-456.5 249.88,-456.5 255.88,-462.5 255.88,-468.5 255.88,-468.5 255.88,-543 255.88,-543 255.88,-549 249.88,-555 243.88,-555 243.88,-555 70.62,-555 70.62,-555 64.63,-555 58.62,-549 58.62,-543 58.62,-543 58.62,-468.5 58.62,-468.5 58.62,-462.5 64.62,-456.5 70.62,-456.5"/>
<text text-anchor="middle" x="157.25" y="-537.7" font-family="Times,serif" font-size="14.00" fill="#000000">Magic</text>
<text text-anchor="middle" x="157.25" y="-521.2" font-family="Times,serif" font-size="14.00" fill="#000000">0x103901cf0</text>
<polyline fill="none" stroke="#8797b2" points="58.62,-514 255.88,-514"/>
<text text-anchor="middle" x="85.38" y="-496.7" font-family="Times,serif" font-size="14.00" fill="#000000">Left</text>
<text text-anchor="middle" x="85.38" y="-480.2" font-family="Times,serif" font-size="14.00" fill="#000000">NONE</text>
<text text-anchor="middle" x="85.38" y="-463.7" font-family="Times,serif" font-size="14.00" fill="#000000">0x0</text>
<polyline fill="none" stroke="#8797b2" points="112.12,-456.5 112.12,-514"/>
<text text-anchor="middle" x="157.25" y="-496.7" font-family="Times,serif" font-size="14.00" fill="#000000">Parent</text>
<text text-anchor="middle" x="157.25" y="-480.2" font-family="Times,serif" font-size="14.00" fill="#000000">Nefor</text>
<text text-anchor="middle" x="157.25" y="-463.7" font-family="Times,serif" font-size="14.00" fill="#000000">0x103901d20</text>
<polyline fill="none" stroke="#8797b2" points="202.38,-456.5 202.38,-514"/>
<text text-anchor="middle" x="229.12" y="-496.7" font-family="Times,serif" font-size="14.00" fill="#000000">Right</text>
<text text-anchor="middle" x="229.12" y="-480.2" font-family="Times,serif" font-size="14.00" fill="#000000">NONE</text>
<text text-anchor="middle" x="229.12" y="-463.7" font-family="Times,serif" font-size="14.00" fill="#000000">0x0</text>
</g>
<!-- node0x103901d20&#45;&gt;node0x103901cf0 -->
<g id="edge4" class="edge">
<title>node0x103901d20:left&#45;&gt;node0x103901cf0</title>
<path fill="none" stroke="#187ae8" stroke-width="2" d="M180.62,-608C180.62,-594.4 178.6,-580.03 175.74,-566.52"/>
<polygon fill="#187ae8" stroke="#187ae8" stroke-width="2" points="179.51,-567.31 173.85,-558.36 172.69,-568.89 179.51,-567.31"/>
<text text-anchor="middle" x="187.25" y="-576.7" font-family="Times,serif" font-size="14.00">Да</text>
</g>
<!-- node0x103901cc0 -->
<g id="node8" class="node">
<title>node0x103901cc0</title>
<path fill="#bdef9e" stroke="#99c2a2" d="M285.62,-456.5C285.62,-456.5 458.88,-456.5 458.88,-456.5 464.88,-456.5 470.88,-462.5 470.88,-468.5 470.88,-468.5 470.88,-543 470.88,-543 470.88,-549 464.88,-555 458.88,-555 458.88,-555 285.62,-555 285.62,-555 279.62,-555 273.62,-549 273.62,-543 273.62,-543 273.62,-468.5 273.62,-468.5 273.62,-462.5 279.62,-456.5 285.62,-456.5"/>
<text text-anchor="middle" x="372.25" y="-537.7" font-family="Times,serif" font-size="14.00" fill="#000000">Ovchos</text>
<text text-anchor="middle" x="372.25" y="-521.2" font-family="Times,serif" font-size="14.00" fill="#000000">0x103901cc0</text>
<polyline fill="none" stroke="#99c2a2" points="273.62,-514 470.88,-514"/>
<text text-anchor="middle" x="300.38" y="-496.7" font-family="Times,serif" font-size="14.00" fill="#000000">Left</text>
<text text-anchor="middle" x="300.38" y="-480.2" font-family="Times,serif" font-size="14.00" fill="#000000">NONE</text>
<text text-anchor="middle" x="300.38" y="-463.7" font-family="Times,serif" font-size="14.00" fill="#000000">0x0</text>
<polyline fill="none" stroke="#99c2a2" points="327.12,-456.5 327.12,-514"/>
<text text-anchor="middle" x="372.25" y="-496.7" font-family="Times,serif" font-size="14.00" fill="#000000">Parent</text>
<text text-anchor="middle" x="372.25" y="-480.2" font-family="Times,serif" font-size="14.00" fill="#000000">Nefor</text>
<text text-anchor="middle" x="372.25" y="-463.7" font-family="Times,serif" font-size="14.00" fill="#000000">0x103901d20</text>
<polyline fill="none" stroke="#99c2a2" points="417.38,-456.5 417.38,-514"/>
<text text-anchor="middle" x="444.12" y="-496.7" font-family="Times,serif" font-size="14.00" fill="#000000">Right</text>
<text text-anchor="middle" x="444.12" y="-480.2" font-family="Times,serif" font-size="14.00" fill="#000000">NONE</text>
<text text-anchor="middle" x="444.12" y="-463.7" font-family="Times,serif" font-size="14.00" fill="#000000">0x0</text>
</g>
<!-- node0x103901d20&#45;&gt;node0x103901cc0 -->
<g id="edge5" class="edge">
<title>node0x103901d20:right&#45;&gt;node0x103901cc0</title>
<path fill="none" stroke="#48e818" stroke-width="2" d="M373.12,-608C373.12,-594.61 373.05,-580.22 372.94,-566.62"/>
<polygon fill="#48e818" stroke="#48e818" stroke-width="2" points="376.45,-568.41 372.87,-558.44 369.45,-568.47 376.45,-568.41"/>
<text text-anchor="middle" x="383.95" y="-576.7" font-family="Times,serif" font-size="14.00">Нет</text>
</g>
<!-- node0x103901c60 -->
<g id="node10" class="node">
<title>node0x103901c60</title>
<path fill="#d5cfe1" stroke="#8797b2" d="M501.38,-456.5C501.38,-456.5 685.12,-456.5 685.12,-456.5 691.12,-456.5 697.12,-462.5 697.12,-468.5 697.12,-468.5 697.12,-543 697.12,-543 697.12,-549 691.12,-555 685.12,-555 685.12,-555 501.38,-555 501.38,-555 495.38,-555 489.38,-549 489.38,-543 489.38,-543 489.38,-468.5 489.38,-468.5 489.38,-462.5 495.38,-456.5 501.38,-456.5"/>
<text text-anchor="middle" x="593.25" y="-537.7" font-family="Times,serif" font-size="14.00" fill="#000000">Chubarik</text>
<text text-anchor="middle" x="593.25" y="-521.2" font-family="Times,serif" font-size="14.00" fill="#000000">0x103901c60</text>
<polyline fill="none" stroke="#8797b2" points="489.38,-514 697.12,-514"/>
<text text-anchor="middle" x="516.12" y="-496.7" font-family="Times,serif" font-size="14.00" fill="#000000">Left</text>
<text text-anchor="middle" x="516.12" y="-480.2" font-family="Times,serif" font-size="14.00" fill="#000000">NONE</text>
<text text-anchor="middle" x="516.12" y="-463.7" font-family="Times,serif" font-size="14.00" fill="#000000">0x0</text>
<polyline fill="none" stroke="#8797b2" points="542.88,-456.5 542.88,-514"/>
<text text-anchor="middle" x="593.25" y="-496.7" font-family="Times,serif" font-size="14.00" fill="#000000">Parent</text>
<text text-anchor="middle" x="593.25" y="-480.2" font-family="Times,serif" font-size="14.00" fill="#000000">Teaches angem</text>
<text text-anchor="middle" x="593.25" y="-463.7" font-family="Times,serif" font-size="14.00" fill="#000000">0x103901c90</text>
<polyline fill="none" stroke="#8797b2" points="643.62,-456.5 643.62,-514"/>
<text text-anchor="middle" x="670.38" y="-496.7" font-family="Times,serif" font-size="14.00" fill="#000000">Right</text>
<text text-anchor="middle" x="670.38" y="-480.2" font-family="Times,serif" font-size="14.00" fill="#000000">NONE</text>
<text text-anchor="middle" x="670.38" y="-463.7" font-family="Times,serif" font-size="14.00" fill="#000000">0x0</text>
</g>
<!-- node0x103901c90&#45;&gt;node0x103901c60 -->
<g id="edge6" class="edge">
<title>node0x103901c90:left&#45;&gt;node0x103901c60</title>
<path fill="none" stroke="#187ae8" stroke-width="2" d="M593.25,-608C593.25,-594.61 593.25,-580.22 593.25,-566.62"/>
<polygon fill="#187ae8" stroke="#187ae8" stroke-width="2" points="596.75,-568.44 593.25,-558.44 589.75,-568.44 596.75,-568.44"/>
<text text-anchor="middle" x="601.12" y="-576.7" font-family="Times,serif" font-size="14.00">Да</text>
</g>
<!-- node0x103901c30 -->
<g id="node11" class="node">
<title>node0x103901c30</title>
<path fill="#bdef9e" stroke="#99c2a2" d="M726.75,-456.5C726.75,-456.5 981.75,-456.5 981.75,-456.5 987.75,-456.5 993.75,-462.5 993.75,-468.5 993.75,-468.5 993.75,-543 993.75,-543 993.75,-549 987.75,-555 981.75,-555 981.75,-555 726.75,-555 726.75,-555 720.75,-555 714.75,-549 714.75,-543 714.75,-543 714.75,-468.5 714.75,-468.5 714.75,-462.5 720.75,-456.5 726.75,-456.5"/>
<text text-anchor="middle" x="854.25" y="-537.7" font-family="Times,serif" font-size="14.00" fill="#000000">Do sport</text>
<text text-anchor="middle" x="854.25" y="-521.2" font-family="Times,serif" font-size="14.00" fill="#000000">0x103901c30</text>
<polyline fill="none" stroke="#99c2a2" points="714.75,-514 993.75,-514"/>
<text text-anchor="middle" x="759.5" y="-496.7" font-family="Times,serif" font-size="14.00" fill="#000000">Left</text>
<text text-anchor="middle" x="759.5" y="-480.2" font-family="Times,serif" font-size="14.00" fill="#000000">Coach</text>
<text text-anchor="middle" x="759.5" y="-463.7" font-family="Times,serif" font-size="14.00" fill="#000000">0x103901c00</text>
<polyline fill="none" stroke="#99c2a2" points="804.25,-456.5 804.25,-514"/>
<text text-anchor="middle" x="854.62" y="-496.7" font-family="Times,serif" font-size="14.00" fill="#000000">Parent</text>
<text text-anchor="middle" x="854.62" y="-480.2" font-family="Times,serif" font-size="14.00" fill="#000000">Teaches angem</text>
<text text-anchor="middle" x="854.62" y="-463.7" font-family="Times,serif" font-size="14.00" fill="#000000">0x103901c90</text>
<polyline fill="none" stroke="#99c2a2" points="905,-456.5 905,-514"/>
<text text-anchor="middle" x="949.38" y="-496.7" font-family="Times,serif" font-size="14.00" fill="#000000">Right</text>
<text text-anchor="middle" x="949.38" y="-480.2" font-family="Times,serif" font-size="14.00" fill="#000000">Kvadrober</text>
<text text-anchor="middle" x="949.38" y="-463.7" font-family="Times,serif" font-size="14.00" fill="#000000">0x103901ae0</text>
</g>
<!-- node0x103901c90&#45;&gt;node0x103901c30 -->
<g id="edge13" class="edge">
<title>node0x103901c90:right&#45;&gt;node0x103901c30</title>
<path fill="none" stroke="#48e818" stroke-width="2" d="M787.25,-608C787.25,-592.73 792.61,-578 800.3,-564.73"/>
<polygon fill="#48e818" stroke="#48e818" stroke-width="2" points="802.24,-568.2 804.65,-557.88 796.33,-564.45 802.24,-568.2"/>
<text text-anchor="middle" x="806.43" y="-576.7" font-family="Times,serif" font-size="14.00">Нет</text>
</g>
<!-- node0x103901c00 -->
<g id="node12" class="node">
<title>node0x103901c00</title>
<path fill="#d5cfe1" stroke="#8797b2" d="M584,-304.5C584,-304.5 858.5,-304.5 858.5,-304.5 864.5,-304.5 870.5,-310.5 870.5,-316.5 870.5,-316.5 870.5,-391 870.5,-391 870.5,-397 864.5,-403 858.5,-403 858.5,-403 584,-403 584,-403 578,-403 572,-397 572,-391 572,-391 572,-316.5 572,-316.5 572,-310.5 578,-304.5 584,-304.5"/>
<text text-anchor="middle" x="721.25" y="-385.7" font-family="Times,serif" font-size="14.00" fill="#000000">Coach</text>
<text text-anchor="middle" x="721.25" y="-369.2" font-family="Times,serif" font-size="14.00" fill="#000000">0x103901c00</text>
<polyline fill="none" stroke="#8797b2" points="572,-362 870.5,-362"/>
<text text-anchor="middle" x="631.38" y="-344.7" font-family="Times,serif" font-size="14.00" fill="#000000">Left</text>
<text text-anchor="middle" x="631.38" y="-328.2" font-family="Times,serif" font-size="14.00" fill="#000000">Valentin Guardiola</text>
<text text-anchor="middle" x="631.38" y="-311.7" font-family="Times,serif" font-size="14.00" fill="#000000">0x103901bd0</text>
<polyline fill="none" stroke="#8797b2" points="690.75,-304.5 690.75,-362"/>
<text text-anchor="middle" x="735.5" y="-344.7" font-family="Times,serif" font-size="14.00" fill="#000000">Parent</text>
<text text-anchor="middle" x="735.5" y="-328.2" font-family="Times,serif" font-size="14.00" fill="#000000">Do sport</text>
<text text-anchor="middle" x="735.5" y="-311.7" font-family="Times,serif" font-size="14.00" fill="#000000">0x103901c30</text>
<polyline fill="none" stroke="#8797b2" points="780.25,-304.5 780.25,-362"/>
<text text-anchor="middle" x="825.38" y="-344.7" font-family="Times,serif" font-size="14.00" fill="#000000">Right</text>
<text text-anchor="middle" x="825.38" y="-328.2" font-family="Times,serif" font-size="14.00" fill="#000000">IN KARTEL</text>
<text text-anchor="middle" x="825.38" y="-311.7" font-family="Times,serif" font-size="14.00" fill="#000000">0x103901b70</text>
</g>
<!-- node0x103901c30&#45;&gt;node0x103901c00 -->
<g id="edge7" class="edge">
<title>node0x103901c30:left&#45;&gt;node0x103901c00</title>
<path fill="none" stroke="#187ae8" stroke-width="2" d="M759.5,-456C759.5,-441.91 756.22,-427.4 751.58,-413.91"/>
<polygon fill="#187ae8" stroke="#187ae8" stroke-width="2" points="755.47,-414.3 748.67,-406.17 748.92,-416.76 755.47,-414.3"/>
<text text-anchor="middle" x="765.34" y="-424.7" font-family="Times,serif" font-size="14.00">Да</text>
</g>
<!-- node0x103901ae0 -->
<g id="node17" class="node">
<title>node0x103901ae0</title>
<path fill="#bdef9e" stroke="#99c2a2" d="M901,-304.5C901,-304.5 1073.5,-304.5 1073.5,-304.5 1079.5,-304.5 1085.5,-310.5 1085.5,-316.5 1085.5,-316.5 1085.5,-391 1085.5,-391 1085.5,-397 1079.5,-403 1073.5,-403 1073.5,-403 901,-403 901,-403 895,-403 889,-397 889,-391 889,-391 889,-316.5 889,-316.5 889,-310.5 895,-304.5 901,-304.5"/>
<text text-anchor="middle" x="987.25" y="-385.7" font-family="Times,serif" font-size="14.00" fill="#000000">Kvadrober</text>
<text text-anchor="middle" x="987.25" y="-369.2" font-family="Times,serif" font-size="14.00" fill="#000000">0x103901ae0</text>
<polyline fill="none" stroke="#99c2a2" points="889,-362 1085.5,-362"/>
<text text-anchor="middle" x="915.75" y="-344.7" font-family="Times,serif" font-size="14.00" fill="#000000">Left</text>
<text text-anchor="middle" x="915.75" y="-328.2" font-family="Times,serif" font-size="14.00" fill="#000000">NONE</text>
<text text-anchor="middle" x="915.75" y="-311.7" font-family="Times,serif" font-size="14.00" fill="#000000">0x0</text>
<polyline fill="none" stroke="#99c2a2" points="942.5,-304.5 942.5,-362"/>
<text text-anchor="middle" x="987.25" y="-344.7" font-family="Times,serif" font-size="14.00" fill="#000000">Parent</text>
<text text-anchor="middle" x="987.25" y="-328.2" font-family="Times,serif" font-size="14.00" fill="#000000">Do sport</text>
<text text-anchor="middle" x="987.25" y="-311.7" font-family="Times,serif" font-size="14.00" fill="#000000">0x103901c30</text>
<polyline fill="none" stroke="#99c2a2" points="1032,-304.5 1032,-362"/>
<text text-anchor="middle" x="1058.75" y="-344.7" font-family="Times,serif" font-size="14.00" fill="#000000">Right</text>
<text text-anchor="middle" x="1058.75" y="-328.2" font-family="Times,serif" font-size="14.00" fill="#000000">NONE</text>
<text text-anchor="middle" x="1058.75" y="-311.7" font-family="Times,serif" font-size="14.00" fill="#000000">0x0</text>
</g>
<!-- node0x103901c30&#45;&gt;node0x103901ae0 -->
<g id="edge12" class="edge">
<title>node0x103901c30:right&#45;&gt;node0x103901ae0</title>
<path fill="none" stroke="#48e818" stroke-width="2" d="M949.38,-456C949.38,-441.93 952.62,-427.42 957.22,-413.93"/>
<polygon fill="#48e818" stroke="#48e818" stroke-width="2" points="959.89,-416.79 960.09,-406.2 953.33,-414.35 959.89,-416.79"/>
<text text-anchor="middle" x="964.94" y="-424.7" font-family="Times,serif" font-size="14.00">Нет</text>
</g>
<!-- node0x103901bd0 -->
<g id="node13" class="node">
<title>node0x103901bd0</title>
<path fill="#d5cfe1" stroke="#8797b2" d="M517,-152.5C517,-152.5 689.5,-152.5 689.5,-152.5 695.5,-152.5 701.5,-158.5 701.5,-164.5 701.5,-164.5 701.5,-239 701.5,-239 701.5,-245 695.5,-251 689.5,-251 689.5,-251 517,-251 517,-251 511,-251 505,-245 505,-239 505,-239 505,-164.5 505,-164.5 505,-158.5 511,-152.5 517,-152.5"/>
<text text-anchor="middle" x="603.25" y="-233.7" font-family="Times,serif" font-size="14.00" fill="#000000">Valentin Guardiola</text>
<text text-anchor="middle" x="603.25" y="-217.2" font-family="Times,serif" font-size="14.00" fill="#000000">0x103901bd0</text>
<polyline fill="none" stroke="#8797b2" points="505,-210 701.5,-210"/>
<text text-anchor="middle" x="531.75" y="-192.7" font-family="Times,serif" font-size="14.00" fill="#000000">Left</text>
<text text-anchor="middle" x="531.75" y="-176.2" font-family="Times,serif" font-size="14.00" fill="#000000">NONE</text>
<text text-anchor="middle" x="531.75" y="-159.7" font-family="Times,serif" font-size="14.00" fill="#000000">0x0</text>
<polyline fill="none" stroke="#8797b2" points="558.5,-152.5 558.5,-210"/>
<text text-anchor="middle" x="603.25" y="-192.7" font-family="Times,serif" font-size="14.00" fill="#000000">Parent</text>
<text text-anchor="middle" x="603.25" y="-176.2" font-family="Times,serif" font-size="14.00" fill="#000000">Coach</text>
<text text-anchor="middle" x="603.25" y="-159.7" font-family="Times,serif" font-size="14.00" fill="#000000">0x103901c00</text>
<polyline fill="none" stroke="#8797b2" points="648,-152.5 648,-210"/>
<text text-anchor="middle" x="674.75" y="-192.7" font-family="Times,serif" font-size="14.00" fill="#000000">Right</text>
<text text-anchor="middle" x="674.75" y="-176.2" font-family="Times,serif" font-size="14.00" fill="#000000">NONE</text>
<text text-anchor="middle" x="674.75" y="-159.7" font-family="Times,serif" font-size="14.00" fill="#000000">0x0</text>
</g>
<!-- node0x103901c00&#45;&gt;node0x103901bd0 -->
<g id="edge8" class="edge">
<title>node0x103901c00:left&#45;&gt;node0x103901bd0</title>
<path fill="none" stroke="#187ae8" stroke-width="2" d="M631.38,-304C631.38,-290.32 628.96,-275.96 625.55,-262.5"/>
<polygon fill="#187ae8" stroke="#187ae8" stroke-width="2" points="629.33,-263.06 623.29,-254.36 622.59,-264.93 629.33,-263.06"/>
<text text-anchor="middle" x="637.75" y="-272.7" font-family="Times,serif" font-size="14.00">Да</text>
</g>
<!-- node0x103901b70 -->
<g id="node14" class="node">
<title>node0x103901b70</title>
<path fill="#bdef9e" stroke="#99c2a2" d="M731.25,-152.5C731.25,-152.5 977.25,-152.5 977.25,-152.5 983.25,-152.5 989.25,-158.5 989.25,-164.5 989.25,-164.5 989.25,-239 989.25,-239 989.25,-245 983.25,-251 977.25,-251 977.25,-251 731.25,-251 731.25,-251 725.25,-251 719.25,-245 719.25,-239 719.25,-239 719.25,-164.5 719.25,-164.5 719.25,-158.5 725.25,-152.5 731.25,-152.5"/>
<text text-anchor="middle" x="854.25" y="-233.7" font-family="Times,serif" font-size="14.00" fill="#000000">IN KARTEL</text>
<text text-anchor="middle" x="854.25" y="-217.2" font-family="Times,serif" font-size="14.00" fill="#000000">0x103901b70</text>
<polyline fill="none" stroke="#99c2a2" points="719.25,-210 989.25,-210"/>
<text text-anchor="middle" x="764.38" y="-192.7" font-family="Times,serif" font-size="14.00" fill="#000000">Left</text>
<text text-anchor="middle" x="764.38" y="-176.2" font-family="Times,serif" font-size="14.00" fill="#000000">LEGEND</text>
<text text-anchor="middle" x="764.38" y="-159.7" font-family="Times,serif" font-size="14.00" fill="#000000">0x103901b40</text>
<polyline fill="none" stroke="#99c2a2" points="809.5,-152.5 809.5,-210"/>
<text text-anchor="middle" x="854.25" y="-192.7" font-family="Times,serif" font-size="14.00" fill="#000000">Parent</text>
<text text-anchor="middle" x="854.25" y="-176.2" font-family="Times,serif" font-size="14.00" fill="#000000">Coach</text>
<text text-anchor="middle" x="854.25" y="-159.7" font-family="Times,serif" font-size="14.00" fill="#000000">0x103901c00</text>
<polyline fill="none" stroke="#99c2a2" points="899,-152.5 899,-210"/>
<text text-anchor="middle" x="944.12" y="-192.7" font-family="Times,serif" font-size="14.00" fill="#000000">Right</text>
<text text-anchor="middle" x="944.12" y="-176.2" font-family="Times,serif" font-size="14.00" fill="#000000">LX</text>
<text text-anchor="middle" x="944.12" y="-159.7" font-family="Times,serif" font-size="14.00" fill="#000000">0x103901b10</text>
</g>
<!-- node0x103901c00&#45;&gt;node0x103901b70 -->
<g id="edge11" class="edge">
<title>node0x103901c00:right&#45;&gt;node0x103901b70</title>
<path fill="none" stroke="#48e818" stroke-width="2" d="M825.38,-304C825.38,-290.29 827.85,-275.92 831.36,-262.46"/>
<polygon fill="#48e818" stroke="#48e818" stroke-width="2" points="834.31,-264.89 833.68,-254.31 827.57,-262.97 834.31,-264.89"/>
<text text-anchor="middle" x="840.44" y="-272.7" font-family="Times,serif" font-size="14.00">Нет</text>
</g>
<!-- node0x103901b40 -->
<g id="node15" class="node">
<title>node0x103901b40</title>
<path fill="#d5cfe1" stroke="#8797b2" d="M660.62,-0.5C660.62,-0.5 833.88,-0.5 833.88,-0.5 839.88,-0.5 845.88,-6.5 845.88,-12.5 845.88,-12.5 845.88,-87 845.88,-87 845.88,-93 839.88,-99 833.88,-99 833.88,-99 660.62,-99 660.62,-99 654.62,-99 648.62,-93 648.62,-87 648.62,-87 648.62,-12.5 648.62,-12.5 648.62,-6.5 654.62,-0.5 660.62,-0.5"/>
<text text-anchor="middle" x="747.25" y="-81.7" font-family="Times,serif" font-size="14.00" fill="#000000">LEGEND</text>
<text text-anchor="middle" x="747.25" y="-65.2" font-family="Times,serif" font-size="14.00" fill="#000000">0x103901b40</text>
<polyline fill="none" stroke="#8797b2" points="648.62,-58 845.88,-58"/>
<text text-anchor="middle" x="675.38" y="-40.7" font-family="Times,serif" font-size="14.00" fill="#000000">Left</text>
<text text-anchor="middle" x="675.38" y="-24.2" font-family="Times,serif" font-size="14.00" fill="#000000">NONE</text>
<text text-anchor="middle" x="675.38" y="-7.7" font-family="Times,serif" font-size="14.00" fill="#000000">0x0</text>
<polyline fill="none" stroke="#8797b2" points="702.12,-0.5 702.12,-58"/>
<text text-anchor="middle" x="747.25" y="-40.7" font-family="Times,serif" font-size="14.00" fill="#000000">Parent</text>
<text text-anchor="middle" x="747.25" y="-24.2" font-family="Times,serif" font-size="14.00" fill="#000000">IN KARTEL</text>
<text text-anchor="middle" x="747.25" y="-7.7" font-family="Times,serif" font-size="14.00" fill="#000000">0x103901b70</text>
<polyline fill="none" stroke="#8797b2" points="792.38,-0.5 792.38,-58"/>
<text text-anchor="middle" x="819.12" y="-40.7" font-family="Times,serif" font-size="14.00" fill="#000000">Right</text>
<text text-anchor="middle" x="819.12" y="-24.2" font-family="Times,serif" font-size="14.00" fill="#000000">NONE</text>
<text text-anchor="middle" x="819.12" y="-7.7" font-family="Times,serif" font-size="14.00" fill="#000000">0x0</text>
</g>
<!-- node0x103901b70&#45;&gt;node0x103901b40 -->
<g id="edge9" class="edge">
<title>node0x103901b70:left&#45;&gt;node0x103901b40</title>
<path fill="none" stroke="#187ae8" stroke-width="2" d="M764.38,-152C764.38,-138.49 762.87,-124.11 760.76,-110.55"/>
<polygon fill="#187ae8" stroke="#187ae8" stroke-width="2" points="764.5,-111.65 759.37,-102.38 757.6,-112.82 764.5,-111.65"/>
<text text-anchor="middle" x="771.34" y="-120.7" font-family="Times,serif" font-size="14.00">Да</text>
</g>
<!-- node0x103901b10 -->
<g id="node16" class="node">
<title>node0x103901b10</title>
<path fill="#bdef9e" stroke="#99c2a2" d="M875.62,-0.5C875.62,-0.5 1048.88,-0.5 1048.88,-0.5 1054.88,-0.5 1060.88,-6.5 1060.88,-12.5 1060.88,-12.5 1060.88,-87 1060.88,-87 1060.88,-93 1054.88,-99 1048.88,-99 1048.88,-99 875.62,-99 875.62,-99 869.62,-99 863.62,-93 863.62,-87 863.62,-87 863.62,-12.5 863.62,-12.5 863.62,-6.5 869.62,-0.5 875.62,-0.5"/>
<text text-anchor="middle" x="962.25" y="-81.7" font-family="Times,serif" font-size="14.00" fill="#000000">LX</text>
<text text-anchor="middle" x="962.25" y="-65.2" font-family="Times,serif" font-size="14.00" fill="#000000">0x103901b10</text>
<polyline fill="none" stroke="#99c2a2" points="863.62,-58 1060.88,-58"/>
<text text-anchor="middle" x="890.38" y="-40.7" font-family="Times,serif" font-size="14.00" fill="#000000">Left</text>
<text text-anchor="middle" x="890.38" y="-24.2" font-family="Times,serif" font-size="14.00" fill="#000000">NONE</text>
<text text-anchor="middle" x="890.38" y="-7.7" font-family="Times,serif" font-size="14.00" fill="#000000">0x0</text>
<polyline fill="none" stroke="#99c2a2" points="917.12,-0.5 917.12,-58"/>
<text text-anchor="middle" x="962.25" y="-40.7" font-family="Times,serif" font-size="14.00" fill="#000000">Parent</text>
<text text-anchor="middle" x="962.25" y="-24.2" font-family="Times,serif" font-size="14.00" fill="#000000">IN KARTEL</text>
<text text-anchor="middle" x="962.25" y="-7.7" font-family="Times,serif" font-size="14.00" fill="#000000">0x103901b70</text>
<polyline fill="none" stroke="#99c2a2" points="1007.38,-0.5 1007.38,-58"/>
<text text-anchor="middle" x="1034.12" y="-40.7" font-family="Times,serif" font-size="14.00" fill="#000000">Right</text>
<text text-anchor="middle" x="1034.12" y="-24.2" font-family="Times,serif" font-size="14.00" fill="#000000">NONE</text>
<text text-anchor="middle" x="1034.12" y="-7.7" font-family="Times,serif" font-size="14.00" fill="#000000">0x0</text>
</g>
<!-- node0x103901b70&#45;&gt;node0x103901b10 -->
<g id="edge10" class="edge">
<title>node0x103901b70:right&#45;&gt;node0x103901b10</title>
<path fill="none" stroke="#48e818" stroke-width="2" d="M944.12,-152C944.12,-138.47 945.71,-124.07 947.95,-110.52"/>
<polygon fill="#48e818" stroke="#48e818" stroke-width="2" points="951.09,-112.8 949.42,-102.34 944.2,-111.56 951.09,-112.8"/>
<text text-anchor="middle" x="957.63" y="-120.7" font-family="Times,serif" font-size="14.00">Нет</text>
</g>
</g>
</svg>
