<?xml version="1.0" encoding="UTF-8" standalone="no"?>
<!DOCTYPE svg PUBLIC "-//W3C//DTD SVG 1.1//EN"
 "http://www.w3.org/Graphics/SVG/1.1/DTD/svg11.dtd">
<!-- Generated by graphviz version 12.2.0 (20241103.1931)
 -->
<!-- Pages: 1 -->
<svg width="800pt" height="716pt"
 viewBox="0.00 0.00 800.00 715.50" xmlns="http://www.w3.org/2000/svg" xmlns:xlink="http://www.w3.org/1999/xlink">
<g id="graph0" class="graph" transform="scale(1 1) rotate(0) translate(4 711.5)">
<polygon fill="#dcdcdc" stroke="none" points="-4,4 -4,-711.5 796,-711.5 796,4 -4,4"/>
<!-- node0x107601e10 -->
<g id="node1" class="node">
<title>node0x107601e10</title>
<path fill="#fbee21" stroke="#d3c70d" d="M118,-608.5C118,-608.5 344.5,-608.5 344.5,-608.5 350.5,-608.5 356.5,-614.5 356.5,-620.5 356.5,-620.5 356.5,-695 356.5,-695 356.5,-701 350.5,-707 344.5,-707 344.5,-707 118,-707 118,-707 112,-707 106,-701 106,-695 106,-695 106,-620.5 106,-620.5 106,-614.5 112,-608.5 118,-608.5"/>
<text text-anchor="middle" x="231.25" y="-689.7" font-family="Times,serif" font-size="14.00" fill="#000000">Animal</text>
<text text-anchor="middle" x="231.25" y="-673.2" font-family="Times,serif" font-size="14.00" fill="#000000">0x107601e10</text>
<polyline fill="none" stroke="#d3c70d" points="106,-666 356.5,-666"/>
<text text-anchor="middle" x="150.75" y="-648.7" font-family="Times,serif" font-size="14.00" fill="#000000">Left</text>
<text text-anchor="middle" x="150.75" y="-632.2" font-family="Times,serif" font-size="14.00" fill="#000000">Poltorashka</text>
<text text-anchor="middle" x="150.75" y="-615.7" font-family="Times,serif" font-size="14.00" fill="#000000">0x107601de0</text>
<polyline fill="none" stroke="#d3c70d" points="195.5,-608.5 195.5,-666"/>
<text text-anchor="middle" x="222.25" y="-648.7" font-family="Times,serif" font-size="14.00" fill="#000000">Parent</text>
<text text-anchor="middle" x="222.25" y="-632.2" font-family="Times,serif" font-size="14.00" fill="#000000">NONE</text>
<text text-anchor="middle" x="222.25" y="-615.7" font-family="Times,serif" font-size="14.00" fill="#000000">0x0</text>
<polyline fill="none" stroke="#d3c70d" points="249,-608.5 249,-666"/>
<text text-anchor="middle" x="302.75" y="-648.7" font-family="Times,serif" font-size="14.00" fill="#000000">Right</text>
<text text-anchor="middle" x="302.75" y="-632.2" font-family="Times,serif" font-size="14.00" fill="#000000">Teaches analisys</text>
<text text-anchor="middle" x="302.75" y="-615.7" font-family="Times,serif" font-size="14.00" fill="#000000">0x107601db0</text>
</g>
<!-- node0x107601de0 -->
<g id="node2" class="node">
<title>node0x107601de0</title>
<path fill="#d5cfe1" stroke="#8797b2" d="M12,-456.5C12,-456.5 184.5,-456.5 184.5,-456.5 190.5,-456.5 196.5,-462.5 196.5,-468.5 196.5,-468.5 196.5,-543 196.5,-543 196.5,-549 190.5,-555 184.5,-555 184.5,-555 12,-555 12,-555 6,-555 0,-549 0,-543 0,-543 0,-468.5 0,-468.5 0,-462.5 6,-456.5 12,-456.5"/>
<text text-anchor="middle" x="98.25" y="-537.7" font-family="Times,serif" font-size="14.00" fill="#000000">Poltorashka</text>
<text text-anchor="middle" x="98.25" y="-521.2" font-family="Times,serif" font-size="14.00" fill="#000000">0x107601de0</text>
<polyline fill="none" stroke="#8797b2" points="0,-514 196.5,-514"/>
<text text-anchor="middle" x="26.75" y="-496.7" font-family="Times,serif" font-size="14.00" fill="#000000">Left</text>
<text text-anchor="middle" x="26.75" y="-480.2" font-family="Times,serif" font-size="14.00" fill="#000000">NONE</text>
<text text-anchor="middle" x="26.75" y="-463.7" font-family="Times,serif" font-size="14.00" fill="#000000">0x0</text>
<polyline fill="none" stroke="#8797b2" points="53.5,-456.5 53.5,-514"/>
<text text-anchor="middle" x="98.25" y="-496.7" font-family="Times,serif" font-size="14.00" fill="#000000">Parent</text>
<text text-anchor="middle" x="98.25" y="-480.2" font-family="Times,serif" font-size="14.00" fill="#000000">Animal</text>
<text text-anchor="middle" x="98.25" y="-463.7" font-family="Times,serif" font-size="14.00" fill="#000000">0x107601e10</text>
<polyline fill="none" stroke="#8797b2" points="143,-456.5 143,-514"/>
<text text-anchor="middle" x="169.75" y="-496.7" font-family="Times,serif" font-size="14.00" fill="#000000">Right</text>
<text text-anchor="middle" x="169.75" y="-480.2" font-family="Times,serif" font-size="14.00" fill="#000000">NONE</text>
<text text-anchor="middle" x="169.75" y="-463.7" font-family="Times,serif" font-size="14.00" fill="#000000">0x0</text>
</g>
<!-- node0x107601e10&#45;&gt;node0x107601de0 -->
<g id="edge1" class="edge">
<title>node0x107601e10:left&#45;&gt;node0x107601de0</title>
<path fill="none" stroke="#187ae8" stroke-width="2" d="M105,-637.25C74.29,-637.25 74.17,-600.77 80.87,-566.38"/>
<polygon fill="#187ae8" stroke="#187ae8" stroke-width="2" points="83.93,-568.82 82.62,-558.3 77.09,-567.34 83.93,-568.82"/>
<text text-anchor="middle" x="87.09" y="-576.7" font-family="Times,serif" font-size="14.00">Да</text>
</g>
<!-- node0x107601db0 -->
<g id="node4" class="node">
<title>node0x107601db0</title>
<path fill="#bdef9e" stroke="#99c2a2" d="M226.12,-456.5C226.12,-456.5 486.38,-456.5 486.38,-456.5 492.38,-456.5 498.38,-462.5 498.38,-468.5 498.38,-468.5 498.38,-543 498.38,-543 498.38,-549 492.38,-555 486.38,-555 486.38,-555 226.12,-555 226.12,-555 220.12,-555 214.12,-549 214.12,-543 214.12,-543 214.12,-468.5 214.12,-468.5 214.12,-462.5 220.12,-456.5 226.12,-456.5"/>
<text text-anchor="middle" x="356.25" y="-537.7" font-family="Times,serif" font-size="14.00" fill="#000000">Teaches analisys</text>
<text text-anchor="middle" x="356.25" y="-521.2" font-family="Times,serif" font-size="14.00" fill="#000000">0x107601db0</text>
<polyline fill="none" stroke="#99c2a2" points="214.12,-514 498.38,-514"/>
<text text-anchor="middle" x="259.25" y="-496.7" font-family="Times,serif" font-size="14.00" fill="#000000">Left</text>
<text text-anchor="middle" x="259.25" y="-480.2" font-family="Times,serif" font-size="14.00" fill="#000000">Burtsev</text>
<text text-anchor="middle" x="259.25" y="-463.7" font-family="Times,serif" font-size="14.00" fill="#000000">0x107601d50</text>
<polyline fill="none" stroke="#99c2a2" points="304.38,-456.5 304.38,-514"/>
<text text-anchor="middle" x="349.12" y="-496.7" font-family="Times,serif" font-size="14.00" fill="#000000">Parent</text>
<text text-anchor="middle" x="349.12" y="-480.2" font-family="Times,serif" font-size="14.00" fill="#000000">Animal</text>
<text text-anchor="middle" x="349.12" y="-463.7" font-family="Times,serif" font-size="14.00" fill="#000000">0x107601e10</text>
<polyline fill="none" stroke="#99c2a2" points="393.88,-456.5 393.88,-514"/>
<text text-anchor="middle" x="446.12" y="-496.7" font-family="Times,serif" font-size="14.00" fill="#000000">Right</text>
<text text-anchor="middle" x="446.12" y="-480.2" font-family="Times,serif" font-size="14.00" fill="#000000">Teaches physics</text>
<text text-anchor="middle" x="446.12" y="-463.7" font-family="Times,serif" font-size="14.00" fill="#000000">0x107601d20</text>
</g>
<!-- node0x107601e10&#45;&gt;node0x107601db0 -->
<g id="edge9" class="edge">
<title>node0x107601e10:right&#45;&gt;node0x107601db0</title>
<path fill="none" stroke="#48e818" stroke-width="2" d="M302.75,-608C302.75,-593.35 307.19,-578.74 313.5,-565.36"/>
<polygon fill="#48e818" stroke="#48e818" stroke-width="2" points="315.78,-568.57 317.27,-558.08 309.56,-565.36 315.78,-568.57"/>
<text text-anchor="middle" x="320.25" y="-576.7" font-family="Times,serif" font-size="14.00">Нет</text>
</g>
<!-- node0x107601c60 -->
<g id="node3" class="node">
<title>node0x107601c60</title>
<path fill="#f18805" stroke="#af3800" d="M556.5,-152.5C556.5,-152.5 780,-152.5 780,-152.5 786,-152.5 792,-158.5 792,-164.5 792,-164.5 792,-239 792,-239 792,-245 786,-251 780,-251 780,-251 556.5,-251 556.5,-251 550.5,-251 544.5,-245 544.5,-239 544.5,-239 544.5,-164.5 544.5,-164.5 544.5,-158.5 550.5,-152.5 556.5,-152.5"/>
<text text-anchor="middle" x="668.25" y="-233.7" font-family="Times,serif" font-size="14.00" fill="#000000">Teaches angem</text>
<text text-anchor="middle" x="668.25" y="-217.2" font-family="Times,serif" font-size="14.00" fill="#000000">0x107601c60</text>
<polyline fill="none" stroke="#af3800" points="544.5,-210 792,-210"/>
<text text-anchor="middle" x="589.25" y="-192.7" font-family="Times,serif" font-size="14.00" fill="#000000">Left</text>
<text text-anchor="middle" x="589.25" y="-176.2" font-family="Times,serif" font-size="14.00" fill="#000000">Chubarik</text>
<text text-anchor="middle" x="589.25" y="-159.7" font-family="Times,serif" font-size="14.00" fill="#000000">0x107601c30</text>
<polyline fill="none" stroke="#af3800" points="634,-152.5 634,-210"/>
<text text-anchor="middle" x="686.25" y="-192.7" font-family="Times,serif" font-size="14.00" fill="#000000">Parent</text>
<text text-anchor="middle" x="686.25" y="-176.2" font-family="Times,serif" font-size="14.00" fill="#000000">Teaches physics</text>
<text text-anchor="middle" x="686.25" y="-159.7" font-family="Times,serif" font-size="14.00" fill="#000000">0x107601d20</text>
<polyline fill="none" stroke="#af3800" points="738.5,-152.5 738.5,-210"/>
<text text-anchor="middle" x="765.25" y="-192.7" font-family="Times,serif" font-size="14.00" fill="#000000">Right</text>
<text text-anchor="middle" x="765.25" y="-176.2" font-family="Times,serif" font-size="14.00" fill="#000000">NONE</text>
<text text-anchor="middle" x="765.25" y="-159.7" font-family="Times,serif" font-size="14.00" fill="#000000">0x0</text>
</g>
<!-- node0x107601c30 -->
<g id="node10" class="node">
<title>node0x107601c30</title>
<path fill="#d5cfe1" stroke="#8797b2" d="M521.38,-0.5C521.38,-0.5 705.12,-0.5 705.12,-0.5 711.12,-0.5 717.12,-6.5 717.12,-12.5 717.12,-12.5 717.12,-87 717.12,-87 717.12,-93 711.12,-99 705.12,-99 705.12,-99 521.38,-99 521.38,-99 515.38,-99 509.38,-93 509.38,-87 509.38,-87 509.38,-12.5 509.38,-12.5 509.38,-6.5 515.38,-0.5 521.38,-0.5"/>
<text text-anchor="middle" x="613.25" y="-81.7" font-family="Times,serif" font-size="14.00" fill="#000000">Chubarik</text>
<text text-anchor="middle" x="613.25" y="-65.2" font-family="Times,serif" font-size="14.00" fill="#000000">0x107601c30</text>
<polyline fill="none" stroke="#8797b2" points="509.38,-58 717.12,-58"/>
<text text-anchor="middle" x="536.12" y="-40.7" font-family="Times,serif" font-size="14.00" fill="#000000">Left</text>
<text text-anchor="middle" x="536.12" y="-24.2" font-family="Times,serif" font-size="14.00" fill="#000000">NONE</text>
<text text-anchor="middle" x="536.12" y="-7.7" font-family="Times,serif" font-size="14.00" fill="#000000">0x0</text>
<polyline fill="none" stroke="#8797b2" points="562.88,-0.5 562.88,-58"/>
<text text-anchor="middle" x="613.25" y="-40.7" font-family="Times,serif" font-size="14.00" fill="#000000">Parent</text>
<text text-anchor="middle" x="613.25" y="-24.2" font-family="Times,serif" font-size="14.00" fill="#000000">Teaches angem</text>
<text text-anchor="middle" x="613.25" y="-7.7" font-family="Times,serif" font-size="14.00" fill="#000000">0x107601c60</text>
<polyline fill="none" stroke="#8797b2" points="663.62,-0.5 663.62,-58"/>
<text text-anchor="middle" x="690.38" y="-40.7" font-family="Times,serif" font-size="14.00" fill="#000000">Right</text>
<text text-anchor="middle" x="690.38" y="-24.2" font-family="Times,serif" font-size="14.00" fill="#000000">NONE</text>
<text text-anchor="middle" x="690.38" y="-7.7" font-family="Times,serif" font-size="14.00" fill="#000000">0x0</text>
</g>
<!-- node0x107601c60&#45;&gt;node0x107601c30 -->
<g id="edge6" class="edge">
<title>node0x107601c60:left&#45;&gt;node0x107601c30</title>
<path fill="none" stroke="#187ae8" stroke-width="2" d="M589.25,-152C589.25,-138.38 591.33,-124 594.27,-110.49"/>
<polygon fill="#187ae8" stroke="#187ae8" stroke-width="2" points="597.3,-112.87 596.21,-102.33 590.49,-111.25 597.3,-112.87"/>
<text text-anchor="middle" x="600.61" y="-120.7" font-family="Times,serif" font-size="14.00">Да</text>
</g>
<!-- node0x107601d50 -->
<g id="node5" class="node">
<title>node0x107601d50</title>
<path fill="#d5cfe1" stroke="#8797b2" d="M142,-304.5C142,-304.5 332.5,-304.5 332.5,-304.5 338.5,-304.5 344.5,-310.5 344.5,-316.5 344.5,-316.5 344.5,-391 344.5,-391 344.5,-397 338.5,-403 332.5,-403 332.5,-403 142,-403 142,-403 136,-403 130,-397 130,-391 130,-391 130,-316.5 130,-316.5 130,-310.5 136,-304.5 142,-304.5"/>
<text text-anchor="middle" x="237.25" y="-385.7" font-family="Times,serif" font-size="14.00" fill="#000000">Burtsev</text>
<text text-anchor="middle" x="237.25" y="-369.2" font-family="Times,serif" font-size="14.00" fill="#000000">0x107601d50</text>
<polyline fill="none" stroke="#8797b2" points="130,-362 344.5,-362"/>
<text text-anchor="middle" x="156.75" y="-344.7" font-family="Times,serif" font-size="14.00" fill="#000000">Left</text>
<text text-anchor="middle" x="156.75" y="-328.2" font-family="Times,serif" font-size="14.00" fill="#000000">NONE</text>
<text text-anchor="middle" x="156.75" y="-311.7" font-family="Times,serif" font-size="14.00" fill="#000000">0x0</text>
<polyline fill="none" stroke="#8797b2" points="183.5,-304.5 183.5,-362"/>
<text text-anchor="middle" x="237.25" y="-344.7" font-family="Times,serif" font-size="14.00" fill="#000000">Parent</text>
<text text-anchor="middle" x="237.25" y="-328.2" font-family="Times,serif" font-size="14.00" fill="#000000">Teaches analisys</text>
<text text-anchor="middle" x="237.25" y="-311.7" font-family="Times,serif" font-size="14.00" fill="#000000">0x107601db0</text>
<polyline fill="none" stroke="#8797b2" points="291,-304.5 291,-362"/>
<text text-anchor="middle" x="317.75" y="-344.7" font-family="Times,serif" font-size="14.00" fill="#000000">Right</text>
<text text-anchor="middle" x="317.75" y="-328.2" font-family="Times,serif" font-size="14.00" fill="#000000">NONE</text>
<text text-anchor="middle" x="317.75" y="-311.7" font-family="Times,serif" font-size="14.00" fill="#000000">0x0</text>
</g>
<!-- node0x107601db0&#45;&gt;node0x107601d50 -->
<g id="edge2" class="edge">
<title>node0x107601db0:left&#45;&gt;node0x107601d50</title>
<path fill="none" stroke="#187ae8" stroke-width="2" d="M259.25,-456C259.25,-442.44 257.34,-428.08 254.65,-414.58"/>
<polygon fill="#187ae8" stroke="#187ae8" stroke-width="2" points="258.42,-415.45 252.87,-406.43 251.58,-416.94 258.42,-415.45"/>
<text text-anchor="middle" x="265.95" y="-424.7" font-family="Times,serif" font-size="14.00">Да</text>
</g>
<!-- node0x107601d20 -->
<g id="node6" class="node">
<title>node0x107601d20</title>
<path fill="#bdef9e" stroke="#99c2a2" d="M374.5,-304.5C374.5,-304.5 646,-304.5 646,-304.5 652,-304.5 658,-310.5 658,-316.5 658,-316.5 658,-391 658,-391 658,-397 652,-403 646,-403 646,-403 374.5,-403 374.5,-403 368.5,-403 362.5,-397 362.5,-391 362.5,-391 362.5,-316.5 362.5,-316.5 362.5,-310.5 368.5,-304.5 374.5,-304.5"/>
<text text-anchor="middle" x="510.25" y="-385.7" font-family="Times,serif" font-size="14.00" fill="#000000">Teaches physics</text>
<text text-anchor="middle" x="510.25" y="-369.2" font-family="Times,serif" font-size="14.00" fill="#000000">0x107601d20</text>
<polyline fill="none" stroke="#99c2a2" points="362.5,-362 658,-362"/>
<text text-anchor="middle" x="406.12" y="-344.7" font-family="Times,serif" font-size="14.00" fill="#000000">Left</text>
<text text-anchor="middle" x="406.12" y="-328.2" font-family="Times,serif" font-size="14.00" fill="#000000">Nefor</text>
<text text-anchor="middle" x="406.12" y="-311.7" font-family="Times,serif" font-size="14.00" fill="#000000">0x107601cf0</text>
<polyline fill="none" stroke="#99c2a2" points="449.75,-304.5 449.75,-362"/>
<text text-anchor="middle" x="503.5" y="-344.7" font-family="Times,serif" font-size="14.00" fill="#000000">Parent</text>
<text text-anchor="middle" x="503.5" y="-328.2" font-family="Times,serif" font-size="14.00" fill="#000000">Teaches analisys</text>
<text text-anchor="middle" x="503.5" y="-311.7" font-family="Times,serif" font-size="14.00" fill="#000000">0x107601db0</text>
<polyline fill="none" stroke="#99c2a2" points="557.25,-304.5 557.25,-362"/>
<text text-anchor="middle" x="607.62" y="-344.7" font-family="Times,serif" font-size="14.00" fill="#000000">Right</text>
<text text-anchor="middle" x="607.62" y="-328.2" font-family="Times,serif" font-size="14.00" fill="#000000">Teaches angem</text>
<text text-anchor="middle" x="607.62" y="-311.7" font-family="Times,serif" font-size="14.00" fill="#000000">0x107601c60</text>
</g>
<!-- node0x107601db0&#45;&gt;node0x107601d20 -->
<g id="edge8" class="edge">
<title>node0x107601db0:right&#45;&gt;node0x107601d20</title>
<path fill="none" stroke="#48e818" stroke-width="2" d="M446.12,-456C446.12,-440.99 451.21,-426.41 458.52,-413.2"/>
<polygon fill="#48e818" stroke="#48e818" stroke-width="2" points="460.72,-416.32 462.93,-405.96 454.74,-412.68 460.72,-416.32"/>
<text text-anchor="middle" x="464.95" y="-424.7" font-family="Times,serif" font-size="14.00">Нет</text>
</g>
<!-- node0x107601d20&#45;&gt;node0x107601c60 -->
<g id="edge7" class="edge">
<title>node0x107601d20:right&#45;&gt;node0x107601c60</title>
<path fill="none" stroke="#48e818" stroke-width="2" d="M607.62,-304C607.62,-289.14 612.49,-274.58 619.46,-261.33"/>
<polygon fill="#48e818" stroke="#48e818" stroke-width="2" points="621.67,-264.51 623.65,-254.1 615.61,-261 621.67,-264.51"/>
<text text-anchor="middle" x="626.01" y="-272.7" font-family="Times,serif" font-size="14.00">Нет</text>
</g>
<!-- node0x107601cf0 -->
<g id="node7" class="node">
<title>node0x107601cf0</title>
<path fill="#d5cfe1" stroke="#8797b2" d="M168.88,-152.5C168.88,-152.5 427.62,-152.5 427.62,-152.5 433.62,-152.5 439.62,-158.5 439.62,-164.5 439.62,-164.5 439.62,-239 439.62,-239 439.62,-245 433.62,-251 427.62,-251 427.62,-251 168.88,-251 168.88,-251 162.88,-251 156.88,-245 156.88,-239 156.88,-239 156.88,-164.5 156.88,-164.5 156.88,-158.5 162.88,-152.5 168.88,-152.5"/>
<text text-anchor="middle" x="298.25" y="-233.7" font-family="Times,serif" font-size="14.00" fill="#000000">Nefor</text>
<text text-anchor="middle" x="298.25" y="-217.2" font-family="Times,serif" font-size="14.00" fill="#000000">0x107601cf0</text>
<polyline fill="none" stroke="#8797b2" points="156.88,-210 439.62,-210"/>
<text text-anchor="middle" x="201.25" y="-192.7" font-family="Times,serif" font-size="14.00" fill="#000000">Left</text>
<text text-anchor="middle" x="201.25" y="-176.2" font-family="Times,serif" font-size="14.00" fill="#000000">Magic</text>
<text text-anchor="middle" x="201.25" y="-159.7" font-family="Times,serif" font-size="14.00" fill="#000000">0x107601cc0</text>
<polyline fill="none" stroke="#8797b2" points="245.62,-152.5 245.62,-210"/>
<text text-anchor="middle" x="297.88" y="-192.7" font-family="Times,serif" font-size="14.00" fill="#000000">Parent</text>
<text text-anchor="middle" x="297.88" y="-176.2" font-family="Times,serif" font-size="14.00" fill="#000000">Teaches physics</text>
<text text-anchor="middle" x="297.88" y="-159.7" font-family="Times,serif" font-size="14.00" fill="#000000">0x107601d20</text>
<polyline fill="none" stroke="#8797b2" points="350.12,-152.5 350.12,-210"/>
<text text-anchor="middle" x="394.88" y="-192.7" font-family="Times,serif" font-size="14.00" fill="#000000">Right</text>
<text text-anchor="middle" x="394.88" y="-176.2" font-family="Times,serif" font-size="14.00" fill="#000000">Ovchos</text>
<text text-anchor="middle" x="394.88" y="-159.7" font-family="Times,serif" font-size="14.00" fill="#000000">0x107601c90</text>
</g>
<!-- node0x107601d20&#45;&gt;node0x107601cf0 -->
<g id="edge3" class="edge">
<title>node0x107601d20:left&#45;&gt;node0x107601cf0</title>
<path fill="none" stroke="#187ae8" stroke-width="2" d="M406.12,-304C406.12,-287.3 399.17,-272.56 388.79,-259.85"/>
<polygon fill="#187ae8" stroke="#187ae8" stroke-width="2" points="392.45,-258.67 383.14,-253.62 387.27,-263.38 392.45,-258.67"/>
<text text-anchor="middle" x="410.98" y="-272.7" font-family="Times,serif" font-size="14.00">Да</text>
</g>
<!-- node0x107601cc0 -->
<g id="node8" class="node">
<title>node0x107601cc0</title>
<path fill="#d5cfe1" stroke="#8797b2" d="M97.12,-0.5C97.12,-0.5 267.38,-0.5 267.38,-0.5 273.38,-0.5 279.38,-6.5 279.38,-12.5 279.38,-12.5 279.38,-87 279.38,-87 279.38,-93 273.38,-99 267.38,-99 267.38,-99 97.12,-99 97.12,-99 91.13,-99 85.12,-93 85.12,-87 85.12,-87 85.12,-12.5 85.12,-12.5 85.12,-6.5 91.12,-0.5 97.12,-0.5"/>
<text text-anchor="middle" x="182.25" y="-81.7" font-family="Times,serif" font-size="14.00" fill="#000000">Magic</text>
<text text-anchor="middle" x="182.25" y="-65.2" font-family="Times,serif" font-size="14.00" fill="#000000">0x107601cc0</text>
<polyline fill="none" stroke="#8797b2" points="85.12,-58 279.38,-58"/>
<text text-anchor="middle" x="111.88" y="-40.7" font-family="Times,serif" font-size="14.00" fill="#000000">Left</text>
<text text-anchor="middle" x="111.88" y="-24.2" font-family="Times,serif" font-size="14.00" fill="#000000">NONE</text>
<text text-anchor="middle" x="111.88" y="-7.7" font-family="Times,serif" font-size="14.00" fill="#000000">0x0</text>
<polyline fill="none" stroke="#8797b2" points="138.62,-0.5 138.62,-58"/>
<text text-anchor="middle" x="182.25" y="-40.7" font-family="Times,serif" font-size="14.00" fill="#000000">Parent</text>
<text text-anchor="middle" x="182.25" y="-24.2" font-family="Times,serif" font-size="14.00" fill="#000000">Nefor</text>
<text text-anchor="middle" x="182.25" y="-7.7" font-family="Times,serif" font-size="14.00" fill="#000000">0x107601cf0</text>
<polyline fill="none" stroke="#8797b2" points="225.88,-0.5 225.88,-58"/>
<text text-anchor="middle" x="252.62" y="-40.7" font-family="Times,serif" font-size="14.00" fill="#000000">Right</text>
<text text-anchor="middle" x="252.62" y="-24.2" font-family="Times,serif" font-size="14.00" fill="#000000">NONE</text>
<text text-anchor="middle" x="252.62" y="-7.7" font-family="Times,serif" font-size="14.00" fill="#000000">0x0</text>
</g>
<!-- node0x107601cf0&#45;&gt;node0x107601cc0 -->
<g id="edge4" class="edge">
<title>node0x107601cf0:left&#45;&gt;node0x107601cc0</title>
<path fill="none" stroke="#187ae8" stroke-width="2" d="M201.25,-152C201.25,-138.45 199.59,-124.04 197.24,-110.49"/>
<polygon fill="#187ae8" stroke="#187ae8" stroke-width="2" points="200.99,-111.48 195.7,-102.3 194.11,-112.78 200.99,-111.48"/>
<text text-anchor="middle" x="208.11" y="-120.7" font-family="Times,serif" font-size="14.00">Да</text>
</g>
<!-- node0x107601c90 -->
<g id="node9" class="node">
<title>node0x107601c90</title>
<path fill="#bdef9e" stroke="#99c2a2" d="M309.12,-0.5C309.12,-0.5 479.38,-0.5 479.38,-0.5 485.38,-0.5 491.38,-6.5 491.38,-12.5 491.38,-12.5 491.38,-87 491.38,-87 491.38,-93 485.38,-99 479.38,-99 479.38,-99 309.12,-99 309.12,-99 303.12,-99 297.12,-93 297.12,-87 297.12,-87 297.12,-12.5 297.12,-12.5 297.12,-6.5 303.12,-0.5 309.12,-0.5"/>
<text text-anchor="middle" x="394.25" y="-81.7" font-family="Times,serif" font-size="14.00" fill="#000000">Ovchos</text>
<text text-anchor="middle" x="394.25" y="-65.2" font-family="Times,serif" font-size="14.00" fill="#000000">0x107601c90</text>
<polyline fill="none" stroke="#99c2a2" points="297.12,-58 491.38,-58"/>
<text text-anchor="middle" x="323.88" y="-40.7" font-family="Times,serif" font-size="14.00" fill="#000000">Left</text>
<text text-anchor="middle" x="323.88" y="-24.2" font-family="Times,serif" font-size="14.00" fill="#000000">NONE</text>
<text text-anchor="middle" x="323.88" y="-7.7" font-family="Times,serif" font-size="14.00" fill="#000000">0x0</text>
<polyline fill="none" stroke="#99c2a2" points="350.62,-0.5 350.62,-58"/>
<text text-anchor="middle" x="394.25" y="-40.7" font-family="Times,serif" font-size="14.00" fill="#000000">Parent</text>
<text text-anchor="middle" x="394.25" y="-24.2" font-family="Times,serif" font-size="14.00" fill="#000000">Nefor</text>
<text text-anchor="middle" x="394.25" y="-7.7" font-family="Times,serif" font-size="14.00" fill="#000000">0x107601cf0</text>
<polyline fill="none" stroke="#99c2a2" points="437.88,-0.5 437.88,-58"/>
<text text-anchor="middle" x="464.62" y="-40.7" font-family="Times,serif" font-size="14.00" fill="#000000">Right</text>
<text text-anchor="middle" x="464.62" y="-24.2" font-family="Times,serif" font-size="14.00" fill="#000000">NONE</text>
<text text-anchor="middle" x="464.62" y="-7.7" font-family="Times,serif" font-size="14.00" fill="#000000">0x0</text>
</g>
<!-- node0x107601cf0&#45;&gt;node0x107601c90 -->
<g id="edge5" class="edge">
<title>node0x107601cf0:right&#45;&gt;node0x107601c90</title>
<path fill="none" stroke="#48e818" stroke-width="2" d="M394.88,-152C394.88,-138.61 394.82,-124.22 394.74,-110.62"/>
<polygon fill="#48e818" stroke="#48e818" stroke-width="2" points="398.25,-112.42 394.69,-102.44 391.25,-112.47 398.25,-112.42"/>
<text text-anchor="middle" x="405.72" y="-120.7" font-family="Times,serif" font-size="14.00">Нет</text>
</g>
</g>
</svg>
