<?xml version="1.0" encoding="UTF-8" standalone="no"?>
<!DOCTYPE svg PUBLIC "-//W3C//DTD SVG 1.1//EN"
 "http://www.w3.org/Graphics/SVG/1.1/DTD/svg11.dtd">
<!-- Generated by graphviz version 12.2.0 (20241103.1931)
 -->
<!-- Pages: 1 -->
<svg width="928pt" height="716pt"
 viewBox="0.00 0.00 928.12 715.50" xmlns="http://www.w3.org/2000/svg" xmlns:xlink="http://www.w3.org/1999/xlink">
<g id="graph0" class="graph" transform="scale(1 1) rotate(0) translate(4 711.5)">
<polygon fill="#dcdcdc" stroke="none" points="-4,4 -4,-711.5 924.12,-711.5 924.12,4 -4,4"/>
<!-- node0x107601e10 -->
<g id="node1" class="node">
<title>node0x107601e10</title>
<path fill="#fbee21" stroke="#d3c70d" d="M118,-608.5C118,-608.5 344.5,-608.5 344.5,-608.5 350.5,-608.5 356.5,-614.5 356.5,-620.5 356.5,-620.5 356.5,-695 356.5,-695 356.5,-701 350.5,-707 344.5,-707 344.5,-707 118,-707 118,-707 112,-707 106,-701 106,-695 106,-695 106,-620.5 106,-620.5 106,-614.5 112,-608.5 118,-608.5"/>
<text text-anchor="middle" x="231.25" y="-689.7" font-family="Times,serif" font-size="14.00" fill="#000000">Animal</text>
<text text-anchor="middle" x="231.25" y="-673.2" font-family="Times,serif" font-size="14.00" fill="#000000">0x107601e10</text>
<polyline fill="none" stroke="#d3c70d" points="106,-666 356.5,-666"/>
<text text-anchor="middle" x="150.75" y="-648.7" font-family="Times,serif" font-size="14.00" fill="#000000">Left</text>
<text text-anchor="middle" x="150.75" y="-632.2" font-family="Times,serif" font-size="14.00" fill="#000000">Poltorashka</text>
<text text-anchor="middle" x="150.75" y="-615.7" font-family="Times,serif" font-size="14.00" fill="#000000">0x107601de0</text>
<polyline fill="none" stroke="#d3c70d" points="195.5,-608.5 195.5,-666"/>
<text text-anchor="middle" x="222.25" y="-648.7" font-family="Times,serif" font-size="14.00" fill="#000000">Parent</text>
<text text-anchor="middle" x="222.25" y="-632.2" font-family="Times,serif" font-size="14.00" fill="#000000">NONE</text>
<text text-anchor="middle" x="222.25" y="-615.7" font-family="Times,serif" font-size="14.00" fill="#000000">0x0</text>
<polyline fill="none" stroke="#d3c70d" points="249,-608.5 249,-666"/>
<text text-anchor="middle" x="302.75" y="-648.7" font-family="Times,serif" font-size="14.00" fill="#000000">Right</text>
<text text-anchor="middle" x="302.75" y="-632.2" font-family="Times,serif" font-size="14.00" fill="#000000">Teaches analisys</text>
<text text-anchor="middle" x="302.75" y="-615.7" font-family="Times,serif" font-size="14.00" fill="#000000">0x107601db0</text>
</g>
<!-- node0x107601de0 -->
<g id="node2" class="node">
<title>node0x107601de0</title>
<path fill="#d5cfe1" stroke="#8797b2" d="M12,-456.5C12,-456.5 184.5,-456.5 184.5,-456.5 190.5,-456.5 196.5,-462.5 196.5,-468.5 196.5,-468.5 196.5,-543 196.5,-543 196.5,-549 190.5,-555 184.5,-555 184.5,-555 12,-555 12,-555 6,-555 0,-549 0,-543 0,-543 0,-468.5 0,-468.5 0,-462.5 6,-456.5 12,-456.5"/>
<text text-anchor="middle" x="98.25" y="-537.7" font-family="Times,serif" font-size="14.00" fill="#000000">Poltorashka</text>
<text text-anchor="middle" x="98.25" y="-521.2" font-family="Times,serif" font-size="14.00" fill="#000000">0x107601de0</text>
<polyline fill="none" stroke="#8797b2" points="0,-514 196.5,-514"/>
<text text-anchor="middle" x="26.75" y="-496.7" font-family="Times,serif" font-size="14.00" fill="#000000">Left</text>
<text text-anchor="middle" x="26.75" y="-480.2" font-family="Times,serif" font-size="14.00" fill="#000000">NONE</text>
<text text-anchor="middle" x="26.75" y="-463.7" font-family="Times,serif" font-size="14.00" fill="#000000">0x0</text>
<polyline fill="none" stroke="#8797b2" points="53.5,-456.5 53.5,-514"/>
<text text-anchor="middle" x="98.25" y="-496.7" font-family="Times,serif" font-size="14.00" fill="#000000">Parent</text>
<text text-anchor="middle" x="98.25" y="-480.2" font-family="Times,serif" font-size="14.00" fill="#000000">Animal</text>
<text text-anchor="middle" x="98.25" y="-463.7" font-family="Times,serif" font-size="14.00" fill="#000000">0x107601e10</text>
<polyline fill="none" stroke="#8797b2" points="143,-456.5 143,-514"/>
<text text-anchor="middle" x="169.75" y="-496.7" font-family="Times,serif" font-size="14.00" fill="#000000">Right</text>
<text text-anchor="middle" x="169.75" y="-480.2" font-family="Times,serif" font-size="14.00" fill="#000000">NONE</text>
<text text-anchor="middle" x="169.75" y="-463.7" font-family="Times,serif" font-size="14.00" fill="#000000">0x0</text>
</g>
<!-- node0x107601e10&#45;&gt;node0x107601de0 -->
<g id="edge1" class="edge">
<title>node0x107601e10:left&#45;&gt;node0x107601de0</title>
<path fill="none" stroke="#187ae8" stroke-width="2" d="M105,-637.25C74.29,-637.25 74.17,-600.77 80.87,-566.38"/>
<polygon fill="#187ae8" stroke="#187ae8" stroke-width="2" points="83.93,-568.82 82.62,-558.3 77.09,-567.34 83.93,-568.82"/>
<text text-anchor="middle" x="87.09" y="-576.7" font-family="Times,serif" font-size="14.00">Да</text>
</g>
<!-- node0x107601db0 -->
<g id="node4" class="node">
<title>node0x107601db0</title>
<path fill="#bdef9e" stroke="#99c2a2" d="M226.12,-456.5C226.12,-456.5 486.38,-456.5 486.38,-456.5 492.38,-456.5 498.38,-462.5 498.38,-468.5 498.38,-468.5 498.38,-543 498.38,-543 498.38,-549 492.38,-555 486.38,-555 486.38,-555 226.12,-555 226.12,-555 220.12,-555 214.12,-549 214.12,-543 214.12,-543 214.12,-468.5 214.12,-468.5 214.12,-462.5 220.12,-456.5 226.12,-456.5"/>
<text text-anchor="middle" x="356.25" y="-537.7" font-family="Times,serif" font-size="14.00" fill="#000000">Teaches analisys</text>
<text text-anchor="middle" x="356.25" y="-521.2" font-family="Times,serif" font-size="14.00" fill="#000000">0x107601db0</text>
<polyline fill="none" stroke="#99c2a2" points="214.12,-514 498.38,-514"/>
<text text-anchor="middle" x="259.25" y="-496.7" font-family="Times,serif" font-size="14.00" fill="#000000">Left</text>
<text text-anchor="middle" x="259.25" y="-480.2" font-family="Times,serif" font-size="14.00" fill="#000000">Burtsev</text>
<text text-anchor="middle" x="259.25" y="-463.7" font-family="Times,serif" font-size="14.00" fill="#000000">0x107601d50</text>
<polyline fill="none" stroke="#99c2a2" points="304.38,-456.5 304.38,-514"/>
<text text-anchor="middle" x="349.12" y="-496.7" font-family="Times,serif" font-size="14.00" fill="#000000">Parent</text>
<text text-anchor="middle" x="349.12" y="-480.2" font-family="Times,serif" font-size="14.00" fill="#000000">Animal</text>
<text text-anchor="middle" x="349.12" y="-463.7" font-family="Times,serif" font-size="14.00" fill="#000000">0x107601e10</text>
<polyline fill="none" stroke="#99c2a2" points="393.88,-456.5 393.88,-514"/>
<text text-anchor="middle" x="446.12" y="-496.7" font-family="Times,serif" font-size="14.00" fill="#000000">Right</text>
<text text-anchor="middle" x="446.12" y="-480.2" font-family="Times,serif" font-size="14.00" fill="#000000">Teaches physics</text>
<text text-anchor="middle" x="446.12" y="-463.7" font-family="Times,serif" font-size="14.00" fill="#000000">0x107601d20</text>
</g>
<!-- node0x107601e10&#45;&gt;node0x107601db0 -->
<g id="edge10" class="edge">
<title>node0x107601e10:right&#45;&gt;node0x107601db0</title>
<path fill="none" stroke="#48e818" stroke-width="2" d="M302.75,-608C302.75,-593.35 307.19,-578.74 313.5,-565.36"/>
<polygon fill="#48e818" stroke="#48e818" stroke-width="2" points="315.78,-568.57 317.27,-558.08 309.56,-565.36 315.78,-568.57"/>
<text text-anchor="middle" x="320.25" y="-576.7" font-family="Times,serif" font-size="14.00">Нет</text>
</g>
<!-- node0x107601c00 -->
<g id="node3" class="node">
<title>node0x107601c00</title>
<path fill="#f18805" stroke="#af3800" d="M724.38,-0.5C724.38,-0.5 908.12,-0.5 908.12,-0.5 914.12,-0.5 920.12,-6.5 920.12,-12.5 920.12,-12.5 920.12,-87 920.12,-87 920.12,-93 914.12,-99 908.12,-99 908.12,-99 724.38,-99 724.38,-99 718.38,-99 712.38,-93 712.38,-87 712.38,-87 712.38,-12.5 712.38,-12.5 712.38,-6.5 718.38,-0.5 724.38,-0.5"/>
<text text-anchor="middle" x="816.25" y="-81.7" font-family="Times,serif" font-size="14.00" fill="#000000">Do sport</text>
<text text-anchor="middle" x="816.25" y="-65.2" font-family="Times,serif" font-size="14.00" fill="#000000">0x107601c00</text>
<polyline fill="none" stroke="#af3800" points="712.38,-58 920.12,-58"/>
<text text-anchor="middle" x="739.12" y="-40.7" font-family="Times,serif" font-size="14.00" fill="#000000">Left</text>
<text text-anchor="middle" x="739.12" y="-24.2" font-family="Times,serif" font-size="14.00" fill="#000000">NONE</text>
<text text-anchor="middle" x="739.12" y="-7.7" font-family="Times,serif" font-size="14.00" fill="#000000">0x0</text>
<polyline fill="none" stroke="#af3800" points="765.88,-0.5 765.88,-58"/>
<text text-anchor="middle" x="816.25" y="-40.7" font-family="Times,serif" font-size="14.00" fill="#000000">Parent</text>
<text text-anchor="middle" x="816.25" y="-24.2" font-family="Times,serif" font-size="14.00" fill="#000000">Teaches angem</text>
<text text-anchor="middle" x="816.25" y="-7.7" font-family="Times,serif" font-size="14.00" fill="#000000">0x107601c60</text>
<polyline fill="none" stroke="#af3800" points="866.62,-0.5 866.62,-58"/>
<text text-anchor="middle" x="893.38" y="-40.7" font-family="Times,serif" font-size="14.00" fill="#000000">Right</text>
<text text-anchor="middle" x="893.38" y="-24.2" font-family="Times,serif" font-size="14.00" fill="#000000">NONE</text>
<text text-anchor="middle" x="893.38" y="-7.7" font-family="Times,serif" font-size="14.00" fill="#000000">0x0</text>
</g>
<!-- node0x107601d50 -->
<g id="node5" class="node">
<title>node0x107601d50</title>
<path fill="#d5cfe1" stroke="#8797b2" d="M142,-304.5C142,-304.5 332.5,-304.5 332.5,-304.5 338.5,-304.5 344.5,-310.5 344.5,-316.5 344.5,-316.5 344.5,-391 344.5,-391 344.5,-397 338.5,-403 332.5,-403 332.5,-403 142,-403 142,-403 136,-403 130,-397 130,-391 130,-391 130,-316.5 130,-316.5 130,-310.5 136,-304.5 142,-304.5"/>
<text text-anchor="middle" x="237.25" y="-385.7" font-family="Times,serif" font-size="14.00" fill="#000000">Burtsev</text>
<text text-anchor="middle" x="237.25" y="-369.2" font-family="Times,serif" font-size="14.00" fill="#000000">0x107601d50</text>
<polyline fill="none" stroke="#8797b2" points="130,-362 344.5,-362"/>
<text text-anchor="middle" x="156.75" y="-344.7" font-family="Times,serif" font-size="14.00" fill="#000000">Left</text>
<text text-anchor="middle" x="156.75" y="-328.2" font-family="Times,serif" font-size="14.00" fill="#000000">NONE</text>
<text text-anchor="middle" x="156.75" y="-311.7" font-family="Times,serif" font-size="14.00" fill="#000000">0x0</text>
<polyline fill="none" stroke="#8797b2" points="183.5,-304.5 183.5,-362"/>
<text text-anchor="middle" x="237.25" y="-344.7" font-family="Times,serif" font-size="14.00" fill="#000000">Parent</text>
<text text-anchor="middle" x="237.25" y="-328.2" font-family="Times,serif" font-size="14.00" fill="#000000">Teaches analisys</text>
<text text-anchor="middle" x="237.25" y="-311.7" font-family="Times,serif" font-size="14.00" fill="#000000">0x107601db0</text>
<polyline fill="none" stroke="#8797b2" points="291,-304.5 291,-362"/>
<text text-anchor="middle" x="317.75" y="-344.7" font-family="Times,serif" font-size="14.00" fill="#000000">Right</text>
<text text-anchor="middle" x="317.75" y="-328.2" font-family="Times,serif" font-size="14.00" fill="#000000">NONE</text>
<text text-anchor="middle" x="317.75" y="-311.7" font-family="Times,serif" font-size="14.00" fill="#000000">0x0</text>
</g>
<!-- node0x107601db0&#45;&gt;node0x107601d50 -->
<g id="edge2" class="edge">
<title>node0x107601db0:left&#45;&gt;node0x107601d50</title>
<path fill="none" stroke="#187ae8" stroke-width="2" d="M259.25,-456C259.25,-442.44 257.34,-428.08 254.65,-414.58"/>
<polygon fill="#187ae8" stroke="#187ae8" stroke-width="2" points="258.42,-415.45 252.87,-406.43 251.58,-416.94 258.42,-415.45"/>
<text text-anchor="middle" x="265.95" y="-424.7" font-family="Times,serif" font-size="14.00">Да</text>
</g>
<!-- node0x107601d20 -->
<g id="node6" class="node">
<title>node0x107601d20</title>
<path fill="#bdef9e" stroke="#99c2a2" d="M374.5,-304.5C374.5,-304.5 646,-304.5 646,-304.5 652,-304.5 658,-310.5 658,-316.5 658,-316.5 658,-391 658,-391 658,-397 652,-403 646,-403 646,-403 374.5,-403 374.5,-403 368.5,-403 362.5,-397 362.5,-391 362.5,-391 362.5,-316.5 362.5,-316.5 362.5,-310.5 368.5,-304.5 374.5,-304.5"/>
<text text-anchor="middle" x="510.25" y="-385.7" font-family="Times,serif" font-size="14.00" fill="#000000">Teaches physics</text>
<text text-anchor="middle" x="510.25" y="-369.2" font-family="Times,serif" font-size="14.00" fill="#000000">0x107601d20</text>
<polyline fill="none" stroke="#99c2a2" points="362.5,-362 658,-362"/>
<text text-anchor="middle" x="406.12" y="-344.7" font-family="Times,serif" font-size="14.00" fill="#000000">Left</text>
<text text-anchor="middle" x="406.12" y="-328.2" font-family="Times,serif" font-size="14.00" fill="#000000">Nefor</text>
<text text-anchor="middle" x="406.12" y="-311.7" font-family="Times,serif" font-size="14.00" fill="#000000">0x107601cf0</text>
<polyline fill="none" stroke="#99c2a2" points="449.75,-304.5 449.75,-362"/>
<text text-anchor="middle" x="503.5" y="-344.7" font-family="Times,serif" font-size="14.00" fill="#000000">Parent</text>
<text text-anchor="middle" x="503.5" y="-328.2" font-family="Times,serif" font-size="14.00" fill="#000000">Teaches analisys</text>
<text text-anchor="middle" x="503.5" y="-311.7" font-family="Times,serif" font-size="14.00" fill="#000000">0x107601db0</text>
<polyline fill="none" stroke="#99c2a2" points="557.25,-304.5 557.25,-362"/>
<text text-anchor="middle" x="607.62" y="-344.7" font-family="Times,serif" font-size="14.00" fill="#000000">Right</text>
<text text-anchor="middle" x="607.62" y="-328.2" font-family="Times,serif" font-size="14.00" fill="#000000">Teaches angem</text>
<text text-anchor="middle" x="607.62" y="-311.7" font-family="Times,serif" font-size="14.00" fill="#000000">0x107601c60</text>
</g>
<!-- node0x107601db0&#45;&gt;node0x107601d20 -->
<g id="edge9" class="edge">
<title>node0x107601db0:right&#45;&gt;node0x107601d20</title>
<path fill="none" stroke="#48e818" stroke-width="2" d="M446.12,-456C446.12,-440.99 451.21,-426.41 458.52,-413.2"/>
<polygon fill="#48e818" stroke="#48e818" stroke-width="2" points="460.72,-416.32 462.93,-405.96 454.74,-412.68 460.72,-416.32"/>
<text text-anchor="middle" x="464.95" y="-424.7" font-family="Times,serif" font-size="14.00">Нет</text>
</g>
<!-- node0x107601cf0 -->
<g id="node7" class="node">
<title>node0x107601cf0</title>
<path fill="#d5cfe1" stroke="#8797b2" d="M145.88,-152.5C145.88,-152.5 404.62,-152.5 404.62,-152.5 410.62,-152.5 416.62,-158.5 416.62,-164.5 416.62,-164.5 416.62,-239 416.62,-239 416.62,-245 410.62,-251 404.62,-251 404.62,-251 145.88,-251 145.88,-251 139.88,-251 133.88,-245 133.88,-239 133.88,-239 133.88,-164.5 133.88,-164.5 133.88,-158.5 139.88,-152.5 145.88,-152.5"/>
<text text-anchor="middle" x="275.25" y="-233.7" font-family="Times,serif" font-size="14.00" fill="#000000">Nefor</text>
<text text-anchor="middle" x="275.25" y="-217.2" font-family="Times,serif" font-size="14.00" fill="#000000">0x107601cf0</text>
<polyline fill="none" stroke="#8797b2" points="133.88,-210 416.62,-210"/>
<text text-anchor="middle" x="178.25" y="-192.7" font-family="Times,serif" font-size="14.00" fill="#000000">Left</text>
<text text-anchor="middle" x="178.25" y="-176.2" font-family="Times,serif" font-size="14.00" fill="#000000">Magic</text>
<text text-anchor="middle" x="178.25" y="-159.7" font-family="Times,serif" font-size="14.00" fill="#000000">0x107601cc0</text>
<polyline fill="none" stroke="#8797b2" points="222.62,-152.5 222.62,-210"/>
<text text-anchor="middle" x="274.88" y="-192.7" font-family="Times,serif" font-size="14.00" fill="#000000">Parent</text>
<text text-anchor="middle" x="274.88" y="-176.2" font-family="Times,serif" font-size="14.00" fill="#000000">Teaches physics</text>
<text text-anchor="middle" x="274.88" y="-159.7" font-family="Times,serif" font-size="14.00" fill="#000000">0x107601d20</text>
<polyline fill="none" stroke="#8797b2" points="327.12,-152.5 327.12,-210"/>
<text text-anchor="middle" x="371.88" y="-192.7" font-family="Times,serif" font-size="14.00" fill="#000000">Right</text>
<text text-anchor="middle" x="371.88" y="-176.2" font-family="Times,serif" font-size="14.00" fill="#000000">Ovchos</text>
<text text-anchor="middle" x="371.88" y="-159.7" font-family="Times,serif" font-size="14.00" fill="#000000">0x107601c90</text>
</g>
<!-- node0x107601d20&#45;&gt;node0x107601cf0 -->
<g id="edge3" class="edge">
<title>node0x107601d20:left&#45;&gt;node0x107601cf0</title>
<path fill="none" stroke="#187ae8" stroke-width="2" d="M406.12,-304C406.12,-286.56 398.77,-271.7 387.54,-259.17"/>
<polygon fill="#187ae8" stroke="#187ae8" stroke-width="2" points="391.33,-258.01 381.78,-253.42 386.38,-262.96 391.33,-258.01"/>
<text text-anchor="middle" x="410.34" y="-272.7" font-family="Times,serif" font-size="14.00">Да</text>
</g>
<!-- node0x107601c60 -->
<g id="node10" class="node">
<title>node0x107601c60</title>
<path fill="#bdef9e" stroke="#99c2a2" d="M557.5,-152.5C557.5,-152.5 817,-152.5 817,-152.5 823,-152.5 829,-158.5 829,-164.5 829,-164.5 829,-239 829,-239 829,-245 823,-251 817,-251 817,-251 557.5,-251 557.5,-251 551.5,-251 545.5,-245 545.5,-239 545.5,-239 545.5,-164.5 545.5,-164.5 545.5,-158.5 551.5,-152.5 557.5,-152.5"/>
<text text-anchor="middle" x="687.25" y="-233.7" font-family="Times,serif" font-size="14.00" fill="#000000">Teaches angem</text>
<text text-anchor="middle" x="687.25" y="-217.2" font-family="Times,serif" font-size="14.00" fill="#000000">0x107601c60</text>
<polyline fill="none" stroke="#99c2a2" points="545.5,-210 829,-210"/>
<text text-anchor="middle" x="590.25" y="-192.7" font-family="Times,serif" font-size="14.00" fill="#000000">Left</text>
<text text-anchor="middle" x="590.25" y="-176.2" font-family="Times,serif" font-size="14.00" fill="#000000">Chubarik</text>
<text text-anchor="middle" x="590.25" y="-159.7" font-family="Times,serif" font-size="14.00" fill="#000000">0x107601c30</text>
<polyline fill="none" stroke="#99c2a2" points="635,-152.5 635,-210"/>
<text text-anchor="middle" x="687.25" y="-192.7" font-family="Times,serif" font-size="14.00" fill="#000000">Parent</text>
<text text-anchor="middle" x="687.25" y="-176.2" font-family="Times,serif" font-size="14.00" fill="#000000">Teaches physics</text>
<text text-anchor="middle" x="687.25" y="-159.7" font-family="Times,serif" font-size="14.00" fill="#000000">0x107601d20</text>
<polyline fill="none" stroke="#99c2a2" points="739.5,-152.5 739.5,-210"/>
<text text-anchor="middle" x="784.25" y="-192.7" font-family="Times,serif" font-size="14.00" fill="#000000">Right</text>
<text text-anchor="middle" x="784.25" y="-176.2" font-family="Times,serif" font-size="14.00" fill="#000000">Do sport</text>
<text text-anchor="middle" x="784.25" y="-159.7" font-family="Times,serif" font-size="14.00" fill="#000000">0x107601c00</text>
</g>
<!-- node0x107601d20&#45;&gt;node0x107601c60 -->
<g id="edge8" class="edge">
<title>node0x107601d20:right&#45;&gt;node0x107601c60</title>
<path fill="none" stroke="#48e818" stroke-width="2" d="M659,-333.25C690.24,-333.25 696.42,-297.08 695.26,-262.83"/>
<polygon fill="#48e818" stroke="#48e818" stroke-width="2" points="698.84,-264.15 694.79,-254.37 691.85,-264.55 698.84,-264.15"/>
<text text-anchor="middle" x="706.26" y="-272.7" font-family="Times,serif" font-size="14.00">Нет</text>
</g>
<!-- node0x107601cc0 -->
<g id="node8" class="node">
<title>node0x107601cc0</title>
<path fill="#d5cfe1" stroke="#8797b2" d="M74.12,-0.5C74.12,-0.5 244.38,-0.5 244.38,-0.5 250.38,-0.5 256.38,-6.5 256.38,-12.5 256.38,-12.5 256.38,-87 256.38,-87 256.38,-93 250.38,-99 244.38,-99 244.38,-99 74.12,-99 74.12,-99 68.13,-99 62.12,-93 62.12,-87 62.12,-87 62.12,-12.5 62.12,-12.5 62.12,-6.5 68.12,-0.5 74.12,-0.5"/>
<text text-anchor="middle" x="159.25" y="-81.7" font-family="Times,serif" font-size="14.00" fill="#000000">Magic</text>
<text text-anchor="middle" x="159.25" y="-65.2" font-family="Times,serif" font-size="14.00" fill="#000000">0x107601cc0</text>
<polyline fill="none" stroke="#8797b2" points="62.12,-58 256.38,-58"/>
<text text-anchor="middle" x="88.88" y="-40.7" font-family="Times,serif" font-size="14.00" fill="#000000">Left</text>
<text text-anchor="middle" x="88.88" y="-24.2" font-family="Times,serif" font-size="14.00" fill="#000000">NONE</text>
<text text-anchor="middle" x="88.88" y="-7.7" font-family="Times,serif" font-size="14.00" fill="#000000">0x0</text>
<polyline fill="none" stroke="#8797b2" points="115.62,-0.5 115.62,-58"/>
<text text-anchor="middle" x="159.25" y="-40.7" font-family="Times,serif" font-size="14.00" fill="#000000">Parent</text>
<text text-anchor="middle" x="159.25" y="-24.2" font-family="Times,serif" font-size="14.00" fill="#000000">Nefor</text>
<text text-anchor="middle" x="159.25" y="-7.7" font-family="Times,serif" font-size="14.00" fill="#000000">0x107601cf0</text>
<polyline fill="none" stroke="#8797b2" points="202.88,-0.5 202.88,-58"/>
<text text-anchor="middle" x="229.62" y="-40.7" font-family="Times,serif" font-size="14.00" fill="#000000">Right</text>
<text text-anchor="middle" x="229.62" y="-24.2" font-family="Times,serif" font-size="14.00" fill="#000000">NONE</text>
<text text-anchor="middle" x="229.62" y="-7.7" font-family="Times,serif" font-size="14.00" fill="#000000">0x0</text>
</g>
<!-- node0x107601cf0&#45;&gt;node0x107601cc0 -->
<g id="edge4" class="edge">
<title>node0x107601cf0:left&#45;&gt;node0x107601cc0</title>
<path fill="none" stroke="#187ae8" stroke-width="2" d="M178.25,-152C178.25,-138.45 176.59,-124.04 174.24,-110.49"/>
<polygon fill="#187ae8" stroke="#187ae8" stroke-width="2" points="177.99,-111.48 172.7,-102.3 171.11,-112.78 177.99,-111.48"/>
<text text-anchor="middle" x="185.11" y="-120.7" font-family="Times,serif" font-size="14.00">Да</text>
</g>
<!-- node0x107601c90 -->
<g id="node9" class="node">
<title>node0x107601c90</title>
<path fill="#bdef9e" stroke="#99c2a2" d="M286.12,-0.5C286.12,-0.5 456.38,-0.5 456.38,-0.5 462.38,-0.5 468.38,-6.5 468.38,-12.5 468.38,-12.5 468.38,-87 468.38,-87 468.38,-93 462.38,-99 456.38,-99 456.38,-99 286.12,-99 286.12,-99 280.12,-99 274.12,-93 274.12,-87 274.12,-87 274.12,-12.5 274.12,-12.5 274.12,-6.5 280.12,-0.5 286.12,-0.5"/>
<text text-anchor="middle" x="371.25" y="-81.7" font-family="Times,serif" font-size="14.00" fill="#000000">Ovchos</text>
<text text-anchor="middle" x="371.25" y="-65.2" font-family="Times,serif" font-size="14.00" fill="#000000">0x107601c90</text>
<polyline fill="none" stroke="#99c2a2" points="274.12,-58 468.38,-58"/>
<text text-anchor="middle" x="300.88" y="-40.7" font-family="Times,serif" font-size="14.00" fill="#000000">Left</text>
<text text-anchor="middle" x="300.88" y="-24.2" font-family="Times,serif" font-size="14.00" fill="#000000">NONE</text>
<text text-anchor="middle" x="300.88" y="-7.7" font-family="Times,serif" font-size="14.00" fill="#000000">0x0</text>
<polyline fill="none" stroke="#99c2a2" points="327.62,-0.5 327.62,-58"/>
<text text-anchor="middle" x="371.25" y="-40.7" font-family="Times,serif" font-size="14.00" fill="#000000">Parent</text>
<text text-anchor="middle" x="371.25" y="-24.2" font-family="Times,serif" font-size="14.00" fill="#000000">Nefor</text>
<text text-anchor="middle" x="371.25" y="-7.7" font-family="Times,serif" font-size="14.00" fill="#000000">0x107601cf0</text>
<polyline fill="none" stroke="#99c2a2" points="414.88,-0.5 414.88,-58"/>
<text text-anchor="middle" x="441.62" y="-40.7" font-family="Times,serif" font-size="14.00" fill="#000000">Right</text>
<text text-anchor="middle" x="441.62" y="-24.2" font-family="Times,serif" font-size="14.00" fill="#000000">NONE</text>
<text text-anchor="middle" x="441.62" y="-7.7" font-family="Times,serif" font-size="14.00" fill="#000000">0x0</text>
</g>
<!-- node0x107601cf0&#45;&gt;node0x107601c90 -->
<g id="edge5" class="edge">
<title>node0x107601cf0:right&#45;&gt;node0x107601c90</title>
<path fill="none" stroke="#48e818" stroke-width="2" d="M371.88,-152C371.88,-138.61 371.82,-124.22 371.74,-110.62"/>
<polygon fill="#48e818" stroke="#48e818" stroke-width="2" points="375.25,-112.42 371.69,-102.44 368.25,-112.47 375.25,-112.42"/>
<text text-anchor="middle" x="382.72" y="-120.7" font-family="Times,serif" font-size="14.00">Нет</text>
</g>
<!-- node0x107601c60&#45;&gt;node0x107601c00 -->
<g id="edge7" class="edge">
<title>node0x107601c60:right&#45;&gt;node0x107601c00</title>
<path fill="none" stroke="#48e818" stroke-width="2" d="M784.25,-152C784.25,-138.11 787.02,-123.62 790.94,-110.09"/>
<polygon fill="#48e818" stroke="#48e818" stroke-width="2" points="793.7,-112.96 793.38,-102.37 787.03,-110.85 793.7,-112.96"/>
<text text-anchor="middle" x="799.77" y="-120.7" font-family="Times,serif" font-size="14.00">Нет</text>
</g>
<!-- node0x107601c30 -->
<g id="node11" class="node">
<title>node0x107601c30</title>
<path fill="#d5cfe1" stroke="#8797b2" d="M498.38,-0.5C498.38,-0.5 682.12,-0.5 682.12,-0.5 688.12,-0.5 694.12,-6.5 694.12,-12.5 694.12,-12.5 694.12,-87 694.12,-87 694.12,-93 688.12,-99 682.12,-99 682.12,-99 498.38,-99 498.38,-99 492.38,-99 486.38,-93 486.38,-87 486.38,-87 486.38,-12.5 486.38,-12.5 486.38,-6.5 492.38,-0.5 498.38,-0.5"/>
<text text-anchor="middle" x="590.25" y="-81.7" font-family="Times,serif" font-size="14.00" fill="#000000">Chubarik</text>
<text text-anchor="middle" x="590.25" y="-65.2" font-family="Times,serif" font-size="14.00" fill="#000000">0x107601c30</text>
<polyline fill="none" stroke="#8797b2" points="486.38,-58 694.12,-58"/>
<text text-anchor="middle" x="513.12" y="-40.7" font-family="Times,serif" font-size="14.00" fill="#000000">Left</text>
<text text-anchor="middle" x="513.12" y="-24.2" font-family="Times,serif" font-size="14.00" fill="#000000">NONE</text>
<text text-anchor="middle" x="513.12" y="-7.7" font-family="Times,serif" font-size="14.00" fill="#000000">0x0</text>
<polyline fill="none" stroke="#8797b2" points="539.88,-0.5 539.88,-58"/>
<text text-anchor="middle" x="590.25" y="-40.7" font-family="Times,serif" font-size="14.00" fill="#000000">Parent</text>
<text text-anchor="middle" x="590.25" y="-24.2" font-family="Times,serif" font-size="14.00" fill="#000000">Teaches angem</text>
<text text-anchor="middle" x="590.25" y="-7.7" font-family="Times,serif" font-size="14.00" fill="#000000">0x107601c60</text>
<polyline fill="none" stroke="#8797b2" points="640.62,-0.5 640.62,-58"/>
<text text-anchor="middle" x="667.38" y="-40.7" font-family="Times,serif" font-size="14.00" fill="#000000">Right</text>
<text text-anchor="middle" x="667.38" y="-24.2" font-family="Times,serif" font-size="14.00" fill="#000000">NONE</text>
<text text-anchor="middle" x="667.38" y="-7.7" font-family="Times,serif" font-size="14.00" fill="#000000">0x0</text>
</g>
<!-- node0x107601c60&#45;&gt;node0x107601c30 -->
<g id="edge6" class="edge">
<title>node0x107601c60:left&#45;&gt;node0x107601c30</title>
<path fill="none" stroke="#187ae8" stroke-width="2" d="M590.25,-152C590.25,-138.61 590.25,-124.22 590.25,-110.62"/>
<polygon fill="#187ae8" stroke="#187ae8" stroke-width="2" points="593.75,-112.44 590.25,-102.44 586.75,-112.44 593.75,-112.44"/>
<text text-anchor="middle" x="598.12" y="-120.7" font-family="Times,serif" font-size="14.00">Да</text>
</g>
</g>
</svg>
