<?xml version="1.0" encoding="UTF-8" standalone="no"?>
<!DOCTYPE svg PUBLIC "-//W3C//DTD SVG 1.1//EN"
 "http://www.w3.org/Graphics/SVG/1.1/DTD/svg11.dtd">
<!-- Generated by graphviz version 12.2.0 (20241103.1931)
 -->
<!-- Pages: 1 -->
<svg width="753pt" height="716pt"
 viewBox="0.00 0.00 752.62 715.50" xmlns="http://www.w3.org/2000/svg" xmlns:xlink="http://www.w3.org/1999/xlink">
<g id="graph0" class="graph" transform="scale(1 1) rotate(0) translate(4 711.5)">
<polygon fill="#dcdcdc" stroke="none" points="-4,4 -4,-711.5 748.62,-711.5 748.62,4 -4,4"/>
<!-- node0x105a01e40 -->
<g id="node1" class="node">
<title>node0x105a01e40</title>
<path fill="#fbee21" stroke="#d3c70d" d="M118,-608.5C118,-608.5 343.75,-608.5 343.75,-608.5 349.75,-608.5 355.75,-614.5 355.75,-620.5 355.75,-620.5 355.75,-695 355.75,-695 355.75,-701 349.75,-707 343.75,-707 343.75,-707 118,-707 118,-707 112,-707 106,-701 106,-695 106,-695 106,-620.5 106,-620.5 106,-614.5 112,-608.5 118,-608.5"/>
<text text-anchor="middle" x="230.88" y="-689.7" font-family="Times,serif" font-size="14.00" fill="#000000">Animal</text>
<text text-anchor="middle" x="230.88" y="-673.2" font-family="Times,serif" font-size="14.00" fill="#000000">0x105a01e40</text>
<polyline fill="none" stroke="#d3c70d" points="106,-666 355.75,-666"/>
<text text-anchor="middle" x="150.38" y="-648.7" font-family="Times,serif" font-size="14.00" fill="#000000">Left</text>
<text text-anchor="middle" x="150.38" y="-632.2" font-family="Times,serif" font-size="14.00" fill="#000000">Poltorashka</text>
<text text-anchor="middle" x="150.38" y="-615.7" font-family="Times,serif" font-size="14.00" fill="#000000">0x105a01e10</text>
<polyline fill="none" stroke="#d3c70d" points="194.75,-608.5 194.75,-666"/>
<text text-anchor="middle" x="221.5" y="-648.7" font-family="Times,serif" font-size="14.00" fill="#000000">Parent</text>
<text text-anchor="middle" x="221.5" y="-632.2" font-family="Times,serif" font-size="14.00" fill="#000000">NONE</text>
<text text-anchor="middle" x="221.5" y="-615.7" font-family="Times,serif" font-size="14.00" fill="#000000">0x0</text>
<polyline fill="none" stroke="#d3c70d" points="248.25,-608.5 248.25,-666"/>
<text text-anchor="middle" x="302" y="-648.7" font-family="Times,serif" font-size="14.00" fill="#000000">Right</text>
<text text-anchor="middle" x="302" y="-632.2" font-family="Times,serif" font-size="14.00" fill="#000000">Teaches analisys</text>
<text text-anchor="middle" x="302" y="-615.7" font-family="Times,serif" font-size="14.00" fill="#000000">0x105a01de0</text>
</g>
<!-- node0x105a01e10 -->
<g id="node2" class="node">
<title>node0x105a01e10</title>
<path fill="#d5cfe1" stroke="#8797b2" d="M12,-456.5C12,-456.5 183.75,-456.5 183.75,-456.5 189.75,-456.5 195.75,-462.5 195.75,-468.5 195.75,-468.5 195.75,-543 195.75,-543 195.75,-549 189.75,-555 183.75,-555 183.75,-555 12,-555 12,-555 6,-555 0,-549 0,-543 0,-543 0,-468.5 0,-468.5 0,-462.5 6,-456.5 12,-456.5"/>
<text text-anchor="middle" x="97.88" y="-537.7" font-family="Times,serif" font-size="14.00" fill="#000000">Poltorashka</text>
<text text-anchor="middle" x="97.88" y="-521.2" font-family="Times,serif" font-size="14.00" fill="#000000">0x105a01e10</text>
<polyline fill="none" stroke="#8797b2" points="0,-514 195.75,-514"/>
<text text-anchor="middle" x="26.75" y="-496.7" font-family="Times,serif" font-size="14.00" fill="#000000">Left</text>
<text text-anchor="middle" x="26.75" y="-480.2" font-family="Times,serif" font-size="14.00" fill="#000000">NONE</text>
<text text-anchor="middle" x="26.75" y="-463.7" font-family="Times,serif" font-size="14.00" fill="#000000">0x0</text>
<polyline fill="none" stroke="#8797b2" points="53.5,-456.5 53.5,-514"/>
<text text-anchor="middle" x="97.88" y="-496.7" font-family="Times,serif" font-size="14.00" fill="#000000">Parent</text>
<text text-anchor="middle" x="97.88" y="-480.2" font-family="Times,serif" font-size="14.00" fill="#000000">Animal</text>
<text text-anchor="middle" x="97.88" y="-463.7" font-family="Times,serif" font-size="14.00" fill="#000000">0x105a01e40</text>
<polyline fill="none" stroke="#8797b2" points="142.25,-456.5 142.25,-514"/>
<text text-anchor="middle" x="169" y="-496.7" font-family="Times,serif" font-size="14.00" fill="#000000">Right</text>
<text text-anchor="middle" x="169" y="-480.2" font-family="Times,serif" font-size="14.00" fill="#000000">NONE</text>
<text text-anchor="middle" x="169" y="-463.7" font-family="Times,serif" font-size="14.00" fill="#000000">0x0</text>
</g>
<!-- node0x105a01e40&#45;&gt;node0x105a01e10 -->
<g id="edge1" class="edge">
<title>node0x105a01e40:left&#45;&gt;node0x105a01e10</title>
<path fill="none" stroke="#187ae8" stroke-width="2" d="M105,-637.25C74.29,-637.25 74.06,-600.77 80.67,-566.38"/>
<polygon fill="#187ae8" stroke="#187ae8" stroke-width="2" points="83.73,-568.81 82.39,-558.3 76.88,-567.35 83.73,-568.81"/>
<text text-anchor="middle" x="86.91" y="-576.7" font-family="Times,serif" font-size="14.00">Да</text>
</g>
<!-- node0x105a01de0 -->
<g id="node4" class="node">
<title>node0x105a01de0</title>
<path fill="#bdef9e" stroke="#99c2a2" d="M225.5,-456.5C225.5,-456.5 484.25,-456.5 484.25,-456.5 490.25,-456.5 496.25,-462.5 496.25,-468.5 496.25,-468.5 496.25,-543 496.25,-543 496.25,-549 490.25,-555 484.25,-555 484.25,-555 225.5,-555 225.5,-555 219.5,-555 213.5,-549 213.5,-543 213.5,-543 213.5,-468.5 213.5,-468.5 213.5,-462.5 219.5,-456.5 225.5,-456.5"/>
<text text-anchor="middle" x="354.88" y="-537.7" font-family="Times,serif" font-size="14.00" fill="#000000">Teaches analisys</text>
<text text-anchor="middle" x="354.88" y="-521.2" font-family="Times,serif" font-size="14.00" fill="#000000">0x105a01de0</text>
<polyline fill="none" stroke="#99c2a2" points="213.5,-514 496.25,-514"/>
<text text-anchor="middle" x="258.25" y="-496.7" font-family="Times,serif" font-size="14.00" fill="#000000">Left</text>
<text text-anchor="middle" x="258.25" y="-480.2" font-family="Times,serif" font-size="14.00" fill="#000000">Burtsev</text>
<text text-anchor="middle" x="258.25" y="-463.7" font-family="Times,serif" font-size="14.00" fill="#000000">0x105a01d80</text>
<polyline fill="none" stroke="#99c2a2" points="303,-456.5 303,-514"/>
<text text-anchor="middle" x="347.38" y="-496.7" font-family="Times,serif" font-size="14.00" fill="#000000">Parent</text>
<text text-anchor="middle" x="347.38" y="-480.2" font-family="Times,serif" font-size="14.00" fill="#000000">Animal</text>
<text text-anchor="middle" x="347.38" y="-463.7" font-family="Times,serif" font-size="14.00" fill="#000000">0x105a01e40</text>
<polyline fill="none" stroke="#99c2a2" points="391.75,-456.5 391.75,-514"/>
<text text-anchor="middle" x="444" y="-496.7" font-family="Times,serif" font-size="14.00" fill="#000000">Right</text>
<text text-anchor="middle" x="444" y="-480.2" font-family="Times,serif" font-size="14.00" fill="#000000">Teaches physics</text>
<text text-anchor="middle" x="444" y="-463.7" font-family="Times,serif" font-size="14.00" fill="#000000">0x105a01d50</text>
</g>
<!-- node0x105a01e40&#45;&gt;node0x105a01de0 -->
<g id="edge8" class="edge">
<title>node0x105a01e40:right&#45;&gt;node0x105a01de0</title>
<path fill="none" stroke="#48e818" stroke-width="2" d="M302,-608C302,-593.38 306.38,-578.79 312.63,-565.42"/>
<polygon fill="#48e818" stroke="#48e818" stroke-width="2" points="314.91,-568.64 316.34,-558.14 308.68,-565.46 314.91,-568.64"/>
<text text-anchor="middle" x="319.43" y="-576.7" font-family="Times,serif" font-size="14.00">Нет</text>
</g>
<!-- node0x105a01c90 -->
<g id="node3" class="node">
<title>node0x105a01c90</title>
<path fill="#f18805" stroke="#af3800" d="M545.12,-152.5C545.12,-152.5 732.62,-152.5 732.62,-152.5 738.62,-152.5 744.62,-158.5 744.62,-164.5 744.62,-164.5 744.62,-239 744.62,-239 744.62,-245 738.62,-251 732.62,-251 732.62,-251 545.12,-251 545.12,-251 539.12,-251 533.12,-245 533.12,-239 533.12,-239 533.12,-164.5 533.12,-164.5 533.12,-158.5 539.12,-152.5 545.12,-152.5"/>
<text text-anchor="middle" x="638.88" y="-233.7" font-family="Times,serif" font-size="14.00" fill="#000000">Teaches angem</text>
<text text-anchor="middle" x="638.88" y="-217.2" font-family="Times,serif" font-size="14.00" fill="#000000">0x105a01c90</text>
<polyline fill="none" stroke="#af3800" points="533.12,-210 744.62,-210"/>
<text text-anchor="middle" x="559.88" y="-192.7" font-family="Times,serif" font-size="14.00" fill="#000000">Left</text>
<text text-anchor="middle" x="559.88" y="-176.2" font-family="Times,serif" font-size="14.00" fill="#000000">NONE</text>
<text text-anchor="middle" x="559.88" y="-159.7" font-family="Times,serif" font-size="14.00" fill="#000000">0x0</text>
<polyline fill="none" stroke="#af3800" points="586.62,-152.5 586.62,-210"/>
<text text-anchor="middle" x="638.88" y="-192.7" font-family="Times,serif" font-size="14.00" fill="#000000">Parent</text>
<text text-anchor="middle" x="638.88" y="-176.2" font-family="Times,serif" font-size="14.00" fill="#000000">Teaches physics</text>
<text text-anchor="middle" x="638.88" y="-159.7" font-family="Times,serif" font-size="14.00" fill="#000000">0x105a01d50</text>
<polyline fill="none" stroke="#af3800" points="691.12,-152.5 691.12,-210"/>
<text text-anchor="middle" x="717.88" y="-192.7" font-family="Times,serif" font-size="14.00" fill="#000000">Right</text>
<text text-anchor="middle" x="717.88" y="-176.2" font-family="Times,serif" font-size="14.00" fill="#000000">NONE</text>
<text text-anchor="middle" x="717.88" y="-159.7" font-family="Times,serif" font-size="14.00" fill="#000000">0x0</text>
</g>
<!-- node0x105a01d80 -->
<g id="node5" class="node">
<title>node0x105a01d80</title>
<path fill="#d5cfe1" stroke="#8797b2" d="M141.62,-304.5C141.62,-304.5 332.12,-304.5 332.12,-304.5 338.12,-304.5 344.12,-310.5 344.12,-316.5 344.12,-316.5 344.12,-391 344.12,-391 344.12,-397 338.12,-403 332.12,-403 332.12,-403 141.62,-403 141.62,-403 135.62,-403 129.62,-397 129.62,-391 129.62,-391 129.62,-316.5 129.62,-316.5 129.62,-310.5 135.62,-304.5 141.62,-304.5"/>
<text text-anchor="middle" x="236.88" y="-385.7" font-family="Times,serif" font-size="14.00" fill="#000000">Burtsev</text>
<text text-anchor="middle" x="236.88" y="-369.2" font-family="Times,serif" font-size="14.00" fill="#000000">0x105a01d80</text>
<polyline fill="none" stroke="#8797b2" points="129.62,-362 344.12,-362"/>
<text text-anchor="middle" x="156.38" y="-344.7" font-family="Times,serif" font-size="14.00" fill="#000000">Left</text>
<text text-anchor="middle" x="156.38" y="-328.2" font-family="Times,serif" font-size="14.00" fill="#000000">NONE</text>
<text text-anchor="middle" x="156.38" y="-311.7" font-family="Times,serif" font-size="14.00" fill="#000000">0x0</text>
<polyline fill="none" stroke="#8797b2" points="183.12,-304.5 183.12,-362"/>
<text text-anchor="middle" x="236.88" y="-344.7" font-family="Times,serif" font-size="14.00" fill="#000000">Parent</text>
<text text-anchor="middle" x="236.88" y="-328.2" font-family="Times,serif" font-size="14.00" fill="#000000">Teaches analisys</text>
<text text-anchor="middle" x="236.88" y="-311.7" font-family="Times,serif" font-size="14.00" fill="#000000">0x105a01de0</text>
<polyline fill="none" stroke="#8797b2" points="290.62,-304.5 290.62,-362"/>
<text text-anchor="middle" x="317.38" y="-344.7" font-family="Times,serif" font-size="14.00" fill="#000000">Right</text>
<text text-anchor="middle" x="317.38" y="-328.2" font-family="Times,serif" font-size="14.00" fill="#000000">NONE</text>
<text text-anchor="middle" x="317.38" y="-311.7" font-family="Times,serif" font-size="14.00" fill="#000000">0x0</text>
</g>
<!-- node0x105a01de0&#45;&gt;node0x105a01d80 -->
<g id="edge2" class="edge">
<title>node0x105a01de0:left&#45;&gt;node0x105a01d80</title>
<path fill="none" stroke="#187ae8" stroke-width="2" d="M258.25,-456C258.25,-442.46 256.4,-428.11 253.78,-414.6"/>
<polygon fill="#187ae8" stroke="#187ae8" stroke-width="2" points="257.55,-415.52 252.06,-406.46 250.7,-416.97 257.55,-415.52"/>
<text text-anchor="middle" x="264.99" y="-424.7" font-family="Times,serif" font-size="14.00">Да</text>
</g>
<!-- node0x105a01d50 -->
<g id="node6" class="node">
<title>node0x105a01d50</title>
<path fill="#bdef9e" stroke="#99c2a2" d="M374,-304.5C374,-304.5 647.75,-304.5 647.75,-304.5 653.75,-304.5 659.75,-310.5 659.75,-316.5 659.75,-316.5 659.75,-391 659.75,-391 659.75,-397 653.75,-403 647.75,-403 647.75,-403 374,-403 374,-403 368,-403 362,-397 362,-391 362,-391 362,-316.5 362,-316.5 362,-310.5 368,-304.5 374,-304.5"/>
<text text-anchor="middle" x="510.88" y="-385.7" font-family="Times,serif" font-size="14.00" fill="#000000">Teaches physics</text>
<text text-anchor="middle" x="510.88" y="-369.2" font-family="Times,serif" font-size="14.00" fill="#000000">0x105a01d50</text>
<polyline fill="none" stroke="#99c2a2" points="362,-362 659.75,-362"/>
<text text-anchor="middle" x="406.75" y="-344.7" font-family="Times,serif" font-size="14.00" fill="#000000">Left</text>
<text text-anchor="middle" x="406.75" y="-328.2" font-family="Times,serif" font-size="14.00" fill="#000000">Nefor</text>
<text text-anchor="middle" x="406.75" y="-311.7" font-family="Times,serif" font-size="14.00" fill="#000000">0x105a01d20</text>
<polyline fill="none" stroke="#99c2a2" points="451.5,-304.5 451.5,-362"/>
<text text-anchor="middle" x="505.25" y="-344.7" font-family="Times,serif" font-size="14.00" fill="#000000">Parent</text>
<text text-anchor="middle" x="505.25" y="-328.2" font-family="Times,serif" font-size="14.00" fill="#000000">Teaches analisys</text>
<text text-anchor="middle" x="505.25" y="-311.7" font-family="Times,serif" font-size="14.00" fill="#000000">0x105a01de0</text>
<polyline fill="none" stroke="#99c2a2" points="559,-304.5 559,-362"/>
<text text-anchor="middle" x="609.38" y="-344.7" font-family="Times,serif" font-size="14.00" fill="#000000">Right</text>
<text text-anchor="middle" x="609.38" y="-328.2" font-family="Times,serif" font-size="14.00" fill="#000000">Teaches angem</text>
<text text-anchor="middle" x="609.38" y="-311.7" font-family="Times,serif" font-size="14.00" fill="#000000">0x105a01c90</text>
</g>
<!-- node0x105a01de0&#45;&gt;node0x105a01d50 -->
<g id="edge7" class="edge">
<title>node0x105a01de0:right&#45;&gt;node0x105a01d50</title>
<path fill="none" stroke="#48e818" stroke-width="2" d="M444,-456C444,-440.74 449.35,-426.02 457.03,-412.74"/>
<polygon fill="#48e818" stroke="#48e818" stroke-width="2" points="458.97,-416.22 461.36,-405.9 453.05,-412.47 458.97,-416.22"/>
<text text-anchor="middle" x="463.16" y="-424.7" font-family="Times,serif" font-size="14.00">Нет</text>
</g>
<!-- node0x105a01d50&#45;&gt;node0x105a01c90 -->
<g id="edge6" class="edge">
<title>node0x105a01d50:right&#45;&gt;node0x105a01c90</title>
<path fill="none" stroke="#48e818" stroke-width="2" d="M609.38,-304C609.38,-290.13 611.96,-275.6 615.6,-262.02"/>
<polygon fill="#48e818" stroke="#48e818" stroke-width="2" points="618.42,-264.85 617.86,-254.27 611.7,-262.89 618.42,-264.85"/>
<text text-anchor="middle" x="624.53" y="-272.7" font-family="Times,serif" font-size="14.00">Нет</text>
</g>
<!-- node0x105a01d20 -->
<g id="node7" class="node">
<title>node0x105a01d20</title>
<path fill="#d5cfe1" stroke="#8797b2" d="M248.38,-152.5C248.38,-152.5 503.38,-152.5 503.38,-152.5 509.38,-152.5 515.38,-158.5 515.38,-164.5 515.38,-164.5 515.38,-239 515.38,-239 515.38,-245 509.38,-251 503.38,-251 503.38,-251 248.38,-251 248.38,-251 242.38,-251 236.38,-245 236.38,-239 236.38,-239 236.38,-164.5 236.38,-164.5 236.38,-158.5 242.38,-152.5 248.38,-152.5"/>
<text text-anchor="middle" x="375.88" y="-233.7" font-family="Times,serif" font-size="14.00" fill="#000000">Nefor</text>
<text text-anchor="middle" x="375.88" y="-217.2" font-family="Times,serif" font-size="14.00" fill="#000000">0x105a01d20</text>
<polyline fill="none" stroke="#8797b2" points="236.38,-210 515.38,-210"/>
<text text-anchor="middle" x="279.62" y="-192.7" font-family="Times,serif" font-size="14.00" fill="#000000">Left</text>
<text text-anchor="middle" x="279.62" y="-176.2" font-family="Times,serif" font-size="14.00" fill="#000000">Magic</text>
<text text-anchor="middle" x="279.62" y="-159.7" font-family="Times,serif" font-size="14.00" fill="#000000">0x105a01cf0</text>
<polyline fill="none" stroke="#8797b2" points="322.88,-152.5 322.88,-210"/>
<text text-anchor="middle" x="375.12" y="-192.7" font-family="Times,serif" font-size="14.00" fill="#000000">Parent</text>
<text text-anchor="middle" x="375.12" y="-176.2" font-family="Times,serif" font-size="14.00" fill="#000000">Teaches physics</text>
<text text-anchor="middle" x="375.12" y="-159.7" font-family="Times,serif" font-size="14.00" fill="#000000">0x105a01d50</text>
<polyline fill="none" stroke="#8797b2" points="427.38,-152.5 427.38,-210"/>
<text text-anchor="middle" x="471.38" y="-192.7" font-family="Times,serif" font-size="14.00" fill="#000000">Right</text>
<text text-anchor="middle" x="471.38" y="-176.2" font-family="Times,serif" font-size="14.00" fill="#000000">Ovchos</text>
<text text-anchor="middle" x="471.38" y="-159.7" font-family="Times,serif" font-size="14.00" fill="#000000">0x105a01cc0</text>
</g>
<!-- node0x105a01d50&#45;&gt;node0x105a01d20 -->
<g id="edge3" class="edge">
<title>node0x105a01d50:left&#45;&gt;node0x105a01d20</title>
<path fill="none" stroke="#187ae8" stroke-width="2" d="M406.75,-304C406.75,-290.08 404.05,-275.53 400.24,-261.95"/>
<polygon fill="#187ae8" stroke="#187ae8" stroke-width="2" points="404.14,-262.72 397.87,-254.18 397.44,-264.77 404.14,-262.72"/>
<text text-anchor="middle" x="412.98" y="-272.7" font-family="Times,serif" font-size="14.00">Да</text>
</g>
<!-- node0x105a01cf0 -->
<g id="node8" class="node">
<title>node0x105a01cf0</title>
<path fill="#d5cfe1" stroke="#8797b2" d="M181.62,-0.5C181.62,-0.5 354.12,-0.5 354.12,-0.5 360.12,-0.5 366.12,-6.5 366.12,-12.5 366.12,-12.5 366.12,-87 366.12,-87 366.12,-93 360.12,-99 354.12,-99 354.12,-99 181.62,-99 181.62,-99 175.62,-99 169.62,-93 169.62,-87 169.62,-87 169.62,-12.5 169.62,-12.5 169.62,-6.5 175.62,-0.5 181.62,-0.5"/>
<text text-anchor="middle" x="267.88" y="-81.7" font-family="Times,serif" font-size="14.00" fill="#000000">Magic</text>
<text text-anchor="middle" x="267.88" y="-65.2" font-family="Times,serif" font-size="14.00" fill="#000000">0x105a01cf0</text>
<polyline fill="none" stroke="#8797b2" points="169.62,-58 366.12,-58"/>
<text text-anchor="middle" x="196.38" y="-40.7" font-family="Times,serif" font-size="14.00" fill="#000000">Left</text>
<text text-anchor="middle" x="196.38" y="-24.2" font-family="Times,serif" font-size="14.00" fill="#000000">NONE</text>
<text text-anchor="middle" x="196.38" y="-7.7" font-family="Times,serif" font-size="14.00" fill="#000000">0x0</text>
<polyline fill="none" stroke="#8797b2" points="223.12,-0.5 223.12,-58"/>
<text text-anchor="middle" x="267.88" y="-40.7" font-family="Times,serif" font-size="14.00" fill="#000000">Parent</text>
<text text-anchor="middle" x="267.88" y="-24.2" font-family="Times,serif" font-size="14.00" fill="#000000">Nefor</text>
<text text-anchor="middle" x="267.88" y="-7.7" font-family="Times,serif" font-size="14.00" fill="#000000">0x105a01d20</text>
<polyline fill="none" stroke="#8797b2" points="312.62,-0.5 312.62,-58"/>
<text text-anchor="middle" x="339.38" y="-40.7" font-family="Times,serif" font-size="14.00" fill="#000000">Right</text>
<text text-anchor="middle" x="339.38" y="-24.2" font-family="Times,serif" font-size="14.00" fill="#000000">NONE</text>
<text text-anchor="middle" x="339.38" y="-7.7" font-family="Times,serif" font-size="14.00" fill="#000000">0x0</text>
</g>
<!-- node0x105a01d20&#45;&gt;node0x105a01cf0 -->
<g id="edge4" class="edge">
<title>node0x105a01d20:left&#45;&gt;node0x105a01cf0</title>
<path fill="none" stroke="#187ae8" stroke-width="2" d="M279.62,-152C279.62,-138.52 278.58,-124.1 277.12,-110.49"/>
<polygon fill="#187ae8" stroke="#187ae8" stroke-width="2" points="280.8,-111.82 276.16,-102.29 273.85,-112.63 280.8,-111.82"/>
<text text-anchor="middle" x="286.87" y="-120.7" font-family="Times,serif" font-size="14.00">Да</text>
</g>
<!-- node0x105a01cc0 -->
<g id="node9" class="node">
<title>node0x105a01cc0</title>
<path fill="#bdef9e" stroke="#99c2a2" d="M396.62,-0.5C396.62,-0.5 569.12,-0.5 569.12,-0.5 575.12,-0.5 581.12,-6.5 581.12,-12.5 581.12,-12.5 581.12,-87 581.12,-87 581.12,-93 575.12,-99 569.12,-99 569.12,-99 396.62,-99 396.62,-99 390.62,-99 384.62,-93 384.62,-87 384.62,-87 384.62,-12.5 384.62,-12.5 384.62,-6.5 390.62,-0.5 396.62,-0.5"/>
<text text-anchor="middle" x="482.88" y="-81.7" font-family="Times,serif" font-size="14.00" fill="#000000">Ovchos</text>
<text text-anchor="middle" x="482.88" y="-65.2" font-family="Times,serif" font-size="14.00" fill="#000000">0x105a01cc0</text>
<polyline fill="none" stroke="#99c2a2" points="384.62,-58 581.12,-58"/>
<text text-anchor="middle" x="411.38" y="-40.7" font-family="Times,serif" font-size="14.00" fill="#000000">Left</text>
<text text-anchor="middle" x="411.38" y="-24.2" font-family="Times,serif" font-size="14.00" fill="#000000">NONE</text>
<text text-anchor="middle" x="411.38" y="-7.7" font-family="Times,serif" font-size="14.00" fill="#000000">0x0</text>
<polyline fill="none" stroke="#99c2a2" points="438.12,-0.5 438.12,-58"/>
<text text-anchor="middle" x="482.88" y="-40.7" font-family="Times,serif" font-size="14.00" fill="#000000">Parent</text>
<text text-anchor="middle" x="482.88" y="-24.2" font-family="Times,serif" font-size="14.00" fill="#000000">Nefor</text>
<text text-anchor="middle" x="482.88" y="-7.7" font-family="Times,serif" font-size="14.00" fill="#000000">0x105a01d20</text>
<polyline fill="none" stroke="#99c2a2" points="527.62,-0.5 527.62,-58"/>
<text text-anchor="middle" x="554.38" y="-40.7" font-family="Times,serif" font-size="14.00" fill="#000000">Right</text>
<text text-anchor="middle" x="554.38" y="-24.2" font-family="Times,serif" font-size="14.00" fill="#000000">NONE</text>
<text text-anchor="middle" x="554.38" y="-7.7" font-family="Times,serif" font-size="14.00" fill="#000000">0x0</text>
</g>
<!-- node0x105a01d20&#45;&gt;node0x105a01cc0 -->
<g id="edge5" class="edge">
<title>node0x105a01d20:right&#45;&gt;node0x105a01cc0</title>
<path fill="none" stroke="#48e818" stroke-width="2" d="M471.38,-152C471.38,-138.52 472.39,-124.1 473.82,-110.49"/>
<polygon fill="#48e818" stroke="#48e818" stroke-width="2" points="477.1,-112.63 474.76,-102.3 470.15,-111.83 477.1,-112.63"/>
<text text-anchor="middle" x="483.92" y="-120.7" font-family="Times,serif" font-size="14.00">Нет</text>
</g>
</g>
</svg>
