<?xml version="1.0" encoding="UTF-8" standalone="no"?>
<!DOCTYPE svg PUBLIC "-//W3C//DTD SVG 1.1//EN"
 "http://www.w3.org/Graphics/SVG/1.1/DTD/svg11.dtd">
<!-- Generated by graphviz version 12.2.0 (20241103.1931)
 -->
<!-- Pages: 1 -->
<svg width="624pt" height="716pt"
 viewBox="0.00 0.00 624.38 715.50" xmlns="http://www.w3.org/2000/svg" xmlns:xlink="http://www.w3.org/1999/xlink">
<g id="graph0" class="graph" transform="scale(1 1) rotate(0) translate(4 711.5)">
<polygon fill="#dcdcdc" stroke="none" points="-4,4 -4,-711.5 620.38,-711.5 620.38,4 -4,4"/>
<!-- node0x107601e10 -->
<g id="node1" class="node">
<title>node0x107601e10</title>
<path fill="#fbee21" stroke="#d3c70d" d="M118,-608.5C118,-608.5 344.5,-608.5 344.5,-608.5 350.5,-608.5 356.5,-614.5 356.5,-620.5 356.5,-620.5 356.5,-695 356.5,-695 356.5,-701 350.5,-707 344.5,-707 344.5,-707 118,-707 118,-707 112,-707 106,-701 106,-695 106,-695 106,-620.5 106,-620.5 106,-614.5 112,-608.5 118,-608.5"/>
<text text-anchor="middle" x="231.25" y="-689.7" font-family="Times,serif" font-size="14.00" fill="#000000">Animal</text>
<text text-anchor="middle" x="231.25" y="-673.2" font-family="Times,serif" font-size="14.00" fill="#000000">0x107601e10</text>
<polyline fill="none" stroke="#d3c70d" points="106,-666 356.5,-666"/>
<text text-anchor="middle" x="150.75" y="-648.7" font-family="Times,serif" font-size="14.00" fill="#000000">Left</text>
<text text-anchor="middle" x="150.75" y="-632.2" font-family="Times,serif" font-size="14.00" fill="#000000">Poltorashka</text>
<text text-anchor="middle" x="150.75" y="-615.7" font-family="Times,serif" font-size="14.00" fill="#000000">0x107601de0</text>
<polyline fill="none" stroke="#d3c70d" points="195.5,-608.5 195.5,-666"/>
<text text-anchor="middle" x="222.25" y="-648.7" font-family="Times,serif" font-size="14.00" fill="#000000">Parent</text>
<text text-anchor="middle" x="222.25" y="-632.2" font-family="Times,serif" font-size="14.00" fill="#000000">NONE</text>
<text text-anchor="middle" x="222.25" y="-615.7" font-family="Times,serif" font-size="14.00" fill="#000000">0x0</text>
<polyline fill="none" stroke="#d3c70d" points="249,-608.5 249,-666"/>
<text text-anchor="middle" x="302.75" y="-648.7" font-family="Times,serif" font-size="14.00" fill="#000000">Right</text>
<text text-anchor="middle" x="302.75" y="-632.2" font-family="Times,serif" font-size="14.00" fill="#000000">Teaches analisys</text>
<text text-anchor="middle" x="302.75" y="-615.7" font-family="Times,serif" font-size="14.00" fill="#000000">0x107601db0</text>
</g>
<!-- node0x107601de0 -->
<g id="node2" class="node">
<title>node0x107601de0</title>
<path fill="#d5cfe1" stroke="#8797b2" d="M12,-456.5C12,-456.5 184.5,-456.5 184.5,-456.5 190.5,-456.5 196.5,-462.5 196.5,-468.5 196.5,-468.5 196.5,-543 196.5,-543 196.5,-549 190.5,-555 184.5,-555 184.5,-555 12,-555 12,-555 6,-555 0,-549 0,-543 0,-543 0,-468.5 0,-468.5 0,-462.5 6,-456.5 12,-456.5"/>
<text text-anchor="middle" x="98.25" y="-537.7" font-family="Times,serif" font-size="14.00" fill="#000000">Poltorashka</text>
<text text-anchor="middle" x="98.25" y="-521.2" font-family="Times,serif" font-size="14.00" fill="#000000">0x107601de0</text>
<polyline fill="none" stroke="#8797b2" points="0,-514 196.5,-514"/>
<text text-anchor="middle" x="26.75" y="-496.7" font-family="Times,serif" font-size="14.00" fill="#000000">Left</text>
<text text-anchor="middle" x="26.75" y="-480.2" font-family="Times,serif" font-size="14.00" fill="#000000">NONE</text>
<text text-anchor="middle" x="26.75" y="-463.7" font-family="Times,serif" font-size="14.00" fill="#000000">0x0</text>
<polyline fill="none" stroke="#8797b2" points="53.5,-456.5 53.5,-514"/>
<text text-anchor="middle" x="98.25" y="-496.7" font-family="Times,serif" font-size="14.00" fill="#000000">Parent</text>
<text text-anchor="middle" x="98.25" y="-480.2" font-family="Times,serif" font-size="14.00" fill="#000000">Animal</text>
<text text-anchor="middle" x="98.25" y="-463.7" font-family="Times,serif" font-size="14.00" fill="#000000">0x107601e10</text>
<polyline fill="none" stroke="#8797b2" points="143,-456.5 143,-514"/>
<text text-anchor="middle" x="169.75" y="-496.7" font-family="Times,serif" font-size="14.00" fill="#000000">Right</text>
<text text-anchor="middle" x="169.75" y="-480.2" font-family="Times,serif" font-size="14.00" fill="#000000">NONE</text>
<text text-anchor="middle" x="169.75" y="-463.7" font-family="Times,serif" font-size="14.00" fill="#000000">0x0</text>
</g>
<!-- node0x107601e10&#45;&gt;node0x107601de0 -->
<g id="edge1" class="edge">
<title>node0x107601e10:left&#45;&gt;node0x107601de0</title>
<path fill="none" stroke="#187ae8" stroke-width="2" d="M105,-637.25C74.29,-637.25 74.17,-600.77 80.87,-566.38"/>
<polygon fill="#187ae8" stroke="#187ae8" stroke-width="2" points="83.93,-568.82 82.62,-558.3 77.09,-567.34 83.93,-568.82"/>
<text text-anchor="middle" x="87.09" y="-576.7" font-family="Times,serif" font-size="14.00">Да</text>
</g>
<!-- node0x107601db0 -->
<g id="node4" class="node">
<title>node0x107601db0</title>
<path fill="#bdef9e" stroke="#99c2a2" d="M226.12,-456.5C226.12,-456.5 486.38,-456.5 486.38,-456.5 492.38,-456.5 498.38,-462.5 498.38,-468.5 498.38,-468.5 498.38,-543 498.38,-543 498.38,-549 492.38,-555 486.38,-555 486.38,-555 226.12,-555 226.12,-555 220.12,-555 214.12,-549 214.12,-543 214.12,-543 214.12,-468.5 214.12,-468.5 214.12,-462.5 220.12,-456.5 226.12,-456.5"/>
<text text-anchor="middle" x="356.25" y="-537.7" font-family="Times,serif" font-size="14.00" fill="#000000">Teaches analisys</text>
<text text-anchor="middle" x="356.25" y="-521.2" font-family="Times,serif" font-size="14.00" fill="#000000">0x107601db0</text>
<polyline fill="none" stroke="#99c2a2" points="214.12,-514 498.38,-514"/>
<text text-anchor="middle" x="259.25" y="-496.7" font-family="Times,serif" font-size="14.00" fill="#000000">Left</text>
<text text-anchor="middle" x="259.25" y="-480.2" font-family="Times,serif" font-size="14.00" fill="#000000">Burtsev</text>
<text text-anchor="middle" x="259.25" y="-463.7" font-family="Times,serif" font-size="14.00" fill="#000000">0x107601d50</text>
<polyline fill="none" stroke="#99c2a2" points="304.38,-456.5 304.38,-514"/>
<text text-anchor="middle" x="349.12" y="-496.7" font-family="Times,serif" font-size="14.00" fill="#000000">Parent</text>
<text text-anchor="middle" x="349.12" y="-480.2" font-family="Times,serif" font-size="14.00" fill="#000000">Animal</text>
<text text-anchor="middle" x="349.12" y="-463.7" font-family="Times,serif" font-size="14.00" fill="#000000">0x107601e10</text>
<polyline fill="none" stroke="#99c2a2" points="393.88,-456.5 393.88,-514"/>
<text text-anchor="middle" x="446.12" y="-496.7" font-family="Times,serif" font-size="14.00" fill="#000000">Right</text>
<text text-anchor="middle" x="446.12" y="-480.2" font-family="Times,serif" font-size="14.00" fill="#000000">Teaches physics</text>
<text text-anchor="middle" x="446.12" y="-463.7" font-family="Times,serif" font-size="14.00" fill="#000000">0x107601d20</text>
</g>
<!-- node0x107601e10&#45;&gt;node0x107601db0 -->
<g id="edge7" class="edge">
<title>node0x107601e10:right&#45;&gt;node0x107601db0</title>
<path fill="none" stroke="#48e818" stroke-width="2" d="M302.75,-608C302.75,-593.35 307.19,-578.74 313.5,-565.36"/>
<polygon fill="#48e818" stroke="#48e818" stroke-width="2" points="315.78,-568.57 317.27,-558.08 309.56,-565.36 315.78,-568.57"/>
<text text-anchor="middle" x="320.25" y="-576.7" font-family="Times,serif" font-size="14.00">Нет</text>
</g>
<!-- node0x107601d20 -->
<g id="node3" class="node">
<title>node0x107601d20</title>
<path fill="#f18805" stroke="#af3800" d="M380.12,-304.5C380.12,-304.5 604.38,-304.5 604.38,-304.5 610.38,-304.5 616.38,-310.5 616.38,-316.5 616.38,-316.5 616.38,-391 616.38,-391 616.38,-397 610.38,-403 604.38,-403 604.38,-403 380.12,-403 380.12,-403 374.12,-403 368.12,-397 368.12,-391 368.12,-391 368.12,-316.5 368.12,-316.5 368.12,-310.5 374.12,-304.5 380.12,-304.5"/>
<text text-anchor="middle" x="492.25" y="-385.7" font-family="Times,serif" font-size="14.00" fill="#000000">Teaches physics</text>
<text text-anchor="middle" x="492.25" y="-369.2" font-family="Times,serif" font-size="14.00" fill="#000000">0x107601d20</text>
<polyline fill="none" stroke="#af3800" points="368.12,-362 616.38,-362"/>
<text text-anchor="middle" x="411.75" y="-344.7" font-family="Times,serif" font-size="14.00" fill="#000000">Left</text>
<text text-anchor="middle" x="411.75" y="-328.2" font-family="Times,serif" font-size="14.00" fill="#000000">Nefor</text>
<text text-anchor="middle" x="411.75" y="-311.7" font-family="Times,serif" font-size="14.00" fill="#000000">0x107601cf0</text>
<polyline fill="none" stroke="#af3800" points="455.38,-304.5 455.38,-362"/>
<text text-anchor="middle" x="509.12" y="-344.7" font-family="Times,serif" font-size="14.00" fill="#000000">Parent</text>
<text text-anchor="middle" x="509.12" y="-328.2" font-family="Times,serif" font-size="14.00" fill="#000000">Teaches analisys</text>
<text text-anchor="middle" x="509.12" y="-311.7" font-family="Times,serif" font-size="14.00" fill="#000000">0x107601db0</text>
<polyline fill="none" stroke="#af3800" points="562.88,-304.5 562.88,-362"/>
<text text-anchor="middle" x="589.62" y="-344.7" font-family="Times,serif" font-size="14.00" fill="#000000">Right</text>
<text text-anchor="middle" x="589.62" y="-328.2" font-family="Times,serif" font-size="14.00" fill="#000000">NONE</text>
<text text-anchor="middle" x="589.62" y="-311.7" font-family="Times,serif" font-size="14.00" fill="#000000">0x0</text>
</g>
<!-- node0x107601cf0 -->
<g id="node6" class="node">
<title>node0x107601cf0</title>
<path fill="#d5cfe1" stroke="#8797b2" d="M282.88,-152.5C282.88,-152.5 541.62,-152.5 541.62,-152.5 547.62,-152.5 553.62,-158.5 553.62,-164.5 553.62,-164.5 553.62,-239 553.62,-239 553.62,-245 547.62,-251 541.62,-251 541.62,-251 282.88,-251 282.88,-251 276.88,-251 270.88,-245 270.88,-239 270.88,-239 270.88,-164.5 270.88,-164.5 270.88,-158.5 276.88,-152.5 282.88,-152.5"/>
<text text-anchor="middle" x="412.25" y="-233.7" font-family="Times,serif" font-size="14.00" fill="#000000">Nefor</text>
<text text-anchor="middle" x="412.25" y="-217.2" font-family="Times,serif" font-size="14.00" fill="#000000">0x107601cf0</text>
<polyline fill="none" stroke="#8797b2" points="270.88,-210 553.62,-210"/>
<text text-anchor="middle" x="315.25" y="-192.7" font-family="Times,serif" font-size="14.00" fill="#000000">Left</text>
<text text-anchor="middle" x="315.25" y="-176.2" font-family="Times,serif" font-size="14.00" fill="#000000">Magic</text>
<text text-anchor="middle" x="315.25" y="-159.7" font-family="Times,serif" font-size="14.00" fill="#000000">0x107601cc0</text>
<polyline fill="none" stroke="#8797b2" points="359.62,-152.5 359.62,-210"/>
<text text-anchor="middle" x="411.88" y="-192.7" font-family="Times,serif" font-size="14.00" fill="#000000">Parent</text>
<text text-anchor="middle" x="411.88" y="-176.2" font-family="Times,serif" font-size="14.00" fill="#000000">Teaches physics</text>
<text text-anchor="middle" x="411.88" y="-159.7" font-family="Times,serif" font-size="14.00" fill="#000000">0x107601d20</text>
<polyline fill="none" stroke="#8797b2" points="464.12,-152.5 464.12,-210"/>
<text text-anchor="middle" x="508.88" y="-192.7" font-family="Times,serif" font-size="14.00" fill="#000000">Right</text>
<text text-anchor="middle" x="508.88" y="-176.2" font-family="Times,serif" font-size="14.00" fill="#000000">Ovchos</text>
<text text-anchor="middle" x="508.88" y="-159.7" font-family="Times,serif" font-size="14.00" fill="#000000">0x107601c90</text>
</g>
<!-- node0x107601d20&#45;&gt;node0x107601cf0 -->
<g id="edge3" class="edge">
<title>node0x107601d20:left&#45;&gt;node0x107601cf0</title>
<path fill="none" stroke="#187ae8" stroke-width="2" d="M411.75,-304C411.75,-290.61 411.79,-276.22 411.86,-262.62"/>
<polygon fill="#187ae8" stroke="#187ae8" stroke-width="2" points="415.35,-264.46 411.9,-254.44 408.35,-264.43 415.35,-264.46"/>
<text text-anchor="middle" x="419.7" y="-272.7" font-family="Times,serif" font-size="14.00">Да</text>
</g>
<!-- node0x107601db0&#45;&gt;node0x107601d20 -->
<g id="edge6" class="edge">
<title>node0x107601db0:right&#45;&gt;node0x107601d20</title>
<path fill="none" stroke="#48e818" stroke-width="2" d="M446.12,-456C446.12,-441.67 450,-427.15 455.5,-413.74"/>
<polygon fill="#48e818" stroke="#48e818" stroke-width="2" points="458.06,-416.57 458.97,-406.02 451.68,-413.7 458.06,-416.57"/>
<text text-anchor="middle" x="462.72" y="-424.7" font-family="Times,serif" font-size="14.00">Нет</text>
</g>
<!-- node0x107601d50 -->
<g id="node5" class="node">
<title>node0x107601d50</title>
<path fill="#d5cfe1" stroke="#8797b2" d="M148,-304.5C148,-304.5 338.5,-304.5 338.5,-304.5 344.5,-304.5 350.5,-310.5 350.5,-316.5 350.5,-316.5 350.5,-391 350.5,-391 350.5,-397 344.5,-403 338.5,-403 338.5,-403 148,-403 148,-403 142,-403 136,-397 136,-391 136,-391 136,-316.5 136,-316.5 136,-310.5 142,-304.5 148,-304.5"/>
<text text-anchor="middle" x="243.25" y="-385.7" font-family="Times,serif" font-size="14.00" fill="#000000">Burtsev</text>
<text text-anchor="middle" x="243.25" y="-369.2" font-family="Times,serif" font-size="14.00" fill="#000000">0x107601d50</text>
<polyline fill="none" stroke="#8797b2" points="136,-362 350.5,-362"/>
<text text-anchor="middle" x="162.75" y="-344.7" font-family="Times,serif" font-size="14.00" fill="#000000">Left</text>
<text text-anchor="middle" x="162.75" y="-328.2" font-family="Times,serif" font-size="14.00" fill="#000000">NONE</text>
<text text-anchor="middle" x="162.75" y="-311.7" font-family="Times,serif" font-size="14.00" fill="#000000">0x0</text>
<polyline fill="none" stroke="#8797b2" points="189.5,-304.5 189.5,-362"/>
<text text-anchor="middle" x="243.25" y="-344.7" font-family="Times,serif" font-size="14.00" fill="#000000">Parent</text>
<text text-anchor="middle" x="243.25" y="-328.2" font-family="Times,serif" font-size="14.00" fill="#000000">Teaches analisys</text>
<text text-anchor="middle" x="243.25" y="-311.7" font-family="Times,serif" font-size="14.00" fill="#000000">0x107601db0</text>
<polyline fill="none" stroke="#8797b2" points="297,-304.5 297,-362"/>
<text text-anchor="middle" x="323.75" y="-344.7" font-family="Times,serif" font-size="14.00" fill="#000000">Right</text>
<text text-anchor="middle" x="323.75" y="-328.2" font-family="Times,serif" font-size="14.00" fill="#000000">NONE</text>
<text text-anchor="middle" x="323.75" y="-311.7" font-family="Times,serif" font-size="14.00" fill="#000000">0x0</text>
</g>
<!-- node0x107601db0&#45;&gt;node0x107601d50 -->
<g id="edge2" class="edge">
<title>node0x107601db0:left&#45;&gt;node0x107601d50</title>
<path fill="none" stroke="#187ae8" stroke-width="2" d="M259.25,-456C259.25,-442.51 257.85,-428.14 255.87,-414.58"/>
<polygon fill="#187ae8" stroke="#187ae8" stroke-width="2" points="259.6,-415.74 254.57,-406.42 252.69,-416.84 259.6,-415.74"/>
<text text-anchor="middle" x="266.27" y="-424.7" font-family="Times,serif" font-size="14.00">Да</text>
</g>
<!-- node0x107601cc0 -->
<g id="node7" class="node">
<title>node0x107601cc0</title>
<path fill="#d5cfe1" stroke="#8797b2" d="M220.12,-0.5C220.12,-0.5 390.38,-0.5 390.38,-0.5 396.38,-0.5 402.38,-6.5 402.38,-12.5 402.38,-12.5 402.38,-87 402.38,-87 402.38,-93 396.38,-99 390.38,-99 390.38,-99 220.12,-99 220.12,-99 214.12,-99 208.12,-93 208.12,-87 208.12,-87 208.12,-12.5 208.12,-12.5 208.12,-6.5 214.12,-0.5 220.12,-0.5"/>
<text text-anchor="middle" x="305.25" y="-81.7" font-family="Times,serif" font-size="14.00" fill="#000000">Magic</text>
<text text-anchor="middle" x="305.25" y="-65.2" font-family="Times,serif" font-size="14.00" fill="#000000">0x107601cc0</text>
<polyline fill="none" stroke="#8797b2" points="208.12,-58 402.38,-58"/>
<text text-anchor="middle" x="234.88" y="-40.7" font-family="Times,serif" font-size="14.00" fill="#000000">Left</text>
<text text-anchor="middle" x="234.88" y="-24.2" font-family="Times,serif" font-size="14.00" fill="#000000">NONE</text>
<text text-anchor="middle" x="234.88" y="-7.7" font-family="Times,serif" font-size="14.00" fill="#000000">0x0</text>
<polyline fill="none" stroke="#8797b2" points="261.62,-0.5 261.62,-58"/>
<text text-anchor="middle" x="305.25" y="-40.7" font-family="Times,serif" font-size="14.00" fill="#000000">Parent</text>
<text text-anchor="middle" x="305.25" y="-24.2" font-family="Times,serif" font-size="14.00" fill="#000000">Nefor</text>
<text text-anchor="middle" x="305.25" y="-7.7" font-family="Times,serif" font-size="14.00" fill="#000000">0x107601cf0</text>
<polyline fill="none" stroke="#8797b2" points="348.88,-0.5 348.88,-58"/>
<text text-anchor="middle" x="375.62" y="-40.7" font-family="Times,serif" font-size="14.00" fill="#000000">Right</text>
<text text-anchor="middle" x="375.62" y="-24.2" font-family="Times,serif" font-size="14.00" fill="#000000">NONE</text>
<text text-anchor="middle" x="375.62" y="-7.7" font-family="Times,serif" font-size="14.00" fill="#000000">0x0</text>
</g>
<!-- node0x107601cf0&#45;&gt;node0x107601cc0 -->
<g id="edge4" class="edge">
<title>node0x107601cf0:left&#45;&gt;node0x107601cc0</title>
<path fill="none" stroke="#187ae8" stroke-width="2" d="M315.25,-152C315.25,-138.55 314.36,-124.13 313.12,-110.52"/>
<polygon fill="#187ae8" stroke="#187ae8" stroke-width="2" points="316.78,-111.94 312.3,-102.33 309.81,-112.63 316.78,-111.94"/>
<text text-anchor="middle" x="322.59" y="-120.7" font-family="Times,serif" font-size="14.00">Да</text>
</g>
<!-- node0x107601c90 -->
<g id="node8" class="node">
<title>node0x107601c90</title>
<path fill="#bdef9e" stroke="#99c2a2" d="M432.12,-0.5C432.12,-0.5 602.38,-0.5 602.38,-0.5 608.38,-0.5 614.38,-6.5 614.38,-12.5 614.38,-12.5 614.38,-87 614.38,-87 614.38,-93 608.38,-99 602.38,-99 602.38,-99 432.12,-99 432.12,-99 426.12,-99 420.12,-93 420.12,-87 420.12,-87 420.12,-12.5 420.12,-12.5 420.12,-6.5 426.12,-0.5 432.12,-0.5"/>
<text text-anchor="middle" x="517.25" y="-81.7" font-family="Times,serif" font-size="14.00" fill="#000000">Ovchos</text>
<text text-anchor="middle" x="517.25" y="-65.2" font-family="Times,serif" font-size="14.00" fill="#000000">0x107601c90</text>
<polyline fill="none" stroke="#99c2a2" points="420.12,-58 614.38,-58"/>
<text text-anchor="middle" x="446.88" y="-40.7" font-family="Times,serif" font-size="14.00" fill="#000000">Left</text>
<text text-anchor="middle" x="446.88" y="-24.2" font-family="Times,serif" font-size="14.00" fill="#000000">NONE</text>
<text text-anchor="middle" x="446.88" y="-7.7" font-family="Times,serif" font-size="14.00" fill="#000000">0x0</text>
<polyline fill="none" stroke="#99c2a2" points="473.62,-0.5 473.62,-58"/>
<text text-anchor="middle" x="517.25" y="-40.7" font-family="Times,serif" font-size="14.00" fill="#000000">Parent</text>
<text text-anchor="middle" x="517.25" y="-24.2" font-family="Times,serif" font-size="14.00" fill="#000000">Nefor</text>
<text text-anchor="middle" x="517.25" y="-7.7" font-family="Times,serif" font-size="14.00" fill="#000000">0x107601cf0</text>
<polyline fill="none" stroke="#99c2a2" points="560.88,-0.5 560.88,-58"/>
<text text-anchor="middle" x="587.62" y="-40.7" font-family="Times,serif" font-size="14.00" fill="#000000">Right</text>
<text text-anchor="middle" x="587.62" y="-24.2" font-family="Times,serif" font-size="14.00" fill="#000000">NONE</text>
<text text-anchor="middle" x="587.62" y="-7.7" font-family="Times,serif" font-size="14.00" fill="#000000">0x0</text>
</g>
<!-- node0x107601cf0&#45;&gt;node0x107601c90 -->
<g id="edge5" class="edge">
<title>node0x107601cf0:right&#45;&gt;node0x107601c90</title>
<path fill="none" stroke="#48e818" stroke-width="2" d="M508.88,-152C508.88,-138.56 509.62,-124.16 510.66,-110.55"/>
<polygon fill="#48e818" stroke="#48e818" stroke-width="2" points="514,-112.62 511.34,-102.37 507.02,-112.04 514,-112.62"/>
<text text-anchor="middle" x="520.97" y="-120.7" font-family="Times,serif" font-size="14.00">Нет</text>
</g>
</g>
</svg>
