<?xml version="1.0" encoding="UTF-8" standalone="no"?>
<!DOCTYPE svg PUBLIC "-//W3C//DTD SVG 1.1//EN"
 "http://www.w3.org/Graphics/SVG/1.1/DTD/svg11.dtd">
<!-- Generated by graphviz version 12.2.0 (20241103.1931)
 -->
<!-- Pages: 1 -->
<svg width="258pt" height="260pt"
 viewBox="0.00 0.00 257.88 259.50" xmlns="http://www.w3.org/2000/svg" xmlns:xlink="http://www.w3.org/1999/xlink">
<g id="graph0" class="graph" transform="scale(1 1) rotate(0) translate(4 255.5)">
<polygon fill="#dcdcdc" stroke="none" points="-4,4 -4,-255.5 253.88,-255.5 253.88,4 -4,4"/>
<!-- node0x103601de0 -->
<g id="node1" class="node">
<title>node0x103601de0</title>
<path fill="#f18805" stroke="#af3800" d="M64.62,-152.5C64.62,-152.5 237.88,-152.5 237.88,-152.5 243.88,-152.5 249.88,-158.5 249.88,-164.5 249.88,-164.5 249.88,-239 249.88,-239 249.88,-245 243.88,-251 237.88,-251 237.88,-251 64.62,-251 64.62,-251 58.63,-251 52.62,-245 52.62,-239 52.62,-239 52.62,-164.5 52.62,-164.5 52.62,-158.5 58.62,-152.5 64.62,-152.5"/>
<text text-anchor="middle" x="151.25" y="-233.7" font-family="Times,serif" font-size="14.00" fill="#000000">Animal</text>
<text text-anchor="middle" x="151.25" y="-217.2" font-family="Times,serif" font-size="14.00" fill="#000000">0x103601de0</text>
<polyline fill="none" stroke="#af3800" points="52.62,-210 249.88,-210"/>
<text text-anchor="middle" x="97.75" y="-192.7" font-family="Times,serif" font-size="14.00" fill="#000000">Left</text>
<text text-anchor="middle" x="97.75" y="-176.2" font-family="Times,serif" font-size="14.00" fill="#000000">Poltorashka</text>
<text text-anchor="middle" x="97.75" y="-159.7" font-family="Times,serif" font-size="14.00" fill="#000000">0x103601db0</text>
<polyline fill="none" stroke="#af3800" points="142.88,-152.5 142.88,-210"/>
<text text-anchor="middle" x="169.62" y="-192.7" font-family="Times,serif" font-size="14.00" fill="#000000">Parent</text>
<text text-anchor="middle" x="169.62" y="-176.2" font-family="Times,serif" font-size="14.00" fill="#000000">NONE</text>
<text text-anchor="middle" x="169.62" y="-159.7" font-family="Times,serif" font-size="14.00" fill="#000000">0x0</text>
<polyline fill="none" stroke="#af3800" points="196.38,-152.5 196.38,-210"/>
<text text-anchor="middle" x="223.12" y="-192.7" font-family="Times,serif" font-size="14.00" fill="#000000">Right</text>
<text text-anchor="middle" x="223.12" y="-176.2" font-family="Times,serif" font-size="14.00" fill="#000000">NONE</text>
<text text-anchor="middle" x="223.12" y="-159.7" font-family="Times,serif" font-size="14.00" fill="#000000">0x0</text>
</g>
<!-- node0x103601db0 -->
<g id="node2" class="node">
<title>node0x103601db0</title>
<path fill="#d5cfe1" stroke="#8797b2" d="M12,-0.5C12,-0.5 184.5,-0.5 184.5,-0.5 190.5,-0.5 196.5,-6.5 196.5,-12.5 196.5,-12.5 196.5,-87 196.5,-87 196.5,-93 190.5,-99 184.5,-99 184.5,-99 12,-99 12,-99 6,-99 0,-93 0,-87 0,-87 0,-12.5 0,-12.5 0,-6.5 6,-0.5 12,-0.5"/>
<text text-anchor="middle" x="98.25" y="-81.7" font-family="Times,serif" font-size="14.00" fill="#000000">Poltorashka</text>
<text text-anchor="middle" x="98.25" y="-65.2" font-family="Times,serif" font-size="14.00" fill="#000000">0x103601db0</text>
<polyline fill="none" stroke="#8797b2" points="0,-58 196.5,-58"/>
<text text-anchor="middle" x="26.75" y="-40.7" font-family="Times,serif" font-size="14.00" fill="#000000">Left</text>
<text text-anchor="middle" x="26.75" y="-24.2" font-family="Times,serif" font-size="14.00" fill="#000000">NONE</text>
<text text-anchor="middle" x="26.75" y="-7.7" font-family="Times,serif" font-size="14.00" fill="#000000">0x0</text>
<polyline fill="none" stroke="#8797b2" points="53.5,-0.5 53.5,-58"/>
<text text-anchor="middle" x="98.25" y="-40.7" font-family="Times,serif" font-size="14.00" fill="#000000">Parent</text>
<text text-anchor="middle" x="98.25" y="-24.2" font-family="Times,serif" font-size="14.00" fill="#000000">Animal</text>
<text text-anchor="middle" x="98.25" y="-7.7" font-family="Times,serif" font-size="14.00" fill="#000000">0x103601de0</text>
<polyline fill="none" stroke="#8797b2" points="143,-0.5 143,-58"/>
<text text-anchor="middle" x="169.75" y="-40.7" font-family="Times,serif" font-size="14.00" fill="#000000">Right</text>
<text text-anchor="middle" x="169.75" y="-24.2" font-family="Times,serif" font-size="14.00" fill="#000000">NONE</text>
<text text-anchor="middle" x="169.75" y="-7.7" font-family="Times,serif" font-size="14.00" fill="#000000">0x0</text>
</g>
<!-- node0x103601de0&#45;&gt;node0x103601db0 -->
<g id="edge1" class="edge">
<title>node0x103601de0:left&#45;&gt;node0x103601db0</title>
<path fill="none" stroke="#187ae8" stroke-width="2" d="M97.75,-152C97.75,-138.61 97.79,-124.22 97.86,-110.62"/>
<polygon fill="#187ae8" stroke="#187ae8" stroke-width="2" points="101.35,-112.46 97.9,-102.44 94.35,-112.43 101.35,-112.46"/>
<text text-anchor="middle" x="105.7" y="-120.7" font-family="Times,serif" font-size="14.00">Да</text>
</g>
</g>
</svg>
