<?xml version="1.0" encoding="UTF-8" standalone="no"?>
<!DOCTYPE svg PUBLIC "-//W3C//DTD SVG 1.1//EN"
 "http://www.w3.org/Graphics/SVG/1.1/DTD/svg11.dtd">
<!-- Generated by graphviz version 12.2.0 (20241103.1931)
 -->
<!-- Pages: 1 -->
<svg width="800pt" height="716pt"
 viewBox="0.00 0.00 800.25 715.50" xmlns="http://www.w3.org/2000/svg" xmlns:xlink="http://www.w3.org/1999/xlink">
<g id="graph0" class="graph" transform="scale(1 1) rotate(0) translate(4 711.5)">
<polygon fill="#dcdcdc" stroke="none" points="-4,4 -4,-711.5 796.25,-711.5 796.25,4 -4,4"/>
<!-- node0x105a01e40 -->
<g id="node1" class="node">
<title>node0x105a01e40</title>
<path fill="#fbee21" stroke="#d3c70d" d="M118,-608.5C118,-608.5 343.75,-608.5 343.75,-608.5 349.75,-608.5 355.75,-614.5 355.75,-620.5 355.75,-620.5 355.75,-695 355.75,-695 355.75,-701 349.75,-707 343.75,-707 343.75,-707 118,-707 118,-707 112,-707 106,-701 106,-695 106,-695 106,-620.5 106,-620.5 106,-614.5 112,-608.5 118,-608.5"/>
<text text-anchor="middle" x="230.88" y="-689.7" font-family="Times,serif" font-size="14.00" fill="#000000">Animal</text>
<text text-anchor="middle" x="230.88" y="-673.2" font-family="Times,serif" font-size="14.00" fill="#000000">0x105a01e40</text>
<polyline fill="none" stroke="#d3c70d" points="106,-666 355.75,-666"/>
<text text-anchor="middle" x="150.38" y="-648.7" font-family="Times,serif" font-size="14.00" fill="#000000">Left</text>
<text text-anchor="middle" x="150.38" y="-632.2" font-family="Times,serif" font-size="14.00" fill="#000000">Poltorashka</text>
<text text-anchor="middle" x="150.38" y="-615.7" font-family="Times,serif" font-size="14.00" fill="#000000">0x105a01e10</text>
<polyline fill="none" stroke="#d3c70d" points="194.75,-608.5 194.75,-666"/>
<text text-anchor="middle" x="221.5" y="-648.7" font-family="Times,serif" font-size="14.00" fill="#000000">Parent</text>
<text text-anchor="middle" x="221.5" y="-632.2" font-family="Times,serif" font-size="14.00" fill="#000000">NONE</text>
<text text-anchor="middle" x="221.5" y="-615.7" font-family="Times,serif" font-size="14.00" fill="#000000">0x0</text>
<polyline fill="none" stroke="#d3c70d" points="248.25,-608.5 248.25,-666"/>
<text text-anchor="middle" x="302" y="-648.7" font-family="Times,serif" font-size="14.00" fill="#000000">Right</text>
<text text-anchor="middle" x="302" y="-632.2" font-family="Times,serif" font-size="14.00" fill="#000000">Teaches analisys</text>
<text text-anchor="middle" x="302" y="-615.7" font-family="Times,serif" font-size="14.00" fill="#000000">0x105a01de0</text>
</g>
<!-- node0x105a01e10 -->
<g id="node2" class="node">
<title>node0x105a01e10</title>
<path fill="#d5cfe1" stroke="#8797b2" d="M12,-456.5C12,-456.5 183.75,-456.5 183.75,-456.5 189.75,-456.5 195.75,-462.5 195.75,-468.5 195.75,-468.5 195.75,-543 195.75,-543 195.75,-549 189.75,-555 183.75,-555 183.75,-555 12,-555 12,-555 6,-555 0,-549 0,-543 0,-543 0,-468.5 0,-468.5 0,-462.5 6,-456.5 12,-456.5"/>
<text text-anchor="middle" x="97.88" y="-537.7" font-family="Times,serif" font-size="14.00" fill="#000000">Poltorashka</text>
<text text-anchor="middle" x="97.88" y="-521.2" font-family="Times,serif" font-size="14.00" fill="#000000">0x105a01e10</text>
<polyline fill="none" stroke="#8797b2" points="0,-514 195.75,-514"/>
<text text-anchor="middle" x="26.75" y="-496.7" font-family="Times,serif" font-size="14.00" fill="#000000">Left</text>
<text text-anchor="middle" x="26.75" y="-480.2" font-family="Times,serif" font-size="14.00" fill="#000000">NONE</text>
<text text-anchor="middle" x="26.75" y="-463.7" font-family="Times,serif" font-size="14.00" fill="#000000">0x0</text>
<polyline fill="none" stroke="#8797b2" points="53.5,-456.5 53.5,-514"/>
<text text-anchor="middle" x="97.88" y="-496.7" font-family="Times,serif" font-size="14.00" fill="#000000">Parent</text>
<text text-anchor="middle" x="97.88" y="-480.2" font-family="Times,serif" font-size="14.00" fill="#000000">Animal</text>
<text text-anchor="middle" x="97.88" y="-463.7" font-family="Times,serif" font-size="14.00" fill="#000000">0x105a01e40</text>
<polyline fill="none" stroke="#8797b2" points="142.25,-456.5 142.25,-514"/>
<text text-anchor="middle" x="169" y="-496.7" font-family="Times,serif" font-size="14.00" fill="#000000">Right</text>
<text text-anchor="middle" x="169" y="-480.2" font-family="Times,serif" font-size="14.00" fill="#000000">NONE</text>
<text text-anchor="middle" x="169" y="-463.7" font-family="Times,serif" font-size="14.00" fill="#000000">0x0</text>
</g>
<!-- node0x105a01e40&#45;&gt;node0x105a01e10 -->
<g id="edge1" class="edge">
<title>node0x105a01e40:left&#45;&gt;node0x105a01e10</title>
<path fill="none" stroke="#187ae8" stroke-width="2" d="M105,-637.25C74.29,-637.25 74.06,-600.77 80.67,-566.38"/>
<polygon fill="#187ae8" stroke="#187ae8" stroke-width="2" points="83.73,-568.81 82.39,-558.3 76.88,-567.35 83.73,-568.81"/>
<text text-anchor="middle" x="86.91" y="-576.7" font-family="Times,serif" font-size="14.00">Да</text>
</g>
<!-- node0x105a01de0 -->
<g id="node4" class="node">
<title>node0x105a01de0</title>
<path fill="#bdef9e" stroke="#99c2a2" d="M225.5,-456.5C225.5,-456.5 484.25,-456.5 484.25,-456.5 490.25,-456.5 496.25,-462.5 496.25,-468.5 496.25,-468.5 496.25,-543 496.25,-543 496.25,-549 490.25,-555 484.25,-555 484.25,-555 225.5,-555 225.5,-555 219.5,-555 213.5,-549 213.5,-543 213.5,-543 213.5,-468.5 213.5,-468.5 213.5,-462.5 219.5,-456.5 225.5,-456.5"/>
<text text-anchor="middle" x="354.88" y="-537.7" font-family="Times,serif" font-size="14.00" fill="#000000">Teaches analisys</text>
<text text-anchor="middle" x="354.88" y="-521.2" font-family="Times,serif" font-size="14.00" fill="#000000">0x105a01de0</text>
<polyline fill="none" stroke="#99c2a2" points="213.5,-514 496.25,-514"/>
<text text-anchor="middle" x="258.25" y="-496.7" font-family="Times,serif" font-size="14.00" fill="#000000">Left</text>
<text text-anchor="middle" x="258.25" y="-480.2" font-family="Times,serif" font-size="14.00" fill="#000000">Burtsev</text>
<text text-anchor="middle" x="258.25" y="-463.7" font-family="Times,serif" font-size="14.00" fill="#000000">0x105a01d80</text>
<polyline fill="none" stroke="#99c2a2" points="303,-456.5 303,-514"/>
<text text-anchor="middle" x="347.38" y="-496.7" font-family="Times,serif" font-size="14.00" fill="#000000">Parent</text>
<text text-anchor="middle" x="347.38" y="-480.2" font-family="Times,serif" font-size="14.00" fill="#000000">Animal</text>
<text text-anchor="middle" x="347.38" y="-463.7" font-family="Times,serif" font-size="14.00" fill="#000000">0x105a01e40</text>
<polyline fill="none" stroke="#99c2a2" points="391.75,-456.5 391.75,-514"/>
<text text-anchor="middle" x="444" y="-496.7" font-family="Times,serif" font-size="14.00" fill="#000000">Right</text>
<text text-anchor="middle" x="444" y="-480.2" font-family="Times,serif" font-size="14.00" fill="#000000">Teaches physics</text>
<text text-anchor="middle" x="444" y="-463.7" font-family="Times,serif" font-size="14.00" fill="#000000">0x105a01d50</text>
</g>
<!-- node0x105a01e40&#45;&gt;node0x105a01de0 -->
<g id="edge9" class="edge">
<title>node0x105a01e40:right&#45;&gt;node0x105a01de0</title>
<path fill="none" stroke="#48e818" stroke-width="2" d="M302,-608C302,-593.38 306.38,-578.79 312.63,-565.42"/>
<polygon fill="#48e818" stroke="#48e818" stroke-width="2" points="314.91,-568.64 316.34,-558.14 308.68,-565.46 314.91,-568.64"/>
<text text-anchor="middle" x="319.43" y="-576.7" font-family="Times,serif" font-size="14.00">Нет</text>
</g>
<!-- node0x105a01c90 -->
<g id="node3" class="node">
<title>node0x105a01c90</title>
<path fill="#f18805" stroke="#af3800" d="M557.5,-152.5C557.5,-152.5 780.25,-152.5 780.25,-152.5 786.25,-152.5 792.25,-158.5 792.25,-164.5 792.25,-164.5 792.25,-239 792.25,-239 792.25,-245 786.25,-251 780.25,-251 780.25,-251 557.5,-251 557.5,-251 551.5,-251 545.5,-245 545.5,-239 545.5,-239 545.5,-164.5 545.5,-164.5 545.5,-158.5 551.5,-152.5 557.5,-152.5"/>
<text text-anchor="middle" x="668.88" y="-233.7" font-family="Times,serif" font-size="14.00" fill="#000000">Teaches angem</text>
<text text-anchor="middle" x="668.88" y="-217.2" font-family="Times,serif" font-size="14.00" fill="#000000">0x105a01c90</text>
<polyline fill="none" stroke="#af3800" points="545.5,-210 792.25,-210"/>
<text text-anchor="middle" x="589.88" y="-192.7" font-family="Times,serif" font-size="14.00" fill="#000000">Left</text>
<text text-anchor="middle" x="589.88" y="-176.2" font-family="Times,serif" font-size="14.00" fill="#000000">Chubarik</text>
<text text-anchor="middle" x="589.88" y="-159.7" font-family="Times,serif" font-size="14.00" fill="#000000">0x105a01c60</text>
<polyline fill="none" stroke="#af3800" points="634.25,-152.5 634.25,-210"/>
<text text-anchor="middle" x="686.5" y="-192.7" font-family="Times,serif" font-size="14.00" fill="#000000">Parent</text>
<text text-anchor="middle" x="686.5" y="-176.2" font-family="Times,serif" font-size="14.00" fill="#000000">Teaches physics</text>
<text text-anchor="middle" x="686.5" y="-159.7" font-family="Times,serif" font-size="14.00" fill="#000000">0x105a01d50</text>
<polyline fill="none" stroke="#af3800" points="738.75,-152.5 738.75,-210"/>
<text text-anchor="middle" x="765.5" y="-192.7" font-family="Times,serif" font-size="14.00" fill="#000000">Right</text>
<text text-anchor="middle" x="765.5" y="-176.2" font-family="Times,serif" font-size="14.00" fill="#000000">NONE</text>
<text text-anchor="middle" x="765.5" y="-159.7" font-family="Times,serif" font-size="14.00" fill="#000000">0x0</text>
</g>
<!-- node0x105a01c60 -->
<g id="node10" class="node">
<title>node0x105a01c60</title>
<path fill="#d5cfe1" stroke="#8797b2" d="M522,-0.5C522,-0.5 705.75,-0.5 705.75,-0.5 711.75,-0.5 717.75,-6.5 717.75,-12.5 717.75,-12.5 717.75,-87 717.75,-87 717.75,-93 711.75,-99 705.75,-99 705.75,-99 522,-99 522,-99 516,-99 510,-93 510,-87 510,-87 510,-12.5 510,-12.5 510,-6.5 516,-0.5 522,-0.5"/>
<text text-anchor="middle" x="613.88" y="-81.7" font-family="Times,serif" font-size="14.00" fill="#000000">Chubarik</text>
<text text-anchor="middle" x="613.88" y="-65.2" font-family="Times,serif" font-size="14.00" fill="#000000">0x105a01c60</text>
<polyline fill="none" stroke="#8797b2" points="510,-58 717.75,-58"/>
<text text-anchor="middle" x="536.75" y="-40.7" font-family="Times,serif" font-size="14.00" fill="#000000">Left</text>
<text text-anchor="middle" x="536.75" y="-24.2" font-family="Times,serif" font-size="14.00" fill="#000000">NONE</text>
<text text-anchor="middle" x="536.75" y="-7.7" font-family="Times,serif" font-size="14.00" fill="#000000">0x0</text>
<polyline fill="none" stroke="#8797b2" points="563.5,-0.5 563.5,-58"/>
<text text-anchor="middle" x="613.88" y="-40.7" font-family="Times,serif" font-size="14.00" fill="#000000">Parent</text>
<text text-anchor="middle" x="613.88" y="-24.2" font-family="Times,serif" font-size="14.00" fill="#000000">Teaches angem</text>
<text text-anchor="middle" x="613.88" y="-7.7" font-family="Times,serif" font-size="14.00" fill="#000000">0x105a01c90</text>
<polyline fill="none" stroke="#8797b2" points="664.25,-0.5 664.25,-58"/>
<text text-anchor="middle" x="691" y="-40.7" font-family="Times,serif" font-size="14.00" fill="#000000">Right</text>
<text text-anchor="middle" x="691" y="-24.2" font-family="Times,serif" font-size="14.00" fill="#000000">NONE</text>
<text text-anchor="middle" x="691" y="-7.7" font-family="Times,serif" font-size="14.00" fill="#000000">0x0</text>
</g>
<!-- node0x105a01c90&#45;&gt;node0x105a01c60 -->
<g id="edge6" class="edge">
<title>node0x105a01c90:left&#45;&gt;node0x105a01c60</title>
<path fill="none" stroke="#187ae8" stroke-width="2" d="M589.88,-152C589.88,-138.38 591.96,-124 594.89,-110.49"/>
<polygon fill="#187ae8" stroke="#187ae8" stroke-width="2" points="597.93,-112.87 596.83,-102.33 591.12,-111.25 597.93,-112.87"/>
<text text-anchor="middle" x="601.23" y="-120.7" font-family="Times,serif" font-size="14.00">Да</text>
</g>
<!-- node0x105a01d80 -->
<g id="node5" class="node">
<title>node0x105a01d80</title>
<path fill="#d5cfe1" stroke="#8797b2" d="M141.62,-304.5C141.62,-304.5 332.12,-304.5 332.12,-304.5 338.12,-304.5 344.12,-310.5 344.12,-316.5 344.12,-316.5 344.12,-391 344.12,-391 344.12,-397 338.12,-403 332.12,-403 332.12,-403 141.62,-403 141.62,-403 135.62,-403 129.62,-397 129.62,-391 129.62,-391 129.62,-316.5 129.62,-316.5 129.62,-310.5 135.62,-304.5 141.62,-304.5"/>
<text text-anchor="middle" x="236.88" y="-385.7" font-family="Times,serif" font-size="14.00" fill="#000000">Burtsev</text>
<text text-anchor="middle" x="236.88" y="-369.2" font-family="Times,serif" font-size="14.00" fill="#000000">0x105a01d80</text>
<polyline fill="none" stroke="#8797b2" points="129.62,-362 344.12,-362"/>
<text text-anchor="middle" x="156.38" y="-344.7" font-family="Times,serif" font-size="14.00" fill="#000000">Left</text>
<text text-anchor="middle" x="156.38" y="-328.2" font-family="Times,serif" font-size="14.00" fill="#000000">NONE</text>
<text text-anchor="middle" x="156.38" y="-311.7" font-family="Times,serif" font-size="14.00" fill="#000000">0x0</text>
<polyline fill="none" stroke="#8797b2" points="183.12,-304.5 183.12,-362"/>
<text text-anchor="middle" x="236.88" y="-344.7" font-family="Times,serif" font-size="14.00" fill="#000000">Parent</text>
<text text-anchor="middle" x="236.88" y="-328.2" font-family="Times,serif" font-size="14.00" fill="#000000">Teaches analisys</text>
<text text-anchor="middle" x="236.88" y="-311.7" font-family="Times,serif" font-size="14.00" fill="#000000">0x105a01de0</text>
<polyline fill="none" stroke="#8797b2" points="290.62,-304.5 290.62,-362"/>
<text text-anchor="middle" x="317.38" y="-344.7" font-family="Times,serif" font-size="14.00" fill="#000000">Right</text>
<text text-anchor="middle" x="317.38" y="-328.2" font-family="Times,serif" font-size="14.00" fill="#000000">NONE</text>
<text text-anchor="middle" x="317.38" y="-311.7" font-family="Times,serif" font-size="14.00" fill="#000000">0x0</text>
</g>
<!-- node0x105a01de0&#45;&gt;node0x105a01d80 -->
<g id="edge2" class="edge">
<title>node0x105a01de0:left&#45;&gt;node0x105a01d80</title>
<path fill="none" stroke="#187ae8" stroke-width="2" d="M258.25,-456C258.25,-442.46 256.4,-428.11 253.78,-414.6"/>
<polygon fill="#187ae8" stroke="#187ae8" stroke-width="2" points="257.55,-415.52 252.06,-406.46 250.7,-416.97 257.55,-415.52"/>
<text text-anchor="middle" x="264.99" y="-424.7" font-family="Times,serif" font-size="14.00">Да</text>
</g>
<!-- node0x105a01d50 -->
<g id="node6" class="node">
<title>node0x105a01d50</title>
<path fill="#bdef9e" stroke="#99c2a2" d="M374,-304.5C374,-304.5 647.75,-304.5 647.75,-304.5 653.75,-304.5 659.75,-310.5 659.75,-316.5 659.75,-316.5 659.75,-391 659.75,-391 659.75,-397 653.75,-403 647.75,-403 647.75,-403 374,-403 374,-403 368,-403 362,-397 362,-391 362,-391 362,-316.5 362,-316.5 362,-310.5 368,-304.5 374,-304.5"/>
<text text-anchor="middle" x="510.88" y="-385.7" font-family="Times,serif" font-size="14.00" fill="#000000">Teaches physics</text>
<text text-anchor="middle" x="510.88" y="-369.2" font-family="Times,serif" font-size="14.00" fill="#000000">0x105a01d50</text>
<polyline fill="none" stroke="#99c2a2" points="362,-362 659.75,-362"/>
<text text-anchor="middle" x="406.75" y="-344.7" font-family="Times,serif" font-size="14.00" fill="#000000">Left</text>
<text text-anchor="middle" x="406.75" y="-328.2" font-family="Times,serif" font-size="14.00" fill="#000000">Nefor</text>
<text text-anchor="middle" x="406.75" y="-311.7" font-family="Times,serif" font-size="14.00" fill="#000000">0x105a01d20</text>
<polyline fill="none" stroke="#99c2a2" points="451.5,-304.5 451.5,-362"/>
<text text-anchor="middle" x="505.25" y="-344.7" font-family="Times,serif" font-size="14.00" fill="#000000">Parent</text>
<text text-anchor="middle" x="505.25" y="-328.2" font-family="Times,serif" font-size="14.00" fill="#000000">Teaches analisys</text>
<text text-anchor="middle" x="505.25" y="-311.7" font-family="Times,serif" font-size="14.00" fill="#000000">0x105a01de0</text>
<polyline fill="none" stroke="#99c2a2" points="559,-304.5 559,-362"/>
<text text-anchor="middle" x="609.38" y="-344.7" font-family="Times,serif" font-size="14.00" fill="#000000">Right</text>
<text text-anchor="middle" x="609.38" y="-328.2" font-family="Times,serif" font-size="14.00" fill="#000000">Teaches angem</text>
<text text-anchor="middle" x="609.38" y="-311.7" font-family="Times,serif" font-size="14.00" fill="#000000">0x105a01c90</text>
</g>
<!-- node0x105a01de0&#45;&gt;node0x105a01d50 -->
<g id="edge8" class="edge">
<title>node0x105a01de0:right&#45;&gt;node0x105a01d50</title>
<path fill="none" stroke="#48e818" stroke-width="2" d="M444,-456C444,-440.74 449.35,-426.02 457.03,-412.74"/>
<polygon fill="#48e818" stroke="#48e818" stroke-width="2" points="458.97,-416.22 461.36,-405.9 453.05,-412.47 458.97,-416.22"/>
<text text-anchor="middle" x="463.16" y="-424.7" font-family="Times,serif" font-size="14.00">Нет</text>
</g>
<!-- node0x105a01d50&#45;&gt;node0x105a01c90 -->
<g id="edge7" class="edge">
<title>node0x105a01d50:right&#45;&gt;node0x105a01c90</title>
<path fill="none" stroke="#48e818" stroke-width="2" d="M609.38,-304C609.38,-289.13 614.2,-274.52 621.11,-261.23"/>
<polygon fill="#48e818" stroke="#48e818" stroke-width="2" points="623.33,-264.38 625.25,-253.96 617.25,-260.92 623.33,-264.38"/>
<text text-anchor="middle" x="627.62" y="-272.7" font-family="Times,serif" font-size="14.00">Нет</text>
</g>
<!-- node0x105a01d20 -->
<g id="node7" class="node">
<title>node0x105a01d20</title>
<path fill="#d5cfe1" stroke="#8797b2" d="M171.38,-152.5C171.38,-152.5 426.38,-152.5 426.38,-152.5 432.38,-152.5 438.38,-158.5 438.38,-164.5 438.38,-164.5 438.38,-239 438.38,-239 438.38,-245 432.38,-251 426.38,-251 426.38,-251 171.38,-251 171.38,-251 165.38,-251 159.38,-245 159.38,-239 159.38,-239 159.38,-164.5 159.38,-164.5 159.38,-158.5 165.38,-152.5 171.38,-152.5"/>
<text text-anchor="middle" x="298.88" y="-233.7" font-family="Times,serif" font-size="14.00" fill="#000000">Nefor</text>
<text text-anchor="middle" x="298.88" y="-217.2" font-family="Times,serif" font-size="14.00" fill="#000000">0x105a01d20</text>
<polyline fill="none" stroke="#8797b2" points="159.38,-210 438.38,-210"/>
<text text-anchor="middle" x="202.62" y="-192.7" font-family="Times,serif" font-size="14.00" fill="#000000">Left</text>
<text text-anchor="middle" x="202.62" y="-176.2" font-family="Times,serif" font-size="14.00" fill="#000000">Magic</text>
<text text-anchor="middle" x="202.62" y="-159.7" font-family="Times,serif" font-size="14.00" fill="#000000">0x105a01cf0</text>
<polyline fill="none" stroke="#8797b2" points="245.88,-152.5 245.88,-210"/>
<text text-anchor="middle" x="298.12" y="-192.7" font-family="Times,serif" font-size="14.00" fill="#000000">Parent</text>
<text text-anchor="middle" x="298.12" y="-176.2" font-family="Times,serif" font-size="14.00" fill="#000000">Teaches physics</text>
<text text-anchor="middle" x="298.12" y="-159.7" font-family="Times,serif" font-size="14.00" fill="#000000">0x105a01d50</text>
<polyline fill="none" stroke="#8797b2" points="350.38,-152.5 350.38,-210"/>
<text text-anchor="middle" x="394.38" y="-192.7" font-family="Times,serif" font-size="14.00" fill="#000000">Right</text>
<text text-anchor="middle" x="394.38" y="-176.2" font-family="Times,serif" font-size="14.00" fill="#000000">Ovchos</text>
<text text-anchor="middle" x="394.38" y="-159.7" font-family="Times,serif" font-size="14.00" fill="#000000">0x105a01cc0</text>
</g>
<!-- node0x105a01d50&#45;&gt;node0x105a01d20 -->
<g id="edge3" class="edge">
<title>node0x105a01d50:left&#45;&gt;node0x105a01d20</title>
<path fill="none" stroke="#187ae8" stroke-width="2" d="M406.75,-304C406.75,-287.3 399.8,-272.56 389.42,-259.85"/>
<polygon fill="#187ae8" stroke="#187ae8" stroke-width="2" points="393.08,-258.67 383.76,-253.62 387.89,-263.38 393.08,-258.67"/>
<text text-anchor="middle" x="411.6" y="-272.7" font-family="Times,serif" font-size="14.00">Да</text>
</g>
<!-- node0x105a01cf0 -->
<g id="node8" class="node">
<title>node0x105a01cf0</title>
<path fill="#d5cfe1" stroke="#8797b2" d="M92.62,-0.5C92.62,-0.5 265.12,-0.5 265.12,-0.5 271.12,-0.5 277.12,-6.5 277.12,-12.5 277.12,-12.5 277.12,-87 277.12,-87 277.12,-93 271.12,-99 265.12,-99 265.12,-99 92.62,-99 92.62,-99 86.63,-99 80.62,-93 80.62,-87 80.62,-87 80.62,-12.5 80.62,-12.5 80.62,-6.5 86.62,-0.5 92.62,-0.5"/>
<text text-anchor="middle" x="178.88" y="-81.7" font-family="Times,serif" font-size="14.00" fill="#000000">Magic</text>
<text text-anchor="middle" x="178.88" y="-65.2" font-family="Times,serif" font-size="14.00" fill="#000000">0x105a01cf0</text>
<polyline fill="none" stroke="#8797b2" points="80.62,-58 277.12,-58"/>
<text text-anchor="middle" x="107.38" y="-40.7" font-family="Times,serif" font-size="14.00" fill="#000000">Left</text>
<text text-anchor="middle" x="107.38" y="-24.2" font-family="Times,serif" font-size="14.00" fill="#000000">NONE</text>
<text text-anchor="middle" x="107.38" y="-7.7" font-family="Times,serif" font-size="14.00" fill="#000000">0x0</text>
<polyline fill="none" stroke="#8797b2" points="134.12,-0.5 134.12,-58"/>
<text text-anchor="middle" x="178.88" y="-40.7" font-family="Times,serif" font-size="14.00" fill="#000000">Parent</text>
<text text-anchor="middle" x="178.88" y="-24.2" font-family="Times,serif" font-size="14.00" fill="#000000">Nefor</text>
<text text-anchor="middle" x="178.88" y="-7.7" font-family="Times,serif" font-size="14.00" fill="#000000">0x105a01d20</text>
<polyline fill="none" stroke="#8797b2" points="223.62,-0.5 223.62,-58"/>
<text text-anchor="middle" x="250.38" y="-40.7" font-family="Times,serif" font-size="14.00" fill="#000000">Right</text>
<text text-anchor="middle" x="250.38" y="-24.2" font-family="Times,serif" font-size="14.00" fill="#000000">NONE</text>
<text text-anchor="middle" x="250.38" y="-7.7" font-family="Times,serif" font-size="14.00" fill="#000000">0x0</text>
</g>
<!-- node0x105a01d20&#45;&gt;node0x105a01cf0 -->
<g id="edge4" class="edge">
<title>node0x105a01d20:left&#45;&gt;node0x105a01cf0</title>
<path fill="none" stroke="#187ae8" stroke-width="2" d="M202.62,-152C202.62,-138.39 200.57,-124.01 197.66,-110.5"/>
<polygon fill="#187ae8" stroke="#187ae8" stroke-width="2" points="201.44,-111.27 195.74,-102.34 194.62,-112.88 201.44,-111.27"/>
<text text-anchor="middle" x="209.23" y="-120.7" font-family="Times,serif" font-size="14.00">Да</text>
</g>
<!-- node0x105a01cc0 -->
<g id="node9" class="node">
<title>node0x105a01cc0</title>
<path fill="#bdef9e" stroke="#99c2a2" d="M307.62,-0.5C307.62,-0.5 480.12,-0.5 480.12,-0.5 486.12,-0.5 492.12,-6.5 492.12,-12.5 492.12,-12.5 492.12,-87 492.12,-87 492.12,-93 486.12,-99 480.12,-99 480.12,-99 307.62,-99 307.62,-99 301.62,-99 295.62,-93 295.62,-87 295.62,-87 295.62,-12.5 295.62,-12.5 295.62,-6.5 301.62,-0.5 307.62,-0.5"/>
<text text-anchor="middle" x="393.88" y="-81.7" font-family="Times,serif" font-size="14.00" fill="#000000">Ovchos</text>
<text text-anchor="middle" x="393.88" y="-65.2" font-family="Times,serif" font-size="14.00" fill="#000000">0x105a01cc0</text>
<polyline fill="none" stroke="#99c2a2" points="295.62,-58 492.12,-58"/>
<text text-anchor="middle" x="322.38" y="-40.7" font-family="Times,serif" font-size="14.00" fill="#000000">Left</text>
<text text-anchor="middle" x="322.38" y="-24.2" font-family="Times,serif" font-size="14.00" fill="#000000">NONE</text>
<text text-anchor="middle" x="322.38" y="-7.7" font-family="Times,serif" font-size="14.00" fill="#000000">0x0</text>
<polyline fill="none" stroke="#99c2a2" points="349.12,-0.5 349.12,-58"/>
<text text-anchor="middle" x="393.88" y="-40.7" font-family="Times,serif" font-size="14.00" fill="#000000">Parent</text>
<text text-anchor="middle" x="393.88" y="-24.2" font-family="Times,serif" font-size="14.00" fill="#000000">Nefor</text>
<text text-anchor="middle" x="393.88" y="-7.7" font-family="Times,serif" font-size="14.00" fill="#000000">0x105a01d20</text>
<polyline fill="none" stroke="#99c2a2" points="438.62,-0.5 438.62,-58"/>
<text text-anchor="middle" x="465.38" y="-40.7" font-family="Times,serif" font-size="14.00" fill="#000000">Right</text>
<text text-anchor="middle" x="465.38" y="-24.2" font-family="Times,serif" font-size="14.00" fill="#000000">NONE</text>
<text text-anchor="middle" x="465.38" y="-7.7" font-family="Times,serif" font-size="14.00" fill="#000000">0x0</text>
</g>
<!-- node0x105a01d20&#45;&gt;node0x105a01cc0 -->
<g id="edge5" class="edge">
<title>node0x105a01d20:right&#45;&gt;node0x105a01cc0</title>
<path fill="none" stroke="#48e818" stroke-width="2" d="M394.38,-152C394.38,-138.61 394.33,-124.22 394.27,-110.62"/>
<polygon fill="#48e818" stroke="#48e818" stroke-width="2" points="397.78,-112.43 394.23,-102.44 390.78,-112.46 397.78,-112.43"/>
<text text-anchor="middle" x="405.22" y="-120.7" font-family="Times,serif" font-size="14.00">Нет</text>
</g>
</g>
</svg>
