<?xml version="1.0" encoding="UTF-8" standalone="no"?>
<!DOCTYPE svg PUBLIC "-//W3C//DTD SVG 1.1//EN"
 "http://www.w3.org/Graphics/SVG/1.1/DTD/svg11.dtd">
<!-- Generated by graphviz version 12.2.0 (20241103.1931)
 -->
<!-- Pages: 1 -->
<svg width="755pt" height="716pt"
 viewBox="0.00 0.00 755.00 715.50" xmlns="http://www.w3.org/2000/svg" xmlns:xlink="http://www.w3.org/1999/xlink">
<g id="graph0" class="graph" transform="scale(1 1) rotate(0) translate(4 711.5)">
<polygon fill="#dcdcdc" stroke="none" points="-4,4 -4,-711.5 751,-711.5 751,4 -4,4"/>
<!-- node0x105301e40 -->
<g id="node1" class="node">
<title>node0x105301e40</title>
<path fill="#fbee21" stroke="#d3c70d" d="M118,-608.5C118,-608.5 344.5,-608.5 344.5,-608.5 350.5,-608.5 356.5,-614.5 356.5,-620.5 356.5,-620.5 356.5,-695 356.5,-695 356.5,-701 350.5,-707 344.5,-707 344.5,-707 118,-707 118,-707 112,-707 106,-701 106,-695 106,-695 106,-620.5 106,-620.5 106,-614.5 112,-608.5 118,-608.5"/>
<text text-anchor="middle" x="231.25" y="-689.7" font-family="Times,serif" font-size="14.00" fill="#000000">Animal</text>
<text text-anchor="middle" x="231.25" y="-673.2" font-family="Times,serif" font-size="14.00" fill="#000000">0x105301e40</text>
<polyline fill="none" stroke="#d3c70d" points="106,-666 356.5,-666"/>
<text text-anchor="middle" x="150.75" y="-648.7" font-family="Times,serif" font-size="14.00" fill="#000000">Left</text>
<text text-anchor="middle" x="150.75" y="-632.2" font-family="Times,serif" font-size="14.00" fill="#000000">Poltorashka</text>
<text text-anchor="middle" x="150.75" y="-615.7" font-family="Times,serif" font-size="14.00" fill="#000000">0x105301e10</text>
<polyline fill="none" stroke="#d3c70d" points="195.5,-608.5 195.5,-666"/>
<text text-anchor="middle" x="222.25" y="-648.7" font-family="Times,serif" font-size="14.00" fill="#000000">Parent</text>
<text text-anchor="middle" x="222.25" y="-632.2" font-family="Times,serif" font-size="14.00" fill="#000000">NONE</text>
<text text-anchor="middle" x="222.25" y="-615.7" font-family="Times,serif" font-size="14.00" fill="#000000">0x0</text>
<polyline fill="none" stroke="#d3c70d" points="249,-608.5 249,-666"/>
<text text-anchor="middle" x="302.75" y="-648.7" font-family="Times,serif" font-size="14.00" fill="#000000">Right</text>
<text text-anchor="middle" x="302.75" y="-632.2" font-family="Times,serif" font-size="14.00" fill="#000000">Teaches analisys</text>
<text text-anchor="middle" x="302.75" y="-615.7" font-family="Times,serif" font-size="14.00" fill="#000000">0x105301de0</text>
</g>
<!-- node0x105301e10 -->
<g id="node2" class="node">
<title>node0x105301e10</title>
<path fill="#d5cfe1" stroke="#8797b2" d="M12,-456.5C12,-456.5 184.5,-456.5 184.5,-456.5 190.5,-456.5 196.5,-462.5 196.5,-468.5 196.5,-468.5 196.5,-543 196.5,-543 196.5,-549 190.5,-555 184.5,-555 184.5,-555 12,-555 12,-555 6,-555 0,-549 0,-543 0,-543 0,-468.5 0,-468.5 0,-462.5 6,-456.5 12,-456.5"/>
<text text-anchor="middle" x="98.25" y="-537.7" font-family="Times,serif" font-size="14.00" fill="#000000">Poltorashka</text>
<text text-anchor="middle" x="98.25" y="-521.2" font-family="Times,serif" font-size="14.00" fill="#000000">0x105301e10</text>
<polyline fill="none" stroke="#8797b2" points="0,-514 196.5,-514"/>
<text text-anchor="middle" x="26.75" y="-496.7" font-family="Times,serif" font-size="14.00" fill="#000000">Left</text>
<text text-anchor="middle" x="26.75" y="-480.2" font-family="Times,serif" font-size="14.00" fill="#000000">NONE</text>
<text text-anchor="middle" x="26.75" y="-463.7" font-family="Times,serif" font-size="14.00" fill="#000000">0x0</text>
<polyline fill="none" stroke="#8797b2" points="53.5,-456.5 53.5,-514"/>
<text text-anchor="middle" x="98.25" y="-496.7" font-family="Times,serif" font-size="14.00" fill="#000000">Parent</text>
<text text-anchor="middle" x="98.25" y="-480.2" font-family="Times,serif" font-size="14.00" fill="#000000">Animal</text>
<text text-anchor="middle" x="98.25" y="-463.7" font-family="Times,serif" font-size="14.00" fill="#000000">0x105301e40</text>
<polyline fill="none" stroke="#8797b2" points="143,-456.5 143,-514"/>
<text text-anchor="middle" x="169.75" y="-496.7" font-family="Times,serif" font-size="14.00" fill="#000000">Right</text>
<text text-anchor="middle" x="169.75" y="-480.2" font-family="Times,serif" font-size="14.00" fill="#000000">NONE</text>
<text text-anchor="middle" x="169.75" y="-463.7" font-family="Times,serif" font-size="14.00" fill="#000000">0x0</text>
</g>
<!-- node0x105301e40&#45;&gt;node0x105301e10 -->
<g id="edge1" class="edge">
<title>node0x105301e40:left&#45;&gt;node0x105301e10</title>
<path fill="none" stroke="#187ae8" stroke-width="2" d="M105,-637.25C74.29,-637.25 74.17,-600.77 80.87,-566.38"/>
<polygon fill="#187ae8" stroke="#187ae8" stroke-width="2" points="83.93,-568.82 82.62,-558.3 77.09,-567.34 83.93,-568.82"/>
<text text-anchor="middle" x="87.09" y="-576.7" font-family="Times,serif" font-size="14.00">Да</text>
</g>
<!-- node0x105301de0 -->
<g id="node4" class="node">
<title>node0x105301de0</title>
<path fill="#bdef9e" stroke="#99c2a2" d="M226.12,-456.5C226.12,-456.5 486.38,-456.5 486.38,-456.5 492.38,-456.5 498.38,-462.5 498.38,-468.5 498.38,-468.5 498.38,-543 498.38,-543 498.38,-549 492.38,-555 486.38,-555 486.38,-555 226.12,-555 226.12,-555 220.12,-555 214.12,-549 214.12,-543 214.12,-543 214.12,-468.5 214.12,-468.5 214.12,-462.5 220.12,-456.5 226.12,-456.5"/>
<text text-anchor="middle" x="356.25" y="-537.7" font-family="Times,serif" font-size="14.00" fill="#000000">Teaches analisys</text>
<text text-anchor="middle" x="356.25" y="-521.2" font-family="Times,serif" font-size="14.00" fill="#000000">0x105301de0</text>
<polyline fill="none" stroke="#99c2a2" points="214.12,-514 498.38,-514"/>
<text text-anchor="middle" x="259.25" y="-496.7" font-family="Times,serif" font-size="14.00" fill="#000000">Left</text>
<text text-anchor="middle" x="259.25" y="-480.2" font-family="Times,serif" font-size="14.00" fill="#000000">Burtsev</text>
<text text-anchor="middle" x="259.25" y="-463.7" font-family="Times,serif" font-size="14.00" fill="#000000">0x105301d80</text>
<polyline fill="none" stroke="#99c2a2" points="304.38,-456.5 304.38,-514"/>
<text text-anchor="middle" x="349.12" y="-496.7" font-family="Times,serif" font-size="14.00" fill="#000000">Parent</text>
<text text-anchor="middle" x="349.12" y="-480.2" font-family="Times,serif" font-size="14.00" fill="#000000">Animal</text>
<text text-anchor="middle" x="349.12" y="-463.7" font-family="Times,serif" font-size="14.00" fill="#000000">0x105301e40</text>
<polyline fill="none" stroke="#99c2a2" points="393.88,-456.5 393.88,-514"/>
<text text-anchor="middle" x="446.12" y="-496.7" font-family="Times,serif" font-size="14.00" fill="#000000">Right</text>
<text text-anchor="middle" x="446.12" y="-480.2" font-family="Times,serif" font-size="14.00" fill="#000000">Teaches physics</text>
<text text-anchor="middle" x="446.12" y="-463.7" font-family="Times,serif" font-size="14.00" fill="#000000">0x105301d50</text>
</g>
<!-- node0x105301e40&#45;&gt;node0x105301de0 -->
<g id="edge8" class="edge">
<title>node0x105301e40:right&#45;&gt;node0x105301de0</title>
<path fill="none" stroke="#48e818" stroke-width="2" d="M302.75,-608C302.75,-593.35 307.19,-578.74 313.5,-565.36"/>
<polygon fill="#48e818" stroke="#48e818" stroke-width="2" points="315.78,-568.57 317.27,-558.08 309.56,-565.36 315.78,-568.57"/>
<text text-anchor="middle" x="320.25" y="-576.7" font-family="Times,serif" font-size="14.00">Нет</text>
</g>
<!-- node0x105301c90 -->
<g id="node3" class="node">
<title>node0x105301c90</title>
<path fill="#f18805" stroke="#af3800" d="M547.5,-152.5C547.5,-152.5 735,-152.5 735,-152.5 741,-152.5 747,-158.5 747,-164.5 747,-164.5 747,-239 747,-239 747,-245 741,-251 735,-251 735,-251 547.5,-251 547.5,-251 541.5,-251 535.5,-245 535.5,-239 535.5,-239 535.5,-164.5 535.5,-164.5 535.5,-158.5 541.5,-152.5 547.5,-152.5"/>
<text text-anchor="middle" x="641.25" y="-233.7" font-family="Times,serif" font-size="14.00" fill="#000000">Teaches angem</text>
<text text-anchor="middle" x="641.25" y="-217.2" font-family="Times,serif" font-size="14.00" fill="#000000">0x105301c90</text>
<polyline fill="none" stroke="#af3800" points="535.5,-210 747,-210"/>
<text text-anchor="middle" x="562.25" y="-192.7" font-family="Times,serif" font-size="14.00" fill="#000000">Left</text>
<text text-anchor="middle" x="562.25" y="-176.2" font-family="Times,serif" font-size="14.00" fill="#000000">NONE</text>
<text text-anchor="middle" x="562.25" y="-159.7" font-family="Times,serif" font-size="14.00" fill="#000000">0x0</text>
<polyline fill="none" stroke="#af3800" points="589,-152.5 589,-210"/>
<text text-anchor="middle" x="641.25" y="-192.7" font-family="Times,serif" font-size="14.00" fill="#000000">Parent</text>
<text text-anchor="middle" x="641.25" y="-176.2" font-family="Times,serif" font-size="14.00" fill="#000000">Teaches physics</text>
<text text-anchor="middle" x="641.25" y="-159.7" font-family="Times,serif" font-size="14.00" fill="#000000">0x105301d50</text>
<polyline fill="none" stroke="#af3800" points="693.5,-152.5 693.5,-210"/>
<text text-anchor="middle" x="720.25" y="-192.7" font-family="Times,serif" font-size="14.00" fill="#000000">Right</text>
<text text-anchor="middle" x="720.25" y="-176.2" font-family="Times,serif" font-size="14.00" fill="#000000">NONE</text>
<text text-anchor="middle" x="720.25" y="-159.7" font-family="Times,serif" font-size="14.00" fill="#000000">0x0</text>
</g>
<!-- node0x105301d80 -->
<g id="node5" class="node">
<title>node0x105301d80</title>
<path fill="#d5cfe1" stroke="#8797b2" d="M142,-304.5C142,-304.5 332.5,-304.5 332.5,-304.5 338.5,-304.5 344.5,-310.5 344.5,-316.5 344.5,-316.5 344.5,-391 344.5,-391 344.5,-397 338.5,-403 332.5,-403 332.5,-403 142,-403 142,-403 136,-403 130,-397 130,-391 130,-391 130,-316.5 130,-316.5 130,-310.5 136,-304.5 142,-304.5"/>
<text text-anchor="middle" x="237.25" y="-385.7" font-family="Times,serif" font-size="14.00" fill="#000000">Burtsev</text>
<text text-anchor="middle" x="237.25" y="-369.2" font-family="Times,serif" font-size="14.00" fill="#000000">0x105301d80</text>
<polyline fill="none" stroke="#8797b2" points="130,-362 344.5,-362"/>
<text text-anchor="middle" x="156.75" y="-344.7" font-family="Times,serif" font-size="14.00" fill="#000000">Left</text>
<text text-anchor="middle" x="156.75" y="-328.2" font-family="Times,serif" font-size="14.00" fill="#000000">NONE</text>
<text text-anchor="middle" x="156.75" y="-311.7" font-family="Times,serif" font-size="14.00" fill="#000000">0x0</text>
<polyline fill="none" stroke="#8797b2" points="183.5,-304.5 183.5,-362"/>
<text text-anchor="middle" x="237.25" y="-344.7" font-family="Times,serif" font-size="14.00" fill="#000000">Parent</text>
<text text-anchor="middle" x="237.25" y="-328.2" font-family="Times,serif" font-size="14.00" fill="#000000">Teaches analisys</text>
<text text-anchor="middle" x="237.25" y="-311.7" font-family="Times,serif" font-size="14.00" fill="#000000">0x105301de0</text>
<polyline fill="none" stroke="#8797b2" points="291,-304.5 291,-362"/>
<text text-anchor="middle" x="317.75" y="-344.7" font-family="Times,serif" font-size="14.00" fill="#000000">Right</text>
<text text-anchor="middle" x="317.75" y="-328.2" font-family="Times,serif" font-size="14.00" fill="#000000">NONE</text>
<text text-anchor="middle" x="317.75" y="-311.7" font-family="Times,serif" font-size="14.00" fill="#000000">0x0</text>
</g>
<!-- node0x105301de0&#45;&gt;node0x105301d80 -->
<g id="edge2" class="edge">
<title>node0x105301de0:left&#45;&gt;node0x105301d80</title>
<path fill="none" stroke="#187ae8" stroke-width="2" d="M259.25,-456C259.25,-442.44 257.34,-428.08 254.65,-414.58"/>
<polygon fill="#187ae8" stroke="#187ae8" stroke-width="2" points="258.42,-415.45 252.87,-406.43 251.58,-416.94 258.42,-415.45"/>
<text text-anchor="middle" x="265.95" y="-424.7" font-family="Times,serif" font-size="14.00">Да</text>
</g>
<!-- node0x105301d50 -->
<g id="node6" class="node">
<title>node0x105301d50</title>
<path fill="#bdef9e" stroke="#99c2a2" d="M375,-304.5C375,-304.5 649.5,-304.5 649.5,-304.5 655.5,-304.5 661.5,-310.5 661.5,-316.5 661.5,-316.5 661.5,-391 661.5,-391 661.5,-397 655.5,-403 649.5,-403 649.5,-403 375,-403 375,-403 369,-403 363,-397 363,-391 363,-391 363,-316.5 363,-316.5 363,-310.5 369,-304.5 375,-304.5"/>
<text text-anchor="middle" x="512.25" y="-385.7" font-family="Times,serif" font-size="14.00" fill="#000000">Teaches physics</text>
<text text-anchor="middle" x="512.25" y="-369.2" font-family="Times,serif" font-size="14.00" fill="#000000">0x105301d50</text>
<polyline fill="none" stroke="#99c2a2" points="363,-362 661.5,-362"/>
<text text-anchor="middle" x="408.12" y="-344.7" font-family="Times,serif" font-size="14.00" fill="#000000">Left</text>
<text text-anchor="middle" x="408.12" y="-328.2" font-family="Times,serif" font-size="14.00" fill="#000000">Nefor</text>
<text text-anchor="middle" x="408.12" y="-311.7" font-family="Times,serif" font-size="14.00" fill="#000000">0x105301d20</text>
<polyline fill="none" stroke="#99c2a2" points="453.25,-304.5 453.25,-362"/>
<text text-anchor="middle" x="507" y="-344.7" font-family="Times,serif" font-size="14.00" fill="#000000">Parent</text>
<text text-anchor="middle" x="507" y="-328.2" font-family="Times,serif" font-size="14.00" fill="#000000">Teaches analisys</text>
<text text-anchor="middle" x="507" y="-311.7" font-family="Times,serif" font-size="14.00" fill="#000000">0x105301de0</text>
<polyline fill="none" stroke="#99c2a2" points="560.75,-304.5 560.75,-362"/>
<text text-anchor="middle" x="611.12" y="-344.7" font-family="Times,serif" font-size="14.00" fill="#000000">Right</text>
<text text-anchor="middle" x="611.12" y="-328.2" font-family="Times,serif" font-size="14.00" fill="#000000">Teaches angem</text>
<text text-anchor="middle" x="611.12" y="-311.7" font-family="Times,serif" font-size="14.00" fill="#000000">0x105301c90</text>
</g>
<!-- node0x105301de0&#45;&gt;node0x105301d50 -->
<g id="edge7" class="edge">
<title>node0x105301de0:right&#45;&gt;node0x105301d50</title>
<path fill="none" stroke="#48e818" stroke-width="2" d="M446.12,-456C446.12,-440.8 451.42,-426.09 459.01,-412.82"/>
<polygon fill="#48e818" stroke="#48e818" stroke-width="2" points="460.94,-416.32 463.29,-405.99 455.01,-412.6 460.94,-416.32"/>
<text text-anchor="middle" x="465.19" y="-424.7" font-family="Times,serif" font-size="14.00">Нет</text>
</g>
<!-- node0x105301d50&#45;&gt;node0x105301c90 -->
<g id="edge6" class="edge">
<title>node0x105301d50:right&#45;&gt;node0x105301c90</title>
<path fill="none" stroke="#48e818" stroke-width="2" d="M611.12,-304C611.12,-290.11 613.76,-275.57 617.48,-261.99"/>
<polygon fill="#48e818" stroke="#48e818" stroke-width="2" points="620.29,-264.82 619.79,-254.23 613.58,-262.81 620.29,-264.82"/>
<text text-anchor="middle" x="626.37" y="-272.7" font-family="Times,serif" font-size="14.00">Нет</text>
</g>
<!-- node0x105301d20 -->
<g id="node7" class="node">
<title>node0x105301d20</title>
<path fill="#d5cfe1" stroke="#8797b2" d="M249,-152.5C249,-152.5 505.5,-152.5 505.5,-152.5 511.5,-152.5 517.5,-158.5 517.5,-164.5 517.5,-164.5 517.5,-239 517.5,-239 517.5,-245 511.5,-251 505.5,-251 505.5,-251 249,-251 249,-251 243,-251 237,-245 237,-239 237,-239 237,-164.5 237,-164.5 237,-158.5 243,-152.5 249,-152.5"/>
<text text-anchor="middle" x="377.25" y="-233.7" font-family="Times,serif" font-size="14.00" fill="#000000">Nefor</text>
<text text-anchor="middle" x="377.25" y="-217.2" font-family="Times,serif" font-size="14.00" fill="#000000">0x105301d20</text>
<polyline fill="none" stroke="#8797b2" points="237,-210 517.5,-210"/>
<text text-anchor="middle" x="280.62" y="-192.7" font-family="Times,serif" font-size="14.00" fill="#000000">Left</text>
<text text-anchor="middle" x="280.62" y="-176.2" font-family="Times,serif" font-size="14.00" fill="#000000">Magic</text>
<text text-anchor="middle" x="280.62" y="-159.7" font-family="Times,serif" font-size="14.00" fill="#000000">0x105301cf0</text>
<polyline fill="none" stroke="#8797b2" points="324.25,-152.5 324.25,-210"/>
<text text-anchor="middle" x="376.5" y="-192.7" font-family="Times,serif" font-size="14.00" fill="#000000">Parent</text>
<text text-anchor="middle" x="376.5" y="-176.2" font-family="Times,serif" font-size="14.00" fill="#000000">Teaches physics</text>
<text text-anchor="middle" x="376.5" y="-159.7" font-family="Times,serif" font-size="14.00" fill="#000000">0x105301d50</text>
<polyline fill="none" stroke="#8797b2" points="428.75,-152.5 428.75,-210"/>
<text text-anchor="middle" x="473.12" y="-192.7" font-family="Times,serif" font-size="14.00" fill="#000000">Right</text>
<text text-anchor="middle" x="473.12" y="-176.2" font-family="Times,serif" font-size="14.00" fill="#000000">Ovchos</text>
<text text-anchor="middle" x="473.12" y="-159.7" font-family="Times,serif" font-size="14.00" fill="#000000">0x105301cc0</text>
</g>
<!-- node0x105301d50&#45;&gt;node0x105301d20 -->
<g id="edge3" class="edge">
<title>node0x105301d50:left&#45;&gt;node0x105301d20</title>
<path fill="none" stroke="#187ae8" stroke-width="2" d="M408.12,-304C408.12,-290.08 405.42,-275.53 401.61,-261.95"/>
<polygon fill="#187ae8" stroke="#187ae8" stroke-width="2" points="405.51,-262.72 399.24,-254.18 398.82,-264.77 405.51,-262.72"/>
<text text-anchor="middle" x="414.35" y="-272.7" font-family="Times,serif" font-size="14.00">Да</text>
</g>
<!-- node0x105301cf0 -->
<g id="node8" class="node">
<title>node0x105301cf0</title>
<path fill="#d5cfe1" stroke="#8797b2" d="M182.62,-0.5C182.62,-0.5 355.88,-0.5 355.88,-0.5 361.88,-0.5 367.88,-6.5 367.88,-12.5 367.88,-12.5 367.88,-87 367.88,-87 367.88,-93 361.88,-99 355.88,-99 355.88,-99 182.62,-99 182.62,-99 176.62,-99 170.62,-93 170.62,-87 170.62,-87 170.62,-12.5 170.62,-12.5 170.62,-6.5 176.62,-0.5 182.62,-0.5"/>
<text text-anchor="middle" x="269.25" y="-81.7" font-family="Times,serif" font-size="14.00" fill="#000000">Magic</text>
<text text-anchor="middle" x="269.25" y="-65.2" font-family="Times,serif" font-size="14.00" fill="#000000">0x105301cf0</text>
<polyline fill="none" stroke="#8797b2" points="170.62,-58 367.88,-58"/>
<text text-anchor="middle" x="197.38" y="-40.7" font-family="Times,serif" font-size="14.00" fill="#000000">Left</text>
<text text-anchor="middle" x="197.38" y="-24.2" font-family="Times,serif" font-size="14.00" fill="#000000">NONE</text>
<text text-anchor="middle" x="197.38" y="-7.7" font-family="Times,serif" font-size="14.00" fill="#000000">0x0</text>
<polyline fill="none" stroke="#8797b2" points="224.12,-0.5 224.12,-58"/>
<text text-anchor="middle" x="269.25" y="-40.7" font-family="Times,serif" font-size="14.00" fill="#000000">Parent</text>
<text text-anchor="middle" x="269.25" y="-24.2" font-family="Times,serif" font-size="14.00" fill="#000000">Nefor</text>
<text text-anchor="middle" x="269.25" y="-7.7" font-family="Times,serif" font-size="14.00" fill="#000000">0x105301d20</text>
<polyline fill="none" stroke="#8797b2" points="314.38,-0.5 314.38,-58"/>
<text text-anchor="middle" x="341.12" y="-40.7" font-family="Times,serif" font-size="14.00" fill="#000000">Right</text>
<text text-anchor="middle" x="341.12" y="-24.2" font-family="Times,serif" font-size="14.00" fill="#000000">NONE</text>
<text text-anchor="middle" x="341.12" y="-7.7" font-family="Times,serif" font-size="14.00" fill="#000000">0x0</text>
</g>
<!-- node0x105301d20&#45;&gt;node0x105301cf0 -->
<g id="edge4" class="edge">
<title>node0x105301d20:left&#45;&gt;node0x105301cf0</title>
<path fill="none" stroke="#187ae8" stroke-width="2" d="M280.62,-152C280.62,-138.53 279.62,-124.11 278.2,-110.5"/>
<polygon fill="#187ae8" stroke="#187ae8" stroke-width="2" points="281.88,-111.84 277.27,-102.3 274.92,-112.63 281.88,-111.84"/>
<text text-anchor="middle" x="287.89" y="-120.7" font-family="Times,serif" font-size="14.00">Да</text>
</g>
<!-- node0x105301cc0 -->
<g id="node9" class="node">
<title>node0x105301cc0</title>
<path fill="#bdef9e" stroke="#99c2a2" d="M397.62,-0.5C397.62,-0.5 570.88,-0.5 570.88,-0.5 576.88,-0.5 582.88,-6.5 582.88,-12.5 582.88,-12.5 582.88,-87 582.88,-87 582.88,-93 576.88,-99 570.88,-99 570.88,-99 397.62,-99 397.62,-99 391.62,-99 385.62,-93 385.62,-87 385.62,-87 385.62,-12.5 385.62,-12.5 385.62,-6.5 391.62,-0.5 397.62,-0.5"/>
<text text-anchor="middle" x="484.25" y="-81.7" font-family="Times,serif" font-size="14.00" fill="#000000">Ovchos</text>
<text text-anchor="middle" x="484.25" y="-65.2" font-family="Times,serif" font-size="14.00" fill="#000000">0x105301cc0</text>
<polyline fill="none" stroke="#99c2a2" points="385.62,-58 582.88,-58"/>
<text text-anchor="middle" x="412.38" y="-40.7" font-family="Times,serif" font-size="14.00" fill="#000000">Left</text>
<text text-anchor="middle" x="412.38" y="-24.2" font-family="Times,serif" font-size="14.00" fill="#000000">NONE</text>
<text text-anchor="middle" x="412.38" y="-7.7" font-family="Times,serif" font-size="14.00" fill="#000000">0x0</text>
<polyline fill="none" stroke="#99c2a2" points="439.12,-0.5 439.12,-58"/>
<text text-anchor="middle" x="484.25" y="-40.7" font-family="Times,serif" font-size="14.00" fill="#000000">Parent</text>
<text text-anchor="middle" x="484.25" y="-24.2" font-family="Times,serif" font-size="14.00" fill="#000000">Nefor</text>
<text text-anchor="middle" x="484.25" y="-7.7" font-family="Times,serif" font-size="14.00" fill="#000000">0x105301d20</text>
<polyline fill="none" stroke="#99c2a2" points="529.38,-0.5 529.38,-58"/>
<text text-anchor="middle" x="556.12" y="-40.7" font-family="Times,serif" font-size="14.00" fill="#000000">Right</text>
<text text-anchor="middle" x="556.12" y="-24.2" font-family="Times,serif" font-size="14.00" fill="#000000">NONE</text>
<text text-anchor="middle" x="556.12" y="-7.7" font-family="Times,serif" font-size="14.00" fill="#000000">0x0</text>
</g>
<!-- node0x105301d20&#45;&gt;node0x105301cc0 -->
<g id="edge5" class="edge">
<title>node0x105301d20:right&#45;&gt;node0x105301cc0</title>
<path fill="none" stroke="#48e818" stroke-width="2" d="M473.12,-152C473.12,-138.53 474.11,-124.11 475.49,-110.5"/>
<polygon fill="#48e818" stroke="#48e818" stroke-width="2" points="478.78,-112.63 476.4,-102.31 471.82,-111.86 478.78,-112.63"/>
<text text-anchor="middle" x="485.61" y="-120.7" font-family="Times,serif" font-size="14.00">Нет</text>
</g>
</g>
</svg>
