<?xml version="1.0" encoding="UTF-8" standalone="no"?>
<!DOCTYPE svg PUBLIC "-//W3C//DTD SVG 1.1//EN"
 "http://www.w3.org/Graphics/SVG/1.1/DTD/svg11.dtd">
<!-- Generated by graphviz version 12.2.0 (20241103.1931)
 -->
<!-- Pages: 1 -->
<svg width="627pt" height="716pt"
 viewBox="0.00 0.00 627.12 715.50" xmlns="http://www.w3.org/2000/svg" xmlns:xlink="http://www.w3.org/1999/xlink">
<g id="graph0" class="graph" transform="scale(1 1) rotate(0) translate(4 711.5)">
<polygon fill="#dcdcdc" stroke="none" points="-4,4 -4,-711.5 623.12,-711.5 623.12,4 -4,4"/>
<!-- node0x105a01e40 -->
<g id="node1" class="node">
<title>node0x105a01e40</title>
<path fill="#fbee21" stroke="#d3c70d" d="M118,-608.5C118,-608.5 343.75,-608.5 343.75,-608.5 349.75,-608.5 355.75,-614.5 355.75,-620.5 355.75,-620.5 355.75,-695 355.75,-695 355.75,-701 349.75,-707 343.75,-707 343.75,-707 118,-707 118,-707 112,-707 106,-701 106,-695 106,-695 106,-620.5 106,-620.5 106,-614.5 112,-608.5 118,-608.5"/>
<text text-anchor="middle" x="230.88" y="-689.7" font-family="Times,serif" font-size="14.00" fill="#000000">Animal</text>
<text text-anchor="middle" x="230.88" y="-673.2" font-family="Times,serif" font-size="14.00" fill="#000000">0x105a01e40</text>
<polyline fill="none" stroke="#d3c70d" points="106,-666 355.75,-666"/>
<text text-anchor="middle" x="150.38" y="-648.7" font-family="Times,serif" font-size="14.00" fill="#000000">Left</text>
<text text-anchor="middle" x="150.38" y="-632.2" font-family="Times,serif" font-size="14.00" fill="#000000">Poltorashka</text>
<text text-anchor="middle" x="150.38" y="-615.7" font-family="Times,serif" font-size="14.00" fill="#000000">0x105a01e10</text>
<polyline fill="none" stroke="#d3c70d" points="194.75,-608.5 194.75,-666"/>
<text text-anchor="middle" x="221.5" y="-648.7" font-family="Times,serif" font-size="14.00" fill="#000000">Parent</text>
<text text-anchor="middle" x="221.5" y="-632.2" font-family="Times,serif" font-size="14.00" fill="#000000">NONE</text>
<text text-anchor="middle" x="221.5" y="-615.7" font-family="Times,serif" font-size="14.00" fill="#000000">0x0</text>
<polyline fill="none" stroke="#d3c70d" points="248.25,-608.5 248.25,-666"/>
<text text-anchor="middle" x="302" y="-648.7" font-family="Times,serif" font-size="14.00" fill="#000000">Right</text>
<text text-anchor="middle" x="302" y="-632.2" font-family="Times,serif" font-size="14.00" fill="#000000">Teaches analisys</text>
<text text-anchor="middle" x="302" y="-615.7" font-family="Times,serif" font-size="14.00" fill="#000000">0x105a01de0</text>
</g>
<!-- node0x105a01e10 -->
<g id="node2" class="node">
<title>node0x105a01e10</title>
<path fill="#d5cfe1" stroke="#8797b2" d="M12,-456.5C12,-456.5 183.75,-456.5 183.75,-456.5 189.75,-456.5 195.75,-462.5 195.75,-468.5 195.75,-468.5 195.75,-543 195.75,-543 195.75,-549 189.75,-555 183.75,-555 183.75,-555 12,-555 12,-555 6,-555 0,-549 0,-543 0,-543 0,-468.5 0,-468.5 0,-462.5 6,-456.5 12,-456.5"/>
<text text-anchor="middle" x="97.88" y="-537.7" font-family="Times,serif" font-size="14.00" fill="#000000">Poltorashka</text>
<text text-anchor="middle" x="97.88" y="-521.2" font-family="Times,serif" font-size="14.00" fill="#000000">0x105a01e10</text>
<polyline fill="none" stroke="#8797b2" points="0,-514 195.75,-514"/>
<text text-anchor="middle" x="26.75" y="-496.7" font-family="Times,serif" font-size="14.00" fill="#000000">Left</text>
<text text-anchor="middle" x="26.75" y="-480.2" font-family="Times,serif" font-size="14.00" fill="#000000">NONE</text>
<text text-anchor="middle" x="26.75" y="-463.7" font-family="Times,serif" font-size="14.00" fill="#000000">0x0</text>
<polyline fill="none" stroke="#8797b2" points="53.5,-456.5 53.5,-514"/>
<text text-anchor="middle" x="97.88" y="-496.7" font-family="Times,serif" font-size="14.00" fill="#000000">Parent</text>
<text text-anchor="middle" x="97.88" y="-480.2" font-family="Times,serif" font-size="14.00" fill="#000000">Animal</text>
<text text-anchor="middle" x="97.88" y="-463.7" font-family="Times,serif" font-size="14.00" fill="#000000">0x105a01e40</text>
<polyline fill="none" stroke="#8797b2" points="142.25,-456.5 142.25,-514"/>
<text text-anchor="middle" x="169" y="-496.7" font-family="Times,serif" font-size="14.00" fill="#000000">Right</text>
<text text-anchor="middle" x="169" y="-480.2" font-family="Times,serif" font-size="14.00" fill="#000000">NONE</text>
<text text-anchor="middle" x="169" y="-463.7" font-family="Times,serif" font-size="14.00" fill="#000000">0x0</text>
</g>
<!-- node0x105a01e40&#45;&gt;node0x105a01e10 -->
<g id="edge1" class="edge">
<title>node0x105a01e40:left&#45;&gt;node0x105a01e10</title>
<path fill="none" stroke="#187ae8" stroke-width="2" d="M105,-637.25C74.29,-637.25 74.06,-600.77 80.67,-566.38"/>
<polygon fill="#187ae8" stroke="#187ae8" stroke-width="2" points="83.73,-568.81 82.39,-558.3 76.88,-567.35 83.73,-568.81"/>
<text text-anchor="middle" x="86.91" y="-576.7" font-family="Times,serif" font-size="14.00">Да</text>
</g>
<!-- node0x105a01de0 -->
<g id="node4" class="node">
<title>node0x105a01de0</title>
<path fill="#bdef9e" stroke="#99c2a2" d="M225.5,-456.5C225.5,-456.5 484.25,-456.5 484.25,-456.5 490.25,-456.5 496.25,-462.5 496.25,-468.5 496.25,-468.5 496.25,-543 496.25,-543 496.25,-549 490.25,-555 484.25,-555 484.25,-555 225.5,-555 225.5,-555 219.5,-555 213.5,-549 213.5,-543 213.5,-543 213.5,-468.5 213.5,-468.5 213.5,-462.5 219.5,-456.5 225.5,-456.5"/>
<text text-anchor="middle" x="354.88" y="-537.7" font-family="Times,serif" font-size="14.00" fill="#000000">Teaches analisys</text>
<text text-anchor="middle" x="354.88" y="-521.2" font-family="Times,serif" font-size="14.00" fill="#000000">0x105a01de0</text>
<polyline fill="none" stroke="#99c2a2" points="213.5,-514 496.25,-514"/>
<text text-anchor="middle" x="258.25" y="-496.7" font-family="Times,serif" font-size="14.00" fill="#000000">Left</text>
<text text-anchor="middle" x="258.25" y="-480.2" font-family="Times,serif" font-size="14.00" fill="#000000">Burtsev</text>
<text text-anchor="middle" x="258.25" y="-463.7" font-family="Times,serif" font-size="14.00" fill="#000000">0x105a01d80</text>
<polyline fill="none" stroke="#99c2a2" points="303,-456.5 303,-514"/>
<text text-anchor="middle" x="347.38" y="-496.7" font-family="Times,serif" font-size="14.00" fill="#000000">Parent</text>
<text text-anchor="middle" x="347.38" y="-480.2" font-family="Times,serif" font-size="14.00" fill="#000000">Animal</text>
<text text-anchor="middle" x="347.38" y="-463.7" font-family="Times,serif" font-size="14.00" fill="#000000">0x105a01e40</text>
<polyline fill="none" stroke="#99c2a2" points="391.75,-456.5 391.75,-514"/>
<text text-anchor="middle" x="444" y="-496.7" font-family="Times,serif" font-size="14.00" fill="#000000">Right</text>
<text text-anchor="middle" x="444" y="-480.2" font-family="Times,serif" font-size="14.00" fill="#000000">Teaches physics</text>
<text text-anchor="middle" x="444" y="-463.7" font-family="Times,serif" font-size="14.00" fill="#000000">0x105a01d50</text>
</g>
<!-- node0x105a01e40&#45;&gt;node0x105a01de0 -->
<g id="edge7" class="edge">
<title>node0x105a01e40:right&#45;&gt;node0x105a01de0</title>
<path fill="none" stroke="#48e818" stroke-width="2" d="M302,-608C302,-593.38 306.38,-578.79 312.63,-565.42"/>
<polygon fill="#48e818" stroke="#48e818" stroke-width="2" points="314.91,-568.64 316.34,-558.14 308.68,-565.46 314.91,-568.64"/>
<text text-anchor="middle" x="319.43" y="-576.7" font-family="Times,serif" font-size="14.00">Нет</text>
</g>
<!-- node0x105a01d20 -->
<g id="node3" class="node">
<title>node0x105a01d20</title>
<path fill="#f18805" stroke="#af3800" d="M286.38,-152.5C286.38,-152.5 541.38,-152.5 541.38,-152.5 547.38,-152.5 553.38,-158.5 553.38,-164.5 553.38,-164.5 553.38,-239 553.38,-239 553.38,-245 547.38,-251 541.38,-251 541.38,-251 286.38,-251 286.38,-251 280.38,-251 274.38,-245 274.38,-239 274.38,-239 274.38,-164.5 274.38,-164.5 274.38,-158.5 280.38,-152.5 286.38,-152.5"/>
<text text-anchor="middle" x="413.88" y="-233.7" font-family="Times,serif" font-size="14.00" fill="#000000">Nefor</text>
<text text-anchor="middle" x="413.88" y="-217.2" font-family="Times,serif" font-size="14.00" fill="#000000">0x105a01d20</text>
<polyline fill="none" stroke="#af3800" points="274.38,-210 553.38,-210"/>
<text text-anchor="middle" x="317.62" y="-192.7" font-family="Times,serif" font-size="14.00" fill="#000000">Left</text>
<text text-anchor="middle" x="317.62" y="-176.2" font-family="Times,serif" font-size="14.00" fill="#000000">Magic</text>
<text text-anchor="middle" x="317.62" y="-159.7" font-family="Times,serif" font-size="14.00" fill="#000000">0x105a01cf0</text>
<polyline fill="none" stroke="#af3800" points="360.88,-152.5 360.88,-210"/>
<text text-anchor="middle" x="413.12" y="-192.7" font-family="Times,serif" font-size="14.00" fill="#000000">Parent</text>
<text text-anchor="middle" x="413.12" y="-176.2" font-family="Times,serif" font-size="14.00" fill="#000000">Teaches physics</text>
<text text-anchor="middle" x="413.12" y="-159.7" font-family="Times,serif" font-size="14.00" fill="#000000">0x105a01d50</text>
<polyline fill="none" stroke="#af3800" points="465.38,-152.5 465.38,-210"/>
<text text-anchor="middle" x="509.38" y="-192.7" font-family="Times,serif" font-size="14.00" fill="#000000">Right</text>
<text text-anchor="middle" x="509.38" y="-176.2" font-family="Times,serif" font-size="14.00" fill="#000000">Ovchos</text>
<text text-anchor="middle" x="509.38" y="-159.7" font-family="Times,serif" font-size="14.00" fill="#000000">0x105a01cc0</text>
</g>
<!-- node0x105a01cf0 -->
<g id="node7" class="node">
<title>node0x105a01cf0</title>
<path fill="#d5cfe1" stroke="#8797b2" d="M219.62,-0.5C219.62,-0.5 392.12,-0.5 392.12,-0.5 398.12,-0.5 404.12,-6.5 404.12,-12.5 404.12,-12.5 404.12,-87 404.12,-87 404.12,-93 398.12,-99 392.12,-99 392.12,-99 219.62,-99 219.62,-99 213.62,-99 207.62,-93 207.62,-87 207.62,-87 207.62,-12.5 207.62,-12.5 207.62,-6.5 213.62,-0.5 219.62,-0.5"/>
<text text-anchor="middle" x="305.88" y="-81.7" font-family="Times,serif" font-size="14.00" fill="#000000">Magic</text>
<text text-anchor="middle" x="305.88" y="-65.2" font-family="Times,serif" font-size="14.00" fill="#000000">0x105a01cf0</text>
<polyline fill="none" stroke="#8797b2" points="207.62,-58 404.12,-58"/>
<text text-anchor="middle" x="234.38" y="-40.7" font-family="Times,serif" font-size="14.00" fill="#000000">Left</text>
<text text-anchor="middle" x="234.38" y="-24.2" font-family="Times,serif" font-size="14.00" fill="#000000">NONE</text>
<text text-anchor="middle" x="234.38" y="-7.7" font-family="Times,serif" font-size="14.00" fill="#000000">0x0</text>
<polyline fill="none" stroke="#8797b2" points="261.12,-0.5 261.12,-58"/>
<text text-anchor="middle" x="305.88" y="-40.7" font-family="Times,serif" font-size="14.00" fill="#000000">Parent</text>
<text text-anchor="middle" x="305.88" y="-24.2" font-family="Times,serif" font-size="14.00" fill="#000000">Nefor</text>
<text text-anchor="middle" x="305.88" y="-7.7" font-family="Times,serif" font-size="14.00" fill="#000000">0x105a01d20</text>
<polyline fill="none" stroke="#8797b2" points="350.62,-0.5 350.62,-58"/>
<text text-anchor="middle" x="377.38" y="-40.7" font-family="Times,serif" font-size="14.00" fill="#000000">Right</text>
<text text-anchor="middle" x="377.38" y="-24.2" font-family="Times,serif" font-size="14.00" fill="#000000">NONE</text>
<text text-anchor="middle" x="377.38" y="-7.7" font-family="Times,serif" font-size="14.00" fill="#000000">0x0</text>
</g>
<!-- node0x105a01d20&#45;&gt;node0x105a01cf0 -->
<g id="edge4" class="edge">
<title>node0x105a01d20:left&#45;&gt;node0x105a01cf0</title>
<path fill="none" stroke="#187ae8" stroke-width="2" d="M317.62,-152C317.62,-138.52 316.58,-124.1 315.12,-110.49"/>
<polygon fill="#187ae8" stroke="#187ae8" stroke-width="2" points="318.8,-111.82 314.16,-102.29 311.85,-112.63 318.8,-111.82"/>
<text text-anchor="middle" x="324.87" y="-120.7" font-family="Times,serif" font-size="14.00">Да</text>
</g>
<!-- node0x105a01cc0 -->
<g id="node8" class="node">
<title>node0x105a01cc0</title>
<path fill="#bdef9e" stroke="#99c2a2" d="M434.62,-0.5C434.62,-0.5 607.12,-0.5 607.12,-0.5 613.12,-0.5 619.12,-6.5 619.12,-12.5 619.12,-12.5 619.12,-87 619.12,-87 619.12,-93 613.12,-99 607.12,-99 607.12,-99 434.62,-99 434.62,-99 428.62,-99 422.62,-93 422.62,-87 422.62,-87 422.62,-12.5 422.62,-12.5 422.62,-6.5 428.62,-0.5 434.62,-0.5"/>
<text text-anchor="middle" x="520.88" y="-81.7" font-family="Times,serif" font-size="14.00" fill="#000000">Ovchos</text>
<text text-anchor="middle" x="520.88" y="-65.2" font-family="Times,serif" font-size="14.00" fill="#000000">0x105a01cc0</text>
<polyline fill="none" stroke="#99c2a2" points="422.62,-58 619.12,-58"/>
<text text-anchor="middle" x="449.38" y="-40.7" font-family="Times,serif" font-size="14.00" fill="#000000">Left</text>
<text text-anchor="middle" x="449.38" y="-24.2" font-family="Times,serif" font-size="14.00" fill="#000000">NONE</text>
<text text-anchor="middle" x="449.38" y="-7.7" font-family="Times,serif" font-size="14.00" fill="#000000">0x0</text>
<polyline fill="none" stroke="#99c2a2" points="476.12,-0.5 476.12,-58"/>
<text text-anchor="middle" x="520.88" y="-40.7" font-family="Times,serif" font-size="14.00" fill="#000000">Parent</text>
<text text-anchor="middle" x="520.88" y="-24.2" font-family="Times,serif" font-size="14.00" fill="#000000">Nefor</text>
<text text-anchor="middle" x="520.88" y="-7.7" font-family="Times,serif" font-size="14.00" fill="#000000">0x105a01d20</text>
<polyline fill="none" stroke="#99c2a2" points="565.62,-0.5 565.62,-58"/>
<text text-anchor="middle" x="592.38" y="-40.7" font-family="Times,serif" font-size="14.00" fill="#000000">Right</text>
<text text-anchor="middle" x="592.38" y="-24.2" font-family="Times,serif" font-size="14.00" fill="#000000">NONE</text>
<text text-anchor="middle" x="592.38" y="-7.7" font-family="Times,serif" font-size="14.00" fill="#000000">0x0</text>
</g>
<!-- node0x105a01d20&#45;&gt;node0x105a01cc0 -->
<g id="edge5" class="edge">
<title>node0x105a01d20:right&#45;&gt;node0x105a01cc0</title>
<path fill="none" stroke="#48e818" stroke-width="2" d="M509.38,-152C509.38,-138.52 510.39,-124.1 511.82,-110.49"/>
<polygon fill="#48e818" stroke="#48e818" stroke-width="2" points="515.1,-112.63 512.76,-102.3 508.15,-111.83 515.1,-112.63"/>
<text text-anchor="middle" x="521.92" y="-120.7" font-family="Times,serif" font-size="14.00">Нет</text>
</g>
<!-- node0x105a01d80 -->
<g id="node5" class="node">
<title>node0x105a01d80</title>
<path fill="#d5cfe1" stroke="#8797b2" d="M147.62,-304.5C147.62,-304.5 338.12,-304.5 338.12,-304.5 344.12,-304.5 350.12,-310.5 350.12,-316.5 350.12,-316.5 350.12,-391 350.12,-391 350.12,-397 344.12,-403 338.12,-403 338.12,-403 147.62,-403 147.62,-403 141.62,-403 135.62,-397 135.62,-391 135.62,-391 135.62,-316.5 135.62,-316.5 135.62,-310.5 141.62,-304.5 147.62,-304.5"/>
<text text-anchor="middle" x="242.88" y="-385.7" font-family="Times,serif" font-size="14.00" fill="#000000">Burtsev</text>
<text text-anchor="middle" x="242.88" y="-369.2" font-family="Times,serif" font-size="14.00" fill="#000000">0x105a01d80</text>
<polyline fill="none" stroke="#8797b2" points="135.62,-362 350.12,-362"/>
<text text-anchor="middle" x="162.38" y="-344.7" font-family="Times,serif" font-size="14.00" fill="#000000">Left</text>
<text text-anchor="middle" x="162.38" y="-328.2" font-family="Times,serif" font-size="14.00" fill="#000000">NONE</text>
<text text-anchor="middle" x="162.38" y="-311.7" font-family="Times,serif" font-size="14.00" fill="#000000">0x0</text>
<polyline fill="none" stroke="#8797b2" points="189.12,-304.5 189.12,-362"/>
<text text-anchor="middle" x="242.88" y="-344.7" font-family="Times,serif" font-size="14.00" fill="#000000">Parent</text>
<text text-anchor="middle" x="242.88" y="-328.2" font-family="Times,serif" font-size="14.00" fill="#000000">Teaches analisys</text>
<text text-anchor="middle" x="242.88" y="-311.7" font-family="Times,serif" font-size="14.00" fill="#000000">0x105a01de0</text>
<polyline fill="none" stroke="#8797b2" points="296.62,-304.5 296.62,-362"/>
<text text-anchor="middle" x="323.38" y="-344.7" font-family="Times,serif" font-size="14.00" fill="#000000">Right</text>
<text text-anchor="middle" x="323.38" y="-328.2" font-family="Times,serif" font-size="14.00" fill="#000000">NONE</text>
<text text-anchor="middle" x="323.38" y="-311.7" font-family="Times,serif" font-size="14.00" fill="#000000">0x0</text>
</g>
<!-- node0x105a01de0&#45;&gt;node0x105a01d80 -->
<g id="edge2" class="edge">
<title>node0x105a01de0:left&#45;&gt;node0x105a01d80</title>
<path fill="none" stroke="#187ae8" stroke-width="2" d="M258.25,-456C258.25,-442.53 256.9,-428.16 255.01,-414.6"/>
<polygon fill="#187ae8" stroke="#187ae8" stroke-width="2" points="258.73,-415.8 253.76,-406.44 251.81,-416.85 258.73,-415.8"/>
<text text-anchor="middle" x="265.31" y="-424.7" font-family="Times,serif" font-size="14.00">Да</text>
</g>
<!-- node0x105a01d50 -->
<g id="node6" class="node">
<title>node0x105a01d50</title>
<path fill="#bdef9e" stroke="#99c2a2" d="M380.62,-304.5C380.62,-304.5 607.12,-304.5 607.12,-304.5 613.12,-304.5 619.12,-310.5 619.12,-316.5 619.12,-316.5 619.12,-391 619.12,-391 619.12,-397 613.12,-403 607.12,-403 607.12,-403 380.62,-403 380.62,-403 374.62,-403 368.62,-397 368.62,-391 368.62,-391 368.62,-316.5 368.62,-316.5 368.62,-310.5 374.62,-304.5 380.62,-304.5"/>
<text text-anchor="middle" x="493.88" y="-385.7" font-family="Times,serif" font-size="14.00" fill="#000000">Teaches physics</text>
<text text-anchor="middle" x="493.88" y="-369.2" font-family="Times,serif" font-size="14.00" fill="#000000">0x105a01d50</text>
<polyline fill="none" stroke="#99c2a2" points="368.62,-362 619.12,-362"/>
<text text-anchor="middle" x="413.38" y="-344.7" font-family="Times,serif" font-size="14.00" fill="#000000">Left</text>
<text text-anchor="middle" x="413.38" y="-328.2" font-family="Times,serif" font-size="14.00" fill="#000000">Nefor</text>
<text text-anchor="middle" x="413.38" y="-311.7" font-family="Times,serif" font-size="14.00" fill="#000000">0x105a01d20</text>
<polyline fill="none" stroke="#99c2a2" points="458.12,-304.5 458.12,-362"/>
<text text-anchor="middle" x="511.88" y="-344.7" font-family="Times,serif" font-size="14.00" fill="#000000">Parent</text>
<text text-anchor="middle" x="511.88" y="-328.2" font-family="Times,serif" font-size="14.00" fill="#000000">Teaches analisys</text>
<text text-anchor="middle" x="511.88" y="-311.7" font-family="Times,serif" font-size="14.00" fill="#000000">0x105a01de0</text>
<polyline fill="none" stroke="#99c2a2" points="565.62,-304.5 565.62,-362"/>
<text text-anchor="middle" x="592.38" y="-344.7" font-family="Times,serif" font-size="14.00" fill="#000000">Right</text>
<text text-anchor="middle" x="592.38" y="-328.2" font-family="Times,serif" font-size="14.00" fill="#000000">NONE</text>
<text text-anchor="middle" x="592.38" y="-311.7" font-family="Times,serif" font-size="14.00" fill="#000000">0x0</text>
</g>
<!-- node0x105a01de0&#45;&gt;node0x105a01d50 -->
<g id="edge6" class="edge">
<title>node0x105a01de0:right&#45;&gt;node0x105a01d50</title>
<path fill="none" stroke="#48e818" stroke-width="2" d="M444,-456C444,-441.48 448.18,-426.88 454.12,-413.46"/>
<polygon fill="#48e818" stroke="#48e818" stroke-width="2" points="456.44,-416.71 457.64,-406.18 450.14,-413.66 456.44,-416.71"/>
<text text-anchor="middle" x="461.05" y="-424.7" font-family="Times,serif" font-size="14.00">Нет</text>
</g>
<!-- node0x105a01d50&#45;&gt;node0x105a01d20 -->
<g id="edge3" class="edge">
<title>node0x105a01d50:left&#45;&gt;node0x105a01d20</title>
<path fill="none" stroke="#187ae8" stroke-width="2" d="M413.38,-304C413.38,-290.61 413.42,-276.22 413.48,-262.62"/>
<polygon fill="#187ae8" stroke="#187ae8" stroke-width="2" points="416.97,-264.46 413.52,-254.44 409.97,-264.43 416.97,-264.46"/>
<text text-anchor="middle" x="421.32" y="-272.7" font-family="Times,serif" font-size="14.00">Да</text>
</g>
</g>
</svg>
