<?xml version="1.0" encoding="UTF-8" standalone="no"?>
<!DOCTYPE svg PUBLIC "-//W3C//DTD SVG 1.1//EN"
 "http://www.w3.org/Graphics/SVG/1.1/DTD/svg11.dtd">
<!-- Generated by graphviz version 12.2.0 (20241103.1931)
 -->
<!-- Pages: 1 -->
<svg width="628pt" height="716pt"
 viewBox="0.00 0.00 627.88 715.50" xmlns="http://www.w3.org/2000/svg" xmlns:xlink="http://www.w3.org/1999/xlink">
<g id="graph0" class="graph" transform="scale(1 1) rotate(0) translate(4 711.5)">
<polygon fill="#dcdcdc" stroke="none" points="-4,4 -4,-711.5 623.88,-711.5 623.88,4 -4,4"/>
<!-- node0x105301e40 -->
<g id="node1" class="node">
<title>node0x105301e40</title>
<path fill="#fbee21" stroke="#d3c70d" d="M118,-608.5C118,-608.5 344.5,-608.5 344.5,-608.5 350.5,-608.5 356.5,-614.5 356.5,-620.5 356.5,-620.5 356.5,-695 356.5,-695 356.5,-701 350.5,-707 344.5,-707 344.5,-707 118,-707 118,-707 112,-707 106,-701 106,-695 106,-695 106,-620.5 106,-620.5 106,-614.5 112,-608.5 118,-608.5"/>
<text text-anchor="middle" x="231.25" y="-689.7" font-family="Times,serif" font-size="14.00" fill="#000000">Animal</text>
<text text-anchor="middle" x="231.25" y="-673.2" font-family="Times,serif" font-size="14.00" fill="#000000">0x105301e40</text>
<polyline fill="none" stroke="#d3c70d" points="106,-666 356.5,-666"/>
<text text-anchor="middle" x="150.75" y="-648.7" font-family="Times,serif" font-size="14.00" fill="#000000">Left</text>
<text text-anchor="middle" x="150.75" y="-632.2" font-family="Times,serif" font-size="14.00" fill="#000000">Poltorashka</text>
<text text-anchor="middle" x="150.75" y="-615.7" font-family="Times,serif" font-size="14.00" fill="#000000">0x105301e10</text>
<polyline fill="none" stroke="#d3c70d" points="195.5,-608.5 195.5,-666"/>
<text text-anchor="middle" x="222.25" y="-648.7" font-family="Times,serif" font-size="14.00" fill="#000000">Parent</text>
<text text-anchor="middle" x="222.25" y="-632.2" font-family="Times,serif" font-size="14.00" fill="#000000">NONE</text>
<text text-anchor="middle" x="222.25" y="-615.7" font-family="Times,serif" font-size="14.00" fill="#000000">0x0</text>
<polyline fill="none" stroke="#d3c70d" points="249,-608.5 249,-666"/>
<text text-anchor="middle" x="302.75" y="-648.7" font-family="Times,serif" font-size="14.00" fill="#000000">Right</text>
<text text-anchor="middle" x="302.75" y="-632.2" font-family="Times,serif" font-size="14.00" fill="#000000">Teaches analisys</text>
<text text-anchor="middle" x="302.75" y="-615.7" font-family="Times,serif" font-size="14.00" fill="#000000">0x105301de0</text>
</g>
<!-- node0x105301e10 -->
<g id="node2" class="node">
<title>node0x105301e10</title>
<path fill="#d5cfe1" stroke="#8797b2" d="M12,-456.5C12,-456.5 184.5,-456.5 184.5,-456.5 190.5,-456.5 196.5,-462.5 196.5,-468.5 196.5,-468.5 196.5,-543 196.5,-543 196.5,-549 190.5,-555 184.5,-555 184.5,-555 12,-555 12,-555 6,-555 0,-549 0,-543 0,-543 0,-468.5 0,-468.5 0,-462.5 6,-456.5 12,-456.5"/>
<text text-anchor="middle" x="98.25" y="-537.7" font-family="Times,serif" font-size="14.00" fill="#000000">Poltorashka</text>
<text text-anchor="middle" x="98.25" y="-521.2" font-family="Times,serif" font-size="14.00" fill="#000000">0x105301e10</text>
<polyline fill="none" stroke="#8797b2" points="0,-514 196.5,-514"/>
<text text-anchor="middle" x="26.75" y="-496.7" font-family="Times,serif" font-size="14.00" fill="#000000">Left</text>
<text text-anchor="middle" x="26.75" y="-480.2" font-family="Times,serif" font-size="14.00" fill="#000000">NONE</text>
<text text-anchor="middle" x="26.75" y="-463.7" font-family="Times,serif" font-size="14.00" fill="#000000">0x0</text>
<polyline fill="none" stroke="#8797b2" points="53.5,-456.5 53.5,-514"/>
<text text-anchor="middle" x="98.25" y="-496.7" font-family="Times,serif" font-size="14.00" fill="#000000">Parent</text>
<text text-anchor="middle" x="98.25" y="-480.2" font-family="Times,serif" font-size="14.00" fill="#000000">Animal</text>
<text text-anchor="middle" x="98.25" y="-463.7" font-family="Times,serif" font-size="14.00" fill="#000000">0x105301e40</text>
<polyline fill="none" stroke="#8797b2" points="143,-456.5 143,-514"/>
<text text-anchor="middle" x="169.75" y="-496.7" font-family="Times,serif" font-size="14.00" fill="#000000">Right</text>
<text text-anchor="middle" x="169.75" y="-480.2" font-family="Times,serif" font-size="14.00" fill="#000000">NONE</text>
<text text-anchor="middle" x="169.75" y="-463.7" font-family="Times,serif" font-size="14.00" fill="#000000">0x0</text>
</g>
<!-- node0x105301e40&#45;&gt;node0x105301e10 -->
<g id="edge1" class="edge">
<title>node0x105301e40:left&#45;&gt;node0x105301e10</title>
<path fill="none" stroke="#187ae8" stroke-width="2" d="M105,-637.25C74.29,-637.25 74.17,-600.77 80.87,-566.38"/>
<polygon fill="#187ae8" stroke="#187ae8" stroke-width="2" points="83.93,-568.82 82.62,-558.3 77.09,-567.34 83.93,-568.82"/>
<text text-anchor="middle" x="87.09" y="-576.7" font-family="Times,serif" font-size="14.00">Да</text>
</g>
<!-- node0x105301de0 -->
<g id="node4" class="node">
<title>node0x105301de0</title>
<path fill="#bdef9e" stroke="#99c2a2" d="M226.12,-456.5C226.12,-456.5 486.38,-456.5 486.38,-456.5 492.38,-456.5 498.38,-462.5 498.38,-468.5 498.38,-468.5 498.38,-543 498.38,-543 498.38,-549 492.38,-555 486.38,-555 486.38,-555 226.12,-555 226.12,-555 220.12,-555 214.12,-549 214.12,-543 214.12,-543 214.12,-468.5 214.12,-468.5 214.12,-462.5 220.12,-456.5 226.12,-456.5"/>
<text text-anchor="middle" x="356.25" y="-537.7" font-family="Times,serif" font-size="14.00" fill="#000000">Teaches analisys</text>
<text text-anchor="middle" x="356.25" y="-521.2" font-family="Times,serif" font-size="14.00" fill="#000000">0x105301de0</text>
<polyline fill="none" stroke="#99c2a2" points="214.12,-514 498.38,-514"/>
<text text-anchor="middle" x="259.25" y="-496.7" font-family="Times,serif" font-size="14.00" fill="#000000">Left</text>
<text text-anchor="middle" x="259.25" y="-480.2" font-family="Times,serif" font-size="14.00" fill="#000000">Burtsev</text>
<text text-anchor="middle" x="259.25" y="-463.7" font-family="Times,serif" font-size="14.00" fill="#000000">0x105301d80</text>
<polyline fill="none" stroke="#99c2a2" points="304.38,-456.5 304.38,-514"/>
<text text-anchor="middle" x="349.12" y="-496.7" font-family="Times,serif" font-size="14.00" fill="#000000">Parent</text>
<text text-anchor="middle" x="349.12" y="-480.2" font-family="Times,serif" font-size="14.00" fill="#000000">Animal</text>
<text text-anchor="middle" x="349.12" y="-463.7" font-family="Times,serif" font-size="14.00" fill="#000000">0x105301e40</text>
<polyline fill="none" stroke="#99c2a2" points="393.88,-456.5 393.88,-514"/>
<text text-anchor="middle" x="446.12" y="-496.7" font-family="Times,serif" font-size="14.00" fill="#000000">Right</text>
<text text-anchor="middle" x="446.12" y="-480.2" font-family="Times,serif" font-size="14.00" fill="#000000">Teaches physics</text>
<text text-anchor="middle" x="446.12" y="-463.7" font-family="Times,serif" font-size="14.00" fill="#000000">0x105301d50</text>
</g>
<!-- node0x105301e40&#45;&gt;node0x105301de0 -->
<g id="edge7" class="edge">
<title>node0x105301e40:right&#45;&gt;node0x105301de0</title>
<path fill="none" stroke="#48e818" stroke-width="2" d="M302.75,-608C302.75,-593.35 307.19,-578.74 313.5,-565.36"/>
<polygon fill="#48e818" stroke="#48e818" stroke-width="2" points="315.78,-568.57 317.27,-558.08 309.56,-565.36 315.78,-568.57"/>
<text text-anchor="middle" x="320.25" y="-576.7" font-family="Times,serif" font-size="14.00">Нет</text>
</g>
<!-- node0x105301d20 -->
<g id="node3" class="node">
<title>node0x105301d20</title>
<path fill="#f18805" stroke="#af3800" d="M286,-152.5C286,-152.5 542.5,-152.5 542.5,-152.5 548.5,-152.5 554.5,-158.5 554.5,-164.5 554.5,-164.5 554.5,-239 554.5,-239 554.5,-245 548.5,-251 542.5,-251 542.5,-251 286,-251 286,-251 280,-251 274,-245 274,-239 274,-239 274,-164.5 274,-164.5 274,-158.5 280,-152.5 286,-152.5"/>
<text text-anchor="middle" x="414.25" y="-233.7" font-family="Times,serif" font-size="14.00" fill="#000000">Nefor</text>
<text text-anchor="middle" x="414.25" y="-217.2" font-family="Times,serif" font-size="14.00" fill="#000000">0x105301d20</text>
<polyline fill="none" stroke="#af3800" points="274,-210 554.5,-210"/>
<text text-anchor="middle" x="317.62" y="-192.7" font-family="Times,serif" font-size="14.00" fill="#000000">Left</text>
<text text-anchor="middle" x="317.62" y="-176.2" font-family="Times,serif" font-size="14.00" fill="#000000">Magic</text>
<text text-anchor="middle" x="317.62" y="-159.7" font-family="Times,serif" font-size="14.00" fill="#000000">0x105301cf0</text>
<polyline fill="none" stroke="#af3800" points="361.25,-152.5 361.25,-210"/>
<text text-anchor="middle" x="413.5" y="-192.7" font-family="Times,serif" font-size="14.00" fill="#000000">Parent</text>
<text text-anchor="middle" x="413.5" y="-176.2" font-family="Times,serif" font-size="14.00" fill="#000000">Teaches physics</text>
<text text-anchor="middle" x="413.5" y="-159.7" font-family="Times,serif" font-size="14.00" fill="#000000">0x105301d50</text>
<polyline fill="none" stroke="#af3800" points="465.75,-152.5 465.75,-210"/>
<text text-anchor="middle" x="510.12" y="-192.7" font-family="Times,serif" font-size="14.00" fill="#000000">Right</text>
<text text-anchor="middle" x="510.12" y="-176.2" font-family="Times,serif" font-size="14.00" fill="#000000">Ovchos</text>
<text text-anchor="middle" x="510.12" y="-159.7" font-family="Times,serif" font-size="14.00" fill="#000000">0x105301cc0</text>
</g>
<!-- node0x105301cf0 -->
<g id="node7" class="node">
<title>node0x105301cf0</title>
<path fill="#d5cfe1" stroke="#8797b2" d="M219.62,-0.5C219.62,-0.5 392.88,-0.5 392.88,-0.5 398.88,-0.5 404.88,-6.5 404.88,-12.5 404.88,-12.5 404.88,-87 404.88,-87 404.88,-93 398.88,-99 392.88,-99 392.88,-99 219.62,-99 219.62,-99 213.62,-99 207.62,-93 207.62,-87 207.62,-87 207.62,-12.5 207.62,-12.5 207.62,-6.5 213.62,-0.5 219.62,-0.5"/>
<text text-anchor="middle" x="306.25" y="-81.7" font-family="Times,serif" font-size="14.00" fill="#000000">Magic</text>
<text text-anchor="middle" x="306.25" y="-65.2" font-family="Times,serif" font-size="14.00" fill="#000000">0x105301cf0</text>
<polyline fill="none" stroke="#8797b2" points="207.62,-58 404.88,-58"/>
<text text-anchor="middle" x="234.38" y="-40.7" font-family="Times,serif" font-size="14.00" fill="#000000">Left</text>
<text text-anchor="middle" x="234.38" y="-24.2" font-family="Times,serif" font-size="14.00" fill="#000000">NONE</text>
<text text-anchor="middle" x="234.38" y="-7.7" font-family="Times,serif" font-size="14.00" fill="#000000">0x0</text>
<polyline fill="none" stroke="#8797b2" points="261.12,-0.5 261.12,-58"/>
<text text-anchor="middle" x="306.25" y="-40.7" font-family="Times,serif" font-size="14.00" fill="#000000">Parent</text>
<text text-anchor="middle" x="306.25" y="-24.2" font-family="Times,serif" font-size="14.00" fill="#000000">Nefor</text>
<text text-anchor="middle" x="306.25" y="-7.7" font-family="Times,serif" font-size="14.00" fill="#000000">0x105301d20</text>
<polyline fill="none" stroke="#8797b2" points="351.38,-0.5 351.38,-58"/>
<text text-anchor="middle" x="378.12" y="-40.7" font-family="Times,serif" font-size="14.00" fill="#000000">Right</text>
<text text-anchor="middle" x="378.12" y="-24.2" font-family="Times,serif" font-size="14.00" fill="#000000">NONE</text>
<text text-anchor="middle" x="378.12" y="-7.7" font-family="Times,serif" font-size="14.00" fill="#000000">0x0</text>
</g>
<!-- node0x105301d20&#45;&gt;node0x105301cf0 -->
<g id="edge4" class="edge">
<title>node0x105301d20:left&#45;&gt;node0x105301cf0</title>
<path fill="none" stroke="#187ae8" stroke-width="2" d="M317.62,-152C317.62,-138.53 316.62,-124.11 315.2,-110.5"/>
<polygon fill="#187ae8" stroke="#187ae8" stroke-width="2" points="318.88,-111.84 314.27,-102.3 311.92,-112.63 318.88,-111.84"/>
<text text-anchor="middle" x="324.89" y="-120.7" font-family="Times,serif" font-size="14.00">Да</text>
</g>
<!-- node0x105301cc0 -->
<g id="node8" class="node">
<title>node0x105301cc0</title>
<path fill="#bdef9e" stroke="#99c2a2" d="M434.62,-0.5C434.62,-0.5 607.88,-0.5 607.88,-0.5 613.88,-0.5 619.88,-6.5 619.88,-12.5 619.88,-12.5 619.88,-87 619.88,-87 619.88,-93 613.88,-99 607.88,-99 607.88,-99 434.62,-99 434.62,-99 428.62,-99 422.62,-93 422.62,-87 422.62,-87 422.62,-12.5 422.62,-12.5 422.62,-6.5 428.62,-0.5 434.62,-0.5"/>
<text text-anchor="middle" x="521.25" y="-81.7" font-family="Times,serif" font-size="14.00" fill="#000000">Ovchos</text>
<text text-anchor="middle" x="521.25" y="-65.2" font-family="Times,serif" font-size="14.00" fill="#000000">0x105301cc0</text>
<polyline fill="none" stroke="#99c2a2" points="422.62,-58 619.88,-58"/>
<text text-anchor="middle" x="449.38" y="-40.7" font-family="Times,serif" font-size="14.00" fill="#000000">Left</text>
<text text-anchor="middle" x="449.38" y="-24.2" font-family="Times,serif" font-size="14.00" fill="#000000">NONE</text>
<text text-anchor="middle" x="449.38" y="-7.7" font-family="Times,serif" font-size="14.00" fill="#000000">0x0</text>
<polyline fill="none" stroke="#99c2a2" points="476.12,-0.5 476.12,-58"/>
<text text-anchor="middle" x="521.25" y="-40.7" font-family="Times,serif" font-size="14.00" fill="#000000">Parent</text>
<text text-anchor="middle" x="521.25" y="-24.2" font-family="Times,serif" font-size="14.00" fill="#000000">Nefor</text>
<text text-anchor="middle" x="521.25" y="-7.7" font-family="Times,serif" font-size="14.00" fill="#000000">0x105301d20</text>
<polyline fill="none" stroke="#99c2a2" points="566.38,-0.5 566.38,-58"/>
<text text-anchor="middle" x="593.12" y="-40.7" font-family="Times,serif" font-size="14.00" fill="#000000">Right</text>
<text text-anchor="middle" x="593.12" y="-24.2" font-family="Times,serif" font-size="14.00" fill="#000000">NONE</text>
<text text-anchor="middle" x="593.12" y="-7.7" font-family="Times,serif" font-size="14.00" fill="#000000">0x0</text>
</g>
<!-- node0x105301d20&#45;&gt;node0x105301cc0 -->
<g id="edge5" class="edge">
<title>node0x105301d20:right&#45;&gt;node0x105301cc0</title>
<path fill="none" stroke="#48e818" stroke-width="2" d="M510.12,-152C510.12,-138.53 511.11,-124.11 512.49,-110.5"/>
<polygon fill="#48e818" stroke="#48e818" stroke-width="2" points="515.78,-112.63 513.4,-102.31 508.82,-111.86 515.78,-112.63"/>
<text text-anchor="middle" x="522.61" y="-120.7" font-family="Times,serif" font-size="14.00">Нет</text>
</g>
<!-- node0x105301d80 -->
<g id="node5" class="node">
<title>node0x105301d80</title>
<path fill="#d5cfe1" stroke="#8797b2" d="M148,-304.5C148,-304.5 338.5,-304.5 338.5,-304.5 344.5,-304.5 350.5,-310.5 350.5,-316.5 350.5,-316.5 350.5,-391 350.5,-391 350.5,-397 344.5,-403 338.5,-403 338.5,-403 148,-403 148,-403 142,-403 136,-397 136,-391 136,-391 136,-316.5 136,-316.5 136,-310.5 142,-304.5 148,-304.5"/>
<text text-anchor="middle" x="243.25" y="-385.7" font-family="Times,serif" font-size="14.00" fill="#000000">Burtsev</text>
<text text-anchor="middle" x="243.25" y="-369.2" font-family="Times,serif" font-size="14.00" fill="#000000">0x105301d80</text>
<polyline fill="none" stroke="#8797b2" points="136,-362 350.5,-362"/>
<text text-anchor="middle" x="162.75" y="-344.7" font-family="Times,serif" font-size="14.00" fill="#000000">Left</text>
<text text-anchor="middle" x="162.75" y="-328.2" font-family="Times,serif" font-size="14.00" fill="#000000">NONE</text>
<text text-anchor="middle" x="162.75" y="-311.7" font-family="Times,serif" font-size="14.00" fill="#000000">0x0</text>
<polyline fill="none" stroke="#8797b2" points="189.5,-304.5 189.5,-362"/>
<text text-anchor="middle" x="243.25" y="-344.7" font-family="Times,serif" font-size="14.00" fill="#000000">Parent</text>
<text text-anchor="middle" x="243.25" y="-328.2" font-family="Times,serif" font-size="14.00" fill="#000000">Teaches analisys</text>
<text text-anchor="middle" x="243.25" y="-311.7" font-family="Times,serif" font-size="14.00" fill="#000000">0x105301de0</text>
<polyline fill="none" stroke="#8797b2" points="297,-304.5 297,-362"/>
<text text-anchor="middle" x="323.75" y="-344.7" font-family="Times,serif" font-size="14.00" fill="#000000">Right</text>
<text text-anchor="middle" x="323.75" y="-328.2" font-family="Times,serif" font-size="14.00" fill="#000000">NONE</text>
<text text-anchor="middle" x="323.75" y="-311.7" font-family="Times,serif" font-size="14.00" fill="#000000">0x0</text>
</g>
<!-- node0x105301de0&#45;&gt;node0x105301d80 -->
<g id="edge2" class="edge">
<title>node0x105301de0:left&#45;&gt;node0x105301d80</title>
<path fill="none" stroke="#187ae8" stroke-width="2" d="M259.25,-456C259.25,-442.51 257.85,-428.14 255.87,-414.58"/>
<polygon fill="#187ae8" stroke="#187ae8" stroke-width="2" points="259.6,-415.74 254.57,-406.42 252.69,-416.84 259.6,-415.74"/>
<text text-anchor="middle" x="266.27" y="-424.7" font-family="Times,serif" font-size="14.00">Да</text>
</g>
<!-- node0x105301d50 -->
<g id="node6" class="node">
<title>node0x105301d50</title>
<path fill="#bdef9e" stroke="#99c2a2" d="M380.62,-304.5C380.62,-304.5 607.88,-304.5 607.88,-304.5 613.88,-304.5 619.88,-310.5 619.88,-316.5 619.88,-316.5 619.88,-391 619.88,-391 619.88,-397 613.88,-403 607.88,-403 607.88,-403 380.62,-403 380.62,-403 374.62,-403 368.62,-397 368.62,-391 368.62,-391 368.62,-316.5 368.62,-316.5 368.62,-310.5 374.62,-304.5 380.62,-304.5"/>
<text text-anchor="middle" x="494.25" y="-385.7" font-family="Times,serif" font-size="14.00" fill="#000000">Teaches physics</text>
<text text-anchor="middle" x="494.25" y="-369.2" font-family="Times,serif" font-size="14.00" fill="#000000">0x105301d50</text>
<polyline fill="none" stroke="#99c2a2" points="368.62,-362 619.88,-362"/>
<text text-anchor="middle" x="413.75" y="-344.7" font-family="Times,serif" font-size="14.00" fill="#000000">Left</text>
<text text-anchor="middle" x="413.75" y="-328.2" font-family="Times,serif" font-size="14.00" fill="#000000">Nefor</text>
<text text-anchor="middle" x="413.75" y="-311.7" font-family="Times,serif" font-size="14.00" fill="#000000">0x105301d20</text>
<polyline fill="none" stroke="#99c2a2" points="458.88,-304.5 458.88,-362"/>
<text text-anchor="middle" x="512.62" y="-344.7" font-family="Times,serif" font-size="14.00" fill="#000000">Parent</text>
<text text-anchor="middle" x="512.62" y="-328.2" font-family="Times,serif" font-size="14.00" fill="#000000">Teaches analisys</text>
<text text-anchor="middle" x="512.62" y="-311.7" font-family="Times,serif" font-size="14.00" fill="#000000">0x105301de0</text>
<polyline fill="none" stroke="#99c2a2" points="566.38,-304.5 566.38,-362"/>
<text text-anchor="middle" x="593.12" y="-344.7" font-family="Times,serif" font-size="14.00" fill="#000000">Right</text>
<text text-anchor="middle" x="593.12" y="-328.2" font-family="Times,serif" font-size="14.00" fill="#000000">NONE</text>
<text text-anchor="middle" x="593.12" y="-311.7" font-family="Times,serif" font-size="14.00" fill="#000000">0x0</text>
</g>
<!-- node0x105301de0&#45;&gt;node0x105301d50 -->
<g id="edge6" class="edge">
<title>node0x105301de0:right&#45;&gt;node0x105301d50</title>
<path fill="none" stroke="#48e818" stroke-width="2" d="M446.12,-456C446.12,-441.5 450.2,-426.86 455.98,-413.4"/>
<polygon fill="#48e818" stroke="#48e818" stroke-width="2" points="458.33,-416.63 459.41,-406.09 451.99,-413.66 458.33,-416.63"/>
<text text-anchor="middle" x="462.96" y="-424.7" font-family="Times,serif" font-size="14.00">Нет</text>
</g>
<!-- node0x105301d50&#45;&gt;node0x105301d20 -->
<g id="edge3" class="edge">
<title>node0x105301d50:left&#45;&gt;node0x105301d20</title>
<path fill="none" stroke="#187ae8" stroke-width="2" d="M413.75,-304C413.75,-290.61 413.79,-276.22 413.86,-262.62"/>
<polygon fill="#187ae8" stroke="#187ae8" stroke-width="2" points="417.35,-264.46 413.9,-254.44 410.35,-264.43 417.35,-264.46"/>
<text text-anchor="middle" x="421.7" y="-272.7" font-family="Times,serif" font-size="14.00">Да</text>
</g>
</g>
</svg>
