<?xml version="1.0" encoding="UTF-8" standalone="no"?>
<!DOCTYPE svg PUBLIC "-//W3C//DTD SVG 1.1//EN"
 "http://www.w3.org/Graphics/SVG/1.1/DTD/svg11.dtd">
<!-- Generated by graphviz version 12.2.0 (20241103.1931)
 -->
<!-- Pages: 1 -->
<svg width="627pt" height="564pt"
 viewBox="0.00 0.00 627.12 563.50" xmlns="http://www.w3.org/2000/svg" xmlns:xlink="http://www.w3.org/1999/xlink">
<g id="graph0" class="graph" transform="scale(1 1) rotate(0) translate(4 559.5)">
<polygon fill="#dcdcdc" stroke="none" points="-4,4 -4,-559.5 623.12,-559.5 623.12,4 -4,4"/>
<!-- node0x106e01e40 -->
<g id="node1" class="node">
<title>node0x106e01e40</title>
<path fill="#fbee21" stroke="#d3c70d" d="M118,-456.5C118,-456.5 343.75,-456.5 343.75,-456.5 349.75,-456.5 355.75,-462.5 355.75,-468.5 355.75,-468.5 355.75,-543 355.75,-543 355.75,-549 349.75,-555 343.75,-555 343.75,-555 118,-555 118,-555 112,-555 106,-549 106,-543 106,-543 106,-468.5 106,-468.5 106,-462.5 112,-456.5 118,-456.5"/>
<text text-anchor="middle" x="230.88" y="-537.7" font-family="Times,serif" font-size="14.00" fill="#000000">Animal</text>
<text text-anchor="middle" x="230.88" y="-521.2" font-family="Times,serif" font-size="14.00" fill="#000000">0x106e01e40</text>
<polyline fill="none" stroke="#d3c70d" points="106,-514 355.75,-514"/>
<text text-anchor="middle" x="150.38" y="-496.7" font-family="Times,serif" font-size="14.00" fill="#000000">Left</text>
<text text-anchor="middle" x="150.38" y="-480.2" font-family="Times,serif" font-size="14.00" fill="#000000">Poltorashka</text>
<text text-anchor="middle" x="150.38" y="-463.7" font-family="Times,serif" font-size="14.00" fill="#000000">0x106e01e10</text>
<polyline fill="none" stroke="#d3c70d" points="194.75,-456.5 194.75,-514"/>
<text text-anchor="middle" x="221.5" y="-496.7" font-family="Times,serif" font-size="14.00" fill="#000000">Parent</text>
<text text-anchor="middle" x="221.5" y="-480.2" font-family="Times,serif" font-size="14.00" fill="#000000">NONE</text>
<text text-anchor="middle" x="221.5" y="-463.7" font-family="Times,serif" font-size="14.00" fill="#000000">0x0</text>
<polyline fill="none" stroke="#d3c70d" points="248.25,-456.5 248.25,-514"/>
<text text-anchor="middle" x="302" y="-496.7" font-family="Times,serif" font-size="14.00" fill="#000000">Right</text>
<text text-anchor="middle" x="302" y="-480.2" font-family="Times,serif" font-size="14.00" fill="#000000">Teaches analisys</text>
<text text-anchor="middle" x="302" y="-463.7" font-family="Times,serif" font-size="14.00" fill="#000000">0x106e01de0</text>
</g>
<!-- node0x106e01e10 -->
<g id="node2" class="node">
<title>node0x106e01e10</title>
<path fill="#d5cfe1" stroke="#8797b2" d="M12,-304.5C12,-304.5 183.75,-304.5 183.75,-304.5 189.75,-304.5 195.75,-310.5 195.75,-316.5 195.75,-316.5 195.75,-391 195.75,-391 195.75,-397 189.75,-403 183.75,-403 183.75,-403 12,-403 12,-403 6,-403 0,-397 0,-391 0,-391 0,-316.5 0,-316.5 0,-310.5 6,-304.5 12,-304.5"/>
<text text-anchor="middle" x="97.88" y="-385.7" font-family="Times,serif" font-size="14.00" fill="#000000">Poltorashka</text>
<text text-anchor="middle" x="97.88" y="-369.2" font-family="Times,serif" font-size="14.00" fill="#000000">0x106e01e10</text>
<polyline fill="none" stroke="#8797b2" points="0,-362 195.75,-362"/>
<text text-anchor="middle" x="26.75" y="-344.7" font-family="Times,serif" font-size="14.00" fill="#000000">Left</text>
<text text-anchor="middle" x="26.75" y="-328.2" font-family="Times,serif" font-size="14.00" fill="#000000">NONE</text>
<text text-anchor="middle" x="26.75" y="-311.7" font-family="Times,serif" font-size="14.00" fill="#000000">0x0</text>
<polyline fill="none" stroke="#8797b2" points="53.5,-304.5 53.5,-362"/>
<text text-anchor="middle" x="97.88" y="-344.7" font-family="Times,serif" font-size="14.00" fill="#000000">Parent</text>
<text text-anchor="middle" x="97.88" y="-328.2" font-family="Times,serif" font-size="14.00" fill="#000000">Animal</text>
<text text-anchor="middle" x="97.88" y="-311.7" font-family="Times,serif" font-size="14.00" fill="#000000">0x106e01e40</text>
<polyline fill="none" stroke="#8797b2" points="142.25,-304.5 142.25,-362"/>
<text text-anchor="middle" x="169" y="-344.7" font-family="Times,serif" font-size="14.00" fill="#000000">Right</text>
<text text-anchor="middle" x="169" y="-328.2" font-family="Times,serif" font-size="14.00" fill="#000000">NONE</text>
<text text-anchor="middle" x="169" y="-311.7" font-family="Times,serif" font-size="14.00" fill="#000000">0x0</text>
</g>
<!-- node0x106e01e40&#45;&gt;node0x106e01e10 -->
<g id="edge1" class="edge">
<title>node0x106e01e40:left&#45;&gt;node0x106e01e10</title>
<path fill="none" stroke="#187ae8" stroke-width="2" d="M105,-485.25C74.29,-485.25 74.06,-448.77 80.67,-414.38"/>
<polygon fill="#187ae8" stroke="#187ae8" stroke-width="2" points="83.73,-416.81 82.39,-406.3 76.88,-415.35 83.73,-416.81"/>
<text text-anchor="middle" x="86.91" y="-424.7" font-family="Times,serif" font-size="14.00">Да</text>
</g>
<!-- node0x106e01de0 -->
<g id="node4" class="node">
<title>node0x106e01de0</title>
<path fill="#bdef9e" stroke="#99c2a2" d="M225.5,-304.5C225.5,-304.5 484.25,-304.5 484.25,-304.5 490.25,-304.5 496.25,-310.5 496.25,-316.5 496.25,-316.5 496.25,-391 496.25,-391 496.25,-397 490.25,-403 484.25,-403 484.25,-403 225.5,-403 225.5,-403 219.5,-403 213.5,-397 213.5,-391 213.5,-391 213.5,-316.5 213.5,-316.5 213.5,-310.5 219.5,-304.5 225.5,-304.5"/>
<text text-anchor="middle" x="354.88" y="-385.7" font-family="Times,serif" font-size="14.00" fill="#000000">Teaches analisys</text>
<text text-anchor="middle" x="354.88" y="-369.2" font-family="Times,serif" font-size="14.00" fill="#000000">0x106e01de0</text>
<polyline fill="none" stroke="#99c2a2" points="213.5,-362 496.25,-362"/>
<text text-anchor="middle" x="258.25" y="-344.7" font-family="Times,serif" font-size="14.00" fill="#000000">Left</text>
<text text-anchor="middle" x="258.25" y="-328.2" font-family="Times,serif" font-size="14.00" fill="#000000">Burtsev</text>
<text text-anchor="middle" x="258.25" y="-311.7" font-family="Times,serif" font-size="14.00" fill="#000000">0x106e01d80</text>
<polyline fill="none" stroke="#99c2a2" points="303,-304.5 303,-362"/>
<text text-anchor="middle" x="347.38" y="-344.7" font-family="Times,serif" font-size="14.00" fill="#000000">Parent</text>
<text text-anchor="middle" x="347.38" y="-328.2" font-family="Times,serif" font-size="14.00" fill="#000000">Animal</text>
<text text-anchor="middle" x="347.38" y="-311.7" font-family="Times,serif" font-size="14.00" fill="#000000">0x106e01e40</text>
<polyline fill="none" stroke="#99c2a2" points="391.75,-304.5 391.75,-362"/>
<text text-anchor="middle" x="444" y="-344.7" font-family="Times,serif" font-size="14.00" fill="#000000">Right</text>
<text text-anchor="middle" x="444" y="-328.2" font-family="Times,serif" font-size="14.00" fill="#000000">Teaches physics</text>
<text text-anchor="middle" x="444" y="-311.7" font-family="Times,serif" font-size="14.00" fill="#000000">0x106e01d50</text>
</g>
<!-- node0x106e01e40&#45;&gt;node0x106e01de0 -->
<g id="edge5" class="edge">
<title>node0x106e01e40:right&#45;&gt;node0x106e01de0</title>
<path fill="none" stroke="#48e818" stroke-width="2" d="M302,-456C302,-441.38 306.38,-426.79 312.63,-413.42"/>
<polygon fill="#48e818" stroke="#48e818" stroke-width="2" points="314.91,-416.64 316.34,-406.14 308.68,-413.46 314.91,-416.64"/>
<text text-anchor="middle" x="319.43" y="-424.7" font-family="Times,serif" font-size="14.00">Нет</text>
</g>
<!-- node0x106e01d20 -->
<g id="node3" class="node">
<title>node0x106e01d20</title>
<path fill="#f18805" stroke="#af3800" d="M320.12,-0.5C320.12,-0.5 507.62,-0.5 507.62,-0.5 513.62,-0.5 519.62,-6.5 519.62,-12.5 519.62,-12.5 519.62,-87 519.62,-87 519.62,-93 513.62,-99 507.62,-99 507.62,-99 320.12,-99 320.12,-99 314.12,-99 308.12,-93 308.12,-87 308.12,-87 308.12,-12.5 308.12,-12.5 308.12,-6.5 314.12,-0.5 320.12,-0.5"/>
<text text-anchor="middle" x="413.88" y="-81.7" font-family="Times,serif" font-size="14.00" fill="#000000">Nefor</text>
<text text-anchor="middle" x="413.88" y="-65.2" font-family="Times,serif" font-size="14.00" fill="#000000">0x106e01d20</text>
<polyline fill="none" stroke="#af3800" points="308.12,-58 519.62,-58"/>
<text text-anchor="middle" x="334.88" y="-40.7" font-family="Times,serif" font-size="14.00" fill="#000000">Left</text>
<text text-anchor="middle" x="334.88" y="-24.2" font-family="Times,serif" font-size="14.00" fill="#000000">NONE</text>
<text text-anchor="middle" x="334.88" y="-7.7" font-family="Times,serif" font-size="14.00" fill="#000000">0x0</text>
<polyline fill="none" stroke="#af3800" points="361.62,-0.5 361.62,-58"/>
<text text-anchor="middle" x="413.88" y="-40.7" font-family="Times,serif" font-size="14.00" fill="#000000">Parent</text>
<text text-anchor="middle" x="413.88" y="-24.2" font-family="Times,serif" font-size="14.00" fill="#000000">Teaches physics</text>
<text text-anchor="middle" x="413.88" y="-7.7" font-family="Times,serif" font-size="14.00" fill="#000000">0x106e01d50</text>
<polyline fill="none" stroke="#af3800" points="466.12,-0.5 466.12,-58"/>
<text text-anchor="middle" x="492.88" y="-40.7" font-family="Times,serif" font-size="14.00" fill="#000000">Right</text>
<text text-anchor="middle" x="492.88" y="-24.2" font-family="Times,serif" font-size="14.00" fill="#000000">NONE</text>
<text text-anchor="middle" x="492.88" y="-7.7" font-family="Times,serif" font-size="14.00" fill="#000000">0x0</text>
</g>
<!-- node0x106e01d80 -->
<g id="node5" class="node">
<title>node0x106e01d80</title>
<path fill="#d5cfe1" stroke="#8797b2" d="M147.62,-152.5C147.62,-152.5 338.12,-152.5 338.12,-152.5 344.12,-152.5 350.12,-158.5 350.12,-164.5 350.12,-164.5 350.12,-239 350.12,-239 350.12,-245 344.12,-251 338.12,-251 338.12,-251 147.62,-251 147.62,-251 141.62,-251 135.62,-245 135.62,-239 135.62,-239 135.62,-164.5 135.62,-164.5 135.62,-158.5 141.62,-152.5 147.62,-152.5"/>
<text text-anchor="middle" x="242.88" y="-233.7" font-family="Times,serif" font-size="14.00" fill="#000000">Burtsev</text>
<text text-anchor="middle" x="242.88" y="-217.2" font-family="Times,serif" font-size="14.00" fill="#000000">0x106e01d80</text>
<polyline fill="none" stroke="#8797b2" points="135.62,-210 350.12,-210"/>
<text text-anchor="middle" x="162.38" y="-192.7" font-family="Times,serif" font-size="14.00" fill="#000000">Left</text>
<text text-anchor="middle" x="162.38" y="-176.2" font-family="Times,serif" font-size="14.00" fill="#000000">NONE</text>
<text text-anchor="middle" x="162.38" y="-159.7" font-family="Times,serif" font-size="14.00" fill="#000000">0x0</text>
<polyline fill="none" stroke="#8797b2" points="189.12,-152.5 189.12,-210"/>
<text text-anchor="middle" x="242.88" y="-192.7" font-family="Times,serif" font-size="14.00" fill="#000000">Parent</text>
<text text-anchor="middle" x="242.88" y="-176.2" font-family="Times,serif" font-size="14.00" fill="#000000">Teaches analisys</text>
<text text-anchor="middle" x="242.88" y="-159.7" font-family="Times,serif" font-size="14.00" fill="#000000">0x106e01de0</text>
<polyline fill="none" stroke="#8797b2" points="296.62,-152.5 296.62,-210"/>
<text text-anchor="middle" x="323.38" y="-192.7" font-family="Times,serif" font-size="14.00" fill="#000000">Right</text>
<text text-anchor="middle" x="323.38" y="-176.2" font-family="Times,serif" font-size="14.00" fill="#000000">NONE</text>
<text text-anchor="middle" x="323.38" y="-159.7" font-family="Times,serif" font-size="14.00" fill="#000000">0x0</text>
</g>
<!-- node0x106e01de0&#45;&gt;node0x106e01d80 -->
<g id="edge2" class="edge">
<title>node0x106e01de0:left&#45;&gt;node0x106e01d80</title>
<path fill="none" stroke="#187ae8" stroke-width="2" d="M258.25,-304C258.25,-290.53 256.9,-276.16 255.01,-262.6"/>
<polygon fill="#187ae8" stroke="#187ae8" stroke-width="2" points="258.73,-263.8 253.76,-254.44 251.81,-264.85 258.73,-263.8"/>
<text text-anchor="middle" x="265.31" y="-272.7" font-family="Times,serif" font-size="14.00">Да</text>
</g>
<!-- node0x106e01d50 -->
<g id="node6" class="node">
<title>node0x106e01d50</title>
<path fill="#bdef9e" stroke="#99c2a2" d="M380.62,-152.5C380.62,-152.5 607.12,-152.5 607.12,-152.5 613.12,-152.5 619.12,-158.5 619.12,-164.5 619.12,-164.5 619.12,-239 619.12,-239 619.12,-245 613.12,-251 607.12,-251 607.12,-251 380.62,-251 380.62,-251 374.62,-251 368.62,-245 368.62,-239 368.62,-239 368.62,-164.5 368.62,-164.5 368.62,-158.5 374.62,-152.5 380.62,-152.5"/>
<text text-anchor="middle" x="493.88" y="-233.7" font-family="Times,serif" font-size="14.00" fill="#000000">Teaches physics</text>
<text text-anchor="middle" x="493.88" y="-217.2" font-family="Times,serif" font-size="14.00" fill="#000000">0x106e01d50</text>
<polyline fill="none" stroke="#99c2a2" points="368.62,-210 619.12,-210"/>
<text text-anchor="middle" x="413.38" y="-192.7" font-family="Times,serif" font-size="14.00" fill="#000000">Left</text>
<text text-anchor="middle" x="413.38" y="-176.2" font-family="Times,serif" font-size="14.00" fill="#000000">Nefor</text>
<text text-anchor="middle" x="413.38" y="-159.7" font-family="Times,serif" font-size="14.00" fill="#000000">0x106e01d20</text>
<polyline fill="none" stroke="#99c2a2" points="458.12,-152.5 458.12,-210"/>
<text text-anchor="middle" x="511.88" y="-192.7" font-family="Times,serif" font-size="14.00" fill="#000000">Parent</text>
<text text-anchor="middle" x="511.88" y="-176.2" font-family="Times,serif" font-size="14.00" fill="#000000">Teaches analisys</text>
<text text-anchor="middle" x="511.88" y="-159.7" font-family="Times,serif" font-size="14.00" fill="#000000">0x106e01de0</text>
<polyline fill="none" stroke="#99c2a2" points="565.62,-152.5 565.62,-210"/>
<text text-anchor="middle" x="592.38" y="-192.7" font-family="Times,serif" font-size="14.00" fill="#000000">Right</text>
<text text-anchor="middle" x="592.38" y="-176.2" font-family="Times,serif" font-size="14.00" fill="#000000">NONE</text>
<text text-anchor="middle" x="592.38" y="-159.7" font-family="Times,serif" font-size="14.00" fill="#000000">0x0</text>
</g>
<!-- node0x106e01de0&#45;&gt;node0x106e01d50 -->
<g id="edge4" class="edge">
<title>node0x106e01de0:right&#45;&gt;node0x106e01d50</title>
<path fill="none" stroke="#48e818" stroke-width="2" d="M444,-304C444,-289.48 448.18,-274.88 454.12,-261.46"/>
<polygon fill="#48e818" stroke="#48e818" stroke-width="2" points="456.44,-264.71 457.64,-254.18 450.14,-261.66 456.44,-264.71"/>
<text text-anchor="middle" x="461.05" y="-272.7" font-family="Times,serif" font-size="14.00">Нет</text>
</g>
<!-- node0x106e01d50&#45;&gt;node0x106e01d20 -->
<g id="edge3" class="edge">
<title>node0x106e01d50:left&#45;&gt;node0x106e01d20</title>
<path fill="none" stroke="#187ae8" stroke-width="2" d="M413.38,-152C413.38,-138.61 413.42,-124.22 413.48,-110.62"/>
<polygon fill="#187ae8" stroke="#187ae8" stroke-width="2" points="416.97,-112.46 413.52,-102.44 409.97,-112.43 416.97,-112.46"/>
<text text-anchor="middle" x="421.32" y="-120.7" font-family="Times,serif" font-size="14.00">Да</text>
</g>
</g>
</svg>
