<?xml version="1.0" encoding="UTF-8" standalone="no"?>
<!DOCTYPE svg PUBLIC "-//W3C//DTD SVG 1.1//EN"
 "http://www.w3.org/Graphics/SVG/1.1/DTD/svg11.dtd">
<!-- Generated by graphviz version 12.2.0 (20241103.1931)
 -->
<!-- Pages: 1 -->
<svg width="965pt" height="868pt"
 viewBox="0.00 0.00 964.50 867.50" xmlns="http://www.w3.org/2000/svg" xmlns:xlink="http://www.w3.org/1999/xlink">
<g id="graph0" class="graph" transform="scale(1 1) rotate(0) translate(4 863.5)">
<polygon fill="#dcdcdc" stroke="none" points="-4,4 -4,-863.5 960.5,-863.5 960.5,4 -4,4"/>
<!-- node0x107601e10 -->
<g id="node1" class="node">
<title>node0x107601e10</title>
<path fill="#fbee21" stroke="#d3c70d" d="M118,-760.5C118,-760.5 344.5,-760.5 344.5,-760.5 350.5,-760.5 356.5,-766.5 356.5,-772.5 356.5,-772.5 356.5,-847 356.5,-847 356.5,-853 350.5,-859 344.5,-859 344.5,-859 118,-859 118,-859 112,-859 106,-853 106,-847 106,-847 106,-772.5 106,-772.5 106,-766.5 112,-760.5 118,-760.5"/>
<text text-anchor="middle" x="231.25" y="-841.7" font-family="Times,serif" font-size="14.00" fill="#000000">Animal</text>
<text text-anchor="middle" x="231.25" y="-825.2" font-family="Times,serif" font-size="14.00" fill="#000000">0x107601e10</text>
<polyline fill="none" stroke="#d3c70d" points="106,-818 356.5,-818"/>
<text text-anchor="middle" x="150.75" y="-800.7" font-family="Times,serif" font-size="14.00" fill="#000000">Left</text>
<text text-anchor="middle" x="150.75" y="-784.2" font-family="Times,serif" font-size="14.00" fill="#000000">Poltorashka</text>
<text text-anchor="middle" x="150.75" y="-767.7" font-family="Times,serif" font-size="14.00" fill="#000000">0x107601de0</text>
<polyline fill="none" stroke="#d3c70d" points="195.5,-760.5 195.5,-818"/>
<text text-anchor="middle" x="222.25" y="-800.7" font-family="Times,serif" font-size="14.00" fill="#000000">Parent</text>
<text text-anchor="middle" x="222.25" y="-784.2" font-family="Times,serif" font-size="14.00" fill="#000000">NONE</text>
<text text-anchor="middle" x="222.25" y="-767.7" font-family="Times,serif" font-size="14.00" fill="#000000">0x0</text>
<polyline fill="none" stroke="#d3c70d" points="249,-760.5 249,-818"/>
<text text-anchor="middle" x="302.75" y="-800.7" font-family="Times,serif" font-size="14.00" fill="#000000">Right</text>
<text text-anchor="middle" x="302.75" y="-784.2" font-family="Times,serif" font-size="14.00" fill="#000000">Teaches analisys</text>
<text text-anchor="middle" x="302.75" y="-767.7" font-family="Times,serif" font-size="14.00" fill="#000000">0x107601db0</text>
</g>
<!-- node0x107601de0 -->
<g id="node2" class="node">
<title>node0x107601de0</title>
<path fill="#d5cfe1" stroke="#8797b2" d="M12,-608.5C12,-608.5 184.5,-608.5 184.5,-608.5 190.5,-608.5 196.5,-614.5 196.5,-620.5 196.5,-620.5 196.5,-695 196.5,-695 196.5,-701 190.5,-707 184.5,-707 184.5,-707 12,-707 12,-707 6,-707 0,-701 0,-695 0,-695 0,-620.5 0,-620.5 0,-614.5 6,-608.5 12,-608.5"/>
<text text-anchor="middle" x="98.25" y="-689.7" font-family="Times,serif" font-size="14.00" fill="#000000">Poltorashka</text>
<text text-anchor="middle" x="98.25" y="-673.2" font-family="Times,serif" font-size="14.00" fill="#000000">0x107601de0</text>
<polyline fill="none" stroke="#8797b2" points="0,-666 196.5,-666"/>
<text text-anchor="middle" x="26.75" y="-648.7" font-family="Times,serif" font-size="14.00" fill="#000000">Left</text>
<text text-anchor="middle" x="26.75" y="-632.2" font-family="Times,serif" font-size="14.00" fill="#000000">NONE</text>
<text text-anchor="middle" x="26.75" y="-615.7" font-family="Times,serif" font-size="14.00" fill="#000000">0x0</text>
<polyline fill="none" stroke="#8797b2" points="53.5,-608.5 53.5,-666"/>
<text text-anchor="middle" x="98.25" y="-648.7" font-family="Times,serif" font-size="14.00" fill="#000000">Parent</text>
<text text-anchor="middle" x="98.25" y="-632.2" font-family="Times,serif" font-size="14.00" fill="#000000">Animal</text>
<text text-anchor="middle" x="98.25" y="-615.7" font-family="Times,serif" font-size="14.00" fill="#000000">0x107601e10</text>
<polyline fill="none" stroke="#8797b2" points="143,-608.5 143,-666"/>
<text text-anchor="middle" x="169.75" y="-648.7" font-family="Times,serif" font-size="14.00" fill="#000000">Right</text>
<text text-anchor="middle" x="169.75" y="-632.2" font-family="Times,serif" font-size="14.00" fill="#000000">NONE</text>
<text text-anchor="middle" x="169.75" y="-615.7" font-family="Times,serif" font-size="14.00" fill="#000000">0x0</text>
</g>
<!-- node0x107601e10&#45;&gt;node0x107601de0 -->
<g id="edge1" class="edge">
<title>node0x107601e10:left&#45;&gt;node0x107601de0</title>
<path fill="none" stroke="#187ae8" stroke-width="2" d="M105,-789.25C74.29,-789.25 74.17,-752.77 80.87,-718.38"/>
<polygon fill="#187ae8" stroke="#187ae8" stroke-width="2" points="83.93,-720.82 82.62,-710.3 77.09,-719.34 83.93,-720.82"/>
<text text-anchor="middle" x="87.09" y="-728.7" font-family="Times,serif" font-size="14.00">Да</text>
</g>
<!-- node0x107601db0 -->
<g id="node4" class="node">
<title>node0x107601db0</title>
<path fill="#bdef9e" stroke="#99c2a2" d="M226.12,-608.5C226.12,-608.5 486.38,-608.5 486.38,-608.5 492.38,-608.5 498.38,-614.5 498.38,-620.5 498.38,-620.5 498.38,-695 498.38,-695 498.38,-701 492.38,-707 486.38,-707 486.38,-707 226.12,-707 226.12,-707 220.12,-707 214.12,-701 214.12,-695 214.12,-695 214.12,-620.5 214.12,-620.5 214.12,-614.5 220.12,-608.5 226.12,-608.5"/>
<text text-anchor="middle" x="356.25" y="-689.7" font-family="Times,serif" font-size="14.00" fill="#000000">Teaches analisys</text>
<text text-anchor="middle" x="356.25" y="-673.2" font-family="Times,serif" font-size="14.00" fill="#000000">0x107601db0</text>
<polyline fill="none" stroke="#99c2a2" points="214.12,-666 498.38,-666"/>
<text text-anchor="middle" x="259.25" y="-648.7" font-family="Times,serif" font-size="14.00" fill="#000000">Left</text>
<text text-anchor="middle" x="259.25" y="-632.2" font-family="Times,serif" font-size="14.00" fill="#000000">Burtsev</text>
<text text-anchor="middle" x="259.25" y="-615.7" font-family="Times,serif" font-size="14.00" fill="#000000">0x107601d50</text>
<polyline fill="none" stroke="#99c2a2" points="304.38,-608.5 304.38,-666"/>
<text text-anchor="middle" x="349.12" y="-648.7" font-family="Times,serif" font-size="14.00" fill="#000000">Parent</text>
<text text-anchor="middle" x="349.12" y="-632.2" font-family="Times,serif" font-size="14.00" fill="#000000">Animal</text>
<text text-anchor="middle" x="349.12" y="-615.7" font-family="Times,serif" font-size="14.00" fill="#000000">0x107601e10</text>
<polyline fill="none" stroke="#99c2a2" points="393.88,-608.5 393.88,-666"/>
<text text-anchor="middle" x="446.12" y="-648.7" font-family="Times,serif" font-size="14.00" fill="#000000">Right</text>
<text text-anchor="middle" x="446.12" y="-632.2" font-family="Times,serif" font-size="14.00" fill="#000000">Teaches physics</text>
<text text-anchor="middle" x="446.12" y="-615.7" font-family="Times,serif" font-size="14.00" fill="#000000">0x107601d20</text>
</g>
<!-- node0x107601e10&#45;&gt;node0x107601db0 -->
<g id="edge11" class="edge">
<title>node0x107601e10:right&#45;&gt;node0x107601db0</title>
<path fill="none" stroke="#48e818" stroke-width="2" d="M302.75,-760C302.75,-745.35 307.19,-730.74 313.5,-717.36"/>
<polygon fill="#48e818" stroke="#48e818" stroke-width="2" points="315.78,-720.57 317.27,-710.08 309.56,-717.36 315.78,-720.57"/>
<text text-anchor="middle" x="320.25" y="-728.7" font-family="Times,serif" font-size="14.00">Нет</text>
</g>
<!-- node0x107601bd0 -->
<g id="node3" class="node">
<title>node0x107601bd0</title>
<path fill="#f18805" stroke="#af3800" d="M671,-0.5C671,-0.5 843.5,-0.5 843.5,-0.5 849.5,-0.5 855.5,-6.5 855.5,-12.5 855.5,-12.5 855.5,-87 855.5,-87 855.5,-93 849.5,-99 843.5,-99 843.5,-99 671,-99 671,-99 665,-99 659,-93 659,-87 659,-87 659,-12.5 659,-12.5 659,-6.5 665,-0.5 671,-0.5"/>
<text text-anchor="middle" x="757.25" y="-81.7" font-family="Times,serif" font-size="14.00" fill="#000000">Coach</text>
<text text-anchor="middle" x="757.25" y="-65.2" font-family="Times,serif" font-size="14.00" fill="#000000">0x107601bd0</text>
<polyline fill="none" stroke="#af3800" points="659,-58 855.5,-58"/>
<text text-anchor="middle" x="685.75" y="-40.7" font-family="Times,serif" font-size="14.00" fill="#000000">Left</text>
<text text-anchor="middle" x="685.75" y="-24.2" font-family="Times,serif" font-size="14.00" fill="#000000">NONE</text>
<text text-anchor="middle" x="685.75" y="-7.7" font-family="Times,serif" font-size="14.00" fill="#000000">0x0</text>
<polyline fill="none" stroke="#af3800" points="712.5,-0.5 712.5,-58"/>
<text text-anchor="middle" x="757.25" y="-40.7" font-family="Times,serif" font-size="14.00" fill="#000000">Parent</text>
<text text-anchor="middle" x="757.25" y="-24.2" font-family="Times,serif" font-size="14.00" fill="#000000">Do sport</text>
<text text-anchor="middle" x="757.25" y="-7.7" font-family="Times,serif" font-size="14.00" fill="#000000">0x107601c00</text>
<polyline fill="none" stroke="#af3800" points="802,-0.5 802,-58"/>
<text text-anchor="middle" x="828.75" y="-40.7" font-family="Times,serif" font-size="14.00" fill="#000000">Right</text>
<text text-anchor="middle" x="828.75" y="-24.2" font-family="Times,serif" font-size="14.00" fill="#000000">NONE</text>
<text text-anchor="middle" x="828.75" y="-7.7" font-family="Times,serif" font-size="14.00" fill="#000000">0x0</text>
</g>
<!-- node0x107601d50 -->
<g id="node5" class="node">
<title>node0x107601d50</title>
<path fill="#d5cfe1" stroke="#8797b2" d="M142,-456.5C142,-456.5 332.5,-456.5 332.5,-456.5 338.5,-456.5 344.5,-462.5 344.5,-468.5 344.5,-468.5 344.5,-543 344.5,-543 344.5,-549 338.5,-555 332.5,-555 332.5,-555 142,-555 142,-555 136,-555 130,-549 130,-543 130,-543 130,-468.5 130,-468.5 130,-462.5 136,-456.5 142,-456.5"/>
<text text-anchor="middle" x="237.25" y="-537.7" font-family="Times,serif" font-size="14.00" fill="#000000">Burtsev</text>
<text text-anchor="middle" x="237.25" y="-521.2" font-family="Times,serif" font-size="14.00" fill="#000000">0x107601d50</text>
<polyline fill="none" stroke="#8797b2" points="130,-514 344.5,-514"/>
<text text-anchor="middle" x="156.75" y="-496.7" font-family="Times,serif" font-size="14.00" fill="#000000">Left</text>
<text text-anchor="middle" x="156.75" y="-480.2" font-family="Times,serif" font-size="14.00" fill="#000000">NONE</text>
<text text-anchor="middle" x="156.75" y="-463.7" font-family="Times,serif" font-size="14.00" fill="#000000">0x0</text>
<polyline fill="none" stroke="#8797b2" points="183.5,-456.5 183.5,-514"/>
<text text-anchor="middle" x="237.25" y="-496.7" font-family="Times,serif" font-size="14.00" fill="#000000">Parent</text>
<text text-anchor="middle" x="237.25" y="-480.2" font-family="Times,serif" font-size="14.00" fill="#000000">Teaches analisys</text>
<text text-anchor="middle" x="237.25" y="-463.7" font-family="Times,serif" font-size="14.00" fill="#000000">0x107601db0</text>
<polyline fill="none" stroke="#8797b2" points="291,-456.5 291,-514"/>
<text text-anchor="middle" x="317.75" y="-496.7" font-family="Times,serif" font-size="14.00" fill="#000000">Right</text>
<text text-anchor="middle" x="317.75" y="-480.2" font-family="Times,serif" font-size="14.00" fill="#000000">NONE</text>
<text text-anchor="middle" x="317.75" y="-463.7" font-family="Times,serif" font-size="14.00" fill="#000000">0x0</text>
</g>
<!-- node0x107601db0&#45;&gt;node0x107601d50 -->
<g id="edge2" class="edge">
<title>node0x107601db0:left&#45;&gt;node0x107601d50</title>
<path fill="none" stroke="#187ae8" stroke-width="2" d="M259.25,-608C259.25,-594.44 257.34,-580.08 254.65,-566.58"/>
<polygon fill="#187ae8" stroke="#187ae8" stroke-width="2" points="258.42,-567.45 252.87,-558.43 251.58,-568.94 258.42,-567.45"/>
<text text-anchor="middle" x="265.95" y="-576.7" font-family="Times,serif" font-size="14.00">Да</text>
</g>
<!-- node0x107601d20 -->
<g id="node6" class="node">
<title>node0x107601d20</title>
<path fill="#bdef9e" stroke="#99c2a2" d="M374.5,-456.5C374.5,-456.5 646,-456.5 646,-456.5 652,-456.5 658,-462.5 658,-468.5 658,-468.5 658,-543 658,-543 658,-549 652,-555 646,-555 646,-555 374.5,-555 374.5,-555 368.5,-555 362.5,-549 362.5,-543 362.5,-543 362.5,-468.5 362.5,-468.5 362.5,-462.5 368.5,-456.5 374.5,-456.5"/>
<text text-anchor="middle" x="510.25" y="-537.7" font-family="Times,serif" font-size="14.00" fill="#000000">Teaches physics</text>
<text text-anchor="middle" x="510.25" y="-521.2" font-family="Times,serif" font-size="14.00" fill="#000000">0x107601d20</text>
<polyline fill="none" stroke="#99c2a2" points="362.5,-514 658,-514"/>
<text text-anchor="middle" x="406.12" y="-496.7" font-family="Times,serif" font-size="14.00" fill="#000000">Left</text>
<text text-anchor="middle" x="406.12" y="-480.2" font-family="Times,serif" font-size="14.00" fill="#000000">Nefor</text>
<text text-anchor="middle" x="406.12" y="-463.7" font-family="Times,serif" font-size="14.00" fill="#000000">0x107601cf0</text>
<polyline fill="none" stroke="#99c2a2" points="449.75,-456.5 449.75,-514"/>
<text text-anchor="middle" x="503.5" y="-496.7" font-family="Times,serif" font-size="14.00" fill="#000000">Parent</text>
<text text-anchor="middle" x="503.5" y="-480.2" font-family="Times,serif" font-size="14.00" fill="#000000">Teaches analisys</text>
<text text-anchor="middle" x="503.5" y="-463.7" font-family="Times,serif" font-size="14.00" fill="#000000">0x107601db0</text>
<polyline fill="none" stroke="#99c2a2" points="557.25,-456.5 557.25,-514"/>
<text text-anchor="middle" x="607.62" y="-496.7" font-family="Times,serif" font-size="14.00" fill="#000000">Right</text>
<text text-anchor="middle" x="607.62" y="-480.2" font-family="Times,serif" font-size="14.00" fill="#000000">Teaches angem</text>
<text text-anchor="middle" x="607.62" y="-463.7" font-family="Times,serif" font-size="14.00" fill="#000000">0x107601c60</text>
</g>
<!-- node0x107601db0&#45;&gt;node0x107601d20 -->
<g id="edge10" class="edge">
<title>node0x107601db0:right&#45;&gt;node0x107601d20</title>
<path fill="none" stroke="#48e818" stroke-width="2" d="M446.12,-608C446.12,-592.99 451.21,-578.41 458.52,-565.2"/>
<polygon fill="#48e818" stroke="#48e818" stroke-width="2" points="460.72,-568.32 462.93,-557.96 454.74,-564.68 460.72,-568.32"/>
<text text-anchor="middle" x="464.95" y="-576.7" font-family="Times,serif" font-size="14.00">Нет</text>
</g>
<!-- node0x107601cf0 -->
<g id="node7" class="node">
<title>node0x107601cf0</title>
<path fill="#d5cfe1" stroke="#8797b2" d="M145.88,-304.5C145.88,-304.5 404.62,-304.5 404.62,-304.5 410.62,-304.5 416.62,-310.5 416.62,-316.5 416.62,-316.5 416.62,-391 416.62,-391 416.62,-397 410.62,-403 404.62,-403 404.62,-403 145.88,-403 145.88,-403 139.88,-403 133.88,-397 133.88,-391 133.88,-391 133.88,-316.5 133.88,-316.5 133.88,-310.5 139.88,-304.5 145.88,-304.5"/>
<text text-anchor="middle" x="275.25" y="-385.7" font-family="Times,serif" font-size="14.00" fill="#000000">Nefor</text>
<text text-anchor="middle" x="275.25" y="-369.2" font-family="Times,serif" font-size="14.00" fill="#000000">0x107601cf0</text>
<polyline fill="none" stroke="#8797b2" points="133.88,-362 416.62,-362"/>
<text text-anchor="middle" x="178.25" y="-344.7" font-family="Times,serif" font-size="14.00" fill="#000000">Left</text>
<text text-anchor="middle" x="178.25" y="-328.2" font-family="Times,serif" font-size="14.00" fill="#000000">Magic</text>
<text text-anchor="middle" x="178.25" y="-311.7" font-family="Times,serif" font-size="14.00" fill="#000000">0x107601cc0</text>
<polyline fill="none" stroke="#8797b2" points="222.62,-304.5 222.62,-362"/>
<text text-anchor="middle" x="274.88" y="-344.7" font-family="Times,serif" font-size="14.00" fill="#000000">Parent</text>
<text text-anchor="middle" x="274.88" y="-328.2" font-family="Times,serif" font-size="14.00" fill="#000000">Teaches physics</text>
<text text-anchor="middle" x="274.88" y="-311.7" font-family="Times,serif" font-size="14.00" fill="#000000">0x107601d20</text>
<polyline fill="none" stroke="#8797b2" points="327.12,-304.5 327.12,-362"/>
<text text-anchor="middle" x="371.88" y="-344.7" font-family="Times,serif" font-size="14.00" fill="#000000">Right</text>
<text text-anchor="middle" x="371.88" y="-328.2" font-family="Times,serif" font-size="14.00" fill="#000000">Ovchos</text>
<text text-anchor="middle" x="371.88" y="-311.7" font-family="Times,serif" font-size="14.00" fill="#000000">0x107601c90</text>
</g>
<!-- node0x107601d20&#45;&gt;node0x107601cf0 -->
<g id="edge3" class="edge">
<title>node0x107601d20:left&#45;&gt;node0x107601cf0</title>
<path fill="none" stroke="#187ae8" stroke-width="2" d="M406.12,-456C406.12,-438.56 398.77,-423.7 387.54,-411.17"/>
<polygon fill="#187ae8" stroke="#187ae8" stroke-width="2" points="391.33,-410.01 381.78,-405.42 386.38,-414.96 391.33,-410.01"/>
<text text-anchor="middle" x="410.34" y="-424.7" font-family="Times,serif" font-size="14.00">Да</text>
</g>
<!-- node0x107601c60 -->
<g id="node10" class="node">
<title>node0x107601c60</title>
<path fill="#bdef9e" stroke="#99c2a2" d="M557.5,-304.5C557.5,-304.5 817,-304.5 817,-304.5 823,-304.5 829,-310.5 829,-316.5 829,-316.5 829,-391 829,-391 829,-397 823,-403 817,-403 817,-403 557.5,-403 557.5,-403 551.5,-403 545.5,-397 545.5,-391 545.5,-391 545.5,-316.5 545.5,-316.5 545.5,-310.5 551.5,-304.5 557.5,-304.5"/>
<text text-anchor="middle" x="687.25" y="-385.7" font-family="Times,serif" font-size="14.00" fill="#000000">Teaches angem</text>
<text text-anchor="middle" x="687.25" y="-369.2" font-family="Times,serif" font-size="14.00" fill="#000000">0x107601c60</text>
<polyline fill="none" stroke="#99c2a2" points="545.5,-362 829,-362"/>
<text text-anchor="middle" x="590.25" y="-344.7" font-family="Times,serif" font-size="14.00" fill="#000000">Left</text>
<text text-anchor="middle" x="590.25" y="-328.2" font-family="Times,serif" font-size="14.00" fill="#000000">Chubarik</text>
<text text-anchor="middle" x="590.25" y="-311.7" font-family="Times,serif" font-size="14.00" fill="#000000">0x107601c30</text>
<polyline fill="none" stroke="#99c2a2" points="635,-304.5 635,-362"/>
<text text-anchor="middle" x="687.25" y="-344.7" font-family="Times,serif" font-size="14.00" fill="#000000">Parent</text>
<text text-anchor="middle" x="687.25" y="-328.2" font-family="Times,serif" font-size="14.00" fill="#000000">Teaches physics</text>
<text text-anchor="middle" x="687.25" y="-311.7" font-family="Times,serif" font-size="14.00" fill="#000000">0x107601d20</text>
<polyline fill="none" stroke="#99c2a2" points="739.5,-304.5 739.5,-362"/>
<text text-anchor="middle" x="784.25" y="-344.7" font-family="Times,serif" font-size="14.00" fill="#000000">Right</text>
<text text-anchor="middle" x="784.25" y="-328.2" font-family="Times,serif" font-size="14.00" fill="#000000">Do sport</text>
<text text-anchor="middle" x="784.25" y="-311.7" font-family="Times,serif" font-size="14.00" fill="#000000">0x107601c00</text>
</g>
<!-- node0x107601d20&#45;&gt;node0x107601c60 -->
<g id="edge9" class="edge">
<title>node0x107601d20:right&#45;&gt;node0x107601c60</title>
<path fill="none" stroke="#48e818" stroke-width="2" d="M659,-485.25C690.24,-485.25 696.42,-449.08 695.26,-414.83"/>
<polygon fill="#48e818" stroke="#48e818" stroke-width="2" points="698.84,-416.15 694.79,-406.37 691.85,-416.55 698.84,-416.15"/>
<text text-anchor="middle" x="706.26" y="-424.7" font-family="Times,serif" font-size="14.00">Нет</text>
</g>
<!-- node0x107601cc0 -->
<g id="node8" class="node">
<title>node0x107601cc0</title>
<path fill="#d5cfe1" stroke="#8797b2" d="M74.12,-152.5C74.12,-152.5 244.38,-152.5 244.38,-152.5 250.38,-152.5 256.38,-158.5 256.38,-164.5 256.38,-164.5 256.38,-239 256.38,-239 256.38,-245 250.38,-251 244.38,-251 244.38,-251 74.12,-251 74.12,-251 68.13,-251 62.12,-245 62.12,-239 62.12,-239 62.12,-164.5 62.12,-164.5 62.12,-158.5 68.12,-152.5 74.12,-152.5"/>
<text text-anchor="middle" x="159.25" y="-233.7" font-family="Times,serif" font-size="14.00" fill="#000000">Magic</text>
<text text-anchor="middle" x="159.25" y="-217.2" font-family="Times,serif" font-size="14.00" fill="#000000">0x107601cc0</text>
<polyline fill="none" stroke="#8797b2" points="62.12,-210 256.38,-210"/>
<text text-anchor="middle" x="88.88" y="-192.7" font-family="Times,serif" font-size="14.00" fill="#000000">Left</text>
<text text-anchor="middle" x="88.88" y="-176.2" font-family="Times,serif" font-size="14.00" fill="#000000">NONE</text>
<text text-anchor="middle" x="88.88" y="-159.7" font-family="Times,serif" font-size="14.00" fill="#000000">0x0</text>
<polyline fill="none" stroke="#8797b2" points="115.62,-152.5 115.62,-210"/>
<text text-anchor="middle" x="159.25" y="-192.7" font-family="Times,serif" font-size="14.00" fill="#000000">Parent</text>
<text text-anchor="middle" x="159.25" y="-176.2" font-family="Times,serif" font-size="14.00" fill="#000000">Nefor</text>
<text text-anchor="middle" x="159.25" y="-159.7" font-family="Times,serif" font-size="14.00" fill="#000000">0x107601cf0</text>
<polyline fill="none" stroke="#8797b2" points="202.88,-152.5 202.88,-210"/>
<text text-anchor="middle" x="229.62" y="-192.7" font-family="Times,serif" font-size="14.00" fill="#000000">Right</text>
<text text-anchor="middle" x="229.62" y="-176.2" font-family="Times,serif" font-size="14.00" fill="#000000">NONE</text>
<text text-anchor="middle" x="229.62" y="-159.7" font-family="Times,serif" font-size="14.00" fill="#000000">0x0</text>
</g>
<!-- node0x107601cf0&#45;&gt;node0x107601cc0 -->
<g id="edge4" class="edge">
<title>node0x107601cf0:left&#45;&gt;node0x107601cc0</title>
<path fill="none" stroke="#187ae8" stroke-width="2" d="M178.25,-304C178.25,-290.45 176.59,-276.04 174.24,-262.49"/>
<polygon fill="#187ae8" stroke="#187ae8" stroke-width="2" points="177.99,-263.48 172.7,-254.3 171.11,-264.78 177.99,-263.48"/>
<text text-anchor="middle" x="185.11" y="-272.7" font-family="Times,serif" font-size="14.00">Да</text>
</g>
<!-- node0x107601c90 -->
<g id="node9" class="node">
<title>node0x107601c90</title>
<path fill="#bdef9e" stroke="#99c2a2" d="M286.12,-152.5C286.12,-152.5 456.38,-152.5 456.38,-152.5 462.38,-152.5 468.38,-158.5 468.38,-164.5 468.38,-164.5 468.38,-239 468.38,-239 468.38,-245 462.38,-251 456.38,-251 456.38,-251 286.12,-251 286.12,-251 280.12,-251 274.12,-245 274.12,-239 274.12,-239 274.12,-164.5 274.12,-164.5 274.12,-158.5 280.12,-152.5 286.12,-152.5"/>
<text text-anchor="middle" x="371.25" y="-233.7" font-family="Times,serif" font-size="14.00" fill="#000000">Ovchos</text>
<text text-anchor="middle" x="371.25" y="-217.2" font-family="Times,serif" font-size="14.00" fill="#000000">0x107601c90</text>
<polyline fill="none" stroke="#99c2a2" points="274.12,-210 468.38,-210"/>
<text text-anchor="middle" x="300.88" y="-192.7" font-family="Times,serif" font-size="14.00" fill="#000000">Left</text>
<text text-anchor="middle" x="300.88" y="-176.2" font-family="Times,serif" font-size="14.00" fill="#000000">NONE</text>
<text text-anchor="middle" x="300.88" y="-159.7" font-family="Times,serif" font-size="14.00" fill="#000000">0x0</text>
<polyline fill="none" stroke="#99c2a2" points="327.62,-152.5 327.62,-210"/>
<text text-anchor="middle" x="371.25" y="-192.7" font-family="Times,serif" font-size="14.00" fill="#000000">Parent</text>
<text text-anchor="middle" x="371.25" y="-176.2" font-family="Times,serif" font-size="14.00" fill="#000000">Nefor</text>
<text text-anchor="middle" x="371.25" y="-159.7" font-family="Times,serif" font-size="14.00" fill="#000000">0x107601cf0</text>
<polyline fill="none" stroke="#99c2a2" points="414.88,-152.5 414.88,-210"/>
<text text-anchor="middle" x="441.62" y="-192.7" font-family="Times,serif" font-size="14.00" fill="#000000">Right</text>
<text text-anchor="middle" x="441.62" y="-176.2" font-family="Times,serif" font-size="14.00" fill="#000000">NONE</text>
<text text-anchor="middle" x="441.62" y="-159.7" font-family="Times,serif" font-size="14.00" fill="#000000">0x0</text>
</g>
<!-- node0x107601cf0&#45;&gt;node0x107601c90 -->
<g id="edge5" class="edge">
<title>node0x107601cf0:right&#45;&gt;node0x107601c90</title>
<path fill="none" stroke="#48e818" stroke-width="2" d="M371.88,-304C371.88,-290.61 371.82,-276.22 371.74,-262.62"/>
<polygon fill="#48e818" stroke="#48e818" stroke-width="2" points="375.25,-264.42 371.69,-254.44 368.25,-264.47 375.25,-264.42"/>
<text text-anchor="middle" x="382.72" y="-272.7" font-family="Times,serif" font-size="14.00">Нет</text>
</g>
<!-- node0x107601c30 -->
<g id="node11" class="node">
<title>node0x107601c30</title>
<path fill="#d5cfe1" stroke="#8797b2" d="M498.38,-152.5C498.38,-152.5 682.12,-152.5 682.12,-152.5 688.12,-152.5 694.12,-158.5 694.12,-164.5 694.12,-164.5 694.12,-239 694.12,-239 694.12,-245 688.12,-251 682.12,-251 682.12,-251 498.38,-251 498.38,-251 492.38,-251 486.38,-245 486.38,-239 486.38,-239 486.38,-164.5 486.38,-164.5 486.38,-158.5 492.38,-152.5 498.38,-152.5"/>
<text text-anchor="middle" x="590.25" y="-233.7" font-family="Times,serif" font-size="14.00" fill="#000000">Chubarik</text>
<text text-anchor="middle" x="590.25" y="-217.2" font-family="Times,serif" font-size="14.00" fill="#000000">0x107601c30</text>
<polyline fill="none" stroke="#8797b2" points="486.38,-210 694.12,-210"/>
<text text-anchor="middle" x="513.12" y="-192.7" font-family="Times,serif" font-size="14.00" fill="#000000">Left</text>
<text text-anchor="middle" x="513.12" y="-176.2" font-family="Times,serif" font-size="14.00" fill="#000000">NONE</text>
<text text-anchor="middle" x="513.12" y="-159.7" font-family="Times,serif" font-size="14.00" fill="#000000">0x0</text>
<polyline fill="none" stroke="#8797b2" points="539.88,-152.5 539.88,-210"/>
<text text-anchor="middle" x="590.25" y="-192.7" font-family="Times,serif" font-size="14.00" fill="#000000">Parent</text>
<text text-anchor="middle" x="590.25" y="-176.2" font-family="Times,serif" font-size="14.00" fill="#000000">Teaches angem</text>
<text text-anchor="middle" x="590.25" y="-159.7" font-family="Times,serif" font-size="14.00" fill="#000000">0x107601c60</text>
<polyline fill="none" stroke="#8797b2" points="640.62,-152.5 640.62,-210"/>
<text text-anchor="middle" x="667.38" y="-192.7" font-family="Times,serif" font-size="14.00" fill="#000000">Right</text>
<text text-anchor="middle" x="667.38" y="-176.2" font-family="Times,serif" font-size="14.00" fill="#000000">NONE</text>
<text text-anchor="middle" x="667.38" y="-159.7" font-family="Times,serif" font-size="14.00" fill="#000000">0x0</text>
</g>
<!-- node0x107601c60&#45;&gt;node0x107601c30 -->
<g id="edge6" class="edge">
<title>node0x107601c60:left&#45;&gt;node0x107601c30</title>
<path fill="none" stroke="#187ae8" stroke-width="2" d="M590.25,-304C590.25,-290.61 590.25,-276.22 590.25,-262.62"/>
<polygon fill="#187ae8" stroke="#187ae8" stroke-width="2" points="593.75,-264.44 590.25,-254.44 586.75,-264.44 593.75,-264.44"/>
<text text-anchor="middle" x="598.12" y="-272.7" font-family="Times,serif" font-size="14.00">Да</text>
</g>
<!-- node0x107601c00 -->
<g id="node12" class="node">
<title>node0x107601c00</title>
<path fill="#bdef9e" stroke="#99c2a2" d="M724,-152.5C724,-152.5 944.5,-152.5 944.5,-152.5 950.5,-152.5 956.5,-158.5 956.5,-164.5 956.5,-164.5 956.5,-239 956.5,-239 956.5,-245 950.5,-251 944.5,-251 944.5,-251 724,-251 724,-251 718,-251 712,-245 712,-239 712,-239 712,-164.5 712,-164.5 712,-158.5 718,-152.5 724,-152.5"/>
<text text-anchor="middle" x="834.25" y="-233.7" font-family="Times,serif" font-size="14.00" fill="#000000">Do sport</text>
<text text-anchor="middle" x="834.25" y="-217.2" font-family="Times,serif" font-size="14.00" fill="#000000">0x107601c00</text>
<polyline fill="none" stroke="#99c2a2" points="712,-210 956.5,-210"/>
<text text-anchor="middle" x="757.12" y="-192.7" font-family="Times,serif" font-size="14.00" fill="#000000">Left</text>
<text text-anchor="middle" x="757.12" y="-176.2" font-family="Times,serif" font-size="14.00" fill="#000000">Coach</text>
<text text-anchor="middle" x="757.12" y="-159.7" font-family="Times,serif" font-size="14.00" fill="#000000">0x107601bd0</text>
<polyline fill="none" stroke="#99c2a2" points="802.25,-152.5 802.25,-210"/>
<text text-anchor="middle" x="852.62" y="-192.7" font-family="Times,serif" font-size="14.00" fill="#000000">Parent</text>
<text text-anchor="middle" x="852.62" y="-176.2" font-family="Times,serif" font-size="14.00" fill="#000000">Teaches angem</text>
<text text-anchor="middle" x="852.62" y="-159.7" font-family="Times,serif" font-size="14.00" fill="#000000">0x107601c60</text>
<polyline fill="none" stroke="#99c2a2" points="903,-152.5 903,-210"/>
<text text-anchor="middle" x="929.75" y="-192.7" font-family="Times,serif" font-size="14.00" fill="#000000">Right</text>
<text text-anchor="middle" x="929.75" y="-176.2" font-family="Times,serif" font-size="14.00" fill="#000000">NONE</text>
<text text-anchor="middle" x="929.75" y="-159.7" font-family="Times,serif" font-size="14.00" fill="#000000">0x0</text>
</g>
<!-- node0x107601c60&#45;&gt;node0x107601c00 -->
<g id="edge8" class="edge">
<title>node0x107601c60:right&#45;&gt;node0x107601c00</title>
<path fill="none" stroke="#48e818" stroke-width="2" d="M784.25,-304C784.25,-289.47 788.44,-274.87 794.39,-261.45"/>
<polygon fill="#48e818" stroke="#48e818" stroke-width="2" points="796.71,-264.69 797.93,-254.17 790.41,-261.64 796.71,-264.69"/>
<text text-anchor="middle" x="801.32" y="-272.7" font-family="Times,serif" font-size="14.00">Нет</text>
</g>
<!-- node0x107601c00&#45;&gt;node0x107601bd0 -->
<g id="edge7" class="edge">
<title>node0x107601c00:left&#45;&gt;node0x107601bd0</title>
<path fill="none" stroke="#187ae8" stroke-width="2" d="M757.12,-152C757.12,-138.61 757.14,-124.22 757.15,-110.62"/>
<polygon fill="#187ae8" stroke="#187ae8" stroke-width="2" points="760.65,-112.45 757.16,-102.44 753.65,-112.44 760.65,-112.45"/>
<text text-anchor="middle" x="765.02" y="-120.7" font-family="Times,serif" font-size="14.00">Да</text>
</g>
</g>
</svg>
